<svg width="324" height="324" viewBox="0 0 324 324" fill="none" xmlns="http://www.w3.org/2000/svg">
<path d="M310 173C310 190.334 306.586 207.499 299.952 223.514C293.318 239.529 283.595 254.081 271.338 266.338C259.081 278.595 244.529 288.318 228.514 294.952C212.499 301.586 195.334 305 178 305V301.04C194.814 301.04 211.464 297.728 226.999 291.294C242.533 284.859 256.648 275.428 268.538 263.538C280.428 251.648 289.859 237.533 296.294 221.999C302.728 206.464 306.04 189.814 306.04 173H310Z" fill="#F1F3F5"/>
<path d="M310 141C310 123.666 306.586 106.501 299.952 90.4858C293.318 74.4708 283.595 59.9192 271.338 47.6619C259.081 35.4046 244.529 25.6815 228.514 19.0479C212.499 12.4143 195.334 9 178 9V12.96C194.814 12.96 211.464 16.2719 226.999 22.7065C242.533 29.1411 256.648 38.5724 268.538 50.462C280.428 62.3517 289.859 76.4667 296.294 92.0012C302.728 107.536 306.04 124.186 306.04 141H310Z" fill="#F1F3F5"/>
<path d="M14 141C14 123.666 17.4143 106.501 24.0479 90.4858C30.6815 74.4708 40.4046 59.9192 52.6619 47.6619C64.9192 35.4046 79.4708 25.6815 95.4858 19.0479C111.501 12.4143 128.666 9 146 9V12.96C129.186 12.96 112.536 16.2719 97.0012 22.7065C81.4667 29.1411 67.3517 38.5724 55.462 50.462C43.5724 62.3517 34.1411 76.4667 27.7065 92.0012C21.2719 107.536 17.96 124.186 17.96 141H14Z" fill="#F1F3F5"/>
<path d="M14 173C14 190.334 17.4143 207.499 24.0479 223.514C30.6815 239.529 40.4046 254.081 52.6619 266.338C64.9192 278.595 79.4708 288.318 95.4858 294.952C111.501 301.586 128.666 305 146 305V301.04C129.186 301.04 112.536 297.728 97.0012 291.294C81.4667 284.859 67.3517 275.428 55.462 263.538C43.5724 251.648 34.1411 237.533 27.7065 221.999C21.2719 206.464 17.96 189.814 17.96 173H14Z" fill="#F1F3F5"/>
<path d="M299.952 223.514C286.555 255.858 260.858 281.555 228.514 294.952L226.999 291.294C258.372 278.298 283.298 253.372 296.294 221.999L299.952 223.514Z" fill="#87D7FB"/>
<path d="M299.952 90.4858C286.555 58.1421 260.858 32.4451 228.514 19.0479L226.999 22.7065C258.372 35.7017 283.298 60.6278 296.294 92.0012L299.952 90.4858Z" fill="#F2751C"/>
<path d="M24.0479 90.4858C37.4451 58.1421 63.1421 32.4451 95.4858 19.0479L97.0012 22.7065C65.6278 35.7017 40.7018 60.6278 27.7065 92.0012L24.0479 90.4858Z" fill="#40BE8C"/>
<path d="M24.0479 223.514C37.4451 255.858 63.1421 281.555 95.4858 294.952L97.0012 291.294C65.6278 278.298 40.7018 253.372 27.7065 221.999L24.0479 223.514Z" fill="#FECC4D"/>
<path d="M148.25 79.375C139.643 79.375 132.319 84.895 129.525 92.6C117.213 96.8838 108.35 108.642 108.35 122.5C108.35 126.295 109.062 129.946 110.259 133.31C100.484 140.641 94.1 152.371 94.1 165.625C94.1 179.655 101.225 191.989 111.998 199.205C111.485 201.333 111.2 203.575 111.2 205.875C111.2 221.745 123.968 234.625 139.7 234.625C144.887 234.625 149.76 233.188 153.95 230.744C156.03 229.536 157.94 228.07 159.65 226.402V82.9975C157.94 81.79 156.002 80.8412 153.95 80.2087C152.154 79.6625 150.245 79.375 148.25 79.375ZM153.95 111.575C152.217 112.409 150.299 112.915 148.25 112.915C147.213 112.915 146.207 112.794 145.238 112.567C144.65 110.025 142.402 108.125 139.7 108.125C136.551 108.125 134 110.698 134 113.875C134 117.052 136.551 119.625 139.7 119.625C140.766 119.625 141.749 119.312 142.604 118.8C144.394 119.332 146.286 119.625 148.25 119.625C150.231 119.625 152.143 119.323 153.95 118.78V167.428C153.152 166.807 152.172 166.24 151.091 165.717C151.091 165.688 151.1 165.657 151.1 165.625C151.1 162.448 148.549 159.875 145.4 159.875C142.251 159.875 139.7 162.448 139.7 165.625C139.7 168.802 142.251 171.375 145.4 171.375C146.435 171.375 147.395 171.076 148.23 170.587C150.499 171.585 152.474 172.821 153.95 174.267V223.815C150.045 226.978 145.086 228.875 139.7 228.875C127.103 228.875 116.9 218.583 116.9 205.875C116.9 204.581 117.042 203.345 117.242 202.109C117.556 200.157 118.097 198.288 118.864 196.537L118.878 196.534C120.383 193.127 122.694 190.175 125.55 187.883C126.368 188.34 127.297 188.625 128.3 188.625C131.449 188.625 134 186.052 134 182.875C134 179.698 131.449 177.125 128.3 177.125C125.151 177.125 122.6 179.698 122.6 182.875C122.6 182.884 122.603 182.892 122.603 182.901C118.949 185.681 115.977 189.326 113.987 193.538C105.412 187.271 99.8 177.122 99.8 165.625C99.8 154.671 104.873 144.925 112.767 138.629C115.233 142.809 118.633 146.36 122.663 149.01C122.979 151.882 125.367 154.125 128.3 154.125C131.449 154.125 134 151.552 134 148.375C134 145.198 131.449 142.625 128.3 142.625C127.052 142.625 125.906 143.042 124.968 143.729C121.805 141.556 119.109 138.715 117.219 135.415C117.219 135.415 117.208 135.42 117.225 135.409C116.284 133.77 115.623 131.987 115.053 130.119C114.312 127.732 113.982 125.145 113.982 122.5C113.982 112.351 119.83 103.583 128.266 99.3563C130.432 98.2637 132.757 97.4875 135.18 97.0562C135.607 94.7562 136.642 92.6862 138.067 90.9612C140.489 88 144.14 86.0737 148.244 86.0737C150.296 86.0737 152.211 86.5913 153.95 87.425V111.575ZM142.55 113.875C142.55 115.462 141.273 116.75 139.7 116.75C138.127 116.75 136.85 115.462 136.85 113.875C136.85 112.288 138.127 111 139.7 111C141.273 111 142.55 112.288 142.55 113.875ZM148.25 165.625C148.25 167.212 146.973 168.5 145.4 168.5C143.827 168.5 142.55 167.212 142.55 165.625C142.55 164.038 143.827 162.75 145.4 162.75C146.973 162.75 148.25 164.038 148.25 165.625ZM125.45 182.875C125.45 181.288 126.727 180 128.3 180C129.873 180 131.15 181.288 131.15 182.875C131.15 184.462 129.873 185.75 128.3 185.75C126.727 185.75 125.45 184.462 125.45 182.875ZM125.45 148.375C125.45 146.788 126.727 145.5 128.3 145.5C129.873 145.5 131.15 146.788 131.15 148.375C131.15 149.962 129.873 151.25 128.3 151.25C126.727 151.25 125.45 149.962 125.45 148.375ZM214.74 133.31C215.938 129.946 216.65 126.295 216.65 122.5C216.65 108.642 207.786 96.8838 195.474 92.6C192.681 84.895 185.357 79.375 176.75 79.375C174.755 79.375 172.845 79.6625 171.05 80.2087C168.998 80.8412 168.2 81.79 165.35 82.9975V226.402C168.2 228.07 168.969 229.536 171.05 230.744C175.239 233.188 180.113 234.625 185.3 234.625C201.032 234.625 213.8 221.745 213.8 205.875C213.8 203.575 213.515 201.333 213.002 199.205C223.775 191.989 230.9 179.655 230.9 165.625C230.9 152.371 224.516 140.641 214.74 133.31ZM211.013 193.538C209.023 189.326 205.25 185.681 202.4 182.901C202.4 182.892 202.4 182.884 202.4 182.875C202.4 179.698 199.849 177.125 196.7 177.125C193.551 177.125 191 179.698 191 182.875C191 186.052 193.551 188.625 196.7 188.625C197.703 188.625 198.632 188.34 199.45 187.883C202.306 190.177 204.617 193.13 206.122 196.534L206.136 196.537C206.903 198.288 207.445 200.157 207.758 202.109C207.958 203.345 208.1 204.581 208.1 205.875C208.1 218.583 197.897 228.875 185.3 228.875C179.913 228.875 174.954 226.978 171.05 223.815V174.267C172.526 172.821 174.501 171.585 176.77 170.587C177.605 171.076 178.565 171.375 179.6 171.375C182.749 171.375 185.3 168.802 185.3 165.625C185.3 162.448 182.749 159.875 179.6 159.875C176.451 159.875 173.9 162.448 173.9 165.625C173.9 165.657 173.909 165.688 173.909 165.72C172.826 166.243 171.848 166.809 171.05 167.43V118.78C172.857 119.323 174.769 119.625 176.75 119.625C178.714 119.625 180.606 119.332 182.396 118.8C183.251 119.312 184.234 119.625 185.3 119.625C188.449 119.625 191 117.052 191 113.875C191 110.698 188.449 108.125 185.3 108.125C182.598 108.125 180.35 110.025 179.762 112.57C178.793 112.797 177.787 112.918 176.75 112.918C174.701 112.918 173.9 112.412 171.05 111.578V87.425C173.9 86.5913 174.704 86.0737 176.756 86.0737C180.86 86.0737 184.511 88 186.933 90.9612C188.358 92.6862 189.393 94.7562 189.82 97.0562C192.243 97.4875 194.568 98.2637 196.734 99.3563C205.17 103.583 211.018 112.351 211.018 122.5C211.018 125.145 210.688 127.732 209.947 130.119C209.377 131.987 208.716 133.77 207.775 135.409C207.792 135.417 207.781 135.415 207.781 135.415C205.891 138.715 203.195 141.556 200.032 143.729C199.094 143.042 197.948 142.625 196.7 142.625C193.551 142.625 191 145.198 191 148.375C191 151.552 193.551 154.125 196.7 154.125C199.633 154.125 202.021 151.882 202.337 149.01C206.367 146.36 209.764 142.809 212.232 138.629C220.127 144.925 225.2 154.671 225.2 165.625C225.2 177.122 219.588 187.271 211.013 193.538ZM199.55 182.875C199.55 184.462 198.273 185.75 196.7 185.75C195.127 185.75 193.85 184.462 193.85 182.875C193.85 181.288 195.127 180 196.7 180C198.273 180 199.55 181.288 199.55 182.875ZM176.75 165.625C176.75 164.038 178.027 162.75 179.6 162.75C181.173 162.75 182.45 164.038 182.45 165.625C182.45 167.212 181.173 168.5 179.6 168.5C178.027 168.5 176.75 167.212 176.75 165.625ZM182.45 113.875C182.45 112.288 183.727 111 185.3 111C186.873 111 188.15 112.288 188.15 113.875C188.15 115.462 186.873 116.75 185.3 116.75C183.727 116.75 182.45 115.462 182.45 113.875ZM199.55 148.375C199.55 149.962 198.273 151.25 196.7 151.25C195.127 151.25 193.85 149.962 193.85 148.375C193.85 146.788 195.127 145.5 196.7 145.5C198.273 145.5 199.55 146.788 199.55 148.375ZM230.786 124.513C230.814 123.823 230.9 123.19 230.9 122.5C230.9 104.301 220.383 88.6038 205.193 81.1575C200.547 71.6125 190.857 65 179.6 65C173.188 65 168.2 67.185 162.5 70.7787C157.74 67.185 151.812 65 145.4 65C134.142 65 124.452 71.6125 119.807 81.1575C104.617 88.6038 94.1 104.301 94.1 122.5C94.1 123.19 94.1855 123.823 94.214 124.513C83.612 134.949 77 149.496 77 165.625C77 183.191 84.8375 198.889 97.121 209.44C98.9165 231.577 117.271 249 139.7 249C148.079 249 155.888 246.527 162.5 242.301C169.112 246.527 176.921 249 185.3 249C207.729 249 226.083 231.577 227.879 209.44C240.162 198.889 248 183.191 248 165.625C248 149.496 241.388 134.949 230.786 124.513ZM227.736 200.758C226.055 202.54 224.259 204.208 222.35 205.731V205.875C222.35 208.75 222.008 211.539 221.381 214.213C217.647 230.83 202.913 243.25 185.3 243.25C176.693 243.25 168.799 240.26 162.5 235.286C156.201 240.26 148.307 243.25 139.7 243.25C122.087 243.25 107.352 230.83 103.619 214.213C102.992 211.539 102.65 208.75 102.65 205.875V205.731C100.74 204.208 98.945 202.54 97.2635 200.758C88.6565 191.615 83.327 179.253 83.327 165.625C83.327 153.09 87.83 141.619 95.2685 132.706C96.779 130.895 98.432 129.228 100.17 127.646C99.9425 125.979 99.8 124.254 99.8 122.5C99.8 121.522 99.8855 120.545 99.9425 119.596C100.854 106.946 107.495 95.935 117.299 89.2075C119.436 87.7125 121.745 86.4475 124.167 85.4125C125.279 82.5662 126.903 80.0075 128.955 77.8225C133.116 73.4812 138.93 70.75 145.4 70.75C152.211 70.75 158.31 73.7975 162.5 78.57C165.35 73.7975 172.788 70.75 179.6 70.75C186.069 70.75 191.883 73.4812 196.044 77.8225C198.096 80.0075 199.721 82.5662 200.832 85.4125C203.255 86.4475 205.563 87.7125 207.701 89.2075C217.505 95.935 224.145 106.946 225.057 119.596C225.115 120.545 225.2 121.522 225.2 122.5C225.2 124.254 225.057 125.979 224.829 127.646C226.568 129.228 228.221 130.895 229.731 132.706C237.17 141.619 241.673 153.09 241.673 165.625C241.673 179.253 236.343 191.615 227.736 200.758Z" fill="#F1F3F5"/>
</svg>
