<svg width="315" height="72" viewBox="0 0 315 72" fill="none" xmlns="http://www.w3.org/2000/svg">
<path d="M315 65.5H160" stroke="#9FB0F4"/>
<circle cx="160" cy="66" r="6" fill="#9FB0F4"/>
<path d="M315 1H162.496C160.857 1 159.243 1.40292 157.796 2.1733L140.75 11.25L123.838 21.1337C122.307 22.0285 120.565 22.5 118.792 22.5H65" stroke="#9FB0F4"/>
<circle cx="65" cy="22.5" r="6" fill="#9FB0F4"/>
<circle cx="12" cy="44.5" r="6" fill="#DEE2E6"/>
<circle cx="12" cy="44.5" r="11.5" stroke="#DEE2E6"/>
<path d="M315 44.5H12" stroke="#DEE2E6"/>
<path d="M191.789 21.8944C191.052 21.5259 191.052 20.4741 191.789 20.1056L200.553 15.7236C201.218 15.3912 202 15.8747 202 16.618V25.382C202 26.1253 201.218 26.6088 200.553 26.2764L191.789 21.8944Z" fill="#9DCBB9"/>
<circle cx="216" cy="21" r="6" fill="#FFC093"/>
</svg>
