<svg width="630" height="81" xmlns="http://www.w3.org/2000/svg" viewBox="0 0 629 79.685"><defs><style>.a{fill:#d9edf6;}.b{fill:#f2751c;font-size:20px;font-family:Ubuntu-Regular, Ubuntu;}.c,.d,.e{fill:#343a40;font-family:Georgia-Italic, Georgia;font-style:italic;}.c{font-size:18px;}.d{font-size:24px;}.e{font-size:56px;opacity:0.5;}</style></defs><g transform="translate(-523.5 -1384.488)"><path class="a" d="M33.8,68.351C46.114,66.192,53.1,79.4,57.414,79.016c2.666-.381,3.809-2.032,6.349-2.159,4.825,0,6.856,6.349,12.443,8,2.539.381,4.825-1.524,7.11-.635,2.032.635,3.3,1.9,4.571,4.063H9.8C19.958,83.714,20.974,71.271,33.8,68.351Z" transform="translate(513.7 1375.888)"/><path class="a" d="M448.7,96.617c8.772-1.555,13.769,7.884,16.768,7.551,1.888-.222,2.665-1.444,4.553-1.555,3.442,0,4.886,4.553,8.772,5.663,1.777.222,3.442-1.11,5-.444a5.921,5.921,0,0,1,3.331,2.887H431.6C438.818,107.5,439.6,98.727,448.7,96.617Z" transform="translate(665.378 1288.044)"/><text class="b" transform="translate(553 1430)"><tspan x="0" y="0">Engagement Quality</tspan></text><text class="c" transform="translate(1063 1421)"><tspan x="-59.295" y="0">Normalization</tspan><tspan x="-61.506" y="24">for page length</tspan></text><text class="d" transform="translate(980 1430)"><tspan x="-7.717" y="0">±</tspan></text><text class="d" transform="translate(769 1430)"><tspan x="-14.555" y="0">= f</tspan></text><g transform="translate(-44 2)"><text class="c" transform="translate(926 1419)"><tspan x="-59.098" y="0">Time On Page,</tspan><tspan x="-49.799" y="24">Scroll Depth</tspan></text><text class="e" transform="translate(850 1440.192)"><tspan x="-10.5" y="0">(</tspan></text><text class="e" transform="translate(994.695 1440.192)"><tspan x="-10.5" y="0">)</tspan></text></g></g></svg>