<?xml version="1.0" encoding="UTF-8"?>
<svg width="125" height="40" enable-background="new 0 0 200 64" version="1.1" viewBox="0 0 200 64" xml:space="preserve" xmlns="http://www.w3.org/2000/svg">
	<g>
		<linearGradient id="a" x1="48.212" x2="15.326" y1="61.581" y2="4.621" gradientUnits="userSpaceOnUse">
			<stop stop-color="#FF6B2A" offset="0"/>
			<stop stop-color="#FFA72A" offset="1"/>
		</linearGradient>
		<path d="m27 5c-3.02 0-5.59 1.92-6.57 4.6-4.32 1.49-7.43 5.58-7.43 10.4 0 1.32 0.25 2.59 0.67 3.76-3.43 2.55-5.67 6.63-5.67 11.24 0 4.88 2.5 9.17 6.28 11.68-0.18 0.74-0.28 1.52-0.28 2.32 0 5.52 4.48 10 10 10 1.82 0 3.53-0.5 5-1.35 0.73-0.42 1.4-0.93 2-1.51v-49.88c-0.6-0.42-1.28-0.75-2-0.97-0.63-0.19-1.3-0.29-2-0.29zm2 11.2c-0.608 0.29-1.281 0.466-2 0.466-0.364 0-0.717-0.042-1.057-0.121-0.206-0.884-0.995-1.545-1.943-1.545-1.105 0-2 0.895-2 2s0.895 2 2 2c0.374 0 0.719-0.109 1.019-0.287 0.628 0.185 1.292 0.287 1.981 0.287 0.695 0 1.366-0.105 2-0.294v16.921c-0.28-0.216-0.624-0.413-1.003-0.595 0-0.01 3e-3 -0.021 3e-3 -0.032 0-1.105-0.895-2-2-2s-2 0.895-2 2 0.895 2 2 2c0.363 0 0.7-0.104 0.993-0.274 0.796 0.347 1.489 0.777 2.007 1.28v17.234c-1.37 1.1-3.11 1.76-5 1.76-4.42 0-8-3.58-8-8 0-0.45 0.05-0.88 0.12-1.31 0.11-0.679 0.3-1.329 0.569-1.938l5e-3 -1e-3c0.528-1.185 1.339-2.212 2.341-3.009 0.287 0.159 0.613 0.258 0.965 0.258 1.105 0 2-0.895 2-2s-0.895-2-2-2-2 0.895-2 2c0 3e-3 1e-3 6e-3 1e-3 9e-3 -1.282 0.967-2.325 2.235-3.023 3.7-3.009-2.18-4.978-5.71-4.978-9.709 0-3.81 1.78-7.2 4.55-9.39 0.865 1.454 2.058 2.689 3.472 3.611 0.111 0.999 0.949 1.779 1.978 1.779 1.105 0 2-0.895 2-2s-0.895-2-2-2c-0.438 0-0.84 0.145-1.169 0.384-1.11-0.756-2.056-1.744-2.719-2.892 0 0-4e-3 2e-3 2e-3 -2e-3 -0.33-0.57-0.562-1.19-0.762-1.84-0.26-0.83-0.376-1.73-0.376-2.65 0-3.53 2.052-6.58 5.012-8.05 0.76-0.38 1.576-0.65 2.426-0.8 0.15-0.8 0.513-1.52 1.013-2.12 0.85-1.03 2.131-1.7 3.571-1.7 0.72 0 1.392 0.18 2.002 0.47v8.4zm-4 0.8c0 0.552-0.448 1-1 1s-1-0.448-1-1 0.448-1 1-1 1 0.448 1 1zm2 18c0 0.552-0.448 1-1 1s-1-0.448-1-1 0.448-1 1-1 1 0.448 1 1zm-8 6c0-0.552 0.448-1 1-1s1 0.448 1 1-0.448 1-1 1-1-0.448-1-1zm0-12c0-0.552 0.448-1 1-1s1 0.448 1 1-0.448 1-1 1-1-0.448-1-1zm31.33-5.24c0.42-1.17 0.67-2.44 0.67-3.76 0-4.82-3.11-8.91-7.43-10.4-0.98-2.68-3.55-4.6-6.57-4.6-0.7 0-1.37 0.1-2 0.29-0.72 0.22-1 0.55-2 0.97v49.88c1 0.58 1.27 1.09 2 1.51 1.47 0.85 3.18 1.35 5 1.35 5.52 0 10-4.48 10-10 0-0.8-0.1-1.58-0.28-2.32 3.78-2.51 6.28-6.8 6.28-11.68 0-4.61-2.24-8.69-5.67-11.24zm-1.308 20.949c-0.698-1.465-2.022-2.733-3.022-3.7v-9e-3c0-1.105-0.895-2-2-2s-2 0.895-2 2 0.895 2 2 2c0.352 0 0.678-0.099 0.965-0.258 1.002 0.798 1.813 1.825 2.341 3.009l5e-3 1e-3c0.269 0.609 0.459 1.259 0.569 1.938 0.07 0.43 0.12 0.86 0.12 1.31 0 4.42-3.58 8-8 8-1.89 0-3.63-0.66-5-1.76v-17.234c0.518-0.503 1.211-0.933 2.007-1.28 0.293 0.17 0.63 0.274 0.993 0.274 1.105 0 2-0.895 2-2s-0.895-2-2-2-2 0.895-2 2c0 0.011 3e-3 0.022 3e-3 0.033-0.38 0.182-0.723 0.379-1.003 0.595v-16.922c0.634 0.189 1.305 0.294 2 0.294 0.689 0 1.353-0.102 1.981-0.287 0.3 0.178 0.645 0.287 1.019 0.287 1.105 0 2-0.895 2-2s-0.895-2-2-2c-0.948 0-1.737 0.661-1.943 1.546-0.34 0.079-0.693 0.121-1.057 0.121-0.719 0-1-0.176-2-0.466v-8.401c1-0.29 1.282-0.47 2.002-0.47 1.44 0 2.721 0.67 3.571 1.7 0.5 0.6 0.863 1.32 1.013 2.12 0.85 0.15 1.666 0.42 2.426 0.8 2.96 1.47 5.012 4.52 5.012 8.05 0 0.92-0.116 1.82-0.376 2.65-0.2 0.65-0.432 1.27-0.762 1.84 6e-3 3e-3 2e-3 2e-3 2e-3 2e-3 -0.663 1.148-1.609 2.136-2.719 2.892-0.329-0.239-0.731-0.384-1.169-0.384-1.105 0-2 0.895-2 2s0.895 2 2 2c1.029 0 1.867-0.78 1.978-1.779 1.414-0.922 2.606-2.157 3.472-3.611 2.77 2.19 4.55 5.58 4.55 9.39 0 3.999-1.969 7.529-4.978 9.709zm-4.022-3.709c0 0.552-0.448 1-1 1s-1-0.448-1-1 0.448-1 1-1 1 0.448 1 1zm-8-6c0-0.552 0.448-1 1-1s1 0.448 1 1-0.448 1-1 1-1-0.448-1-1zm2-18c0-0.552 0.448-1 1-1s1 0.448 1 1-0.448 1-1 1-1-0.448-1-1zm6 12c0 0.552-0.448 1-1 1s-1-0.448-1-1 0.448-1 1-1 1 0.448 1 1zm10.96-8.3c0.01-0.24 0.04-0.46 0.04-0.7 0-6.33-3.69-11.79-9.02-14.38-1.63-3.32-5.03-5.62-8.98-5.62-2.25 0-4 0.76-6 2.01-1.67-1.25-3.75-2.01-6-2.01-3.95 0-7.35 2.3-8.98 5.62-5.33 2.59-9.02 8.05-9.02 14.38 0 0.24 0.03 0.46 0.04 0.7-3.72 3.63-6.04 8.69-6.04 14.3 0 6.11 2.75 11.57 7.06 15.24 0.63 7.7 7.07 13.76 14.94 13.76 2.94 0 5.68-0.86 8-2.33 2.32 1.47 5.06 2.33 8 2.33 7.87 0 14.31-6.06 14.94-13.76 4.31-3.67 7.06-9.13 7.06-15.24 0-5.61-2.32-10.67-6.04-14.3zm-1.07 26.52c-0.59 0.62-1.22 1.2-1.89 1.73v0.05c0 1-0.12 1.97-0.34 2.9-1.31 5.78-6.48 10.1-12.66 10.1-3.02 0-5.79-1.04-8-2.77-2.21 1.73-4.98 2.77-8 2.77-6.18 0-11.35-4.32-12.66-10.1-0.22-0.93-0.34-1.9-0.34-2.9v-0.05c-0.67-0.53-1.3-1.11-1.89-1.73-3.02-3.18-4.89-7.48-4.89-12.22 0-4.36 1.58-8.35 4.19-11.45 0.53-0.63 1.11-1.21 1.72-1.76-0.08-0.58-0.13-1.18-0.13-1.79 0-0.34 0.03-0.68 0.05-1.01 0.32-4.4 2.65-8.23 6.09-10.57 0.75-0.52 1.56-0.96 2.41-1.32 0.39-0.99 0.96-1.88 1.68-2.64 1.46-1.51 3.5-2.46 5.77-2.46 2.39 0 4.53 1.06 6 2.72 1-1.66 3.61-2.72 6-2.72 2.27 0 4.31 0.95 5.77 2.46 0.72 0.76 1.29 1.65 1.68 2.64 0.85 0.36 1.66 0.8 2.41 1.32 3.44 2.34 5.77 6.17 6.09 10.57 0.02 0.33 0.05 0.67 0.05 1.01 0 0.61-0.05 1.21-0.13 1.79 0.61 0.55 1.19 1.13 1.72 1.76 2.61 3.1 4.19 7.09 4.19 11.45 0 4.74-1.87 9.04-4.89 12.22z" fill="url(#a)"/>
		<path d="m86.289 44.006c-0.214 0.269-0.629 0.401-1.248 0.401h-0.83c-0.491 0-0.838-0.096-1.04-0.289-0.202-0.192-0.453-0.523-0.75-0.992l-7.607-12.606-2.523-4.352h-0.096v17.696c0 0.236-0.043 0.383-0.128 0.448-0.086 0.063-0.246 0.096-0.479 0.096h-1.662c-0.191 0-0.34-0.033-0.446-0.096-0.108-0.065-0.161-0.212-0.161-0.448v-20.288c0-0.534 0.113-0.932 0.337-1.201 0.222-0.265 0.634-0.398 1.229-0.398h0.831c0.468 0 0.805 0.095 1.007 0.287s0.453 0.523 0.75 0.992l7.448 12.319 2.716 4.641h0.096v-17.696c0-0.234 0.046-0.383 0.143-0.448 0.096-0.065 0.251-0.095 0.465-0.095h1.659c0.212 0 0.368 0.03 0.463 0.095 0.096 0.065 0.144 0.214 0.144 0.448v20.289c0 0.532-0.106 0.932-0.318 1.197zm17.352-0.335c-0.959 0.428-1.998 0.715-3.116 0.864-1.12 0.149-2.19 0.224-3.212 0.224-1.385 0-2.52-0.144-3.404-0.433s-1.581-0.68-2.092-1.171-0.869-1.059-1.07-1.701c-0.204-0.642-0.305-1.317-0.305-2.022 0-0.727 0.123-1.438 0.368-2.134 0.246-0.695 0.644-1.306 1.198-1.83s1.274-0.947 2.158-1.268c0.883-0.32 1.964-0.481 3.243-0.481h3.897v-0.699c0-0.508-0.046-0.964-0.143-1.365-0.096-0.401-0.282-0.752-0.559-1.049-0.277-0.295-0.667-0.523-1.166-0.682-0.501-0.159-1.146-0.237-1.933-0.237-0.747 0-1.54 0.063-2.382 0.191-0.841 0.128-1.528 0.277-2.061 0.448-0.171 0.065-0.309 0.086-0.415 0.065-0.108-0.022-0.182-0.116-0.224-0.287l-0.383-1.377c-0.043-0.106-0.048-0.207-0.017-0.304 0.032-0.096 0.133-0.176 0.304-0.241 0.81-0.342 1.735-0.581 2.781-0.72 1.044-0.138 2.003-0.207 2.875-0.207 2.13 0 3.686 0.474 4.667 1.424 0.979 0.949 1.47 2.331 1.47 4.144v10.014c1e-3 0.429-0.16 0.707-0.479 0.834zm-2.366-7.519h-3.706c-0.383 0-0.826 0.027-1.326 0.08-0.501 0.053-0.976 0.191-1.422 0.416-0.448 0.224-0.826 0.554-1.135 0.992-0.31 0.436-0.465 1.04-0.465 1.807 0 0.577 0.106 1.062 0.32 1.457 0.212 0.395 0.499 0.703 0.863 0.927 0.362 0.224 0.788 0.383 1.278 0.481 0.491 0.095 1.024 0.143 1.599 0.143 0.191 0 0.441-5e-3 0.75-0.015 0.309-0.012 0.65-0.043 1.024-0.098 0.372-0.051 0.75-0.116 1.135-0.191 0.383-0.075 0.745-0.176 1.085-0.304v-5.695zm16.138 8.166c-0.617 0.187-1.268 0.309-1.949 0.363-0.68 0.051-1.171 0.078-1.468 0.078-1.662 0-2.824-0.357-3.484-1.07s-0.99-1.813-0.99-3.305v-10.536h-2.333c-0.192 0-0.315-0.043-0.368-0.129s-0.08-0.194-0.08-0.324v-0.941c0-0.282 0.149-0.465 0.448-0.552l2.492-0.486 0.511-3.073c0.043-0.212 0.106-0.352 0.192-0.415 0.085-0.065 0.212-0.138 0.383-0.224l1.055-0.385c0.148-0.041 0.265-0.036 0.35 0.017 0.086 0.053 0.128 0.188 0.128 0.4v3.872h3.549c0.191 0 0.314 0.043 0.367 0.129s0.08 0.206 0.08 0.357v1.299c0 0.173-0.027 0.292-0.08 0.357s-0.176 0.098-0.367 0.098h-3.549v10.368c0 0.747 0.166 1.286 0.496 1.616 0.33 0.332 0.879 0.496 1.646 0.496 0.277 0 0.665-0.027 1.166-0.08s0.932-0.101 1.294-0.144c0.192-0.043 0.315-0.036 0.368 0.017s0.09 0.133 0.111 0.239l0.287 1.422c0.022 0.126 0.028 0.232 0.017 0.317-0.01 0.082-0.101 0.155-0.272 0.219zm6.041-19.877c-0.363 0.362-0.8 0.543-1.311 0.543s-0.954-0.181-1.326-0.543c-0.373-0.363-0.559-0.8-0.559-1.312 0-0.534 0.186-0.981 0.559-1.344 0.372-0.363 0.815-0.544 1.326-0.544s0.947 0.181 1.311 0.544c0.362 0.363 0.543 0.81 0.543 1.344-1e-3 0.512-0.181 0.948-0.543 1.312zm-2.205 3.167h1.725c0.191 0 0.324 0.027 0.4 0.08 0.073 0.055 0.111 0.187 0.111 0.4v15.839c0 0.214-0.038 0.348-0.111 0.4-0.076 0.055-0.209 0.081-0.4 0.081h-1.725c-0.171 0-0.304-0.027-0.4-0.081-0.096-0.051-0.144-0.186-0.144-0.4v-15.84c0-0.212 0.048-0.345 0.144-0.4 0.096-0.052 0.229-0.079 0.4-0.079zm15.179 15.552c-0.171 0.511-0.357 0.874-0.559 1.087-0.202 0.214-0.549 0.32-1.039 0.32h-1.246c-0.406 0-0.725-0.085-0.959-0.255-0.236-0.171-0.458-0.544-0.672-1.12l-5.241-15.264c-0.063-0.214 0.022-0.32 0.256-0.32h2.142c0.234 0 0.383 0.096 0.448 0.289l3.003 8.831 1.598 5.216h0.161l1.533-5.153 2.908-8.894c0.065-0.192 0.212-0.289 0.448-0.289h2.109c0.212 0 0.299 0.106 0.256 0.32l-5.146 15.232zm21.187-7.585c-0.128 0.322-0.302 0.572-0.526 0.753s-0.479 0.309-0.768 0.383c-0.287 0.075-0.591 0.113-0.911 0.113h-9.203c0 1.002 0.138 1.857 0.416 2.558 0.277 0.705 0.647 1.276 1.107 1.714s0.994 0.752 1.604 0.942c0.609 0.192 1.266 0.289 1.973 0.289 0.705 0 1.4-0.091 2.084-0.272s1.251-0.388 1.701-0.624c0.255-0.149 0.458-0.096 0.607 0.159l0.67 1.346c0.149 0.299 0.085 0.511-0.191 0.639-0.768 0.47-1.594 0.785-2.477 0.944-0.884 0.161-1.754 0.241-2.605 0.241-1.193 0-2.265-0.171-3.212-0.513-0.947-0.34-1.752-0.864-2.412-1.566-0.66-0.705-1.166-1.601-1.518-2.689s-0.528-2.389-0.528-3.904c0-1.407 0.186-2.661 0.559-3.759s0.889-2.021 1.55-2.767c0.66-0.748 1.438-1.317 2.334-1.712 0.894-0.395 1.873-0.592 2.94-0.592 1.213 0 2.263 0.171 3.147 0.513 0.884 0.34 1.608 0.826 2.173 1.455 0.564 0.629 0.986 1.377 1.261 2.24 0.277 0.864 0.416 1.818 0.416 2.864 1e-3 0.51-0.064 0.925-0.191 1.245zm-2.622-2.895c-0.128-0.607-0.357-1.141-0.689-1.599-0.332-0.46-0.781-0.821-1.347-1.088-0.567-0.267-1.277-0.401-2.132-0.401-0.707 0-1.332 0.141-1.876 0.416-0.546 0.279-1.005 0.645-1.38 1.105s-0.669 0.987-0.883 1.584c-0.212 0.597-0.342 1.226-0.383 1.886h8.883c0-0.661-0.063-1.296-0.193-1.903z" fill="#303030"/>
		<path d="m178.44 44.216c-0.053 0.128-0.186 0.191-0.398 0.191h-2.11c-0.191 0-0.347-0.022-0.463-0.063-0.118-0.043-0.219-0.181-0.304-0.417l-1.598-4.702h-9.011l-1.598 4.702c-0.106 0.32-0.33 0.48-0.671 0.48h-2.173c-0.214 0-0.347-0.058-0.4-0.174-0.053-0.118-0.058-0.262-0.015-0.433l7.222-20.576c0.169-0.513 0.362-0.848 0.574-1.008 0.214-0.159 0.564-0.251 1.056-0.272h0.958c0.576 0 0.964 0.096 1.167 0.289 0.203 0.191 0.388 0.521 0.559 0.991l7.19 20.576c0.063 0.149 0.068 0.286 0.015 0.416zm-7.845-14.271l-1.502-4.704h-0.159l-1.439 4.543-2.173 6.849h7.415l-2.142-6.688zm13.964 14.367c-0.085 0.063-0.244 0.095-0.48 0.095h-1.725c-0.214 0-0.367-0.032-0.463-0.095-0.096-0.065-0.144-0.212-0.144-0.448v-21.312c0-0.234 0.048-0.383 0.144-0.448 0.096-0.063 0.249-0.096 0.463-0.096h1.725c0.236 0 0.395 0.033 0.48 0.096 0.085 0.065 0.128 0.214 0.128 0.448v21.312c0 0.236-0.043 0.383-0.128 0.448z" fill="#303030"/>
	</g>
</svg>
