<?xml version="1.0" encoding="UTF-8"?>
<!DOCTYPE svg PUBLIC "-//W3C//DTD SVG 1.1//EN" "http://www.w3.org/Graphics/SVG/1.1/DTD/svg11.dtd">
<svg xmlns="http://www.w3.org/2000/svg" xmlns:xlink="http://www.w3.org/1999/xlink">
    <symbol id="nav_publ">
        <path transform="matrix(1,0,0,1,-90,-97)" d="M92,115v-17.00136c0,-0.55287 -0.44771,-0.99864 -1,-0.99864c-0.55614,0 -1,0.44711 -1,0.99864v18.00271c0,0.2762 0.11174,0.5257 0.29245,0.7062c0.18117,0.18165 0.43065,0.29245 0.70619,0.29245h18.00271c0.5529,0 0.99865,-0.4477 0.99865,-1c0,-0.55615 -0.4471,-1 -0.99865,-1zM95.7473,108.8557c-0.23085,0.09305 -0.4831,0.1443 -0.7473,0.1443c-1.10455,0 -2,-0.89545 -2,-2c0,-1.10455 0.89545,-2 2,-2c1.10455,0 2,0.89545 2,2c0,0.0953 -0.00665,0.18905 -0.01955,0.2808l2.2942,1.8548c0.2249,-0.08755 0.4695,-0.1356 0.72535,-0.1356c0.0398,0 0.0793,0.00115 0.11855,0.00345l5.1414,-8.01675c-0.16545,-0.29115 -0.25995,-0.6279 -0.25995,-0.9867c0,-1.10457 0.89545,-2 2,-2c1.10455,0 2,0.89543 2,2c0,1.10455 -0.89545,2 -2,2c-0.0048,0 -0.0096,0 -0.0144,-0.00005l-5.1984,8.1013c0.13615,0.2702 0.2128,0.57555 0.2128,0.89875c0,1.10455 -0.89545,2 -2,2c-1.10455,0 -2,-0.89545 -2,-2c0,-0.1035 0.00785,-0.2052 0.02305,-0.30445z"></path>
    </symbol>
    <symbol id="nav_how">
        <path transform="matrix(1,0,0,1,-90,-147)" d="M98.4906,157.00001c0,-0.83365 0.67576,-1.50941 1.50941,-1.50941c0.83365,0 1.50941,0.67576 1.50941,1.50941c0,0.83365 -0.67577,1.50941 -1.50941,1.50941c-0.83365,0 -1.50941,-0.67577 -1.50941,-1.50941zM103.55773,160.55774c-0.64351,0.64345 -1.29366,1.24973 -1.94286,1.8136c0.99385,0.72683 1.96188,1.32964 2.86023,1.77879c1.76928,0.88466 2.99839,1.03032 3.35189,0.67687c0.35345,-0.3535 0.20779,-1.58261 -0.67687,-3.35189c-0.44915,-0.89835 -1.05196,-1.86639 -1.77879,-2.86023c-0.56386,0.6492 -1.17014,1.29935 -1.8136,1.94286zM94.62868,155.38515c0,0 -0.00001,-0.00001 -0.00001,-0.00001c0,0 0,0 0,0zM94.62867,155.38514c0.56386,-0.6492 1.17014,-1.29935 1.8136,-1.94286c0.64351,-0.64346 1.29366,-1.24974 1.94286,-1.8136c-0.99384,-0.72683 -1.96187,-1.32964 -2.86022,-1.77881c-1.76927,-0.88463 -2.99839,-1.03029 -3.35186,-0.67682c-0.35347,0.35348 -0.20781,1.58259 0.67682,3.35187c0.44917,0.89835 1.05198,1.86638 1.7788,2.86022zM90.74997,166.25007c-1.67407,-1.67408 -0.42669,-5.32841 2.56196,-9.25005c-2.98865,-3.92164 -4.23604,-7.57596 -2.56196,-9.25004c1.67408,-1.67408 5.3284,-0.42669 9.25004,2.56196c3.92164,-2.98865 7.57597,-4.23604 9.25005,-2.56196c1.67408,1.67408 0.42665,5.3284 -2.56197,9.25004c2.98863,3.92164 4.23605,7.57597 2.56197,9.25005c-1.67409,1.67408 -5.32841,0.42666 -9.25005,-2.56197c-3.92164,2.98863 -7.57596,4.23605 -9.25004,2.56197zM104.3306,154.15755c0.37463,0.39446 0.73116,0.79168 1.0674,1.19107c0.71491,-0.98102 1.30845,-1.93637 1.75212,-2.8237c0.88466,-1.76928 1.03032,-2.9984 0.67687,-3.35187c-0.35351,-0.35347 -1.58261,-0.20781 -3.35189,0.67682c-0.89468,0.44737 -1.85848,1.04706 -2.84805,1.76991c0.92215,0.77674 1.83997,1.62845 2.70355,2.53777zM94.64448,158.5933c-0.73387,1.00139 -1.34216,1.97697 -1.79461,2.88181c-0.88463,1.76928 -1.03029,2.99839 -0.67682,3.35189c0.35347,0.35345 1.58259,0.20779 3.35186,-0.67687c0.91027,-0.45509 1.89209,-1.06796 2.89982,-1.80782c-1.23505,-1.01503 -2.31593,-2.06899 -3.24673,-3.12467c-0.19431,-0.22037 -0.37207,-0.42902 -0.53352,-0.62434zM95.92458,156.97199c0.2238,0.28523 0.47803,0.59144 0.76301,0.91465c0.94564,1.07249 2.0628,2.14714 3.35541,3.1762c0.70137,-0.59401 1.40349,-1.24003 2.09163,-1.92822c0.71254,-0.71249 1.37985,-1.43997 1.99101,-2.16605c-0.38495,-0.47581 -0.80457,-0.95158 -1.25432,-1.42513c-0.87657,-0.92296 -1.81884,-1.78805 -2.76101,-2.56831c-0.03366,-0.02793 -0.06712,-0.05545 -0.10028,-0.08272c-0.71898,0.60628 -1.43912,1.2675 -2.14462,1.973c-0.69307,0.69302 -1.34343,1.40028 -1.94085,2.10658z"></path>
    </symbol>
    <symbol id="nav_blog">
        <path style="fill-rule:evenodd;" d="M6,7.106A1.108,1.108,0,0,1,7.108,6h6.673a1.109,1.109,0,0,1,1.108,1.106v8.9a1.108,1.108,0,0,1-1.108,1.106H7.108A1.109,1.109,0,0,1,6,16.005Zm11.111,8.889a1.108,1.108,0,0,1,1.108-1.106h6.673A1.109,1.109,0,0,1,26,15.995v8.9A1.108,1.108,0,0,1,24.892,26H18.219a1.109,1.109,0,0,1-1.108-1.106ZM8.222,8.222h4.444v6.667H8.222Zm11.111,8.889h4.444v6.667H19.333ZM6,20.449a1.112,1.112,0,0,1,1.108-1.116h6.673a1.113,1.113,0,0,1,1.108,1.116v4.435A1.112,1.112,0,0,1,13.781,26H7.108A1.113,1.113,0,0,1,6,24.884Zm2.222,1.106h4.444v2.222H8.222Zm8.889-14.44A1.112,1.112,0,0,1,18.219,6h6.673A1.113,1.113,0,0,1,26,7.116v4.435a1.112,1.112,0,0,1-1.108,1.116H18.219a1.113,1.113,0,0,1-1.108-1.116Zm2.222,1.106h4.444v2.222H19.333Z" transform="translate(-6 -6)"></path>
    </symbol>
    <symbol id="nav_about">
        <path transform="matrix(1,0,0,1,-90,-327)" d="M99,339h2v2h-2zM103,339v-0.99575c0,-0.55325 -0.44965,-1.00425 -1.00425,-1.00425h-3.9915c-0.55325,0 -1.00425,0.44965 -1.00425,1.00425v0.99575h-5v-6h16v6zM93,341h4v0.99575c0,0.55325 0.44965,1.00425 1.00425,1.00425h3.9915c0.55325,0 1.00425,-0.44965 1.00425,-1.00425v-0.99575h4v4h-14zM97,329h6v2h-6zM95,331h-4.00136c-0.55287,0 -0.99864,0.44565 -0.99864,0.9954v8.0092c0,0.5463 0.44763,0.9954 0.99979,0.9954l0.00021,5.00295c0,0.5498 0.44765,0.99705 0.99986,0.99705h16.0003c0.5549,0 0.99985,-0.4464 0.99985,-0.99705v-5.00295c0.55305,-0.00155 1,-0.4466 1,-0.9954v-8.0092c0,-0.5463 -0.4471,-0.9954 -0.99865,-0.9954h-4.00135v-2.99574c0,-0.55329 -0.44565,-1.00426 -0.9954,-1.00426h-8.0092c-0.5463,0 -0.9954,0.44963 -0.9954,1.00426z"></path>
    </symbol>
    <symbol id="nav_sign">
        <path transform="matrix(1,0,0,1,-90,-539)" d="M107.99945,541c-0.0013,0 -0.0002,12.0044 -0.0002,12.0044c0,-0.0014 -3.00115,-0.0044 -3.00115,-0.0044c-0.5525,0 -1.0004,0.4477 -1.0004,1c0,0.55229 0.4479,1 1.0004,1h3.00135c1.1071,0 2.00055,-0.89179 2.00055,-1.9956v-12.0088c0,-1.09965 -0.89745,-1.9956 -2.00055,-1.9956h-3.00135c-0.5525,0 -1.0004,0.4477 -1.0004,1c0,0.5523 0.4479,1 1.0004,1zM101.45765,549.11445c-0.3914,0.39125 -0.3937,1.0267 -0.003,1.41725c0.3934,0.39325 1.0254,0.38915 1.41775,-0.00305c0,0 2.8245,-2.8234 2.8265,-2.8254c0.1962,-0.1961 0.29355,-0.45155 0.29175,-0.70785c0.0002,-0.2559 -0.0969,-0.5116 -0.29475,-0.70935l-2.8235,-2.8224c-0.39135,-0.39125 -1.0271,-0.39355 -1.41775,-0.00305c-0.3934,0.39325 -0.38935,1.02505 0.003,1.41725l1.11875,1.1183h-11.57569c-0.55282,0 -1.00072,0.4477 -1.00072,1c0,0.55615 0.44804,1 1.00072,1h11.57569z"></path>
    </symbol>
    <symbol id="arrow">
        <g transform="matrix(1,0,0,1,-260,-617)">
            <path d="M278.29289,623.36394c0.35355,-0.35355 1.06066,-0.35355 1.41421,0v0c0.35355,0.35355 0.35355,1.06066 0,1.41421l-5.65685,5.65685c-0.35355,0.35355 -1.06066,0.35355 -1.41421,0v0c-0.35355,-0.35355 -0.35355,-1.06066 0,-1.41421z"></path>
            <path d="M260,624.07104c0,-0.5 0.5,-1 1,-1h18c0.5,0 1,0.5 1,1v0c0,0.5 -0.5,1 -1,1h-18c-0.5,0 -1,-0.5 -1,-1z"></path>
            <path d="M272.63603,617.70708c0.35355,-0.35355 1.06066,-0.35355 1.41421,0l5.65685,5.65685c0.35355,0.35355 0.35355,1.06066 0,1.41421v0c-0.35355,0.35355 -1.06066,0.35355 -1.41421,0l-5.65685,-5.65685c-0.35355,-0.35355 -0.35355,-1.06066 0,-1.41421z"></path>
        </g>
    </symbol>
    <symbol id="facebook">
        <path transform="matrix(1,0,0,1,-1149,-6637)" d="M1150.8156,6640.48605c0,0.45361 0,2.47825 0,2.47825h-1.81564v3.03041h1.81564v9.00531h3.72971v-9.00506h2.50282c0,0 0.2344,-1.45306 0.34802,-3.04184c-0.32576,0 -2.83673,0 -2.83673,0c0,0 0,-1.763 0,-2.07201c0,-0.30969 0.40665,-0.72626 0.80857,-0.72626c0.40118,0 1.24787,0 2.0321,0c0,-0.4126 0,-1.8382 0,-3.15483c-1.04691,0 -2.23795,0 -2.76295,0c-3.91373,-0.00021 -3.82153,3.03321 -3.82153,3.48603z"></path>
    </symbol>
    <symbol id="twitter">
        <path transform="matrix(1,0,0,1,-1182,-6639)" d="M1200.00002,6640.72999c-0.6625,0.29356 -1.37335,0.49265 -2.12024,0.58154c0.76262,-0.45668 1.34639,-1.18104 1.62306,-2.04151c-0.71535,0.42292 -1.50497,0.73 -2.34633,0.89648c-0.67374,-0.71874 -1.63206,-1.16641 -2.695,-1.16641c-2.03924,0 -3.69268,1.65344 -3.69268,3.69157c0,0.28905 0.03262,0.57138 0.09562,0.84135c-3.06842,-0.15412 -5.78927,-1.62421 -7.61031,-3.85807c-0.31832,0.54442 -0.49941,1.17876 -0.49941,1.85592c0,1.28114 0.65238,2.41156 1.64221,3.07291c-0.60515,-0.02023 -1.1743,-0.18671 -1.67256,-0.46342v0.04613c0,1.7884 1.27327,3.281 2.96156,3.6207c-0.30932,0.08324 -0.6355,0.12936 -0.97294,0.12936c-0.23844,0 -0.46903,-0.02362 -0.69512,-0.06862c0.47015,1.46786 1.83341,2.53527 3.44862,2.56453c-1.26315,0.98983 -2.85586,1.57809 -4.58577,1.57809c-0.29806,0 -0.59165,-0.018 -0.88071,-0.05061c1.63433,1.04945 3.57459,1.66132 5.65995,1.66132c6.7926,0 10.50555,-5.62621 10.50555,-10.50554l-0.01238,-0.47803c0.72547,-0.51745 1.35309,-1.16756 1.84689,-1.90768z"></path>
    </symbol>
    <symbol id="check">
        <g transform="matrix(1,0,0,1,-960,-555)">
            <path d="M966.87874,564.1928c0.35355,0.35355 0.35355,1.06066 0,1.41421v0c-0.35355,0.35355 -1.06066,0.35355 -1.41421,0l-4.94975,-4.94975c-0.35355,-0.35355 -0.35355,-1.06066 0,-1.41421v0c0.35355,-0.35355 1.06066,-0.35355 1.41421,0z"></path>
            <path d="M975.36403,555.70751c0.35355,0.35355 0.35355,1.06066 0,1.41421l-8.48528,8.48528c-0.35355,0.35355 -1.06066,0.35355 -1.41421,0v0c-0.35355,-0.35355 -0.35355,-1.06066 0,-1.41421l8.48528,-8.48528c0.35355,-0.35355 1.06066,-0.35355 1.41421,0z"></path>
        </g>
    </symbol>
    <symbol id="faq_arrow">
        <path transform="matrix(1,0,0,1,-1043,-4646)" d="M1043.99,4646.38c-0.49,0.49 -0.49,1.28 0,1.77l8.31,8.31c0.39,0.39 1.02,0.39 1.41,0l8.31,-8.31c0.49,-0.49 0.49,-1.28 0,-1.77c-0.49,-0.49 -1.28,-0.49 -1.77,0l-7.25,7.24l-7.25,-7.25c-0.48,-0.48 -1.28,-0.48 -1.76,0.01z"></path>
    </symbol>
    <symbol id="question">
        <path opacity="0.15" d="M15.7861 0.00145409C6.95032 0.119715 -0.116119 7.37919 0.00144593 16.2154C0.119707 25.0477 7.37849 32.1162 16.214 31.9987C25.0481 31.8797 32.1159 24.6202 31.9983 15.7848C31.8801 6.95171 24.6209 -0.116459 15.7861 0.00145409ZM15.7388 25.7392L15.6505 25.7378C14.2898 25.6975 13.3305 24.695 13.3691 23.3545C13.407 22.0369 14.3896 21.0804 15.7054 21.0804L15.7844 21.0818C17.183 21.1232 18.1315 22.1155 18.0922 23.4947C18.0533 24.8161 17.086 25.7392 15.7388 25.7392ZM21.4623 14.3795C21.1423 14.8341 20.4387 15.3987 19.5521 16.0895L18.5757 16.7635C18.0397 17.1802 17.7162 17.5722 17.5948 17.958C17.4992 18.2616 17.4522 18.342 17.4439 18.9597L17.4425 19.1166H13.7145L13.7253 18.8011C13.7708 17.5044 13.8028 16.7416 14.3402 16.1114C15.1834 15.1215 17.0432 13.9239 17.1221 13.8731C17.3886 13.6724 17.6133 13.4439 17.7806 13.1997C18.1719 12.6602 18.3451 12.2355 18.3451 11.8181C18.3451 11.239 18.1733 10.7034 17.8334 10.2265C17.5068 9.76632 16.8863 9.53328 15.9889 9.53328C15.0988 9.53328 14.4894 9.81571 14.1249 10.3952C13.75 10.991 13.5604 11.6168 13.5604 12.2561V12.415H9.71658L9.72353 12.2491C9.82266 9.89467 10.663 8.19937 12.2202 7.21015C13.1987 6.58024 14.4161 6.26093 15.8366 6.26093C17.6961 6.26093 19.2658 6.71276 20.5016 7.60389C21.7538 8.50685 22.3889 9.85919 22.3889 11.6234C22.3889 12.6101 22.0773 13.5371 21.4623 14.3795Z"></path>
    </symbol>
    <symbol id="link">
        <path d="M14.8953 1.10613C13.42 -0.369 11.0194 -0.368417 9.54382 1.10613L6.86808 3.78161C6.64074 4.00893 6.64074 4.37742 6.86808 4.60474C7.09543 4.83207 7.46395 4.83207 7.6913 4.60474L10.367 1.92926C10.8593 1.43736 11.5171 1.16609 12.2193 1.16609C12.9217 1.16609 13.5796 1.43736 14.0718 1.92955C14.564 2.42175 14.8353 3.07956 14.8353 3.7819C14.8353 4.48395 14.564 5.14176 14.0718 5.63396L10.5731 9.13316C9.55139 10.1542 7.88953 10.1542 6.86779 9.13316C6.64044 8.90584 6.27192 8.90584 6.04457 9.13316C5.81723 9.36048 5.81723 9.72926 6.04457 9.95629C6.78221 10.6939 7.75126 11.0626 8.72031 11.0626C9.68937 11.0626 10.6584 10.6939 11.3961 9.95629L14.8953 6.45738C15.6076 5.74544 16 4.7951 16 3.7819C16 2.76841 15.6076 1.81837 14.8953 1.10613Z"></path>
        <path d="M7.8971 11.8084L5.63297 14.0723C5.14073 14.5645 4.48285 14.8357 3.78044 14.8357C3.07832 14.8357 2.42016 14.5645 1.92792 14.0723C0.906468 13.0509 0.906468 11.3889 1.92792 10.3676L5.22136 7.07444C5.7136 6.58254 6.37147 6.31127 7.07388 6.31127C7.776 6.31127 8.43388 6.58254 8.92612 7.07444C9.15346 7.30177 9.52199 7.30177 9.74933 7.07444C9.97668 6.84712 9.97668 6.47863 9.74933 6.25131C8.27436 4.77647 5.8737 4.77618 4.39785 6.25131L1.10441 9.54473C0.392395 10.2567 0 11.207 0 12.2202C0 13.2331 0.392395 14.1835 1.1047 14.8954C1.81672 15.6076 2.76714 16 3.78015 16C4.79345 16 5.74387 15.6076 6.45589 14.8954L8.72002 12.6315C8.94737 12.4042 8.94737 12.0357 8.72002 11.8084C8.49268 11.581 8.12444 11.581 7.8971 11.8084Z"></path>
    </symbol>
    <symbol id="recommend_engagement">
        <path fill-rule="evenodd" clip-rule="evenodd" d="M31.375 25.7417H29.7084V10.2167C29.7084 8.68434 28.5847 7.43602 27.1462 7.15227C26.8076 7.08547 26.5251 7.3715 26.5251 7.71668C26.5251 8.06182 26.8117 8.33208 27.14 8.43865C27.8947 8.68366 28.4585 9.36858 28.4585 10.2166V25.7416H3.54156V10.2166C3.54156 9.39752 4.06951 8.69941 4.80299 8.4447C5.12905 8.33147 5.41656 8.0618 5.41656 7.71664C5.41656 7.37148 5.13392 7.08516 4.79562 7.15363C3.36893 7.4424 2.29156 8.70609 2.29156 10.2167V25.7417H0.625C0.279875 25.7417 0 26.0216 0 26.3667C0 27.8645 0.278313 29.059 0.82725 29.9171C1.517 30.9952 2.59844 31.5419 4.04156 31.5419H27.9584C29.4016 31.5419 30.483 30.9952 31.1728 29.9171C31.7217 29.059 32 27.8644 32 26.3667C32 26.0215 31.7201 25.7417 31.375 25.7417ZM27.9584 30.2918C28.9614 30.2918 29.6684 29.9489 30.1198 29.2434C30.4657 28.7027 30.6705 27.9471 30.731 26.9917H29.0834H2.91656H1.269C1.32944 27.9471 1.53431 28.7027 1.88019 29.2434C2.33156 29.9489 3.03856 30.2918 4.04156 30.2918H27.9584Z" fill="#343A40"></path>
        <path fill-rule="evenodd" clip-rule="evenodd" d="M19.2997 28.0167H12.6997C12.3546 28.0167 12.0747 28.2965 12.0747 28.6417C12.0747 28.9868 12.3546 29.2667 12.6997 29.2667H19.2997C19.6448 29.2667 19.9247 28.9868 19.9247 28.6417C19.9247 28.2965 19.6448 28.0167 19.2997 28.0167Z" fill="#343A40"></path>
        <path d="M16.2759 2.76485L16.2759 2.76484C16.8887 1.89992 17.9957 0.85 19.75 0.85C20.9915 0.85 22.1274 1.36148 22.9452 2.28939L22.8326 2.38856L22.9452 2.28939C23.724 3.17313 24.15 4.3532 24.15 5.60984C24.15 6.98602 23.6108 8.25725 22.479 9.60325C21.4735 10.7992 20.0307 12.0286 18.376 13.4387L18.3677 13.4457L18.362 13.4506C17.7445 13.9768 17.1067 14.5203 16.428 15.1142L16.4076 15.132L16.4075 15.1321C16.2909 15.2342 16.1453 15.2852 16 15.2852C15.8547 15.2852 15.7091 15.2342 15.5924 15.1321L15.5924 15.132L15.572 15.1142L16.2759 2.76485ZM16.2759 2.76485C16.1743 2.90819 16.0826 3.05161 16 3.19152M16.2759 2.76485L16 3.19152M16 3.19152C15.9174 3.05162 15.8257 2.90819 15.7241 2.76484C15.1113 1.89992 14.0043 0.85 12.25 0.85C11.0085 0.85 9.87261 1.36151 9.05481 2.28941L9.05481 2.28942C8.27604 3.17313 7.85 4.3532 7.85 5.60984C7.85 6.98602 8.38923 8.25728 9.52097 9.60325C10.5265 10.7991 11.9692 12.0285 13.6239 13.4386L13.6324 13.4458C14.2516 13.9735 14.8911 14.5185 15.5719 15.1141L16 3.19152ZM15.4117 4.86686C15.4946 5.12159 15.7321 5.29397 16 5.29397C16.2679 5.29397 16.5053 5.1216 16.5883 4.86688C16.661 4.64379 16.8756 4.05893 17.2856 3.48025L17.1632 3.39353L17.2856 3.48025C17.7431 2.8346 18.5345 2.0875 19.75 2.0875C20.6329 2.0875 21.4367 2.44954 22.0167 3.10762C22.5921 3.76043 22.9125 4.64801 22.9125 5.60984C22.9125 6.76314 22.3995 7.78887 21.4678 8.87981C20.5337 9.97361 19.1942 11.1156 17.565 12.5039C17.0616 12.9328 16.5438 13.3741 16 13.8458C15.4562 13.3741 14.9384 12.9329 14.4349 12.5038C12.8057 11.1155 11.4663 9.97359 10.5322 8.8798C9.60052 7.78887 9.0875 6.76314 9.0875 5.60984C9.0875 4.64801 9.4079 3.76044 9.98322 3.10762C10.5632 2.44954 11.3671 2.0875 12.25 2.0875C13.4655 2.0875 14.2569 2.8346 14.7144 3.48028L14.7144 3.48029C15.1244 4.05891 15.339 4.64375 15.4117 4.86686ZM15.4117 4.86686L15.5543 4.82041L15.4117 4.86688C15.4117 4.86687 15.4117 4.86686 15.4117 4.86686Z" fill="#3EA77C" stroke="#3EA77C" stroke-width="0.3"></path>
    </symbol>
    <symbol id="recommend_recirculation">
        <path d="M3.2735 25.0516C3.43393 25.0516 3.59609 25.007 3.74139 24.914C4.14269 24.655 4.25858 24.1197 3.99998 23.7184C2.65858 21.6366 1.88063 19.2258 1.75047 16.748C1.58571 13.6042 2.44279 10.5646 4.18204 8.0055L4.44496 9.8641C4.50636 10.2961 4.87652 10.6079 5.30031 10.6079C5.34052 10.6079 5.3816 10.6053 5.42269 10.5992C5.89577 10.5322 6.22485 10.0946 6.15782 9.6215L5.60993 5.75296C5.60777 5.73869 5.60258 5.72572 5.59955 5.71145C5.59393 5.68161 5.58658 5.65221 5.57793 5.6228C5.56971 5.59642 5.56106 5.57091 5.55069 5.54583C5.53987 5.51988 5.52777 5.49437 5.51436 5.46929C5.50052 5.44377 5.48625 5.41869 5.47025 5.39491C5.45555 5.37286 5.43998 5.35167 5.42312 5.33091C5.40323 5.30626 5.38204 5.28334 5.35998 5.26129C5.35004 5.25177 5.34312 5.24053 5.33274 5.23102C5.32409 5.22323 5.31371 5.21805 5.30463 5.21069C5.27955 5.18994 5.25317 5.17091 5.22593 5.15318C5.2056 5.13977 5.18571 5.12723 5.16452 5.11556C5.13555 5.09999 5.10571 5.08702 5.07501 5.07448C5.05382 5.06626 5.0335 5.05761 5.01187 5.05069C4.97987 5.04075 4.94701 5.0334 4.91328 5.02691C4.89166 5.02302 4.87004 5.01869 4.84841 5.01653C4.81641 5.01307 4.78398 5.01221 4.75112 5.01221C4.72517 5.01221 4.70009 5.01307 4.67414 5.01523C4.66031 5.01653 4.6469 5.0148 4.63263 5.01696L0.768847 5.5614C0.295766 5.62799 -0.0337478 6.06561 0.0328468 6.53869C0.0994414 7.01177 0.538793 7.34129 1.00971 7.27426L2.75328 7.02864C0.799982 9.89956 -0.162613 13.3106 0.0224684 16.8379C0.168198 19.6167 1.04041 22.3199 2.54485 24.6546C2.71133 24.9115 2.98939 25.0516 3.2735 25.0516Z" fill="#343A40"></path>
        <path d="M24.9138 28.2606C24.6552 27.8593 24.1198 27.743 23.7181 28.0025C21.6368 29.3439 19.2264 30.1214 16.7482 30.2516C13.6039 30.4185 10.5644 29.5601 8.0048 27.82L9.86383 27.5566C10.3369 27.4896 10.666 27.052 10.599 26.5789C10.5319 26.1058 10.0926 25.7763 9.62123 25.8438L5.75269 26.3917C5.73799 26.3938 5.72458 26.3995 5.70988 26.4021C5.68091 26.4077 5.65237 26.4146 5.62383 26.4232C5.59702 26.4315 5.57107 26.4405 5.54556 26.4509C5.51961 26.4617 5.49453 26.4734 5.46988 26.4868C5.44393 26.5006 5.41929 26.5149 5.3955 26.5309C5.37345 26.5456 5.35226 26.5616 5.3315 26.5785C5.30729 26.5984 5.28437 26.6191 5.26231 26.6412C5.25237 26.6511 5.24112 26.6585 5.23161 26.6693C5.22339 26.6784 5.21821 26.6888 5.21042 26.6983C5.19053 26.7221 5.17323 26.7467 5.15637 26.7722C5.14123 26.7951 5.12653 26.8176 5.11399 26.8414C5.10102 26.8661 5.08977 26.8911 5.07896 26.9171C5.06815 26.9435 5.05734 26.9694 5.04912 26.9966C5.04134 27.0226 5.03572 27.049 5.0301 27.0758C5.02448 27.1043 5.01929 27.1324 5.01626 27.1614C5.01366 27.1878 5.01323 27.2142 5.0128 27.241C5.01237 27.2717 5.01323 27.3024 5.01626 27.3331C5.01756 27.3452 5.01583 27.3569 5.01756 27.369L5.56199 31.2332C5.62296 31.6652 5.99312 31.9774 6.41734 31.9774C6.45756 31.9774 6.49821 31.9748 6.53885 31.9688C7.01194 31.9022 7.34145 31.4645 7.27485 30.9915L7.02966 29.2518C9.66707 31.0455 12.7607 32.0012 15.9814 32.0012C16.266 32.0012 16.5523 31.9938 16.8385 31.9787C19.6178 31.833 22.3205 30.9608 24.6552 29.4559C25.0569 29.1977 25.1724 28.6619 24.9138 28.2606Z" fill="#343A40"></path>
        <path d="M31.9791 15.1631C31.8334 12.3843 30.9611 9.68119 29.4567 7.34648C29.1981 6.94475 28.6632 6.82929 28.261 7.08746C27.8597 7.34648 27.7438 7.88183 28.0024 8.28313C29.3438 10.3649 30.1218 12.7757 30.252 15.2535C30.4167 18.3973 29.5596 21.4369 27.8204 23.996L27.5575 22.1374C27.4904 21.6643 27.0511 21.3348 26.5797 21.4023C26.1067 21.4693 25.7776 21.9069 25.8446 22.38L26.3925 26.2485C26.3947 26.2645 26.4003 26.2788 26.4033 26.2944C26.4081 26.3195 26.4137 26.3441 26.421 26.3688C26.4297 26.3977 26.4396 26.4258 26.4509 26.4535C26.46 26.4756 26.4686 26.4972 26.4794 26.5184C26.4941 26.5473 26.511 26.5746 26.5287 26.6014C26.5408 26.6196 26.5516 26.6377 26.565 26.655C26.5888 26.6857 26.6152 26.713 26.6424 26.7402C26.6524 26.7497 26.6597 26.761 26.6701 26.7705C26.6723 26.7726 26.6749 26.7739 26.6775 26.7757C26.7056 26.8003 26.7358 26.8211 26.767 26.8423C26.78 26.8509 26.7916 26.8617 26.805 26.8695C26.8435 26.8924 26.8846 26.9115 26.9265 26.9288C26.9447 26.9361 26.9629 26.9417 26.9815 26.9478C27.0182 26.9599 27.0554 26.9716 27.0939 26.9789C27.1298 26.9854 27.1665 26.9871 27.2033 26.9889C27.2184 26.9897 27.2331 26.9932 27.2483 26.9932H27.2487H27.2491C27.2496 26.9932 27.2504 26.9932 27.2509 26.9932C27.2902 26.9932 27.33 26.9906 27.3698 26.985L31.2336 26.4405C31.7067 26.3739 32.0362 25.9363 31.9696 25.4632C31.903 24.9902 31.4636 24.6589 30.9927 24.7277L29.2491 24.9733C31.2016 22.1015 32.1642 18.6909 31.9791 15.1631Z" fill="#3EA77C"></path>
        <path d="M26.2773 5.60294C26.3054 5.59818 26.3322 5.5904 26.3594 5.58262C26.3893 5.5744 26.4187 5.56618 26.4472 5.55494C26.4719 5.545 26.4952 5.53332 26.519 5.52121C26.5484 5.50651 26.5765 5.49094 26.6038 5.47321C26.6245 5.45937 26.6444 5.44424 26.6639 5.42867C26.6915 5.40662 26.7179 5.38327 26.7426 5.35818C26.7517 5.34867 26.7625 5.34218 26.7715 5.33224C26.7798 5.32316 26.785 5.31278 26.7927 5.30327C26.8122 5.27948 26.8295 5.25483 26.8468 5.22932C26.8619 5.2064 26.8766 5.18391 26.8892 5.16013C26.9026 5.13548 26.9134 5.10997 26.9242 5.08402C26.935 5.05808 26.9454 5.03213 26.9536 5.00489C26.9614 4.97894 26.967 4.95213 26.9726 4.92532C26.9783 4.89678 26.9834 4.86867 26.9865 4.84013C26.9891 4.81375 26.9895 4.78737 26.9899 4.76056C26.9904 4.72986 26.9895 4.69916 26.9865 4.66845C26.9852 4.65635 26.9869 4.64467 26.9852 4.63256L26.4407 0.768346C26.3741 0.295265 25.9357 -0.0359783 25.4639 0.0327785C24.9908 0.0993731 24.6613 0.536995 24.7279 1.01008L24.9735 2.75364C22.1021 0.799914 18.6911 -0.163978 15.1638 0.0228326C12.3845 0.168562 9.68182 1.04078 7.34712 2.54564C6.94582 2.80424 6.82993 3.33959 7.08852 3.74132C7.34755 4.14305 7.8829 4.25937 8.2842 3.99948C10.3655 2.65808 12.7759 1.88056 15.2541 1.7504C18.401 1.58435 21.4388 2.44229 23.9975 4.18197L22.1385 4.44532C21.6654 4.51235 21.3363 4.94997 21.4033 5.42305C21.4647 5.85505 21.8349 6.16683 22.2587 6.16683C22.2989 6.16683 22.34 6.16424 22.3811 6.15818L26.2496 5.61029C26.2591 5.60856 26.2678 5.60467 26.2773 5.60294Z" fill="#343A40"></path>
    </symbol>
    <symbol id="recommend_revenue">
        <path d="M0.659097 15.8605C0.478269 15.8774 0.31036 15.9607 0.188392 16.0941C0.0664239 16.2275 -0.000776401 16.4014 6.76912e-06 16.5814V29.5581C2.60541e-05 29.7493 0.0766553 29.9327 0.213041 30.0679C0.349427 30.2031 0.5344 30.2791 0.727279 30.2791H5.81819C6.01106 30.2791 6.19604 30.2031 6.33242 30.0679C6.46881 29.9327 6.54544 29.7493 6.54546 29.5581V27.3503C7.6178 28.1346 8.58185 28.9019 9.73864 29.5469C11.2872 30.4103 13.1758 31 16 31C19.002 31 22.4898 29.3911 25.3068 27.8347C28.0978 26.2926 30.1886 24.7765 30.2273 24.7482L30.25 24.7257C30.7971 24.3635 31.2248 24.0668 31.5454 23.6217C31.8717 23.1689 32 22.6092 32 21.9884C32 21.4477 31.761 20.9541 31.4318 20.6366C31.1027 20.3192 30.7179 20.1398 30.3523 20.0284C29.6211 19.8052 28.9091 19.8256 28.7273 19.8256C27.8044 19.8256 26.8857 20.2355 26.1023 20.6141C25.6317 20.8415 25.5126 20.9193 25.2614 21.0647C24.886 20.1327 23.9773 19.4651 22.9091 19.4651H16.2614C14.2008 17.6545 10.7111 17.3434 6.54546 17.3136V16.5814C6.54544 16.3902 6.46881 16.2068 6.33242 16.0716C6.19604 15.9365 6.01106 15.8605 5.81819 15.8605H0.727279C0.704564 15.8594 0.681812 15.8594 0.659097 15.8605ZM1.45455 17.3023H5.09091V17.9669C5.09017 17.9857 5.09017 18.0045 5.09091 18.0233V25.9535C5.08946 25.9798 5.08946 26.0061 5.09091 26.0323V28.8372H1.45455V17.3023ZM6.54546 18.7667C10.7593 18.8179 14.0737 19.2904 15.4886 20.693C15.6238 20.8285 15.8077 20.9055 16 20.907H22.9091C23.526 20.907 24 21.3768 24 21.9884C24 22.6 23.526 23.0698 22.9091 23.0698H12.3636C12.2673 23.0684 12.1716 23.0861 12.0822 23.1217C11.9927 23.1573 11.9113 23.2102 11.8427 23.2773C11.7741 23.3444 11.7196 23.4243 11.6824 23.5124C11.6452 23.6006 11.626 23.6952 11.626 23.7907C11.626 23.8862 11.6452 23.9808 11.6824 24.069C11.7196 24.1571 11.7741 24.237 11.8427 24.3041C11.9113 24.3712 11.9927 24.4241 12.0822 24.4597C12.1716 24.4953 12.2673 24.513 12.3636 24.5116H22.9091C24.0587 24.5116 24.995 23.7198 25.3068 22.6755C25.3668 22.6567 25.4241 22.6302 25.4773 22.5967C25.4773 22.5967 26.0303 22.2519 26.7386 21.9095C27.447 21.5672 28.3446 21.2674 28.7273 21.2674C28.9091 21.2674 29.4698 21.2765 29.9204 21.4139C30.1458 21.4826 30.3291 21.5736 30.4204 21.6617C30.5117 21.7498 30.5454 21.8081 30.5454 21.9884C30.5454 22.449 30.4919 22.5989 30.3636 22.7769C30.2354 22.9549 29.939 23.1927 29.4091 23.5429C29.4013 23.5502 29.3938 23.5577 29.3864 23.5654C29.3864 23.5654 27.3307 25.0768 24.6023 26.5843C21.8738 28.0918 18.4525 29.5581 16 29.5581C13.3697 29.5581 11.8037 29.0551 10.4432 28.2965C9.17915 27.5917 8.04978 26.5999 6.54546 25.5705V18.7667Z" fill="#343A40"></path>
        <path d="M19.2726 0C15.0638 0 11.6362 3.39764 11.6362 7.56977C11.6362 11.7419 15.0638 15.1395 19.2726 15.1395C23.4814 15.1395 26.9089 11.7419 26.9089 7.56977C26.9089 3.39764 23.4814 0 19.2726 0ZM19.2726 1.44186C22.6953 1.44186 25.4544 4.17688 25.4544 7.56977C25.4544 10.9627 22.6953 13.6977 19.2726 13.6977C15.8499 13.6977 13.0908 10.9627 13.0908 7.56977C13.0908 4.17688 15.8499 1.44186 19.2726 1.44186ZM19.193 2.87246C19.0123 2.89215 18.8455 2.97824 18.7256 3.11377C18.6057 3.2493 18.5414 3.42443 18.5453 3.60465V3.99891C17.4846 4.17568 16.7271 5.10855 16.7271 6.12791C16.7271 7.35661 17.8886 8.2907 19.2726 8.2907C20.0833 8.29067 20.3635 8.64275 20.3635 9.01163C20.3635 9.4769 20.1803 9.73256 19.6362 9.73256H17.4544C17.358 9.73121 17.2624 9.74886 17.1729 9.78448C17.0835 9.8201 17.0021 9.87299 16.9335 9.94007C16.8648 10.0072 16.8103 10.0871 16.7731 10.1752C16.7359 10.2634 16.7168 10.3579 16.7168 10.4535C16.7168 10.549 16.7359 10.6436 16.7731 10.7318C16.8103 10.8199 16.8648 10.8998 16.9335 10.9669C17.0021 11.034 17.0835 11.0869 17.1729 11.1225C17.2624 11.1581 17.358 11.1758 17.4544 11.1744H18.5453V11.5349C18.544 11.6304 18.5618 11.7253 18.5977 11.8139C18.6336 11.9026 18.687 11.9833 18.7547 12.0513C18.8223 12.1193 18.903 12.1733 18.9919 12.2102C19.0808 12.2471 19.1762 12.2661 19.2726 12.2661C19.369 12.2661 19.4644 12.2471 19.5533 12.2102C19.6422 12.1733 19.7229 12.1193 19.7905 12.0513C19.8582 11.9833 19.9115 11.9026 19.9475 11.8139C19.9834 11.7253 20.0012 11.6304 19.9999 11.5349V11.1406C21.06 10.9634 21.818 10.0306 21.818 9.01163C21.818 7.78292 20.6566 6.84879 19.2726 6.84884C18.4618 6.84884 18.1817 6.49678 18.1817 6.12791C18.1817 5.66264 18.3649 5.40698 18.909 5.40698H21.0908C21.1871 5.40833 21.2828 5.39068 21.3723 5.35505C21.4617 5.31943 21.5431 5.26654 21.6117 5.19946C21.6803 5.13238 21.7348 5.05245 21.772 4.96431C21.8092 4.87618 21.8284 4.78159 21.8284 4.68605C21.8284 4.59051 21.8092 4.49592 21.772 4.40778C21.7348 4.31964 21.6803 4.23971 21.6117 4.17263C21.5431 4.10555 21.4617 4.05266 21.3723 4.01704C21.2828 3.98141 21.1871 3.96377 21.0908 3.96512H19.9999V3.60465C20.0021 3.50202 19.9822 3.4001 19.9415 3.30571C19.9008 3.21132 19.8402 3.12664 19.7638 3.05732C19.6874 2.98801 19.597 2.93566 19.4986 2.90378C19.4001 2.87189 19.296 2.86122 19.193 2.87246Z" fill="#3EA77C"></path>
    </symbol>
    <symbol id="recommend_churn">
        <circle cx="15.9979" cy="24.9979" r="15.2479" stroke="#343A40" stroke-width="1.5"></circle>
        <path d="M15.5 18V26L22 30" stroke="#343A40" stroke-width="1.5" stroke-linecap="round" stroke-linejoin="round"></path>
        <path d="M24.5 9.75C24.5 10.4404 25.0597 11 25.75 11H29.2323L24.8661 15.3661C24.5086 15.7236 24.4017 16.2613 24.5952 16.7284C24.7886 17.1954 25.2444 17.5 25.75 17.5H32.25C32.9404 17.5 33.5 16.9404 33.5 16.25C33.5 15.5596 32.9404 15 32.25 15H28.7678L33.1339 10.6339C33.4914 10.2764 33.5983 9.73874 33.4049 9.27165L32.9429 9.46299L33.4049 9.27165C33.2114 8.80455 32.7556 8.5 32.25 8.5H25.75C25.0597 8.5 24.5 9.05964 24.5 9.75Z" fill="#EB5757" stroke="white" stroke-linecap="round" stroke-linejoin="round"></path>
        <path d="M32.375 1.25H33.5126L31.7563 3.00628C31.506 3.25653 31.4312 3.63288 31.5666 3.95985C31.702 4.28681 32.0211 4.5 32.375 4.5H35.625C36.1082 4.5 36.5 4.10825 36.5 3.625C36.5 3.14175 36.1082 2.75 35.625 2.75H34.4874L36.2437 0.993717C36.494 0.743469 36.5688 0.367117 36.4334 0.040153L35.9714 0.231494L36.4334 0.0401523C36.298 -0.286811 35.9789 -0.5 35.625 -0.5H32.375C31.8918 -0.5 31.5 -0.108247 31.5 0.375C31.5 0.858247 31.8918 1.25 32.375 1.25Z" fill="#EB5757" stroke="white" stroke-linecap="round" stroke-linejoin="round"></path>
        <path d="M43.4191 7.1559L42.9587 7.34659L43.4191 7.1559C43.2547 6.75887 42.8672 6.5 42.4375 6.5H37.5625C36.9757 6.5 36.5 6.9757 36.5 7.5625C36.5 8.1493 36.9757 8.625 37.5625 8.625H39.8724L36.8112 11.6862C36.5073 11.9901 36.4164 12.4471 36.5809 12.8441C36.7453 13.2411 37.1328 13.5 37.5625 13.5H42.4375C43.0243 13.5 43.5 13.0243 43.5 12.4375C43.5 11.8507 43.0243 11.375 42.4375 11.375H40.1276L43.1888 8.3138C43.4927 8.00993 43.5836 7.55293 43.4191 7.1559Z" fill="#EB5757" stroke="white" stroke-linecap="round" stroke-linejoin="round"></path>
    </symbol>
    <symbol id="recommend_ads">
        <path d="M25.8665 5.33325C25.4246 5.33325 25.0664 5.69141 25.0664 6.1333C25.0664 6.5752 25.4246 6.93335 25.8665 6.93335C26.3083 6.93335 26.6665 6.5752 26.6665 6.1333C26.6665 5.69141 26.3083 5.33325 25.8665 5.33325Z" fill="#EB5757"></path>
        <path d="M28.1108 0.15625C27.9026 -0.052002 27.5649 -0.052002 27.3567 0.15625L23.0898 4.42285C22.99 4.52295 22.9336 4.65845 22.9336 4.80005V8.5332C22.9336 8.82788 23.1724 9.06665 23.467 9.06665H27.2004C27.3418 9.06665 27.4773 9.0105 27.5774 8.9104L31.844 4.64355C32.0522 4.4353 32.0522 4.0979 31.844 3.8894L28.1108 0.15625ZM26.9795 8H24.0002V5.02075L27.7336 1.28735L30.7129 4.2666L26.9795 8Z" fill="#EB5757"></path>
        <path d="M0.533447 18.1333H2.1333V18.2017C2.1355 19.1611 2.79834 19.9929 3.7334 20.209V25.0667C3.7334 25.3613 3.97217 25.6001 4.2666 25.6001H7.46655C7.76123 25.6001 8 25.3613 8 25.0667V22.9334H8.5376C9.41797 22.9309 10.1311 22.218 10.1333 21.3376V20.209C10.8145 20.0493 11.3684 19.5552 11.6042 18.8965L20.5835 22.8875C20.8528 23.0071 21.168 22.8857 21.2874 22.6165C21.3176 22.5483 21.3335 22.4746 21.3333 22.3999V9.59985C21.3335 9.30542 21.0947 9.06665 20.8 9.06665C20.7256 9.06665 20.6516 9.08228 20.5835 9.11255L11.6042 13.1035C11.3127 12.2839 10.5381 11.7358 9.66821 11.7334H4.19849C3.05835 11.7344 2.13452 12.6584 2.1333 13.7983V13.8667H0.533447C0.23877 13.8667 0 14.1055 0 14.3999V17.5999C0 17.8945 0.23877 18.1333 0.533447 18.1333ZM18.1333 11.3684L20.2666 10.4209V21.5791L18.1333 20.6316V11.3684ZM11.7334 14.2134L17.0667 11.8425V20.1599L11.7334 17.7866V14.2134ZM6.93335 22.3999V24.5334H4.80005V20.2666H6.93335V22.3999ZM9.06665 21.3376C9.06641 21.6296 8.82983 21.8665 8.5376 21.8667H8V20.2666H9.06665V21.3376ZM3.19995 17.5999V13.7983C3.20068 13.2473 3.64722 12.8005 4.19849 12.8H9.66821C10.2195 12.8005 10.666 13.2473 10.6667 13.7983V18.2017C10.666 18.7527 10.2195 19.1995 9.66821 19.2H4.19849C3.64722 19.1995 3.20068 18.7527 3.19995 18.2017V17.5999ZM1.06665 14.9334H2.1333V17.0667H1.06665V14.9334Z" fill="#343A40"></path>
        <path d="M26.5644 20.9717C26.3561 20.7634 26.0185 20.7634 25.8102 20.9717L22.0385 24.7434C21.8303 24.9517 21.8303 25.2893 22.0385 25.4976L27.3185 30.7776C27.5268 30.9858 27.8642 30.9858 28.0727 30.7776L31.8437 27.0063C32.0519 26.7981 32.0519 26.4604 31.8437 26.2522L26.5644 20.9717ZM30.0705 25.9851L27.0607 25.7542L26.8293 22.7444L30.0705 25.9851ZM27.6955 29.6448L23.1696 25.1199L25.7441 22.5457L26.0327 26.2917C26.0527 26.554 26.2609 26.7627 26.5231 26.783L30.27 27.0708L27.6955 29.6448Z" fill="#EB5757"></path>
        <path d="M14.3999 10.1333C16.4576 10.1379 18.1294 8.47363 18.1343 6.41602C18.136 5.60547 17.8736 4.81641 17.3865 4.16846L20.6446 0.9104L19.8894 0.15625L16.6314 3.41333C14.9817 2.17627 12.6416 2.5105 11.4046 4.15991C10.1675 5.80933 10.5018 8.14941 12.1512 9.38672C12.7998 9.87305 13.5892 10.135 14.3999 10.1333ZM14.3999 3.73315C15.8726 3.73315 17.0665 4.92725 17.0665 6.3999C17.0665 7.8728 15.8726 9.06665 14.3999 9.06665C12.927 9.06665 11.7332 7.8728 11.7332 6.3999C11.7349 4.92798 12.9278 3.73511 14.3999 3.73315Z" fill="#EB5757"></path>
        <path d="M22.9331 18.6668H25.5999V19.2C25.5999 19.4946 25.8386 19.7334 26.1333 19.7334H30.3999C30.6943 19.7334 30.9331 19.4946 30.9331 19.2V16.5435C30.9304 15.6377 30.3577 14.8318 29.5034 14.5313C30.4634 13.8481 30.6877 12.5161 30.0046 11.5562C29.3218 10.5962 27.9897 10.3716 27.0298 11.0547C26.0698 11.7378 25.8452 13.0698 26.5283 14.0298C26.6663 14.2236 26.8357 14.3933 27.0298 14.5313C26.6846 14.6543 26.3767 14.864 26.1357 15.1401C25.95 14.926 25.7231 14.751 25.4688 14.6255C26.1855 14.1089 26.3479 13.1089 25.8313 12.3921C25.3147 11.6753 24.3147 11.5129 23.5977 12.0295C22.8809 12.5461 22.7185 13.5461 23.2351 14.2629C23.3357 14.4026 23.4583 14.5249 23.5977 14.6255C22.8672 14.9807 22.4023 15.721 22.3999 16.5332V18.1333C22.3999 18.4277 22.6387 18.6668 22.9331 18.6668ZM28.2666 11.7334C28.8557 11.7334 29.3333 12.2109 29.3333 12.8001C29.3333 13.3892 28.8557 13.8667 28.2666 13.8667C27.6775 13.8667 27.2 13.3889 27.2 12.8001C27.2 12.2109 27.6775 11.7334 28.2666 11.7334ZM26.6665 18.1333V16.5435C26.6675 15.949 27.1489 15.4675 27.7434 15.4666H28.7898C29.384 15.4675 29.8657 15.949 29.8665 16.5435V18.6665H26.6665V18.1333ZM24.5332 12.8001C24.8276 12.8001 25.0664 13.0388 25.0664 13.3333C25.0664 13.6279 24.8276 13.8667 24.5332 13.8667C24.2385 13.8667 23.9998 13.6279 23.9998 13.3333C23.9998 13.0388 24.2385 12.8001 24.5332 12.8001ZM23.4666 16.5332C23.4666 15.9441 23.9441 15.4666 24.5332 15.4666C25.1223 15.4666 25.5999 15.9443 25.5999 16.5332V17.6001H23.4666V16.5332Z" fill="#EB5757"></path>
        <path d="M14.9335 21.8667H12.8002C12.6589 21.8667 12.5231 21.9229 12.423 22.0229L9.22308 25.2229C9.01483 25.4312 9.01483 25.7688 9.22308 25.9771L15.0898 31.8438C15.298 32.052 15.6357 32.052 15.8439 31.8438L20.1108 27.5771C20.3188 27.3689 20.3188 27.0312 20.1108 26.823L15.3107 22.0229C15.2106 21.9229 15.0749 21.8667 14.9335 21.8667ZM15.467 30.7126L10.3544 25.6001L13.0209 22.9333H14.7128L18.9794 27.2L15.467 30.7126Z" fill="#EB5757"></path>
        <path d="M12.4233 26.2896L14.5566 24.1562L15.3108 24.9104L13.1775 27.0437L12.4233 26.2896Z" fill="#EB5757"></path>
        <path d="M14.0225 27.8894L16.156 25.7561L16.9102 26.5103L14.7769 28.6438L14.0225 27.8894Z" fill="#EB5757"></path>
    </symbol>
    <symbol id="recommend_creepy">
        <path d="M31.3126 0.570679H7.64857C7.26887 0.570679 6.9612 0.878345 6.9612 1.25805V14.9232H0.687368C0.307666 14.9232 0 15.2309 0 15.6106V27.2613C0 29.5595 1.86964 31.4294 4.16792 31.4294C4.22713 31.4294 27.832 31.4294 27.832 31.4294C30.1302 31.4294 32.0001 29.5596 32.0001 27.2613V1.25805C32 0.878345 31.6923 0.570679 31.3126 0.570679ZM1.37474 27.2613V16.2979H6.9612V27.2613C6.9612 28.8014 5.70818 30.0546 4.16783 30.0546C2.62776 30.0546 1.37474 28.8014 1.37474 27.2613ZM30.6253 27.2613C30.6253 28.8014 29.3722 30.0546 27.8319 30.0546H7.25888C7.92783 29.315 8.33594 28.3348 8.33594 27.2613V1.94541H30.6253V27.2613Z" fill="#343A40"></path>
        <path d="M18.5155 8.51005H27.3254C27.7051 8.51005 28.0128 8.20239 28.0128 7.82268C28.0128 7.44298 27.7051 7.13531 27.3254 7.13531H18.5155C18.1358 7.13531 17.8281 7.44298 17.8281 7.82268C17.8281 8.20239 18.1359 8.51005 18.5155 8.51005Z" fill="#343A40"></path>
        <path d="M18.5155 16.0613H27.3254C27.7051 16.0613 28.0128 15.7537 28.0128 15.374C28.0128 14.9943 27.7051 14.6866 27.3254 14.6866H18.5155C18.1358 14.6866 17.8281 14.9943 17.8281 15.374C17.8281 15.7537 18.1359 16.0613 18.5155 16.0613Z" fill="#343A40"></path>
        <path d="M11 14L15 18M15 14L11 18" stroke="#EB5757" stroke-linecap="round" stroke-linejoin="round"></path>
        <path d="M11 6L15 10M15 6L11 10" stroke="#EB5757" stroke-linecap="round" stroke-linejoin="round"></path>
        <path d="M11 21L15 25M15 21L11 25" stroke="#EB5757" stroke-linecap="round" stroke-linejoin="round"></path>
        <path d="M18.5155 23.6127H27.3254C27.7051 23.6127 28.0128 23.305 28.0128 22.9253C28.0128 22.5456 27.7051 22.238 27.3254 22.238H18.5155C18.1358 22.238 17.8281 22.5456 17.8281 22.9253C17.8281 23.305 18.1359 23.6127 18.5155 23.6127Z" fill="#343A40"></path>
    </symbol>
</svg>