<?xml version="1.0" encoding="UTF-8" standalone="no"?><!DOCTYPE svg PUBLIC "-//W3C//DTD SVG 1.1//EN" "http://www.w3.org/Graphics/SVG/1.1/DTD/svg11.dtd"><svg width="100%" height="100%" viewBox="0 0 753 443" version="1.1" xmlns="http://www.w3.org/2000/svg" xmlns:xlink="http://www.w3.org/1999/xlink" xml:space="preserve" xmlns:serif="http://www.serif.com/" style="fill-rule:evenodd;clip-rule:evenodd;stroke-miterlimit:10;"><g id="Слой-1" serif:id="Слой 1"><g><g opacity="0.669998"><clipPath id="_clip1"><rect x="0" y="261.122" width="644.15" height="181.513" clip-rule="nonzero"/></clipPath><g clip-path="url(#_clip1)"><path d="M1.705,347.603c0,0 24.677,-127.181 166.094,-73.082c141.418,54.1 261.006,120.538 405.271,78.777c144.265,-41.761 53.15,115.791 -131.927,85.42c-185.076,-30.372 -263.852,-49.354 -288.529,-25.626c-24.677,23.727 -169.891,18.033 -150.909,-65.489" style="fill:#d9edf6;"/></g></g></g><path d="M237.22,338.031l-171.205,0c-0.409,0 -0.739,-0.33 -0.739,-0.739c0,-0.408 0.33,-0.738 0.739,-0.738l171.205,0c0.408,0 0.739,0.33 0.739,0.738c0,0.409 -0.331,0.739 -0.739,0.739" style="fill:#96b7e1;fill-rule:nonzero;"/><path d="M67.995,337.292c0,3.447 -1.724,5.171 -5.171,5.171c-3.447,0 -5.171,-1.724 -5.171,-5.171c0,-3.447 1.724,-5.171 5.171,-5.171c3.447,0 5.171,1.724 5.171,5.171" style="fill:#96b7e1;fill-rule:nonzero;"/><path d="M108.388,314.436c0,3.447 -1.724,5.171 -5.171,5.171c-3.447,0 -5.171,-1.724 -5.171,-5.171c0,-3.447 1.724,-5.171 5.171,-5.171c3.447,0 5.171,1.724 5.171,5.171" style="fill:#96b7e1;fill-rule:nonzero;"/><path d="M189.484,337.676c-0.189,0 -0.378,-0.072 -0.522,-0.216l-20.005,-20.005c-1.476,-1.469 -3.437,-2.28 -5.52,-2.281l-56.055,0c-0.408,0 -0.738,-0.33 -0.738,-0.739c0,-0.408 0.33,-0.739 0.738,-0.739l56.055,0c2.477,0.002 4.807,0.966 6.563,2.713l20.006,20.006c0.289,0.289 0.289,0.756 0,1.045c-0.144,0.144 -0.333,0.216 -0.522,0.216" style="fill:#96b7e1;fill-rule:nonzero;"/><path d="M178.226,326.418l-49.125,0c-0.408,0 -0.739,-0.33 -0.739,-0.739c0,-0.408 0.331,-0.738 0.739,-0.738l49.125,0c0.408,0 0.739,0.33 0.739,0.738c0,0.409 -0.331,0.739 -0.739,0.739" style="fill:#96b7e1;fill-rule:nonzero;"/><path d="M83.301,365.305c-0.408,0 -0.739,-0.33 -0.739,-0.739c0,-0.408 0.331,-0.738 0.739,-0.738l41.456,0c1.473,-0.013 2.864,-0.598 3.91,-1.647l13.017,-13.015c0.896,-0.893 2.085,-1.384 3.348,-1.384l77.621,0c0.409,0 0.739,0.33 0.739,0.739c0,0.408 -0.33,0.738 -0.739,0.738l-77.61,0l-0.008,0c-0.873,0 -1.69,0.338 -2.308,0.953l-13.015,13.014c-1.322,1.324 -3.079,2.063 -4.949,2.079l-41.462,0Z" style="fill:#96b7e1;fill-rule:nonzero;"/><path d="M83.301,374.066c-0.408,0 -0.739,-0.33 -0.739,-0.739c0,-0.408 0.331,-0.738 0.739,-0.738l42.846,0c1.473,-0.013 2.864,-0.598 3.91,-1.645l23.093,-22.947c0.292,-0.288 0.759,-0.285 1.045,0.003c0.289,0.29 0.286,0.758 -0.003,1.045l-23.092,22.945c-1.319,1.321 -3.076,2.06 -4.948,2.076l-42.851,0Z" style="fill:#96b7e1;fill-rule:nonzero;"/><path d="M86.448,364.492c0,1.97 -0.985,2.955 -2.955,2.955c-1.97,0 -2.955,-0.985 -2.955,-2.955c0,-1.97 0.985,-2.955 2.955,-2.955c1.97,0 2.955,0.985 2.955,2.955" style="fill:#96b7e1;fill-rule:nonzero;"/><path d="M84.601,373.327c0,1.97 -0.985,2.955 -2.955,2.955c-1.97,0 -2.955,-0.985 -2.955,-2.955c0,-1.97 0.985,-2.955 2.955,-2.955c1.97,0 2.955,0.985 2.955,2.955" style="fill:#96b7e1;fill-rule:nonzero;"/><path d="M725.645,110.254c0.102,9.63 -5.164,21.193 -15.786,21.278c-17.492,-0.958 -32.637,-17.373 -29.961,-34.604c4.393,-16.971 22.937,-19.095 37.133,-4.804c4.407,4.696 7.622,11.098 8.614,18.13" style="fill:#d9edf6;fill-rule:nonzero;"/><path d="M684.618,55.406c0.869,6.735 -3.704,12.47 -10.323,12.87c-6.563,0.372 -12.625,-4.73 -13.467,-11.409c-0.842,-6.679 3.814,-12.386 10.35,-12.814c6.536,-0.428 12.571,4.618 13.44,11.353" style="fill:#d9edf6;fill-rule:nonzero;"/><g><g opacity="0.669998"><clipPath id="_clip2"><rect x="86.881" y="44.054" width="586.081" height="247.417" clip-rule="nonzero"/></clipPath><g clip-path="url(#_clip2)"><path d="M138.635,50.033c-32.891,19.797 -48.952,53.027 -51.438,87.384c-2.224,30.87 7.299,75.859 29.279,105.717c17.096,23.283 50.505,36.05 88.015,32.039c44.463,-5.822 81.182,-43.175 133.953,-56.009c10.861,-1.334 21.814,-1.769 32.747,-1.298c46.372,1.775 86.131,24.457 125.889,47.138c45.641,26.139 83.578,40.623 123.117,6.28c51.609,-45.91 78.355,-166.692 18.754,-208.591c-61.004,-43.415 -111.754,34.662 -217.277,36.361c-149.456,2.407 -179.844,-76.996 -283.039,-49.021" style="fill:#d9edf6;fill-rule:nonzero;"/></g></g></g><g><g opacity="0.669998"><clipPath id="_clip3"><rect x="360.662" y="145.896" width="367.325" height="212.579" clip-rule="nonzero"/></clipPath><g clip-path="url(#_clip3)"><path d="M362.051,323.875c-20.624,-61.729 194.251,51.252 260.056,-12.022c65.806,-63.274 51.885,-163.88 75.929,-165.778c24.044,-1.898 54.416,9.491 -2.531,117.69c-56.946,108.198 -314.44,117.022 -333.454,60.11" style="fill:#d9edf6;fill-rule:nonzero;"/></g></g></g><g><g opacity="0.669998"><clipPath id="_clip4"><rect x="189.639" y="0" width="333.217" height="87.568" clip-rule="nonzero"/></clipPath><g clip-path="url(#_clip4)"><path d="M206.887,0.045c-21.276,-1.4 -23.729,30.525 -2.526,32.771c32.348,3.425 66.069,12.209 102.642,32.901c58.198,32.927 174.141,26.945 207.058,-6.577c32.917,-33.521 -28.923,-60.122 -145.99,-36.128c-79.264,16.247 -129.281,-20.868 -161.184,-22.967" style="fill:#d9edf6;fill-rule:nonzero;"/></g></g></g><path d="M658.193,110.69c-3.919,0 -7.721,-1.618 -10.445,-4.452l-35.847,-35.847c-2.59,-2.601 -6.036,-4.05 -9.707,-4.08l-39.229,0c-0.342,0 -0.619,-0.277 -0.619,-0.62c0,-0.342 0.277,-0.619 0.619,-0.619l39.234,0c4.003,0.032 7.759,1.61 10.58,4.444l35.854,35.854c2.498,2.6 5.976,4.08 9.566,4.08c0.042,0 0.086,-0.001 0.128,-0.001l78.184,0c0.342,0 0.62,0.277 0.62,0.62c0,0.343 -0.278,0.62 -0.62,0.62l-78.178,0c-0.046,0 -0.093,0.001 -0.14,0.001" style="fill:#96b7e1;fill-rule:nonzero;"/><path d="M559.438,54.702c-0.159,0 -0.318,-0.061 -0.439,-0.182c-0.241,-0.243 -0.241,-0.636 0.002,-0.877l34.386,-34.239c5.519,-5.531 13.165,-8.703 20.981,-8.703l133.163,0c0.342,0 0.619,0.277 0.619,0.619c0,0.343 -0.277,0.62 -0.619,0.62l-133.134,0l-0.028,0c-7.49,0 -14.817,3.04 -20.107,8.341l-34.387,34.241c-0.121,0.12 -0.278,0.18 -0.437,0.18" style="fill:#96b7e1;fill-rule:nonzero;"/><path d="M523.142,28.724c-4.899,0 -9.677,0.951 -14.203,2.825c-4.525,1.875 -8.576,4.581 -12.042,8.045c-3.463,3.465 -6.169,7.515 -8.044,12.041c-1.875,4.526 -2.826,9.304 -2.826,14.203c0,4.898 0.951,9.677 2.826,14.203c1.875,4.527 4.581,8.578 8.044,12.041c3.465,3.463 7.516,6.17 12.042,8.045c9.051,3.75 19.353,3.75 28.405,0c4.528,-1.875 8.578,-4.582 12.04,-8.045c3.463,-3.462 6.171,-7.513 8.046,-12.041c1.875,-4.526 2.825,-9.305 2.825,-14.203c0,-4.899 -0.95,-9.677 -2.825,-14.203c-1.875,-4.526 -4.581,-8.577 -8.046,-12.041c-3.462,-3.463 -7.513,-6.169 -12.04,-8.045c-4.526,-1.874 -9.303,-2.825 -14.202,-2.825m0,76.707c-5.227,0 -10.324,-1.015 -15.152,-3.014c-4.827,-2 -9.149,-4.887 -12.845,-8.582c-3.695,-3.695 -6.582,-8.016 -8.582,-12.845c-2,-4.829 -3.014,-9.926 -3.014,-15.152c0,-5.226 1.014,-10.323 3.014,-15.152c1.999,-4.828 4.886,-9.149 8.582,-12.844c3.696,-3.696 8.019,-6.584 12.845,-8.583c4.828,-2 9.925,-3.014 15.152,-3.014c5.225,0 10.323,1.014 15.151,3.014c4.83,2 9.151,4.888 12.844,8.583c3.695,3.695 6.584,8.016 8.583,12.844c2,4.829 3.014,9.926 3.014,15.152c0,5.226 -1.014,10.323 -3.014,15.152c-2.001,4.829 -4.889,9.152 -8.583,12.845c-3.692,3.694 -8.014,6.581 -12.844,8.582c-4.828,1.999 -9.926,3.014 -15.151,3.014" style="fill:#bdd1eb;fill-rule:nonzero;"/><path d="M514.83,57.526c-2.296,2.296 -3.444,5.066 -3.444,8.312c0,3.246 1.148,6.017 3.444,8.313c2.295,2.295 5.065,3.443 8.311,3.443c3.246,0 6.018,-1.148 8.313,-3.443c2.296,-2.296 3.444,-5.067 3.444,-8.313c0,-3.246 -1.148,-6.016 -3.444,-8.312c-2.295,-2.296 -5.067,-3.444 -8.313,-3.444c-3.246,0 -6.016,1.148 -8.311,3.444Z" style="fill:url(#_Linear5);fill-rule:nonzero;"/><path d="M535.906,65.74c0,7.009 -5.682,12.692 -12.692,12.692c-7.009,0 -12.691,-5.683 -12.691,-12.692c0,-7.009 5.682,-12.692 12.691,-12.692c7.01,0 12.692,5.683 12.692,12.692" style="fill:#a0bde3;fill-rule:nonzero;"/><path d="M523.142,41.918c-3.158,0 -6.239,0.612 -9.155,1.82c-2.917,1.21 -5.528,2.954 -7.76,5.186c-2.232,2.233 -3.977,4.843 -5.185,7.76c-1.208,2.916 -1.821,5.996 -1.821,9.155c0,3.157 0.613,6.237 1.821,9.153c1.208,2.916 2.952,5.527 5.185,7.761c2.232,2.232 4.843,3.977 7.76,5.185c5.836,2.418 12.47,2.418 18.308,0c2.915,-1.207 5.527,-2.951 7.762,-5.185c2.233,-2.234 3.977,-4.846 5.184,-7.761c1.209,-2.918 1.822,-5.998 1.822,-9.153c0,-3.157 -0.613,-6.237 -1.822,-9.155c-1.207,-2.916 -2.951,-5.527 -5.184,-7.76c-2.235,-2.233 -4.846,-3.977 -7.762,-5.186c-2.916,-1.208 -5.995,-1.82 -9.153,-1.82m0,49.081c-3.32,0 -6.559,-0.645 -9.629,-1.916c-3.067,-1.27 -5.814,-3.105 -8.162,-5.453c-2.348,-2.35 -4.183,-5.096 -5.454,-8.163c-1.271,-3.068 -1.915,-6.307 -1.915,-9.628c0,-3.322 0.644,-6.562 1.915,-9.629c1.271,-3.068 3.106,-5.815 5.454,-8.162c2.347,-2.348 5.093,-4.183 8.162,-5.455c6.134,-2.54 13.122,-2.54 19.257,0c3.067,1.271 5.814,3.106 8.163,5.455c2.348,2.349 4.183,5.094 5.453,8.162c1.271,3.069 1.916,6.308 1.916,9.629c0,3.319 -0.645,6.558 -1.916,9.628c-1.268,3.066 -3.103,5.812 -5.453,8.163c-2.351,2.349 -5.097,4.184 -8.163,5.453c-3.07,1.271 -6.309,1.916 -9.628,1.916" style="fill:#96b7e1;fill-rule:nonzero;"/><path d="M484.788,66.458l-54.665,0c-0.342,0 -0.619,-0.277 -0.619,-0.62c0,-0.342 0.277,-0.62 0.619,-0.62l54.665,0c0.343,0 0.62,0.278 0.62,0.62c0,0.343 -0.277,0.62 -0.62,0.62" style="fill:#96b7e1;fill-rule:nonzero;"/><path d="M434.973,65.838c0,2.07 -0.732,3.836 -2.195,5.299c-1.464,1.464 -3.23,2.195 -5.299,2.195c-2.07,0 -3.836,-0.731 -5.3,-2.195c-1.463,-1.463 -2.195,-3.229 -2.195,-5.299c0,-2.069 0.732,-3.836 2.195,-5.299c1.464,-1.464 3.23,-2.195 5.3,-2.195c2.069,0 3.835,0.731 5.299,2.195c1.463,1.463 2.195,3.23 2.195,5.299" style="fill:#96b7e1;fill-rule:nonzero;"/><path d="M721.081,122.004l-110.651,0c-3.837,-0.008 -7.586,-1.575 -10.286,-4.297l-9.844,-9.845c-0.242,-0.242 -0.242,-0.634 0,-0.876c0.242,-0.242 0.635,-0.242 0.877,0l9.845,9.846c2.472,2.492 5.9,3.924 9.409,3.933l110.65,0c0.343,0 0.62,0.277 0.62,0.619c0,0.343 -0.277,0.62 -0.62,0.62" style="fill:#96b7e1;fill-rule:nonzero;"/><path d="M729.751,133.76l-93.606,0c-0.342,0 -0.619,-0.277 -0.619,-0.62c0,-0.342 0.277,-0.62 0.619,-0.62l93.606,0c0.343,0 0.62,0.278 0.62,0.62c0,0.343 -0.277,0.62 -0.62,0.62" style="fill:#96b7e1;fill-rule:nonzero;"/><path d="M598.232,107.425c0,2.07 -0.732,3.836 -2.195,5.299c-1.464,1.464 -3.23,2.195 -5.299,2.195c-2.07,0 -3.836,-0.731 -5.3,-2.195c-1.463,-1.463 -2.195,-3.229 -2.195,-5.299c0,-2.07 0.732,-3.836 2.195,-5.299c1.464,-1.464 3.23,-2.195 5.3,-2.195c2.069,0 3.835,0.731 5.299,2.195c1.463,1.463 2.195,3.229 2.195,5.299" style="fill:#96b7e1;fill-rule:nonzero;"/><path d="M482.929,103.08l-303.089,0c-0.342,0 -0.619,-0.277 -0.619,-0.62c0,-0.342 0.277,-0.619 0.619,-0.619l303.089,0c0.343,0 0.62,0.277 0.62,0.619c0,0.343 -0.277,0.62 -0.62,0.62" style="fill:#96b7e1;fill-rule:nonzero;"/><path d="M182.632,102.46c0,1.988 -0.703,3.685 -2.109,5.092c-1.406,1.405 -3.103,2.108 -5.092,2.108c-1.988,0 -3.685,-0.703 -5.091,-2.108c-1.406,-1.407 -2.109,-3.104 -2.109,-5.092c0,-1.988 0.703,-3.686 2.109,-5.092c1.406,-1.405 3.103,-2.108 5.091,-2.108c1.989,0 3.686,0.703 5.092,2.108c1.406,1.406 2.109,3.104 2.109,5.092" style="fill:#96b7e1;fill-rule:nonzero;"/><path d="M352.65,102.639c-0.159,0 -0.317,-0.061 -0.438,-0.182l-27.92,-27.92c-2.172,-2.121 -5.048,-3.311 -8.092,-3.345l-78.463,0c-0.343,0 -0.62,-0.277 -0.62,-0.62c0,-0.343 0.277,-0.62 0.62,-0.62l78.47,0c3.371,0.038 6.55,1.352 8.956,3.704l27.925,27.925c0.242,0.242 0.242,0.634 0,0.876c-0.121,0.121 -0.279,0.182 -0.438,0.182" style="fill:#96b7e1;fill-rule:nonzero;"/><path d="M642.541,216.671c-5.532,0 -10.735,-2.151 -14.654,-6.058l-49.815,-49.817c-3.629,-3.657 -8.686,-5.757 -13.811,-5.696l-54.67,0c-0.342,0 -0.62,-0.278 -0.62,-0.62c0,-0.343 0.278,-0.62 0.62,-0.62l54.665,0c5.496,-0.073 10.833,2.169 14.693,6.061l49.815,49.814c3.683,3.674 8.576,5.697 13.778,5.697l108.926,0c0.343,0 0.62,0.277 0.62,0.619c0,0.343 -0.277,0.62 -0.62,0.62l-108.888,0l-0.039,0Z" style="fill:#96b7e1;fill-rule:nonzero;"/><path d="M400.85,154.952l-76.12,0c-0.342,0 -0.619,-0.277 -0.619,-0.62c0,-0.342 0.277,-0.619 0.619,-0.619l76.12,0c0.343,0 0.62,0.277 0.62,0.619c0,0.343 -0.277,0.62 -0.62,0.62" style="fill:#96b7e1;fill-rule:nonzero;"/><path d="M342.848,273.301c-6.878,0 -13.586,1.335 -19.938,3.967c-6.354,2.631 -12.041,6.431 -16.904,11.294c-4.862,4.863 -8.662,10.549 -11.295,16.903c-2.631,6.353 -3.965,13.062 -3.965,19.938c0,6.878 1.334,13.586 3.965,19.94c2.633,6.352 6.433,12.04 11.295,16.903c4.865,4.863 10.551,8.664 16.904,11.294c6.352,2.631 13.06,3.967 19.938,3.967c6.879,0 13.587,-1.336 19.938,-3.967c6.354,-2.63 12.041,-6.431 16.904,-11.294c4.864,-4.863 8.663,-10.551 11.295,-16.903c2.631,-6.355 3.966,-13.065 3.966,-19.94c0,-6.875 -1.335,-13.583 -3.966,-19.938c-2.632,-6.354 -6.431,-12.04 -11.295,-16.903c-4.862,-4.863 -10.55,-8.663 -16.904,-11.294c-6.351,-2.632 -13.059,-3.967 -19.938,-3.967m0,106.684c-7.205,0 -14.232,-1.398 -20.887,-4.155c-6.654,-2.756 -12.612,-6.736 -17.708,-11.831c-5.093,-5.095 -9.075,-11.052 -11.832,-17.707c-2.756,-6.657 -4.154,-13.684 -4.154,-20.889c0,-7.204 1.398,-14.231 4.154,-20.887c2.757,-6.656 6.739,-12.613 11.832,-17.707c5.095,-5.094 11.053,-9.075 17.708,-11.832c6.655,-2.757 13.682,-4.155 20.887,-4.155c7.206,0 14.234,1.398 20.887,4.155c6.657,2.757 12.614,6.738 17.708,11.832c5.095,5.094 9.076,11.051 11.832,17.707c2.757,6.657 4.155,13.685 4.155,20.887c0,7.203 -1.398,14.231 -4.155,20.889c-2.756,6.655 -6.737,12.612 -11.832,17.707c-5.095,5.095 -11.053,9.075 -17.708,11.831c-6.653,2.757 -13.681,4.155 -20.887,4.155" style="fill:#a0bde3;fill-rule:nonzero;"/><path d="M359.518,325.361c0,9.022 -7.314,16.336 -16.336,16.336c-9.022,0 -16.335,-7.314 -16.335,-16.336c0,-9.022 7.313,-16.336 16.335,-16.336c9.022,0 16.336,7.314 16.336,16.336" style="fill:#a0bde3;fill-rule:nonzero;"/><path d="M342.848,291.932c-4.419,0 -8.728,0.857 -12.809,2.548c-4.081,1.691 -7.735,4.131 -10.859,7.255c-3.125,3.126 -5.567,6.779 -7.256,10.859c-1.69,4.082 -2.547,8.391 -2.547,12.809c0,4.419 0.857,8.729 2.547,12.81c1.689,4.081 4.131,7.734 7.256,10.859c3.123,3.123 6.776,5.564 10.859,7.257c8.166,3.383 17.455,3.38 25.618,0c4.083,-1.693 7.737,-4.134 10.86,-7.257c3.124,-3.124 5.564,-6.777 7.255,-10.859c1.691,-4.083 2.548,-8.393 2.548,-12.81c0,-4.417 -0.857,-8.726 -2.548,-12.809c-1.691,-4.081 -4.131,-7.735 -7.255,-10.859c-3.124,-3.124 -6.777,-5.564 -10.86,-7.255c-4.079,-1.691 -8.388,-2.548 -12.809,-2.548m0,68.184c-4.58,0 -9.049,-0.888 -13.283,-2.642c-4.233,-1.756 -8.022,-4.287 -11.261,-7.526c-3.24,-3.24 -5.773,-7.029 -7.525,-11.26c-1.753,-4.233 -2.642,-8.702 -2.642,-13.285c0,-4.581 0.889,-9.05 2.642,-13.283c1.752,-4.232 4.285,-8.021 7.525,-11.261c3.239,-3.239 7.028,-5.771 11.261,-7.524c8.464,-3.509 18.107,-3.508 26.566,0c4.233,1.753 8.023,4.285 11.262,7.524c3.239,3.239 5.772,7.028 7.524,11.261c1.754,4.234 2.643,8.703 2.643,13.283c0,4.58 -0.889,9.051 -2.643,13.285c-1.752,4.233 -4.285,8.021 -7.524,11.26c-3.239,3.239 -7.028,5.772 -11.262,7.526c-4.233,1.754 -8.701,2.642 -13.283,2.642" style="fill:#96b7e1;fill-rule:nonzero;"/><path d="M331.344,154.333c0,2.881 -1.019,5.34 -3.056,7.378c-2.037,2.037 -4.496,3.055 -7.377,3.055c-2.882,0 -5.341,-1.018 -7.378,-3.055c-2.037,-2.038 -3.055,-4.497 -3.055,-7.378c0,-2.881 1.018,-5.34 3.055,-7.377c2.037,-2.038 4.496,-3.056 7.378,-3.056c2.881,0 5.34,1.018 7.377,3.056c2.037,2.037 3.056,4.496 3.056,7.377" style="fill:#96b7e1;fill-rule:nonzero;"/><path d="M650.014,200.359c-7.033,0 -13.916,-2.849 -18.894,-7.823l-46.436,-46.435c-4.85,-4.768 -11.271,-7.419 -18.08,-7.46l-38.203,0c-0.342,0 -0.62,-0.277 -0.62,-0.62c0,-0.342 0.278,-0.619 0.62,-0.619l38.206,0c7.137,0.043 13.865,2.82 18.95,7.819l46.44,46.439c4.746,4.742 11.311,7.459 18.018,7.459l37.97,0c0.343,0 0.62,0.278 0.62,0.62c0,0.343 -0.277,0.62 -0.62,0.62l-37.912,0l-0.059,0Z" style="fill:#96b7e1;fill-rule:nonzero;"/><path d="M730.161,232.395l-154.148,0c-5.384,-0.008 -10.445,-2.109 -14.252,-5.913l-13.813,-13.814c-0.243,-0.242 -0.243,-0.634 0,-0.876c0.242,-0.242 0.634,-0.242 0.876,0l13.813,13.814c3.574,3.57 8.323,5.541 13.377,5.55l154.147,0c0.343,0 0.62,0.277 0.62,0.619c0,0.343 -0.277,0.62 -0.62,0.62" style="fill:#96b7e1;fill-rule:nonzero;"/><path d="M336.781,86.916l-68.625,0c-0.342,0 -0.619,-0.277 -0.619,-0.62c0,-0.342 0.277,-0.62 0.619,-0.62l68.625,0c0.343,0 0.62,0.278 0.62,0.62c0,0.343 -0.277,0.62 -0.62,0.62" style="fill:#96b7e1;fill-rule:nonzero;"/><path d="M558.819,212.23c0,2.881 -1.019,5.34 -3.056,7.377c-2.037,2.038 -4.496,3.056 -7.377,3.056c-2.882,0 -5.34,-1.018 -7.378,-3.056c-2.037,-2.037 -3.055,-4.496 -3.055,-7.377c0,-2.881 1.018,-5.34 3.055,-7.377c2.038,-2.038 4.496,-3.056 7.378,-3.056c2.881,0 5.34,1.018 7.377,3.056c2.037,2.037 3.056,4.496 3.056,7.377" style="fill:#96b7e1;fill-rule:nonzero;"/><path d="M203.939,141.286c-0.343,0 -0.62,-0.277 -0.62,-0.62c0,-0.342 0.277,-0.62 0.62,-0.62l57.898,0c2.212,-0.026 4.304,-0.902 5.882,-2.465l18.22,-18.22c1.19,-1.161 2.753,-1.797 4.406,-1.797l108.595,0c0.342,0 0.619,0.277 0.619,0.62c0,0.342 -0.277,0.619 -0.619,0.619l-108.595,0c-1.328,0 -2.584,0.511 -3.535,1.44l-18.217,18.217c-1.81,1.792 -4.206,2.795 -6.749,2.826l-57.905,0Z" style="fill:#96b7e1;fill-rule:nonzero;"/><path d="M204.087,153.63c-0.343,0 -0.62,-0.277 -0.62,-0.62c0,-0.342 0.277,-0.62 0.62,-0.62l59.954,0c2.213,-0.027 4.306,-0.904 5.883,-2.465l32.18,-32.18c0.242,-0.242 0.634,-0.242 0.876,0c0.242,0.242 0.242,0.635 0,0.877l-32.182,32.182c-1.81,1.791 -4.205,2.793 -6.748,2.826l-59.963,0Z" style="fill:#96b7e1;fill-rule:nonzero;"/><path d="M270.384,27.549l-0.029,0l-24.242,0c-0.342,0 -0.619,-0.277 -0.619,-0.62c0,-0.342 0.277,-0.619 0.619,-0.619l24.247,0c0.52,-0.01 1.084,-0.2 1.491,-0.572l5.418,-5.418c0.242,-0.242 0.634,-0.242 0.876,0c0.242,0.242 0.242,0.634 0,0.876l-5.437,5.437c-0.65,0.598 -1.468,0.916 -2.324,0.916" style="fill:#96b7e1;fill-rule:nonzero;"/><path d="M208.495,140.52c0,2.743 -1.371,4.115 -4.115,4.115c-2.742,0 -4.114,-1.372 -4.114,-4.115c0,-2.743 1.372,-4.114 4.114,-4.114c2.744,0 4.115,1.371 4.115,4.114" style="fill:#96b7e1;fill-rule:nonzero;"/><path d="M205.85,152.864c0,2.743 -1.371,4.114 -4.115,4.114c-2.742,0 -4.114,-1.371 -4.114,-4.114c0,-2.743 1.372,-4.115 4.114,-4.115c2.744,0 4.115,1.372 4.115,4.115" style="fill:#96b7e1;fill-rule:nonzero;"/><path d="M566.492,66.458c-0.159,0 -0.317,-0.061 -0.438,-0.182c-0.242,-0.242 -0.242,-0.634 0,-0.876l32.769,-32.77c5.292,-5.187 12.282,-8.068 19.685,-8.116l129.023,0c0.343,0 0.62,0.278 0.62,0.62c0,0.343 -0.277,0.62 -0.62,0.62l-129.019,0c-7.076,0.046 -13.76,2.801 -18.818,7.757l-32.764,32.765c-0.121,0.121 -0.279,0.182 -0.438,0.182" style="fill:#96b7e1;fill-rule:nonzero;"/><path d="M636.292,133.141c0,2.841 -1.42,4.261 -4.261,4.261c-2.841,0 -4.262,-1.42 -4.262,-4.261c0,-2.841 1.421,-4.262 4.262,-4.262c2.841,0 4.261,1.421 4.261,4.262" style="fill:#96b7e1;fill-rule:nonzero;"/><path d="M384.565,357.94l84.228,0c3.838,0.008 7.586,1.575 10.287,4.297l9.843,9.845c0.242,0.242 0.242,0.634 0,0.876c-0.242,0.242 -0.634,0.242 -0.876,0l-9.846,-9.846c-2.472,-2.492 -5.9,-3.924 -9.409,-3.933l-84.227,0c-0.343,0 -0.62,-0.277 -0.62,-0.619c0,-0.343 0.277,-0.62 0.62,-0.62" style="fill:#96b7e1;fill-rule:nonzero;"/><path d="M392.232,346.184l50.846,0c0.343,0 0.62,0.277 0.62,0.62c0,0.342 -0.277,0.619 -0.62,0.619l-50.846,0c-0.343,0 -0.62,-0.277 -0.62,-0.619c0,-0.343 0.277,-0.62 0.62,-0.62" style="fill:#96b7e1;fill-rule:nonzero;"/><path d="M480.991,372.52c0,-2.07 0.732,-3.836 2.195,-5.299c1.464,-1.464 3.23,-2.195 5.299,-2.195c2.07,0 3.836,0.731 5.3,2.195c1.463,1.463 2.195,3.229 2.195,5.299c0,2.07 -0.732,3.836 -2.195,5.299c-1.464,1.464 -3.23,2.195 -5.3,2.195c-2.069,0 -3.835,-0.731 -5.299,-2.195c-1.463,-1.463 -2.195,-3.229 -2.195,-5.299" style="fill:#96b7e1;fill-rule:nonzero;"/><path d="M442.932,346.803c0,-2.841 1.42,-4.261 4.261,-4.261c2.841,0 4.262,1.42 4.262,4.261c0,2.841 -1.421,4.262 -4.262,4.262c-2.841,0 -4.261,-1.421 -4.261,-4.262" style="fill:#96b7e1;fill-rule:nonzero;"/><path d="M95.052,77.364c-8.103,0 -16.008,1.572 -23.495,4.673c-7.485,3.1 -14.186,7.578 -19.916,13.308c-5.73,5.73 -10.208,12.431 -13.309,19.918c-3.101,7.485 -4.673,15.389 -4.673,23.493c0,8.104 1.572,16.008 4.673,23.494c3.101,7.486 7.579,14.187 13.309,19.917c5.73,5.731 12.431,10.208 19.916,13.308c7.487,3.101 15.392,4.674 23.495,4.674c8.103,0 16.007,-1.573 23.493,-4.674c7.487,-3.1 14.188,-7.577 19.917,-13.308c5.73,-5.73 10.208,-12.431 13.309,-19.917c3.1,-7.487 4.672,-15.391 4.672,-23.494c0,-8.102 -1.572,-16.007 -4.672,-23.493c-3.101,-7.487 -7.579,-14.188 -13.309,-19.918c-5.729,-5.73 -12.43,-10.208 -19.917,-13.308c-7.486,-3.101 -15.39,-4.673 -23.493,-4.673m0,124.024c-8.266,0 -16.331,-1.604 -23.969,-4.768c-7.636,-3.162 -14.472,-7.73 -20.319,-13.576c-5.846,-5.847 -10.414,-12.683 -13.577,-20.32c-3.164,-7.636 -4.768,-15.7 -4.768,-23.968c0,-8.267 1.604,-16.331 4.768,-23.968c3.163,-7.636 7.731,-14.473 13.577,-20.319c5.847,-5.847 12.683,-10.415 20.319,-13.577c7.638,-3.164 15.703,-4.768 23.969,-4.768c8.266,0 16.33,1.604 23.968,4.768c7.638,3.163 14.474,7.731 20.318,13.577c5.847,5.846 10.415,12.683 13.578,20.319c3.163,7.638 4.767,15.702 4.767,23.968c0,8.266 -1.604,16.33 -4.767,23.968c-3.163,7.637 -7.731,14.473 -13.578,20.32c-5.844,5.845 -12.68,10.413 -20.318,13.576c-7.638,3.164 -15.702,4.768 -23.968,4.768" style="fill:#96b7e1;fill-rule:nonzero;"/><path d="M22.164,108.517c-0.08,0 -0.161,-0.016 -0.24,-0.048c-0.316,-0.132 -0.463,-0.495 -0.331,-0.811c12.427,-29.69 41.253,-48.873 73.436,-48.873c0.189,-0.001 0.316,-0.001 0.473,-0.001c7.893,0 15.713,1.196 23.245,3.555c0.327,0.103 0.509,0.45 0.407,0.777c-0.103,0.327 -0.453,0.508 -0.777,0.407c-7.556,-2.368 -15.437,-3.566 -23.323,-3.499l-0.022,0c-31.688,0 -60.06,18.882 -72.297,48.113c-0.099,0.237 -0.329,0.38 -0.571,0.38" style="fill:#96b7e1;fill-rule:nonzero;"/><path d="M94.99,218.581c-21.306,0 -41.333,-8.295 -56.402,-23.363c-15.082,-15.082 -23.378,-35.134 -23.362,-56.462c0,-0.342 0.277,-0.62 0.619,-0.62c0.343,0 0.62,0.279 0.62,0.62c-0.016,20.998 8.153,40.739 23,55.586c14.834,14.833 34.552,22.999 55.525,22.999l0.061,0c0.342,0 0.619,0.278 0.619,0.62c0,0.361 -0.318,0.615 -0.68,0.62" style="fill:#96b7e1;fill-rule:nonzero;"/><path d="M160.149,196.507c0,1.704 -0.602,3.159 -1.808,4.364c-1.205,1.205 -2.659,1.808 -4.364,1.808c-1.704,0 -3.159,-0.603 -4.364,-1.808c-1.205,-1.205 -1.807,-2.66 -1.807,-4.364c0,-1.704 0.602,-3.159 1.807,-4.364c1.205,-1.205 2.66,-1.808 4.364,-1.808c1.705,0 3.159,0.603 4.364,1.808c1.206,1.205 1.808,2.66 1.808,4.364" style="fill:#96b7e1;fill-rule:nonzero;"/><path d="M12.466,225.929c-0.159,0 -0.317,-0.061 -0.438,-0.182c-0.242,-0.242 -0.242,-0.634 0,-0.876l40.852,-40.851c0.242,-0.242 0.634,-0.242 0.876,0c0.243,0.242 0.243,0.634 0,0.876l-40.852,40.851c-0.121,0.121 -0.279,0.182 -0.438,0.182" style="fill:#96b7e1;fill-rule:nonzero;"/><path d="M136.784,93.528c-0.159,0 -0.317,-0.061 -0.438,-0.182c-0.242,-0.242 -0.242,-0.634 0,-0.876l23.511,-23.511c2.942,-2.947 6.855,-4.576 11.017,-4.59l37.033,0c0.343,0 0.62,0.277 0.62,0.619c0,0.343 -0.277,0.62 -0.62,0.62l-37.031,0c-3.83,0.013 -7.433,1.514 -10.142,4.227l-23.512,23.511c-0.121,0.121 -0.279,0.182 -0.438,0.182" style="fill:#96b7e1;fill-rule:nonzero;"/><path d="M128.996,87.21c-0.159,0 -0.317,-0.061 -0.438,-0.182c-0.242,-0.242 -0.242,-0.634 0,-0.876l27.479,-27.479c2.747,-2.858 6.578,-4.503 10.583,-4.444l39.229,0c0.343,0 0.62,0.277 0.62,0.62c0,0.342 -0.277,0.62 -0.62,0.62l-39.235,0c-3.66,-0.091 -7.173,1.449 -9.692,4.072l-27.488,27.487c-0.121,0.121 -0.279,0.182 -0.438,0.182" style="fill:#96b7e1;fill-rule:nonzero;"/><path d="M201.883,45.182l-27.774,0c-0.342,0 -0.619,-0.277 -0.619,-0.62c0,-0.342 0.277,-0.62 0.619,-0.62l27.774,0c0.343,0 0.62,0.278 0.62,0.62c0,0.343 -0.277,0.62 -0.62,0.62" style="fill:#96b7e1;fill-rule:nonzero;"/><path d="M267.568,185.078l-130.784,0c-0.343,0 -0.62,-0.277 -0.62,-0.62c0,-0.342 0.277,-0.62 0.62,-0.62l130.784,0c0.343,0 0.62,0.278 0.62,0.62c0,0.343 -0.277,0.62 -0.62,0.62" style="fill:#96b7e1;fill-rule:nonzero;"/><path d="M192.06,196.98l-0.027,0l-34.97,0c-0.343,0 -0.62,-0.277 -0.62,-0.62c0,-0.342 0.277,-0.62 0.62,-0.62l34.995,0c1.048,0 2.032,-0.405 2.774,-1.142l10.579,-10.578c0.242,-0.242 0.634,-0.242 0.877,0c0.242,0.242 0.242,0.634 0,0.876l-10.581,10.579c-0.978,0.972 -2.272,1.505 -3.647,1.505" style="fill:#96b7e1;fill-rule:nonzero;"/><path d="M176.313,44.563c0,1.704 -0.603,3.159 -1.808,4.364c-1.205,1.205 -2.659,1.808 -4.364,1.808c-1.704,0 -3.159,-0.603 -4.364,-1.808c-1.205,-1.205 -1.807,-2.66 -1.807,-4.364c0,-1.704 0.602,-3.159 1.807,-4.364c1.205,-1.205 2.66,-1.808 4.364,-1.808c1.705,0 3.159,0.603 4.364,1.808c1.205,1.205 1.808,2.66 1.808,4.364" style="fill:#96b7e1;fill-rule:nonzero;"/><path d="M122.236,63.078c0,2.351 -1.175,3.527 -3.527,3.527c-2.351,0 -3.526,-1.176 -3.526,-3.527c0,-2.351 1.175,-3.527 3.526,-3.527c2.352,0 3.527,1.176 3.527,3.527" style="fill:#96b7e1;fill-rule:nonzero;"/><path d="M98.578,217.962c0,2.351 -1.175,3.527 -3.527,3.527c-2.351,0 -3.526,-1.176 -3.526,-3.527c0,-2.351 1.175,-3.527 3.526,-3.527c2.352,0 3.527,1.176 3.527,3.527" style="fill:#96b7e1;fill-rule:nonzero;"/><path d="M25.691,121.123c0,2.351 -1.175,3.527 -3.527,3.527c-2.351,0 -3.526,-1.176 -3.526,-3.527c0,-2.351 1.175,-3.527 3.526,-3.527c2.352,0 3.527,1.176 3.527,3.527" style="fill:#96b7e1;fill-rule:nonzero;"/><path d="M19.373,138.756c0,2.351 -1.175,3.527 -3.527,3.527c-2.351,0 -3.526,-1.176 -3.526,-3.527c0,-2.351 1.175,-3.527 3.526,-3.527c2.352,0 3.527,1.176 3.527,3.527" style="fill:#96b7e1;fill-rule:nonzero;"/><path d="M18.638,225.309c0,1.704 -0.603,3.159 -1.808,4.364c-1.205,1.205 -2.66,1.808 -4.364,1.808c-1.704,0 -3.159,-0.603 -4.364,-1.808c-1.205,-1.205 -1.808,-2.66 -1.808,-4.364c0,-1.704 0.603,-3.159 1.808,-4.364c1.205,-1.205 2.66,-1.808 4.364,-1.808c1.704,0 3.159,0.603 4.364,1.808c1.205,1.205 1.808,2.66 1.808,4.364" style="fill:#96b7e1;fill-rule:nonzero;"/><path d="M95.051,106.603c-4.244,0 -8.384,0.824 -12.305,2.448c-3.921,1.623 -7.43,3.968 -10.431,6.969c-3.002,3.002 -5.347,6.511 -6.971,10.432c-1.624,3.921 -2.447,8.06 -2.447,12.305c0,4.244 0.823,8.384 2.447,12.304c1.624,3.921 3.969,7.431 6.971,10.432c3.001,3.001 6.51,5.346 10.431,6.97c3.921,1.624 8.061,2.448 12.305,2.448c4.244,0 8.383,-0.824 12.305,-2.448c3.921,-1.624 7.43,-3.969 10.431,-6.97c3.001,-3.001 5.346,-6.511 6.97,-10.432c1.624,-3.921 2.447,-8.06 2.447,-12.304c0,-4.244 -0.823,-8.384 -2.447,-12.305c-1.624,-3.921 -3.969,-7.43 -6.97,-10.432c-3.001,-3.001 -6.51,-5.346 -10.431,-6.969c-3.922,-1.624 -8.061,-2.448 -12.305,-2.448m0,64.957c-4.329,0 -8.553,-0.84 -12.554,-2.497c-3.999,-1.656 -7.579,-4.049 -10.641,-7.111c-3.062,-3.062 -5.455,-6.642 -7.111,-10.642c-1.658,-4 -2.498,-8.223 -2.498,-12.553c0,-4.33 0.84,-8.554 2.498,-12.553c1.656,-4 4.049,-7.58 7.111,-10.643c3.062,-3.062 6.642,-5.454 10.641,-7.11c4.001,-1.657 8.225,-2.497 12.554,-2.497c4.329,0 8.553,0.84 12.553,2.497c4,1.657 7.581,4.049 10.642,7.11c3.062,3.063 5.454,6.643 7.111,10.643c1.656,4 2.496,8.224 2.496,12.553c0,4.329 -0.84,8.553 -2.496,12.553c-1.657,4 -4.049,7.58 -7.111,10.642c-3.061,3.062 -6.642,5.454 -10.642,7.111c-4,1.657 -8.224,2.497 -12.553,2.497" style="fill:#96b7e1;fill-rule:nonzero;"/><path d="M95.051,106.603c-4.244,0 -8.384,0.824 -12.305,2.448c-3.921,1.623 -7.43,3.968 -10.431,6.969c-3.002,3.002 -5.347,6.511 -6.971,10.432c-1.624,3.921 -2.447,8.06 -2.447,12.305c0,4.244 0.823,8.384 2.447,12.304c1.624,3.921 3.969,7.431 6.971,10.432c3.001,3.001 6.51,5.346 10.431,6.97c3.921,1.624 8.061,2.448 12.305,2.448c4.244,0 8.383,-0.824 12.305,-2.448c3.921,-1.624 7.43,-3.969 10.431,-6.97c3.001,-3.001 5.346,-6.511 6.97,-10.432c1.624,-3.921 2.447,-8.06 2.447,-12.304c0,-4.244 -0.823,-8.384 -2.447,-12.305c-1.624,-3.921 -3.969,-7.43 -6.97,-10.432c-3.001,-3.001 -6.51,-5.346 -10.431,-6.969c-3.922,-1.624 -8.061,-2.448 -12.305,-2.448Zm0,64.957c-4.329,0 -8.553,-0.84 -12.554,-2.497c-3.999,-1.656 -7.579,-4.049 -10.641,-7.111c-3.062,-3.062 -5.455,-6.642 -7.111,-10.642c-1.658,-4 -2.498,-8.223 -2.498,-12.553c0,-4.33 0.84,-8.554 2.498,-12.553c1.656,-4 4.049,-7.58 7.111,-10.643c3.062,-3.062 6.642,-5.454 10.641,-7.11c4.001,-1.657 8.225,-2.497 12.554,-2.497c4.329,0 8.553,0.84 12.553,2.497c4,1.657 7.581,4.049 10.642,7.11c3.062,3.063 5.454,6.643 7.111,10.643c1.656,4 2.496,8.224 2.496,12.553c0,4.329 -0.84,8.553 -2.496,12.553c-1.657,4 -4.049,7.58 -7.111,10.642c-3.061,3.062 -6.642,5.454 -10.642,7.111c-4,1.657 -8.224,2.497 -12.553,2.497Z" style="fill:none;stroke:#96b7e1;stroke-width:1px;"/><g><g opacity="0.669998"><path d="M180.138,15.889c0,8.387 -6.799,15.186 -15.186,15.186c-8.387,0 -15.186,-6.799 -15.186,-15.186c0,-8.387 6.799,-15.186 15.186,-15.186c8.387,0 15.186,6.799 15.186,15.186" style="fill:#d9edf6;fill-rule:nonzero;"/></g></g><g><g opacity="0.970001"><path d="M281.943,38.52c0,4.688 -0.897,9.198 -2.691,13.529c-1.794,4.332 -4.349,8.155 -7.664,11.47c-3.315,3.315 -7.138,5.869 -11.469,7.663c-4.332,1.795 -8.841,2.692 -13.53,2.692c-4.688,0 -9.198,-0.897 -13.529,-2.692c-4.331,-1.794 -8.154,-4.348 -11.469,-7.663c-3.315,-3.315 -5.87,-7.138 -7.664,-11.47c-1.794,-4.331 -2.691,-8.841 -2.691,-13.529c0,-4.688 0.897,-9.198 2.691,-13.529c1.794,-4.332 4.349,-8.155 7.664,-11.47c3.315,-3.315 7.138,-5.869 11.469,-7.664c4.331,-1.794 8.841,-2.691 13.529,-2.691c4.689,0 9.198,0.897 13.53,2.691c4.331,1.795 8.154,4.349 11.469,7.664c3.315,3.315 5.87,7.138 7.664,11.47c1.794,4.331 2.691,8.841 2.691,13.529" style="fill:#fff;fill-rule:nonzero;"/></g></g><g><g opacity="0.309998"><clipPath id="_clip6"><rect x="211.236" y="38.521" width="54.462" height="35.359" clip-rule="nonzero"/></clipPath><g clip-path="url(#_clip6)"><path d="M265.698,68.271c-10.88,6.99 -24.708,7.481 -36.057,1.282c-11.349,-6.2 -18.407,-18.101 -18.405,-31.032c17.199,0 43.043,10.641 54.462,29.75" style="fill:#d9edf6;fill-rule:nonzero;"/></g></g></g><path d="M245.564,25.952l-10.606,7.708c-0.604,0.447 -0.86,1.226 -0.637,1.944l4.048,12.463c0.252,0.75 0.975,1.243 1.769,1.202l13.008,0c0.755,-0.006 1.421,-0.489 1.662,-1.202l4.049,-12.463c0.223,-0.718 -0.033,-1.497 -0.637,-1.944l-10.606,-7.708c-0.306,-0.218 -0.665,-0.327 -1.025,-0.327c-0.359,0 -0.719,0.109 -1.025,0.327Z" style="fill:url(#_Linear7);fill-rule:nonzero;"/><path d="M251.981,9.85c-0.073,0.463 0.163,0.92 0.583,1.13l12.586,6.328c0.411,0.206 0.909,0.129 1.236,-0.193l4.368,-4.419c-2.473,-2.307 -5.258,-4.252 -8.273,-5.782c-3.017,-1.521 -6.239,-2.599 -9.563,-3.198l-0.937,6.134Z" style="fill:url(#_Linear8);fill-rule:nonzero;"/><path d="M215.495,21.711l5.516,2.881c0.412,0.213 0.917,0.126 1.237,-0.212l9.917,-10.005c0.341,-0.342 0.413,-0.87 0.177,-1.29l-2.812,-5.516c-5.943,3.264 -10.816,8.174 -14.035,14.142Z" style="fill:url(#_Linear9);fill-rule:nonzero;"/><path d="M217.988,44.195l-6.134,1.006c1.296,6.644 4.469,12.778 9.139,17.679l4.366,-4.402c0.33,-0.334 0.409,-0.841 0.195,-1.257l-6.453,-12.513c-0.2,-0.33 -0.556,-0.528 -0.936,-0.528c-0.058,0 -0.118,0.005 -0.177,0.015Z" style="fill:url(#_Linear10);fill-rule:nonzero;"/><path d="M257.937,64.311l-13.894,2.263c-0.46,0.073 -0.819,0.439 -0.883,0.902l-0.955,6.133c6.738,0.836 13.575,-0.287 19.691,-3.234l-2.845,-5.515c-0.177,-0.354 -0.534,-0.568 -0.918,-0.568c-0.065,0 -0.13,0.006 -0.196,0.019Z" style="fill:url(#_Linear11);fill-rule:nonzero;"/><path d="M275.49,34.792c-0.448,0.09 -0.795,0.449 -0.867,0.902l-2.139,13.928c-0.067,0.453 0.159,0.902 0.567,1.114l5.55,2.775c2.889,-6.14 3.939,-12.985 3.022,-19.708l-6.133,0.989Z" style="fill:url(#_Linear12);fill-rule:nonzero;"/><path d="M273.767,122.924c-3.512,0 -6.353,2.118 -6.353,4.742l0,182.055c0,2.622 2.841,4.743 6.353,4.743l310.633,0c3.511,0 6.353,-2.162 6.301,-4.783l0,-182.015c0,-2.624 -2.84,-4.742 -6.352,-4.742l-310.582,0Z" style="fill:url(#_Linear13);fill-rule:nonzero;"/><path d="M574.074,304.137l-310.635,0c-3.511,0 -6.351,-2.087 -6.351,-4.668l0,-179.163c0,-2.58 2.84,-4.668 6.351,-4.668l310.583,0c3.512,0 6.351,2.088 6.351,4.668l0,179.125c0.052,2.581 -2.788,4.706 -6.299,4.706" style="fill:#fff;fill-rule:nonzero;"/><path d="M412.761,115.126l163.002,0c3.548,0 6.418,2.84 6.418,6.351l0,10.843" style="fill:none;stroke:#1f46e7;stroke-width:3px;stroke-linecap:round;stroke-linejoin:round;"/><path d="M386.743,305.945l-123.304,0c-3.511,0 -6.351,-2.84 -6.351,-6.351l0,-14.458" style="fill:none;stroke:#1f46e7;stroke-width:3px;stroke-linecap:round;stroke-linejoin:round;"/><path d="M257.088,228.027l0,-106.498c0,-3.511 2.84,-6.351 6.351,-6.351l125.369,0" style="fill:none;stroke:#1f46e7;stroke-width:3px;stroke-linecap:round;stroke-linejoin:round;"/><rect x="283.421" y="153.725" width="233.751" height="5.163" style="fill:#eaeacd;"/><rect x="283.421" y="166.634" width="278.725" height="5.163" style="fill:#eaeacd;"/><rect x="283.421" y="179.542" width="197.142" height="5.163" style="fill:#eaeacd;"/><rect x="283.421" y="192.451" width="233.751" height="5.163" style="fill:#eaeacd;"/><rect x="283.421" y="205.36" width="254.302" height="5.163" style="fill:#eaeacd;"/><rect x="283.421" y="218.268" width="212.632" height="5.163" style="fill:#eaeacd;"/><rect x="283.421" y="231.177" width="278.725" height="5.163" style="fill:#eaeacd;"/><rect x="283.421" y="244.086" width="233.751" height="5.163" style="fill:#eaeacd;"/><path d="M100.975,269.943l34.067,-36.021c1.448,-1.53 3.861,-1.598 5.391,-0.152l4.055,-4.284l2.348,-2.483c-6.14,-6.926 -9.628,-15.696 -9.889,-25.061c-0.293,-10.551 3.539,-20.586 10.793,-28.255c7.54,-7.973 17.739,-12.366 28.718,-12.366c10.138,0 19.78,3.839 27.148,10.808c15.832,14.974 16.532,40.036 1.558,55.867c-7.541,7.975 -17.741,12.367 -28.718,12.367c-9,0 -17.605,-3.031 -24.579,-8.586l-6.396,6.76l0.254,0.237c1.53,1.449 1.596,3.862 0.151,5.392l-34.068,36.023c-1.449,1.53 -3.862,1.598 -5.393,0.15l-5.29,-5.003c-1.532,-1.446 -1.6,-3.861 -0.15,-5.393" style="fill:#fff;fill-rule:nonzero;"/><path d="M553.387,267.99c-6.679,2.774 -12.576,6.705 -17.69,11.825c-5.112,5.11 -9.051,11.009 -11.819,17.69c-2.766,6.679 -4.149,13.628 -4.149,20.865c0,7.227 1.383,14.181 4.149,20.865c2.768,6.679 6.707,12.576 11.819,17.688c5.114,5.108 11.011,9.052 17.69,11.816c6.68,2.771 13.634,4.155 20.865,4.155c7.23,0 14.186,-1.384 20.865,-4.155c6.68,-2.764 12.576,-6.708 17.688,-11.816c5.114,-5.112 9.054,-11.009 11.819,-17.688c2.768,-6.684 4.152,-13.638 4.152,-20.865c0,-7.237 -1.384,-14.186 -4.152,-20.865c-2.765,-6.681 -6.705,-12.58 -11.819,-17.69c-5.112,-5.12 -11.008,-9.051 -17.688,-11.825c-6.679,-2.76 -13.635,-4.146 -20.865,-4.146c-7.231,0 -14.185,1.386 -20.865,4.146Z" style="fill:url(#_Linear14);fill-rule:nonzero;"/><path d="M551.194,335.841l24.839,10.314c2.839,1.179 4.185,4.436 3.006,7.276l-0.728,1.753l-35.062,-14.559l0.728,-1.753c1.179,-2.84 4.437,-4.186 7.276,-3.006l-0.059,-0.025Z" style="fill:#fff;fill-rule:nonzero;"/><path d="M578.331,355.171l-35.121,-14.583l1.276,-3.073l35.121,14.583l-1.276,3.073Z" style="fill:#d9edf6;"/><path d="M553.678,333.262l22.416,9.308c1.088,0.452 1.604,1.7 1.152,2.788l-0.434,1.044l-26.414,-10.969l0.433,-1.044c0.221,-0.533 0.649,-0.953 1.185,-1.166c0.536,-0.212 1.136,-0.198 1.662,0.039" style="fill:#d9edf6;fill-rule:nonzero;"/><path d="M576.168,342.542l-22.502,-9.342c6.286,-6.132 11.64,-13.153 15.89,-20.837l10.152,4.265c-2.845,8.328 -4.048,17.128 -3.54,25.914" style="fill:#fff;fill-rule:nonzero;"/><path d="M568.325,311.039l0.242,-0.583c0.206,-0.495 0.556,-0.64 1.051,-0.434l11.712,4.863c0.495,0.206 0.64,0.556 0.435,1.051l-0.242,0.583c-0.206,0.495 -0.556,0.64 -1.052,0.435l-11.712,-4.864c-0.495,-0.205 -0.64,-0.556 -0.434,-1.051" style="fill:#d9edf6;fill-rule:nonzero;"/><path d="M572.082,301.994l0.242,-0.583c0.206,-0.495 0.556,-0.64 1.051,-0.434l11.712,4.863c0.495,0.206 0.64,0.556 0.435,1.051l-0.242,0.583c-0.206,0.495 -0.556,0.64 -1.052,0.435l-11.712,-4.864c-0.495,-0.205 -0.64,-0.556 -0.434,-1.051" style="fill:#fff;fill-rule:nonzero;"/><path d="M580.916,312.266l-9.16,-3.803l2.037,-4.906l9.159,3.804l-2.036,4.905Z" style="fill:#d9edf6;"/><path d="M588.965,286.833c0,1.905 -0.953,2.858 -2.858,2.858c-1.905,0 -2.858,-0.953 -2.858,-2.858c0,-1.905 0.953,-2.858 2.858,-2.858c1.905,0 2.858,0.953 2.858,2.858" style="fill:#d9edf6;fill-rule:nonzero;"/><path d="M589.583,294.34c0,1.82 -0.643,3.373 -1.93,4.66c-1.287,1.287 -2.84,1.931 -4.66,1.931c-1.82,0 -3.374,-0.644 -4.661,-1.931c-1.286,-1.287 -1.93,-2.84 -1.93,-4.66c0,-1.82 0.644,-3.373 1.93,-4.66c1.287,-1.287 2.841,-1.93 4.661,-1.93c1.82,0 3.373,0.643 4.66,1.93c1.287,1.287 1.93,2.84 1.93,4.66" style="fill:#d9edf6;fill-rule:nonzero;"/><path d="M583.782,305.26l-9.171,-3.797l0.512,-13.394c1.361,0.412 2.37,1.562 2.602,2.965c5.054,-1.45 8.915,0.299 11.73,4.82c0.811,-0.96 2.027,-0.96 3.456,-0.405l-9.129,9.811Z" style="fill:#d9edf6;fill-rule:nonzero;"/><path d="M569.181,308.965l0.242,-0.583c0.206,-0.495 0.556,-0.64 1.051,-0.434l11.712,4.863c0.495,0.206 0.64,0.556 0.435,1.051l-0.242,0.583c-0.206,0.495 -0.556,0.64 -1.052,0.435l-11.712,-4.864c-0.495,-0.205 -0.64,-0.556 -0.434,-1.051" style="fill:#fff;fill-rule:nonzero;"/><path d="M217.894,265.62l0.173,130.06c0,0.863 0.69,1.554 1.553,1.554l91.051,-0.087c0.863,0 1.553,-0.69 1.553,-1.553l-0.086,-106.499l-25.201,-25.115l-67.403,0.087c-0.949,0 -1.64,0.69 -1.64,1.553" style="fill:#f2751c;fill-rule:nonzero;"/><path d="M213.338,259.311l0.173,130.06c0,0.863 0.69,1.554 1.553,1.554l91.051,-0.087c0.863,0 1.553,-0.69 1.553,-1.553l-0.086,-106.499l-25.201,-25.115l-67.403,0.086c-0.949,0 -1.64,0.691 -1.64,1.554" style="fill:#fff;fill-rule:nonzero;"/><path d="M247.514,257.671l-32.537,0c-0.863,0 -1.553,0.69 -1.553,1.554l0.086,94.502" style="fill:none;stroke:#f2751c;stroke-width:1.87px;stroke-linecap:round;stroke-linejoin:round;"/><path d="M307.582,282.786l-25.201,-25.115l0,23.648c0,0.863 0.691,1.553 1.554,1.553l23.647,-0.086Z" style="fill:#f2751c;fill-rule:nonzero;"/><path d="M234.137,324.299c0,4.056 2.762,6.99 6.732,6.99c4.056,0 6.818,-2.934 6.818,-6.99c0,-4.23 -2.676,-7.077 -6.733,-7.077c-4.055,0 -6.817,3.019 -6.817,7.077Z" style="fill:url(#_Linear15);fill-rule:nonzero;"/><path d="M253.813,324.299c0,4.056 2.85,6.99 6.731,6.99c4.058,0 6.82,-2.934 6.82,-6.99c0,-4.23 -2.675,-7.077 -6.732,-7.077c-4.057,0 -6.819,3.019 -6.819,7.077Z" style="fill:url(#_Linear16);fill-rule:nonzero;"/><path d="M273.491,324.299c0,4.056 2.848,6.99 6.732,6.99c4.056,0 6.818,-2.934 6.818,-6.99c0,-4.23 -2.676,-7.077 -6.733,-7.077c-4.055,0 -6.817,3.019 -6.817,7.077Z" style="fill:url(#_Linear17);fill-rule:nonzero;"/><path d="M247.989,324.298c0,3.909 -3.168,7.077 -7.077,7.077c-3.909,0 -7.077,-3.168 -7.077,-7.077c0,-3.909 3.168,-7.077 7.077,-7.077c3.909,0 7.077,3.168 7.077,7.077" style="fill:#f2751c;fill-rule:nonzero;"/><path d="M267.58,324.298c0,3.909 -3.168,7.077 -7.077,7.077c-3.909,0 -7.077,-3.168 -7.077,-7.077c0,-3.909 3.168,-7.077 7.077,-7.077c3.909,0 7.077,3.168 7.077,7.077" style="fill:#f9a10c;fill-rule:nonzero;"/><path d="M287.343,324.298c0,3.909 -3.168,7.077 -7.077,7.077c-3.909,0 -7.077,-3.168 -7.077,-7.077c0,-3.909 3.168,-7.077 7.077,-7.077c3.909,0 7.077,3.168 7.077,7.077" style="fill:#ffc400;fill-rule:nonzero;"/><path d="M210.679,197.508c0,21.912 -17.763,39.676 -39.676,39.676c-21.912,0 -39.675,-17.764 -39.675,-39.676c0,-21.912 17.763,-39.676 39.675,-39.676c21.913,0 39.676,17.764 39.676,39.676" style="fill:#4ccd9b;fill-rule:nonzero;"/><path d="M171.003,157.832c21.912,0 39.676,17.763 39.676,39.676c0,21.912 -17.764,39.675 -39.676,39.675c-21.912,0 -39.676,-17.763 -39.676,-39.675" style="fill:none;stroke:#239b6a;stroke-width:3px;stroke-linecap:round;stroke-linejoin:round;"/><path d="M203.408,197.508c0,17.897 -14.508,32.405 -32.405,32.405c-17.897,0 -32.405,-14.508 -32.405,-32.405c0,-17.897 14.508,-32.405 32.405,-32.405c17.897,0 32.405,14.508 32.405,32.405" style="fill:#fff;fill-rule:nonzero;"/><path d="M99.627,277.186l-6.167,-6.167c-1.207,-1.207 -1.207,-3.163 0,-4.37l36.765,-36.765c1.207,-1.207 3.163,-1.207 4.37,0l6.167,6.167c1.207,1.207 1.207,3.163 0,4.37l-36.765,36.765c-1.207,1.207 -3.163,1.207 -4.37,0" style="fill:#239b6a;fill-rule:nonzero;"/></g><defs><linearGradient id="_Linear5" x1="0" y1="0" x2="1" y2="0" gradientUnits="userSpaceOnUse" gradientTransform="matrix(23.4164,0,0,23.4164,-50.4482,148.739)"><stop offset="0" style="stop-color:#239b6a;stop-opacity:1"/><stop offset="1" style="stop-color:#4ccd9b;stop-opacity:1"/></linearGradient><linearGradient id="_Linear7" x1="0" y1="0" x2="1" y2="0" gradientUnits="userSpaceOnUse" gradientTransform="matrix(24.6946,0,0,24.6946,234.251,37.4415)"><stop offset="0" style="stop-color:#4263eb;stop-opacity:1"/><stop offset="1" style="stop-color:#1f46e7;stop-opacity:1"/></linearGradient><linearGradient id="_Linear8" x1="0" y1="0" x2="1" y2="0" gradientUnits="userSpaceOnUse" gradientTransform="matrix(25.2956,0,0,25.2956,157.57,-189.281)"><stop offset="0" style="stop-color:#4263eb;stop-opacity:1"/><stop offset="1" style="stop-color:#1f46e7;stop-opacity:1"/></linearGradient><linearGradient id="_Linear9" x1="0" y1="0" x2="1" y2="0" gradientUnits="userSpaceOnUse" gradientTransform="matrix(25.2956,0,0,25.2956,149.03,350.198)"><stop offset="0" style="stop-color:#4263eb;stop-opacity:1"/><stop offset="1" style="stop-color:#1f46e7;stop-opacity:1"/></linearGradient><linearGradient id="_Linear10" x1="0" y1="0" x2="1" y2="0" gradientUnits="userSpaceOnUse" gradientTransform="matrix(25.2957,0,0,25.2957,-366.69,508.794)"><stop offset="0" style="stop-color:#4263eb;stop-opacity:1"/><stop offset="1" style="stop-color:#1f46e7;stop-opacity:1"/></linearGradient><linearGradient id="_Linear11" x1="0" y1="0" x2="1" y2="0" gradientUnits="userSpaceOnUse" gradientTransform="matrix(25.3137,0,0,25.3137,-676.884,67.3154)"><stop offset="0" style="stop-color:#4263eb;stop-opacity:1"/><stop offset="1" style="stop-color:#1f46e7;stop-opacity:1"/></linearGradient><linearGradient id="_Linear12" x1="0" y1="0" x2="1" y2="0" gradientUnits="userSpaceOnUse" gradientTransform="matrix(25.2957,0,0,25.2957,-352.869,-364.103)"><stop offset="0" style="stop-color:#4263eb;stop-opacity:1"/><stop offset="1" style="stop-color:#1f46e7;stop-opacity:1"/></linearGradient><linearGradient id="_Linear13" x1="0" y1="0" x2="1" y2="0" gradientUnits="userSpaceOnUse" gradientTransform="matrix(323.319,0,0,241.464,267.425,218.673)"><stop offset="0" style="stop-color:#4263eb;stop-opacity:1"/><stop offset="1" style="stop-color:#1f46e7;stop-opacity:1"/></linearGradient><linearGradient id="_Linear14" x1="0" y1="0" x2="1" y2="0" gradientUnits="userSpaceOnUse" gradientTransform="matrix(109.074,0,0,109.074,519.702,318.366)"><stop offset="0" style="stop-color:#4263eb;stop-opacity:1"/><stop offset="1" style="stop-color:#1f46e7;stop-opacity:1"/></linearGradient><linearGradient id="_Linear15" x1="0" y1="0" x2="1" y2="0" gradientUnits="userSpaceOnUse" gradientTransform="matrix(13.557,0,0,13.557,234.127,324.261)"><stop offset="0" style="stop-color:#4263eb;stop-opacity:1"/><stop offset="1" style="stop-color:#1f46e7;stop-opacity:1"/></linearGradient><linearGradient id="_Linear16" x1="0" y1="0" x2="1" y2="0" gradientUnits="userSpaceOnUse" gradientTransform="matrix(13.557,0,0,13.557,253.816,324.261)"><stop offset="0" style="stop-color:#4263eb;stop-opacity:1"/><stop offset="1" style="stop-color:#1f46e7;stop-opacity:1"/></linearGradient><linearGradient id="_Linear17" x1="0" y1="0" x2="1" y2="0" gradientUnits="userSpaceOnUse" gradientTransform="matrix(13.5556,0,0,13.5556,273.508,324.261)"><stop offset="0" style="stop-color:#4263eb;stop-opacity:1"/><stop offset="1" style="stop-color:#1f46e7;stop-opacity:1"/></linearGradient></defs></svg>