<?xml version="1.0" encoding="UTF-8" standalone="no"?><!DOCTYPE svg PUBLIC "-//W3C//DTD SVG 1.1//EN" "http://www.w3.org/Graphics/SVG/1.1/DTD/svg11.dtd"><svg width="100%" height="100%" viewBox="0 0 711 442" version="1.1" xmlns="http://www.w3.org/2000/svg" xmlns:xlink="http://www.w3.org/1999/xlink" xml:space="preserve" xmlns:serif="http://www.serif.com/" style="fill-rule:evenodd;clip-rule:evenodd;stroke-linecap:round;stroke-miterlimit:10;"><g id="Слой-10" serif:id="Слой 10"><path d="M201.965,185.435c-50.052,28.919 -80.739,11.701 -115.675,36.704c-54.553,40.864 -52.514,130.278 -81.481,166.387l52.498,0l637.002,0.453c-73.826,-34.62 -35.331,-152.693 -98.731,-197.949c-25.87,-19.751 -40.31,-11.83 -55.74,-3.907c-14.919,7.661 -30.764,15.322 -58.762,-2.043c-59.557,-40.034 -42.485,-133.553 -145.926,-133.553c-98.991,0 -84.246,104.433 -133.185,133.908Z" style="fill:url(#_Linear1);fill-rule:nonzero;"/><path d="M30.793,102.855c5.476,-2.163 10.815,2.794 16.907,1.816c13.143,-4.018 17.934,-20.776 29.571,-20.776c6.125,0.078 8.898,4.54 15.195,5.53c10.2,0.971 26.901,-33.487 56.267,-27.898c30.604,7.62 33.266,40.028 57.32,51.869l-186.28,0c3.048,-5.526 6.302,-9.023 11.02,-10.541" style="fill:#e7edf8;fill-rule:nonzero;"/><path d="M428.334,74.217l257.18,-0.56c-2.075,-5.655 -4.285,-11.055 -8.98,-13.776c-4.93,-2.872 -8.726,2.183 -14.216,-2.334c-3.728,-3.495 -4.813,-10.432 -8.473,-13.014c-5.379,-3.689 -10.167,1.613 -15.759,-1.936c-4.376,-5.026 -4.514,-11.675 -5.694,-17.907c-1.699,-8.971 -4.293,-17.511 -14.133,-22.746c-29.281,-12.906 -66.782,56.844 -87.523,58.524c-12.337,0 -18.333,-24.969 -33.927,-24.969c-18.166,-0.215 -47.801,25.234 -68.475,38.718" style="fill:#e7edf8;fill-rule:nonzero;"/><path d="M573.318,162.567l0.124,93.259c0,0.619 0.495,1.114 1.114,1.114l65.287,-0.062c0.619,0 1.114,-0.495 1.114,-1.114l-0.062,-76.365l-18.07,-18.008l-48.331,0.062c-0.681,0 -1.176,0.495 -1.176,1.114" style="fill:#96b7e1;fill-rule:nonzero;"/><path d="M570.05,158.043l0.124,93.259c0,0.619 0.495,1.114 1.114,1.114l65.287,-0.062c0.619,0 1.114,-0.495 1.114,-1.114l-0.062,-76.365l-18.07,-18.008l-48.331,0.062c-0.681,0 -1.176,0.495 -1.176,1.114" style="fill:#fff;fill-rule:nonzero;"/><path d="M570.174,226.678c-0.516,0 -0.934,-0.417 -0.934,-0.933l-0.061,-67.762c0,-1.131 0.918,-2.049 2.047,-2.049l23.33,0c0.515,0 0.933,0.418 0.933,0.933c0,0.516 -0.418,0.934 -0.933,0.934l-23.33,0c-0.103,0 -0.18,0.078 -0.18,0.181l0.062,67.761c0.001,0.516 -0.417,0.935 -0.933,0.935l-0.001,0Z" style="fill:#96b7e1;fill-rule:nonzero;"/><path d="M637.627,174.876l-18.07,-18.008l0,16.956c0,0.619 0.495,1.114 1.114,1.114l16.956,-0.062Z" style="fill:#96b7e1;fill-rule:nonzero;"/><path d="M82.849,181.461l0.124,93.259c0,0.619 0.495,1.114 1.114,1.114l65.287,-0.062c0.619,0 1.114,-0.495 1.114,-1.114l-0.062,-76.365l-18.07,-18.008l-48.331,0.062c-0.681,0 -1.176,0.495 -1.176,1.114" style="fill:#96b7e1;fill-rule:nonzero;"/><path d="M79.581,176.938l0.124,93.259c0,0.619 0.495,1.114 1.114,1.114l65.287,-0.062c0.619,0 1.114,-0.495 1.114,-1.114l-0.062,-76.365l-18.07,-18.008l-48.331,0.062c-0.681,0 -1.176,0.495 -1.176,1.114" style="fill:#fff;fill-rule:nonzero;"/><path d="M79.705,245.572c-0.516,0 -0.934,-0.417 -0.934,-0.933l-0.061,-67.762c0,-1.131 0.918,-2.049 2.047,-2.049l23.33,0c0.515,0 0.933,0.418 0.933,0.933c0,0.516 -0.418,0.934 -0.933,0.934l-23.33,0c-0.103,0 -0.18,0.078 -0.18,0.181l0.062,67.761c0.001,0.516 -0.417,0.935 -0.933,0.935l-0.001,0Z" style="fill:#96b7e1;fill-rule:nonzero;"/><path d="M147.158,193.77l-18.07,-18.008l0,16.956c0,0.619 0.495,1.114 1.114,1.114l16.956,-0.062Z" style="fill:#96b7e1;fill-rule:nonzero;"/><path d="M46.96,250.801l0.124,93.259c0,0.619 0.495,1.114 1.114,1.114l65.287,-0.062c0.619,0 1.114,-0.495 1.114,-1.114l-0.062,-76.365l-18.07,-18.008l-48.331,0.062c-0.681,0 -1.176,0.495 -1.176,1.114" style="fill:#96b7e1;fill-rule:nonzero;"/><path d="M43.693,246.277l0.124,93.259c0,0.619 0.495,1.114 1.114,1.114l65.287,-0.062c0.619,0 1.114,-0.495 1.114,-1.114l-0.062,-76.365l-18.07,-18.008l-48.331,0.062c-0.681,0 -1.176,0.495 -1.176,1.114" style="fill:#fff;fill-rule:nonzero;"/><path d="M43.816,314.911c-0.516,0 -0.934,-0.417 -0.934,-0.933l-0.061,-67.762c0,-1.131 0.918,-2.049 2.047,-2.049l23.33,0c0.515,0 0.933,0.418 0.933,0.933c0,0.516 -0.418,0.934 -0.933,0.934l-23.33,0c-0.103,0 -0.18,0.078 -0.18,0.181l0.062,67.761c0.001,0.516 -0.417,0.935 -0.933,0.935l-0.001,0Z" style="fill:#96b7e1;fill-rule:nonzero;"/><path d="M111.27,263.109l-18.07,-18.008l0,16.956c0,0.619 0.495,1.114 1.114,1.114l16.956,-0.062Z" style="fill:#96b7e1;fill-rule:nonzero;"/><path d="M72.04,97.012l28.245,0c7.225,0 13.437,-5.118 14.82,-12.209l13.484,-69.15c2.14,-10.972 17.911,-10.756 19.749,0.27l11.359,68.154c1.501,9.008 14.457,8.987 15.929,-0.026l6.493,-39.746c1.49,-9.118 14.602,-9.122 16.098,-0.005l27.223,104.705c2.788,16.998 17.477,29.474 34.701,29.474l26.995,0" style="fill:none;stroke:#f2751c;stroke-width:1.5px;stroke-dasharray:1,5;"/><path d="M7.638,175.312l40.737,0c12.246,0 22.173,9.927 22.173,22.173c0,17.341 14.058,31.399 31.399,31.399l28.463,0c11.713,0 22.12,-7.477 25.858,-18.578l10.395,-30.87c4.663,-13.848 24.052,-14.382 29.469,-0.811l9.189,23.016c4.343,10.88 14.877,18.017 26.592,18.017l61.994,0c13.722,0 26.399,-7.329 33.247,-19.22l17.307,-30.052c4.634,-8.048 16.089,-8.479 21.315,-0.803l4.442,6.524c5.671,8.33 18.251,7.335 22.542,-1.784l9.139,-19.422c4.121,-8.756 16.37,-9.306 21.259,-0.955l4.09,6.989c3.594,6.14 10.175,9.913 17.29,9.913c6.931,0 13.012,-4.622 14.868,-11.3l28.915,-103.819c3.006,-10.817 18.368,-10.745 21.273,0.1l16.343,61.023c1.981,7.394 12.517,7.267 14.319,-0.172l7.872,-32.495c2.292,-9.465 10.765,-16.13 20.504,-16.13l31.822,0c9.256,0 17.431,6.033 20.16,14.878l12.171,39.453c2.775,8.995 11.089,15.131 20.503,15.131" style="fill:none;stroke:#239b6a;stroke-width:1.52px;"/><path d="M225.1,62.167l74.811,0c7.518,0 14.729,2.987 20.045,8.303l9.47,9.47c5.316,5.316 12.527,8.303 20.045,8.303l122.997,0c7.518,0 14.729,2.986 20.045,8.303c5.317,5.316 12.527,8.303 20.046,8.303l133.38,0" style="fill:none;stroke:#4263eb;stroke-width:1.5px;stroke-dasharray:5,5;"/><path d="M112.912,228.884c0,3.969 3.217,7.186 7.186,7.186c3.968,0 7.185,-3.217 7.185,-7.186c0,-3.969 -3.217,-7.186 -7.185,-7.186c-3.969,0 -7.186,3.217 -7.186,7.186" style="fill:#239b6a;fill-rule:nonzero;"/><path d="M116.392,228.884c0,-2.047 1.659,-3.706 3.706,-3.706c2.047,0 3.707,1.659 3.707,3.706c0,2.047 -1.66,3.706 -3.707,3.706c-2.047,0 -3.706,-1.659 -3.706,-3.706" style="fill:#fff;fill-rule:nonzero;"/><path d="M576.702,67.032c0,3.969 3.217,7.186 7.186,7.186c3.968,0 7.185,-3.217 7.185,-7.186c0,-3.969 -3.217,-7.186 -7.185,-7.186c-3.969,0 -7.186,3.217 -7.186,7.186" style="fill:#239b6a;fill-rule:nonzero;"/><path d="M580.181,67.032c0,-2.047 1.659,-3.706 3.706,-3.706c2.047,0 3.707,1.659 3.707,3.706c0,2.047 -1.66,3.706 -3.707,3.706c-2.047,0 -3.706,-1.659 -3.706,-3.706" style="fill:#fff;fill-rule:nonzero;"/><path d="M130.79,7.538c0,3.969 3.217,7.186 7.186,7.186c3.968,0 7.185,-3.217 7.185,-7.186c0,-3.969 -3.217,-7.186 -7.185,-7.186c-3.969,0 -7.186,3.217 -7.186,7.186" style="fill:#f2751c;fill-rule:nonzero;"/><path d="M134.269,7.538c0,-2.047 1.659,-3.706 3.706,-3.706c2.047,0 3.707,1.659 3.707,3.706c0,2.047 -1.66,3.706 -3.707,3.706c-2.047,0 -3.706,-1.659 -3.706,-3.706" style="fill:#fff;fill-rule:nonzero;"/><path d="M276.835,62.167c0,3.969 3.217,7.186 7.186,7.186c3.968,0 7.185,-3.217 7.185,-7.186c0,-3.969 -3.217,-7.186 -7.185,-7.186c-3.969,0 -7.186,3.217 -7.186,7.186" style="fill:#4263eb;fill-rule:nonzero;"/><path d="M280.315,62.167c0,-2.047 1.659,-3.706 3.706,-3.706c2.047,0 3.707,1.659 3.707,3.706c0,2.047 -1.66,3.706 -3.707,3.706c-2.047,0 -3.706,-1.659 -3.706,-3.706" style="fill:#fff;fill-rule:nonzero;"/><path d="M421.149,87.155c0,3.969 3.217,7.186 7.186,7.186c3.968,0 7.185,-3.217 7.185,-7.186c0,-3.969 -3.217,-7.186 -7.185,-7.186c-3.969,0 -7.186,3.217 -7.186,7.186" style="fill:#4263eb;fill-rule:nonzero;"/><path d="M424.628,87.155c0,-2.047 1.659,-3.706 3.706,-3.706c2.047,0 3.707,1.659 3.707,3.706c0,2.047 -1.66,3.706 -3.707,3.706c-2.047,0 -3.706,-1.659 -3.706,-3.706" style="fill:#fff;fill-rule:nonzero;"/><path d="M356.638,389.889c13.039,15.819 136.999,-1.528 136.999,-1.528c0,0 -34.75,-9.625 -78.25,-29.125c-43.499,-19.5 -63.125,-124.875 -63.125,-124.875c0,0 -44.874,95.778 4.376,155.528Z" style="fill:url(#_Linear2);fill-rule:nonzero;"/><path d="M344.18,220.495c-31.096,-23.6 -73.068,-26.87 -111.839,-2.547c-31.989,32.751 16.488,126.927 7.229,174.911l130.066,2.5c-18,-50.5 -12.248,-108.015 -17.289,-160.157c-0.563,-5.824 -3.509,-11.171 -8.167,-14.707" style="fill:#4ccd9b;fill-rule:nonzero;"/><path d="M317.501,133.098c6.42,19.816 8.363,33.539 5.457,49.44c-0.806,4.416 -4.206,7.906 -8.588,8.882l-0.113,0.025c-2.343,0.522 -4.194,2.315 -4.791,4.639l2.83,11.394c0.221,0.891 0.253,1.823 0.096,2.728c-3.469,19.868 -30.509,15.568 -39.854,3.374c-1.398,-1.824 -2.03,-4.121 -1.91,-6.414l5.197,-21.366l-1.344,-52.258l43.02,-0.444Z" style="fill:#fff;fill-rule:nonzero;"/><path d="M311.394,125.076l-30.158,-4.238c-14.825,1.232 -23.253,12.91 -21.846,27.637c1.418,14.841 5.955,28.715 13.921,41.525c0.882,1.419 2.973,1.361 3.78,-0.101l0.983,-17.977c-2.645,-0.938 -5.456,1.699 -6.656,-1.858c-1.778,-5.272 -0.122,-10.592 3.701,-11.881c2.153,-0.726 4.469,0.065 6.519,1.689c0.81,0.641 1.43,0.801 1.104,-0.621l-0.556,-3.626c-1.341,-8.743 5.35,-16.656 14.194,-16.785l22.079,-2.828c10.474,-6.872 8.435,-12.4 -7.065,-10.936" style="fill:#f2751c;fill-rule:nonzero;"/><path d="M275.347,144.188c8.672,3.049 7.591,-2.964 13.166,-4.156c12.234,-1.541 17.51,2.871 32.154,1.742c7.794,-1.101 11.742,-8.485 8.578,-15.602c-2.938,-6.036 -9.855,-5.715 -13.41,-2.435c-6.13,-5.981 -14.262,-9.202 -22.451,-8.168c-12.69,1.604 -25.325,11.639 -29.396,23.607l11.359,5.012Z" style="fill:#f2751c;fill-rule:nonzero;"/><path d="M229.949,220.172c-6.688,8.01 -69.264,126.86 -45.063,165.187c11.672,18.485 144.584,12.5 144.584,12.5l0,-33.666c0,0 -88.437,-18.045 -91.667,-17.333c0,0 34.666,-96.334 22.666,-112.001c-8.565,-11.183 -16.74,-18.334 -23.368,-18.335c-2.658,-0.001 -5.066,1.149 -7.152,3.648Z" style="fill:url(#_Linear3);fill-rule:nonzero;"/><path d="M314.824,191.359c0,0 -10.854,4.167 -27.687,-10.667c0,0 15.337,49.769 23.625,35.042c6.729,-11.958 -2.063,-10.687 -0.313,-21.687c0.202,-1.268 4.375,-2.688 4.375,-2.688" style="fill:#eaeacd;fill-rule:nonzero;"/><path d="M286.761,166.109c0,4.763 -3.862,8.625 -8.625,8.625c-4.763,0 -8.625,-3.862 -8.625,-8.625c0,-4.763 3.862,-8.625 8.625,-8.625c4.763,0 8.625,3.862 8.625,8.625" style="fill:#fff;fill-rule:nonzero;"/><path d="M531.184,388.483l-80.919,0l-12.724,-43.279l80.919,0l12.724,43.279Z" style="fill:#1f46e7;fill-rule:nonzero;"/><path d="M563.23,351.807l-180.49,0c-6.024,0 -10.41,-4.916 -9.735,-10.94l11.892,-110.007c0.674,-6.025 6.072,-10.941 12.097,-10.941l180.49,0c6.024,0 10.41,4.916 9.735,10.941l-11.892,110.007c-0.627,6.024 -6.073,10.94 -12.097,10.94" style="fill:#1f46e7;fill-rule:nonzero;"/><path d="M382.782,351.89c-6.023,-0.137 -10.41,-4.916 -9.735,-10.94l11.892,-110.007c0.674,-6.025 6.072,-10.941 12.097,-10.941l180.49,0c11.11,0.107 9.735,10.941 9.735,10.941c-91.625,-1.584 -95.625,123.416 -204.479,120.947" style="fill:#4263eb;fill-rule:nonzero;"/><path d="M427.851,388.483l117.692,0c1.06,0 1.88,-0.819 1.88,-1.88l0,-4.578c0,-1.06 -0.82,-1.88 -1.88,-1.88l-117.692,0c-1.06,0 -1.88,0.82 -1.88,1.88l0,4.578c0,1.061 0.868,1.88 1.88,1.88" style="fill:#1f46e7;fill-rule:nonzero;"/><path d="M495.093,289.859c-4.486,0 -8.123,-3.544 -8.123,-7.917c0,-2.116 0.857,-4.033 2.245,-5.454c-1.434,-0.562 -2.997,-0.879 -4.637,-0.879c-6.871,0 -12.442,5.429 -12.442,12.125c0,6.696 5.571,12.125 12.442,12.125c6.193,0 11.315,-4.416 12.268,-10.19c-0.565,0.121 -1.15,0.19 -1.753,0.19" style="fill:#d9edf6;fill-rule:nonzero;"/><path d="M622.732,383.026c-12.495,0 -22.625,-10.13 -22.625,-22.625l0,-11.875l45.25,0l0,11.875c0,12.495 -10.13,22.625 -22.625,22.625" style="fill:#f2751c;fill-rule:nonzero;"/><path d="M588.554,362.37c0,6.83 5.545,12.375 12.375,12.375c6.83,0 12.375,-5.545 12.375,-12.375c0,-6.83 -5.545,-12.375 -12.375,-12.375c-6.83,0 -12.375,5.545 -12.375,12.375Z" style="fill:none;stroke:#f2751c;stroke-width:3px;stroke-linecap:butt;"/><path d="M600.107,360.401l0,-11.875l45.25,0c0,0 -45.25,24.37 -45.25,11.875" style="fill:#fecc4d;fill-rule:nonzero;"/><path d="M601.106,388.526l43.5,0c0.828,0 1.5,-0.671 1.5,-1.5c0,-0.829 -0.672,-1.5 -1.5,-1.5l-43.5,0c-0.828,0 -1.5,0.671 -1.5,1.5c0,0.829 0.672,1.5 1.5,1.5" style="fill:#f2751c;fill-rule:nonzero;"/><path d="M328.387,388.528c-0.072,-0.048 -16,0 -16,0c0.654,-5.117 13.824,-23.391 19.577,-24.953c1.04,-0.283 2.081,-0.542 3.123,-0.782c6.318,-1.447 12.725,-0.769 18.436,1.7l27.226,15.078c1.722,0.954 1.734,3.619 0.023,4.918l-2.474,1.875c-2.762,2.093 -6.144,2.825 -9.221,1.994c-3.188,-0.859 -7.176,-1.98 -9.501,-2.795c-3.184,-1.116 -6.872,-1.416 -10.038,0.224c0,0 -4.651,2.741 -21.151,2.741" style="fill:#fff;fill-rule:nonzero;"/><rect x="23.136" y="388.526" width="687.501" height="16" style="fill:#fff;"/><path d="M130.877,376.567c2.102,3.376 2.085,7.853 -0.348,11.308c-3.245,4.606 -9.611,5.707 -14.218,2.462c-4.606,-3.245 -5.707,-9.611 -2.462,-14.217c3.245,-4.607 9.611,-5.708 14.217,-2.463c1.152,0.811 2.11,1.785 2.811,2.91m7.161,-5.123c-0.127,-0.273 -0.486,-0.374 -0.759,-0.248l-3.18,1.464c-0.888,-1.13 -1.941,-2.143 -3.176,-3.013c-1.235,-0.87 -2.571,-1.512 -3.934,-1.967l0.312,-3.511c0.027,-0.299 -0.179,-0.588 -0.478,-0.615l-5.82,-0.503c-0.299,-0.027 -0.588,0.18 -0.615,0.479l-0.312,3.511c-2.881,0.411 -5.615,1.662 -7.865,3.66l-2.908,-2.018c-0.246,-0.173 -0.582,-0.143 -0.755,0.103l-3.387,4.785c-0.173,0.245 -0.075,0.594 0.17,0.767l2.869,2.046c-1.124,2.791 -1.338,5.791 -0.755,8.641l-3.221,1.492c-0.273,0.126 -0.402,0.446 -0.276,0.718l2.46,5.328c0.126,0.273 0.418,0.362 0.69,0.236l3.221,-1.493c0.887,1.13 1.969,2.185 3.204,3.054c1.234,0.87 2.571,1.512 3.933,1.967l-0.352,3.538c-0.027,0.299 0.192,0.521 0.491,0.548l5.847,0.543c0.299,0.027 0.561,-0.22 0.588,-0.519l0.312,-3.511c2.88,-0.411 5.643,-1.623 7.892,-3.62l2.869,2.045c0.245,0.173 0.594,0.076 0.767,-0.17l3.387,-4.785c0.173,-0.245 0.102,-0.554 -0.143,-0.727l-2.869,-2.046c1.124,-2.791 1.338,-5.791 0.756,-8.641l3.221,-1.492c0.272,-0.126 0.401,-0.446 0.275,-0.718l-2.459,-5.328Zm27.756,16.854c0.303,1.921 1.13,3.77 2.432,5.288l-8.275,11.772c-5.46,-4.757 -8.435,-11.5 -8.537,-18.373l14.38,1.313Zm12.452,8.753l6.065,13.112c-6.507,2.217 -13.842,1.697 -20.159,-1.843l8.315,-11.8c1.867,0.715 3.867,0.892 5.779,0.531m-14.687,-31.782l6.065,13.113c-0.751,0.604 -1.433,1.315 -2.013,2.14c-0.581,0.824 -1.019,1.707 -1.334,2.618l-14.38,-1.313c0.652,-3.325 1.987,-6.538 4.064,-9.487c2.077,-2.949 4.687,-5.337 7.598,-7.071m17.374,18.465c1.139,1.815 1.161,4.179 -0.163,6.059c-1.766,2.506 -5.168,3.117 -7.674,1.352c-2.507,-1.766 -3.05,-5.155 -1.285,-7.661c1.766,-2.507 5.128,-3.09 7.634,-1.325c0.627,0.441 1.108,0.971 1.488,1.575m19.751,7.716c-0.652,3.323 -2.028,6.567 -4.104,9.514c-2.076,2.947 -4.649,5.31 -7.558,7.043l-6.065,-13.112c0.75,-0.604 1.433,-1.317 2.013,-2.14c0.58,-0.823 1.018,-1.709 1.334,-2.618l14.38,1.313Zm-39.507,-60.12c2.652,3.448 2.877,8.341 0.24,12.084c-3.245,4.606 -9.611,5.707 -14.217,2.462c-4.607,-3.245 -5.708,-9.611 -2.463,-14.218c3.245,-4.606 9.611,-5.707 14.218,-2.462c0.864,0.608 1.61,1.338 2.222,2.134m27.225,33.586l-8.315,11.8c-1.868,-0.715 -3.841,-0.852 -5.752,-0.49l-6.105,-13.085c6.506,-2.218 13.854,-1.765 20.172,1.775m7.832,6.902c3.135,4.227 4.856,9.319 4.933,14.474l-14.42,-1.286c-0.304,-1.921 -1.13,-3.77 -2.432,-5.288l8.315,-11.799c1.365,1.189 2.558,2.49 3.604,3.899m-27.485,-45.009c-0.157,-0.142 -0.377,-0.169 -0.581,-0.074l-3.181,1.464c-0.887,-1.13 -1.968,-2.184 -3.203,-3.054c-1.235,-0.869 -2.571,-1.511 -3.934,-1.966l0.313,-3.511c0.027,-0.299 -0.153,-0.548 -0.452,-0.575l-5.847,-0.543c-0.298,-0.027 -0.56,0.22 -0.587,0.519l-0.313,3.511c-2.88,0.411 -5.642,1.622 -7.892,3.62l-2.908,-2.018c-0.246,-0.173 -0.554,-0.103 -0.727,0.142l-3.387,4.786c-0.173,0.245 -0.103,0.554 0.142,0.727l2.869,2.045c-1.124,2.791 -1.338,5.791 -0.755,8.642l-3.221,1.492c-0.273,0.126 -0.402,0.445 -0.276,0.718l2.46,5.328c0.126,0.272 0.445,0.402 0.718,0.275l3.221,-1.492c0.887,1.13 1.941,2.144 3.176,3.014c1.234,0.87 2.571,1.512 3.933,1.967l-0.352,3.538c-0.027,0.299 0.22,0.561 0.519,0.588l5.846,0.543c0.299,0.027 0.561,-0.22 0.588,-0.519l0.313,-3.511c2.879,-0.412 5.615,-1.663 7.864,-3.661l2.869,2.046c0.245,0.173 0.621,0.116 0.794,-0.13l3.347,-4.758c0.173,-0.245 0.116,-0.621 -0.13,-0.794l-2.868,-2.046c1.123,-2.791 1.337,-5.791 0.755,-8.641l3.221,-1.492c0.272,-0.127 0.401,-0.446 0.275,-0.718l-2.472,-5.261c-0.032,-0.068 -0.085,-0.154 -0.137,-0.201m40.309,41.024c-0.109,-0.237 -0.345,-0.36 -0.582,-0.25l-4.563,2.114c-1.613,-2.633 -3.636,-5.055 -6.028,-7.191l2.909,-4.106c0.151,-0.213 0.058,-0.509 -0.155,-0.659l-5.37,-3.813c-0.214,-0.15 -0.509,-0.058 -0.66,0.156l-2.869,4.078c-2.815,-1.532 -5.781,-2.603 -8.803,-3.235l0.418,-4.996c0.023,-0.26 -0.137,-0.471 -0.397,-0.494l-6.576,-0.576c-0.26,-0.023 -0.471,0.136 -0.494,0.397l-0.485,4.982c-3.141,0.086 -6.21,0.649 -9.196,1.625l-2.113,-4.563c-0.11,-0.237 -0.386,-0.332 -0.623,-0.222l-6.013,2.75c-0.237,0.11 -0.332,0.386 -0.223,0.623l2.114,4.563c-2.632,1.613 -5.056,3.636 -7.191,6.028l-4.106,-2.91c-0.213,-0.15 -0.536,-0.098 -0.686,0.116l-3.785,5.41c-0.151,0.214 -0.086,0.469 0.128,0.619l4.105,2.909c-1.533,2.817 -2.603,5.781 -3.235,8.804l-5.023,-0.458c-0.26,-0.024 -0.444,0.177 -0.467,0.437l-0.643,6.562c-0.024,0.261 0.204,0.484 0.464,0.508l4.983,0.485c0.085,3.139 0.608,6.238 1.584,9.223l-4.523,2.086c-0.237,0.11 -0.332,0.386 -0.222,0.623l2.75,6.013c0.11,0.237 0.386,0.332 0.623,0.222l4.563,-2.113c1.613,2.632 3.597,5.083 5.988,7.218l-2.869,4.078c-0.151,0.214 -0.126,0.496 0.088,0.647l5.41,3.785c0.213,0.15 0.496,0.125 0.646,-0.088l2.909,-4.106c2.817,1.533 5.781,2.604 8.804,3.236l-0.458,5.023c-0.023,0.26 0.177,0.443 0.437,0.467l6.535,0.603c0.26,0.023 0.512,-0.164 0.535,-0.424l0.418,-4.996c3.139,-0.085 6.277,-0.636 9.262,-1.612l2.114,4.563c0.11,0.237 0.386,0.332 0.623,0.223l6.013,-2.751c0.237,-0.109 0.332,-0.385 0.223,-0.622l-2.114,-4.564c2.633,-1.612 5.055,-3.635 7.191,-6.027l4.105,2.909c0.214,0.151 0.496,0.126 0.647,-0.088l3.785,-5.41c0.15,-0.214 0.126,-0.496 -0.088,-0.647l-4.106,-2.909c1.533,-2.815 2.604,-5.781 3.236,-8.803l4.983,0.485c0.26,0.023 0.484,-0.204 0.507,-0.464l0.603,-6.536c0.024,-0.26 -0.164,-0.511 -0.424,-0.534l-5.023,-0.458c-0.086,-3.14 -0.608,-6.237 -1.585,-9.223l4.563,-2.114c0.237,-0.109 0.333,-0.385 0.223,-0.622l-2.791,-5.986Zm42.884,14.948c3.263,5.24 3.269,12.179 -0.509,17.542c-5.037,7.15 -14.916,8.853 -22.067,3.816c-7.151,-5.037 -8.853,-14.916 -3.816,-22.067c5.037,-7.15 14.916,-8.853 22.066,-3.816c1.788,1.259 3.239,2.779 4.326,4.525m11.122,-7.945c-0.195,-0.423 -0.727,-0.588 -1.15,-0.392l-4.98,2.28c-1.377,-1.755 -3.004,-3.357 -4.921,-4.708c-1.916,-1.35 -3.989,-2.37 -6.104,-3.076l0.507,-5.469c0.042,-0.464 -0.315,-0.839 -0.779,-0.881l-9.046,-0.832c-0.465,-0.042 -0.868,0.274 -0.91,0.738l-0.479,5.509c-4.471,0.639 -8.774,2.563 -12.267,5.665l-4.473,-3.188c-0.381,-0.269 -0.889,-0.18 -1.157,0.201l-5.22,7.449c-0.268,0.381 -0.18,0.89 0.201,1.158l4.446,3.149c-1.744,4.332 -2.079,9.036 -1.175,13.461l-4.979,2.28c-0.423,0.196 -0.615,0.688 -0.42,1.111l3.8,8.241c0.196,0.422 0.688,0.615 1.111,0.419l4.979,-2.28c1.377,1.753 3.045,3.33 4.962,4.68c1.916,1.35 3.989,2.37 6.103,3.076l-0.506,5.469c-0.042,0.464 0.274,0.867 0.738,0.909l9.047,0.832c0.464,0.042 0.907,-0.302 0.949,-0.766l0.48,-5.509c4.469,-0.639 8.735,-2.537 12.226,-5.637l4.513,3.161c0.381,0.268 0.89,0.179 1.158,-0.202l5.22,-7.449c0.268,-0.381 0.179,-0.89 -0.202,-1.158l-4.485,-3.121c1.744,-4.332 2.118,-9.064 1.214,-13.489l4.98,-2.28c0.423,-0.196 0.615,-0.688 0.419,-1.111l-3.8,-8.24Z" style="fill:#1f46e7;fill-rule:nonzero;"/><path d="M251.924,382.775c3.263,5.24 3.268,12.178 -0.509,17.541c-5.037,7.151 -14.917,8.854 -22.067,3.817c-7.151,-5.037 -8.853,-14.917 -3.816,-22.067c5.037,-7.151 14.916,-8.853 22.066,-3.816c1.788,1.259 3.239,2.778 4.326,4.525m11.122,-7.945c-0.195,-0.423 -0.728,-0.588 -1.15,-0.393l-4.98,2.281c-1.377,-1.755 -3.004,-3.357 -4.921,-4.708c-1.916,-1.35 -3.989,-2.37 -6.104,-3.076l0.507,-5.469c0.042,-0.464 -0.315,-0.84 -0.779,-0.882l-9.047,-0.831c-0.464,-0.042 -0.867,0.274 -0.909,0.738l-0.479,5.509c-4.471,0.639 -8.775,2.563 -12.267,5.665l-4.473,-3.188c-0.381,-0.269 -0.889,-0.18 -1.158,0.201l-5.219,7.449c-0.269,0.381 -0.18,0.89 0.201,1.158l4.446,3.148c-1.744,4.332 -2.079,9.037 -1.175,13.462l-4.979,2.28c-0.423,0.196 -0.615,0.688 -0.42,1.111l3.8,8.24c0.196,0.423 0.688,0.616 1.111,0.42l4.979,-2.28c1.377,1.753 3.045,3.33 4.962,4.68c1.916,1.35 3.988,2.37 6.103,3.076l-0.506,5.469c-0.042,0.464 0.274,0.867 0.738,0.909l9.047,0.831c0.464,0.042 0.907,-0.301 0.949,-0.765l0.479,-5.509c4.47,-0.639 8.736,-2.537 12.227,-5.638l4.513,3.161c0.381,0.269 0.89,0.18 1.158,-0.201l5.22,-7.449c0.268,-0.381 0.179,-0.89 -0.202,-1.158l-4.485,-3.121c1.744,-4.332 2.118,-9.064 1.214,-13.489l4.98,-2.28c0.422,-0.196 0.615,-0.688 0.419,-1.111l-3.8,-8.24Z" style="fill:#4263eb;fill-rule:nonzero;"/><path d="M139.776,417.353c2.102,3.376 2.085,7.853 -0.348,11.308c-3.245,4.606 -9.611,5.707 -14.218,2.462c-4.606,-3.245 -5.707,-9.611 -2.462,-14.217c3.245,-4.607 9.611,-5.708 14.217,-2.463c1.152,0.811 2.11,1.785 2.811,2.91m7.161,-5.123c-0.127,-0.273 -0.486,-0.374 -0.759,-0.248l-3.18,1.464c-0.888,-1.13 -1.941,-2.143 -3.176,-3.013c-1.235,-0.87 -2.571,-1.512 -3.934,-1.967l0.312,-3.511c0.027,-0.299 -0.179,-0.588 -0.478,-0.615l-5.82,-0.503c-0.299,-0.027 -0.588,0.18 -0.615,0.479l-0.312,3.511c-2.881,0.411 -5.615,1.662 -7.865,3.66l-2.908,-2.018c-0.246,-0.173 -0.582,-0.143 -0.755,0.103l-3.387,4.785c-0.173,0.245 -0.075,0.594 0.17,0.767l2.869,2.046c-1.124,2.791 -1.338,5.791 -0.755,8.641l-3.221,1.492c-0.273,0.126 -0.402,0.446 -0.276,0.718l2.46,5.328c0.126,0.273 0.418,0.362 0.69,0.236l3.221,-1.493c0.887,1.13 1.969,2.185 3.204,3.054c1.234,0.87 2.571,1.512 3.933,1.967l-0.352,3.538c-0.027,0.299 0.192,0.521 0.491,0.548l5.847,0.543c0.299,0.027 0.561,-0.22 0.588,-0.519l0.312,-3.511c2.88,-0.411 5.643,-1.623 7.892,-3.62l2.869,2.045c0.245,0.173 0.594,0.076 0.767,-0.17l3.387,-4.785c0.173,-0.245 0.102,-0.554 -0.143,-0.727l-2.869,-2.046c1.124,-2.791 1.338,-5.791 0.756,-8.641l3.221,-1.492c0.272,-0.126 0.401,-0.446 0.275,-0.718l-2.459,-5.328Z" style="fill:#4263eb;fill-rule:nonzero;"/></g><defs><linearGradient id="_Linear1" x1="0" y1="0" x2="1" y2="0" gradientUnits="userSpaceOnUse" gradientTransform="matrix(0,-401.349,401.349,0,349.559,404.684)"><stop offset="0" style="stop-color:#b4cae8;stop-opacity:1"/><stop offset="1" style="stop-color:#fbfbfe;stop-opacity:1"/></linearGradient><linearGradient id="_Linear2" x1="0" y1="0" x2="1" y2="0" gradientUnits="userSpaceOnUse" gradientTransform="matrix(0,-218.691,218.691,0,413.596,455.528)"><stop offset="0" style="stop-color:#239b6a;stop-opacity:1"/><stop offset="1" style="stop-color:#4ccd9b;stop-opacity:1"/></linearGradient><linearGradient id="_Linear3" x1="0" y1="0" x2="1" y2="0" gradientUnits="userSpaceOnUse" gradientTransform="matrix(0,-204.752,204.752,0,254.41,440.861)"><stop offset="0" style="stop-color:#239b6a;stop-opacity:1"/><stop offset="1" style="stop-color:#4ccd9b;stop-opacity:1"/></linearGradient></defs></svg>