<?xml version="1.0" encoding="utf-8"?>
<!-- Generator: Adobe Illustrator 16.0.0, SVG Export Plug-In . SVG Version: 6.00 Build 0)  -->
<!DOCTYPE svg PUBLIC "-//W3C//DTD SVG 1.1//EN" "http://www.w3.org/Graphics/SVG/1.1/DTD/svg11.dtd">
<svg version="1.1" id="Слой_1" xmlns="http://www.w3.org/2000/svg" xmlns:xlink="http://www.w3.org/1999/xlink" x="0px" y="0px"
	 width="120px" height="120px" viewBox="0 0 120 120" enable-background="new 0 0 120 120" xml:space="preserve">
<g>
	<defs>
		<rect id="SVGID_1_" width="120" height="120"/>
	</defs>
	<clipPath id="SVGID_2_">
		<use xlink:href="#SVGID_1_"  overflow="visible"/>
	</clipPath>
	<path clip-path="url(#SVGID_2_)" fill-rule="evenodd" clip-rule="evenodd" fill="#EAEACD" d="M6.019,109.313h12.054h5.626h43.256
		c1.844,0,3.338-1.494,3.338-3.338V72.831c0-1.844-1.494-3.338-3.338-3.338H18.073c-1.844,0-3.338,1.494-3.338,3.338v25.6
		l-9.494,8.917C4.49,108.053,4.989,109.313,6.019,109.313"/>
	<path clip-path="url(#SVGID_2_)" fill-rule="evenodd" clip-rule="evenodd" fill="#EAEACD" d="M100.787,46H51.979
		c-1.841,0-3.333,1.492-3.333,3.333v33.094c0,1.84,1.492,3.333,3.333,3.333h43.218l6.883,6.882c0.753,0.753,2.041,0.221,2.041-0.845
		v-9.37V68.428V49.333C104.12,47.492,102.629,46,100.787,46"/>
	<path clip-path="url(#SVGID_2_)" fill-rule="evenodd" clip-rule="evenodd" fill="#EAEACD" d="M26.175,60h48.809
		c1.842,0,3.333-1.492,3.333-3.333V23.573c0-1.84-1.491-3.332-3.333-3.332H31.766l-6.883-6.883c-0.753-0.753-2.041-0.22-2.041,0.845
		v9.37v13.999v19.095C22.842,58.508,24.334,60,26.175,60"/>
</g>
<g>
	<defs>
		<path id="SVGID_3_" d="M21.073,66.493c-1.844,0-3.339,1.495-3.339,3.338V95.43l-9.494,8.917c-0.75,0.705-0.252,1.967,0.779,1.967
			h12.054h5.626h43.256c1.843,0,3.337-1.495,3.337-3.339V69.831c0-1.843-1.494-3.338-3.337-3.338H21.073z"/>
	</defs>
	<clipPath id="SVGID_4_">
		<use xlink:href="#SVGID_3_"  overflow="visible"/>
	</clipPath>
	
		<linearGradient id="SVGID_5_" gradientUnits="userSpaceOnUse" x1="0" y1="119.999" x2="1" y2="119.999" gradientTransform="matrix(65.413 0 0 -65.413 7.875 7935.9346)">
		<stop  offset="0" style="stop-color:#239B6A"/>
		<stop  offset="1" style="stop-color:#4CCD9B"/>
	</linearGradient>
	<rect x="7.49" y="66.493" clip-path="url(#SVGID_4_)" fill="url(#SVGID_5_)" width="65.802" height="39.82"/>
</g>
<g>
	<defs>
		<rect id="SVGID_6_" width="120" height="120"/>
	</defs>
	<clipPath id="SVGID_7_">
		<use xlink:href="#SVGID_6_"  overflow="visible"/>
	</clipPath>
	
		<line clip-path="url(#SVGID_7_)" fill="none" stroke="#FFFFFF" stroke-width="0.9" stroke-linecap="round" stroke-miterlimit="10" x1="60.733" y1="75.208" x2="65.185" y2="75.208"/>
	
		<line clip-path="url(#SVGID_7_)" fill="none" stroke="#FFFFFF" stroke-width="0.9" stroke-linecap="round" stroke-miterlimit="10" x1="54.392" y1="75.208" x2="58.478" y2="75.208"/>
	
		<line clip-path="url(#SVGID_7_)" fill="none" stroke="#FFFFFF" stroke-width="0.9" stroke-linecap="round" stroke-miterlimit="10" x1="25.184" y1="75.208" x2="52.105" y2="75.208"/>
	
		<line clip-path="url(#SVGID_7_)" fill="none" stroke="#FFFFFF" stroke-width="0.9" stroke-linecap="round" stroke-miterlimit="10" x1="25.184" y1="80.306" x2="65.184" y2="80.306"/>
	
		<line clip-path="url(#SVGID_7_)" fill="none" stroke="#FFFFFF" stroke-width="0.9" stroke-linecap="round" stroke-miterlimit="10" x1="25.184" y1="85.403" x2="56.831" y2="85.403"/>
	
		<line clip-path="url(#SVGID_7_)" fill="none" stroke="#FFFFFF" stroke-width="0.9" stroke-linecap="round" stroke-miterlimit="10" x1="56.435" y1="90.501" x2="65.184" y2="90.501"/>
	
		<line clip-path="url(#SVGID_7_)" fill="none" stroke="#FFFFFF" stroke-width="0.9" stroke-linecap="round" stroke-miterlimit="10" x1="38.906" y1="90.501" x2="53.051" y2="90.501"/>
	
		<line clip-path="url(#SVGID_7_)" fill="none" stroke="#FFFFFF" stroke-width="0.9" stroke-linecap="round" stroke-miterlimit="10" x1="25.184" y1="90.501" x2="32.688" y2="90.501"/>
	
		<line clip-path="url(#SVGID_7_)" fill="none" stroke="#FFFFFF" stroke-width="0.9" stroke-linecap="round" stroke-miterlimit="10" x1="57.319" y1="95.598" x2="65.184" y2="95.598"/>
	
		<line clip-path="url(#SVGID_7_)" fill="none" stroke="#FFFFFF" stroke-width="0.9" stroke-linecap="round" stroke-miterlimit="10" x1="41.007" y1="95.598" x2="54.392" y2="95.598"/>
	
		<line clip-path="url(#SVGID_7_)" fill="none" stroke="#FFFFFF" stroke-width="0.9" stroke-linecap="round" stroke-miterlimit="10" x1="25.184" y1="95.598" x2="36.163" y2="95.598"/>
</g>
<g>
	<defs>
		<path id="SVGID_8_" d="M54.978,43c-1.84,0-3.332,1.492-3.332,3.333v33.094c0,1.841,1.492,3.333,3.332,3.333h43.218l6.883,6.882
			c0.754,0.753,2.042,0.221,2.042-0.845v-9.37V65.428V46.333c0-1.841-1.492-3.333-3.334-3.333H54.978z"/>
	</defs>
	<clipPath id="SVGID_9_">
		<use xlink:href="#SVGID_8_"  overflow="visible"/>
	</clipPath>
	
		<linearGradient id="SVGID_10_" gradientUnits="userSpaceOnUse" x1="4.882813e-004" y1="119.998" x2="1.0005" y2="119.998" gradientTransform="matrix(55.475 0 0 -55.475 51.6563 6723.5)">
		<stop  offset="0" style="stop-color:#4263EB"/>
		<stop  offset="1" style="stop-color:#1F46E7"/>
	</linearGradient>
	<rect x="51.646" y="43" clip-path="url(#SVGID_9_)" fill="url(#SVGID_10_)" width="55.475" height="47.395"/>
</g>
<g>
	<defs>
		<rect id="SVGID_11_" width="120" height="120"/>
	</defs>
	<clipPath id="SVGID_12_">
		<use xlink:href="#SVGID_11_"  overflow="visible"/>
	</clipPath>
	
		<line clip-path="url(#SVGID_12_)" fill="none" stroke="#FFFFFF" stroke-width="0.9" stroke-linecap="round" stroke-miterlimit="10" x1="96.692" y1="53.525" x2="99.923" y2="53.525"/>
	
		<line clip-path="url(#SVGID_12_)" fill="none" stroke="#FFFFFF" stroke-width="0.9" stroke-linecap="round" stroke-miterlimit="10" x1="59.923" y1="53.525" x2="92.059" y2="53.525"/>
	
		<line clip-path="url(#SVGID_12_)" fill="none" stroke="#FFFFFF" stroke-width="0.9" stroke-linecap="round" stroke-miterlimit="10" x1="91.57" y1="58.231" x2="99.924" y2="58.231"/>
	
		<line clip-path="url(#SVGID_12_)" fill="none" stroke="#FFFFFF" stroke-width="0.9" stroke-linecap="round" stroke-miterlimit="10" x1="59.923" y1="58.231" x2="87.501" y2="58.231"/>
	
		<line clip-path="url(#SVGID_12_)" fill="none" stroke="#FFFFFF" stroke-width="0.9" stroke-linecap="round" stroke-miterlimit="10" x1="76.356" y1="62.938" x2="99.924" y2="62.938"/>
	
		<line clip-path="url(#SVGID_12_)" fill="none" stroke="#FFFFFF" stroke-width="0.9" stroke-linecap="round" stroke-miterlimit="10" x1="59.923" y1="62.938" x2="64.199" y2="62.938"/>
	
		<line clip-path="url(#SVGID_12_)" fill="none" stroke="#FFFFFF" stroke-width="0.9" stroke-linecap="round" stroke-miterlimit="10" x1="93.521" y1="67.644" x2="99.924" y2="67.644"/>
	
		<line clip-path="url(#SVGID_12_)" fill="none" stroke="#FFFFFF" stroke-width="0.9" stroke-linecap="round" stroke-miterlimit="10" x1="59.923" y1="67.644" x2="88.156" y2="67.644"/>
	
		<line clip-path="url(#SVGID_12_)" fill="none" stroke="#FFFFFF" stroke-width="0.9" stroke-linecap="round" stroke-miterlimit="10" x1="59.923" y1="72.351" x2="94.437" y2="72.351"/>
</g>
<g>
	<defs>
		<path id="SVGID_13_" d="M25.842,11.203v9.37v14v19.094c0,1.841,1.492,3.333,3.332,3.333h48.811c1.841,0,3.333-1.492,3.333-3.333
			V20.573c0-1.84-1.492-3.332-3.333-3.332H34.766l-6.883-6.883c-0.244-0.243-0.543-0.352-0.837-0.352
			C26.431,10.006,25.842,10.483,25.842,11.203"/>
	</defs>
	<clipPath id="SVGID_14_">
		<use xlink:href="#SVGID_13_"  overflow="visible"/>
	</clipPath>
	
		<linearGradient id="SVGID_15_" gradientUnits="userSpaceOnUse" x1="4.882813e-004" y1="120.002" x2="1.0005" y2="120.002" gradientTransform="matrix(0 -46.9945 -46.9945 0 5692.9385 57)">
		<stop  offset="0" style="stop-color:#F2751C"/>
		<stop  offset="1" style="stop-color:#FFC400"/>
	</linearGradient>
	<rect x="25.842" y="10.006" clip-path="url(#SVGID_14_)" fill="url(#SVGID_15_)" width="55.476" height="46.994"/>
</g>
<g>
	<defs>
		<rect id="SVGID_16_" width="120" height="120"/>
	</defs>
	<clipPath id="SVGID_17_">
		<use xlink:href="#SVGID_16_"  overflow="visible"/>
	</clipPath>
	
		<line clip-path="url(#SVGID_17_)" fill="none" stroke="#FFFFFF" stroke-width="0.9" stroke-linecap="round" stroke-miterlimit="10" x1="33.471" y1="27.654" x2="73.472" y2="27.654"/>
	
		<line clip-path="url(#SVGID_17_)" fill="none" stroke="#FFFFFF" stroke-width="0.9" stroke-linecap="round" stroke-miterlimit="10" x1="69.813" y1="32.741" x2="73.471" y2="32.741"/>
	
		<line clip-path="url(#SVGID_17_)" fill="none" stroke="#FFFFFF" stroke-width="0.9" stroke-linecap="round" stroke-miterlimit="10" x1="33.471" y1="32.741" x2="66.338" y2="32.741"/>
	
		<line clip-path="url(#SVGID_17_)" fill="none" stroke="#FFFFFF" stroke-width="0.9" stroke-linecap="round" stroke-miterlimit="10" x1="48.396" y1="37.828" x2="70.773" y2="37.828"/>
	
		<line clip-path="url(#SVGID_17_)" fill="none" stroke="#FFFFFF" stroke-width="0.9" stroke-linecap="round" stroke-miterlimit="10" x1="33.471" y1="37.828" x2="40.43" y2="37.828"/>
	
		<line clip-path="url(#SVGID_17_)" fill="none" stroke="#FFFFFF" stroke-width="0.9" stroke-linecap="round" stroke-miterlimit="10" x1="65.118" y1="42.915" x2="73.472" y2="42.915"/>
	
		<line clip-path="url(#SVGID_17_)" fill="none" stroke="#FFFFFF" stroke-width="0.9" stroke-linecap="round" stroke-miterlimit="10" x1="33.471" y1="42.915" x2="61.338" y2="42.915"/>
	
		<line clip-path="url(#SVGID_17_)" fill="none" stroke="#FFFFFF" stroke-width="0.9" stroke-linecap="round" stroke-miterlimit="10" x1="33.471" y1="48.001" x2="65.606" y2="48.001"/>
</g>
</svg>
