<svg xmlns="http://www.w3.org/2000/svg" xmlns:xlink="http://www.w3.org/1999/xlink" width="120" height="120" viewBox="0 0 120 120"><defs><path id="a" d="M0 0h120v120H0z"/></defs><clipPath id="b"><use xlink:href="#a" overflow="visible"/></clipPath><path clip-path="url(#b)" fill-rule="evenodd" clip-rule="evenodd" fill="#EAEACD" d="M6.019 109.313h60.936a3.337 3.337 0 0 0 3.338-3.338V72.831a3.337 3.337 0 0 0-3.338-3.338H18.073a3.337 3.337 0 0 0-3.338 3.338v25.6l-9.494 8.917c-.751.705-.252 1.965.778 1.965"/><path clip-path="url(#b)" fill-rule="evenodd" clip-rule="evenodd" fill="#EAEACD" d="M100.787 46H51.979a3.333 3.333 0 0 0-3.333 3.333v33.094a3.333 3.333 0 0 0 3.333 3.333h43.218l6.883 6.882c.753.753 2.041.221 2.041-.845V49.333A3.334 3.334 0 0 0 100.787 46"/><path clip-path="url(#b)" fill-rule="evenodd" clip-rule="evenodd" fill="#EAEACD" d="M26.175 60h48.809a3.332 3.332 0 0 0 3.333-3.333V23.573a3.332 3.332 0 0 0-3.333-3.332H31.766l-6.883-6.883c-.753-.753-2.041-.22-2.041.845v42.464A3.333 3.333 0 0 0 26.175 60"/><defs><path id="c" d="M21.073 66.493a3.339 3.339 0 0 0-3.339 3.338V95.43l-9.494 8.917c-.75.705-.252 1.967.779 1.967h60.936a3.338 3.338 0 0 0 3.337-3.339V69.831a3.338 3.338 0 0 0-3.337-3.338H21.073z"/></defs><clipPath id="d"><use xlink:href="#c" overflow="visible"/></clipPath><linearGradient id="e" gradientUnits="userSpaceOnUse" x1="0" y1="119.999" x2="1" y2="119.999" gradientTransform="matrix(65.413 0 0 -65.413 7.875 7935.935)"><stop offset="0" stop-color="#239b6a"/><stop offset="1" stop-color="#4ccd9b"/></linearGradient><path clip-path="url(#d)" fill="url(#e)" d="M7.49 66.493h65.802v39.82H7.49z"/><defs><path id="f" d="M0 0h120v120H0z"/></defs><clipPath id="g"><use xlink:href="#f" overflow="visible"/></clipPath><path clip-path="url(#g)" fill="none" stroke="#FFF" stroke-width=".9" stroke-linecap="round" stroke-miterlimit="10" d="M60.733 75.208h4.452m-10.793 0h4.086m-33.294 0h26.921m-26.921 5.098h40m-40 5.097h31.647m-.396 5.098h8.749m-26.278 0h14.145m-27.867 0h7.504m24.631 5.097h7.865m-24.177 0h13.385m-29.208 0h10.979"/><defs><path id="h" d="M54.978 43a3.332 3.332 0 0 0-3.332 3.333v33.094a3.332 3.332 0 0 0 3.332 3.333h43.218l6.883 6.882c.754.753 2.042.221 2.042-.845V46.333A3.333 3.333 0 0 0 103.787 43H54.978z"/></defs><clipPath id="i"><use xlink:href="#h" overflow="visible"/></clipPath><linearGradient id="j" gradientUnits="userSpaceOnUse" x1="0" y1="119.998" x2="1" y2="119.998" gradientTransform="matrix(55.475 0 0 -55.475 51.656 6723.5)"><stop offset="0" stop-color="#4263eb"/><stop offset="1" stop-color="#1f46e7"/></linearGradient><path clip-path="url(#i)" fill="url(#j)" d="M51.646 43h55.475v47.395H51.646z"/><defs><path id="k" d="M0 0h120v120H0z"/></defs><clipPath id="l"><use xlink:href="#k" overflow="visible"/></clipPath><path clip-path="url(#l)" fill="none" stroke="#FFF" stroke-width=".9" stroke-linecap="round" stroke-miterlimit="10" d="M96.692 53.525h3.231m-40 0h32.136m-.489 4.706h8.354m-40.001 0h27.578m-11.145 4.707h23.568m-40.001 0h4.276m29.322 4.706h6.403m-40.001 0h28.233m-28.233 4.707h34.514"/><defs><path id="m" d="M25.842 11.203v42.464A3.332 3.332 0 0 0 29.174 57h48.811a3.333 3.333 0 0 0 3.333-3.333V20.573a3.332 3.332 0 0 0-3.333-3.332H34.766l-6.883-6.883a1.173 1.173 0 0 0-.837-.352c-.615 0-1.204.477-1.204 1.197"/></defs><clipPath id="n"><use xlink:href="#m" overflow="visible"/></clipPath><linearGradient id="o" gradientUnits="userSpaceOnUse" x1="0" y1="120.002" x2="1" y2="120.002" gradientTransform="matrix(0 -46.9945 -46.9945 0 5692.939 57)"><stop offset="0" stop-color="#f2751c"/><stop offset="1" stop-color="#ffc400"/></linearGradient><path clip-path="url(#n)" fill="url(#o)" d="M25.842 10.006h55.476V57H25.842z"/><defs><path id="p" d="M0 0h120v120H0z"/></defs><clipPath id="q"><use xlink:href="#p" overflow="visible"/></clipPath><path clip-path="url(#q)" fill="none" stroke="#FFF" stroke-width=".9" stroke-linecap="round" stroke-miterlimit="10" d="M33.471 27.654h40.001m-3.659 5.087h3.658m-40 0h32.867m-17.942 5.087h22.377m-37.302 0h6.959m24.688 5.087h8.354m-40.001 0h27.867m-27.867 5.086h32.135"/></svg>