<svg xmlns="http://www.w3.org/2000/svg" xmlns:xlink="http://www.w3.org/1999/xlink" width="120" height="120" viewBox="0 0 120 120"><path fill="#EAEACD" d="M12.875 12.898h90.25v102.954h-90.25z"/><path fill="#FFF" d="M16.875 8.898h90.25v102.954h-90.25z"/><path fill="none" stroke="#C8CBAC" stroke-width=".887" stroke-linecap="round" stroke-miterlimit="10" d="M16.875 8.898h90.25v102.954h-90.25z"/><path fill="none" stroke="#C8CBAC" stroke-width=".837" stroke-linecap="round" stroke-miterlimit="10" d="M24.797 18.487h75.655m-6.918 5.535h6.919m-75.656 0h62.164m-33.937 5.535H95.35m-70.553 0H37.96m46.694 5.535h15.798m-75.655 0h52.708m-52.708 5.535h60.779m8.765 5.536h6.111m-75.655 0h60.78m-.923 5.534h15.799m-75.656 0h52.16m-21.078 5.535h44.574m-75.656 0h8.087m55.461 5.536h12.108m-75.656 0h53.4m-53.4 5.535h65.277m1.961 5.535h8.418m-20.411 0h7.726m-62.971 0h50.921m-50.921 5.535h75.655m-75.655 5.534h59.857m-.75 5.535h16.549m-49.701 0h26.753m-52.708 0h14.194m46.586 5.536h14.875m-45.726 0h25.317m-55.246 0h20.766m.346 5.535h29.29m-50.402 0H37.03"/><defs><path id="a" d="M0 0h120v120H0z"/></defs><clipPath id="b"><use xlink:href="#a" overflow="visible"/></clipPath><path clip-path="url(#b)" fill="#EAEACD" d="M107.449 99.778l-22.064-23.33a2.47 2.47 0 0 0-3.492-.098l-2.626-2.775-1.521-1.608c3.977-4.486 6.236-10.166 6.405-16.231.19-6.834-2.292-13.333-6.99-18.3-4.884-5.164-11.489-8.009-18.6-8.009a25.49 25.49 0 0 0-17.583 7c-10.254 9.698-10.707 25.93-1.009 36.183 4.884 5.165 11.49 8.01 18.6 8.01a25.468 25.468 0 0 0 15.919-5.561l4.142 4.378-.164.154a2.472 2.472 0 0 0-.098 3.492l22.065 23.331a2.471 2.471 0 0 0 3.493.097l3.426-3.24a2.47 2.47 0 0 0 .097-3.493"/><path transform="rotate(-43.406 80.947 75.562)" clip-path="url(#b)" fill="#3054E9" d="M78.707 68.157h4.491v14.821h-4.491z"/><path transform="rotate(-43.406 77.243 71.645)" clip-path="url(#b)" fill="#1F46E7" d="M75.002 69.631h4.491v4.038h-4.491z"/><defs><path id="c" d="M82.892 74.35l-3.427 3.241a2.472 2.472 0 0 0-.097 3.492l22.065 23.331a2.47 2.47 0 0 0 3.492.097l3.426-3.239a2.47 2.47 0 0 0 .098-3.492L86.384 74.448a2.457 2.457 0 0 0-1.795-.773c-.609 0-1.219.224-1.697.675"/></defs><clipPath id="d"><use xlink:href="#c" overflow="visible"/></clipPath><linearGradient id="e" gradientUnits="userSpaceOnUse" x1="0" y1="119.996" x2="1" y2="119.996" gradientTransform="matrix(30.4319 0 0 -30.4319 78.688 3741.264)"><stop offset="0" stop-color="#4263eb"/><stop offset="1" stop-color="#1f46e7"/></linearGradient><path clip-path="url(#d)" fill="url(#e)" d="M78.431 73.675h30.956v31.774H78.431z"/><defs><path id="f" d="M0 0h120v120H0z"/></defs><clipPath id="g"><use xlink:href="#f" overflow="visible"/></clipPath><path clip-path="url(#g)" fill="#FFF" d="M75.879 37.595c8.521 9.009 8.124 23.22-.885 31.741-9.01 8.521-23.22 8.124-31.741-.885s-8.124-23.22.885-31.741 23.219-8.124 31.741.885"/><defs><path id="h" d="M44.391 67.374c-7.913-8.367-7.544-21.612.823-29.526a20.8 20.8 0 0 1 14.347-5.711c5.803 0 11.193 2.321 15.18 6.534 3.833 4.053 5.858 9.357 5.703 14.934s-2.474 10.76-6.526 14.593a20.798 20.798 0 0 1-14.348 5.711c-5.803 0-11.193-2.32-15.179-6.535m-2.413-32.947c-10.254 9.698-10.706 25.93-1.008 36.184 4.883 5.165 11.489 8.009 18.6 8.009a25.49 25.49 0 0 0 17.583-6.999c4.967-4.698 7.808-11.05 7.999-17.883.189-6.835-2.293-13.334-6.991-18.302-4.883-5.163-11.489-8.008-18.6-8.008a25.492 25.492 0 0 0-17.583 6.999"/></defs><clipPath id="i"><use xlink:href="#h" overflow="visible"/></clipPath><linearGradient id="j" gradientUnits="userSpaceOnUse" x1="0" y1="120.001" x2="1" y2="120.001" gradientTransform="matrix(51.1796 0 0 -51.1796 33.969 6194.579)"><stop offset="0" stop-color="#1f46e7"/><stop offset="1" stop-color="#4263eb"/></linearGradient><path clip-path="url(#i)" fill="url(#j)" d="M31.272 27.427h54.07v51.192h-54.07z"/><defs><path id="k" d="M55.738 53.797l3.264-8.446c.036-.084.071-.17.106-.256a.5.5 0 0 1 .937.02l.084.236 3.297 8.444a.501.501 0 0 1-.466.682h-6.755a.5.5 0 0 1-.467-.68m1.237-15.498a.498.498 0 0 0-.463.31l-9.989 24.449a.5.5 0 0 0 .462.689h4.552a.5.5 0 0 0 .464-.315l1.64-4.132a.502.502 0 0 1 .465-.315h10.952c.206 0 .393.126.468.319l1.604 4.125a.5.5 0 0 0 .466.318h4.551a.5.5 0 0 0 .463-.688L62.655 38.61a.5.5 0 0 0-.463-.311h-5.217z"/></defs><clipPath id="l"><use xlink:href="#k" overflow="visible"/></clipPath><linearGradient id="m" gradientUnits="userSpaceOnUse" x1="0" y1="120" x2="1" y2="120" gradientTransform="matrix(26.1615 0 0 -26.1615 46.484 3190.401)"><stop offset="0" stop-color="#f2751c"/><stop offset="1" stop-color="#ffc400"/></linearGradient><path clip-path="url(#l)" fill="url(#m)" d="M46.388 38.299h26.355v25.448H46.388z"/><defs><path id="n" d="M0 0h120v120H0z"/></defs><clipPath id="o"><use xlink:href="#n" overflow="visible"/></clipPath><path clip-path="url(#o)" fill="#F2751C" d="M66.896 49.025l5.714 14.034a.5.5 0 0 1-.464.688h-4.549a.5.5 0 0 1-.466-.317l-1.606-4.125a.5.5 0 0 0-.466-.319H54.106a.5.5 0 0 0-.465.316l-1.64 4.131a.502.502 0 0 1-.465.314h-4.551a.5.5 0 0 1-.463-.688l2.978-7.29c8.606 4.888 17.901 1.436 17.396-6.744"/></svg>