<svg xmlns="http://www.w3.org/2000/svg" xmlns:xlink="http://www.w3.org/1999/xlink" width="120" height="120" viewBox="0 0 120 120"><defs><path id="a" d="M15.855 24.856C6.595 27.544 1.269 37.23 3.957 46.49c2.689 9.259 12.375 14.585 21.635 11.897 9.259-2.689 14.586-12.375 11.897-21.634-2.217-7.634-9.189-12.595-16.758-12.594-1.611 0-3.25.225-4.876.697"/></defs><clipPath id="b"><use xlink:href="#a" overflow="visible"/></clipPath><linearGradient id="c" gradientUnits="userSpaceOnUse" x1="0" y1="119.974" x2="1" y2="119.974" gradientTransform="scale(34.9163 -34.9163) rotate(16.192 426.533 59.732)"><stop offset="0" stop-color="#4263eb"/><stop offset="1" stop-color="#1f46e7"/></linearGradient><path clip-path="url(#b)" fill="url(#c)" d="M-8.617 27.029l45.769-13.291 12.912 44.466-45.77 13.29z"/><defs><path id="d" d="M0 0h120v120H0z"/></defs><clipPath id="e"><use xlink:href="#d" overflow="visible"/></clipPath><path clip-path="url(#e)" fill="#EAEACD" d="M31.802 51.874l-14.944 4.339-.215-.743a2.275 2.275 0 0 1 1.55-2.819l10.574-3.07a2.274 2.274 0 0 1 2.819 1.55l.216.743z"/><path transform="rotate(-16.199 24.13 53.38)" clip-path="url(#e)" fill="#C8CBAC" d="M16.359 52.705h15.562v1.365H16.359z"/><path clip-path="url(#e)" fill="#D8D7BF" d="M29.114 49.48l-11.268 3.272-.13-.448a.9.9 0 0 1 .613-1.114l9.541-2.77a.899.899 0 0 1 1.114.612l.13.448z"/><path clip-path="url(#e)" fill="#EAEACD" d="M27.884 48.416l-9.569 2.779c.434-3.727.343-7.302-.271-10.724l4.325-1.256c1.312 3.535 3.15 6.602 5.515 9.201"/><path clip-path="url(#e)" fill="#D8D7BF" d="M22.577 39.154l-4.741 1.377a.459.459 0 0 1-.255-.879l4.741-1.377a.459.459 0 0 1 .255.879"/><path clip-path="url(#e)" fill="#EAEACD" d="M21.461 35.309l-4.741 1.377a.459.459 0 0 1-.255-.879l4.741-1.377a.459.459 0 0 1 .255.879"/><path transform="rotate(-16.178 19.398 37.043)" clip-path="url(#e)" fill="#C8CBAC" d="M17.363 35.955h4.061v2.172h-4.061z"/><path clip-path="url(#e)" fill="#C8CBAC" d="M17.912 27.758a1.166 1.166 0 1 1-2.24.65 1.166 1.166 0 0 1 2.24-.65"/><path clip-path="url(#e)" fill="#C8CBAC" d="M20.309 30.527a2.696 2.696 0 1 1-5.179 1.503 2.696 2.696 0 0 1 5.179-1.503"/><path clip-path="url(#e)" fill="#D8D7BF" d="M20.785 34.552l-3.9 1.132-3.269-4.404c.597-.195 1.134-.127 1.593.283 1.24-1.764 2.92-2.186 4.976-1.463.016-.52.4-.831 1.001-1.019l-.401 5.471z"/><path clip-path="url(#e)" fill="#EAEACD" d="M22.322 38.275l-4.741 1.377a.459.459 0 0 1-.255-.879l4.741-1.377a.459.459 0 0 1 .255.879"/><defs><path id="f" d="M79.273 88.491c-1.426 9.536 5.15 18.421 14.687 19.846s18.421-5.151 19.846-14.687c1.426-9.537-5.15-18.422-14.687-19.847a17.552 17.552 0 0 0-2.602-.193c-8.5.001-15.95 6.219-17.244 14.881"/></defs><clipPath id="g"><use xlink:href="#f" overflow="visible"/></clipPath><linearGradient id="h" gradientUnits="userSpaceOnUse" x1="0" y1="119.982" x2="1" y2="119.982" gradientTransform="scale(34.916 -34.916) rotate(-8.497 -823.629 43.45)"><stop offset="0" stop-color="#239b6a"/><stop offset="1" stop-color="#4ccd9b"/></linearGradient><path clip-path="url(#g)" fill="url(#h)" d="M78.664 68.147l41.85 6.252-6.099 40.826-41.85-6.252z"/><defs><path id="i" d="M0 0h120v120H0z"/></defs><clipPath id="j"><use xlink:href="#i" overflow="visible"/></clipPath><path clip-path="url(#j)" fill="#EAEACD" d="M109.942 93.072c-1.106 7.402-8.003 12.506-15.405 11.4-7.401-1.105-12.506-8.002-11.4-15.405 1.105-7.402 8.003-12.506 15.404-11.399 7.403 1.105 12.507 8.003 11.401 15.404"/><circle clip-path="url(#j)" fill="none" stroke="#4CCD9B" stroke-width=".552" stroke-linecap="round" stroke-miterlimit="10" cx="96.54" cy="91.07" r="8.86"/><path clip-path="url(#j)" fill="#239B6A" d="M98.074 91.3a1.552 1.552 0 1 1-3.07-.459 1.552 1.552 0 0 1 3.07.459"/><path clip-path="url(#j)" fill="none" stroke="#239B6A" stroke-width=".552" stroke-linecap="round" stroke-miterlimit="10" d="M104.581 82.338L96.54 91.07"/><path clip-path="url(#j)" fill="none" stroke="#239B6A" stroke-width=".662" stroke-linecap="round" stroke-miterlimit="10" d="M105.166 92.359l-8.11-1.213"/><path clip-path="url(#j)" fill="#F2751C" d="M75.545 17.813c-2.486 9.316 3.051 18.883 12.367 21.369 9.314 2.486 18.883-3.051 21.369-12.366 2.485-9.316-3.052-18.884-12.367-21.37-9.316-2.487-18.883 3.05-21.369 12.367"/><defs><path id="k" d="M75.545 17.812a17.396 17.396 0 0 0 1.478 12.734l30.196-17.475a17.392 17.392 0 0 0-10.305-7.625 17.505 17.505 0 0 0-4.513-.595c-7.716 0-14.772 5.153-16.856 12.961"/></defs><clipPath id="l"><use xlink:href="#k" overflow="visible"/></clipPath><linearGradient id="m" gradientUnits="userSpaceOnUse" x1="0" y1="120" x2="1" y2="120" gradientTransform="scale(29.3806 -29.3806) rotate(75.058 80.32 61.356)"><stop offset="0" stop-color="#f2751c"/><stop offset="1" stop-color="#ffc400"/></linearGradient><path clip-path="url(#l)" fill="url(#m)" d="M67.955 28.838l8.586-32.174 37.079 9.895-8.586 32.174z"/><defs><path id="n" d="M0 0h120v120H0z"/></defs><clipPath id="o"><use xlink:href="#n" overflow="visible"/></clipPath><path clip-path="url(#o)" fill="#FECC4D" d="M80.108 19.03c-1.813 6.796 2.225 13.775 9.021 15.588 6.796 1.814 13.775-2.225 15.588-9.021 1.814-6.795-2.225-13.775-9.021-15.588-6.795-1.814-13.775 2.225-15.588 9.021"/><path clip-path="url(#o)" fill="#F2751C" d="M97.193 24.943c.038.146.075.285-.002-.007-.078-.298-.04-.153-.002-.005-.252-.952-.933-1.696-1.709-2.269-.513-.379-1.07-.695-1.631-.998l1.048-3.926c.479.224.941.518 1.275.936.153.193.275.409.352.644.04.121.068.245.083.372.014.125.004.25.017.375.044.42.343.784.745.91a1.072 1.072 0 0 0 1.389-.902 2.38 2.38 0 0 0 .001-.396 4.09 4.09 0 0 0-.557-1.83c-.538-.916-1.405-1.589-2.355-2.037a7.924 7.924 0 0 0-.39-.17l.305-1.14a1.084 1.084 0 0 0-.353-1.103 1.083 1.083 0 0 0-1.164-.133 1.081 1.081 0 0 0-.558.683l-.306 1.146c-1.057-.128-2.176-.006-3.126.493a3.765 3.765 0 0 0-1.162.94 3.658 3.658 0 0 0-.712 1.421c-.134.51-.178 1.049-.076 1.569.096.494.32.949.624 1.348.622.82 1.52 1.4 2.404 1.9l-1.095 4.103c-.45-.266-.854-.62-1.127-1.071a2.736 2.736 0 0 1-.3-.704 2.48 2.48 0 0 1-.069-.383c-.012-.13-.006-.259-.014-.39a1.082 1.082 0 0 0-.704-.944 1.08 1.08 0 0 0-1.158.283 1.09 1.09 0 0 0-.269.554c-.021.123-.016.248-.013.372a4.715 4.715 0 0 0 .468 1.911c.453.948 1.217 1.71 2.119 2.237.162.095.328.183.499.265l-.322 1.206c-.107.401.033.839.352 1.104.324.268.788.321 1.164.133.273-.136.479-.388.559-.683l.294-1.104c1.064.193 2.193.171 3.202-.254a3.836 3.836 0 0 0 2.102-2.134c.284-.732.372-1.558.172-2.322m-4.915-4.235a8.458 8.458 0 0 1-.598-.405 3.689 3.689 0 0 1-.585-.531c-.154-.178-.293-.385-.322-.624-.032-.25.026-.52.114-.754.087-.233.232-.436.421-.598.504-.433 1.24-.532 1.881-.5l-.911 3.412zm2.773 6.413c-.611.627-1.596.672-2.408.55l1.006-3.771c.453.258.905.531 1.29.884.178.163.342.345.454.559.104.2.142.419.129.643-.025.413-.179.836-.471 1.135"/><path clip-path="url(#o)" fill="#4263EB" d="M94.795 40.043l-22.381-4.679a.767.767 0 0 1-.618-.406c-.654-1.287-2.259-2.177-4.29-2.889H90.91c3.463.343 4.581 4.229 4.746 7.148a.79.79 0 0 1-.861.826"/><path clip-path="url(#o)" fill="#EAEACD" d="M84.451 32.068H41.069a7.13 7.13 0 0 0-7.131 7.13v56.784h44.07a6.443 6.443 0 0 0 6.443-6.443V42.474c.398-5.548.853-10.405 6.137-10.405h-6.137z"/><path clip-path="url(#o)" fill="#C8CBAC" d="M57.613 74.334H38.864a.55.55 0 0 1-.55-.55V41.725a.55.55 0 0 1 .55-.551h18.749a.55.55 0 0 1 .55.551v32.059a.55.55 0 0 1-.55.55"/><path clip-path="url(#o)" fill="#4263EB" d="M21.291 88.094l52.324 4.679c.263.024.5.173.619.406.654 1.287 2.259 2.177 4.29 2.89H25.175c-3.535-1.39-4.581-4.229-4.746-7.148a.79.79 0 0 1 .862-.827"/><path clip-path="url(#o)" fill="none" stroke="#C8CBAC" stroke-width=".555" stroke-linecap="round" stroke-miterlimit="10" d="M61.256 41.174h19.329m-3.865 3.093h3.865m-19.329 0h11.79m-11.79 3.093h16.477m-5.975 3.092h8.827m-19.329 0h6.508m-6.508 3.093h11.017m4.898 3.093h3.415m-19.33 0h11.017m-.515 3.092h8.827m-19.329 0h6.201m-6.201 3.093h19.329m-6.765 3.092h6.765m-19.329 0h6.894m-6.894 3.093h13.53m1.096 3.093h4.703m-11.404 0h4.317m-12.242 0h5.51m-5.51 3.092h19.329m-42.271 3.093h33.444m-.419 3.092h9.246m-27.769 0h14.948m-29.45 0h7.93m26.029 3.093h8.312m-25.549 0h14.145m-30.867 0h11.603m.193 3.092h16.365m-28.161 0h6.835"/></svg>