<?xml version="1.0" encoding="utf-8"?>
<!-- Generator: Adobe Illustrator 16.0.0, SVG Export Plug-In . SVG Version: 6.00 Build 0)  -->
<!DOCTYPE svg PUBLIC "-//W3C//DTD SVG 1.1//EN" "http://www.w3.org/Graphics/SVG/1.1/DTD/svg11.dtd">
<svg version="1.1" id="Слой_1" xmlns="http://www.w3.org/2000/svg" xmlns:xlink="http://www.w3.org/1999/xlink" x="0px" y="0px"
	 width="120px" height="120px" viewBox="0 0 120 120" enable-background="new 0 0 120 120" xml:space="preserve">
<g>
	<defs>
		<path id="SVGID_1_" d="M15.855,24.856C6.595,27.544,1.269,37.23,3.957,46.49c2.689,9.259,12.375,14.585,21.635,11.897
			c9.259-2.689,14.586-12.375,11.897-21.634c-2.217-7.634-9.189-12.595-16.758-12.594C19.12,24.159,17.481,24.384,15.855,24.856"/>
	</defs>
	<clipPath id="SVGID_2_">
		<use xlink:href="#SVGID_1_"  overflow="visible"/>
	</clipPath>
	
		<linearGradient id="SVGID_3_" gradientUnits="userSpaceOnUse" x1="0" y1="119.9736" x2="1" y2="119.9736" gradientTransform="matrix(33.5313 -9.7366 -9.7366 -33.5313 1172.3436 4070.25)">
		<stop  offset="0" style="stop-color:#4263EB"/>
		<stop  offset="1" style="stop-color:#1F46E7"/>
	</linearGradient>
	<polygon clip-path="url(#SVGID_2_)" fill="url(#SVGID_3_)" points="-8.617,27.029 37.152,13.738 50.064,58.204 4.294,71.494 	"/>
</g>
<g>
	<defs>
		<rect id="SVGID_4_" width="120" height="120"/>
	</defs>
	<clipPath id="SVGID_5_">
		<use xlink:href="#SVGID_4_"  overflow="visible"/>
	</clipPath>
	<path clip-path="url(#SVGID_5_)" fill="#EAEACD" d="M31.802,51.874l-14.944,4.339l-0.215-0.743
		c-0.351-1.206,0.344-2.468,1.55-2.819l10.574-3.07c1.207-0.351,2.469,0.344,2.819,1.55L31.802,51.874z"/>
	
		<rect x="16.359" y="52.705" transform="matrix(0.9603 -0.2789 0.2789 0.9603 -13.9296 8.8491)" clip-path="url(#SVGID_5_)" fill="#C8CBAC" width="15.562" height="1.365"/>
	<path clip-path="url(#SVGID_5_)" fill="#D8D7BF" d="M29.114,49.48l-11.268,3.272l-0.13-0.448c-0.138-0.477,0.136-0.975,0.613-1.114
		l9.541-2.77c0.477-0.139,0.976,0.136,1.114,0.612L29.114,49.48z"/>
	<path clip-path="url(#SVGID_5_)" fill="#EAEACD" d="M27.884,48.416l-9.569,2.779c0.434-3.727,0.343-7.302-0.271-10.724l4.325-1.256
		C23.681,42.75,25.519,45.817,27.884,48.416"/>
	<path clip-path="url(#SVGID_5_)" fill="#D8D7BF" d="M22.577,39.154l-4.741,1.377c-0.242,0.07-0.497-0.07-0.567-0.312
		c-0.07-0.242,0.07-0.497,0.312-0.567l4.741-1.377c0.241-0.07,0.497,0.07,0.567,0.312C22.959,38.829,22.819,39.084,22.577,39.154"/>
	<path clip-path="url(#SVGID_5_)" fill="#EAEACD" d="M21.461,35.309l-4.741,1.377c-0.242,0.07-0.497-0.07-0.567-0.312
		c-0.07-0.242,0.07-0.497,0.312-0.567l4.741-1.377c0.241-0.07,0.497,0.07,0.567,0.312C21.843,34.984,21.703,35.239,21.461,35.309"/>
	
		<rect x="17.363" y="35.955" transform="matrix(0.9604 -0.2787 0.2787 0.9604 -9.5556 6.8731)" clip-path="url(#SVGID_5_)" fill="#C8CBAC" width="4.061" height="2.172"/>
	<path clip-path="url(#SVGID_5_)" fill="#C8CBAC" d="M17.912,27.758c0.18,0.618-0.176,1.265-0.795,1.445
		c-0.618,0.179-1.265-0.176-1.444-0.795c-0.18-0.618,0.176-1.265,0.794-1.445C17.086,26.784,17.732,27.14,17.912,27.758"/>
	<path clip-path="url(#SVGID_5_)" fill="#C8CBAC" d="M20.309,30.527c0.415,1.43-0.407,2.925-1.837,3.341
		c-1.43,0.415-2.926-0.408-3.341-1.838c-0.415-1.429,0.408-2.925,1.837-3.34C18.398,28.275,19.894,29.097,20.309,30.527"/>
	<path clip-path="url(#SVGID_5_)" fill="#D8D7BF" d="M20.785,34.552l-3.9,1.132l-3.269-4.404c0.597-0.195,1.134-0.127,1.593,0.283
		c1.24-1.764,2.92-2.186,4.976-1.463c0.016-0.52,0.4-0.831,1.001-1.019L20.785,34.552z"/>
	<path clip-path="url(#SVGID_5_)" fill="#EAEACD" d="M22.322,38.275l-4.741,1.377c-0.242,0.07-0.497-0.07-0.567-0.312
		c-0.07-0.242,0.07-0.497,0.312-0.567l4.741-1.377c0.241-0.07,0.497,0.07,0.567,0.312C22.704,37.95,22.564,38.205,22.322,38.275"/>
</g>
<g>
	<defs>
		<path id="SVGID_6_" d="M79.273,88.491c-1.426,9.536,5.15,18.421,14.687,19.846s18.421-5.151,19.846-14.687
			c1.426-9.537-5.15-18.422-14.687-19.847c-0.875-0.131-1.743-0.193-2.602-0.193C88.017,73.611,80.567,79.829,79.273,88.491"/>
	</defs>
	<clipPath id="SVGID_7_">
		<use xlink:href="#SVGID_6_"  overflow="visible"/>
	</clipPath>
	
		<linearGradient id="SVGID_8_" gradientUnits="userSpaceOnUse" x1="0" y1="119.9824" x2="1" y2="119.9824" gradientTransform="matrix(34.533 5.159 5.159 -34.533 -539.7974 4232.4492)">
		<stop  offset="0" style="stop-color:#239B6A"/>
		<stop  offset="1" style="stop-color:#4CCD9B"/>
	</linearGradient>
	<polygon clip-path="url(#SVGID_7_)" fill="url(#SVGID_8_)" points="78.664,68.147 120.514,74.399 114.415,115.225 72.565,108.973 	
		"/>
</g>
<g>
	<defs>
		<rect id="SVGID_9_" width="120" height="120"/>
	</defs>
	<clipPath id="SVGID_10_">
		<use xlink:href="#SVGID_9_"  overflow="visible"/>
	</clipPath>
	<path clip-path="url(#SVGID_10_)" fill="#EAEACD" d="M109.942,93.072c-1.106,7.402-8.003,12.506-15.405,11.4
		c-7.401-1.105-12.506-8.002-11.4-15.405c1.105-7.402,8.003-12.506,15.404-11.399C105.944,78.773,111.048,85.671,109.942,93.072"/>
	
		<circle clip-path="url(#SVGID_10_)" fill="none" stroke="#4CCD9B" stroke-width="0.552" stroke-linecap="round" stroke-miterlimit="10" cx="96.54" cy="91.07" r="8.86"/>
	<path clip-path="url(#SVGID_10_)" fill="#239B6A" d="M98.074,91.3c-0.127,0.848-0.916,1.432-1.764,1.306
		c-0.849-0.127-1.433-0.917-1.307-1.765c0.127-0.848,0.917-1.433,1.765-1.306S98.201,90.451,98.074,91.3"/>
	
		<line clip-path="url(#SVGID_10_)" fill="none" stroke="#239B6A" stroke-width="0.552" stroke-linecap="round" stroke-miterlimit="10" x1="104.581" y1="82.338" x2="96.54" y2="91.07"/>
	
		<line clip-path="url(#SVGID_10_)" fill="none" stroke="#239B6A" stroke-width="0.662" stroke-linecap="round" stroke-miterlimit="10" x1="105.166" y1="92.359" x2="97.056" y2="91.146"/>
	<path clip-path="url(#SVGID_10_)" fill="#F2751C" d="M75.545,17.813c-2.486,9.316,3.051,18.883,12.367,21.369
		c9.314,2.486,18.883-3.051,21.369-12.366c2.485-9.316-3.052-18.884-12.367-21.37C87.598,2.959,78.031,8.496,75.545,17.813"/>
</g>
<g>
	<defs>
		<path id="SVGID_11_" d="M75.545,17.812c-1.188,4.455-0.539,8.966,1.478,12.734l30.196-17.475
			c-2.263-3.626-5.849-6.436-10.305-7.625c-1.508-0.402-3.023-0.595-4.513-0.595C84.685,4.851,77.629,10.004,75.545,17.812"/>
	</defs>
	<clipPath id="SVGID_12_">
		<use xlink:href="#SVGID_11_"  overflow="visible"/>
	</clipPath>
	
		<linearGradient id="SVGID_13_" gradientUnits="userSpaceOnUse" x1="0" y1="120" x2="1" y2="120" gradientTransform="matrix(7.5754 -28.3872 -28.3872 -7.5754 3493.1245 942.1685)">
		<stop  offset="0" style="stop-color:#F2751C"/>
		<stop  offset="1" style="stop-color:#FFC400"/>
	</linearGradient>
	<polygon clip-path="url(#SVGID_12_)" fill="url(#SVGID_13_)" points="67.955,28.838 76.541,-3.336 113.62,6.559 105.034,38.733 	
		"/>
</g>
<g>
	<defs>
		<rect id="SVGID_14_" width="120" height="120"/>
	</defs>
	<clipPath id="SVGID_15_">
		<use xlink:href="#SVGID_14_"  overflow="visible"/>
	</clipPath>
	<path clip-path="url(#SVGID_15_)" fill="#FECC4D" d="M80.108,19.03c-1.813,6.796,2.225,13.775,9.021,15.588
		c6.796,1.814,13.775-2.225,15.588-9.021c1.814-6.795-2.225-13.775-9.021-15.588C88.901,8.195,81.921,12.234,80.108,19.03"/>
	<path clip-path="url(#SVGID_15_)" fill="#F2751C" d="M97.193,24.943c0.038,0.146,0.075,0.285-0.002-0.007
		c-0.078-0.298-0.04-0.153-0.002-0.005c-0.252-0.952-0.933-1.696-1.709-2.269c-0.513-0.379-1.07-0.695-1.631-0.998l1.048-3.926
		c0.479,0.224,0.941,0.518,1.275,0.936c0.153,0.193,0.275,0.409,0.352,0.644c0.04,0.121,0.068,0.245,0.083,0.372
		c0.014,0.125,0.004,0.25,0.017,0.375c0.044,0.42,0.343,0.784,0.745,0.91c0.41,0.129,0.868-0.005,1.145-0.334
		c0.135-0.161,0.221-0.36,0.244-0.568c0.015-0.131,0.008-0.265,0.001-0.396c-0.009-0.14-0.022-0.279-0.045-0.418
		c-0.081-0.497-0.257-0.979-0.512-1.412c-0.538-0.916-1.405-1.589-2.355-2.037c-0.129-0.06-0.258-0.117-0.39-0.17l0.305-1.14
		c0.106-0.401-0.033-0.838-0.353-1.103c-0.324-0.268-0.789-0.321-1.164-0.133c-0.272,0.136-0.479,0.387-0.558,0.683l-0.306,1.146
		c-1.057-0.128-2.176-0.006-3.126,0.493c-0.445,0.233-0.843,0.552-1.162,0.94c-0.343,0.414-0.577,0.902-0.712,1.421
		c-0.134,0.51-0.178,1.049-0.076,1.569c0.096,0.494,0.32,0.949,0.624,1.348c0.622,0.82,1.52,1.4,2.404,1.9l-1.095,4.103
		c-0.45-0.266-0.854-0.62-1.127-1.071c-0.132-0.219-0.234-0.457-0.3-0.704c-0.033-0.125-0.056-0.254-0.069-0.383
		c-0.012-0.13-0.006-0.259-0.014-0.39c-0.025-0.422-0.306-0.799-0.704-0.944c-0.403-0.148-0.868-0.034-1.158,0.283
		c-0.141,0.154-0.234,0.347-0.269,0.554c-0.021,0.123-0.016,0.248-0.013,0.372c0.005,0.137,0.015,0.274,0.03,0.41
		c0.06,0.521,0.211,1.029,0.438,1.501c0.453,0.948,1.217,1.71,2.119,2.237c0.162,0.095,0.328,0.183,0.499,0.265l-0.322,1.206
		c-0.107,0.401,0.033,0.839,0.352,1.104c0.324,0.268,0.788,0.321,1.164,0.133c0.273-0.136,0.479-0.388,0.559-0.683l0.294-1.104
		c1.064,0.193,2.193,0.171,3.202-0.254c0.955-0.402,1.727-1.164,2.102-2.134C97.305,26.533,97.393,25.707,97.193,24.943
		 M92.278,20.708c-0.22-0.137-0.422-0.273-0.598-0.405c-0.211-0.158-0.413-0.332-0.585-0.531c-0.154-0.178-0.293-0.385-0.322-0.624
		c-0.032-0.25,0.026-0.52,0.114-0.754c0.087-0.233,0.232-0.436,0.421-0.598c0.504-0.433,1.24-0.532,1.881-0.5L92.278,20.708z
		 M95.051,27.121c-0.611,0.627-1.596,0.672-2.408,0.55l1.006-3.771c0.453,0.258,0.905,0.531,1.29,0.884
		c0.178,0.163,0.342,0.345,0.454,0.559c0.104,0.2,0.142,0.419,0.129,0.643C95.497,26.399,95.343,26.822,95.051,27.121"/>
	<path clip-path="url(#SVGID_15_)" fill="#4263EB" d="M94.795,40.043l-22.381-4.679c-0.261-0.024-0.499-0.172-0.618-0.406
		c-0.654-1.287-2.259-2.177-4.29-2.889H90.91c3.463,0.343,4.581,4.229,4.746,7.148C95.683,39.696,95.273,40.086,94.795,40.043"/>
	<path clip-path="url(#SVGID_15_)" fill="#EAEACD" d="M84.451,32.068H41.069c-3.938,0-7.131,3.192-7.131,7.13v56.784h44.07
		c3.558,0,6.443-2.885,6.443-6.443V42.474c0.398-5.548,0.853-10.405,6.137-10.405H84.451z"/>
	<path clip-path="url(#SVGID_15_)" fill="#C8CBAC" d="M57.613,74.334H38.864c-0.304,0-0.55-0.246-0.55-0.55V41.725
		c0-0.304,0.246-0.551,0.55-0.551h18.749c0.304,0,0.55,0.247,0.55,0.551v32.059C58.163,74.088,57.917,74.334,57.613,74.334"/>
	<path clip-path="url(#SVGID_15_)" fill="#4263EB" d="M21.291,88.094l52.324,4.679c0.263,0.024,0.5,0.173,0.619,0.406
		c0.654,1.287,2.259,2.177,4.29,2.89H25.175c-3.535-1.39-4.581-4.229-4.746-7.148C20.402,88.44,20.813,88.051,21.291,88.094"/>
	
		<line clip-path="url(#SVGID_15_)" fill="none" stroke="#C8CBAC" stroke-width="0.555" stroke-linecap="round" stroke-miterlimit="10" x1="61.256" y1="41.174" x2="80.585" y2="41.174"/>
	
		<line clip-path="url(#SVGID_15_)" fill="none" stroke="#C8CBAC" stroke-width="0.555" stroke-linecap="round" stroke-miterlimit="10" x1="76.72" y1="44.267" x2="80.585" y2="44.267"/>
	
		<line clip-path="url(#SVGID_15_)" fill="none" stroke="#C8CBAC" stroke-width="0.555" stroke-linecap="round" stroke-miterlimit="10" x1="61.256" y1="44.267" x2="73.046" y2="44.267"/>
	
		<line clip-path="url(#SVGID_15_)" fill="none" stroke="#C8CBAC" stroke-width="0.555" stroke-linecap="round" stroke-miterlimit="10" x1="61.256" y1="47.36" x2="77.733" y2="47.36"/>
	
		<line clip-path="url(#SVGID_15_)" fill="none" stroke="#C8CBAC" stroke-width="0.555" stroke-linecap="round" stroke-miterlimit="10" x1="71.758" y1="50.452" x2="80.585" y2="50.452"/>
	
		<line clip-path="url(#SVGID_15_)" fill="none" stroke="#C8CBAC" stroke-width="0.555" stroke-linecap="round" stroke-miterlimit="10" x1="61.256" y1="50.452" x2="67.764" y2="50.452"/>
	
		<line clip-path="url(#SVGID_15_)" fill="none" stroke="#C8CBAC" stroke-width="0.555" stroke-linecap="round" stroke-miterlimit="10" x1="61.256" y1="53.545" x2="72.273" y2="53.545"/>
	
		<line clip-path="url(#SVGID_15_)" fill="none" stroke="#C8CBAC" stroke-width="0.555" stroke-linecap="round" stroke-miterlimit="10" x1="77.171" y1="56.638" x2="80.586" y2="56.638"/>
	
		<line clip-path="url(#SVGID_15_)" fill="none" stroke="#C8CBAC" stroke-width="0.555" stroke-linecap="round" stroke-miterlimit="10" x1="61.256" y1="56.638" x2="72.273" y2="56.638"/>
	
		<line clip-path="url(#SVGID_15_)" fill="none" stroke="#C8CBAC" stroke-width="0.555" stroke-linecap="round" stroke-miterlimit="10" x1="71.758" y1="59.73" x2="80.585" y2="59.73"/>
	
		<line clip-path="url(#SVGID_15_)" fill="none" stroke="#C8CBAC" stroke-width="0.555" stroke-linecap="round" stroke-miterlimit="10" x1="61.256" y1="59.73" x2="67.457" y2="59.73"/>
	
		<line clip-path="url(#SVGID_15_)" fill="none" stroke="#C8CBAC" stroke-width="0.555" stroke-linecap="round" stroke-miterlimit="10" x1="61.256" y1="62.823" x2="80.585" y2="62.823"/>
	
		<line clip-path="url(#SVGID_15_)" fill="none" stroke="#C8CBAC" stroke-width="0.555" stroke-linecap="round" stroke-miterlimit="10" x1="73.82" y1="65.915" x2="80.585" y2="65.915"/>
	
		<line clip-path="url(#SVGID_15_)" fill="none" stroke="#C8CBAC" stroke-width="0.555" stroke-linecap="round" stroke-miterlimit="10" x1="61.256" y1="65.915" x2="68.15" y2="65.915"/>
	
		<line clip-path="url(#SVGID_15_)" fill="none" stroke="#C8CBAC" stroke-width="0.555" stroke-linecap="round" stroke-miterlimit="10" x1="61.256" y1="69.008" x2="74.786" y2="69.008"/>
	
		<line clip-path="url(#SVGID_15_)" fill="none" stroke="#C8CBAC" stroke-width="0.555" stroke-linecap="round" stroke-miterlimit="10" x1="75.882" y1="72.101" x2="80.585" y2="72.101"/>
	
		<line clip-path="url(#SVGID_15_)" fill="none" stroke="#C8CBAC" stroke-width="0.555" stroke-linecap="round" stroke-miterlimit="10" x1="69.181" y1="72.101" x2="73.498" y2="72.101"/>
	
		<line clip-path="url(#SVGID_15_)" fill="none" stroke="#C8CBAC" stroke-width="0.555" stroke-linecap="round" stroke-miterlimit="10" x1="61.256" y1="72.101" x2="66.766" y2="72.101"/>
	
		<line clip-path="url(#SVGID_15_)" fill="none" stroke="#C8CBAC" stroke-width="0.555" stroke-linecap="round" stroke-miterlimit="10" x1="61.256" y1="75.193" x2="80.585" y2="75.193"/>
	
		<line clip-path="url(#SVGID_15_)" fill="none" stroke="#C8CBAC" stroke-width="0.555" stroke-linecap="round" stroke-miterlimit="10" x1="38.314" y1="78.286" x2="71.758" y2="78.286"/>
	
		<line clip-path="url(#SVGID_15_)" fill="none" stroke="#C8CBAC" stroke-width="0.555" stroke-linecap="round" stroke-miterlimit="10" x1="71.339" y1="81.378" x2="80.585" y2="81.378"/>
	
		<line clip-path="url(#SVGID_15_)" fill="none" stroke="#C8CBAC" stroke-width="0.555" stroke-linecap="round" stroke-miterlimit="10" x1="52.816" y1="81.378" x2="67.764" y2="81.378"/>
	
		<line clip-path="url(#SVGID_15_)" fill="none" stroke="#C8CBAC" stroke-width="0.555" stroke-linecap="round" stroke-miterlimit="10" x1="38.314" y1="81.378" x2="46.244" y2="81.378"/>
	
		<line clip-path="url(#SVGID_15_)" fill="none" stroke="#C8CBAC" stroke-width="0.555" stroke-linecap="round" stroke-miterlimit="10" x1="72.273" y1="84.471" x2="80.585" y2="84.471"/>
	
		<line clip-path="url(#SVGID_15_)" fill="none" stroke="#C8CBAC" stroke-width="0.555" stroke-linecap="round" stroke-miterlimit="10" x1="55.036" y1="84.471" x2="69.181" y2="84.471"/>
	
		<line clip-path="url(#SVGID_15_)" fill="none" stroke="#C8CBAC" stroke-width="0.555" stroke-linecap="round" stroke-miterlimit="10" x1="38.314" y1="84.471" x2="49.917" y2="84.471"/>
	
		<line clip-path="url(#SVGID_15_)" fill="none" stroke="#C8CBAC" stroke-width="0.555" stroke-linecap="round" stroke-miterlimit="10" x1="50.11" y1="87.563" x2="66.475" y2="87.563"/>
	
		<line clip-path="url(#SVGID_15_)" fill="none" stroke="#C8CBAC" stroke-width="0.555" stroke-linecap="round" stroke-miterlimit="10" x1="38.314" y1="87.563" x2="45.149" y2="87.563"/>
</g>
</svg>
