<svg xmlns="http://www.w3.org/2000/svg" xmlns:xlink="http://www.w3.org/1999/xlink" width="120" height="120" viewBox="0 0 120 120"><path fill="#FFF" d="M0 0h120v120H0z"/><defs><path id="a" d="M0 0h120v120H0z"/></defs><clipPath id="b"><use xlink:href="#a" overflow="visible"/></clipPath><path clip-path="url(#b)" fill="none" stroke="#1F46E7" stroke-linecap="round" stroke-miterlimit="10" stroke-dasharray="1,2" d="M85.669 40.333v13.993a6.66 6.66 0 0 1-6.662 6.661H66.414a6.662 6.662 0 0 0-6.662 6.662v25.017"/><path clip-path="url(#b)" fill="none" stroke="#4CCD9B" stroke-linecap="round" stroke-miterlimit="10" stroke-dasharray="4,5" d="M28.722 39.32v10.157a7.402 7.402 0 0 0 7.401 7.401h49.324a7.401 7.401 0 0 1 7.401 7.402v27.595"/><path clip-path="url(#b)" fill="none" stroke="#F2751C" stroke-miterlimit="10" d="M61.154 71v5.111a4.723 4.723 0 0 1-4.724 4.722H34.778a4.723 4.723 0 0 0-4.723 4.723V95.5"/><path clip-path="url(#b)" fill="#F2751C" d="M9.477 94.5h28.364v17.667H9.477z"/><defs><path id="c" d="M20.758 89.25L9.477 94.5h28.364l6.986-5.25z"/></defs><clipPath id="d"><use xlink:href="#c" overflow="visible"/></clipPath><linearGradient id="e" gradientUnits="userSpaceOnUse" x1="0" y1="119.999" x2="1" y2="119.999" gradientTransform="matrix(35.3497 0 0 -35.3497 9.469 4333.839)"><stop offset="0" stop-color="#f2751c"/><stop offset="1" stop-color="#ffc400"/></linearGradient><path clip-path="url(#d)" fill="url(#e)" d="M9.477 89.25h35.35v5.25H9.477z"/><defs><path id="f" d="M37.841 94.5v17.666l6.986-5.249V89.25z"/></defs><clipPath id="g"><use xlink:href="#f" overflow="visible"/></clipPath><linearGradient id="h" gradientUnits="userSpaceOnUse" x1="0" y1="120" x2="1" y2="120" gradientTransform="matrix(6.9861 0 0 -6.9861 37.84 939.045)"><stop offset="0" stop-color="#f2751c"/><stop offset="1" stop-color="#ffc400"/></linearGradient><path clip-path="url(#g)" fill="url(#h)" d="M37.841 89.25h6.986v22.916h-6.986z"/><defs><path id="i" d="M0 0h120v120H0z"/></defs><clipPath id="j"><use xlink:href="#i" overflow="visible"/></clipPath><path clip-path="url(#j)" fill="#239B6A" d="M82.159 94.5h28.364v17.667H82.159z"/><defs><path id="k" d="M75.173 89.25l6.986 5.25h28.364l-11.28-5.25z"/></defs><clipPath id="l"><use xlink:href="#k" overflow="visible"/></clipPath><linearGradient id="m" gradientUnits="userSpaceOnUse" x1=".001" y1="119.999" x2="1.001" y2="119.999" gradientTransform="rotate(180 55.266 2166.92) scale(35.3497)"><stop offset="0" stop-color="#239b6a"/><stop offset="1" stop-color="#4ccd9b"/></linearGradient><path clip-path="url(#l)" fill="url(#m)" d="M75.173 89.25h35.351v5.25H75.173z"/><defs><path id="n" d="M75.173 106.917l6.986 5.249V94.5l-6.986-5.25z"/></defs><clipPath id="o"><use xlink:href="#n" overflow="visible"/></clipPath><linearGradient id="p" gradientUnits="userSpaceOnUse" x1="0" y1="120" x2="1" y2="120" gradientTransform="rotate(180 41.08 469.523) scale(6.9861)"><stop offset="0" stop-color="#239b6a"/><stop offset="1" stop-color="#4ccd9b"/></linearGradient><path clip-path="url(#o)" fill="url(#p)" d="M75.173 89.25h6.986v22.916h-6.986z"/><defs><path id="q" d="M70.669 28.206c0 8.284 6.716 15 15 15 8.285 0 15.001-6.716 15.001-15s-6.716-15-15.001-15c-8.284 0-15 6.716-15 15"/></defs><clipPath id="r"><use xlink:href="#q" overflow="visible"/></clipPath><linearGradient id="s" gradientUnits="userSpaceOnUse" x1="0" y1="120" x2="1" y2="120" gradientTransform="matrix(30 0 0 -30 70.672 3628.203)"><stop offset="0" stop-color="#4263eb"/><stop offset="1" stop-color="#1f46e7"/></linearGradient><path clip-path="url(#r)" fill="url(#s)" d="M70.669 13.206h30.001v30H70.669z"/><defs><path id="t" d="M0 0h120v120H0z"/></defs><clipPath id="u"><use xlink:href="#t" overflow="visible"/></clipPath><path clip-path="url(#u)" fill="#EAEACD" d="M92.354 39.32h-13.37v-.665c0-1.079.875-1.954 1.955-1.954h9.46c1.079 0 1.954.875 1.954 1.954v.665z"/><path clip-path="url(#u)" fill="#C8CBAC" d="M78.984 38.147h13.369v1.173H78.984z"/><path clip-path="url(#u)" fill="#D8D7BF" d="M90.71 36.701H80.629V36.3c0-.426.346-.772.771-.772h8.537c.426 0 .772.346.772.772v.401z"/><path clip-path="url(#u)" fill="#EAEACD" d="M89.95 35.528h-8.562c1.251-2.971 2.032-5.942 2.345-8.913h3.87c.236 3.231 1.018 6.203 2.347 8.913"/><path clip-path="url(#u)" fill="#D8D7BF" d="M87.79 26.614h-4.242a.394.394 0 0 1 0-.786h4.242a.394.394 0 0 1 0 .786"/><path clip-path="url(#u)" fill="#EAEACD" d="M87.79 23.175h-4.242a.394.394 0 0 1 0-.786h4.242a.394.394 0 0 1 0 .786"/><path clip-path="url(#u)" fill="#C8CBAC" d="M83.925 23.174h3.489v1.867h-3.489zm2.746-7.08a1.002 1.002 0 1 1-2.005-.001 1.002 1.002 0 0 1 2.005.001"/><path clip-path="url(#u)" fill="#C8CBAC" d="M87.985 18.953a2.316 2.316 0 1 1-4.632 0 2.316 2.316 0 0 1 4.632 0"/><path clip-path="url(#u)" fill="#D8D7BF" d="M87.414 22.388h-3.489l-1.643-4.418c.539-.017.967.167 1.246.616 1.446-1.159 2.934-1.104 4.457-.015.138-.426.529-.59 1.07-.601l-1.641 4.418z"/><path clip-path="url(#u)" fill="#EAEACD" d="M87.79 25.828h-4.242a.394.394 0 0 1 0-.786h4.242a.394.394 0 0 1 0 .786"/><defs><path id="v" d="M13.724 26.615c0 8.283 6.715 14.998 14.998 14.998s14.998-6.715 14.997-14.999c0-8.283-6.715-14.997-14.997-14.997-8.284 0-14.999 6.714-14.998 14.998"/></defs><clipPath id="w"><use xlink:href="#v" overflow="visible"/></clipPath><linearGradient id="x" gradientUnits="userSpaceOnUse" x1="0" y1="120" x2="1" y2="120" gradientTransform="matrix(29.9959 -.00053 -.00053 -29.9959 13.783 3626.122)"><stop offset="0" stop-color="#239b6a"/><stop offset="1" stop-color="#4ccd9b"/></linearGradient><path clip-path="url(#w)" fill="url(#x)" d="M13.723 11.617h29.998v29.996H13.723z"/><defs><path id="y" d="M0 0h120v120H0z"/></defs><clipPath id="z"><use xlink:href="#y" overflow="visible"/></clipPath><path clip-path="url(#z)" fill="#EAEACD" d="M40.364 26.614c0 6.43-5.212 11.642-11.642 11.642-6.429 0-11.642-5.212-11.642-11.642 0-6.429 5.212-11.642 11.642-11.642 6.429 0 11.642 5.212 11.642 11.642"/><circle clip-path="url(#z)" fill="none" stroke="#4CCD9B" stroke-width=".474" stroke-linecap="round" stroke-miterlimit="10" cx="28.722" cy="26.614" r="7.612"/><path clip-path="url(#z)" fill="#239B6A" d="M30.055 26.614a1.333 1.333 0 1 1-2.667 0 1.333 1.333 0 0 1 2.667 0"/><path clip-path="url(#z)" fill="none" stroke="#239B6A" stroke-width=".474" stroke-linecap="round" stroke-miterlimit="10" d="M34.445 18.174l-5.723 8.441"/><path clip-path="url(#z)" fill="none" stroke="#239B6A" stroke-width=".569" stroke-linecap="round" stroke-miterlimit="10" d="M36.215 26.614H29.17"/><path clip-path="url(#z)" fill="#F2751C" d="M45.022 57.448c-.417 8.272 5.951 15.315 14.222 15.732 8.272.417 15.316-5.95 15.733-14.222.416-8.272-5.951-15.315-14.223-15.732-8.271-.417-15.314 5.95-15.732 14.222"/><defs><path id="A" d="M45.023 57.448a14.938 14.938 0 0 0 3.526 10.432L70.78 47.782a14.948 14.948 0 0 0-10.792-4.576c-7.936-.001-14.561 6.227-14.965 14.242"/></defs><clipPath id="B"><use xlink:href="#A" overflow="visible"/></clipPath><linearGradient id="C" gradientUnits="userSpaceOnUse" x1="0" y1="119.998" x2="1" y2="119.998" gradientTransform="scale(25.2375 -25.2375) rotate(87.114 65.655 59.837)"><stop offset="0" stop-color="#f2751c"/><stop offset="1" stop-color="#ffc400"/></linearGradient><path clip-path="url(#B)" fill="url(#C)" d="M43.583 67.817L44.89 41.9l27.131 1.368-1.307 25.917z"/><defs><path id="D" d="M0 0h120v120H0z"/></defs><clipPath id="E"><use xlink:href="#D" overflow="visible"/></clipPath><path clip-path="url(#E)" fill="#FECC4D" d="M49.075 57.652c-.304 6.034 4.341 11.172 10.375 11.476 6.034.304 11.171-4.341 11.476-10.375.304-6.034-4.341-11.172-10.375-11.476-6.034-.304-11.173 4.341-11.476 10.375"/><path clip-path="url(#E)" fill="#F2751C" d="M64.487 59.554c.059.116.115.226-.002-.006-.12-.236-.063-.121-.003-.004-.382-.754-1.088-1.256-1.843-1.599-.499-.226-1.024-.392-1.55-.546l.177-3.486c.442.102.883.267 1.238.558a1.748 1.748 0 0 1 .548.775c.034.103.049.21.081.312.113.345.43.597.789.631a.927.927 0 0 0 1.005-1.007c-.011-.112-.041-.224-.07-.333a3.52 3.52 0 0 0-.112-.343 3.535 3.535 0 0 0-.683-1.094c-.617-.673-1.466-1.083-2.346-1.288a6.066 6.066 0 0 0-.356-.073l.051-1.013a.927.927 0 0 0-.494-.863.925.925 0 0 0-1.348.771l-.051 1.017c-.91.083-1.828.386-2.537.975a3.256 3.256 0 0 0-.808.999 3.148 3.148 0 0 0-.343 1.321c-.02.453.04.913.218 1.332.169.397.44.739.765 1.02.67.578 1.528.904 2.362 1.165l-.184 3.643c-.425-.144-.83-.368-1.139-.697a2.379 2.379 0 0 1-.378-.539 2.027 2.027 0 0 1-.127-.309c-.034-.106-.052-.217-.082-.324a.927.927 0 0 0-.76-.668.924.924 0 0 0-1.049.96c.006.105.032.211.057.314a4.084 4.084 0 0 0 .734 1.522c.552.715 1.33 1.218 2.183 1.499.153.051.309.095.466.133l-.054 1.071a.931.931 0 0 0 .494.864.928.928 0 0 0 1.001-.098.932.932 0 0 0 .346-.674l.05-.979c.928-.029 1.873-.25 2.644-.788a3.298 3.298 0 0 0 1.382-2.17c.107-.665.033-1.375-.272-1.981m-4.888-2.676a7.31 7.31 0 0 1-.576-.233 3.09 3.09 0 0 1-.586-.341c-.161-.122-.315-.271-.383-.466a1.419 1.419 0 0 1-.039-.654c.032-.212.117-.408.247-.578.346-.454.946-.669 1.49-.757l-.153 3.029zm3.479 4.89c-.401.636-1.219.851-1.924.895l.168-3.349c.427.135.855.283 1.243.511.178.105.349.228.48.388.123.148.195.326.225.517.054.352.001.734-.192 1.038"/><path clip-path="url(#E)" fill="#1F46E7" d="M48.628 89.25h22.745v22.917H48.628z"/><defs><path id="F" d="M41.584 94.5h36.833v17.666H41.584z"/></defs><clipPath id="G"><use xlink:href="#F" overflow="visible"/></clipPath><linearGradient id="H" gradientUnits="userSpaceOnUse" x1="0" y1="120" x2="1" y2="120" gradientTransform="matrix(0 -17.6667 -17.6667 0 2180 112.172)"><stop offset="0" stop-color="#1f46e7"/><stop offset="1" stop-color="#4263eb"/></linearGradient><path clip-path="url(#G)" fill="url(#H)" d="M41.584 94.5h36.833v17.666H41.584z"/></svg>