<svg xmlns="http://www.w3.org/2000/svg" xmlns:xlink="http://www.w3.org/1999/xlink" width="120" height="120" viewBox="0 0 120 120"><defs><path id="a" d="M88.618 57.986l-1.254-1.253 1.254 1.253zm-1.936-1.253l-7.486 7.486c-.933.933-.589 2.51.642 2.982 1.125.432 2.145.996 2.749 1.601 1.761 1.763 1.318 4.104-.4 5.821-1.717 1.717-4.059 2.16-5.819.399-.612-.612-1.2-1.631-1.651-2.755a1.808 1.808 0 0 0-2.959-.608l-7.434 7.433a.483.483 0 0 0 0 .684l7.433 7.433c.92.92 2.478.598 2.96-.609.451-1.123 1.039-2.141 1.651-2.753 1.761-1.761 4.103-1.317 5.819.399 1.719 1.718 2.161 4.06.4 5.821-.604.604-1.624 1.168-2.748 1.6-1.231.473-1.575 2.05-.643 2.983l7.486 7.485a.484.484 0 0 0 .683 0l7.434-7.434a1.81 1.81 0 0 1 2.96.608c.45 1.124 1.038 2.143 1.651 2.755 1.761 1.762 4.103 1.318 5.819-.399 1.718-1.718 2.16-4.059.399-5.821-.604-.604-1.624-1.168-2.748-1.6-1.23-.472-1.575-2.05-.642-2.982l7.828-7.828-7.828-7.826c-.934-.934-.589-2.512.642-2.983 1.125-.432 2.144-.996 2.748-1.601 1.761-1.762 1.318-4.104-.399-5.82-1.717-1.718-4.059-2.161-5.819-.4-.613.613-1.201 1.631-1.651 2.754a1.81 1.81 0 0 1-2.96.61l-7.434-7.434a.483.483 0 0 0-.683-.001m.682 0l-.341-.341.341.341z"/></defs><clipPath id="b"><use xlink:href="#a" overflow="visible"/></clipPath><linearGradient id="c" gradientUnits="userSpaceOnUse" x1="0" y1="120" x2="1" y2="120" gradientTransform="matrix(45.8846 0 0 -45.8846 64.188 5585.497)"><stop offset="0" stop-color="#4263eb"/><stop offset="1" stop-color="#1f46e7"/></linearGradient><path clip-path="url(#b)" fill="url(#c)" d="M64.133 56.392h45.934v45.931H64.133z"/><defs><path id="d" d="M0 0h120v120H0z"/></defs><clipPath id="e"><use xlink:href="#d" overflow="visible"/></clipPath><path clip-path="url(#e)" fill="#1F46E7" d="M71.756 87.209a1.81 1.81 0 0 0 2.96-.609c.45-1.124 1.038-2.142 1.649-2.754 1.763-1.761 4.104-1.318 5.821.399 1.718 1.718 2.16 4.06.399 5.82-.605.605-1.623 1.168-2.748 1.601-1.231.473-1.575 2.05-.643 2.982l7.486 7.486a.482.482 0 0 0 .683 0l7.434-7.434a1.81 1.81 0 0 1 2.96.609c.451 1.123 1.038 2.142 1.65 2.753 1.762 1.763 4.104 1.319 5.82-.398 1.718-1.717 2.161-4.06.399-5.82-.605-.604-1.623-1.169-2.748-1.601-1.231-.473-1.574-2.051-.643-2.983l7.828-7.827c-17.311-5.477-29.78-2.348-38.307 7.776"/><defs><path id="f" d="M32.636 59.471l-7.434 7.434a1.809 1.809 0 0 1-2.959-.609c-.451-1.123-1.039-2.142-1.651-2.754-1.761-1.761-4.103-1.318-5.821.4-1.717 1.717-2.16 4.059-.399 5.819.605.605 1.624 1.169 2.748 1.601 1.232.473 1.575 2.05.642 2.982l-7.827 7.827 7.827 7.827c.933.934.59 2.511-.642 2.984-1.124.431-2.143.994-2.748 1.6-1.761 1.761-1.318 4.103.399 5.82 1.718 1.719 4.06 2.161 5.821.399.612-.612 1.2-1.631 1.651-2.754a1.809 1.809 0 0 1 2.959-.608l7.775 7.774-1.595-1.595 1.254 1.254a.483.483 0 0 0 .682 0l7.486-7.487c.934-.932.59-2.51-.641-2.981-1.125-.433-2.143-.995-2.748-1.601-1.762-1.762-1.319-4.104.399-5.82 1.717-1.719 4.058-2.16 5.82-.399.613.612 1.2 1.63 1.65 2.754a1.81 1.81 0 0 0 2.961.608l7.433-7.434a.482.482 0 0 0 0-.683l-7.433-7.433a1.81 1.81 0 0 0-2.961.608c-.451 1.123-1.038 2.142-1.65 2.753-1.762 1.763-4.103 1.319-5.82-.397-1.718-1.72-2.161-4.061-.399-5.822.605-.604 1.623-1.168 2.748-1.6 1.231-.473 1.574-2.051.641-2.982l-7.486-7.487a.482.482 0 0 0-.682.002"/></defs><clipPath id="g"><use xlink:href="#f" overflow="visible"/></clipPath><linearGradient id="h" gradientUnits="userSpaceOnUse" x1=".001" y1="120" x2="1.002" y2="120" gradientTransform="matrix(45.8846 0 0 -45.8846 9.938 5588.434)"><stop offset="0" stop-color="#239b6a"/><stop offset="1" stop-color="#4ccd9b"/></linearGradient><path clip-path="url(#g)" fill="url(#h)" d="M9.935 59.33h45.932v45.885H9.935z"/><defs><path id="i" d="M0 0h120v120H0z"/></defs><clipPath id="j"><use xlink:href="#i" overflow="visible"/></clipPath><path clip-path="url(#j)" fill="#239B6A" d="M17.762 90c.933.933.59 2.51-.642 2.982-1.125.433-2.143.995-2.748 1.601-1.761 1.762-1.318 4.103.399 5.82 1.718 1.718 4.059 2.16 5.821.399.612-.612 1.2-1.63 1.65-2.754a1.81 1.81 0 0 1 2.96-.609l7.775 7.775-1.595-1.595 1.254 1.254a.483.483 0 0 0 .682 0l7.486-7.486c.933-.933.59-2.511-.642-2.983-1.124-.432-2.143-.994-2.748-1.6-1.761-1.762-1.318-4.104.399-5.821 1.718-1.718 4.06-2.16 5.821-.398.612.611 1.2 1.63 1.651 2.754a1.809 1.809 0 0 0 2.959.608C40.692 80.21 25.525 80.21 17.762 90"/><defs><path id="k" d="M36.927 39.222l-1.187-1.188-.407-.406 1.594 1.594zm21.107-24.295L50.6 22.36a1.81 1.81 0 0 0 .609 2.96c1.123.451 2.142 1.039 2.754 1.651 1.761 1.761 1.319 4.103-.399 5.82-1.718 1.718-4.059 2.161-5.821.399-.605-.605-1.168-1.623-1.6-2.748-.472-1.231-2.05-1.574-2.983-.642l-7.486 7.486a.482.482 0 0 0 0 .683l.066.065 7.367 7.369a1.81 1.81 0 0 1-.608 2.96c-1.124.45-2.142 1.037-2.754 1.649-1.761 1.762-1.319 4.103.399 5.822 1.718 1.717 4.06 2.16 5.821.398.605-.604 1.168-1.623 1.6-2.747.473-1.232 2.05-1.575 2.983-.642l7.827 7.827 7.827-7.828c.933-.932 2.51-.589 2.983.643.432 1.124.994 2.143 1.601 2.747 1.761 1.762 4.103 1.319 5.82-.398 1.717-1.719 2.159-4.06.398-5.822-.612-.612-1.63-1.199-2.753-1.649a1.81 1.81 0 0 1-.609-2.96l7.434-7.434a.484.484 0 0 0 0-.683L73.59 29.8c-.933-.932-2.511-.589-2.982.643-.432 1.124-.996 2.143-1.601 2.747-1.762 1.762-4.103 1.319-5.821-.399-1.718-1.717-2.16-4.059-.398-5.82.613-.612 1.63-1.2 2.754-1.651a1.81 1.81 0 0 0 .609-2.96l-7.435-7.433a.478.478 0 0 0-.682 0"/></defs><clipPath id="l"><use xlink:href="#k" overflow="visible"/></clipPath><linearGradient id="m" gradientUnits="userSpaceOnUse" x1="0" y1="119.999" x2="1" y2="119.999" gradientTransform="matrix(45.8846 0 0 -45.8846 35.344 5543.874)"><stop offset="0" stop-color="#f2751c"/><stop offset="1" stop-color="#ffc400"/></linearGradient><path clip-path="url(#l)" fill="url(#m)" d="M35.333 14.785h45.932V60.67H35.333z"/><defs><path id="n" d="M0 0h120v120H0z"/></defs><clipPath id="o"><use xlink:href="#n" overflow="visible"/></clipPath><path clip-path="url(#o)" fill="#F2751C" d="M81.076 37.286a.484.484 0 0 1 0 .683l-7.435 7.433a1.81 1.81 0 0 0 .609 2.96c1.124.451 2.142 1.038 2.754 1.651 1.762 1.761 1.319 4.103-.398 5.82-1.718 1.718-4.06 2.161-5.821.399-.604-.605-1.168-1.623-1.601-2.748-.472-1.231-2.05-1.575-2.982-.642l-7.827 7.828-7.827-7.828c-.933-.932-2.511-.589-2.983.642-.432 1.125-.996 2.143-1.6 2.748-1.762 1.762-4.104 1.319-5.821-.399-1.718-1.717-2.16-4.059-.399-5.82.612-.613 1.63-1.2 2.754-1.651a1.81 1.81 0 0 0 .609-2.96c10.754-7.068 23.862-8.736 37.968-8.116"/></svg>