<svg xmlns="http://www.w3.org/2000/svg" xmlns:xlink="http://www.w3.org/1999/xlink" width="120" height="120" viewBox="0 0 120 120"><defs><path id="a" d="M50.275 61.128c-4.714 8.05-9.302 23.022-12.016 26.211a1.292 1.292 0 0 0 .465 1.37l10.957 9.589c4.037-4.795 12.28-11.216 11.603-21.625.104-.42-5.099-1.764-5.391-2.083l-1.022-10.796c-.594-.647-2.787-2.844-4.068-2.844a.797.797 0 0 0-.528.178"/></defs><clipPath id="b"><use xlink:href="#a" overflow="visible"/></clipPath><linearGradient id="c" gradientUnits="userSpaceOnUse" x1="0" y1="120.002" x2="1" y2="120.002" gradientTransform="rotate(131.402 882.815 1973.625) scale(32.0898)"><stop offset="0" stop-color="#4ccd9b"/><stop offset="1" stop-color="#239b6a"/></linearGradient><path clip-path="url(#b)" fill="url(#c)" d="M48.547 49.124L19.593 81.963l31.941 28.162 28.954-32.84z"/><defs><path id="d" d="M0 0h120v120H0z"/></defs><clipPath id="e"><use xlink:href="#d" overflow="visible"/></clipPath><path clip-path="url(#e)" fill="#4CCD9B" d="M52.66 58.413c11.679-8.864 27.442-10.092 42.005-.957 12.015 12.3-6.192 35.14-2.715 53.163H51.629c-2.37-21.87-3.93-27.099-2.036-46.683a7.878 7.878 0 0 1 3.067-5.523"/><path clip-path="url(#e)" fill="#EAEACD" d="M44.146 29.83c1.071 9.182 3.302 15.362 8.06 20.822a5.01 5.01 0 0 0 5.34 1.455l.049-.016c1.414-.42 1.958-.899 1.958-.899-.112 1.495-.057 3.462.098 5.712.013.411.112.816.29 1.187 3.906 8.148 15.045 3.013 17.596-3.379.382-.956.376-2.023.046-2.998C75.875 44.742 61.5 20.75 61.769 21.698L44.146 29.83z"/><path clip-path="url(#e)" fill="#4263EB" d="M46.336 23.125l12.262-7.212c6.62-2.114 12.342 1.423 14.364 8.031 2.037 6.66 2.554 13.459 1.401 20.41a1.024 1.024 0 0 1-1.649.631l-2.542-5.379c.975-.876 1.568-2.446 1.451-4.195-.174-2.594-1.323-3.777-3.202-3.651-1.061.071-1.806 1.115-2.401 2.182-.234.421-1.12.121-1.216-1.178l-.408-1.664c-.98-4.013-5.282-6.235-9.123-4.712l-10.036 2.72c-5.747-1.097-5.853-3.847 1.099-5.983"/><path clip-path="url(#e)" fill="none" stroke="#C8CBAC" stroke-width=".406" stroke-linecap="round" stroke-miterlimit="10" d="M65.067 43.68c-.309 2.819-1.746 5.418-5.94 7.48"/><path clip-path="url(#e)" fill="#4263EB" d="M64.729 25.688c-3.249 2.808-3.807.009-6.434.444-5.582 1.421-7.122 4.241-13.681 6.253-3.576.854-6.554-1.682-6.395-5.317.245-3.126 3.307-4.168 5.413-3.35 1.642-3.648 4.627-6.439 8.364-7.388 5.791-1.472 13 .731 16.815 5.238l-4.082 4.12z"/><defs><path id="f" d="M86.324 57.099c-2.259.413-3.221 3.523-2.08 7.193 4.533 12.893 7.945 27.808 10.689 43.926.512 1.994 2.13 3.718 3.929 4.187 2.03.526 7.704-.301 8.765-2.077 3.677-6.162-2.044-33.162-7.482-46.003-1.724-4.071-4.345-7.698-9.143-7.752l-.083-.001c-1.498-.001-3.018.239-4.595.527"/></defs><clipPath id="g"><use xlink:href="#f" overflow="visible"/></clipPath><linearGradient id="h" gradientUnits="userSpaceOnUse" x1="0" y1="119.991" x2="1" y2="119.991" gradientTransform="scale(-49.9482 49.9482) rotate(-56.645 -110.362 63.309)"><stop offset="0" stop-color="#f1b827"/><stop offset="1" stop-color="#fecc4d"/></linearGradient><path clip-path="url(#g)" fill="url(#h)" d="M91.629 125.882L57.22 73.609l45.558-29.989 34.41 52.273z"/><defs><path id="i" d="M0 0h120v120H0z"/></defs><clipPath id="j"><use xlink:href="#i" overflow="visible"/></clipPath><path clip-path="url(#j)" fill="#1F46E7" d="M35.444 110.551l31.788.067a2.076 2.076 0 0 0 2.037-2.498l-4.618-22.281c-.173-.833-.871-1.372-1.78-1.373l-32.525-.07c-2.434-.005-2.524.879-2.205 2.488l4.418 21.313a2.954 2.954 0 0 0 2.885 2.354"/><path clip-path="url(#j)" fill="#4263EB" d="M33.68 110.547l31.789.068a2.076 2.076 0 0 0 2.036-2.498l-4.617-22.282c-.174-.833-.871-1.372-1.78-1.373l-32.525-.07c-2.434-.005-2.524.879-2.205 2.488l4.418 21.313a2.951 2.951 0 0 0 2.884 2.354"/><path clip-path="url(#j)" fill="#3054E9" d="M33.68 110.547l31.789.068a2.076 2.076 0 0 0 2.036-2.498l-3.53-17.037c-12.732 3.08-24.937 8.25-30.295 19.467"/><path clip-path="url(#j)" fill="#EAEACD" d="M61.481 93.337l-3.148-1.444a2.907 2.907 0 0 0-.847-.161l-2.955-.111a.433.433 0 0 0-.425.285l-.054.15a.79.79 0 0 0 .535 1.033l2.065.575c.13.035.253.094.365.17l2.381 2.142 2.083-2.639z"/><path clip-path="url(#j)" fill="#EAEACD" d="M56.3 97.048c-.632 2.249.879 4.874 3.214 5.53a5.316 5.316 0 0 1 3.593-.172l37.693 11.553c2.335.656 5.256-2.14 6.025-5.146.6-2.747-.919-5.697-3.254-6.354L63.02 94.313l-1.539-.977c-2.335-.654-4.549 1.463-5.181 3.712"/><path clip-path="url(#j)" fill="#EAEACD" d="M65.038 97.401c-2.394-2.131-5.457-3.137-9.685-2.183l-8.027 2.177c-1.048.284-1.267 1.773-.36 2.453l5.369 4.018c1.17.875 2.632 1.134 3.966.702l6.735-2.182 2.002-4.985zm1.168-61.926c-.127 2.49 1.233 4.583 3.037 4.675 1.805.092 3.371-1.851 3.498-4.341.127-2.49-1.233-4.583-3.037-4.675-1.805-.092-3.371 1.851-3.498 4.341"/><path clip-path="url(#j)" fill="#FFF" d="M94.894 107.78a6.622 6.622 0 0 0 6.621 6.621 6.622 6.622 0 1 0-6.621-6.621"/><defs><path id="k" d="M86.324 57.099c-2.259.413-5.662 4.875-4.522 8.544 1.961 12.999 6.5 21.5 11.57 33.938l-27.264-5.063c-1.095 1.231-2.225 5.887-1.308 8.797 0 0 30.334 10.74 36.713 11.086 2.747.148 5.11-1.68 6.11-4.069l.003-.004c3.677-6.162-2.044-33.162-7.482-46.003-1.724-4.071-4.219-7.013-9.25-8.992a1.39 1.39 0 0 0-.515-.096c-1.275-.001-2.641 1.604-4.055 1.862"/></defs><clipPath id="l"><use xlink:href="#k" overflow="visible"/></clipPath><linearGradient id="m" gradientUnits="userSpaceOnUse" x1="0" y1="120.061" x2="1" y2="120.061" gradientTransform="rotate(-128.08 -1374.928 3024.473) scale(49.8803)"><stop offset="0" stop-color="#239b6a"/><stop offset="1" stop-color="#4ccd9b"/></linearGradient><path clip-path="url(#l)" fill="url(#m)" d="M140.1 91.986L93.266 32.214 35.088 77.799l46.835 59.771z"/><defs><path id="n" d="M0 0h120v120H0z"/></defs><clipPath id="o"><use xlink:href="#n" overflow="visible"/></clipPath><path clip-path="url(#o)" fill="#F2751C" d="M7.747 62.94c1.458 6.746 8.109 11.033 14.855 9.576 6.747-1.458 11.034-8.109 9.576-14.856-1.458-6.746-8.109-11.033-14.856-9.575-6.746 1.458-11.033 8.109-9.575 14.855"/><defs><path id="p" d="M17.322 48.085c-6.746 1.458-11.033 8.109-9.575 14.855a12.444 12.444 0 0 0 5.099 7.63l13.53-20.991a12.468 12.468 0 0 0-9.054-1.494"/></defs><clipPath id="q"><use xlink:href="#p" overflow="visible"/></clipPath><linearGradient id="r" gradientUnits="userSpaceOnUse" x1="0" y1="120.064" x2="1" y2="120.064" gradientTransform="scale(-21.032 21.032) rotate(-77.805 -72.789 62.226)"><stop offset="0" stop-color="#f2751c"/><stop offset="1" stop-color="#ffc400"/></linearGradient><path clip-path="url(#q)" fill="url(#r)" d="M7.185 74.718L1.588 48.817l23.891-5.163 5.598 25.9z"/><defs><path id="s" d="M0 0h120v120H0z"/></defs><clipPath id="t"><use xlink:href="#s" overflow="visible"/></clipPath><path clip-path="url(#t)" fill="#FECC4D" d="M11.051 62.227a9.115 9.115 0 0 0 10.837 6.984 9.118 9.118 0 1 0-10.837-6.984"/><path clip-path="url(#t)" fill="#F2751C" d="M23.866 60.415c.072.08.141.156-.003-.005-.148-.163-.076-.084-.003-.003-.472-.523-1.149-.774-1.83-.887a9.732 9.732 0 0 0-1.365-.104l-.614-2.843c.379-.014.768.023 1.118.18a1.407 1.407 0 0 1 .609.506c.049.075.084.158.133.233a.777.777 0 0 0 .772.337.774.774 0 0 0 .619-.587.755.755 0 0 0-.03-.441 1.715 1.715 0 0 0-.128-.253 2.935 2.935 0 0 0-.952-.984c-.642-.408-1.414-.554-2.166-.528a5.029 5.029 0 0 0-.303.018l-.179-.825a.773.773 0 0 0-.584-.588.771.771 0 0 0-.918.912l.18.83c-.715.264-1.388.707-1.831 1.335a2.612 2.612 0 0 0-.423 2.116c.082.369.23.726.464 1.025.222.283.515.499.837.655.665.319 1.426.395 2.153.425l.642 2.971a2.277 2.277 0 0 1-1.067-.313 1.895 1.895 0 0 1-.59-.573c-.051-.079-.089-.163-.137-.244a.776.776 0 0 0-.756-.372.776.776 0 0 0-.646.559.775.775 0 0 0 .01.44c.027.085.071.164.114.242a3.377 3.377 0 0 0 .921 1.064c.598.456 1.334.691 2.081.733.134.008.269.01.404.005l.189.874c.062.29.294.524.584.589a.778.778 0 0 0 .785-.296.766.766 0 0 0 .132-.616l-.172-.801c.741-.224 1.453-.606 1.957-1.207a2.744 2.744 0 0 0 .641-2.046c-.058-.557-.272-1.112-.648-1.533m-4.513-1.093a6.077 6.077 0 0 1-.514-.063 2.621 2.621 0 0 1-.546-.147c-.156-.063-.313-.15-.409-.293a1.16 1.16 0 0 1-.173-.517 1.036 1.036 0 0 1 .073-.519c.179-.44.616-.744 1.035-.932l.534 2.471zm3.859 3.18c-.185.599-.796.948-1.355 1.137l-.59-2.731c.373.017.75.043 1.111.143.166.045.33.107.471.208a.86.86 0 0 1 .292.367c.12.27.159.59.071.876"/><defs><path id="u" d="M89.803 19.476c-1.213 6.795 3.313 13.287 10.108 14.499 6.795 1.213 13.287-3.314 14.499-10.108 1.212-6.795-3.313-13.286-10.108-14.5a12.613 12.613 0 0 0-2.21-.196c-5.941 0-11.209 4.253-12.289 10.305"/></defs><clipPath id="v"><use xlink:href="#u" overflow="visible"/></clipPath><linearGradient id="w" gradientUnits="userSpaceOnUse" x1="0" y1="119.978" x2="1" y2="119.978" gradientTransform="scale(24.9958 -24.9958) rotate(-10.117 -680.439 39.318)"><stop offset="0" stop-color="#4263eb"/><stop offset="1" stop-color="#1f46e7"/></linearGradient><path clip-path="url(#v)" fill="url(#w)" d="M89.424 4.497l30.697 5.477-5.333 29.889-30.697-5.478z"/><defs><path id="x" d="M0 0h120v120H0z"/></defs><clipPath id="y"><use xlink:href="#x" overflow="visible"/></clipPath><path clip-path="url(#y)" fill="#EAEACD" d="M105.963 31.766l-10.966-1.957.097-.545a1.629 1.629 0 0 1 1.889-1.317l7.761 1.385a1.626 1.626 0 0 1 1.316 1.889l-.097.545z"/><path transform="rotate(10.12 100.56 30.304)" clip-path="url(#y)" fill="#C8CBAC" d="M94.996 29.818h11.139v.977H94.996z"/><path clip-path="url(#y)" fill="#D8D7BF" d="M104.997 29.377l-8.269-1.475.059-.329a.642.642 0 0 1 .746-.52l7.002 1.249a.643.643 0 0 1 .521.746l-.059.329z"/><path clip-path="url(#y)" fill="#EAEACD" d="M104.546 28.304l-7.022-1.253c1.461-2.254 2.537-4.577 3.229-6.968l3.175.567c-.282 2.684-.076 5.236.618 7.654"/><path clip-path="url(#y)" fill="#D8D7BF" d="M104.079 20.676l-3.479-.621a.328.328 0 0 1 .115-.645l3.479.621a.329.329 0 0 1 .266.38.33.33 0 0 1-.381.265"/><path clip-path="url(#y)" fill="#EAEACD" d="M104.582 17.855l-3.479-.621a.328.328 0 0 1 .114-.645l3.479.621a.328.328 0 0 1-.114.645"/><path transform="rotate(10.12 102.718 18.313)" clip-path="url(#y)" fill="#C8CBAC" d="M101.252 17.532h2.907v1.555h-2.907z"/><path clip-path="url(#y)" fill="#C8CBAC" d="M104.7 11.883a.834.834 0 1 1-1.642-.292.834.834 0 0 1 1.642.292"/><path clip-path="url(#y)" fill="#C8CBAC" d="M105.36 14.42a1.931 1.931 0 1 1-3.802-.68 1.931 1.931 0 0 1 3.802.68"/><path clip-path="url(#y)" fill="#D8D7BF" d="M104.389 17.155l-2.862-.511-.7-3.864c.445.065.769.279.933.688 1.354-.739 2.566-.477 3.658.64.175-.329.52-.407.965-.336l-1.994 3.383z"/><path clip-path="url(#y)" fill="#EAEACD" d="M104.193 20.031l-3.479-.621a.328.328 0 0 1 .115-.645l3.479.621a.33.33 0 0 1 .266.38.33.33 0 0 1-.381.265"/><defs><path id="z" d="M83.349 27.363a2.264 2.264 0 0 0 4.527 0 2.263 2.263 0 1 0-4.527 0"/></defs><clipPath id="A"><use xlink:href="#z" overflow="visible"/></clipPath><linearGradient id="B" gradientUnits="userSpaceOnUse" x1="0" y1="120.001" x2="1" y2="120.001" gradientTransform="scale(4.0124 -4.0124) rotate(51.919 141.23 77.851)"><stop offset="0" stop-color="#4263eb"/><stop offset="1" stop-color="#1f46e7"/></linearGradient><path clip-path="url(#A)" fill="url(#B)" d="M81.151 27.904l3.919-5.001 5.002 3.919-3.919 5.001z"/><defs><path id="C" d="M78.818 32.959a1.628 1.628 0 1 0 3.256 0 1.628 1.628 0 0 0-3.256 0"/></defs><clipPath id="D"><use xlink:href="#C" overflow="visible"/></clipPath><linearGradient id="E" gradientUnits="userSpaceOnUse" x1="0" y1="120" x2="1" y2="120" gradientTransform="scale(2.8868 -2.8868) rotate(51.919 149.217 82.26)"><stop offset="0" stop-color="#4263eb"/><stop offset="1" stop-color="#1f46e7"/></linearGradient><path clip-path="url(#D)" fill="url(#E)" d="M77.237 33.349l2.82-3.599 3.597 2.819-2.819 3.599z"/><defs><path id="F" d="M16.334 4.17c-6.855.81-11.757 7.025-10.947 13.881.811 6.856 7.026 11.756 13.881 10.946 6.856-.81 11.757-7.024 10.947-13.88-.751-6.358-6.15-11.035-12.399-11.035-.489 0-.984.029-1.482.088"/></defs><clipPath id="G"><use xlink:href="#F" overflow="visible"/></clipPath><linearGradient id="H" gradientUnits="userSpaceOnUse" x1="0" y1="119.986" x2="1" y2="119.986" gradientTransform="scale(25 -25) rotate(6.74 1025.2 61.47)"><stop offset="0" stop-color="#239b6a"/><stop offset="1" stop-color="#4ccd9b"/></linearGradient><path clip-path="url(#G)" fill="url(#H)" d="M1.579 4.437L30.661 1l3.362 28.453L4.941 32.89z"/><defs><path id="I" d="M0 0h120v120H0z"/></defs><clipPath id="J"><use xlink:href="#I" overflow="visible"/></clipPath><path clip-path="url(#J)" fill="#EAEACD" d="M27.437 15.445c.629 5.322-3.175 10.146-8.497 10.775-5.322.628-10.146-3.176-10.775-8.498-.629-5.321 3.176-10.145 8.497-10.774 5.322-.629 10.146 3.175 10.775 8.497"/><circle clip-path="url(#J)" fill="none" stroke="#4CCD9B" stroke-width=".395" stroke-linecap="round" stroke-miterlimit="10" cx="17.801" cy="16.584" r="6.344"/><path clip-path="url(#J)" fill="#239B6A" d="M18.905 16.454a1.112 1.112 0 1 1-2.208.26 1.112 1.112 0 0 1 2.208-.26"/><path clip-path="url(#J)" fill="none" stroke="#239B6A" stroke-width=".395" stroke-linecap="round" stroke-miterlimit="10" d="M21.713 9.038l-3.912 7.546"/><path clip-path="url(#J)" fill="none" stroke="#239B6A" stroke-width=".474" stroke-linecap="round" stroke-miterlimit="10" d="M24.003 15.851l-5.83.689"/><path clip-path="url(#J)" fill="#4CCD9B" d="M36.398 11.156a2.263 2.263 0 1 1-4.52-.225 2.263 2.263 0 0 1 4.52.225m6.507 2.806a1.407 1.407 0 1 1-2.81-.139 1.407 1.407 0 0 1 2.81.139"/><path clip-path="url(#J)" fill="#F2751C" d="M39.456 54.959a2.263 2.263 0 1 1-2.484 3.783 2.263 2.263 0 0 1 2.484-3.783m6.871-4.976a1.408 1.408 0 1 1-1.546 2.354 1.408 1.408 0 0 1 1.546-2.354"/></svg>