<svg xmlns="http://www.w3.org/2000/svg" xmlns:xlink="http://www.w3.org/1999/xlink" width="120" height="120" viewBox="0 0 120 120"><defs><path id="a" d="M44.141 58.818c-4.716 8.05-9.303 23.022-12.017 26.211a1.291 1.291 0 0 0 .466 1.369l10.956 9.59c4.037-4.795 12.281-11.217 11.603-21.625.104-.42-5.099-1.765-5.392-2.084l-1.021-10.795c-.594-.649-2.787-2.844-4.068-2.844a.787.787 0 0 0-.527.178"/></defs><clipPath id="b"><use xlink:href="#a" overflow="visible"/></clipPath><linearGradient id="c" gradientUnits="userSpaceOnUse" x1="0" y1="120.004" x2="1" y2="120.004" gradientTransform="rotate(131.402 880.274 1971.087) scale(32.0898)"><stop offset="0" stop-color="#4ccd9b"/><stop offset="1" stop-color="#239b6a"/></linearGradient><path clip-path="url(#b)" fill="url(#c)" d="M42.413 46.813l-28.955 32.84 31.941 28.162 28.955-32.84z"/><defs><path id="d" d="M0 0h120v120H0z"/></defs><clipPath id="e"><use xlink:href="#d" overflow="visible"/></clipPath><path clip-path="url(#e)" fill="#4CCD9B" d="M46.525 56.103c11.679-8.864 27.442-10.092 42.005-.957 12.015 12.3-6.192 35.14-2.715 53.162H45.494c-2.37-21.87-3.93-27.098-2.036-46.682a7.876 7.876 0 0 1 3.067-5.523"/><path clip-path="url(#e)" fill="#EAEACD" d="M38.011 27.519c1.071 9.182 3.302 15.362 8.06 20.822a5.01 5.01 0 0 0 5.34 1.455l.049-.016c1.414-.42 1.958-.899 1.958-.899-.112 1.495-.057 3.462.098 5.712.013.411.112.816.29 1.187 3.906 8.147 15.045 3.013 17.596-3.379.382-.956.376-2.023.046-2.998-1.708-6.971-16.083-30.964-15.815-30.015l-17.622 8.131z"/><path clip-path="url(#e)" fill="#4263EB" d="M40.201 20.815l12.262-7.212c6.62-2.114 12.342 1.423 14.364 8.031 2.037 6.66 2.554 13.459 1.4 20.41a1.023 1.023 0 0 1-1.648.631l-2.542-5.379c.975-.876 1.568-2.446 1.451-4.195-.174-2.594-1.323-3.777-3.203-3.651-1.06.071-1.805 1.115-2.4 2.182-.235.421-1.12.121-1.216-1.178l-.407-1.665c-.981-4.013-5.282-6.235-9.123-4.712l-10.036 2.72c-5.748-1.097-5.854-3.847 1.098-5.982"/><path clip-path="url(#e)" fill="none" stroke="#C8CBAC" stroke-width=".406" stroke-linecap="round" stroke-miterlimit="10" d="M58.933 41.369c-.309 2.819-1.746 5.418-5.94 7.48"/><path clip-path="url(#e)" fill="#4263EB" d="M58.595 23.378c-3.249 2.808-3.807.009-6.434.444-5.582 1.421-7.122 4.241-13.681 6.253-3.576.854-6.554-1.682-6.395-5.317.245-3.126 3.307-4.168 5.413-3.35 1.642-3.648 4.627-6.439 8.364-7.388 5.791-1.472 12.999.731 16.815 5.238l-4.082 4.12z"/><defs><path id="f" d="M80.19 54.789c-2.26.413-3.221 3.523-2.081 7.192 4.533 12.894 7.944 27.809 10.689 43.927.512 1.994 2.13 3.719 3.929 4.186 2.029.527 7.703-.3 8.765-2.078 3.678-6.16-2.044-33.16-7.482-46.002-1.723-4.071-4.345-7.699-9.143-7.752h-.082c-1.499-.001-3.018.239-4.595.527"/></defs><clipPath id="g"><use xlink:href="#f" overflow="visible"/></clipPath><linearGradient id="h" gradientUnits="userSpaceOnUse" x1="0" y1="119.99" x2="1" y2="119.99" gradientTransform="scale(-49.9482 49.9482) rotate(-56.645 -110.343 63.17)"><stop offset="0" stop-color="#f1b827"/><stop offset="1" stop-color="#fecc4d"/></linearGradient><path clip-path="url(#g)" fill="url(#h)" d="M85.495 123.572L51.086 71.3l45.559-29.99 34.409 52.273z"/><defs><path id="i" d="M0 0h120v120H0z"/></defs><clipPath id="j"><use xlink:href="#i" overflow="visible"/></clipPath><path clip-path="url(#j)" fill="#1F46E7" d="M29.31 108.24l31.788.068a2.076 2.076 0 0 0 2.037-2.498l-4.618-22.282c-.173-.833-.871-1.372-1.78-1.373l-32.525-.07c-2.434-.005-2.524.879-2.205 2.488l4.418 21.313a2.952 2.952 0 0 0 2.885 2.354"/><path clip-path="url(#j)" fill="#4263EB" d="M27.545 108.236l31.788.068a2.076 2.076 0 0 0 2.037-2.498l-4.618-22.282c-.173-.833-.871-1.372-1.78-1.373l-32.525-.07c-2.434-.005-2.524.88-2.205 2.488l4.418 21.314a2.952 2.952 0 0 0 2.885 2.353"/><path clip-path="url(#j)" fill="#3054E9" d="M27.545 108.236l31.788.068a2.076 2.076 0 0 0 2.037-2.498L57.839 88.77c-12.731 3.08-24.936 8.25-30.294 19.466"/><path clip-path="url(#j)" fill="#EAEACD" d="M55.346 91.026l-3.148-1.444a2.874 2.874 0 0 0-.847-.16l-2.955-.112a.434.434 0 0 0-.425.286l-.054.149a.79.79 0 0 0 .535 1.033l2.065.575c.13.036.253.094.365.17l2.381 2.142 2.083-2.639z"/><path clip-path="url(#j)" fill="#EAEACD" d="M50.165 94.738c-.632 2.249.879 4.874 3.214 5.529a5.322 5.322 0 0 1 3.593-.172l37.693 11.553c2.335.656 5.256-2.14 6.025-5.146.6-2.747-.919-5.697-3.254-6.354l-40.551-8.146-1.539-.976c-2.335-.655-4.549 1.463-5.181 3.712"/><path clip-path="url(#j)" fill="#EAEACD" d="M58.904 95.091c-2.394-2.131-5.457-3.137-9.685-2.182l-8.027 2.176c-1.048.284-1.267 1.774-.36 2.453l5.369 4.018c1.17.875 2.632 1.134 3.966.702l6.735-2.181 2.002-4.986zm1.167-61.926c-.127 2.49 1.233 4.583 3.037 4.675 1.805.092 3.371-1.851 3.498-4.341.127-2.49-1.232-4.583-3.037-4.675-1.804-.092-3.371 1.851-3.498 4.341"/><path clip-path="url(#j)" fill="#FFF" d="M88.759 105.47a6.621 6.621 0 1 0 13.242 0 6.621 6.621 0 0 0-13.242 0"/><defs><path id="k" d="M80.19 54.789c-2.26.413-5.663 4.875-4.523 8.544 1.961 13 6.499 21.5 11.57 33.937l-27.265-5.062c-1.093 1.231-2.223 5.886-1.306 8.796 0 0 30.334 10.741 36.713 11.086 2.748.148 5.111-1.679 6.109-4.067l.004-.007c3.678-6.16-2.044-33.16-7.482-46.002-1.724-4.071-4.218-7.014-9.25-8.992a1.37 1.37 0 0 0-.515-.096c-1.276 0-2.642 1.604-4.055 1.863"/></defs><clipPath id="l"><use xlink:href="#k" overflow="visible"/></clipPath><linearGradient id="m" gradientUnits="userSpaceOnUse" x1="0" y1="120.061" x2="1" y2="120.061" gradientTransform="rotate(-128.08 -1378.571 3024.789) scale(49.8803)"><stop offset="0" stop-color="#239b6a"/><stop offset="1" stop-color="#4ccd9b"/></linearGradient><path clip-path="url(#l)" fill="url(#m)" d="M133.966 89.676L87.131 29.903 28.954 75.487l46.834 59.773z"/></svg>