<svg xmlns="http://www.w3.org/2000/svg" xmlns:xlink="http://www.w3.org/1999/xlink" viewBox="0 0 170 170"><defs><style>.a,.p,.r{fill:#fff;}.b{fill:url(#a);}.c{fill:url(#b);}.d{fill:#eaeacd;}.e{fill:#4263eb;}.f,.g,.i{fill:none;}.f,.g,.i,.p{stroke:#96b7e1;}.f,.g,.i,.p,.r{stroke-linecap:round;stroke-miterlimit:10;}.f{stroke-width:1.25px;}.g,.r{stroke-width:2px;}.h{fill:#96b7e1;}.j{fill:#239b6a;}.k{fill:url(#c);}.l{fill:url(#d);}.m{fill:#f2751c;}.n{fill:url(#e);}.o{fill:url(#f);}.q{fill:url(#g);}.r{stroke:#4ccd9b;}.s{fill:url(#h);}.t{fill:url(#i);}</style><linearGradient id="a" x1="0.001" y1="0.5" x2="1" y2="0.5" gradientUnits="objectBoundingBox"><stop offset="0" stop-color="#1f46e7"/><stop offset="1" stop-color="#4263eb"/></linearGradient><linearGradient id="b" x1="-0.001" y1="0.5" x2="1.001" y2="0.5" xlink:href="#a"/><linearGradient id="c" x1="193.524" y1="0.505" x2="194.524" y2="0.505" gradientUnits="objectBoundingBox"><stop offset="0" stop-color="#239b6a"/><stop offset="1" stop-color="#4ccd9b"/></linearGradient><linearGradient id="d" x1="980.464" y1="0.501" x2="981.461" y2="0.501" xlink:href="#c"/><linearGradient id="e" y1="0.505" x2="0.999" y2="0.505" gradientUnits="objectBoundingBox"><stop offset="0" stop-color="#f2751c"/><stop offset="1" stop-color="#ffc400"/></linearGradient><linearGradient id="f" y1="0.501" x2="0.997" y2="0.501" xlink:href="#e"/><linearGradient id="g" x1="0.01" y1="0.506" x2="0.998" y2="0.506" gradientUnits="objectBoundingBox"><stop offset="0" stop-color="#4263eb"/><stop offset="1" stop-color="#1f46e7"/></linearGradient><linearGradient id="h" x1="0.001" y1="0.504" x2="1.002" y2="0.504" xlink:href="#c"/><linearGradient id="i" x1="-2.806" y1="-5.856" x2="-1.814" y2="-5.856" xlink:href="#g"/></defs><g transform="translate(21 4)"><rect class="a" width="170" height="170" transform="translate(-21 -4)"/><path class="b" d="M62.6,154,23,142.8V103.2l39.6,11.2Z"/><path class="c" d="M101.6,142.8,62.1,154V114.4l39.5-11.2Z"/><path class="d" d="M62.3,92.2,23,103.3l39.3,11.1,39.3-11.1Z"/><path class="e" d="M39.8,85.6.5,96.7l22.8,6.6L62.6,92.2Z"/><path class="e" d="M85.2,85.6l39.3,11.1-22.9,6.6L62.3,92.2Z"/><path class="f" d="M28.4,106.5V91.3a6.465,6.465,0,0,0-1.8-4.4L11,71.4A6.2,6.2,0,0,1,9.2,67V50"/><path class="f" d="M109.4,60.3V70.7a7.119,7.119,0,0,1-2.1,5L94.7,88.5a7.3,7.3,0,0,0-2.1,5v16.9"/><line class="g" y2="91.8" transform="translate(62.4 21.6)"/><path class="h" d="M78,41.7a3.5,3.5,0,1,1,3.5-3.5A3.612,3.612,0,0,1,78,41.7Z"/><path class="f" d="M78,41V68.1a5.439,5.439,0,0,1-1.7,4L62.9,85.6"/><line class="f" y2="22.6" transform="translate(49.8 47.1)"/><line class="i" y1="42" transform="translate(49.8 69.9)"/><path class="h" d="M49.8,48.9a3.8,3.8,0,1,1,3.8-3.8A3.862,3.862,0,0,1,49.8,48.9Z"/><path class="g" d="M39.6,112.2V74.5a2.723,2.723,0,0,0-.9-2.1l-6.1-6.1a2.878,2.878,0,0,1-.9-2.1v-23"/><rect class="j" width="35.6" height="22.2" transform="translate(128.588 161.025) rotate(180)"/><path class="k" d="M114.4,132.2l14.2,6.6H93l-8.8-6.6Z"/><path class="l" d="M93,161l-8.8-6.6V132.2l8.8,6.6Z"/><rect class="m" width="35.6" height="22.2" transform="translate(0 137.3)"/><path class="n" d="M14.2,130.7,0,137.3H35.6l8.8-6.6Z"/><path class="o" d="M35.6,159.5l8.8-6.6V130.7l-8.8,6.6Z"/><circle class="p" cx="9.3" cy="9.3" r="9.3" transform="translate(21.113 41.154) rotate(-80.782)"/><circle class="q" cx="3.5" cy="3.5" r="3.5" transform="translate(28.3 29.9)"/><circle class="r" cx="14.6" cy="14.6" r="14.6" transform="translate(47.5 1)"/><path class="s" d="M62,21.2a5.6,5.6,0,1,1,5.6-5.6A5.591,5.591,0,0,1,62,21.2Z"/><path class="f" d="M85.7,117.4V62.3a2.723,2.723,0,0,1,.9-2.1l6.1-6.1a2.878,2.878,0,0,0,.9-2.1V28.2"/><circle class="p" cx="9.3" cy="9.3" r="9.3" transform="translate(80.464 31.278) rotate(-45)"/><path class="m" d="M93.6,34.7a3.5,3.5,0,1,0-3.5-3.5A3.478,3.478,0,0,0,93.6,34.7Z"/><path class="e" d="M23.6,103.3l39.3,11.1-22.8,6.7L.8,110Z"/><path class="e" d="M101.4,103.3,62.1,114.4l22.8,6.7L124.2,110Z"/><path class="h" d="M9.2,51.4a5.1,5.1,0,1,1,5.1-5.1A5.058,5.058,0,0,1,9.2,51.4Z"/><path class="t" d="M109.4,62.9a4.5,4.5,0,1,1,4.5-4.5A4.481,4.481,0,0,1,109.4,62.9Z"/></g></svg>