<svg xmlns="http://www.w3.org/2000/svg" viewBox="6276 5404 880 382" width="880" height="382"><defs><style>.a{fill:none;stroke:#4263eb;stroke-width:2px;}</style></defs><g transform="translate(6066 -676)"><line class="a" x2="111" transform="translate(210 6081)"/><line class="a" x2="12" transform="translate(324 6081)"/><line class="a" x2="428" transform="translate(339 6081)"/><line class="a" x2="5" transform="translate(770 6081)"/><line class="a" x2="287" transform="translate(778 6081)"/><line class="a" x2="72" transform="translate(812 6461)"/><line class="a" x2="10" transform="translate(799 6461)"/><line class="a" x2="489" transform="translate(307 6461)"/><line class="a" x2="133" transform="translate(932 6358)"/><line class="a" y2="55" transform="translate(908 6382)"/><path class="a" d="M120,1440c-11.907,0-24-11.585-24-24" transform="translate(1185 7521) rotate(180)"/><path class="a" d="M120,1440c-11.907,0-24-11.585-24-24" transform="translate(-351 6454) rotate(-90)"/><path class="a" d="M120,1440c-11.907,0-24-11.585-24-24" transform="translate(2348 6262) rotate(90)"/><path class="a" d="M120,1440c-11.907,0-24-11.585-24-24" transform="translate(-532 6557) rotate(-90)"/><line class="a" y2="102" transform="translate(1089 6105)"/><line class="a" y2="24" transform="translate(1089 6245)"/><line class="a" y2="6" transform="translate(1089 6272)"/><line class="a" y2="53" transform="translate(1089 6281)"/></g></svg>
