<svg xmlns="http://www.w3.org/2000/svg" viewBox="-1193 177 24 24" width="24" heigth="24"><defs><style>.a{fill:#4c6ef5;}</style></defs><g transform="translate(-1193 177)"><path class="a" d="M12,0A12,12,0,1,0,24,12,12.035,12.035,0,0,0,12,0Zm0,22.5A10.5,10.5,0,1,1,22.5,12,10.531,10.531,0,0,1,12,22.5Z"/><path class="a" d="M13,4a9,9,0,1,0,9,9A9.026,9.026,0,0,0,13,4Zm0,16.5A7.5,7.5,0,1,1,20.5,13,7.522,7.522,0,0,1,13,20.5Z" transform="translate(-1 -1)"/><path class="a" d="M16.5,10.75h-.75V10h-1.5v.75H13.5a1.5,1.5,0,0,0-1.5,1.5v1.5a1.5,1.5,0,0,0,1.5,1.5h3v1.5h-3V16H12v.75a1.5,1.5,0,0,0,1.5,1.5h.75V19h1.5v-.75h.75a1.5,1.5,0,0,0,1.5-1.5v-1.5a1.5,1.5,0,0,0-1.5-1.5h-3v-1.5h3V13H18v-.75A1.5,1.5,0,0,0,16.5,10.75Z" transform="translate(-3 -2.5)"/></g></svg>
