<svg width="296" height="296" viewBox="0 0 296 296" fill="none" xmlns="http://www.w3.org/2000/svg"><path d="M296 164a131.994 131.994 0 0 1-38.662 93.338A132.008 132.008 0 0 1 164 296v-3.96a128.05 128.05 0 0 0 118.294-79.041A128.056 128.056 0 0 0 292.04 164H296zM296 132a131.995 131.995 0 0 0-81.486-121.952A132 132 0 0 0 164 0v3.96a128.044 128.044 0 0 1 118.294 79.041A128.053 128.053 0 0 1 292.04 132H296zM0 132A132.002 132.002 0 0 1 132 0v3.96A128.041 128.041 0 0 0 3.96 132H0zM0 164a132 132 0 0 0 132 132v-3.96A128.043 128.043 0 0 1 3.96 164H0z" fill="#F1F3F5"/><path d="M285.952 214.514a131.997 131.997 0 0 1-71.438 71.438l-1.515-3.658a128.048 128.048 0 0 0 69.295-69.295l3.658 1.515z" fill="#87D7FB"/><path d="M285.952 81.486a131.999 131.999 0 0 0-71.438-71.438l-1.515 3.659A128.044 128.044 0 0 1 282.294 83l3.658-1.515z" fill="#F2751C"/><path d="M10.048 81.486a132 132 0 0 1 71.438-71.438L83 13.707A128.04 128.04 0 0 0 13.707 83l-3.66-1.515z" fill="#40BE8C"/><path d="M10.048 214.514a131.999 131.999 0 0 0 71.438 71.438L83 282.294a128.044 128.044 0 0 1-69.294-69.295l-3.66 1.515z" fill="#FECC4D"/><path d="M134.25 70.375c-8.607 0-15.931 5.52-18.725 13.225-12.312 4.284-21.175 16.043-21.175 29.9 0 3.795.713 7.446 1.91 10.81-9.776 7.331-16.16 19.061-16.16 32.315 0 14.03 7.125 26.364 17.898 33.58a28.487 28.487 0 0 0-.798 6.67c0 15.87 12.768 28.75 28.5 28.75 5.187 0 10.06-1.437 14.25-3.881a29.111 29.111 0 0 0 5.7-4.342V73.998a20.254 20.254 0 0 0-5.7-2.79 19.534 19.534 0 0 0-5.7-.833zm5.7 32.2c-1.733.834-3.651 1.34-5.7 1.34-1.037 0-2.043-.121-3.012-.348-.588-2.542-2.836-4.442-5.538-4.442-3.149 0-5.7 2.573-5.7 5.75s2.551 5.75 5.7 5.75a5.624 5.624 0 0 0 2.904-.825c1.79.532 3.682.825 5.646.825 1.981 0 3.893-.302 5.7-.845v48.648c-.798-.621-1.778-1.188-2.859-1.711 0-.029.009-.06.009-.092 0-3.177-2.551-5.75-5.7-5.75s-5.7 2.573-5.7 5.75 2.551 5.75 5.7 5.75a5.58 5.58 0 0 0 2.83-.788c2.269.998 4.244 2.234 5.72 3.68v49.548c-3.905 3.163-8.864 5.06-14.25 5.06-12.597 0-22.8-10.292-22.8-23 0-1.294.142-2.53.342-3.766a22.948 22.948 0 0 1 1.622-5.572l.014-.003a23.053 23.053 0 0 1 6.672-8.651c.818.457 1.747.742 2.75.742 3.149 0 5.7-2.573 5.7-5.75s-2.551-5.75-5.7-5.75-5.7 2.573-5.7 5.75c0 .009.003.017.003.026a28.871 28.871 0 0 0-8.616 10.637c-8.575-6.267-14.187-16.416-14.187-27.913 0-10.954 5.073-20.7 12.968-26.996a31.744 31.744 0 0 0 9.895 10.381c.316 2.872 2.704 5.115 5.637 5.115 3.149 0 5.7-2.573 5.7-5.75s-2.551-5.75-5.7-5.75a5.618 5.618 0 0 0-3.332 1.104c-3.163-2.173-5.859-5.014-7.749-8.314 0 0-.011.005.006-.006-.941-1.639-1.602-3.422-2.172-5.29-.741-2.387-1.071-4.974-1.071-7.619 0-10.149 5.848-18.918 14.284-23.144a25.108 25.108 0 0 1 6.914-2.3c.427-2.3 1.462-4.37 2.887-6.095 2.422-2.961 6.073-4.887 10.177-4.887 2.052 0 3.967.517 5.706 1.351v24.15zm-11.4 2.3c0 1.587-1.277 2.875-2.85 2.875-1.573 0-2.85-1.288-2.85-2.875S124.127 102 125.7 102c1.573 0 2.85 1.288 2.85 2.875zm5.7 51.75c0 1.587-1.277 2.875-2.85 2.875-1.573 0-2.85-1.288-2.85-2.875s1.277-2.875 2.85-2.875c1.573 0 2.85 1.288 2.85 2.875zm-22.8 17.25c0-1.587 1.277-2.875 2.85-2.875 1.573 0 2.85 1.288 2.85 2.875s-1.277 2.875-2.85 2.875c-1.573 0-2.85-1.288-2.85-2.875zm0-34.5c0-1.587 1.277-2.875 2.85-2.875 1.573 0 2.85 1.288 2.85 2.875s-1.277 2.875-2.85 2.875c-1.573 0-2.85-1.288-2.85-2.875zm89.29-15.065c1.198-3.364 1.91-7.015 1.91-10.81 0-13.858-8.864-25.616-21.176-29.9-2.793-7.705-10.117-13.225-18.724-13.225a19.53 19.53 0 0 0-5.7.834c-2.052.632-2.85 1.581-5.7 2.788v143.405c2.85 1.668 3.619 3.134 5.7 4.342 4.189 2.444 9.063 3.881 14.25 3.881 15.732 0 28.5-12.88 28.5-28.75 0-2.3-.285-4.542-.798-6.67 10.773-7.216 17.898-19.55 17.898-33.58 0-13.254-6.384-24.984-16.16-32.315zm-3.727 60.228c-1.99-4.212-5.763-7.857-8.613-10.637v-.026c0-3.177-2.551-5.75-5.7-5.75s-5.7 2.573-5.7 5.75 2.551 5.75 5.7 5.75c1.003 0 1.932-.285 2.75-.742a23.092 23.092 0 0 1 6.672 8.651l.014.003a22.904 22.904 0 0 1 1.622 5.572c.2 1.236.342 2.472.342 3.766 0 12.708-10.203 23-22.8 23a22.568 22.568 0 0 1-14.25-5.06v-49.548c1.476-1.446 3.451-2.682 5.72-3.68a5.58 5.58 0 0 0 2.83.788c3.149 0 5.7-2.573 5.7-5.75s-2.551-5.75-5.7-5.75-5.7 2.573-5.7 5.75c0 .032.009.063.009.095-1.083.523-2.061 1.089-2.859 1.71v-48.65c1.807.543 3.719.845 5.7.845 1.964 0 3.856-.293 5.646-.825a5.624 5.624 0 0 0 2.904.825c3.149 0 5.7-2.573 5.7-5.75s-2.551-5.75-5.7-5.75c-2.702 0-4.95 1.9-5.538 4.445-.969.227-1.975.348-3.012.348-2.049 0-2.85-.506-5.7-1.34V78.425c2.85-.834 3.654-1.351 5.706-1.351 4.104 0 7.755 1.926 10.177 4.887 1.425 1.725 2.46 3.795 2.887 6.095a25.108 25.108 0 0 1 6.914 2.3c8.436 4.227 14.284 12.995 14.284 23.144 0 2.645-.33 5.232-1.071 7.619-.57 1.868-1.231 3.651-2.172 5.29.017.008.006.006.006.006-1.89 3.3-4.586 6.141-7.749 8.314a5.618 5.618 0 0 0-3.332-1.104c-3.149 0-5.7 2.573-5.7 5.75s2.551 5.75 5.7 5.75c2.933 0 5.321-2.243 5.637-5.115a31.768 31.768 0 0 0 9.895-10.381 34.436 34.436 0 0 1 12.968 26.996c0 11.497-5.612 21.646-14.187 27.913zm-11.463-10.663c0 1.587-1.277 2.875-2.85 2.875-1.573 0-2.85-1.288-2.85-2.875S181.127 171 182.7 171c1.573 0 2.85 1.288 2.85 2.875zm-22.8-17.25c0-1.587 1.277-2.875 2.85-2.875 1.573 0 2.85 1.288 2.85 2.875s-1.277 2.875-2.85 2.875c-1.573 0-2.85-1.288-2.85-2.875zm5.7-51.75c0-1.587 1.277-2.875 2.85-2.875 1.573 0 2.85 1.288 2.85 2.875s-1.277 2.875-2.85 2.875c-1.573 0-2.85-1.288-2.85-2.875zm17.1 34.5c0 1.587-1.277 2.875-2.85 2.875-1.573 0-2.85-1.288-2.85-2.875s1.277-2.875 2.85-2.875c1.573 0 2.85 1.288 2.85 2.875zm31.236-23.862c.028-.69.114-1.323.114-2.013 0-18.199-10.517-33.896-25.707-41.343C186.547 62.614 176.857 56 165.6 56c-6.412 0-11.4 2.185-17.1 5.779C143.74 58.185 137.812 56 131.4 56c-11.258 0-20.948 6.612-25.593 16.157C90.617 79.605 80.1 95.302 80.1 113.5c0 .69.086 1.323.114 2.013C69.612 125.949 63 140.496 63 156.625c0 17.566 7.838 33.264 20.121 43.815C84.917 222.577 103.271 240 125.7 240c8.379 0 16.188-2.473 22.8-6.699 6.612 4.226 14.421 6.699 22.8 6.699 22.429 0 40.783-17.423 42.579-39.56C226.162 189.889 234 174.191 234 156.625c0-16.129-6.612-30.676-17.214-41.112zm-3.05 76.245a51.993 51.993 0 0 1-5.386 4.973v.144c0 2.875-.342 5.664-.969 8.338-3.734 16.617-18.468 29.037-36.081 29.037-8.607 0-16.501-2.99-22.8-7.964-6.299 4.974-14.193 7.964-22.8 7.964-17.613 0-32.347-12.42-36.081-29.037a36.474 36.474 0 0 1-.969-8.338v-.144a51.998 51.998 0 0 1-5.387-4.973c-8.607-9.143-13.936-21.505-13.936-35.133 0-12.535 4.503-24.006 11.942-32.919 1.51-1.811 3.163-3.478 4.901-5.06a38.013 38.013 0 0 1-.37-5.146c0-.978.085-1.955.142-2.904.913-12.65 7.553-23.661 17.357-30.389a38.076 38.076 0 0 1 6.868-3.794 23.601 23.601 0 0 1 4.788-7.59c4.161-4.342 9.975-7.073 16.445-7.073 6.811 0 12.91 3.047 17.1 7.82 2.85-4.772 10.288-7.82 17.1-7.82 6.469 0 12.283 2.731 16.444 7.073a23.584 23.584 0 0 1 4.788 7.59 38.084 38.084 0 0 1 6.869 3.794c9.804 6.728 16.444 17.74 17.356 30.389.058.949.143 1.926.143 2.904 0 1.754-.143 3.479-.371 5.146 1.739 1.582 3.392 3.249 4.902 5.06 7.439 8.913 11.942 20.384 11.942 32.919 0 13.628-5.33 25.99-13.937 35.133z" fill="rgba(255, 131, 42, 0.3)"/></svg>