<svg width="315" height="72" viewBox="0 0 315 72" fill="none" xmlns="http://www.w3.org/2000/svg"><path d="M315 65.5H160" stroke="#9FB0F4"/><circle cx="160" cy="66" r="6" fill="#9FB0F4"/><path d="M315 1H162.496c-1.639 0-3.253.403-4.7 1.173L140.75 11.25l-16.912 9.884a10.001 10.001 0 0 1-5.046 1.366H65" stroke="#9FB0F4"/><circle cx="65" cy="22.5" r="6" fill="#9FB0F4"/><circle cx="12" cy="44.5" r="6" fill="#DEE2E6"/><circle cx="12" cy="44.5" r="11.5" stroke="#DEE2E6"/><path d="M315 44.5H12" stroke="#DEE2E6"/><path d="M191.789 21.894a1 1 0 0 1 0-1.788l8.764-4.382a1 1 0 0 1 1.447.894v8.764a1 1 0 0 1-1.447.894l-8.764-4.382z" fill="#9DCBB9"/><circle cx="216" cy="21" r="6" fill="#FFC093"/></svg>