<svg width="125" height="40" viewBox="0 0 200 64" xmlns="http://www.w3.org/2000/svg"><linearGradient id="a" x1="48.212" x2="15.326" y1="61.581" y2="4.621" gradientUnits="userSpaceOnUse"><stop stop-color="#FF6B2A" offset="0"/><stop stop-color="#FFA72A" offset="1"/></linearGradient><path d="M27 5c-3.02 0-5.59 1.92-6.57 4.6C16.11 11.09 13 15.18 13 20c0 1.32.25 2.59.67 3.76C10.24 26.31 8 30.39 8 35c0 4.88 2.5 9.17 6.28 11.68-.18.74-.28 1.52-.28 2.32 0 5.52 4.48 10 10 10 1.82 0 3.53-.5 5-1.35.73-.42 1.4-.93 2-1.51V6.26A6.908 6.908 0 0 0 27 5zm2 11.2a4.626 4.626 0 0 1-2 .466 4.66 4.66 0 0 1-1.057-.121A1.997 1.997 0 0 0 22 17a2 2 0 0 0 2 2c.374 0 .719-.109 1.019-.287A6.99 6.99 0 0 0 29 18.706v16.921a5.689 5.689 0 0 0-1.003-.595c0-.01.003-.021.003-.032a2 2 0 1 0-2 2c.363 0 .7-.104.993-.274.796.347 1.489.777 2.007 1.28V55.24A7.998 7.998 0 0 1 16 49c0-.45.05-.88.12-1.31.11-.679.3-1.329.569-1.938l.005-.001a8.026 8.026 0 0 1 2.341-3.009c.287.159.613.258.965.258a2 2 0 1 0-2-2l.001.009a10.06 10.06 0 0 0-3.023 3.7C11.969 42.529 10 38.999 10 35c0-3.81 1.78-7.2 4.55-9.39a11.085 11.085 0 0 0 3.472 3.611A1.993 1.993 0 0 0 20 31a2 2 0 1 0 0-4c-.438 0-.84.145-1.169.384-1.11-.756-2.056-1.744-2.719-2.892 0 0-.004.002.002-.002-.33-.57-.562-1.19-.762-1.84-.26-.83-.376-1.73-.376-2.65 0-3.53 2.052-6.58 5.012-8.05.76-.38 1.576-.65 2.426-.8.15-.8.513-1.52 1.013-2.12a4.626 4.626 0 0 1 3.571-1.7c.72 0 1.392.18 2.002.47v8.4zm-4 .8a1 1 0 1 1-2 0 1 1 0 0 1 2 0zm2 18a1 1 0 1 1-2 0 1 1 0 0 1 2 0zm-8 6a1 1 0 1 1 2 0 1 1 0 0 1-2 0zm0-12a1 1 0 1 1 2 0 1 1 0 0 1-2 0zm31.33-5.24c.42-1.17.67-2.44.67-3.76 0-4.82-3.11-8.91-7.43-10.4C42.59 6.92 40.02 5 37 5c-.7 0-1.37.1-2 .29-.72.22-1 .55-2 .97v49.88c1 .58 1.27 1.09 2 1.51 1.47.85 3.18 1.35 5 1.35 5.52 0 10-4.48 10-10 0-.8-.1-1.58-.28-2.32C53.5 44.17 56 39.88 56 35c0-4.61-2.24-8.69-5.67-11.24zm-1.308 20.949c-.698-1.465-2.022-2.733-3.022-3.7V41a2 2 0 1 0-2 2c.352 0 .678-.099.965-.258a8.042 8.042 0 0 1 2.341 3.009l.005.001c.269.609.459 1.259.569 1.938.07.43.12.86.12 1.31a7.998 7.998 0 0 1-13 6.24V38.006c.518-.503 1.211-.933 2.007-1.28.293.17.63.274.993.274a2 2 0 1 0-2-2l.003.033c-.38.182-.723.379-1.003.595V18.706a6.99 6.99 0 0 0 3.981.007c.3.178.645.287 1.019.287a2 2 0 1 0 0-4c-.948 0-1.737.661-1.943 1.546a4.66 4.66 0 0 1-1.057.121c-.719 0-1-.176-2-.466V7.8c1-.29 1.282-.47 2.002-.47 1.44 0 2.721.67 3.571 1.7.5.6.863 1.32 1.013 2.12.85.15 1.666.42 2.426.8 2.96 1.47 5.012 4.52 5.012 8.05 0 .92-.116 1.82-.376 2.65-.2.65-.432 1.27-.762 1.84.006.003.002.002.002.002-.663 1.148-1.609 2.136-2.719 2.892A1.981 1.981 0 0 0 44 27a2 2 0 1 0 0 4c1.029 0 1.867-.78 1.978-1.779a11.095 11.095 0 0 0 3.472-3.611A11.94 11.94 0 0 1 54 35c0 3.999-1.969 7.529-4.978 9.709zM45 41a1 1 0 1 1-2 0 1 1 0 0 1 2 0zm-8-6a1 1 0 1 1 2 0 1 1 0 0 1-2 0zm2-18a1 1 0 1 1 2 0 1 1 0 0 1-2 0zm6 12a1 1 0 1 1-2 0 1 1 0 0 1 2 0zm10.96-8.3c.01-.24.04-.46.04-.7 0-6.33-3.69-11.79-9.02-14.38C45.35 2.3 41.95 0 38 0c-2.25 0-4 .76-6 2.01A10 10 0 0 0 26 0c-3.95 0-7.35 2.3-8.98 5.62C11.69 8.21 8 13.67 8 20c0 .24.03.46.04.7C4.32 24.33 2 29.39 2 35c0 6.11 2.75 11.57 7.06 15.24C9.69 57.94 16.13 64 24 64c2.94 0 5.68-.86 8-2.33 2.32 1.47 5.06 2.33 8 2.33 7.87 0 14.31-6.06 14.94-13.76C59.25 46.57 62 41.11 62 35c0-5.61-2.32-10.67-6.04-14.3zm-1.07 26.52c-.59.62-1.22 1.2-1.89 1.73V49c0 1-.12 1.97-.34 2.9C51.35 57.68 46.18 62 40 62c-3.02 0-5.79-1.04-8-2.77A12.928 12.928 0 0 1 24 62c-6.18 0-11.35-4.32-12.66-10.1-.22-.93-.34-1.9-.34-2.9v-.05c-.67-.53-1.3-1.11-1.89-1.73C6.09 44.04 4.22 39.74 4.22 35c0-4.36 1.58-8.35 4.19-11.45.53-.63 1.11-1.21 1.72-1.76-.08-.58-.13-1.18-.13-1.79 0-.34.03-.68.05-1.01.32-4.4 2.65-8.23 6.09-10.57.75-.52 1.56-.96 2.41-1.32.39-.99.96-1.88 1.68-2.64A8.002 8.002 0 0 1 26 2c2.39 0 4.53 1.06 6 2.72C33 3.06 35.61 2 38 2c2.27 0 4.31.95 5.77 2.46.72.76 1.29 1.65 1.68 2.64.85.36 1.66.8 2.41 1.32a13.99 13.99 0 0 1 6.09 10.57c.02.33.05.67.05 1.01 0 .61-.05 1.21-.13 1.79.61.55 1.19 1.13 1.72 1.76 2.61 3.1 4.19 7.09 4.19 11.45 0 4.74-1.87 9.04-4.89 12.22z" fill="url(#a)"/><path d="M86.289 44.006c-.214.269-.629.401-1.248.401h-.83c-.491 0-.838-.096-1.04-.289-.202-.192-.453-.523-.75-.992L74.814 30.52l-2.523-4.352h-.096v17.696c0 .236-.043.383-.128.448-.086.063-.246.096-.479.096h-1.662c-.191 0-.34-.033-.446-.096-.108-.065-.161-.212-.161-.448V23.576c0-.534.113-.932.337-1.201.222-.265.634-.398 1.229-.398h.831c.468 0 .805.095 1.007.287s.453.523.75.992l7.448 12.319 2.716 4.641h.096V22.52c0-.234.046-.383.143-.448.096-.065.251-.095.465-.095H86c.212 0 .368.03.463.095.096.065.144.214.144.448v20.289c0 .532-.106.932-.318 1.197zm17.352-.335a11.25 11.25 0 0 1-3.116.864c-1.12.149-2.19.224-3.212.224-1.385 0-2.52-.144-3.404-.433s-1.581-.68-2.092-1.171-.869-1.059-1.07-1.701a6.641 6.641 0 0 1-.305-2.022c0-.727.123-1.438.368-2.134.246-.695.644-1.306 1.198-1.83s1.274-.947 2.158-1.268c.883-.32 1.964-.481 3.243-.481h3.897v-.699c0-.508-.046-.964-.143-1.365a2.296 2.296 0 0 0-.559-1.049c-.277-.295-.667-.523-1.166-.682-.501-.159-1.146-.237-1.933-.237-.747 0-1.54.063-2.382.191-.841.128-1.528.277-2.061.448-.171.065-.309.086-.415.065-.108-.022-.182-.116-.224-.287l-.383-1.377a.434.434 0 0 1-.017-.304c.032-.096.133-.176.304-.241.81-.342 1.735-.581 2.781-.72a22.079 22.079 0 0 1 2.875-.207c2.13 0 3.686.474 4.667 1.424.979.949 1.47 2.331 1.47 4.144v10.014c.001.429-.16.707-.479.834zm-2.366-7.519h-3.706c-.383 0-.826.027-1.326.08a4.087 4.087 0 0 0-1.422.416 3.045 3.045 0 0 0-1.135.992c-.31.436-.465 1.04-.465 1.807 0 .577.106 1.062.32 1.457.212.395.499.703.863.927.362.224.788.383 1.278.481a8.423 8.423 0 0 0 1.599.143c.191 0 .441-.005.75-.015.309-.012.65-.043 1.024-.098.372-.051.75-.116 1.135-.191a6.766 6.766 0 0 0 1.085-.304v-5.695zm16.138 8.166a9.22 9.22 0 0 1-1.949.363c-.68.051-1.171.078-1.468.078-1.662 0-2.824-.357-3.484-1.07s-.99-1.813-.99-3.305V29.848h-2.333c-.192 0-.315-.043-.368-.129s-.08-.194-.08-.324v-.941c0-.282.149-.465.448-.552l2.492-.486.511-3.073c.043-.212.106-.352.192-.415.085-.065.212-.138.383-.224l1.055-.385c.148-.041.265-.036.35.017.086.053.128.188.128.4v3.872h3.549c.191 0 .314.043.367.129s.08.206.08.357v1.299c0 .173-.027.292-.08.357s-.176.098-.367.098H112.3v10.368c0 .747.166 1.286.496 1.616.33.332.879.496 1.646.496.277 0 .665-.027 1.166-.08s.932-.101 1.294-.144c.192-.043.315-.036.368.017s.09.133.111.239l.287 1.422c.022.126.028.232.017.317-.01.082-.101.155-.272.219zm6.041-19.877c-.363.362-.8.543-1.311.543s-.954-.181-1.326-.543a1.764 1.764 0 0 1-.559-1.312 1.8 1.8 0 0 1 .559-1.344c.372-.363.815-.544 1.326-.544s.947.181 1.311.544c.362.363.543.81.543 1.344a1.796 1.796 0 0 1-.543 1.312zm-2.205 3.167h1.725c.191 0 .324.027.4.08.073.055.111.187.111.4v15.839c0 .214-.038.348-.111.4-.076.055-.209.081-.4.081h-1.725a.82.82 0 0 1-.4-.081c-.096-.051-.144-.186-.144-.4v-15.84c0-.212.048-.345.144-.4a.847.847 0 0 1 .4-.079zm15.179 15.552c-.171.511-.357.874-.559 1.087-.202.214-.549.32-1.039.32h-1.246c-.406 0-.725-.085-.959-.255-.236-.171-.458-.544-.672-1.12l-5.241-15.264c-.063-.214.022-.32.256-.32h2.142c.234 0 .383.096.448.289l3.003 8.831 1.598 5.216h.161l1.533-5.153 2.908-8.894c.065-.192.212-.289.448-.289h2.109c.212 0 .299.106.256.32l-5.146 15.232zm21.187-7.585c-.128.322-.302.572-.526.753s-.479.309-.768.383a3.592 3.592 0 0 1-.911.113h-9.203c0 1.002.138 1.857.416 2.558.277.705.647 1.276 1.107 1.714s.994.752 1.604.942a6.525 6.525 0 0 0 1.973.289c.705 0 1.4-.091 2.084-.272s1.251-.388 1.701-.624c.255-.149.458-.096.607.159l.67 1.346c.149.299.085.511-.191.639a7.126 7.126 0 0 1-2.477.944c-.884.161-1.754.241-2.605.241-1.193 0-2.265-.171-3.212-.513a6.08 6.08 0 0 1-2.412-1.566c-.66-.705-1.166-1.601-1.518-2.689s-.528-2.389-.528-3.904c0-1.407.186-2.661.559-3.759s.889-2.021 1.55-2.767a6.663 6.663 0 0 1 2.334-1.712c.894-.395 1.873-.592 2.94-.592 1.213 0 2.263.171 3.147.513.884.34 1.608.826 2.173 1.455a6.074 6.074 0 0 1 1.261 2.24c.277.864.416 1.818.416 2.864.001.51-.064.925-.191 1.245zm-2.622-2.895a4.146 4.146 0 0 0-.689-1.599c-.332-.46-.781-.821-1.347-1.088-.567-.267-1.277-.401-2.132-.401-.707 0-1.332.141-1.876.416-.546.279-1.005.645-1.38 1.105s-.669.987-.883 1.584a6.887 6.887 0 0 0-.383 1.886h8.883c0-.661-.063-1.296-.193-1.903zm23.447 11.536c-.053.128-.186.191-.398.191h-2.11c-.191 0-.347-.022-.463-.063-.118-.043-.219-.181-.304-.417l-1.598-4.702h-9.011l-1.598 4.702c-.106.32-.33.48-.671.48h-2.173c-.214 0-.347-.058-.4-.174-.053-.118-.058-.262-.015-.433l7.222-20.576c.169-.513.362-.848.574-1.008.214-.159.564-.251 1.056-.272h.958c.576 0 .964.096 1.167.289.203.191.388.521.559.991l7.19 20.576a.522.522 0 0 1 .015.416zm-7.845-14.271l-1.502-4.704h-.159l-1.439 4.543-2.173 6.849h7.415l-2.142-6.688zm13.964 14.367c-.085.063-.244.095-.48.095h-1.725c-.214 0-.367-.032-.463-.095-.096-.065-.144-.212-.144-.448V22.552c0-.234.048-.383.144-.448.096-.063.249-.096.463-.096h1.725c.236 0 .395.033.48.096.085.065.128.214.128.448v21.312c0 .236-.043.383-.128.448z" fill="#303030"/></svg>