<svg xmlns="http://www.w3.org/2000/svg" viewBox="-1193 293.038 24 23.925" width="24" heigth="24"><defs><style>.a{fill:#4c6ef5;}</style></defs><g transform="translate(-1193 292.962)"><path class="a" d="M12,15a3,3,0,1,0-3-3A3.009,3.009,0,0,0,12,15Zm0-4.5A1.5,1.5,0,1,1,10.5,12,1.5,1.5,0,0,1,12,10.5Z"/><path class="a" d="M12,24a12.4,12.4,0,0,0,6.825-2.1,2.117,2.117,0,0,0,1.125.3,2.21,2.21,0,0,0,2.25-2.25,2.781,2.781,0,0,0-.3-1.125,12.157,12.157,0,0,0,2.1-6.75A12,12,0,0,0,0,12,12.035,12.035,0,0,0,12,24Zm7.95-3.3a.75.75,0,1,1,.75-.75A.752.752,0,0,1,19.95,20.7ZM12,1.5A10.531,10.531,0,0,1,22.5,12a10.168,10.168,0,0,1-1.8,5.85,2.665,2.665,0,0,0-.75-.15,2.21,2.21,0,0,0-2.25,2.25,2.665,2.665,0,0,0,.15.75A10.168,10.168,0,0,1,12,22.5a10.5,10.5,0,1,1,0-21Z"/><path class="a" d="M6.6,18.375a2.076,2.076,0,0,0,.975-.225A7.472,7.472,0,0,0,16.275,6,7.35,7.35,0,0,0,5.925,7.65,7.54,7.54,0,0,0,4.5,12a7.3,7.3,0,0,0,.45,2.55A2.244,2.244,0,0,0,5.1,17.7,2.122,2.122,0,0,0,6.6,18.375Zm0-1.5a.75.75,0,0,1,0-1.5.709.709,0,0,1,.75.75A.752.752,0,0,1,6.6,16.875ZM12,6a6,6,0,0,1,0,12,6.294,6.294,0,0,1-3.3-.975A2.163,2.163,0,0,0,7.65,14.1a2.118,2.118,0,0,0-1.35-.15A6.043,6.043,0,0,1,10.125,6.3,5.178,5.178,0,0,1,12,6Z"/></g></svg>
