<svg xmlns="http://www.w3.org/2000/svg"><symbol id="nav_publ"><path transform="translate(-90 -97)" d="M92 115V97.999A.998.998 0 0 0 91 97c-.556 0-1 .447-1 .999V116a.994.994 0 0 0 .999.999H109a.998.998 0 0 0 .999-1c0-.556-.447-1-.999-1zm3.747-6.144a2 2 0 1 1 1.233-1.575l2.295 1.855a1.995 1.995 0 0 1 .844-.133l5.141-8.016A2 2 0 1 1 107 102h-.014l-5.199 8.101a2 2 0 1 1-3.764.594z"/></symbol><symbol id="nav_how"><path transform="translate(-90 -147)" d="M98.49 157a1.51 1.51 0 1 1 3.02 0 1.51 1.51 0 0 1-3.02 0zm5.068 3.558a37.947 37.947 0 0 1-1.943 1.813c.994.727 1.962 1.33 2.86 1.78 1.77.884 2.998 1.03 3.352.676.353-.353.208-1.583-.677-3.352-.449-.898-1.052-1.866-1.779-2.86-.564.65-1.17 1.3-1.813 1.943zm-8.93-5.173zm0 0c.565-.65 1.17-1.3 1.814-1.943a37.938 37.938 0 0 1 1.943-1.813c-.994-.727-1.962-1.33-2.86-1.78-1.77-.884-2.998-1.03-3.352-.676-.353.354-.208 1.583.677 3.352.449.898 1.052 1.866 1.779 2.86zM90.75 166.25c-1.674-1.674-.427-5.328 2.562-9.25-2.989-3.922-4.236-7.576-2.562-9.25 1.674-1.674 5.328-.427 9.25 2.562 3.922-2.989 7.576-4.236 9.25-2.562 1.674 1.674.427 5.328-2.562 9.25 2.989 3.922 4.236 7.576 2.562 9.25-1.674 1.674-5.328.427-9.25-2.562-3.922 2.989-7.576 4.236-9.25 2.562zm13.58-12.092c.375.394.732.791 1.068 1.19.715-.98 1.308-1.936 1.752-2.823.885-1.77 1.03-2.998.677-3.352-.354-.353-1.583-.208-3.352.677-.895.447-1.858 1.047-2.848 1.77.922.777 1.84 1.628 2.704 2.538zm-9.686 4.435c-.733 1.002-1.342 1.977-1.794 2.882-.885 1.77-1.03 2.999-.677 3.352.354.353 1.583.208 3.352-.677.91-.455 1.892-1.068 2.9-1.808a28.187 28.187 0 0 1-3.78-3.749zm1.28-1.621c.224.285.479.591.764.915a26.365 26.365 0 0 0 3.355 3.176 34.499 34.499 0 0 0 2.092-1.928c.712-.713 1.38-1.44 1.99-2.166a23.967 23.967 0 0 0-1.254-1.426 31.8 31.8 0 0 0-2.861-2.65 34.467 34.467 0 0 0-2.145 1.972c-.693.693-1.343 1.4-1.94 2.107z"/></symbol><symbol id="nav_blog"><path d="M6 7.106A1.108 1.108 0 0 1 7.108 6h6.673a1.109 1.109 0 0 1 1.108 1.106v8.9a1.108 1.108 0 0 1-1.108 1.106H7.108A1.109 1.109 0 0 1 6 16.005zm11.111 8.889a1.108 1.108 0 0 1 1.108-1.106h6.673A1.109 1.109 0 0 1 26 15.995v8.9A1.108 1.108 0 0 1 24.892 26h-6.673a1.109 1.109 0 0 1-1.108-1.106zM8.222 8.222h4.444v6.667H8.222zm11.111 8.889h4.444v6.667h-4.444zM6 20.449a1.112 1.112 0 0 1 1.108-1.116h6.673a1.113 1.113 0 0 1 1.108 1.116v4.435A1.112 1.112 0 0 1 13.781 26H7.108A1.113 1.113 0 0 1 6 24.884zm2.222 1.106h4.444v2.222H8.222zm8.889-14.44A1.112 1.112 0 0 1 18.219 6h6.673A1.113 1.113 0 0 1 26 7.116v4.435a1.112 1.112 0 0 1-1.108 1.116h-6.673a1.113 1.113 0 0 1-1.108-1.116zm2.222 1.106h4.444v2.222h-4.444z" transform="translate(-6 -6)" fill-rule="evenodd"/></symbol><symbol id="nav_about"><path transform="translate(-90 -327)" d="M99 339h2v2h-2zm4 0v-.996c0-.553-.45-1.004-1.004-1.004h-3.992c-.553 0-1.004.45-1.004 1.004V339h-5v-6h16v6zm-10 2h4v.996c0 .553.45 1.004 1.004 1.004h3.992c.553 0 1.004-.45 1.004-1.004V341h4v4H93zm4-12h6v2h-6zm-2 2h-4.001a.996.996 0 0 0-.999.995v8.01a1 1 0 0 0 1 .995v5.003c0 .55.448.997 1 .997h16c.555 0 1-.446 1-.997V341a.999.999 0 0 0 1-.995v-8.01a1 1 0 0 0-.999-.995H105v-2.996a1 1 0 0 0-.995-1.004h-8.01c-.546 0-.995.45-.995 1.004z"/></symbol><symbol id="nav_sign"><path transform="translate(-90 -539)" d="M108 541c-.002 0 0 12.004 0 12.004l-3.002-.004a1 1 0 1 0 0 2H108c1.108 0 2.001-.892 2.001-1.996v-12.008a2 2 0 0 0-2-1.996h-3.002a1 1 0 1 0 0 2zm-6.542 8.114a1 1 0 0 0 1.415 1.414l2.826-2.825a.987.987 0 0 0 .292-.708.997.997 0 0 0-.295-.709l-2.824-2.822a1 1 0 1 0-1.415 1.414l1.12 1.118H91a1 1 0 1 0 0 2h11.575z"/></symbol><symbol id="arrow"><path d="M278.293 623.364c.353-.354 1.06-.354 1.414 0 .354.353.354 1.06 0 1.414l-5.657 5.657c-.353.354-1.06.354-1.414 0-.354-.354-.354-1.06 0-1.414z" transform="translate(-260 -617)"/><path d="M260 624.071c0-.5.5-1 1-1h18c.5 0 1 .5 1 1s-.5 1-1 1h-18c-.5 0-1-.5-1-1z" transform="translate(-260 -617)"/><path d="M272.636 617.707c.354-.353 1.06-.353 1.414 0l5.657 5.657c.354.353.354 1.06 0 1.414-.353.354-1.06.354-1.414 0l-5.657-5.657c-.354-.353-.354-1.06 0-1.414z" transform="translate(-260 -617)"/></symbol><symbol id="facebook"><path transform="translate(-1149 -6637)" d="M1150.816 6640.486v2.478H1149v3.03h1.816V6655h3.73v-9.005h2.502s.235-1.453.348-3.042h-2.837v-2.072c0-.31.407-.726.809-.726h2.032V6637h-2.763c-3.914 0-3.821 3.033-3.821 3.486z"/></symbol><symbol id="twitter"><path transform="translate(-1182 -6639)" d="M1200 6640.73a7.374 7.374 0 0 1-2.12.582 3.708 3.708 0 0 0 1.623-2.042 7.444 7.444 0 0 1-2.346.896 3.693 3.693 0 0 0-6.292 3.367 10.483 10.483 0 0 1-7.61-3.858 3.665 3.665 0 0 0-.5 1.856 3.69 3.69 0 0 0 1.642 3.073 3.693 3.693 0 0 1-1.673-.464v.046a3.696 3.696 0 0 0 2.962 3.621 3.74 3.74 0 0 1-.973.13c-.238 0-.469-.024-.695-.07a3.694 3.694 0 0 0 3.448 2.565 7.408 7.408 0 0 1-4.585 1.579 7.85 7.85 0 0 1-.881-.051 10.437 10.437 0 0 0 5.66 1.661c6.793 0 10.506-5.626 10.506-10.505l-.013-.478a7.374 7.374 0 0 0 1.847-1.908z"/></symbol><symbol id="check"><path d="M966.879 564.193c.353.353.353 1.06 0 1.414-.354.354-1.06.354-1.414 0l-4.95-4.95c-.354-.353-.354-1.06 0-1.414.353-.354 1.06-.354 1.414 0z" transform="translate(-960 -555)"/><path d="M975.364 555.708c.354.353.354 1.06 0 1.414l-8.485 8.485c-.354.354-1.06.354-1.414 0-.354-.354-.354-1.06 0-1.414l8.485-8.485c.353-.354 1.06-.354 1.414 0z" transform="translate(-960 -555)"/></symbol><symbol id="faq_arrow"><path transform="translate(-1043 -4646)" d="M1043.99 4646.38a1.25 1.25 0 0 0 0 1.77l8.31 8.31c.39.39 1.02.39 1.41 0l8.31-8.31c.49-.49.49-1.28 0-1.77a1.25 1.25 0 0 0-1.77 0l-7.25 7.24-7.25-7.25c-.48-.48-1.28-.48-1.76.01z"/></symbol><symbol id="question"><path opacity=".15" d="M15.786.001C6.95.12-.116 7.38.001 16.215.12 25.048 7.378 32.116 16.214 32c8.834-.12 15.902-7.379 15.784-16.214C31.88 6.952 24.621-.116 15.786 0zM15.74 25.74l-.089-.001c-1.36-.04-2.32-1.043-2.28-2.383.037-1.318 1.02-2.275 2.335-2.275l.08.002c1.398.041 2.346 1.034 2.307 2.413-.039 1.321-1.006 2.244-2.353 2.244zm5.723-11.36c-.32.455-1.023 1.02-1.91 1.71l-.976.675c-.536.416-.86.808-.981 1.194-.096.304-.143.384-.151 1.002l-.002.157h-3.728l.011-.316c.046-1.297.078-2.06.615-2.69.843-.99 2.703-2.187 2.782-2.238.267-.2.491-.43.659-.673.39-.54.564-.964.564-1.382 0-.579-.172-1.115-.512-1.591-.326-.46-.947-.694-1.844-.694-.89 0-1.5.283-1.864.862-.375.596-.565 1.222-.565 1.861v.159H9.717l.007-.166c.099-2.354.939-4.05 2.496-5.039.979-.63 2.196-.95 3.617-.95 1.86 0 3.429.453 4.665 1.344 1.252.903 1.887 2.255 1.887 4.02 0 .986-.312 1.913-.927 2.755z"/></symbol><symbol id="link"><path d="M14.895 1.106a3.79 3.79 0 0 0-5.351 0L6.868 3.782a.582.582 0 1 0 .823.823l2.676-2.676a2.602 2.602 0 0 1 1.852-.763 2.6 2.6 0 0 1 1.853.764 2.6 2.6 0 0 1 .763 1.852 2.6 2.6 0 0 1-.763 1.852l-3.499 3.5a2.624 2.624 0 0 1-3.705 0 .582.582 0 0 0-.823.822 3.772 3.772 0 0 0 2.675 1.107c.97 0 1.938-.37 2.676-1.107l3.5-3.499A3.756 3.756 0 0 0 16 3.782a3.757 3.757 0 0 0-1.105-2.676z"/><path d="M7.897 11.808l-2.264 2.264a2.601 2.601 0 0 1-1.853.764c-.702 0-1.36-.271-1.852-.764a2.622 2.622 0 0 1 0-3.704L5.22 7.074a2.602 2.602 0 0 1 1.853-.763c.702 0 1.36.272 1.852.763a.582.582 0 0 0 .823-.823 3.79 3.79 0 0 0-5.351 0L1.104 9.545A3.757 3.757 0 0 0 0 12.22c0 1.013.392 1.963 1.105 2.675A3.757 3.757 0 0 0 3.78 16a3.757 3.757 0 0 0 2.676-1.105l2.264-2.263a.582.582 0 1 0-.823-.824z"/></symbol><symbol id="recommend_engagement"><path fill-rule="evenodd" clip-rule="evenodd" d="M31.375 25.742h-1.667V10.217c0-1.533-1.123-2.781-2.562-3.065-.338-.067-.62.22-.62.565s.286.615.614.722c.755.245 1.319.93 1.319 1.778v15.525H3.541V10.217c0-.82.528-1.518 1.261-1.772.326-.114.614-.383.614-.728 0-.346-.283-.632-.621-.563a3.13 3.13 0 0 0-2.504 3.063v15.525H.625a.625.625 0 0 0-.625.625c0 1.497.278 2.692.827 3.55.69 1.078 1.771 1.625 3.215 1.625h23.916c1.444 0 2.525-.547 3.215-1.625.549-.858.827-2.053.827-3.55a.625.625 0 0 0-.625-.625zm-3.417 4.55c1.003 0 1.71-.343 2.162-1.049.346-.54.55-1.296.611-2.251H1.269c.06.955.265 1.71.611 2.251.452.706 1.159 1.049 2.162 1.049h23.916z" fill="#343A40"/><path fill-rule="evenodd" clip-rule="evenodd" d="M19.3 28.017h-6.6a.625.625 0 0 0 0 1.25h6.6a.625.625 0 0 0 0-1.25z" fill="#343A40"/><path d="M16.276 2.765h0C16.889 1.9 17.996.85 19.75.85c1.241 0 2.377.511 3.195 1.44l-.112.099.112-.1c.779.884 1.205 2.064 1.205 3.32 0 1.377-.54 2.648-1.671 3.994-1.005 1.196-2.448 2.426-4.103 3.836l-.008.007-.006.005c-.617.526-1.255 1.07-1.934 1.663l-.02.018h0a.617.617 0 0 1-.816 0h0l-.02-.018.704-12.35zm0 0a6.107 6.107 0 0 0-.276.427m.276-.427L16 3.192m0 0a6.112 6.112 0 0 0-.276-.427C15.111 1.9 14.004.85 12.25.85a4.205 4.205 0 0 0-3.195 1.44h0c-.779.883-1.205 2.063-1.205 3.32 0 1.376.54 2.647 1.671 3.993 1.005 1.196 2.448 2.425 4.103 3.836l.008.007c.62.527 1.26 1.072 1.94 1.668L16 3.192zm-.588 1.675a.619.619 0 0 0 1.176 0 5.41 5.41 0 0 1 .698-1.387l-.123-.086.123.086c.457-.645 1.248-1.393 2.464-1.393.883 0 1.687.363 2.267 1.02.575.653.896 1.541.896 2.503 0 1.153-.514 2.179-1.445 3.27-.934 1.094-2.274 2.236-3.903 3.624-.503.429-1.021.87-1.565 1.342-.544-.472-1.062-.913-1.565-1.342-1.63-1.388-2.969-2.53-3.903-3.624-.931-1.091-1.444-2.117-1.444-3.27 0-.962.32-1.85.895-2.502a2.979 2.979 0 0 1 2.267-1.02c1.216 0 2.007.747 2.464 1.392h0c.41.579.625 1.164.698 1.387zm0 0l.142-.047-.142.047s0 0 0 0z" fill="#3EA77C" stroke="#3EA77C" stroke-width=".3"/></symbol><symbol id="recommend_recirculation"><path d="M3.273 25.052A.865.865 0 0 0 4 23.718a14.272 14.272 0 0 1-2.25-6.97 14.159 14.159 0 0 1 2.432-8.743l.263 1.86a.865.865 0 0 0 1.713-.244L5.61 5.753c-.002-.014-.007-.027-.01-.042a.912.912 0 0 0-.086-.242.908.908 0 0 0-.154-.208l-.027-.03c-.009-.008-.02-.013-.028-.02a.854.854 0 0 0-.23-.137l-.063-.023a.913.913 0 0 0-.099-.024.905.905 0 0 0-.24-.012c-.013.002-.026 0-.04.002l-3.864.544a.865.865 0 0 0 .24 1.713l1.744-.245a15.874 15.874 0 0 0-2.73 9.809 16 16 0 0 0 2.522 7.817.867.867 0 0 0 .728.397zM24.914 28.26a.864.864 0 0 0-1.196-.258 14.267 14.267 0 0 1-6.97 2.25 14.142 14.142 0 0 1-8.743-2.432l1.859-.263a.865.865 0 1 0-.243-1.713l-3.868.548c-.015.002-.028.008-.043.01a.868.868 0 0 0-.448.24l-.03.027c-.009.01-.014.02-.022.03a.81.81 0 0 0-.096.142.926.926 0 0 0-.035.076c-.01.026-.022.052-.03.08a.967.967 0 0 0-.033.336c.002.012 0 .024.002.036l.544 3.864a.865.865 0 1 0 1.713-.242l-.245-1.74a15.853 15.853 0 0 0 9.808 2.728 15.994 15.994 0 0 0 7.817-2.523.865.865 0 0 0 .259-1.195z" fill="#343A40"/><path d="M31.98 15.163a16 16 0 0 0-2.523-7.817.865.865 0 0 0-1.455.937 14.272 14.272 0 0 1 2.25 6.97 14.16 14.16 0 0 1-2.432 8.743l-.262-1.859a.866.866 0 0 0-1.713.243l.547 3.869.011.045a.773.773 0 0 0 .048.16l.028.064a.851.851 0 0 0 .05.083c.012.019.023.037.036.054.024.03.05.058.077.085.01.01.018.021.028.03l.007.006a.907.907 0 0 0 .09.066c.013.009.025.02.038.027.038.023.08.043.122.06l.055.019a.889.889 0 0 0 .112.03c.036.007.072.01.11.01.014.002.03.005.044.005h.003c.04 0 .079-.002.119-.008l3.864-.544a.865.865 0 0 0-.241-1.713l-1.744.245a15.882 15.882 0 0 0 2.73-9.81z" fill="#3EA77C"/><path d="M26.277 5.603c.028-.005.055-.013.082-.02a.856.856 0 0 0 .088-.028.894.894 0 0 0 .296-.197c.009-.01.02-.016.029-.026.008-.009.013-.02.02-.029a1.003 1.003 0 0 0 .132-.219.822.822 0 0 0 .03-.08l.019-.079a.968.968 0 0 0 .014-.085.954.954 0 0 0 0-.172c-.002-.012 0-.023-.002-.035L26.441.768a.865.865 0 0 0-1.713.242l.246 1.744a15.863 15.863 0 0 0-9.81-2.731 15.994 15.994 0 0 0-7.817 2.523.865.865 0 0 0 .937 1.453 14.266 14.266 0 0 1 6.97-2.249 14.144 14.144 0 0 1 8.743 2.432l-1.858.263a.865.865 0 1 0 .242 1.713l3.869-.548c.01-.001.018-.005.027-.007z" fill="#343A40"/></symbol><symbol id="recommend_revenue"><path d="M.66 15.86a.73.73 0 0 0-.472.234.718.718 0 0 0-.188.487v12.977c0 .191.077.375.213.51a.73.73 0 0 0 .514.211h5.091a.73.73 0 0 0 .514-.211.718.718 0 0 0 .213-.51V27.35c1.073.785 2.037 1.552 3.194 2.197C11.287 30.41 13.176 31 16 31c3.002 0 6.49-1.609 9.307-3.165a52.24 52.24 0 0 0 4.92-3.087l.023-.022c.547-.363.975-.66 1.295-1.104.327-.453.455-1.013.455-1.634 0-.54-.239-1.034-.568-1.351a2.625 2.625 0 0 0-1.08-.609c-.73-.223-1.443-.202-1.625-.202-.923 0-1.841.41-2.625.788-.47.227-.59.305-.84.45a2.542 2.542 0 0 0-2.353-1.599h-6.648c-2.06-1.81-5.55-2.122-9.716-2.151v-.733a.718.718 0 0 0-.213-.51.73.73 0 0 0-.514-.21H.728a.705.705 0 0 0-.069 0zm.795 1.442H5.09v8.651a.714.714 0 0 0 0 .08v2.804H1.455V17.302zm5.09 1.465c4.214.05 7.529.523 8.944 1.926a.73.73 0 0 0 .511.214h6.91c.616 0 1.09.47 1.09 1.081 0 .612-.474 1.082-1.09 1.082H12.363a.732.732 0 0 0-.682.442.716.716 0 0 0 .4.948c.09.035.185.053.282.052h10.545c1.15 0 2.086-.792 2.398-1.837a.73.73 0 0 0 .17-.078s.553-.345 1.262-.688c.708-.342 1.606-.642 1.988-.642.182 0 .743.01 1.193.147.226.069.41.16.5.248.092.088.125.146.125.326 0 .461-.053.61-.181.789-.129.178-.425.416-.955.766a.602.602 0 0 0-.023.022s-2.055 1.512-4.784 3.02c-2.728 1.507-6.15 2.973-8.602 2.973-2.63 0-4.196-.503-5.557-1.261C9.18 27.592 8.05 26.6 6.545 25.57v-6.803z" fill="#343A40"/><path d="M19.273 0c-4.21 0-7.637 3.398-7.637 7.57 0 4.172 3.428 7.57 7.637 7.57 4.208 0 7.636-3.398 7.636-7.57 0-4.172-3.428-7.57-7.636-7.57zm0 1.442c3.422 0 6.181 2.735 6.181 6.128 0 3.393-2.759 6.128-6.181 6.128-3.423 0-6.182-2.735-6.182-6.128 0-3.393 2.759-6.128 6.182-6.128zm-.08 1.43a.73.73 0 0 0-.467.242.717.717 0 0 0-.18.49V4a2.184 2.184 0 0 0-1.819 2.129c0 1.229 1.162 2.163 2.546 2.163.81 0 1.09.352 1.09.72 0 .466-.183.722-.727.722h-2.182a.733.733 0 0 0-.68.442.716.716 0 0 0 .399.947c.09.036.185.054.281.052h1.091v.36a.717.717 0 0 0 .447.676.732.732 0 0 0 .956-.396.717.717 0 0 0 .052-.28v-.393a2.185 2.185 0 0 0 1.818-2.13c0-1.228-1.161-2.162-2.545-2.162-.811 0-1.091-.352-1.091-.721 0-.465.183-.721.727-.721h2.182a.733.733 0 0 0 .681-.443.716.716 0 0 0-.4-.947.733.733 0 0 0-.281-.052H20v-.36a.716.716 0 0 0-.501-.701.734.734 0 0 0-.306-.032z" fill="#3EA77C"/></symbol><symbol id="recommend_churn"><circle cx="15.998" cy="24.998" r="15.248" stroke="#343A40" stroke-width="1.5"/><path d="M15.5 18v8l6.5 4" stroke="#343A40" stroke-width="1.5" stroke-linecap="round" stroke-linejoin="round"/><path d="M24.5 9.75c0 .69.56 1.25 1.25 1.25h3.482l-4.366 4.366a1.25 1.25 0 0 0 .884 2.134h6.5a1.25 1.25 0 1 0 0-2.5h-3.482l4.366-4.366a1.25 1.25 0 0 0 .27-1.362l-.461.191.462-.191A1.25 1.25 0 0 0 32.25 8.5h-6.5c-.69 0-1.25.56-1.25 1.25zM32.375 1.25h1.138l-1.757 1.756a.875.875 0 0 0 .619 1.494h3.25a.875.875 0 0 0 0-1.75h-1.138L36.244.994a.875.875 0 0 0 .19-.954l-.463.191.462-.19a.875.875 0 0 0-.808-.541h-3.25a.875.875 0 0 0 0 1.75zM43.42 7.156l-.461.19.46-.19a1.062 1.062 0 0 0-.981-.656h-4.876a1.063 1.063 0 0 0 0 2.125h2.31l-3.06 3.061a1.062 1.062 0 0 0 .75 1.814h4.876a1.063 1.063 0 0 0 0-2.125h-2.31l3.06-3.061c.305-.304.396-.761.231-1.158z" fill="#EB5757" stroke="#fff" stroke-linecap="round" stroke-linejoin="round"/></symbol><symbol id="recommend_ads"><path d="M25.866 5.333a.8.8 0 1 0 0 1.6.8.8 0 0 0 0-1.6z" fill="#EB5757"/><path d="M28.11.156a.533.533 0 0 0-.753 0L23.09 4.423c-.1.1-.156.235-.156.377v3.733c0 .295.238.534.533.534H27.2a.533.533 0 0 0 .377-.157l4.267-4.266a.533.533 0 0 0 0-.755L28.111.156zM26.98 8H24V5.02l3.734-3.733 2.979 2.98L26.98 8z" fill="#EB5757"/><path d="M.533 18.133h1.6v.069c.002.96.665 1.79 1.6 2.007v4.858c0 .294.24.533.534.533h3.2A.533.533 0 0 0 8 25.067v-2.134h.538a1.6 1.6 0 0 0 1.595-1.595v-1.129a2.062 2.062 0 0 0 1.471-1.313l8.98 3.991a.533.533 0 0 0 .75-.487V9.6a.533.533 0 0 0-.75-.487l-8.98 3.99a2.06 2.06 0 0 0-1.936-1.37h-5.47a2.067 2.067 0 0 0-2.065 2.065v.069h-1.6A.533.533 0 0 0 0 14.4v3.2c0 .294.239.533.533.533zm17.6-6.765l2.134-.947v11.158l-2.134-.947v-9.264zm-6.4 2.845l5.334-2.37v8.317l-5.334-2.373v-3.574zm-4.8 8.187v2.133H4.8v-4.266h2.133V22.4zm2.134-1.062a.53.53 0 0 1-.53.529H8v-1.6h1.067v1.07zM3.2 17.6v-3.802a1 1 0 0 1 .998-.998h5.47a1 1 0 0 1 .999.998v4.404a1 1 0 0 1-.999.998h-5.47a1 1 0 0 1-.998-.998V17.6zm-2.133-2.667h1.066v2.134H1.067v-2.134z" fill="#343A40"/><path d="M26.564 20.972a.533.533 0 0 0-.754 0l-3.771 3.771a.533.533 0 0 0 0 .755l5.28 5.28a.533.533 0 0 0 .754 0l3.77-3.772a.533.533 0 0 0 0-.754l-5.279-5.28zm3.506 5.013l-3.01-.23-.23-3.01 3.24 3.24zm-2.375 3.66L23.17 25.12l2.574-2.574.289 3.746c.02.262.228.47.49.491l3.747.288-2.575 2.574zM14.4 10.133a3.726 3.726 0 0 0 2.987-5.965L20.645.91l-.756-.754-3.258 3.257a3.734 3.734 0 1 0-2.231 6.72zm0-6.4a2.667 2.667 0 1 1 0 5.334 2.667 2.667 0 0 1 0-5.334zM22.933 18.667H25.6v.533c0 .295.239.533.533.533H30.4a.533.533 0 0 0 .533-.533v-2.656a2.14 2.14 0 0 0-1.43-2.013 2.133 2.133 0 1 0-2.473 0 2.14 2.14 0 0 0-.894.61 2.132 2.132 0 0 0-.667-.515 1.6 1.6 0 1 0-1.871 0 2.129 2.129 0 0 0-1.198 1.907v1.6c0 .295.239.534.533.534zm5.334-6.934a1.067 1.067 0 1 1 0 2.134 1.067 1.067 0 0 1 0-2.134zm-1.6 6.4v-1.59a1.078 1.078 0 0 1 1.076-1.076h1.047c.594 0 1.076.482 1.076 1.077v2.122h-3.2v-.533zM24.532 12.8a.533.533 0 1 1 0 1.067.533.533 0 0 1 0-1.067zm-1.066 3.733a1.067 1.067 0 1 1 2.133 0V17.6h-2.133v-1.067zM14.934 21.867H12.8a.534.534 0 0 0-.377.156l-3.2 3.2a.533.533 0 0 0 0 .754l5.867 5.867a.533.533 0 0 0 .754 0l4.267-4.267a.534.534 0 0 0 0-.754l-4.8-4.8a.534.534 0 0 0-.377-.156zm.533 8.846L10.354 25.6l2.667-2.667h1.692l4.266 4.267-3.512 3.513z" fill="#EB5757"/><path d="M12.423 26.29l2.134-2.134.754.754-2.133 2.134-.755-.754zM14.023 27.89l2.133-2.134.754.754-2.133 2.134-.754-.755z" fill="#EB5757"/></symbol><symbol id="recommend_creepy"><path d="M31.313.57H7.649a.687.687 0 0 0-.688.688v13.665H.687a.687.687 0 0 0-.687.688v11.65a4.173 4.173 0 0 0 4.168 4.168h23.664A4.173 4.173 0 0 0 32 27.261V1.258a.687.687 0 0 0-.687-.687zM1.375 27.262V16.298H6.96V27.26a2.797 2.797 0 0 1-2.793 2.794 2.796 2.796 0 0 1-2.793-2.794zm29.25 0a2.797 2.797 0 0 1-2.793 2.794H7.259a4.152 4.152 0 0 0 1.077-2.794V1.945h22.29v25.316z" fill="#343A40"/><path d="M18.515 8.51h8.81a.687.687 0 1 0 0-1.375h-8.81a.687.687 0 1 0 0 1.375zM18.515 16.061h8.81a.687.687 0 1 0 0-1.374h-8.81a.687.687 0 1 0 0 1.374z" fill="#343A40"/><path d="M11 14l4 4m0-4l-4 4M11 6l4 4m0-4l-4 4M11 21l4 4m0-4l-4 4" stroke="#EB5757" stroke-linecap="round" stroke-linejoin="round"/><path d="M18.515 23.613h8.81a.687.687 0 1 0 0-1.375h-8.81a.687.687 0 1 0 0 1.375z" fill="#343A40"/></symbol></svg>