<svg version="1" xmlns="http://www.w3.org/2000/svg" width="184" height="184" viewBox="0 0 138.000000 138.000000"><path d="M54.5 12c-4.3 1-6.9 2.5-9.9 6-1.4 1.7-4.8 4.9-7.5 7-5.5 4.3-9.6 11.7-10.7 19-.4 2.5-1.7 5.9-3 7.6-6.2 8.4-9 17.9-7.9 27.1.7 5.9 5.3 15.7 9.3 20 1.7 1.8 3.3 4.7 3.7 6.5 3.4 15.8 20.3 25.2 35.3 19.6 4.9-1.8 5.5-1.9 9.5-.3 8.8 3.3 17.9 2.3 25.9-3 4.6-3 9.5-10.3 10.4-15.4.4-2 2.2-5.3 4.2-7.5 1.9-2.1 4.6-6.4 6.1-9.5 2.2-4.8 2.6-7 2.6-14.6 0-10-1.6-15-6.9-21.9-1.7-2.2-3.1-4.6-3.2-5.5-1.5-10.9-3.8-15.7-10.6-21.5-2.4-2-4.7-4.1-5.3-4.6-.5-.5-2.1-2.1-3.5-3.6-5.3-5.8-14.1-7.4-21.2-3.9-2.4 1.1-3.2 1.1-5.7-.1-3.6-1.8-7.6-2.3-11.6-1.4zm10.8 5.4c2.6 1.3 4.7 2 4.7 1.5 0-1.7 8.9-4.1 12.6-3.4 3.6.6 5.6 2.2 19 15.2 4.5 4.4 6.5 9.3 6.9 16.6.2 2.5 1.1 4.7 2.8 6.5 4.8 5 7.2 11.9 7.2 20.7 0 9.2-2.1 14.8-7.8 21.1-2.1 2.4-3.8 5.5-4.3 7.9-2.1 11.4-11.2 18.9-22.9 19-4.2 0-7.3-.6-10.3-2.2l-4.4-2.1-3.6 2.1c-5.1 3-15.1 3-20.8 0-7.1-3.7-11.3-9.9-12.8-18.4-.2-1.5-1.9-4.1-3.6-5.9-5.4-5.5-8.4-13.3-8.4-21.7.1-8.2 1.9-13.5 7.1-20 2.5-3.2 3.3-5.1 3.3-8.3 0-7.3 5.1-16.1 11.3-19.5 1.8-.9 4.3-3.3 5.5-5.1 2.3-3.6 7-6.2 11.3-6.3 1.4-.1 4.7 1 7.2 2.3z"/><path d="M56.5 21.1c-1.6.5-4.6 2.6-6.6 4.6-2 2.1-5.3 5.1-7.4 6.7-5 3.9-7.8 10.3-7.2 16.6.5 4.4.2 5.3-2.4 8.2-4.9 5.5-6.4 9.6-6.3 17.3 0 7.9 2.1 13.2 7.4 18.1 2.4 2.4 3 3.7 3 7.3 0 11.8 12.2 20.4 23.4 16.6 7.6-2.6 7.1.8 7-48.7-.1-24.4-.2-44.6-.3-45-.1-.6-2.4-1.5-6.1-2.3-.8-.2-2.8.1-4.5.6zm7.1 11.8c-.1 8.7-1 9.7-5.8 7.1-3.3-1.8-3.9-1.8-5.3-.4-3.6 3.6-1.1 6.1 6.1 6l5-.1v14.7c0 8.2-.2 14.8-.6 14.8-.3 0-1.1-.9-1.8-2-1.3-2.1-4.7-2.7-5.7-.9-.4.5-.4 2.1-.1 3.5.5 1.9 1.3 2.4 3.6 2.4 1.6 0 3.2.6 3.7 1.2.4.7.8 8.2.9 16.7v15.4l-3.4 1.4c-9.1 3.8-20.2-3.8-19.5-13.5 0-.6.1-2.1.2-3.1.1-2.5 5-8.3 6.2-7.5 1.4.8 3.9-1.5 3.9-3.7 0-1-.5-2.1-1.1-2.4-1.4-.9-5.9.3-5.9 1.5 0 .6-1.4 2.4-3 4.2-3 3.1-3 3.1-5.1 1.2-7.5-6.6-7.6-23.1-.2-29.7 1.9-1.7 2.1-1.6 6.2 2.8 4.8 5.2 8.3 5.8 8.9 1.6.4-2.6-1.2-4.1-4.4-4.1-2.8 0-5.3-2.9-6.8-8.2-2.4-7.9 2.5-17.5 9.9-19.4 1.2-.3 2.8-1.7 3.4-3 1.3-3 6.9-5.6 9.2-4.4 1.3.7 1.6 2.4 1.5 7.9zM56 43.4c-1.3 1.3-3.5-.7-2.5-2.4.5-.8 1.1-.8 2.1.1 1 .8 1.2 1.5.4 2.3zm-7 20.1c0 .8-.7 1.5-1.5 1.5s-1.5-.7-1.5-1.5.7-1.5 1.5-1.5 1.5.7 1.5 1.5zm11 11c0 .8-.7 1.5-1.5 1.5s-1.5-.7-1.5-1.5.7-1.5 1.5-1.5 1.5.7 1.5 1.5zm-11 11c0 .8-.7 1.5-1.5 1.5s-1.5-.7-1.5-1.5.7-1.5 1.5-1.5 1.5.7 1.5 1.5zM74.3 21.1l-3.3 1V112.8l3.3 2.1c6.3 3.8 16.1 2.8 21.6-2.2 3.3-3 6-9.5 5.6-13.6-.2-2.8.4-4 3.2-6.9 7.9-7.9 9.8-19.9 4.6-29.4-1.5-2.7-3.7-5.8-5-6.8-1.8-1.4-2.1-2.2-1.4-4.6 2.2-7.7-2.8-17.7-10.9-21.9-1.6-.8-3-2.1-3-2.8 0-1.5-5.7-5.3-9-6-1.4-.2-4-.1-5.7.4zm10.3 7.2c1.4 1.7 4.2 3.8 6.2 4.9 6.6 3.2 10.3 11.6 8.2 18.7-1.2 4.4-5.6 9-7.9 8.4-2.3-.6-4.4 2.1-3.6 4.7 1.1 3.3 4.4 2.4 9.1-2.7l4.4-4.6 2.1 2.4c4.9 5.5 6.6 13.1 4.4 20.3-1.5 4.9-5.4 10.6-7.4 10.6-.5 0-2.5-2.2-4.5-4.9-3.9-5.2-6.9-5.9-8.2-1.9-.7 2.4.7 4 3.8 4.5 4.9.7 7.7 8.2 5.8 15.3-1.6 5.9-6.8 9.5-13.6 9.4-8.6 0-8.9-.6-8.8-18.1 0-8.2.4-15.5.8-16.1.4-.7 2-1.2 3.6-1.2 3.4 0 5.3-2.6 3.9-5.2-1.3-2.5-4.5-2.2-6.3.4-1.1 1.6-1.6 1.8-1.7.8-.3-4.1-.4-26.6-.2-27.5.2-.6 2.5-1 5.1-.9 5.2.2 7.2-.9 7.2-3.7 0-3-3.4-4.2-6.1-2-2.1 1.6-5.8 1.8-6 .2-.2-1-.2-8.4 0-11.8.2-5.2 5.3-5.2 9.7 0zm.4 14.3c0 1.6-1.6 1.9-2.5.4-.8-1.3.4-3.2 1.6-2.5.5.4.9 1.3.9 2.1zm7 20.9c0 .8-.7 1.5-1.5 1.5-1.6 0-2-1.2-.8-2.3 1.1-1.2 2.3-.8 2.3.8zm-10.9 11c.1 1.7-1.8 1.7-2.5 0-.4-1.1-.1-1.5 1-1.3.8.2 1.5.7 1.5 1.3zM92 86.4c-1.3 1.3-3.5-.7-2.5-2.4.5-.8 1.1-.8 2.1.1 1 .8 1.2 1.5.4 2.3z"/></svg>