<svg xmlns="http://www.w3.org/2000/svg" xmlns:xlink="http://www.w3.org/1999/xlink" viewBox="0 0 170 170"><defs><style>.a{fill:#fff;}.b{fill:url(#a);}.c{fill:#b4b48e;opacity:0.5;}.d{fill:url(#b);}.e,.h{fill:none;stroke:#fff;stroke-linecap:round;stroke-linejoin:round;stroke-miterlimit:10;}.e{stroke-width:1.5px;}.f{fill:url(#c);}.g{fill:#fecc4d;}</style><linearGradient id="a" x1="0.5" y1="1.001" x2="0.5" y2="-0.001" gradientUnits="objectBoundingBox"><stop offset="0" stop-color="#ff6e2a"/><stop offset="1" stop-color="#ffa12a"/></linearGradient><linearGradient id="b" y1="0.5" x2="0.999" y2="0.5" gradientUnits="objectBoundingBox"><stop offset="0" stop-color="#239b6a"/><stop offset="1" stop-color="#4ccd9b"/></linearGradient><linearGradient id="c" x1="1.935" y1="2.027" x2="2.935" y2="2.027" gradientUnits="objectBoundingBox"><stop offset="0" stop-color="#4263eb"/><stop offset="1" stop-color="#1f46e7"/></linearGradient></defs><g transform="translate(-555 -1107)"><rect class="a" width="170" height="170" transform="translate(555 1107)"/><g transform="translate(564 1122.928)"><path class="a" d="M143.9,69.8a37.074,37.074,0,0,0-3.1-11.4,2.994,2.994,0,0,0-.4-.8h0c-.2-.3-.3-.7-.5-1h0a51.683,51.683,0,0,0-8.4-11.9c-.1-14.6-6.3-25.7-19.7-32.7A20.85,20.85,0,0,0,95.8.3a21.832,21.832,0,0,0-16.1,4,21.7,21.7,0,0,0-16-4A21.012,21.012,0,0,0,47.7,12C34.3,18.9,28.1,30,28,44.6a51.683,51.683,0,0,0-8.4,11.9h0a9.292,9.292,0,0,1-.5,1h0a2.994,2.994,0,0,1-.4.8,38.66,38.66,0,0,0-3.1,11.4,50.854,50.854,0,0,0-.4,5.5A42.843,42.843,0,0,0,23,99.9a45.8,45.8,0,0,0,6.9,7.7c.6.5.5,1.2.6,1.8a31.665,31.665,0,0,0,7.5,17A32.416,32.416,0,0,0,52.3,136a31.848,31.848,0,0,0,8.7,1.6h3.2a1.268,1.268,0,0,0,.6-.1h.4c.6,0,3-.4,3.6-.5h.1c.2,0,.4-.1.6-.1s.4-.1.6-.1c.1,0,.1,0,.2-.1.1,0,.3-.1.4-.1a31.084,31.084,0,0,0,8.6-3.7h.1a.367.367,0,0,1,.3-.1,1.268,1.268,0,0,1,.6.1l.6.3c.8.5,1.7.9,2.5,1.3a5.9,5.9,0,0,1,.8.4,29.772,29.772,0,0,0,11.4,2.7h3.2a30.964,30.964,0,0,0,6.1-.9h.2c.1,0,.2-.1.3-.1a26.4,26.4,0,0,0,4.7-1.7,32.067,32.067,0,0,0,19-25.5c.1-.6,0-1.3.6-1.8a39.155,39.155,0,0,0,6.9-7.7,42.843,42.843,0,0,0,7.8-24.7C144.3,73.5,144.1,71.6,143.9,69.8Z"/><path class="b" d="M143.9,69.8a37.074,37.074,0,0,0-3.1-11.4,2.994,2.994,0,0,0-.4-.8h0c-.2-.3-.3-.7-.5-1h0a51.683,51.683,0,0,0-8.4-11.9c-.1-14.6-6.3-25.7-19.7-32.7A20.85,20.85,0,0,0,95.8.3a21.832,21.832,0,0,0-16.1,4,21.7,21.7,0,0,0-16-4A21.012,21.012,0,0,0,47.7,12C34.3,18.9,28.1,30,28,44.6a51.683,51.683,0,0,0-8.4,11.9h0a9.292,9.292,0,0,1-.5,1h0a2.994,2.994,0,0,1-.4.8,38.66,38.66,0,0,0-3.1,11.4,50.854,50.854,0,0,0-.4,5.5A42.843,42.843,0,0,0,23,99.9a45.8,45.8,0,0,0,6.9,7.7c.6.5.5,1.2.6,1.8a31.665,31.665,0,0,0,7.5,17A32.416,32.416,0,0,0,52.3,136a31.848,31.848,0,0,0,8.7,1.6h3.2a1.268,1.268,0,0,0,.6-.1h.4c.6,0,3-.4,3.6-.5h.1c.2,0,.4-.1.6-.1s.4-.1.6-.1c.1,0,.1,0,.2-.1.1,0,.3-.1.4-.1a31.084,31.084,0,0,0,8.6-3.7h.1a.367.367,0,0,1,.3-.1,1.268,1.268,0,0,1,.6.1l.6.3c.8.5,1.7.9,2.5,1.3a5.9,5.9,0,0,1,.8.4,29.772,29.772,0,0,0,11.4,2.7h3.2a30.964,30.964,0,0,0,6.1-.9h.2c.1,0,.2-.1.3-.1a26.4,26.4,0,0,0,4.7-1.7,32.067,32.067,0,0,0,19-25.5c.1-.6,0-1.3.6-1.8a39.155,39.155,0,0,0,6.9-7.7,42.843,42.843,0,0,0,7.8-24.7C144.3,73.5,144.1,71.6,143.9,69.8Zm-4.3,8c-.2,2-.4,4-.8,6a37.91,37.91,0,0,1-13.3,21.4.909.909,0,0,0-.4.8c-.1,1.2-.1,2.5-.3,3.7a29.65,29.65,0,0,1-1.9,6.8c-.1.1-.1.2-.2.3a32.477,32.477,0,0,1-3.3,5.7,22.53,22.53,0,0,1-2.1,2.4,29.5,29.5,0,0,1-7.4,5.6l-.6.3h0a29.779,29.779,0,0,1-7.3,2.4,26.954,26.954,0,0,1-2.8.4,27.787,27.787,0,0,1-7-.3,27.437,27.437,0,0,1-3.9-.9,28.828,28.828,0,0,1-5.7-2.6c-.1-.1-.3-.2-.4-.3h0c-.7-.4-1.4-.9-2.1-1.4a1.078,1.078,0,0,0-.7-.2c-.1,0-.2.1-.3.2a2.182,2.182,0,0,0-.5.4A27.576,27.576,0,0,1,68.5,133a6.752,6.752,0,0,1-1.4.2,31.154,31.154,0,0,1-5.2.4,22.973,22.973,0,0,1-4.5-.5,27.3,27.3,0,0,1-11.1-4.6,28.563,28.563,0,0,1-4.2-3.6,15.38,15.38,0,0,1-1.2-1.3,27.68,27.68,0,0,1-4.2-6.8c-.1-.1-.1-.2-.2-.3a29.649,29.649,0,0,1-1.9-6.8c-.2-1.2-.2-2.5-.3-3.7a.812.812,0,0,0-.4-.8A37.585,37.585,0,0,1,20.6,83.8a41.126,41.126,0,0,1-.8-6,36.658,36.658,0,0,1,3-17.6,41.053,41.053,0,0,1,9.9-13.4c-1.4-13.4,3.9-24.7,18-31.5C55.7,4.5,69.6-.4,79.6,10c10.1-10.4,24-5.6,29,5.2,14.1,6.8,19.4,18.1,18,31.5a40.023,40.023,0,0,1,9.9,13.4A35.961,35.961,0,0,1,139.6,77.8Zm-62,14.8v27.6a1.135,1.135,0,0,1-.3.8,21.284,21.284,0,0,1-28,1.1,20.542,20.542,0,0,1-6.6-8.8.593.593,0,0,1,.3-.9l2.7-1.5c.4-.2.5-.2.7.2a17.173,17.173,0,0,0,14.3,11.4,17.22,17.22,0,0,0,12.2-3.1,1.513,1.513,0,0,0,.7-1.4V95.4a.887.887,0,0,1,.6-1,31.358,31.358,0,0,0,3.1-1.8C77.2,92.8,77.3,92.7,77.6,92.6Zm0-79.1c-8-5.3-18.3-2.8-22.6,7.1-7.7,2.9-13,8.2-15.2,16.5a23.584,23.584,0,0,0,.5,14.2,28.228,28.228,0,0,0-9.6,12c-.1.1-.1.2-.2.3a19.452,19.452,0,0,0-.8,2.2v.1h0a24.723,24.723,0,0,0-1.1,4.7,38.865,38.865,0,0,0-.4,4.9,28.511,28.511,0,0,0,4.7,16,29.975,29.975,0,0,0,8.3,8.7.949.949,0,0,1,.4,1.1,19.75,19.75,0,0,0-.4,6.4,21.481,21.481,0,0,0,7,13.9,21.365,21.365,0,0,0,25.2,2.6c.8-.5,1.5-1.2,2.3-1.8.3-.2.5-.5.8-.6,1-.4,1.1-1.2,1.1-2.2V90.8h.1V13.5ZM73.3,88.4v29.9a1.173,1.173,0,0,1-.5,1.1,16.939,16.939,0,0,1-11.7,3.3,17.146,17.146,0,0,1-15.6-14.4,16.872,16.872,0,0,1,5.9-16,.919.919,0,0,1,1-.2A4.258,4.258,0,0,0,58,89.5a4.319,4.319,0,0,0-3.1-5.4,4.13,4.13,0,0,0-5.1,3.6,2.355,2.355,0,0,1-.5,1,34.054,34.054,0,0,0-5,5.7,17.588,17.588,0,0,0-1.2,2c-.6-.5-1.2-.9-1.8-1.4a25.077,25.077,0,0,1-8.7-15.7,26.677,26.677,0,0,1,.9-11.9,34.493,34.493,0,0,1,8.7-12.3,30.968,30.968,0,0,0,7.4,8.1l.1-.1A4.319,4.319,0,0,0,54,66.8,4.4,4.4,0,0,0,54,58a4.388,4.388,0,0,0-2.7.9c-6.2-4.4-9.5-12.4-7.5-21.1,2.8-8.7,8.4-12.4,15.3-13.8,2.1-6.6,7.2-9.9,14.2-7.4V34.8a9.721,9.721,0,0,1-6.4.7,4.407,4.407,0,1,0-4.3,5.4,4.032,4.032,0,0,0,2.2-.6,15,15,0,0,0,8.4,0V76.5a5.119,5.119,0,0,0-2.1-1v-.1a4.4,4.4,0,1,0-4.4,4.4,4.032,4.032,0,0,0,2.2-.6,12.705,12.705,0,0,1,4.2,2.9v5.7h0A.735.735,0,0,1,73.3,88.4Zm-21.6-.1a2.2,2.2,0,1,1,2.2,2.2A2.1,2.1,0,0,1,51.7,88.3Zm.1-25.9A2.2,2.2,0,1,1,54,64.6,2.156,2.156,0,0,1,51.8,62.4ZM64.9,36.5a2.2,2.2,0,1,1-2.2-2.2A2.22,2.22,0,0,1,64.9,36.5Zm4.2,38.9a2.2,2.2,0,1,1-2.2-2.2A2.156,2.156,0,0,1,69.1,75.4Zm8.5-61.9c-8-5.3-18.3-2.8-22.6,7.1-7.7,2.9-13,8.2-15.2,16.5a23.584,23.584,0,0,0,.5,14.2,28.228,28.228,0,0,0-9.6,12c-.1.1-.1.2-.2.3a19.452,19.452,0,0,0-.8,2.2v.1h0a24.723,24.723,0,0,0-1.1,4.7,38.865,38.865,0,0,0-.4,4.9,28.511,28.511,0,0,0,4.7,16,29.975,29.975,0,0,0,8.3,8.7.949.949,0,0,1,.4,1.1,19.75,19.75,0,0,0-.4,6.4,21.481,21.481,0,0,0,7,13.9,21.365,21.365,0,0,0,25.2,2.6c.8-.5,1.5-1.2,2.3-1.8.3-.2.5-.5.8-.6,1-.4,1.1-1.2,1.1-2.2V90.8h.1V13.5ZM73.3,88.4v29.9a1.173,1.173,0,0,1-.5,1.1,16.939,16.939,0,0,1-11.7,3.3,17.146,17.146,0,0,1-15.6-14.4,16.872,16.872,0,0,1,5.9-16,.919.919,0,0,1,1-.2A4.258,4.258,0,0,0,58,89.5a4.319,4.319,0,0,0-3.1-5.4,4.13,4.13,0,0,0-5.1,3.6,2.355,2.355,0,0,1-.5,1,34.054,34.054,0,0,0-5,5.7,17.588,17.588,0,0,0-1.2,2c-.6-.5-1.2-.9-1.8-1.4a25.077,25.077,0,0,1-8.7-15.7,26.677,26.677,0,0,1,.9-11.9,34.493,34.493,0,0,1,8.7-12.3,30.968,30.968,0,0,0,7.4,8.1l.1-.1A4.319,4.319,0,0,0,54,66.8,4.4,4.4,0,0,0,54,58a4.388,4.388,0,0,0-2.7.9c-6.2-4.4-9.5-12.4-7.5-21.1,2.8-8.7,8.4-12.4,15.3-13.8,2.1-6.6,7.2-9.9,14.2-7.4V34.8a9.721,9.721,0,0,1-6.4.7,4.407,4.407,0,1,0-4.3,5.4,4.032,4.032,0,0,0,2.2-.6,15,15,0,0,0,8.4,0V76.5a5.119,5.119,0,0,0-2.1-1v-.1a4.4,4.4,0,1,0-4.4,4.4,4.032,4.032,0,0,0,2.2-.6,12.705,12.705,0,0,1,4.2,2.9v5.7h0A.735.735,0,0,1,73.3,88.4Zm-21.6-.1a2.2,2.2,0,1,1,2.2,2.2A2.1,2.1,0,0,1,51.7,88.3Zm.1-25.9A2.2,2.2,0,1,1,54,64.6,2.156,2.156,0,0,1,51.8,62.4ZM64.9,36.5a2.2,2.2,0,1,1-2.2-2.2A2.22,2.22,0,0,1,64.9,36.5Zm4.2,38.9a2.2,2.2,0,1,1-2.2-2.2A2.156,2.156,0,0,1,69.1,75.4ZM81.6,90.6h0a.1.1,0,0,1,.1.1v28.7c0,1,.1,1.8,1.1,2.2.3.1.5.4.8.6.8.6,1.5,1.3,2.3,1.8a21.365,21.365,0,0,0,25.2-2.6,21.252,21.252,0,0,0,7-13.9,19.75,19.75,0,0,0-.4-6.4.949.949,0,0,1,.4-1.1,28.724,28.724,0,0,0,8.3-8.7,30.447,30.447,0,0,0,4.7-16,40.455,40.455,0,0,0-.4-4.9,24.723,24.723,0,0,0-1.1-4.7h0v-.1c-.3-.7-.5-1.5-.8-2.2-.1-.1-.1-.2-.2-.3a27.644,27.644,0,0,0-9.6-12,23.584,23.584,0,0,0,.5-14.2c-2.2-8.3-7.5-13.5-15.2-16.5C100,10.5,89.6,8,81.7,13.3V90.6Zm4.3-3h0V81.9A14.4,14.4,0,0,1,90.1,79a4.032,4.032,0,0,0,2.2.6,4.4,4.4,0,1,0-4.4-4.4v.1a8.108,8.108,0,0,0-2.1,1v-36a14.153,14.153,0,0,0,8.4,0,4.032,4.032,0,0,0,2.2.6,4.4,4.4,0,1,0,0-8.8,4.391,4.391,0,0,0-4.3,3.4,9.721,9.721,0,0,1-6.4-.7V16.6c7-2.5,12.1.8,14.2,7.4,6.9,1.4,12.5,5.2,15.3,13.8a19.759,19.759,0,0,1-7.5,21.1A4.188,4.188,0,0,0,105,58a4.4,4.4,0,0,0,0,8.8,4.319,4.319,0,0,0,4.3-3.7l.1.1a26.779,26.779,0,0,0,7.4-8.1,34.493,34.493,0,0,1,8.7,12.3,23.914,23.914,0,0,1,.9,11.9A25.55,25.55,0,0,1,117.7,95a14.1,14.1,0,0,1-1.8,1.4c-.4-.7-.8-1.3-1.2-2a38.532,38.532,0,0,0-5-5.7,1.6,1.6,0,0,1-.5-1,4.172,4.172,0,0,0-5.1-3.6,4.237,4.237,0,0,0-3.1,5.4,4.153,4.153,0,0,0,5.6,2.6.775.775,0,0,1,1,.2,17.266,17.266,0,0,1-9.7,30.4,16.939,16.939,0,0,1-11.7-3.3,1.173,1.173,0,0,1-.5-1.1V88.4C85.9,88.2,85.9,88,85.9,87.6Zm19.5,2.9a2.2,2.2,0,1,1,2.2-2.2A2.1,2.1,0,0,1,105.4,90.5Zm-.2-25.8a2.2,2.2,0,1,1,2.2-2.2A2.156,2.156,0,0,1,105.2,64.7ZM96.6,34.3a2.2,2.2,0,1,1-2.2,2.2A2.156,2.156,0,0,1,96.6,34.3ZM92.3,73.1a2.2,2.2,0,1,1-2.2,2.2A2.22,2.22,0,0,1,92.3,73.1Z"/><path class="c" d="M150.7,53.5H100.4a2.36,2.36,0,0,1-1.6-.7L85.5,38.2a2.052,2.052,0,0,1,0-2.9L98.8,20.7a1.99,1.99,0,0,1,1.6-.7h50.3a2.22,2.22,0,0,1,2.2,2.2V51.3A2.289,2.289,0,0,1,150.7,53.5Z"/><path class="d" d="M147.3,50.1H97.1a2.36,2.36,0,0,1-1.6-.7L82.2,34.8a2.052,2.052,0,0,1,0-2.9L95.5,17.3a1.99,1.99,0,0,1,1.6-.7h50.3a2.22,2.22,0,0,1,2.2,2.2V47.9A2.38,2.38,0,0,1,147.3,50.1Z"/><path class="e" d="M113.8,41l-7.7-7.7,7.7-7.6"/><path class="e" d="M125.7,25.7l7.6,7.6L125.7,41"/><path class="a" d="M95.2,33.3a3.4,3.4,0,1,1-3.4-3.4A3.5,3.5,0,0,1,95.2,33.3Z"/><path class="c" d="M8.2,44.5H61.3a2.289,2.289,0,0,1,1.7.8L77,60.7a2.3,2.3,0,0,1,0,3.1L63,79.1a2.289,2.289,0,0,1-1.7.8H8.2a2.263,2.263,0,0,1-2.3-2.3V46.8A2.263,2.263,0,0,1,8.2,44.5Z"/><path class="f" d="M2.3,40.9H55.4a2.289,2.289,0,0,1,1.7.8l14,15.4a2.3,2.3,0,0,1,0,3.1l-14,15.4a2.289,2.289,0,0,1-1.7.8H2.3A2.485,2.485,0,0,1,0,74V43.2A2.263,2.263,0,0,1,2.3,40.9Z"/><path class="e" d="M41,50.5l8.1,8.1L41,66.7"/><path class="e" d="M17.1,66.7,9,58.6l8.1-8.1"/><circle class="a" cx="3.6" cy="3.6" r="3.6" transform="translate(57.3 55)"/><line class="e" x2="21" transform="translate(18.9 58)"/><path class="c" d="M137.7,131.1H91.9a1.8,1.8,0,0,1-1.5-.7L78.3,117.1a2,2,0,0,1,0-2.7l12.1-13.3a2.127,2.127,0,0,1,1.5-.7h45.8a2.006,2.006,0,0,1,2,2v26.5A2.058,2.058,0,0,1,137.7,131.1Z"/><path class="g" d="M132.2,128.5H86.4a1.8,1.8,0,0,1-1.5-.7L72.8,114.5a2,2,0,0,1,0-2.7L84.9,98.5a2.127,2.127,0,0,1,1.5-.7h45.8a2.006,2.006,0,0,1,2,2v26.5A2.121,2.121,0,0,1,132.2,128.5Z"/><path class="h" d="M101.6,120.2l-7-7,7-7"/><path class="h" d="M112.4,106.2l7,7-7,7"/><path class="a" d="M84.7,113.2a3.1,3.1,0,1,1-3.1-3.1A3.116,3.116,0,0,1,84.7,113.2Z"/><line class="h" x1="5.7" y2="9.4" transform="translate(104.1 108.5)"/></g></g></svg>