<svg xmlns="http://www.w3.org/2000/svg" viewBox="0 0 170 170"><defs><style>.a{fill:#fff}.c{fill:#b4b48e;opacity:.5}.e,.h{fill:none;stroke:#fff;stroke-linecap:round;stroke-linejoin:round;stroke-miterlimit:10}.e{stroke-width:1.5px}</style><linearGradient id="a" x1=".5" y1="1.001" x2=".5" y2="-.001" gradientUnits="objectBoundingBox"><stop offset="0" stop-color="#ff6e2a"/><stop offset="1" stop-color="#ffa12a"/></linearGradient><linearGradient id="b" y1=".5" x2=".999" y2=".5" gradientUnits="objectBoundingBox"><stop offset="0" stop-color="#239b6a"/><stop offset="1" stop-color="#4ccd9b"/></linearGradient><linearGradient id="c" x1="1.935" y1="2.027" x2="2.935" y2="2.027" gradientUnits="objectBoundingBox"><stop offset="0" stop-color="#4263eb"/><stop offset="1" stop-color="#1f46e7"/></linearGradient></defs><path class="a" d="M0 0h170v170H0z"/><g transform="translate(9 15.928)"><path class="a" d="M143.9 69.8a37.074 37.074 0 0 0-3.1-11.4 2.994 2.994 0 0 0-.4-.8c-.2-.3-.3-.7-.5-1a51.683 51.683 0 0 0-8.4-11.9c-.1-14.6-6.3-25.7-19.7-32.7A20.85 20.85 0 0 0 95.8.3a21.832 21.832 0 0 0-16.1 4 21.7 21.7 0 0 0-16-4 21.012 21.012 0 0 0-16 11.7C34.3 18.9 28.1 30 28 44.6a51.683 51.683 0 0 0-8.4 11.9 9.292 9.292 0 0 1-.5 1 2.994 2.994 0 0 1-.4.8 38.66 38.66 0 0 0-3.1 11.4 50.854 50.854 0 0 0-.4 5.5A42.843 42.843 0 0 0 23 99.9a45.8 45.8 0 0 0 6.9 7.7c.6.5.5 1.2.6 1.8a31.665 31.665 0 0 0 7.5 17 32.416 32.416 0 0 0 14.3 9.6 31.848 31.848 0 0 0 8.7 1.6h3.2a1.268 1.268 0 0 0 .6-.1h.4c.6 0 3-.4 3.6-.5h.1c.2 0 .4-.1.6-.1s.4-.1.6-.1c.1 0 .1 0 .2-.1.1 0 .3-.1.4-.1a31.084 31.084 0 0 0 8.6-3.7h.1a.367.367 0 0 1 .3-.1 1.268 1.268 0 0 1 .6.1l.6.3c.8.5 1.7.9 2.5 1.3a5.9 5.9 0 0 1 .8.4 29.772 29.772 0 0 0 11.4 2.7h3.2a30.964 30.964 0 0 0 6.1-.9h.2c.1 0 .2-.1.3-.1a26.4 26.4 0 0 0 4.7-1.7 32.067 32.067 0 0 0 19-25.5c.1-.6 0-1.3.6-1.8a39.155 39.155 0 0 0 6.9-7.7 42.843 42.843 0 0 0 7.8-24.7c-.1-1.7-.3-3.6-.5-5.4z"/><path d="M143.9 69.8a37.074 37.074 0 0 0-3.1-11.4 2.994 2.994 0 0 0-.4-.8c-.2-.3-.3-.7-.5-1a51.683 51.683 0 0 0-8.4-11.9c-.1-14.6-6.3-25.7-19.7-32.7A20.85 20.85 0 0 0 95.8.3a21.832 21.832 0 0 0-16.1 4 21.7 21.7 0 0 0-16-4 21.012 21.012 0 0 0-16 11.7C34.3 18.9 28.1 30 28 44.6a51.683 51.683 0 0 0-8.4 11.9 9.292 9.292 0 0 1-.5 1 2.994 2.994 0 0 1-.4.8 38.66 38.66 0 0 0-3.1 11.4 50.854 50.854 0 0 0-.4 5.5A42.843 42.843 0 0 0 23 99.9a45.8 45.8 0 0 0 6.9 7.7c.6.5.5 1.2.6 1.8a31.665 31.665 0 0 0 7.5 17 32.416 32.416 0 0 0 14.3 9.6 31.848 31.848 0 0 0 8.7 1.6h3.2a1.268 1.268 0 0 0 .6-.1h.4c.6 0 3-.4 3.6-.5h.1c.2 0 .4-.1.6-.1s.4-.1.6-.1c.1 0 .1 0 .2-.1.1 0 .3-.1.4-.1a31.084 31.084 0 0 0 8.6-3.7h.1a.367.367 0 0 1 .3-.1 1.268 1.268 0 0 1 .6.1l.6.3c.8.5 1.7.9 2.5 1.3a5.9 5.9 0 0 1 .8.4 29.772 29.772 0 0 0 11.4 2.7h3.2a30.964 30.964 0 0 0 6.1-.9h.2c.1 0 .2-.1.3-.1a26.4 26.4 0 0 0 4.7-1.7 32.067 32.067 0 0 0 19-25.5c.1-.6 0-1.3.6-1.8a39.155 39.155 0 0 0 6.9-7.7 42.843 42.843 0 0 0 7.8-24.7c-.1-1.7-.3-3.6-.5-5.4zm-4.3 8c-.2 2-.4 4-.8 6a37.91 37.91 0 0 1-13.3 21.4.909.909 0 0 0-.4.8c-.1 1.2-.1 2.5-.3 3.7a29.65 29.65 0 0 1-1.9 6.8c-.1.1-.1.2-.2.3a32.477 32.477 0 0 1-3.3 5.7 22.53 22.53 0 0 1-2.1 2.4 29.5 29.5 0 0 1-7.4 5.6l-.6.3a29.779 29.779 0 0 1-7.3 2.4 26.954 26.954 0 0 1-2.8.4 27.787 27.787 0 0 1-7-.3 27.437 27.437 0 0 1-3.9-.9 28.828 28.828 0 0 1-5.7-2.6c-.1-.1-.3-.2-.4-.3-.7-.4-1.4-.9-2.1-1.4a1.078 1.078 0 0 0-.7-.2c-.1 0-.2.1-.3.2a2.182 2.182 0 0 0-.5.4 27.576 27.576 0 0 1-10.1 4.5 6.752 6.752 0 0 1-1.4.2 31.154 31.154 0 0 1-5.2.4 22.973 22.973 0 0 1-4.5-.5 27.3 27.3 0 0 1-11.1-4.6 28.563 28.563 0 0 1-4.2-3.6 15.38 15.38 0 0 1-1.2-1.3 27.68 27.68 0 0 1-4.2-6.8c-.1-.1-.1-.2-.2-.3a29.649 29.649 0 0 1-1.9-6.8c-.2-1.2-.2-2.5-.3-3.7a.812.812 0 0 0-.4-.8 37.585 37.585 0 0 1-13.3-21.4 41.126 41.126 0 0 1-.8-6 36.658 36.658 0 0 1 3-17.6 41.053 41.053 0 0 1 9.9-13.4c-1.4-13.4 3.9-24.7 18-31.5C55.7 4.5 69.6-.4 79.6 10c10.1-10.4 24-5.6 29 5.2 14.1 6.8 19.4 18.1 18 31.5a40.023 40.023 0 0 1 9.9 13.4 35.961 35.961 0 0 1 3.1 17.7zm-62 14.8v27.6a1.135 1.135 0 0 1-.3.8 21.284 21.284 0 0 1-28 1.1 20.542 20.542 0 0 1-6.6-8.8.593.593 0 0 1 .3-.9l2.7-1.5c.4-.2.5-.2.7.2a17.173 17.173 0 0 0 14.3 11.4 17.22 17.22 0 0 0 12.2-3.1 1.513 1.513 0 0 0 .7-1.4V95.4a.887.887 0 0 1 .6-1 31.358 31.358 0 0 0 3.1-1.8c-.1.2 0 .1.3 0zm0-79.1c-8-5.3-18.3-2.8-22.6 7.1-7.7 2.9-13 8.2-15.2 16.5a23.584 23.584 0 0 0 .5 14.2 28.228 28.228 0 0 0-9.6 12c-.1.1-.1.2-.2.3a19.452 19.452 0 0 0-.8 2.2v.1a24.723 24.723 0 0 0-1.1 4.7 38.865 38.865 0 0 0-.4 4.9 28.511 28.511 0 0 0 4.7 16 29.975 29.975 0 0 0 8.3 8.7.949.949 0 0 1 .4 1.1 19.75 19.75 0 0 0-.4 6.4 21.481 21.481 0 0 0 7 13.9 21.365 21.365 0 0 0 25.2 2.6c.8-.5 1.5-1.2 2.3-1.8.3-.2.5-.5.8-.6 1-.4 1.1-1.2 1.1-2.2V90.8h.1V13.5zm-4.3 74.9v29.9a1.173 1.173 0 0 1-.5 1.1 16.939 16.939 0 0 1-11.7 3.3 17.146 17.146 0 0 1-15.6-14.4 16.872 16.872 0 0 1 5.9-16 .919.919 0 0 1 1-.2 4.258 4.258 0 0 0 5.6-2.6 4.319 4.319 0 0 0-3.1-5.4 4.13 4.13 0 0 0-5.1 3.6 2.355 2.355 0 0 1-.5 1 34.054 34.054 0 0 0-5 5.7 17.588 17.588 0 0 0-1.2 2c-.6-.5-1.2-.9-1.8-1.4a25.077 25.077 0 0 1-8.7-15.7 26.677 26.677 0 0 1 .9-11.9 34.493 34.493 0 0 1 8.7-12.3 30.968 30.968 0 0 0 7.4 8.1l.1-.1a4.319 4.319 0 0 0 4.3 3.7 4.4 4.4 0 0 0 0-8.8 4.388 4.388 0 0 0-2.7.9c-6.2-4.4-9.5-12.4-7.5-21.1 2.8-8.7 8.4-12.4 15.3-13.8 2.1-6.6 7.2-9.9 14.2-7.4v18.2a9.721 9.721 0 0 1-6.4.7 4.407 4.407 0 1 0-4.3 5.4 4.032 4.032 0 0 0 2.2-.6 15 15 0 0 0 8.4 0v36.2a5.119 5.119 0 0 0-2.1-1v-.1a4.4 4.4 0 1 0-4.4 4.4 4.032 4.032 0 0 0 2.2-.6 12.705 12.705 0 0 1 4.2 2.9v5.7a.735.735 0 0 1 .2.6zm-21.6-.1a2.2 2.2 0 1 1 2.2 2.2 2.1 2.1 0 0 1-2.2-2.2zm.1-25.9a2.2 2.2 0 1 1 2.2 2.2 2.156 2.156 0 0 1-2.2-2.2zm13.1-25.9a2.2 2.2 0 1 1-2.2-2.2 2.22 2.22 0 0 1 2.2 2.2zm4.2 38.9a2.2 2.2 0 1 1-2.2-2.2 2.156 2.156 0 0 1 2.2 2.2zm8.5-61.9c-8-5.3-18.3-2.8-22.6 7.1-7.7 2.9-13 8.2-15.2 16.5a23.584 23.584 0 0 0 .5 14.2 28.228 28.228 0 0 0-9.6 12c-.1.1-.1.2-.2.3a19.452 19.452 0 0 0-.8 2.2v.1a24.723 24.723 0 0 0-1.1 4.7 38.865 38.865 0 0 0-.4 4.9 28.511 28.511 0 0 0 4.7 16 29.975 29.975 0 0 0 8.3 8.7.949.949 0 0 1 .4 1.1 19.75 19.75 0 0 0-.4 6.4 21.481 21.481 0 0 0 7 13.9 21.365 21.365 0 0 0 25.2 2.6c.8-.5 1.5-1.2 2.3-1.8.3-.2.5-.5.8-.6 1-.4 1.1-1.2 1.1-2.2V90.8h.1V13.5zm-4.3 74.9v29.9a1.173 1.173 0 0 1-.5 1.1 16.939 16.939 0 0 1-11.7 3.3 17.146 17.146 0 0 1-15.6-14.4 16.872 16.872 0 0 1 5.9-16 .919.919 0 0 1 1-.2 4.258 4.258 0 0 0 5.6-2.6 4.319 4.319 0 0 0-3.1-5.4 4.13 4.13 0 0 0-5.1 3.6 2.355 2.355 0 0 1-.5 1 34.054 34.054 0 0 0-5 5.7 17.588 17.588 0 0 0-1.2 2c-.6-.5-1.2-.9-1.8-1.4a25.077 25.077 0 0 1-8.7-15.7 26.677 26.677 0 0 1 .9-11.9 34.493 34.493 0 0 1 8.7-12.3 30.968 30.968 0 0 0 7.4 8.1l.1-.1a4.319 4.319 0 0 0 4.3 3.7 4.4 4.4 0 0 0 0-8.8 4.388 4.388 0 0 0-2.7.9c-6.2-4.4-9.5-12.4-7.5-21.1 2.8-8.7 8.4-12.4 15.3-13.8 2.1-6.6 7.2-9.9 14.2-7.4v18.2a9.721 9.721 0 0 1-6.4.7 4.407 4.407 0 1 0-4.3 5.4 4.032 4.032 0 0 0 2.2-.6 15 15 0 0 0 8.4 0v36.2a5.119 5.119 0 0 0-2.1-1v-.1a4.4 4.4 0 1 0-4.4 4.4 4.032 4.032 0 0 0 2.2-.6 12.705 12.705 0 0 1 4.2 2.9v5.7a.735.735 0 0 1 .2.6zm-21.6-.1a2.2 2.2 0 1 1 2.2 2.2 2.1 2.1 0 0 1-2.2-2.2zm.1-25.9a2.2 2.2 0 1 1 2.2 2.2 2.156 2.156 0 0 1-2.2-2.2zm13.1-25.9a2.2 2.2 0 1 1-2.2-2.2 2.22 2.22 0 0 1 2.2 2.2zm4.2 38.9a2.2 2.2 0 1 1-2.2-2.2 2.156 2.156 0 0 1 2.2 2.2zm12.5 15.2a.1.1 0 0 1 .1.1v28.7c0 1 .1 1.8 1.1 2.2.3.1.5.4.8.6.8.6 1.5 1.3 2.3 1.8a21.365 21.365 0 0 0 25.2-2.6 21.252 21.252 0 0 0 7-13.9 19.75 19.75 0 0 0-.4-6.4.949.949 0 0 1 .4-1.1 28.724 28.724 0 0 0 8.3-8.7 30.447 30.447 0 0 0 4.7-16 40.455 40.455 0 0 0-.4-4.9 24.723 24.723 0 0 0-1.1-4.7v-.1c-.3-.7-.5-1.5-.8-2.2-.1-.1-.1-.2-.2-.3a27.644 27.644 0 0 0-9.6-12 23.584 23.584 0 0 0 .5-14.2c-2.2-8.3-7.5-13.5-15.2-16.5C100 10.5 89.6 8 81.7 13.3v77.3zm4.3-3v-5.7a14.4 14.4 0 0 1 4.2-2.9 4.032 4.032 0 0 0 2.2.6 4.4 4.4 0 1 0-4.4-4.4v.1a8.108 8.108 0 0 0-2.1 1v-36a14.153 14.153 0 0 0 8.4 0 4.032 4.032 0 0 0 2.2.6 4.4 4.4 0 1 0 0-8.8 4.391 4.391 0 0 0-4.3 3.4 9.721 9.721 0 0 1-6.4-.7V16.6c7-2.5 12.1.8 14.2 7.4 6.9 1.4 12.5 5.2 15.3 13.8a19.759 19.759 0 0 1-7.5 21.1 4.188 4.188 0 0 0-2.7-.9 4.4 4.4 0 0 0 0 8.8 4.319 4.319 0 0 0 4.3-3.7l.1.1a26.779 26.779 0 0 0 7.4-8.1 34.493 34.493 0 0 1 8.7 12.3 23.914 23.914 0 0 1 .9 11.9 25.55 25.55 0 0 1-8.7 15.7 14.1 14.1 0 0 1-1.8 1.4c-.4-.7-.8-1.3-1.2-2a38.532 38.532 0 0 0-5-5.7 1.6 1.6 0 0 1-.5-1 4.172 4.172 0 0 0-5.1-3.6 4.237 4.237 0 0 0-3.1 5.4 4.153 4.153 0 0 0 5.6 2.6.775.775 0 0 1 1 .2 17.266 17.266 0 0 1-9.7 30.4 16.939 16.939 0 0 1-11.7-3.3 1.173 1.173 0 0 1-.5-1.1V88.4c.2-.2.2-.4.2-.8zm19.5 2.9a2.2 2.2 0 1 1 2.2-2.2 2.1 2.1 0 0 1-2.2 2.2zm-.2-25.8a2.2 2.2 0 1 1 2.2-2.2 2.156 2.156 0 0 1-2.2 2.2zm-8.6-30.4a2.2 2.2 0 1 1-2.2 2.2 2.156 2.156 0 0 1 2.2-2.2zm-4.3 38.8a2.2 2.2 0 1 1-2.2 2.2 2.22 2.22 0 0 1 2.2-2.2z" fill="url(#a)"/><path class="c" d="M150.7 53.5h-50.3a2.36 2.36 0 0 1-1.6-.7L85.5 38.2a2.052 2.052 0 0 1 0-2.9l13.3-14.6a1.99 1.99 0 0 1 1.6-.7h50.3a2.22 2.22 0 0 1 2.2 2.2v29.1a2.289 2.289 0 0 1-2.2 2.2z"/><path d="M147.3 50.1H97.1a2.36 2.36 0 0 1-1.6-.7L82.2 34.8a2.052 2.052 0 0 1 0-2.9l13.3-14.6a1.99 1.99 0 0 1 1.6-.7h50.3a2.22 2.22 0 0 1 2.2 2.2v29.1a2.38 2.38 0 0 1-2.3 2.2z" fill="url(#b)"/><path class="e" d="M113.8 41l-7.7-7.7 7.7-7.6m11.9 0l7.6 7.6-7.6 7.7"/><path class="a" d="M95.2 33.3a3.4 3.4 0 1 1-3.4-3.4 3.5 3.5 0 0 1 3.4 3.4z"/><path class="c" d="M8.2 44.5h53.1a2.289 2.289 0 0 1 1.7.8l14 15.4a2.3 2.3 0 0 1 0 3.1L63 79.1a2.289 2.289 0 0 1-1.7.8H8.2a2.263 2.263 0 0 1-2.3-2.3V46.8a2.263 2.263 0 0 1 2.3-2.3z"/><path d="M2.3 40.9h53.1a2.289 2.289 0 0 1 1.7.8l14 15.4a2.3 2.3 0 0 1 0 3.1l-14 15.4a2.289 2.289 0 0 1-1.7.8H2.3A2.485 2.485 0 0 1 0 74V43.2a2.263 2.263 0 0 1 2.3-2.3z" fill="url(#c)"/><path class="e" d="M41 50.5l8.1 8.1-8.1 8.1m-23.9 0L9 58.6l8.1-8.1"/><circle class="a" cx="3.6" cy="3.6" r="3.6" transform="translate(57.3 55)"/><path class="e" d="M18.9 58h21"/><path class="c" d="M137.7 131.1H91.9a1.8 1.8 0 0 1-1.5-.7l-12.1-13.3a2 2 0 0 1 0-2.7l12.1-13.3a2.127 2.127 0 0 1 1.5-.7h45.8a2.006 2.006 0 0 1 2 2v26.5a2.058 2.058 0 0 1-2 2.2z"/><path d="M132.2 128.5H86.4a1.8 1.8 0 0 1-1.5-.7l-12.1-13.3a2 2 0 0 1 0-2.7l12.1-13.3a2.127 2.127 0 0 1 1.5-.7h45.8a2.006 2.006 0 0 1 2 2v26.5a2.121 2.121 0 0 1-2 2.2z" fill="#fecc4d"/><path class="h" d="M101.6 120.2l-7-7 7-7m10.8 0l7 7-7 7"/><path class="a" d="M84.7 113.2a3.1 3.1 0 1 1-3.1-3.1 3.116 3.116 0 0 1 3.1 3.1z"/><path class="h" d="M109.8 108.5l-5.7 9.4"/></g></svg>