<svg xmlns="http://www.w3.org/2000/svg" xmlns:xlink="http://www.w3.org/1999/xlink" viewBox="0 0 170 170"><defs><style>.d{fill:#eaeacd}.e{fill:#c8cbac}.f{fill:#d8d7bf}.g{fill:#f2751c}.o{fill:#4ccd9b}.q{fill:#4263eb}</style><linearGradient id="a" x1="-8.359" y1="23.542" x2="-7.357" y2="23.542" gradientUnits="objectBoundingBox"><stop offset="0" stop-color="#4263eb"/><stop offset="1" stop-color="#1f46e7"/></linearGradient><linearGradient id="b" x1="27.496" y1="-34.577" x2="27.496" y2="-35.5" gradientUnits="objectBoundingBox"><stop offset="0" stop-color="#f2751c"/><stop offset="1" stop-color="#ffc400"/></linearGradient><linearGradient id="c" x1=".15" y1=".951" x2=".699" y2=".25" xlink:href="#a"/><linearGradient id="d" x1="7.443" y1="-13.324" x2="8.445" y2="-13.324" gradientUnits="objectBoundingBox"><stop offset="0" stop-color="#239b6a"/><stop offset="1" stop-color="#4ccd9b"/></linearGradient><linearGradient id="e" x1=".155" y1=".881" x2=".713" y2=".358" xlink:href="#d"/><linearGradient id="f" x1=".091" y1="1.04" x2=".929" y2=".298" xlink:href="#d"/><linearGradient id="g" x1=".146" y1=".944" x2=".695" y2=".244" xlink:href="#a"/></defs><path d="M0 0h170v170H0z" fill="#fff"/><g transform="translate(10.01 14.24)"><ellipse cx="69" cy="48.5" rx="69" ry="48.5" transform="translate(3.5 11.9)" stroke="#96b7e1" stroke-dasharray="10 6" fill="none" stroke-linecap="round" stroke-miterlimit="10"/><circle cx="19.6" cy="19.6" r="19.6" transform="translate(98.8 71.2)" fill="url(#a)"/><path class="d" d="M126.8 105.5l-17.5-.4v-1.8a1.666 1.666 0 0 1 1.7-1.6l14.2.3a1.666 1.666 0 0 1 1.6 1.7z"/><path class="e" d="M109.316 103.596l17.496.396-.034 1.5-17.496-.396z"/><path class="f" d="M124.8 102.1l-13.2-.3v-.9c0-.4.3-.6.7-.6l11.9.3c.4 0 .6.3.6.7z"/><path class="d" d="M123.8 100.5l-11.2-.3a42.205 42.205 0 0 0 3.3-11.6l5.1.1a30.534 30.534 0 0 0 2.8 11.8z"/><path class="f" d="M121.4 88.8l-5.9-.1a.319.319 0 0 1-.3-.3V88a.319.319 0 0 1 .3-.3l5.9.1a.319.319 0 0 1 .3.3v.4c.1.1-.1.3-.3.3z"/><path class="d" d="M121.5 84.3l-5.9-.1a.319.319 0 0 1-.3-.3v-.4a.319.319 0 0 1 .3-.3l5.9.1a.319.319 0 0 1 .3.3v.4c.1.1-.1.3-.3.3z"/><path class="e" d="M116.323 84.146l4.6.106-.055 2.4-4.6-.106zM120.1 75a1.3 1.3 0 1 1-1.3-1.3 1.206 1.206 0 0 1 1.3 1.3z"/><path class="e" d="M121.7 78.8a3.05 3.05 0 1 1-3-3.1 2.97 2.97 0 0 1 3 3.1z"/><path class="f" d="M120.9 83.2l-4.6-.1-2-5.8a1.623 1.623 0 0 1 1.6.8 4.3 4.3 0 0 1 5.8.1c.2-.6.7-.8 1.4-.8z"/><path class="d" d="M121.5 87.8l-5.9-.1a.319.319 0 0 1-.3-.3V87a.319.319 0 0 1 .3-.3l5.9.1a.319.319 0 0 1 .3.3v.4a.451.451 0 0 1-.3.3z"/><circle class="g" cx="14.8" cy="14.8" r="14.8" transform="rotate(-3.62 174.515 -1591.451)"/><path d="M122.3 8.7a14.64 14.64 0 0 0-10.7-1.8 14.812 14.812 0 0 0-5.3 26.7z" fill="url(#b)"/><path d="M104.1 23.8a10.847 10.847 0 1 0 8.3-12.9 10.857 10.857 0 0 0-8.3 12.9z" fill="#fecc4d"/><path class="g" d="M119.3 21.6a4.593 4.593 0 0 0-2.2-1.1 8.6 8.6 0 0 0-1.6-.1l-.7-3.4a2.953 2.953 0 0 1 1.3.2 1 1 0 0 1 .5.4c.1.1.1.2.2.2.1.1.1.2.2.3a.87.87 0 0 0 .9.4c.4-.1.7-.3.7-.7v-.5c0-.1-.1-.2-.2-.3s-.1-.2-.2-.3l-.9-.9a4.023 4.023 0 0 0-2.6-.6h-.4l-.2-1a.988.988 0 0 0-.7-.7.87.87 0 0 0-.9.4.952.952 0 0 0-.2.7l.2 1a4.817 4.817 0 0 0-2.2 1.6 3.337 3.337 0 0 0-.5 1.2 3.3 3.3 0 0 0 0 1.4 2.725 2.725 0 0 0 .6 1.2 3.915 3.915 0 0 0 1 .8 5.753 5.753 0 0 0 2.6.5l.8 3.5a2.68 2.68 0 0 1-1.8-.8c-.1-.1-.1-.2-.2-.3s-.1-.2-.2-.3a.807.807 0 0 0-.9-.4.849.849 0 0 0-.8.7v.5c0 .1.1.2.1.3.1.1.1.2.2.3a4.3 4.3 0 0 0 .9 1 5.381 5.381 0 0 0 2.5.9h.5l.2 1a.988.988 0 0 0 .7.7.87.87 0 0 0 .9-.4.952.952 0 0 0 .2-.7l-.2-.9a4.949 4.949 0 0 0 2.3-1.4 3.069 3.069 0 0 0 .8-2.4 2.724 2.724 0 0 0-.7-2zm-5.3-1.3a1.268 1.268 0 0 1-.6-.1 1.421 1.421 0 0 1-.6-.2 2.186 2.186 0 0 1-.5-.3 1.421 1.421 0 0 1-.2-.6 1.268 1.268 0 0 1 .1-.6 2.163 2.163 0 0 1 1.2-1.1zm4.5 3.8a2.145 2.145 0 0 1-1.6 1.3l-.7-3.2a5.853 5.853 0 0 1 1.3.2c.2.1.4.1.6.2a.536.536 0 0 1 .3.4 1.417 1.417 0 0 1 .1 1.1z"/><path d="M146.9 60.1a5 5 0 1 1-5-5 5.015 5.015 0 0 1 5 5z" fill="url(#c)"/><circle cx="20.4" cy="20.4" r="20.4" transform="translate(7.9)" fill="url(#d)"/><circle class="d" cx="15.9" cy="15.9" r="15.9" transform="rotate(-21.57 33.873 -14.334)"/><circle cx="10.4" cy="10.4" r="10.4" transform="rotate(-80.008 25.283 4.78)" stroke="#4ccd9b" fill="none" stroke-linecap="round" stroke-miterlimit="10"/><path d="M30.1 20.2a1.811 1.811 0 1 1-2-1.6 1.805 1.805 0 0 1 2 1.6z" fill="#239b6a"/><path d="M34.7 8.1l-6.4 12.3m10.1-1.2l-9.5 1.2" stroke="#239b6a" stroke-width=".75" fill="none" stroke-linecap="round" stroke-miterlimit="10"/><path class="o" d="M12.4 49.3a6.207 6.207 0 1 1-5.9-6.5 6.236 6.236 0 0 1 5.9 6.5z"/><path class="g" d="M90.6 10.2a3.966 3.966 0 1 1-5.5 1.1 4 4 0 0 1 5.5-1.1z"/><path d="M103.1 116.2c-2.6-4.2-8.4-7.9-14.3-9.3-1.7-.4-.4 3.1-2.1 3.6-2.4.8-5.4 6.3-3.5 10.2 3 9.7 7.1 14.1 11.8 21.9h9.1a4.787 4.787 0 0 0 4.7-5.3c-1.1-9-2.1-15.2-5.7-21.1z" fill="url(#e)"/><path class="o" d="M103.7 142.9h-72l-1.9-16c0-12.3 11.9-21.1 24.1-21.1h27.6a22.15 22.15 0 0 1 22.2 22.2z"/><path class="d" d="M59.5 111.2a2.893 2.893 0 0 0 1.6 2.9 22.568 22.568 0 0 0 9.4 1.8 25.735 25.735 0 0 0 9.4-1.5 2.835 2.835 0 0 0 1.7-2.8l-2.7-19.4-17-.3z"/><path class="d" d="M86 67.1c2.9 9.9 3.4 17.2.9 24.8a5.615 5.615 0 0 1-4.8 3.8H82a5.521 5.521 0 0 1-2.4-.1c.8 1.5-11.4 16.9-16.8 11.5a4.942 4.942 0 0 1-1.4-3c-1.3-7.9 2.8-38.7 3-37.6z"/><path class="q" d="M80.8 61.2l-15.7-2c-7.7.7-12 6.9-11.2 14.5a49.047 49.047 0 0 0 7.5 21.5 1.171 1.171 0 0 0 2-.1l.2-6.6a5.617 5.617 0 0 1-3.3-3.7c-1-2.7-.3-4.4 1.7-5.1 1.1-.4 2.3.3 3.4 1.2.4.3 1.2-.4.7-1.7l-.3-1.9a7.562 7.562 0 0 1 7.3-8.8l11.5-1.6c5.4-3.7 4.3-6.6-3.8-5.7z"/><path d="M70.7 90.5c1.6 2.7 4.2 4.8 9.4 5" stroke="#c8cbac" stroke-width=".406" fill="none" stroke-linecap="round" stroke-miterlimit="10"/><path class="q" d="M63.2 71.9c4.6 1.4 3.9-1.7 6.8-2.4 6.3-1 9.1 1.2 16.7.4a5.579 5.579 0 0 0 4.2-8.2 4.325 4.325 0 0 0-7-1 14.272 14.272 0 0 0-11.8-3.9c-6.6 1-13 6.5-14.9 12.7z"/><path class="d" d="M65.9 82.6c1.2 2.5.8 5.2-1.1 6.1-1.8.9-4.3-.4-5.5-2.9s-.8-5.2 1.1-6.1 4.3.4 5.5 2.9z"/><path d="M47.7 126.6c2.3-10.5-2.6-19-4.3-18.5a16.713 16.713 0 0 0-11.1 9.1c-2.6 4.9-5.4 9.1-7.8 16.3a7.17 7.17 0 0 0 6.8 9.4h11.5a96.9 96.9 0 0 0 4.9-16.3z" fill="url(#f)"/><path class="o" d="M9.4 72.1a3.2 3.2 0 0 1-3.3 3 3.154 3.154 0 0 1 .3-6.3 3.278 3.278 0 0 1 3 3.3z"/><path class="g" d="M72.1 9.7a2.524 2.524 0 1 1-3.5.7 2.532 2.532 0 0 1 3.5-.7z"/><path d="M139.1 42a2.7 2.7 0 1 1-2.7-2.7 2.689 2.689 0 0 1 2.7 2.7z" fill="url(#g)"/><path class="o" d="M18.1 88.8a2.854 2.854 0 1 1-2.7-3 2.82 2.82 0 0 1 2.7 3z"/></g></svg>