<svg xmlns="http://www.w3.org/2000/svg" xmlns:xlink="http://www.w3.org/1999/xlink" viewBox="0 0 170 170"><defs><style>.p{fill:#fff}.e{fill:#4263eb}.f,.g{fill:none}.f,.g,.p{stroke:#96b7e1;stroke-linecap:round;stroke-miterlimit:10}.f{stroke-width:1.25px}.g{stroke-width:2px}.h{fill:#96b7e1}.m{fill:#f2751c}</style><linearGradient id="a" x1=".001" y1=".5" x2="1" y2=".5" gradientUnits="objectBoundingBox"><stop offset="0" stop-color="#1f46e7"/><stop offset="1" stop-color="#4263eb"/></linearGradient><linearGradient id="b" x1="-.001" y1=".5" x2="1.001" y2=".5" xlink:href="#a"/><linearGradient id="c" x1="193.524" y1=".505" x2="194.524" y2=".505" gradientUnits="objectBoundingBox"><stop offset="0" stop-color="#239b6a"/><stop offset="1" stop-color="#4ccd9b"/></linearGradient><linearGradient id="d" x1="980.464" y1=".501" x2="981.461" y2=".501" xlink:href="#c"/><linearGradient id="e" y1=".505" x2=".999" y2=".505" gradientUnits="objectBoundingBox"><stop offset="0" stop-color="#f2751c"/><stop offset="1" stop-color="#ffc400"/></linearGradient><linearGradient id="f" y1=".501" x2=".997" y2=".501" xlink:href="#e"/><linearGradient id="g" x1=".01" y1=".506" x2=".998" y2=".506" gradientUnits="objectBoundingBox"><stop offset="0" stop-color="#4263eb"/><stop offset="1" stop-color="#1f46e7"/></linearGradient><linearGradient id="h" x1=".001" y1=".504" x2="1.002" y2=".504" xlink:href="#c"/><linearGradient id="i" x1="-2.806" y1="-5.856" x2="-1.814" y2="-5.856" xlink:href="#g"/></defs><g transform="translate(21 4)"><path d="M-21-4h170v170H-21z" fill="#fff"/><path d="M62.6 154L23 142.8v-39.6l39.6 11.2z" fill="url(#a)"/><path d="M101.6 142.8L62.1 154v-39.6l39.5-11.2z" fill="url(#b)"/><path d="M62.3 92.2L23 103.3l39.3 11.1 39.3-11.1z" fill="#eaeacd"/><path class="e" d="M39.8 85.6L.5 96.7l22.8 6.6 39.3-11.1z"/><path class="e" d="M85.2 85.6l39.3 11.1-22.9 6.6-39.3-11.1z"/><path class="f" d="M28.4 106.5V91.3a6.465 6.465 0 0 0-1.8-4.4L11 71.4A6.2 6.2 0 0 1 9.2 67V50m100.2 10.3v10.4a7.119 7.119 0 0 1-2.1 5L94.7 88.5a7.3 7.3 0 0 0-2.1 5v16.9"/><path class="g" d="M62.4 21.6v91.8"/><path class="h" d="M78 41.7a3.5 3.5 0 1 1 3.5-3.5 3.612 3.612 0 0 1-3.5 3.5z"/><path class="f" d="M78 41v27.1a5.439 5.439 0 0 1-1.7 4L62.9 85.6M49.8 47.1v22.6"/><path d="M49.8 111.9v-42" stroke-linecap="round" stroke-miterlimit="10" stroke="#96b7e1" fill="none"/><path class="h" d="M49.8 48.9a3.8 3.8 0 1 1 3.8-3.8 3.862 3.862 0 0 1-3.8 3.8z"/><path class="g" d="M39.6 112.2V74.5a2.723 2.723 0 0 0-.9-2.1l-6.1-6.1a2.878 2.878 0 0 1-.9-2.1v-23"/><path d="M128.588 161.025h-35.6v-22.2h35.6z" fill="#239b6a"/><path d="M114.4 132.2l14.2 6.6H93l-8.8-6.6z" fill="url(#c)"/><path d="M93 161l-8.8-6.6v-22.2l8.8 6.6z" fill="url(#d)"/><path class="m" d="M0 137.3h35.6v22.2H0z"/><path d="M14.2 130.7L0 137.3h35.6l8.8-6.6z" fill="url(#e)"/><path d="M35.6 159.5l8.8-6.6v-22.2l-8.8 6.6z" fill="url(#f)"/><circle class="p" cx="9.3" cy="9.3" r="9.3" transform="rotate(-80.782 34.742 8.17)"/><circle cx="3.5" cy="3.5" r="3.5" transform="translate(28.3 29.9)" fill="url(#g)"/><circle cx="14.6" cy="14.6" r="14.6" transform="translate(47.5 1)" stroke="#4ccd9b" stroke-width="2" stroke-linecap="round" stroke-miterlimit="10" fill="#fff"/><path d="M62 21.2a5.6 5.6 0 1 1 5.6-5.6 5.591 5.591 0 0 1-5.6 5.6z" fill="url(#h)"/><path class="f" d="M85.7 117.4V62.3a2.723 2.723 0 0 1 .9-2.1l6.1-6.1a2.878 2.878 0 0 0 .9-2.1V28.2"/><circle class="p" cx="9.3" cy="9.3" r="9.3" transform="rotate(-45 77.988 -81.49)"/><path class="m" d="M93.6 34.7a3.5 3.5 0 1 0-3.5-3.5 3.478 3.478 0 0 0 3.5 3.5z"/><path class="e" d="M23.6 103.3l39.3 11.1-22.8 6.7L.8 110z"/><path class="e" d="M101.4 103.3l-39.3 11.1 22.8 6.7 39.3-11.1z"/><path class="h" d="M9.2 51.4a5.1 5.1 0 1 1 5.1-5.1 5.058 5.058 0 0 1-5.1 5.1z"/><path d="M109.4 62.9a4.5 4.5 0 1 1 4.5-4.5 4.481 4.481 0 0 1-4.5 4.5z" fill="url(#i)"/></g></svg>