<?xml version="1.0" encoding="UTF-8" standalone="no"?><!DOCTYPE svg PUBLIC "-//W3C//DTD SVG 1.1//EN" "http://www.w3.org/Graphics/SVG/1.1/DTD/svg11.dtd"><svg width="100%" height="100%" viewBox="0 0 687 441" version="1.1" xmlns="http://www.w3.org/2000/svg" xmlns:xlink="http://www.w3.org/1999/xlink" xml:space="preserve" xmlns:serif="http://www.serif.com/" style="fill-rule:evenodd;clip-rule:evenodd;stroke-miterlimit:10;"><g id="Слой-3" serif:id="Слой 3"><path d="M686.032,268.478l-686.032,-1.266c14.625,-4.943 0.709,-54.079 29.375,-73.729c21.334,-10.693 33.972,7.322 50.142,-1.234c12.654,-12.117 3.013,-54.859 3.192,-70.265c0.424,-36.522 27.957,-63.028 56.408,-75.65c84.671,-31.114 224.705,132.451 284.68,136.502c35.672,0 46.307,-71.981 91.4,-71.981c52.527,-0.519 111.054,125.116 170.835,157.623" style="fill:#d9edf6;fill-rule:nonzero;"/><path d="M587.172,58.784c-6.554,-2.362 -12.945,3.051 -20.236,1.983c-15.73,-4.388 -21.465,-22.686 -35.392,-22.686c-7.332,0.085 -10.651,4.957 -18.188,6.038c-12.207,1.061 -32.197,-36.565 -67.344,-30.462c-36.63,8.32 -39.816,43.708 -68.606,56.637l222.956,0c-3.648,-6.033 -7.544,-9.853 -13.19,-11.51" style="fill:#d9edf6;fill-rule:nonzero;"/><path d="M512.462,359.759c-12.791,-3.795 -25.263,4.903 -39.493,3.187c-30.698,-7.051 -55.448,-44.292 -82.629,-44.292c-14.309,0.136 -7.228,15.804 -21.938,17.54c-23.824,1.704 -103.276,-58.756 -171.869,-48.949c-71.487,13.369 -37.266,70.233 -93.453,91.01l435.124,0c-7.121,-9.696 -14.722,-15.833 -25.742,-18.496" style="fill:#d9edf6;fill-rule:nonzero;"/><path d="M120.097,289.97l-24.676,0c-15.429,0 -27.982,-12.553 -27.982,-27.981c0,-10.181 -8.283,-18.464 -18.464,-18.464l-13.288,0c-0.42,0 -0.76,-0.34 -0.76,-0.76c0,-0.42 0.34,-0.76 0.76,-0.76l13.288,0c11.019,0 19.984,8.964 19.984,19.984c0,14.59 11.871,26.461 26.462,26.461l24.676,0c9.838,0 18.558,-6.264 21.698,-15.588l9.012,-26.764c1.975,-5.864 7.043,-9.613 13.229,-9.783c6.213,-0.152 11.453,3.294 13.747,9.04l7.965,19.954c3.672,9.198 12.445,15.141 22.349,15.141l53.747,0c11.589,0 22.383,-6.239 28.167,-16.281l15.003,-26.054c2.02,-3.505 5.638,-5.688 9.68,-5.84c4.04,-0.159 7.813,1.753 10.089,5.095l3.851,5.656c2.152,3.162 5.712,4.862 9.53,4.57c3.816,-0.302 7.068,-2.55 8.699,-6.014l7.922,-16.837c1.8,-3.825 5.395,-6.221 9.619,-6.411c4.209,-0.197 8.019,1.875 10.153,5.524l3.548,6.058c2.967,5.069 8.459,8.218 14.334,8.218c5.644,0 10.644,-3.8 12.158,-9.24l32.09,-115.455c1.277,-4.594 5.174,-7.555 9.937,-7.555c0.017,0 0.035,0 0.054,0c4.788,0.023 8.681,3.025 9.919,7.649l14.17,52.905c0.838,3.128 3.515,4.179 5.522,4.185c2.023,-0.024 4.657,-1.169 5.42,-4.316l6.824,-28.172c2.076,-8.576 9.689,-14.565 18.514,-14.565l27.59,0c8.41,0 15.726,5.399 18.204,13.435l10.552,34.203c2.321,7.527 9.172,12.584 17.047,12.584c0.42,0 0.76,0.34 0.76,0.76c0,0.419 -0.34,0.76 -0.76,0.76c-8.547,0 -15.98,-5.488 -18.5,-13.656l-10.552,-34.203c-2.28,-7.395 -9.012,-12.363 -16.751,-12.363l-27.59,0c-8.121,0 -15.126,5.511 -17.037,13.402l-6.825,28.173c-0.796,3.287 -3.496,5.437 -6.879,5.478c-3.405,0.04 -6.132,-2.044 -7.007,-5.311l-14.17,-52.905c-1.283,-4.791 -5.359,-6.509 -8.458,-6.523l-0.04,0c-3.095,0 -7.158,1.684 -8.479,6.442l-32.09,115.455c-1.697,6.096 -7.299,10.353 -13.623,10.353c-6.412,0 -12.407,-3.437 -15.646,-8.97l-3.548,-6.059c-1.845,-3.152 -5.143,-4.945 -8.773,-4.772c-3.649,0.163 -6.756,2.234 -8.312,5.539l-7.922,16.838c-1.866,3.964 -5.587,6.536 -9.954,6.881c-4.368,0.347 -8.443,-1.61 -10.907,-5.23l-3.85,-5.655c-1.979,-2.906 -5.257,-4.562 -8.776,-4.433c-3.516,0.133 -6.663,2.031 -8.419,5.079l-15.004,26.055c-6.054,10.513 -17.352,17.043 -29.484,17.043l-53.747,0c-10.53,0 -19.856,-6.318 -23.76,-16.097l-7.967,-19.954c-2.451,-6.144 -7.966,-8.233 -12.292,-8.085c-4.335,0.119 -9.72,2.48 -11.831,8.748l-9.012,26.764c-3.348,9.943 -12.646,16.624 -23.138,16.624" style="fill:#96b7e1;fill-rule:nonzero;"/><path d="M285.707,263.06l-178.167,0c-3.129,0 -5.666,-2.537 -5.666,-5.667l0,-135.666c0,-3.13 2.537,-5.667 5.666,-5.667l178.167,0c3.13,0 5.667,2.537 5.667,5.667l0,135.666c0,3.13 -2.537,5.667 -5.667,5.667" style="fill:#4263eb;fill-rule:nonzero;"/><path d="M282.207,259.31l-178.167,0c-3.129,0 -5.666,-2.536 -5.666,-5.666l0,-135.666c0,-3.13 2.537,-5.668 5.666,-5.668l178.167,0.001c3.13,-0.001 5.667,2.537 5.667,5.666l0,135.667c0,3.13 -2.537,5.666 -5.667,5.666" style="fill:#fff;fill-rule:nonzero;"/><path d="M328.473,160.426l19.734,-4.699l17.981,18.792l-8.188,12.313l-15.125,-10.375l-9.5,-10.188c-0.84,-0.878 -2.161,-0.322 -1.283,-1.163c0.734,-0.703 3.022,-0.591 3.906,-0.265l8.959,4.636l-8.25,-4.25l-6.869,1.393c-1.405,0.285 -2.826,-0.408 -3.467,-1.69c-0.914,-1.828 0.114,-4.031 2.102,-4.504" style="fill:#fff;fill-rule:nonzero;"/><path d="M509.803,364.381l-4.294,67.11c8.269,-7.824 79.763,20.042 101.588,3.103c15.405,-11.957 12.46,-41.374 0.384,-76.951c-12.075,-35.577 -97.678,6.738 -97.678,6.738" style="fill:#4263eb;fill-rule:nonzero;"/><path d="M515.152,186.475c-0.869,0.087 -1.742,0.13 -2.618,0.13l-2.241,0c-0.592,0 -0.888,-0.296 -0.888,-0.888c0,-0.592 0.296,-0.888 0.888,-0.888l2.241,0c0.817,0 1.631,-0.04 2.442,-0.121c0.589,-0.059 0.913,0.206 0.971,0.795c0.059,0.589 -0.206,0.913 -0.795,0.972m-10.778,0.13l-4.736,0c-0.592,0 -0.888,-0.296 -0.888,-0.888c0,-0.592 0.296,-0.888 0.888,-0.888l4.736,0c0.592,0 0.888,0.296 0.888,0.888c0,0.592 -0.296,0.888 -0.888,0.888m-10.655,0l-4.735,0c-0.592,0 -0.888,-0.296 -0.888,-0.888c0,-0.592 0.296,-0.888 0.888,-0.888l4.735,0c0.592,0 0.888,0.296 0.888,0.888c0,0.592 -0.296,0.888 -0.888,0.888m-10.655,0l-4.735,0c-0.592,0 -0.888,-0.296 -0.888,-0.888c0,-0.592 0.296,-0.888 0.888,-0.888l4.735,0c0.592,0 0.888,0.296 0.888,0.888c0,0.592 -0.296,0.888 -0.888,0.888m-10.654,0l-4.736,0c-0.592,0 -0.888,-0.296 -0.888,-0.888c0,-0.592 0.296,-0.888 0.888,-0.888l4.736,0c0.591,0 0.887,0.296 0.887,0.888c0,0.592 -0.296,0.888 -0.887,0.888m-10.655,0l-4.335,0l-0.413,-0.003c-0.592,-0.003 -0.886,-0.301 -0.882,-0.893c0.003,-0.592 0.301,-0.886 0.893,-0.882l0.402,0.002l4.335,0c0.592,0 0.888,0.296 0.888,0.888c0,0.592 -0.296,0.888 -0.888,0.888m-10.825,-0.607c-1.593,-0.3 -3.158,-0.71 -4.694,-1.229c-0.561,-0.189 -0.747,-0.565 -0.557,-1.125c0.189,-0.561 0.564,-0.747 1.125,-0.558c1.458,0.493 2.943,0.882 4.456,1.167c0.581,0.11 0.817,0.456 0.707,1.038c-0.109,0.581 -0.455,0.817 -1.037,0.707m-10.262,-3.667c-1.424,-0.778 -2.788,-1.65 -4.092,-2.618c-0.475,-0.353 -0.536,-0.767 -0.183,-1.242c0.353,-0.475 0.767,-0.537 1.242,-0.184c1.237,0.919 2.532,1.747 3.884,2.486c0.52,0.283 0.638,0.685 0.354,1.204c-0.283,0.52 -0.685,0.638 -1.205,0.354m-8.64,-6.654c-1.114,-1.177 -2.141,-2.426 -3.081,-3.747c-0.344,-0.482 -0.274,-0.894 0.208,-1.238c0.482,-0.343 0.895,-0.274 1.238,0.209c0.893,1.253 1.868,2.438 2.925,3.555c0.407,0.43 0.395,0.849 -0.035,1.256c-0.43,0.407 -0.848,0.395 -1.255,-0.035m-6.234,-8.898l-2.364,-4.103c-0.295,-0.513 -0.187,-0.917 0.326,-1.213c0.513,-0.295 0.918,-0.186 1.213,0.327l2.363,4.103c0.296,0.513 0.187,0.917 -0.326,1.213c-0.513,0.295 -0.917,0.186 -1.212,-0.327m-5.318,-9.232l-2.364,-4.104c-0.295,-0.513 -0.187,-0.917 0.326,-1.212c0.513,-0.296 0.917,-0.187 1.213,0.326l2.363,4.103c0.296,0.513 0.187,0.918 -0.326,1.213c-0.513,0.295 -0.917,0.187 -1.212,-0.326m-5.318,-9.233l-2.364,-4.103c-0.295,-0.513 -0.187,-0.917 0.327,-1.213c0.512,-0.295 0.917,-0.187 1.212,0.326l2.363,4.104c0.296,0.513 0.187,0.917 -0.326,1.212c-0.513,0.296 -0.917,0.187 -1.212,-0.326m-5.69,-8.646c-1.131,-0.954 -2.408,-1.633 -3.831,-2.036c-0.569,-0.161 -0.773,-0.527 -0.612,-1.096c0.161,-0.57 0.527,-0.774 1.096,-0.612c1.669,0.472 3.166,1.268 4.492,2.386c0.452,0.382 0.488,0.799 0.106,1.251c-0.382,0.453 -0.799,0.488 -1.251,0.107m-9.31,-2.072c-1.428,0.384 -2.714,1.045 -3.856,1.983c-0.458,0.376 -0.874,0.335 -1.25,-0.123c-0.376,-0.457 -0.335,-0.874 0.123,-1.249c1.34,-1.1 2.847,-1.875 4.521,-2.326c0.572,-0.154 0.935,0.055 1.088,0.627c0.154,0.571 -0.054,0.934 -0.626,1.088m-7.4,6.443l-2.383,3.497c-0.105,0.154 -0.214,0.306 -0.325,0.455c-0.355,0.474 -0.769,0.533 -1.243,0.179c-0.474,-0.355 -0.533,-0.769 -0.179,-1.243c0.096,-0.128 0.189,-0.259 0.28,-0.392l2.383,-3.496c0.334,-0.489 0.745,-0.567 1.234,-0.234c0.489,0.334 0.567,0.745 0.233,1.234m-7.695,7.901c-1.595,0.696 -3.263,1.043 -5.002,1.039c-0.592,-0.001 -0.888,-0.297 -0.886,-0.889c0.001,-0.592 0.297,-0.888 0.889,-0.886c1.491,0.002 2.921,-0.295 4.289,-0.892c0.542,-0.237 0.932,-0.084 1.169,0.459c0.237,0.542 0.084,0.932 -0.459,1.169m-11.187,-0.618c-1.502,-0.863 -2.767,-1.99 -3.797,-3.379c-0.353,-0.476 -0.291,-0.89 0.184,-1.242c0.476,-0.353 0.89,-0.291 1.242,0.184c0.883,1.192 1.969,2.157 3.256,2.898c0.513,0.295 0.622,0.699 0.327,1.212c-0.295,0.513 -0.699,0.622 -1.212,0.327m-6.628,-8.824l-2.016,-4.284c-0.252,-0.536 -0.11,-0.93 0.426,-1.182c0.535,-0.252 0.929,-0.11 1.181,0.425l2.016,4.285c0.252,0.536 0.11,0.93 -0.426,1.182c-0.535,0.252 -0.929,0.11 -1.181,-0.426m-4.536,-9.641l-2.009,-4.269l-0.007,-0.016c-0.252,-0.536 -0.11,-0.93 0.425,-1.182c0.536,-0.251 0.93,-0.11 1.182,0.426l0.007,0.016l2.009,4.269c0.252,0.536 0.11,0.93 -0.426,1.182c-0.535,0.252 -0.929,0.11 -1.181,-0.426m-5.599,-8.35c-1.253,-0.8 -2.617,-1.289 -4.092,-1.467c-0.587,-0.071 -0.846,-0.401 -0.775,-0.989c0.071,-0.587 0.401,-0.845 0.989,-0.774c1.742,0.211 3.353,0.789 4.833,1.734c0.499,0.318 0.589,0.727 0.271,1.226c-0.319,0.499 -0.727,0.589 -1.226,0.27m-9.464,-0.596c-1.339,0.635 -2.475,1.526 -3.408,2.673c-0.374,0.46 -0.79,0.503 -1.249,0.129c-0.46,-0.373 -0.503,-0.789 -0.129,-1.249c1.102,-1.356 2.444,-2.408 4.025,-3.158c0.535,-0.253 0.93,-0.112 1.183,0.423c0.253,0.535 0.113,0.929 -0.422,1.182m-6.448,7.64l-1.438,2.457c-0.337,0.577 -0.704,1.135 -1.101,1.672c-0.351,0.476 -0.765,0.539 -1.241,0.187c-0.477,-0.351 -0.539,-0.765 -0.188,-1.241c0.359,-0.487 0.692,-0.992 0.997,-1.515l1.439,-2.457c0.299,-0.511 0.704,-0.617 1.215,-0.318c0.51,0.299 0.616,0.704 0.317,1.215m-6.991,8.432c-1.377,0.945 -2.853,1.692 -4.429,2.241c-0.559,0.194 -0.935,0.012 -1.13,-0.547c-0.195,-0.559 -0.013,-0.935 0.546,-1.13c1.427,-0.497 2.762,-1.173 4.008,-2.028c0.488,-0.335 0.899,-0.259 1.234,0.229c0.335,0.488 0.259,0.9 -0.229,1.235m-10.55,3.279l-0.023,0c-1.702,-0.005 -3.349,-0.296 -4.942,-0.873c-0.557,-0.201 -0.734,-0.58 -0.533,-1.137c0.202,-0.556 0.58,-0.734 1.137,-0.532c1.399,0.506 2.845,0.762 4.338,0.766l0.023,0c0.592,0 0.888,0.296 0.888,0.888c0,0.592 -0.296,0.888 -0.888,0.888m-10.268,-4.221c-1.211,-1.194 -2.182,-2.556 -2.916,-4.087c-0.256,-0.534 -0.117,-0.929 0.417,-1.185c0.534,-0.255 0.928,-0.116 1.184,0.418c0.645,1.344 1.499,2.541 2.562,3.59c0.421,0.416 0.424,0.834 0.008,1.256c-0.415,0.421 -0.834,0.424 -1.255,0.008m-4.766,-9.899l-1.268,-4.563c-0.159,-0.57 0.047,-0.934 0.617,-1.093c0.571,-0.158 0.935,0.047 1.094,0.618l1.268,4.562c0.159,0.57 -0.047,0.935 -0.618,1.093c-0.57,0.159 -0.934,-0.047 -1.093,-0.617m-2.854,-10.266l-1.268,-4.562c-0.159,-0.57 0.047,-0.935 0.617,-1.093c0.571,-0.159 0.935,0.047 1.094,0.617l1.268,4.563c0.158,0.57 -0.047,0.934 -0.618,1.093c-0.57,0.159 -0.934,-0.047 -1.093,-0.618m-2.854,-10.265l-1.268,-4.562c-0.159,-0.571 0.047,-0.935 0.617,-1.094c0.571,-0.158 0.935,0.048 1.094,0.618l1.268,4.562c0.159,0.571 -0.047,0.935 -0.618,1.094c-0.57,0.158 -0.934,-0.048 -1.093,-0.618m-2.854,-10.266l-1.268,-4.562c-0.159,-0.57 0.047,-0.935 0.617,-1.093c0.571,-0.159 0.935,0.047 1.093,0.617l1.269,4.563c0.158,0.57 -0.047,0.935 -0.618,1.093c-0.57,0.159 -0.934,-0.047 -1.093,-0.618m-2.854,-10.265l-1.268,-4.562c-0.159,-0.571 0.047,-0.935 0.617,-1.094c0.57,-0.158 0.935,0.048 1.093,0.618l1.269,4.562c0.159,0.571 -0.048,0.935 -0.618,1.094c-0.57,0.158 -0.934,-0.048 -1.093,-0.618m-2.854,-10.265l-1.269,-4.563c-0.158,-0.57 0.048,-0.934 0.618,-1.093c0.571,-0.158 0.935,0.047 1.093,0.618l1.269,4.562c0.158,0.57 -0.047,0.935 -0.618,1.093c-0.57,0.159 -0.934,-0.047 -1.093,-0.617m-2.854,-10.266l-1.268,-4.562c-0.159,-0.57 0.047,-0.935 0.617,-1.093c0.57,-0.159 0.935,0.047 1.093,0.617l1.269,4.563c0.159,0.57 -0.048,0.934 -0.618,1.093c-0.57,0.159 -0.935,-0.047 -1.093,-0.618m-2.854,-10.265l-1.269,-4.562c-0.158,-0.571 0.048,-0.935 0.618,-1.094c0.571,-0.158 0.935,0.048 1.093,0.618l1.269,4.562c0.158,0.571 -0.047,0.935 -0.618,1.094c-0.57,0.158 -0.934,-0.048 -1.093,-0.618m-2.854,-10.265l-1.268,-4.563c-0.159,-0.57 0.047,-0.935 0.617,-1.093c0.57,-0.159 0.935,0.047 1.093,0.618l1.269,4.562c0.159,0.57 -0.048,0.935 -0.618,1.093c-0.57,0.159 -0.935,-0.047 -1.093,-0.617m-2.854,-10.266l-1.269,-4.562c-0.158,-0.571 0.048,-0.935 0.618,-1.094c0.571,-0.158 0.935,0.048 1.093,0.618l1.269,4.562c0.158,0.571 -0.047,0.935 -0.618,1.094c-0.57,0.158 -0.934,-0.048 -1.093,-0.618m-2.854,-10.265l-1.269,-4.563c-0.158,-0.57 0.048,-0.934 0.618,-1.093c0.57,-0.159 0.935,0.047 1.093,0.618l1.269,4.562c0.158,0.57 -0.048,0.935 -0.618,1.093c-0.57,0.159 -0.935,-0.047 -1.093,-0.617m-2.854,-10.266l-0.531,-1.907c-0.232,-0.84 -0.58,-1.626 -1.042,-2.36c-0.315,-0.501 -0.222,-0.909 0.279,-1.225c0.501,-0.315 0.909,-0.222 1.224,0.279c0.554,0.88 0.971,1.824 1.251,2.83l0.53,1.908c0.158,0.57 -0.047,0.934 -0.618,1.093c-0.57,0.158 -0.934,-0.047 -1.093,-0.618m-5.628,-7.72c-1.124,-0.479 -2.3,-0.715 -3.526,-0.709c-0.24,0.002 -0.48,0.013 -0.718,0.033c-0.59,0.05 -0.91,-0.219 -0.961,-0.809c-0.05,-0.59 0.22,-0.91 0.809,-0.96c0.286,-0.025 0.573,-0.038 0.861,-0.039c1.471,-0.008 2.881,0.275 4.231,0.849c0.544,0.232 0.701,0.62 0.469,1.165c-0.232,0.545 -0.62,0.701 -1.165,0.47m-9.159,1.337c-1.144,0.947 -1.996,2.105 -2.558,3.476c-0.225,0.547 -0.611,0.709 -1.158,0.484c-0.548,-0.224 -0.71,-0.61 -0.485,-1.158c0.674,-1.644 1.697,-3.034 3.069,-4.17c0.456,-0.377 0.872,-0.338 1.25,0.118c0.377,0.456 0.338,0.872 -0.118,1.25m-4.144,9.114l-1.226,4.574c-0.154,0.572 -0.516,0.781 -1.088,0.628c-0.572,-0.153 -0.781,-0.516 -0.628,-1.088l1.227,-4.574c0.153,-0.571 0.515,-0.781 1.087,-0.627c0.572,0.153 0.781,0.515 0.628,1.087m-2.759,10.292l-1.226,4.573c-0.154,0.572 -0.516,0.781 -1.088,0.628c-0.572,-0.153 -0.781,-0.516 -0.627,-1.087l1.226,-4.574c0.153,-0.572 0.516,-0.781 1.087,-0.628c0.572,0.153 0.781,0.516 0.628,1.088m-2.759,10.291l-1.226,4.574c-0.154,0.572 -0.516,0.781 -1.088,0.627c-0.572,-0.153 -0.781,-0.515 -0.628,-1.087l1.227,-4.574c0.153,-0.572 0.515,-0.781 1.087,-0.628c0.572,0.153 0.781,0.516 0.628,1.088m-2.759,10.291l-1.226,4.574c-0.154,0.572 -0.516,0.781 -1.088,0.628c-0.572,-0.153 -0.781,-0.516 -0.628,-1.088l1.227,-4.574c0.153,-0.571 0.515,-0.781 1.087,-0.627c0.572,0.153 0.781,0.515 0.628,1.087m-2.759,10.292l-1.226,4.573c-0.153,0.572 -0.516,0.781 -1.088,0.628c-0.572,-0.153 -0.781,-0.516 -0.628,-1.087l1.227,-4.574c0.153,-0.572 0.515,-0.781 1.087,-0.628c0.572,0.153 0.781,0.516 0.628,1.088m-3.151,10.492c-1.001,1.6 -2.407,2.665 -4.218,3.196c-0.568,0.166 -0.936,-0.034 -1.102,-0.602c-0.167,-0.568 0.034,-0.936 0.602,-1.102c1.38,-0.405 2.45,-1.216 3.213,-2.434c0.314,-0.502 0.722,-0.595 1.224,-0.281c0.502,0.314 0.595,0.722 0.281,1.223m-10.755,2.026c-1.447,-1.076 -2.38,-2.49 -2.8,-4.243l-0.057,-0.236c-0.139,-0.576 0.079,-0.933 0.654,-1.072c0.575,-0.139 0.932,0.079 1.072,0.654l0.058,0.24c0.32,1.335 1.031,2.413 2.133,3.232c0.474,0.353 0.535,0.767 0.183,1.242c-0.354,0.475 -0.768,0.536 -1.243,0.183m-4.249,-10.233l-1.114,-4.602c-0.139,-0.576 0.079,-0.933 0.655,-1.072c0.575,-0.139 0.932,0.079 1.071,0.654l1.114,4.603c0.139,0.575 -0.079,0.933 -0.654,1.072c-0.576,0.139 -0.933,-0.079 -1.072,-0.655m-2.505,-10.356l-1.114,-4.602c-0.139,-0.576 0.079,-0.933 0.654,-1.072c0.576,-0.139 0.933,0.079 1.072,0.654l1.114,4.603c0.139,0.575 -0.079,0.932 -0.655,1.072c-0.575,0.139 -0.932,-0.079 -1.071,-0.655m-2.505,-10.356l-0.526,-2.173c-0.191,-0.788 -0.434,-1.559 -0.728,-2.311c-0.216,-0.551 -0.048,-0.934 0.503,-1.15c0.551,-0.216 0.935,-0.048 1.15,0.503c0.324,0.827 0.591,1.674 0.801,2.54l0.526,2.174c0.139,0.575 -0.079,0.932 -0.655,1.072c-0.575,0.139 -0.932,-0.079 -1.071,-0.655m-4.101,-9.326c-0.964,-1.168 -2.059,-2.197 -3.285,-3.088c-0.479,-0.348 -0.545,-0.762 -0.197,-1.241c0.348,-0.479 0.762,-0.544 1.241,-0.196c1.348,0.979 2.551,2.111 3.611,3.395c0.376,0.456 0.336,0.873 -0.12,1.25c-0.457,0.376 -0.873,0.336 -1.25,-0.12m-8.309,-5.641c-1.441,-0.463 -2.918,-0.738 -4.432,-0.826c-0.591,-0.034 -0.87,-0.346 -0.836,-0.937c0.035,-0.591 0.347,-0.87 0.938,-0.836c1.665,0.096 3.29,0.399 4.874,0.909c0.563,0.181 0.754,0.554 0.573,1.117c-0.181,0.564 -0.554,0.755 -1.117,0.573m-10.326,-0.856l-4.735,0c-0.592,0 -0.888,-0.296 -0.888,-0.888c0,-0.591 0.296,-0.887 0.888,-0.887l4.735,0c0.592,0 0.888,0.296 0.888,0.887c0,0.592 -0.296,0.888 -0.888,0.888" style="fill:#239b6a;fill-rule:nonzero;"/><path d="M395.375,137.781c0,4.513 3.66,8.171 8.173,8.168c4.512,-0.003 8.168,-3.664 8.163,-8.177c-0.005,-4.513 -3.669,-8.167 -8.182,-8.159c-2.165,0 -4.241,0.861 -5.77,2.393c-1.53,1.532 -2.387,3.61 -2.384,5.775m3.947,0c-0.006,-1.71 1.021,-3.254 2.599,-3.911c1.579,-0.657 3.398,-0.297 4.607,0.912c1.209,1.209 1.569,3.028 0.913,4.607c-0.657,1.579 -2.202,2.605 -3.912,2.6c-2.323,0 -4.207,-1.884 -4.207,-4.208" style="fill:#239b6a;fill-rule:nonzero;"/><path d="M181.355,23.991c0,4.513 3.66,8.171 8.173,8.168c4.512,-0.003 8.168,-3.664 8.163,-8.177c-0.005,-4.513 -3.669,-8.167 -8.182,-8.159c-2.165,0 -4.241,0.861 -5.771,2.393c-1.529,1.532 -2.387,3.61 -2.383,5.775m3.946,0c-0.005,-1.71 1.021,-3.254 2.6,-3.911c1.579,-0.657 3.398,-0.297 4.607,0.912c1.209,1.209 1.569,3.028 0.912,4.607c-0.656,1.579 -2.201,2.605 -3.911,2.6c-2.324,0 -4.208,-1.884 -4.208,-4.208" style="fill:#239b6a;fill-rule:nonzero;"/><path d="M279.958,295.137c-0.008,4.682 3.782,8.483 8.464,8.488c4.682,0.005 8.481,-3.787 8.483,-8.469c0.003,-4.682 -3.792,-8.478 -8.473,-8.478c-4.675,0 -8.466,3.785 -8.474,8.459m4.094,0c0,-2.419 1.961,-4.38 4.38,-4.38c2.418,0 4.379,1.961 4.379,4.38c0,2.419 -1.961,4.38 -4.379,4.38c-1.163,0.003 -2.279,-0.457 -3.101,-1.279c-0.823,-0.822 -1.283,-1.938 -1.279,-3.101" style="fill:#1f46e7;fill-rule:nonzero;"/><path d="M549.813,244.544c0,4.511 3.657,8.168 8.168,8.168c4.511,0 8.168,-3.657 8.168,-8.168c0,-4.511 -3.657,-8.168 -8.168,-8.168c-4.511,0 -8.168,3.657 -8.168,8.168m3.96,0c0,-2.324 1.884,-4.208 4.208,-4.208c2.324,0 4.208,1.884 4.208,4.208c0,2.324 -1.884,4.208 -4.208,4.208c-2.324,0 -4.208,-1.884 -4.208,-4.208" style="fill:#1f46e7;fill-rule:nonzero;"/><path d="M121.616,331.862l2.456,0c0.614,0 0.921,0.307 0.921,0.921c0,0.614 -0.307,0.921 -0.921,0.921l-2.456,0c-0.614,0 -0.921,-0.307 -0.921,-0.921c0,-0.614 0.307,-0.921 0.921,-0.921m6.141,0l2.456,0c0.614,0 0.921,0.307 0.921,0.921c0,0.614 -0.307,0.921 -0.921,0.921l-2.456,0c-0.614,0 -0.921,-0.307 -0.921,-0.921c0,-0.614 0.307,-0.921 0.921,-0.921m6.141,0l2.456,0c0.614,0 0.921,0.307 0.921,0.921c0,0.614 -0.307,0.921 -0.921,0.921l-2.456,0c-0.615,0 -0.922,-0.307 -0.922,-0.921c0,-0.614 0.307,-0.921 0.922,-0.921m6.14,0l2.457,0c0.614,0 0.921,0.307 0.921,0.921c0,0.614 -0.307,0.921 -0.921,0.921l-2.457,0c-0.614,0 -0.921,-0.307 -0.921,-0.921c0,-0.614 0.307,-0.921 0.921,-0.921m6.141,0l2.456,0c0.614,0 0.922,0.307 0.922,0.921c0,0.614 -0.308,0.921 -0.922,0.921l-2.456,0c-0.614,0 -0.921,-0.307 -0.921,-0.921c0,-0.614 0.307,-0.921 0.921,-0.921m6.141,0l2.456,0c0.614,0 0.921,0.307 0.921,0.921c0,0.614 -0.307,0.921 -0.921,0.921l-2.456,0c-0.614,0 -0.921,-0.307 -0.921,-0.921c0,-0.614 0.307,-0.921 0.921,-0.921m6.141,0l2.456,0c0.614,0 0.921,0.307 0.921,0.921c0,0.614 -0.307,0.921 -0.921,0.921l-2.456,0c-0.614,0 -0.921,-0.307 -0.921,-0.921c0,-0.614 0.307,-0.921 0.921,-0.921m6.14,0l2.457,0c0.614,0 0.921,0.307 0.921,0.921c0,0.614 -0.307,0.921 -0.921,0.921l-2.457,0c-0.614,0 -0.921,-0.307 -0.921,-0.921c0,-0.614 0.307,-0.921 0.921,-0.921m6.141,0l2.456,0c0.615,0 0.922,0.307 0.922,0.921c0,0.614 -0.307,0.921 -0.922,0.921l-2.456,0c-0.614,0 -0.921,-0.307 -0.921,-0.921c0,-0.614 0.307,-0.921 0.921,-0.921m6.141,0l2.456,0c0.614,0 0.921,0.307 0.921,0.921c0,0.614 -0.307,0.921 -0.921,0.921l-2.456,0c-0.614,0 -0.921,-0.307 -0.921,-0.921c0,-0.614 0.307,-0.921 0.921,-0.921m6.141,0l2.456,0c0.614,0 0.921,0.307 0.921,0.921c0,0.614 -0.307,0.921 -0.921,0.921l-2.456,0c-0.614,0 -0.921,-0.307 -0.921,-0.921c0,-0.614 0.307,-0.921 0.921,-0.921m6.14,0l2.457,0c0.614,0 0.921,0.307 0.921,0.921c0,0.614 -0.307,0.921 -0.921,0.921l-2.457,0c-0.614,0 -0.921,-0.307 -0.921,-0.921c0,-0.614 0.307,-0.921 0.921,-0.921m6.141,0l2.457,0c0.614,0 0.921,0.307 0.921,0.921c0,0.614 -0.307,0.921 -0.921,0.921l-2.457,0c-0.614,0 -0.921,-0.307 -0.921,-0.921c0,-0.614 0.307,-0.921 0.921,-0.921m6.141,0l2.456,0c0.614,0 0.921,0.307 0.921,0.921c0,0.614 -0.307,0.921 -0.921,0.921l-2.456,0c-0.614,0 -0.921,-0.307 -0.921,-0.921c0,-0.614 0.307,-0.921 0.921,-0.921m6.141,0l2.456,0c0.614,0 0.921,0.307 0.921,0.921c0,0.614 -0.307,0.921 -0.921,0.921l-2.456,0c-0.614,0 -0.921,-0.307 -0.921,-0.921c0,-0.614 0.307,-0.921 0.921,-0.921m6.141,0l2.456,0c0.614,0 0.921,0.307 0.921,0.921c0,0.614 -0.307,0.921 -0.921,0.921l-2.456,0c-0.615,0 -0.922,-0.307 -0.922,-0.921c0,-0.614 0.307,-0.921 0.922,-0.921m6.14,0l2.457,0c0.614,0 0.921,0.307 0.921,0.921c0,0.614 -0.307,0.921 -0.921,0.921l-2.457,0c-0.614,0 -0.921,-0.307 -0.921,-0.921c0,-0.614 0.307,-0.921 0.921,-0.921m6.141,0l2.456,0c0.615,0 0.922,0.307 0.922,0.921c0,0.614 -0.307,0.921 -0.922,0.921l-2.456,0c-0.614,0 -0.921,-0.307 -0.921,-0.921c0,-0.614 0.307,-0.921 0.921,-0.921m5.983,-0.201c0.749,-0.141 1.478,-0.354 2.185,-0.639c0.57,-0.23 0.969,-0.06 1.199,0.51c0.229,0.569 0.059,0.969 -0.51,1.198c-0.82,0.331 -1.664,0.578 -2.532,0.742c-0.604,0.113 -0.962,-0.131 -1.076,-0.735c-0.114,-0.603 0.131,-0.962 0.734,-1.076m5.127,-2.367c0.323,-0.259 0.63,-0.536 0.922,-0.828l0.805,-0.804c0.434,-0.435 0.868,-0.435 1.302,0c0.435,0.434 0.434,0.868 0,1.302l-0.804,0.804c-0.339,0.339 -0.695,0.659 -1.068,0.96c-0.478,0.386 -0.91,0.339 -1.295,-0.139c-0.386,-0.478 -0.339,-0.909 0.138,-1.295m4.333,-4.237l1.737,-1.737c0.434,-0.434 0.869,-0.434 1.303,0.001c0.434,0.434 0.434,0.868 -0.001,1.302l-1.737,1.737c-0.434,0.434 -0.869,0.434 -1.303,-0.001c-0.434,-0.434 -0.434,-0.868 0.001,-1.302m4.343,-4.341l1.737,-1.737c0.434,-0.434 0.869,-0.434 1.303,0c0.434,0.435 0.434,0.869 -0.001,1.303l-1.737,1.737c-0.434,0.434 -0.868,0.434 -1.302,-0.001c-0.435,-0.434 -0.434,-0.868 0,-1.302m4.343,-4.342l1.737,-1.736c0.434,-0.434 0.869,-0.434 1.303,0c0.434,0.435 0.434,0.869 0,1.303l-1.738,1.736c-0.434,0.435 -0.868,0.434 -1.302,0c-0.434,-0.434 -0.434,-0.868 0,-1.303m4.343,-4.341l1.738,-1.736c0.434,-0.434 0.868,-0.434 1.302,0c0.434,0.434 0.434,0.869 0,1.303l-1.738,1.736c-0.434,0.434 -0.868,0.434 -1.302,0c-0.434,-0.434 -0.434,-0.869 0,-1.303m4.343,-4.341l1.737,-1.737c0.435,-0.434 0.869,-0.434 1.303,0.001c0.434,0.434 0.434,0.868 0,1.302l-1.737,1.737c-0.435,0.434 -0.869,0.434 -1.303,0c-0.434,-0.435 -0.434,-0.869 0,-1.303m4.343,-4.341l1.738,-1.737c0.434,-0.434 0.868,-0.434 1.302,0.001c0.434,0.434 0.434,0.868 0,1.302l-1.737,1.737c-0.435,0.434 -0.869,0.434 -1.303,-0.001c-0.434,-0.434 -0.434,-0.868 0,-1.302m4.344,-4.341l1.737,-1.737c0.434,-0.434 0.869,-0.434 1.302,0c0.435,0.435 0.435,0.869 0,1.303l-1.737,1.737c-0.434,0.434 -0.869,0.434 -1.303,-0.001c-0.434,-0.434 -0.434,-0.868 0.001,-1.302m4.752,-4.238c0.752,-0.462 1.543,-0.847 2.371,-1.153c0.576,-0.213 0.971,-0.032 1.183,0.544c0.213,0.576 0.032,0.971 -0.544,1.184c-0.714,0.264 -1.396,0.595 -2.044,0.994c-0.523,0.322 -0.946,0.222 -1.267,-0.301c-0.322,-0.524 -0.222,-0.946 0.301,-1.268m6.251,-1.962c0.26,-0.014 0.52,-0.022 0.78,-0.021l1.74,0c0.614,0 0.922,0.307 0.922,0.921c0,0.614 -0.308,0.921 -0.922,0.921l-1.743,0c-0.224,0 -0.448,0.006 -0.672,0.019c-0.614,0.034 -0.937,-0.255 -0.972,-0.868c-0.035,-0.613 0.254,-0.937 0.867,-0.972m6.205,-0.021l2.456,0c0.614,0 0.921,0.307 0.921,0.921c0,0.614 -0.307,0.921 -0.921,0.921l-2.456,0c-0.614,0 -0.921,-0.307 -0.921,-0.921c0,-0.614 0.307,-0.921 0.921,-0.921m6.141,0l2.456,0c0.614,0 0.921,0.307 0.921,0.921c0,0.614 -0.307,0.921 -0.921,0.921l-2.456,0c-0.614,0 -0.921,-0.307 -0.921,-0.921c0,-0.614 0.307,-0.921 0.921,-0.921m6.14,0l2.457,0c0.614,0 0.921,0.307 0.921,0.921c0,0.614 -0.307,0.921 -0.921,0.921l-2.457,0c-0.614,0 -0.921,-0.307 -0.921,-0.921c0,-0.614 0.307,-0.921 0.921,-0.921m6.141,0l2.456,0c0.615,0 0.922,0.307 0.922,0.921c0,0.614 -0.307,0.921 -0.922,0.921l-2.456,0c-0.614,0 -0.921,-0.307 -0.921,-0.921c0,-0.614 0.307,-0.921 0.921,-0.921m6.141,0l2.456,0c0.614,0 0.921,0.307 0.921,0.921c0,0.614 -0.307,0.921 -0.921,0.921l-2.456,0c-0.614,0 -0.921,-0.307 -0.921,-0.921c0,-0.614 0.307,-0.921 0.921,-0.921m6.141,0l2.456,0c0.614,0 0.921,0.307 0.921,0.921c0,0.614 -0.307,0.921 -0.921,0.921l-2.456,0c-0.614,0 -0.921,-0.307 -0.921,-0.921c0,-0.614 0.307,-0.921 0.921,-0.921m6.14,0l2.457,0c0.614,0 0.921,0.307 0.921,0.921c0,0.614 -0.307,0.921 -0.921,0.921l-2.457,0c-0.614,0 -0.921,-0.307 -0.921,-0.921c0,-0.614 0.307,-0.921 0.921,-0.921m6.141,0l2.457,0c0.614,0 0.921,0.307 0.921,0.921c0,0.614 -0.307,0.921 -0.921,0.921l-2.457,0c-0.614,0 -0.921,-0.307 -0.921,-0.921c0,-0.614 0.307,-0.921 0.921,-0.921m6.141,0l2.456,0c0.614,0 0.921,0.307 0.921,0.921c0,0.614 -0.307,0.921 -0.921,0.921l-2.456,0c-0.614,0 -0.921,-0.307 -0.921,-0.921c0,-0.614 0.307,-0.921 0.921,-0.921m6.141,0l2.456,0c0.614,0 0.921,0.307 0.921,0.921c0,0.614 -0.307,0.921 -0.921,0.921l-2.456,0c-0.614,0 -0.921,-0.307 -0.921,-0.921c0,-0.614 0.307,-0.921 0.921,-0.921m6.141,0l2.456,0c0.614,0 0.921,0.307 0.921,0.921c0,0.614 -0.307,0.921 -0.921,0.921l-2.456,0c-0.615,0 -0.922,-0.307 -0.922,-0.921c0,-0.614 0.307,-0.921 0.922,-0.921m6.14,0l2.457,0c0.614,0 0.921,0.307 0.921,0.921c0,0.614 -0.307,0.921 -0.921,0.921l-2.457,0c-0.614,0 -0.921,-0.307 -0.921,-0.921c0,-0.614 0.307,-0.921 0.921,-0.921m6.141,0l2.456,0c0.614,0 0.922,0.307 0.922,0.921c0,0.614 -0.308,0.921 -0.922,0.921l-2.456,0c-0.614,0 -0.921,-0.307 -0.921,-0.921c0,-0.614 0.307,-0.921 0.921,-0.921m6.141,0l2.456,0c0.614,0 0.921,0.307 0.921,0.921c0,0.614 -0.307,0.921 -0.921,0.921l-2.456,0c-0.614,0 -0.921,-0.307 -0.921,-0.921c0,-0.614 0.307,-0.921 0.921,-0.921m6.141,0l2.456,0c0.614,0 0.921,0.307 0.921,0.921c0,0.614 -0.307,0.921 -0.921,0.921l-2.456,0c-0.614,0 -0.921,-0.307 -0.921,-0.921c0,-0.614 0.307,-0.921 0.921,-0.921m6.14,0l2.457,0c0.614,0 0.921,0.307 0.921,0.921c0,0.614 -0.307,0.921 -0.921,0.921l-2.457,0c-0.614,0 -0.921,-0.307 -0.921,-0.921c0,-0.614 0.307,-0.921 0.921,-0.921m6.141,0l2.456,0c0.615,0 0.922,0.307 0.922,0.921c0,0.614 -0.307,0.921 -0.922,0.921l-2.456,0c-0.614,0 -0.921,-0.307 -0.921,-0.921c0,-0.614 0.307,-0.921 0.921,-0.921m6.141,0l2.456,0c0.614,0 0.921,0.307 0.921,0.921c0,0.614 -0.307,0.921 -0.921,0.921l-2.456,0c-0.614,0 -0.921,-0.307 -0.921,-0.921c0,-0.614 0.307,-0.921 0.921,-0.921m6.141,0l2.456,0c0.614,0 0.921,0.307 0.921,0.921c0,0.614 -0.307,0.921 -0.921,0.921l-2.456,0c-0.614,0 -0.921,-0.307 -0.921,-0.921c0,-0.614 0.307,-0.921 0.921,-0.921m6.14,0l2.457,0c0.614,0 0.921,0.307 0.921,0.921c0,0.614 -0.307,0.921 -0.921,0.921l-2.457,0c-0.614,0 -0.921,-0.307 -0.921,-0.921c0,-0.614 0.307,-0.921 0.921,-0.921m6.141,0l2.457,0c0.614,0 0.921,0.307 0.921,0.921c0,0.614 -0.307,0.921 -0.921,0.921l-2.457,0c-0.614,0 -0.921,-0.307 -0.921,-0.921c0,-0.614 0.307,-0.921 0.921,-0.921m6.076,-0.047c0.757,-0.068 1.5,-0.209 2.229,-0.423c0.589,-0.173 0.97,0.035 1.143,0.624c0.174,0.589 -0.034,0.97 -0.623,1.143c-0.845,0.249 -1.707,0.413 -2.585,0.491c-0.611,0.055 -0.944,-0.223 -1,-0.835c-0.055,-0.612 0.224,-0.945 0.836,-1m5.324,-1.857c0.638,-0.419 1.228,-0.896 1.771,-1.431c0.438,-0.431 0.872,-0.428 1.303,0.01c0.431,0.437 0.428,0.871 -0.01,1.303c-0.629,0.619 -1.313,1.172 -2.052,1.657c-0.513,0.338 -0.939,0.25 -1.276,-0.263c-0.337,-0.514 -0.249,-0.939 0.264,-1.276m3.841,-4.192c0.202,-0.376 0.383,-0.762 0.543,-1.159l0.421,-1.042c0.23,-0.569 0.63,-0.739 1.199,-0.509c0.57,0.23 0.739,0.63 0.509,1.199l-0.42,1.041c-0.186,0.46 -0.396,0.908 -0.63,1.343c-0.291,0.541 -0.707,0.666 -1.248,0.375c-0.54,-0.291 -0.665,-0.707 -0.374,-1.248m2.345,-5.617l0.92,-2.277c0.23,-0.57 0.63,-0.739 1.199,-0.509c0.569,0.23 0.739,0.629 0.509,1.199l-0.92,2.277c-0.23,0.57 -0.63,0.739 -1.199,0.509c-0.57,-0.23 -0.74,-0.63 -0.509,-1.199m2.3,-5.694l0.921,-2.277c0.23,-0.569 0.629,-0.739 1.199,-0.509c0.569,0.23 0.739,0.63 0.509,1.199l-0.921,2.278c-0.23,0.569 -0.629,0.739 -1.199,0.509c-0.569,-0.23 -0.739,-0.63 -0.509,-1.2m2.301,-5.693l0.92,-2.277c0.23,-0.57 0.63,-0.739 1.199,-0.509c0.57,0.23 0.74,0.629 0.509,1.199l-0.92,2.277c-0.23,0.57 -0.63,0.739 -1.199,0.509c-0.569,-0.23 -0.739,-0.63 -0.509,-1.199m2.301,-5.693l0.92,-2.278c0.23,-0.569 0.63,-0.739 1.199,-0.509c0.569,0.23 0.739,0.63 0.509,1.199l-0.92,2.278c-0.23,0.569 -0.63,0.739 -1.199,0.509c-0.57,-0.23 -0.739,-0.63 -0.509,-1.199m2.3,-5.694l0.921,-2.277c0.23,-0.57 0.629,-0.739 1.199,-0.509c0.569,0.23 0.739,0.63 0.509,1.199l-0.921,2.277c-0.23,0.57 -0.629,0.739 -1.199,0.509c-0.569,-0.23 -0.739,-0.63 -0.509,-1.199m2.301,-5.693l0.92,-2.278c0.23,-0.569 0.63,-0.739 1.199,-0.509c0.57,0.23 0.74,0.63 0.509,1.199l-0.92,2.278c-0.23,0.569 -0.63,0.739 -1.199,0.509c-0.569,-0.23 -0.739,-0.63 -0.509,-1.199m2.301,-5.694l0.92,-2.277c0.23,-0.57 0.63,-0.739 1.199,-0.509c0.57,0.23 0.739,0.63 0.509,1.199l-0.92,2.277c-0.23,0.569 -0.63,0.739 -1.199,0.509c-0.57,-0.23 -0.739,-0.63 -0.509,-1.199" style="fill:#1f46e7;fill-rule:nonzero;"/><path d="M586.03,115.28l5.058,26.27l-25.22,3.086l14.516,-28.823l5.646,-0.533Z" style="fill:#fff;fill-rule:nonzero;"/><path d="M534.218,109.829c0,21.997 17.832,39.83 39.83,39.83c21.998,0 39.83,-17.833 39.83,-39.83c0,-21.997 -17.832,-39.83 -39.83,-39.83c-21.997,0 -39.83,17.833 -39.83,39.83" style="fill:#4263eb;fill-rule:nonzero;"/><path d="M524.953,107.222c0,20.014 16.225,36.239 36.239,36.239c20.015,0 36.24,-16.225 36.24,-36.239c0,-20.014 -16.225,-36.239 -36.24,-36.239c-20.014,0 -36.239,16.225 -36.239,36.239" style="fill:#4263eb;fill-rule:nonzero;"/><path d="M590.429,128.989c-0.94,11.759 7.831,22.054 19.59,22.994c11.759,0.94 22.054,-7.831 22.994,-19.59c0.94,-11.759 -7.831,-22.054 -19.59,-22.994c-11.759,-0.94 -22.054,7.831 -22.994,19.59" style="fill:#4263eb;fill-rule:nonzero;"/><path d="M557.224,147.362c-0.94,11.759 7.831,22.054 19.59,22.994c11.759,0.94 22.054,-7.831 22.994,-19.59c0.94,-11.759 -7.831,-22.054 -19.59,-22.994c-11.759,-0.94 -22.054,7.831 -22.994,19.59" style="fill:#4263eb;fill-rule:nonzero;"/><path d="M505.746,131.109c-0.94,11.759 7.831,22.054 19.59,22.994c11.759,0.94 22.054,-7.831 22.994,-19.59c0.94,-11.759 -7.831,-22.054 -19.59,-22.994c-11.759,-0.94 -22.054,7.831 -22.994,19.59" style="fill:#4263eb;fill-rule:nonzero;"/><path d="M587.221,148.741c-0.664,8.309 5.533,15.584 13.843,16.248c8.309,0.664 15.584,-5.533 16.248,-13.843c0.664,-8.309 -5.533,-15.584 -13.843,-16.248c-8.309,-0.664 -15.584,5.534 -16.248,13.843" style="fill:#4263eb;fill-rule:nonzero;"/><path d="M523.692,148.525c-0.783,9.8 6.526,18.379 16.326,19.163c9.8,0.783 18.379,-6.526 19.162,-16.326c0.784,-9.8 -6.526,-18.38 -16.325,-19.163c-9.8,-0.783 -18.38,6.526 -19.163,16.326" style="fill:#4263eb;fill-rule:nonzero;"/><path d="M474.231,260.593c0,38.361 31.098,69.458 69.458,69.458c38.361,0 69.459,-31.097 69.459,-69.458c0,-38.361 -31.098,-69.458 -69.459,-69.458c-38.36,0 -69.458,31.097 -69.458,69.458" style="fill:#f2751c;fill-rule:nonzero;"/><path d="M538.478,175.606c0,0 -118.294,47.691 -125.299,44.24c-7.006,-3.452 -45.878,-46.035 -52.053,-49.452c-6.176,-3.417 -8.011,13.116 -8.011,13.116c0,0 35.594,76.134 60.567,76.095c31.101,-0.049 120.368,-37.629 120.368,-37.629l4.428,-46.37Z" style="fill:#fff;fill-rule:nonzero;"/><path d="M413.178,219.846c-0.078,-0.039 -0.149,-0.075 -0.214,-0.109c1.764,1.41 7.304,7.511 6.623,24.439c-0.414,10.278 -5.905,15.429 -5.905,15.429c31.1,-0.2 120.368,-37.628 120.368,-37.628l4.428,-46.371c0,0 -118.294,47.691 -125.3,44.24Zm-0.214,-0.109c-0.297,-0.238 -0.488,-0.343 -0.522,-0.342c-0.038,0 0.114,0.127 0.522,0.342Z" style="fill:url(#_Linear1);fill-rule:nonzero;"/><path d="M619.576,230.894c1.648,-13.511 7.574,-25.492 0.449,-36.094c-7.427,-11.05 -25.365,-18.92 -39.204,-22.043c-3.638,-0.82 -24.603,1.648 -28.836,1.357c-46.138,-3.166 -46.431,71.355 -46.883,83.568c-0.453,12.213 6.526,98.344 3.618,117.606c-2.649,17.551 92.094,9.112 106.068,8.805c0.753,-0.017 1.313,-0.687 1.196,-1.431c-1.677,-10.62 -11.722,-76.76 -5.49,-99.197c3.935,-14.166 7.11,-36.396 9.082,-52.571" style="fill:#fecc4d;fill-rule:nonzero;"/><path d="M575.694,138.28c0,0 -0.756,19.239 4.255,37.286c1.592,5.732 -33.138,16.162 -32.208,8.917c4.141,-32.275 -3.286,-53.792 -3.286,-53.792l31.239,7.589Z" style="fill:#fff;fill-rule:nonzero;"/><path d="M548.366,344.077c0,0 19.084,37.946 66.483,39.983c0.708,0.03 1.275,-0.59 1.177,-1.291c-1.256,-9.028 -8.315,-62.013 -7.387,-106.541c1.018,-48.852 -60.273,67.849 -60.273,67.849" style="fill:#d3a644;fill-rule:nonzero;"/><path d="M549.786,231.284l-74.22,-24.353c-1.233,-0.405 -2.505,0.505 -2.477,1.772l2.7,122.184c0.017,0.775 0.533,1.455 1.288,1.698l74.22,23.903c1.231,0.396 2.495,-0.514 2.467,-1.776l-2.7,-121.733c-0.017,-0.772 -0.528,-1.449 -1.278,-1.695" style="fill:#fff;fill-rule:nonzero;"/><path d="M526.001,214.043l-30.596,-10.308c-3.909,-1.317 -7.94,1.645 -7.852,5.769l1.271,59.02c0.077,3.6 2.413,6.761 5.832,7.892l27.153,8.979c5.576,1.844 11.299,-2.386 11.172,-8.258l-1.193,-55.219c-0.077,-3.582 -2.392,-6.731 -5.787,-7.875" style="fill:#d9edf6;fill-rule:nonzero;"/><path d="M546.833,230.289l-74.22,-25.006c-1.233,-0.416 -2.505,0.519 -2.477,1.82l2.7,125.459c0.017,0.795 0.533,1.493 1.288,1.743l74.22,24.543c1.231,0.407 2.495,-0.527 2.467,-1.824l-2.7,-124.996c-0.017,-0.791 -0.528,-1.486 -1.278,-1.739" style="fill:#4263eb;fill-rule:nonzero;"/><path d="M546.9,230.357c-66.671,-7.091 -73.997,102.273 -73.997,102.273c0.017,0.795 0.533,1.493 1.288,1.743l74.22,24.543c1.231,0.407 2.495,-0.527 2.467,-1.824l-2.7,-124.996c-0.017,-0.791 -0.491,-1.655 -1.278,-1.739" style="fill:#3054e9;fill-rule:nonzero;"/><path d="M615.424,206.343c-1.235,-9.631 -8.501,-27.933 -26.796,-17.18c-21.151,12.431 -26.24,118.954 -26.24,118.954l-63.961,-38.65c0,0 -31.451,-0.082 -19.041,7.948c12.411,8.03 77.079,83.671 93.14,81.116c16.06,-2.556 52.555,-76.895 42.898,-152.188" style="fill:#fff;fill-rule:nonzero;"/><path d="M587.379,188.533c-21.15,12.43 -24.991,119.584 -24.991,119.584c0,0 6.324,-2.446 10.234,9.16c5.428,16.114 0.469,41.198 0.469,41.198c16.06,-2.555 60.719,-79.973 51.061,-155.267c-0.942,-7.346 -11.201,-18.281 -24.134,-18.282c-4.021,0 -8.299,1.057 -12.639,3.607Z" style="fill:url(#_Linear2);fill-rule:nonzero;"/><path d="M576.375,137.477c0,0 -2.267,10.886 2.4,33.386c0,0 -32.067,-5.136 -30.702,-17.895c0.858,-8.02 28.302,-15.491 28.302,-15.491" style="fill:#eaeacd;fill-rule:nonzero;"/><path d="M543.098,85.798c0,0 -16.343,19.192 -16.056,47.013c0.167,16.167 7.353,23.373 16.349,24.229c11.281,1.073 20.382,-5.661 28.27,-13.796c8.09,-8.343 18.716,-16.941 17.348,-25.557c-2.261,-14.248 -45.911,-31.889 -45.911,-31.889" style="fill:#fff;fill-rule:nonzero;"/><path d="M582.903,136.006l-18.535,-5.824c0,0 11.976,-15.662 -0.915,-21.768c-12.891,-6.106 -28.43,-7.35 -24.359,-18.885c4.071,-11.534 39.738,-4.862 49.689,9.386c9.952,14.248 -5.88,37.091 -5.88,37.091" style="fill:#4263eb;fill-rule:nonzero;"/><path d="M563.283,133.236c0,4.871 3.949,8.82 8.82,8.82c4.872,0 8.821,-3.949 8.821,-8.82c0,-4.871 -3.949,-8.82 -8.821,-8.82c-4.871,0 -8.82,3.949 -8.82,8.82" style="fill:#fff;fill-rule:nonzero;"/><path d="M498.529,279.749c-1.445,-6.813 -5.514,-12.52 -14.144,-16.294l-16.853,-6.532c-2.202,-0.85 -4.503,1.474 -3.787,3.83l4.221,13.95c0.923,3.041 3.147,5.378 6.038,6.34l14.599,4.854l9.926,-6.148Z" style="fill:#fff;fill-rule:nonzero;"/><path d="M499.524,270.533l-4.635,-8.357c-0.449,-0.658 -0.996,-1.246 -1.619,-1.743l-6.382,-5.081c-0.409,-0.322 -0.978,-0.349 -1.415,-0.06l-0.366,0.245c-1.061,0.709 -1.292,2.174 -0.497,3.171l3.645,4.654c0.23,0.291 0.411,0.621 0.535,0.973l1.79,8.653l8.944,-2.455Z" style="fill:#fff;fill-rule:nonzero;"/><path d="M329.307,4.416l121.648,0c1.585,0 2.871,1.287 2.871,2.871l0,83.275c0,1.586 -1.286,2.872 -2.871,2.872l-121.648,0c-1.586,0 -2.871,-1.286 -2.871,-2.872l0,-83.275c0,-1.585 1.285,-2.871 2.871,-2.871" style="fill:#96b7e1;fill-rule:nonzero;"/><path d="M330.661,0.5l118.939,0c2.334,0 4.226,1.892 4.226,4.225l0,80.567c0,2.334 -1.892,4.226 -4.226,4.226l-118.939,0c-2.334,0 -4.225,-1.892 -4.225,-4.226l0,-80.567c0,-2.333 1.891,-4.225 4.225,-4.225" style="fill:#fff;fill-rule:nonzero;"/><path d="M451.436,90.032c-0.276,0 -0.5,-0.224 -0.5,-0.5l0,-86.342c0.003,-0.577 -0.228,-1.141 -0.633,-1.549c-0.411,-0.413 -0.959,-0.641 -1.543,-0.641l-122.024,0c-0.575,0 -1.137,0.234 -1.543,0.641c-0.411,0.414 -0.636,0.963 -0.633,1.546l0,33.447c0,0.276 -0.223,0.5 -0.5,0.5c-0.276,0 -0.5,-0.224 -0.5,-0.5l0,-33.444c-0.004,-0.837 0.333,-1.659 0.924,-2.254c0.592,-0.595 1.412,-0.936 2.252,-0.936l122.024,0c0.84,0 1.66,0.341 2.252,0.936c0.592,0.596 0.929,1.418 0.924,2.257l0,86.339c0,0.276 -0.224,0.5 -0.5,0.5" style="fill:#96b7e1;fill-rule:nonzero;"/><rect x="339.982" y="30.832" width="11.632" height="43.622" style="fill:#fecc4d;"/><rect x="405.732" y="36.144" width="11.632" height="38.56" style="fill:#fecc4d;"/><rect x="361.634" y="20.246" width="11.632" height="54.207" style="fill:#f2751c;"/><rect x="383.386" y="43.034" width="11.632" height="31.669" style="fill:#96b7e1;"/><rect x="426.877" y="52.643" width="11.633" height="21.811" style="fill:#96b7e1;"/><path d="M77.868,31.621l80.58,0c1.944,0 3.52,1.576 3.52,3.52l0,57.52c0,1.944 -1.576,3.52 -3.52,3.52l-80.58,0c-1.944,0 -3.52,-1.576 -3.52,-3.52l0,-57.52c0,-1.944 1.576,-3.52 3.52,-3.52" style="fill:#239b6a;fill-rule:nonzero;"/><path d="M73.785,28.287l83.08,0c1.254,0 2.27,1.016 2.27,2.27l0,60.02c0,1.254 -1.016,2.27 -2.27,2.27l-83.08,0c-1.254,0 -2.27,-1.016 -2.27,-2.27l0,-60.02c0,-1.254 1.016,-2.27 2.27,-2.27" style="fill:#fff;fill-rule:nonzero;"/><path d="M71.515,83.241c-0.276,0 -0.5,-0.224 -0.5,-0.5l0,-51.957c0.006,-1.653 1.348,-2.997 2.99,-2.997l55.53,0c0.276,0 0.5,0.224 0.5,0.5c0,0.277 -0.224,0.5 -0.5,0.5l-55.53,0c-1.093,0 -1.986,0.897 -1.99,1.999l0,51.955c0,0.276 -0.224,0.5 -0.5,0.5" style="fill:#239b6a;fill-rule:nonzero;"/><path d="M159.135,28.787l-14.1,0c-0.276,0 -0.5,-0.224 -0.5,-0.5c0,-0.276 0.224,-0.5 0.5,-0.5l14.1,0c0.276,0 0.5,0.224 0.5,0.5c0,0.276 -0.224,0.5 -0.5,0.5" style="fill:#239b6a;fill-rule:nonzero;"/><path d="M104.725,72.027l-6.17,6.13c9.73,9.724 25.499,9.724 35.23,0l-6.16,-6.16c-6.319,6.322 -16.564,6.336 -22.9,0.03" style="fill:#4ccd9b;fill-rule:nonzero;"/><path d="M128.075,48.667l5.26,-5.26c0.125,-0.121 0.195,-0.287 0.195,-0.46c0,-0.173 -0.07,-0.339 -0.195,-0.46c-4.605,-4.381 -10.714,-6.829 -17.07,-6.84l0,8.72c4.055,0.016 7.956,1.555 10.93,4.31c0.25,0.231 0.636,0.226 0.88,-0.01" style="fill:#239b6a;fill-rule:nonzero;"/><path d="M98.555,78.157l6.17,-6.16c-3.067,-3.058 -4.778,-7.219 -4.75,-11.55l-8.72,0c-0.031,6.642 2.598,13.019 7.3,17.71" style="fill:#239b6a;fill-rule:nonzero;"/><path d="M104.725,49.157c3.054,-3.059 7.207,-4.767 11.53,-4.74l0,-8.77c-6.638,-0.03 -13.013,2.599 -17.7,7.3l6.17,6.21Z" style="fill:#4ccd9b;fill-rule:nonzero;"/><path d="M127.635,72.027c2.943,-2.936 4.641,-6.894 4.74,-11.05c0,-0.271 0.219,-0.49 0.49,-0.49l7.73,0c0.134,0 0.263,0.054 0.357,0.15c0.094,0.096 0.146,0.226 0.143,0.36c-0.116,6.452 -2.738,12.606 -7.31,17.16l-6.16,-6.16l0.01,0.03Z" style="fill:#239b6a;fill-rule:nonzero;"/><path d="M91.254,60.528l8.721,-0.051c0.027,-4.251 1.734,-8.321 4.749,-11.319l-6.17,-6.16c-4.659,4.645 -7.285,10.95 -7.3,17.53Z" style="fill:url(#_Linear3);fill-rule:nonzero;"/><path d="M270.042,242.894l-161.25,0" style="fill:none;stroke:#eaeacd;stroke-width:2px;"/><path d="M270.042,227.179l-161.25,0" style="fill:none;stroke:#eaeacd;stroke-width:2px;"/><path d="M270.042,211.465l-161.25,0" style="fill:none;stroke:#eaeacd;stroke-width:2px;"/><path d="M270.042,195.751l-161.25,0" style="fill:none;stroke:#eaeacd;stroke-width:2px;"/><path d="M270.042,180.037l-161.25,0" style="fill:none;stroke:#eaeacd;stroke-width:2px;"/><path d="M270.042,164.322l-161.25,0" style="fill:none;stroke:#eaeacd;stroke-width:2px;"/><path d="M270.042,148.608l-161.25,0" style="fill:none;stroke:#eaeacd;stroke-width:2px;"/><path d="M270.042,132.894l-161.25,0" style="fill:none;stroke:#eaeacd;stroke-width:2px;"/><path d="M147.042,242.644l15.778,-105.124c0.291,-2.031 1.995,-3.561 4.045,-3.632c2.05,-0.071 3.857,1.338 4.288,3.343l3.809,17.299c0.573,2.612 2.637,4.638 5.26,5.163c2.622,0.524 5.307,-0.552 6.841,-2.743l2.434,-3.493c1.544,-2.207 4.081,-3.505 6.775,-3.467c2.693,0.039 5.193,1.409 6.673,3.66l50.686,77.239c3.787,5.775 10.228,9.254 17.134,9.255l7.137,0c7.761,0.01 14.87,-4.337 18.399,-11.249l27.794,-55.438" style="fill:none;stroke:#f2751c;stroke-width:2px;stroke-linecap:round;"/><path d="M31.868,258.982c-11.952,6.082 25.461,59.744 38.385,103.804c-13.95,-15.912 -34.177,-38.897 -41.513,-32.868c-7.056,7.143 20.562,35.344 34.459,61.104c-9.619,-5.799 -23.444,-13.561 -25.92,-10.361c-3.872,6.171 9.955,10.75 12.995,22.897c-9.529,-5.039 -21.252,-13.614 -23.886,-6.666c-1.468,5.393 11.015,10.237 14.887,23.887c-1.998,-1.326 -4.223,-2.83 -6.666,0c-5.595,6.479 14.596,27.185 87.105,9.795c28.853,-6.92 39.789,0 39.789,0c6.507,-23.71 16.85,-56.985 6.737,-60.345c-10.45,-2.546 -16.213,12.306 -21.217,25.85c-7.833,-38.968 -27.988,-99.878 -42.134,-95.033c-13.879,4.348 -3.147,41.602 5.694,69.573c-22.431,-49.391 -54.309,-112.482 -74.823,-112.476c-1.347,0 -2.648,0.273 -3.892,0.839Z" style="fill:url(#_Linear4);fill-rule:nonzero;"/><path d="M350.231,150.797l2.644,3.497l-24.326,18.396l-2.645,-3.497l24.327,-18.396Z" style="fill:#4263eb;"/><path d="M325.357,169.649l-1.399,3.895l4.042,-0.4l-2.643,-3.495Z" style="fill:#4263eb;fill-rule:nonzero;"/><path d="M343.812,165.863c-0.187,-0.312 -7.16,-3.459 -9.406,-2c-3.032,1.969 -0.313,4.188 5.5,8.844" style="fill:#fff;fill-rule:nonzero;"/><path d="M369.725,347.634l83.191,0c1.975,0 3.576,1.601 3.576,3.576l0,61.533c0,1.976 -1.601,3.577 -3.576,3.577l-83.191,0c-1.975,0 -3.576,-1.601 -3.576,-3.577l0,-61.533c0,-1.975 1.601,-3.576 3.576,-3.576" style="fill:#f2751c;fill-rule:nonzero;"/><path d="M367.059,344.301l83.191,0c1.975,0 3.576,1.601 3.576,3.576l0,61.533c0,1.976 -1.601,3.577 -3.576,3.577l-83.191,0c-1.975,0 -3.576,-1.601 -3.576,-3.577l0,-61.533c0,-1.975 1.601,-3.576 3.576,-3.576" style="fill:#fff;fill-rule:nonzero;"/><path d="M363.141,352.227l0,57.515c0,2.017 1.635,3.652 3.651,3.652l74.097,0" style="fill:none;stroke:#f2751c;stroke-width:1.5px;stroke-linecap:round;stroke-linejoin:round;"/><path d="M408.654,350.216l0,9.591c10.403,0 18.836,8.434 18.836,18.836c0,10.403 -8.433,18.836 -18.836,18.836l0,9.592c15.136,-0.774 27.011,-13.272 27.011,-28.428c0,-15.155 -11.875,-27.653 -27.011,-28.427Z" style="fill:#f2751c;fill-rule:nonzero;"/><path d="M380.189,378.68l9.592,0c-0.01,-5.008 1.974,-9.813 5.517,-13.356c3.541,-3.541 8.347,-5.526 13.356,-5.516l0,-9.592c-15.72,0 -28.465,12.744 -28.465,28.464Z" style="fill:url(#_Linear5);fill-rule:nonzero;"/><path d="M408.654,359.808l0,-9.591c-15.72,0 -28.464,12.744 -28.464,28.464l9.591,0c-0.01,-5.008 1.975,-9.814 5.517,-13.356c3.541,-3.542 8.348,-5.527 13.356,-5.517" style="fill:#ffc400;fill-rule:nonzero;"/><path d="M380.226,378.64c0.02,15.694 12.736,28.41 28.428,28.431l0,-9.595c-10.403,0 -18.836,-8.431 -18.836,-18.836l-9.592,0Z" style="fill:url(#_Linear6);fill-rule:nonzero;"/><path d="M380.226,378.64c0.02,15.694 12.736,28.41 28.428,28.431l0,-9.595c-10.403,0 -18.836,-8.431 -18.836,-18.836l-9.592,0Z" style="fill:url(#_Linear7);fill-rule:nonzero;"/><path d="M380.226,378.64c0.02,15.694 12.736,28.41 28.428,28.431l0,-9.595c-10.403,0 -18.836,-8.431 -18.836,-18.836l-9.592,0Z" style="fill:url(#_Linear8);fill-rule:nonzero;"/><path d="M493.271,218.237c0.481,1.331 0.134,2.676 -0.775,3.005c-0.909,0.328 -2.036,-0.485 -2.517,-1.816c-0.481,-1.331 -0.134,-2.676 0.775,-3.004c0.909,-0.329 2.036,0.484 2.517,1.815" style="fill:#d9edf6;fill-rule:nonzero;"/><path d="M520.521,226.612c0.481,1.331 0.134,2.676 -0.775,3.005c-0.909,0.328 -2.036,-0.485 -2.517,-1.816c-0.481,-1.331 -0.134,-2.676 0.775,-3.004c0.909,-0.329 2.036,0.484 2.517,1.815" style="fill:#d9edf6;fill-rule:nonzero;"/><path d="M407.765,137.772c0,2.334 -1.892,4.227 -4.227,4.227c-2.334,0 -4.226,-1.893 -4.226,-4.227c0,-2.334 1.892,-4.227 4.226,-4.227c2.335,0 4.227,1.893 4.227,4.227" style="fill:#fff;fill-rule:nonzero;"/><path d="M292.873,295.073c0,2.429 -1.969,4.398 -4.398,4.398c-2.428,0 -4.397,-1.969 -4.397,-4.398c0,-2.429 1.969,-4.398 4.397,-4.398c2.429,0 4.398,1.969 4.398,4.398" style="fill:#fff;fill-rule:nonzero;"/></g><defs><linearGradient id="_Linear1" x1="0" y1="0" x2="1" y2="0" gradientUnits="userSpaceOnUse" gradientTransform="matrix(126.041,0,0,126.041,412.437,217.606)"><stop offset="0" style="stop-color:#f8980f;stop-opacity:1"/><stop offset="0.01" style="stop-color:#f8980f;stop-opacity:1"/><stop offset="1" style="stop-color:#fecc4d;stop-opacity:1"/></linearGradient><linearGradient id="_Linear2" x1="0" y1="0" x2="1" y2="0" gradientUnits="userSpaceOnUse" gradientTransform="matrix(0,-165.333,165.333,0,593.947,357.977)"><stop offset="0" style="stop-color:#f8980f;stop-opacity:1"/><stop offset="0.01" style="stop-color:#f8980f;stop-opacity:1"/><stop offset="1" style="stop-color:#fecc4d;stop-opacity:1"/></linearGradient><linearGradient id="_Linear3" x1="0" y1="0" x2="1" y2="0" gradientUnits="userSpaceOnUse" gradientTransform="matrix(1.06859e-15,-17.53,17.53,1.06859e-15,97.9843,60.4772)"><stop offset="0" style="stop-color:#4ccd9b;stop-opacity:1"/><stop offset="1" style="stop-color:#239b6a;stop-opacity:1"/></linearGradient><linearGradient id="_Linear4" x1="0" y1="0" x2="1" y2="0" gradientUnits="userSpaceOnUse" gradientTransform="matrix(146.206,0,0,146.206,26.2686,347.757)"><stop offset="0" style="stop-color:#239b6a;stop-opacity:1"/><stop offset="1" style="stop-color:#4ccd9b;stop-opacity:1"/></linearGradient><linearGradient id="_Linear5" x1="0" y1="0" x2="1" y2="0" gradientUnits="userSpaceOnUse" gradientTransform="matrix(56.8422,0,0,56.8422,380.228,364.436)"><stop offset="0" style="stop-color:#ff9a01;stop-opacity:1"/><stop offset="1" style="stop-color:#ffc400;stop-opacity:1"/></linearGradient><linearGradient id="_Linear6" x1="0" y1="0" x2="1" y2="0" gradientUnits="userSpaceOnUse" gradientTransform="matrix(56.8422,-3.55271e-15,3.55271e-15,56.8422,380.226,392.849)"><stop offset="0" style="stop-color:#ff9a01;stop-opacity:1"/><stop offset="1" style="stop-color:#ffc400;stop-opacity:1"/></linearGradient><linearGradient id="_Linear7" x1="0" y1="0" x2="1" y2="0" gradientUnits="userSpaceOnUse" gradientTransform="matrix(86.606,0,0,86.606,322.047,392.849)"><stop offset="0" style="stop-color:#ff9a01;stop-opacity:1"/><stop offset="1" style="stop-color:#ffc400;stop-opacity:1"/></linearGradient><linearGradient id="_Linear8" x1="0" y1="0" x2="1" y2="0" gradientUnits="userSpaceOnUse" gradientTransform="matrix(50.976,0,0,50.976,357.677,392.849)"><stop offset="0" style="stop-color:#f2751c;stop-opacity:1"/><stop offset="1" style="stop-color:#ffc400;stop-opacity:1"/></linearGradient></defs></svg>