<svg viewBox="0 0 687 441" xmlns="http://www.w3.org/2000/svg" xmlns:serif="http://www.serif.com/" fill-rule="evenodd" clip-rule="evenodd" stroke-miterlimit="10"><g serif:id="Слой 3"><path d="M686.032 268.478L0 267.212c14.625-4.943.709-54.079 29.375-73.729 21.334-10.693 33.972 7.322 50.142-1.234 12.654-12.117 3.013-54.859 3.192-70.265.424-36.522 27.957-63.028 56.408-75.65 84.671-31.114 224.705 132.451 284.68 136.502 35.672 0 46.307-71.981 91.4-71.981 52.527-.519 111.054 125.116 170.835 157.623M587.172 58.784c-6.554-2.362-12.945 3.051-20.236 1.983-15.73-4.388-21.465-22.686-35.392-22.686-7.332.085-10.651 4.957-18.188 6.038-12.207 1.061-32.197-36.565-67.344-30.462-36.63 8.32-39.816 43.708-68.606 56.637h222.956c-3.648-6.033-7.544-9.853-13.19-11.51M512.462 359.759c-12.791-3.795-25.263 4.903-39.493 3.187-30.698-7.051-55.448-44.292-82.629-44.292-14.309.136-7.228 15.804-21.938 17.54-23.824 1.704-103.276-58.756-171.869-48.949-71.487 13.369-37.266 70.233-93.453 91.01h435.124c-7.121-9.696-14.722-15.833-25.742-18.496" fill="#d9edf6" fill-rule="nonzero"/><path d="M120.097 289.97H95.421c-15.429 0-27.982-12.553-27.982-27.981 0-10.181-8.283-18.464-18.464-18.464H35.687a.76.76 0 1 1 0-1.52h13.288c11.019 0 19.984 8.964 19.984 19.984 0 14.59 11.871 26.461 26.462 26.461h24.676a22.877 22.877 0 0 0 21.698-15.588l9.012-26.764c1.975-5.864 7.043-9.613 13.229-9.783 6.213-.152 11.453 3.294 13.747 9.04l7.965 19.954c3.672 9.198 12.445 15.141 22.349 15.141h53.747c11.589 0 22.383-6.239 28.167-16.281l15.003-26.054a11.615 11.615 0 0 1 9.68-5.84c4.04-.159 7.813 1.753 10.089 5.095l3.851 5.656c2.152 3.162 5.712 4.862 9.53 4.57 3.816-.302 7.068-2.55 8.699-6.014l7.922-16.837c1.8-3.825 5.395-6.221 9.619-6.411 4.209-.197 8.019 1.875 10.153 5.524l3.548 6.058a16.667 16.667 0 0 0 14.334 8.218c5.644 0 10.644-3.8 12.158-9.24l32.09-115.455c1.277-4.594 5.174-7.555 9.937-7.555h.054c4.788.023 8.681 3.025 9.919 7.649l14.17 52.905c.838 3.128 3.515 4.179 5.522 4.185 2.023-.024 4.657-1.169 5.42-4.316l6.824-28.172a18.995 18.995 0 0 1 18.514-14.565h27.59c8.41 0 15.726 5.399 18.204 13.435l10.552 34.203c2.321 7.527 9.172 12.584 17.047 12.584a.76.76 0 1 1 0 1.52c-8.547 0-15.98-5.488-18.5-13.656l-10.552-34.203c-2.28-7.395-9.012-12.363-16.751-12.363h-27.59a17.48 17.48 0 0 0-17.037 13.402l-6.825 28.173c-.796 3.287-3.496 5.437-6.879 5.478-3.405.04-6.132-2.044-7.007-5.311l-14.17-52.905c-1.283-4.791-5.359-6.509-8.458-6.523h-.04c-3.095 0-7.158 1.684-8.479 6.442l-32.09 115.455c-1.697 6.096-7.299 10.353-13.623 10.353a18.194 18.194 0 0 1-15.646-8.97l-3.548-6.059c-1.845-3.152-5.143-4.945-8.773-4.772-3.649.163-6.756 2.234-8.312 5.539l-7.922 16.838c-1.866 3.964-5.587 6.536-9.954 6.881-4.368.347-8.443-1.61-10.907-5.23l-3.85-5.655a10.106 10.106 0 0 0-8.776-4.433 10.102 10.102 0 0 0-8.419 5.079l-15.004 26.055c-6.054 10.513-17.352 17.043-29.484 17.043h-53.747c-10.53 0-19.856-6.318-23.76-16.097l-7.967-19.954c-2.451-6.144-7.966-8.233-12.292-8.085-4.335.119-9.72 2.48-11.831 8.748l-9.012 26.764a24.395 24.395 0 0 1-23.138 16.624" fill="#96b7e1" fill-rule="nonzero"/><path d="M285.707 263.06H107.54a5.667 5.667 0 0 1-5.666-5.667V121.727a5.667 5.667 0 0 1 5.666-5.667h178.167a5.667 5.667 0 0 1 5.667 5.667v135.666a5.667 5.667 0 0 1-5.667 5.667" fill="#4263eb" fill-rule="nonzero"/><path d="M282.207 259.31H104.04a5.666 5.666 0 0 1-5.666-5.666V117.978a5.667 5.667 0 0 1 5.666-5.668l178.167.001a5.666 5.666 0 0 1 5.667 5.666v135.667a5.666 5.666 0 0 1-5.667 5.666M328.473 160.426l19.734-4.699 17.981 18.792L358 186.832l-15.125-10.375-9.5-10.188c-.84-.878-2.161-.322-1.283-1.163.734-.703 3.022-.591 3.906-.265l8.959 4.636-8.25-4.25-6.869 1.393a3.172 3.172 0 0 1-1.365-6.194" fill="#fff" fill-rule="nonzero"/><path d="M509.803 364.381l-4.294 67.11c8.269-7.824 79.763 20.042 101.588 3.103 15.405-11.957 12.46-41.374.384-76.951-12.075-35.577-97.678 6.738-97.678 6.738" fill="#4263eb" fill-rule="nonzero"/><path d="M515.152 186.475c-.869.087-1.742.13-2.618.13h-2.241c-.592 0-.888-.296-.888-.888 0-.592.296-.888.888-.888h2.241c.817 0 1.631-.04 2.442-.121.589-.059.913.206.971.795.059.589-.206.913-.795.972m-10.778.13h-4.736c-.592 0-.888-.296-.888-.888 0-.592.296-.888.888-.888h4.736c.592 0 .888.296.888.888 0 .592-.296.888-.888.888m-10.655 0h-4.735c-.592 0-.888-.296-.888-.888 0-.592.296-.888.888-.888h4.735c.592 0 .888.296.888.888 0 .592-.296.888-.888.888m-10.655 0h-4.735c-.592 0-.888-.296-.888-.888 0-.592.296-.888.888-.888h4.735c.592 0 .888.296.888.888 0 .592-.296.888-.888.888m-10.654 0h-4.736c-.592 0-.888-.296-.888-.888 0-.592.296-.888.888-.888h4.736c.591 0 .887.296.887.888 0 .592-.296.888-.887.888m-10.655 0h-4.335l-.413-.003c-.592-.003-.886-.301-.882-.893.003-.592.301-.886.893-.882l.402.002h4.335c.592 0 .888.296.888.888 0 .592-.296.888-.888.888m-10.825-.607c-1.593-.3-3.158-.71-4.694-1.229-.561-.189-.747-.565-.557-1.125.189-.561.564-.747 1.125-.558 1.458.493 2.943.882 4.456 1.167.581.11.817.456.707 1.038-.109.581-.455.817-1.037.707m-10.262-3.667a35.047 35.047 0 0 1-4.092-2.618c-.475-.353-.536-.767-.183-1.242.353-.475.767-.537 1.242-.184a33.226 33.226 0 0 0 3.884 2.486c.52.283.638.685.354 1.204-.283.52-.685.638-1.205.354m-8.64-6.654a34.773 34.773 0 0 1-3.081-3.747c-.344-.482-.274-.894.208-1.238.482-.343.895-.274 1.238.209a33.199 33.199 0 0 0 2.925 3.555c.407.43.395.849-.035 1.256-.43.407-.848.395-1.255-.035m-6.234-8.898l-2.364-4.103c-.295-.513-.187-.917.326-1.213.513-.295.918-.186 1.213.327l2.363 4.103c.296.513.187.917-.326 1.213-.513.295-.917.186-1.212-.327m-5.318-9.232l-2.364-4.104c-.295-.513-.187-.917.326-1.212.513-.296.917-.187 1.213.326l2.363 4.103c.296.513.187.918-.326 1.213-.513.295-.917.187-1.212-.326m-5.318-9.233l-2.364-4.103c-.295-.513-.187-.917.327-1.213.512-.295.917-.187 1.212.326l2.363 4.104c.296.513.187.917-.326 1.212-.513.296-.917.187-1.212-.326m-5.69-8.646a10.178 10.178 0 0 0-3.831-2.036c-.569-.161-.773-.527-.612-1.096.161-.57.527-.774 1.096-.612a11.928 11.928 0 0 1 4.492 2.386c.452.382.488.799.106 1.251-.382.453-.799.488-1.251.107m-9.31-2.072a10.169 10.169 0 0 0-3.856 1.983c-.458.376-.874.335-1.25-.123-.376-.457-.335-.874.123-1.249a11.942 11.942 0 0 1 4.521-2.326c.572-.154.935.055 1.088.627.154.571-.054.934-.626 1.088m-7.4 6.443l-2.383 3.497c-.105.154-.214.306-.325.455-.355.474-.769.533-1.243.179-.474-.355-.533-.769-.179-1.243.096-.128.189-.259.28-.392l2.383-3.496c.334-.489.745-.567 1.234-.234.489.334.567.745.233 1.234m-7.695 7.901a12.307 12.307 0 0 1-5.002 1.039c-.592-.001-.888-.297-.886-.889.001-.592.297-.888.889-.886a10.576 10.576 0 0 0 4.289-.892c.542-.237.932-.084 1.169.459.237.542.084.932-.459 1.169m-11.187-.618a12.318 12.318 0 0 1-3.797-3.379c-.353-.476-.291-.89.184-1.242.476-.353.89-.291 1.242.184a10.573 10.573 0 0 0 3.256 2.898c.513.295.622.699.327 1.212s-.699.622-1.212.327m-6.628-8.824l-2.016-4.284c-.252-.536-.11-.93.426-1.182.535-.252.929-.11 1.181.425l2.016 4.285c.252.536.11.93-.426 1.182-.535.252-.929.11-1.181-.426m-4.536-9.641l-2.009-4.269-.007-.016c-.252-.536-.11-.93.425-1.182.536-.251.93-.11 1.182.426l.007.016 2.009 4.269c.252.536.11.93-.426 1.182-.535.252-.929.11-1.181-.426m-5.599-8.35a9.661 9.661 0 0 0-4.092-1.467c-.587-.071-.846-.401-.775-.989.071-.587.401-.845.989-.774 1.742.211 3.353.789 4.833 1.734.499.318.589.727.271 1.226-.319.499-.727.589-1.226.27m-9.464-.596a9.692 9.692 0 0 0-3.408 2.673c-.374.46-.79.503-1.249.129-.46-.373-.503-.789-.129-1.249a11.44 11.44 0 0 1 4.025-3.158c.535-.253.93-.112 1.183.423s.113.929-.422 1.182m-6.448 7.64l-1.438 2.457a18.54 18.54 0 0 1-1.101 1.672c-.351.476-.765.539-1.241.187-.477-.351-.539-.765-.188-1.241.359-.487.692-.992.997-1.515l1.439-2.457c.299-.511.704-.617 1.215-.318.51.299.616.704.317 1.215m-6.991 8.432a18.614 18.614 0 0 1-4.429 2.241c-.559.194-.935.012-1.13-.547-.195-.559-.013-.935.546-1.13a16.84 16.84 0 0 0 4.008-2.028c.488-.335.899-.259 1.234.229.335.488.259.9-.229 1.235m-10.55 3.279h-.023a14.528 14.528 0 0 1-4.942-.873c-.557-.201-.734-.58-.533-1.137.202-.556.58-.734 1.137-.532 1.399.506 2.845.762 4.338.766h.023c.592 0 .888.296.888.888 0 .592-.296.888-.888.888m-10.268-4.221a14.496 14.496 0 0 1-2.916-4.087c-.256-.534-.117-.929.417-1.185.534-.255.928-.116 1.184.418a12.77 12.77 0 0 0 2.562 3.59c.421.416.424.834.008 1.256-.415.421-.834.424-1.255.008m-4.766-9.899l-1.268-4.563c-.159-.57.047-.934.617-1.093.571-.158.935.047 1.094.618l1.268 4.562c.159.57-.047.935-.618 1.093-.57.159-.934-.047-1.093-.617m-2.854-10.266l-1.268-4.562c-.159-.57.047-.935.617-1.093.571-.159.935.047 1.094.617l1.268 4.563c.158.57-.047.934-.618 1.093-.57.159-.934-.047-1.093-.618m-2.854-10.265l-1.268-4.562c-.159-.571.047-.935.617-1.094.571-.158.935.048 1.094.618l1.268 4.562c.159.571-.047.935-.618 1.094-.57.158-.934-.048-1.093-.618m-2.854-10.266l-1.268-4.562c-.159-.57.047-.935.617-1.093.571-.159.935.047 1.093.617l1.269 4.563c.158.57-.047.935-.618 1.093-.57.159-.934-.047-1.093-.618M297.21 88.08l-1.268-4.562c-.159-.571.047-.935.617-1.094.57-.158.935.048 1.093.618l1.269 4.562c.159.571-.048.935-.618 1.094-.57.158-.934-.048-1.093-.618m-2.854-10.265l-1.269-4.563c-.158-.57.048-.934.618-1.093.571-.158.935.047 1.093.618l1.269 4.562c.158.57-.047.935-.618 1.093-.57.159-.934-.047-1.093-.617m-2.854-10.266l-1.268-4.562c-.159-.57.047-.935.617-1.093.57-.159.935.047 1.093.617l1.269 4.563c.159.57-.048.934-.618 1.093-.57.159-.935-.047-1.093-.618m-2.854-10.265l-1.269-4.562c-.158-.571.048-.935.618-1.094.571-.158.935.048 1.093.618l1.269 4.562c.158.571-.047.935-.618 1.094-.57.158-.934-.048-1.093-.618m-2.854-10.265l-1.268-4.563c-.159-.57.047-.935.617-1.093.57-.159.935.047 1.093.618l1.269 4.562c.159.57-.048.935-.618 1.093-.57.159-.935-.047-1.093-.617m-2.854-10.266l-1.269-4.562c-.158-.571.048-.935.618-1.094.571-.158.935.048 1.093.618l1.269 4.562c.158.571-.047.935-.618 1.094-.57.158-.934-.048-1.093-.618m-2.854-10.265l-1.269-4.563c-.158-.57.048-.934.618-1.093.57-.159.935.047 1.093.618l1.269 4.562c.158.57-.048.935-.618 1.093-.57.159-.935-.047-1.093-.617m-2.854-10.266l-.531-1.907a8.809 8.809 0 0 0-1.042-2.36c-.315-.501-.222-.909.279-1.225.501-.315.909-.222 1.224.279.554.88.971 1.824 1.251 2.83l.53 1.908c.158.57-.047.934-.618 1.093-.57.158-.934-.047-1.093-.618m-5.628-7.72a8.793 8.793 0 0 0-4.244-.676c-.59.05-.91-.219-.961-.809-.05-.59.22-.91.809-.96.286-.025.573-.038.861-.039a10.554 10.554 0 0 1 4.231.849c.544.232.701.62.469 1.165-.232.545-.62.701-1.165.47m-9.159 1.337a8.757 8.757 0 0 0-2.558 3.476c-.225.547-.611.709-1.158.484-.548-.224-.71-.61-.485-1.158a10.513 10.513 0 0 1 3.069-4.17c.456-.377.872-.338 1.25.118.377.456.338.872-.118 1.25m-4.144 9.114l-1.226 4.574c-.154.572-.516.781-1.088.628-.572-.153-.781-.516-.628-1.088l1.227-4.574c.153-.571.515-.781 1.087-.627.572.153.781.515.628 1.087m-2.759 10.292l-1.226 4.573c-.154.572-.516.781-1.088.628-.572-.153-.781-.516-.627-1.087l1.226-4.574c.153-.572.516-.781 1.087-.628.572.153.781.516.628 1.088m-2.759 10.291l-1.226 4.574c-.154.572-.516.781-1.088.627-.572-.153-.781-.515-.628-1.087l1.227-4.574c.153-.572.515-.781 1.087-.628.572.153.781.516.628 1.088m-2.759 10.291l-1.226 4.574c-.154.572-.516.781-1.088.628-.572-.153-.781-.516-.628-1.088l1.227-4.574c.153-.571.515-.781 1.087-.627.572.153.781.515.628 1.087m-2.759 10.292l-1.226 4.573c-.153.572-.516.781-1.088.628-.572-.153-.781-.516-.628-1.087l1.227-4.574c.153-.572.515-.781 1.087-.628.572.153.781.516.628 1.088m-3.151 10.492c-1.001 1.6-2.407 2.665-4.218 3.196-.568.166-.936-.034-1.102-.602-.167-.568.034-.936.602-1.102 1.38-.405 2.45-1.216 3.213-2.434.314-.502.722-.595 1.224-.281.502.314.595.722.281 1.223m-10.755 2.026c-1.447-1.076-2.38-2.49-2.8-4.243l-.057-.236c-.139-.576.079-.933.654-1.072.575-.139.932.079 1.072.654l.058.24a5.51 5.51 0 0 0 2.133 3.232c.474.353.535.767.183 1.242-.354.475-.768.536-1.243.183m-4.249-10.233l-1.114-4.602c-.139-.576.079-.933.655-1.072.575-.139.932.079 1.071.654l1.114 4.603c.139.575-.079.933-.654 1.072-.576.139-.933-.079-1.072-.655m-2.505-10.356l-1.114-4.602c-.139-.576.079-.933.654-1.072.576-.139.933.079 1.072.654l1.114 4.603c.139.575-.079.932-.655 1.072-.575.139-.932-.079-1.071-.655M224.1 41.692l-.526-2.173a17.964 17.964 0 0 0-.728-2.311c-.216-.551-.048-.934.503-1.15.551-.216.935-.048 1.15.503.324.827.591 1.674.801 2.54l.526 2.174c.139.575-.079.932-.655 1.072-.575.139-.932-.079-1.071-.655m-4.101-9.326a17.842 17.842 0 0 0-3.285-3.088c-.479-.348-.545-.762-.197-1.241.348-.479.762-.544 1.241-.196a19.599 19.599 0 0 1 3.611 3.395c.376.456.336.873-.12 1.25-.457.376-.873.336-1.25-.12m-8.309-5.641a17.806 17.806 0 0 0-4.432-.826c-.591-.034-.87-.346-.836-.937.035-.591.347-.87.938-.836 1.665.096 3.29.399 4.874.909.563.181.754.554.573 1.117-.181.564-.554.755-1.117.573m-10.326-.856h-4.735c-.592 0-.888-.296-.888-.888 0-.591.296-.887.888-.887h4.735c.592 0 .888.296.888.887 0 .592-.296.888-.888.888" fill="#239b6a" fill-rule="nonzero"/><path d="M395.375 137.781a8.168 8.168 0 1 0 16.336-.009 8.168 8.168 0 0 0-8.182-8.159 8.152 8.152 0 0 0-8.154 8.168m3.947 0a4.221 4.221 0 1 1 4.207 4.208 4.208 4.208 0 0 1-4.207-4.208M181.355 23.991a8.168 8.168 0 1 0 16.336-.009 8.168 8.168 0 0 0-8.182-8.159 8.156 8.156 0 0 0-8.154 8.168m3.946 0a4.222 4.222 0 1 1 4.208 4.208 4.208 4.208 0 0 1-4.208-4.208" fill="#239b6a" fill-rule="nonzero"/><path d="M279.958 295.137a8.473 8.473 0 0 0 8.464 8.488 8.473 8.473 0 0 0 8.483-8.469 8.473 8.473 0 0 0-8.473-8.478 8.473 8.473 0 0 0-8.474 8.459m4.094 0a4.38 4.38 0 1 1 4.38 4.38 4.369 4.369 0 0 1-4.38-4.38M549.813 244.544a8.168 8.168 0 1 0 16.336 0 8.168 8.168 0 0 0-16.336 0m3.96 0a4.208 4.208 0 1 1 8.416 0 4.208 4.208 0 0 1-8.416 0" fill="#1f46e7" fill-rule="nonzero"/><path d="M121.616 331.862h2.456c.614 0 .921.307.921.921 0 .614-.307.921-.921.921h-2.456c-.614 0-.921-.307-.921-.921 0-.614.307-.921.921-.921m6.141 0h2.456c.614 0 .921.307.921.921 0 .614-.307.921-.921.921h-2.456c-.614 0-.921-.307-.921-.921 0-.614.307-.921.921-.921m6.141 0h2.456c.614 0 .921.307.921.921 0 .614-.307.921-.921.921h-2.456c-.615 0-.922-.307-.922-.921 0-.614.307-.921.922-.921m6.14 0h2.457c.614 0 .921.307.921.921 0 .614-.307.921-.921.921h-2.457c-.614 0-.921-.307-.921-.921 0-.614.307-.921.921-.921m6.141 0h2.456c.614 0 .922.307.922.921 0 .614-.308.921-.922.921h-2.456c-.614 0-.921-.307-.921-.921 0-.614.307-.921.921-.921m6.141 0h2.456c.614 0 .921.307.921.921 0 .614-.307.921-.921.921h-2.456c-.614 0-.921-.307-.921-.921 0-.614.307-.921.921-.921m6.141 0h2.456c.614 0 .921.307.921.921 0 .614-.307.921-.921.921h-2.456c-.614 0-.921-.307-.921-.921 0-.614.307-.921.921-.921m6.14 0h2.457c.614 0 .921.307.921.921 0 .614-.307.921-.921.921h-2.457c-.614 0-.921-.307-.921-.921 0-.614.307-.921.921-.921m6.141 0h2.456c.615 0 .922.307.922.921 0 .614-.307.921-.922.921h-2.456c-.614 0-.921-.307-.921-.921 0-.614.307-.921.921-.921m6.141 0h2.456c.614 0 .921.307.921.921 0 .614-.307.921-.921.921h-2.456c-.614 0-.921-.307-.921-.921 0-.614.307-.921.921-.921m6.141 0h2.456c.614 0 .921.307.921.921 0 .614-.307.921-.921.921h-2.456c-.614 0-.921-.307-.921-.921 0-.614.307-.921.921-.921m6.14 0h2.457c.614 0 .921.307.921.921 0 .614-.307.921-.921.921h-2.457c-.614 0-.921-.307-.921-.921 0-.614.307-.921.921-.921m6.141 0h2.457c.614 0 .921.307.921.921 0 .614-.307.921-.921.921h-2.457c-.614 0-.921-.307-.921-.921 0-.614.307-.921.921-.921m6.141 0h2.456c.614 0 .921.307.921.921 0 .614-.307.921-.921.921h-2.456c-.614 0-.921-.307-.921-.921 0-.614.307-.921.921-.921m6.141 0h2.456c.614 0 .921.307.921.921 0 .614-.307.921-.921.921h-2.456c-.614 0-.921-.307-.921-.921 0-.614.307-.921.921-.921m6.141 0h2.456c.614 0 .921.307.921.921 0 .614-.307.921-.921.921h-2.456c-.615 0-.922-.307-.922-.921 0-.614.307-.921.922-.921m6.14 0h2.457c.614 0 .921.307.921.921 0 .614-.307.921-.921.921h-2.457c-.614 0-.921-.307-.921-.921 0-.614.307-.921.921-.921m6.141 0h2.456c.615 0 .922.307.922.921 0 .614-.307.921-.922.921h-2.456c-.614 0-.921-.307-.921-.921 0-.614.307-.921.921-.921m5.983-.201a11.545 11.545 0 0 0 2.185-.639c.57-.23.969-.06 1.199.51.229.569.059.969-.51 1.198-.82.331-1.664.578-2.532.742-.604.113-.962-.131-1.076-.735-.114-.603.131-.962.734-1.076m5.127-2.367c.323-.259.63-.536.922-.828l.805-.804c.434-.435.868-.435 1.302 0 .435.434.434.868 0 1.302l-.804.804a13.49 13.49 0 0 1-1.068.96c-.478.386-.91.339-1.295-.139-.386-.478-.339-.909.138-1.295m4.333-4.237l1.737-1.737c.434-.434.869-.434 1.303.001.434.434.434.868-.001 1.302l-1.737 1.737c-.434.434-.869.434-1.303-.001-.434-.434-.434-.868.001-1.302m4.343-4.341l1.737-1.737c.434-.434.869-.434 1.303 0 .434.435.434.869-.001 1.303l-1.737 1.737c-.434.434-.868.434-1.302-.001-.435-.434-.434-.868 0-1.302m4.343-4.342l1.737-1.736c.434-.434.869-.434 1.303 0 .434.435.434.869 0 1.303l-1.738 1.736c-.434.435-.868.434-1.302 0-.434-.434-.434-.868 0-1.303m4.343-4.341l1.738-1.736c.434-.434.868-.434 1.302 0 .434.434.434.869 0 1.303l-1.738 1.736c-.434.434-.868.434-1.302 0-.434-.434-.434-.869 0-1.303m4.343-4.341l1.737-1.737c.435-.434.869-.434 1.303.001.434.434.434.868 0 1.302l-1.737 1.737c-.435.434-.869.434-1.303 0-.434-.435-.434-.869 0-1.303m4.343-4.341l1.738-1.737c.434-.434.868-.434 1.302.001.434.434.434.868 0 1.302l-1.737 1.737c-.435.434-.869.434-1.303-.001-.434-.434-.434-.868 0-1.302m4.344-4.341l1.737-1.737c.434-.434.869-.434 1.302 0 .435.435.435.869 0 1.303l-1.737 1.737c-.434.434-.869.434-1.303-.001-.434-.434-.434-.868.001-1.302m4.752-4.238a13.385 13.385 0 0 1 2.371-1.153c.576-.213.971-.032 1.183.544.213.576.032.971-.544 1.184-.714.264-1.396.595-2.044.994-.523.322-.946.222-1.267-.301-.322-.524-.222-.946.301-1.268m6.251-1.962c.26-.014.52-.022.78-.021h1.74c.614 0 .922.307.922.921 0 .614-.308.921-.922.921h-1.743c-.224 0-.448.006-.672.019-.614.034-.937-.255-.972-.868-.035-.613.254-.937.867-.972m6.205-.021h2.456c.614 0 .921.307.921.921 0 .614-.307.921-.921.921h-2.456c-.614 0-.921-.307-.921-.921 0-.614.307-.921.921-.921m6.141 0h2.456c.614 0 .921.307.921.921 0 .614-.307.921-.921.921h-2.456c-.614 0-.921-.307-.921-.921 0-.614.307-.921.921-.921m6.14 0h2.457c.614 0 .921.307.921.921 0 .614-.307.921-.921.921H297c-.614 0-.921-.307-.921-.921 0-.614.307-.921.921-.921m6.141 0h2.456c.615 0 .922.307.922.921 0 .614-.307.921-.922.921h-2.456c-.614 0-.921-.307-.921-.921 0-.614.307-.921.921-.921m6.141 0h2.456c.614 0 .921.307.921.921 0 .614-.307.921-.921.921h-2.456c-.614 0-.921-.307-.921-.921 0-.614.307-.921.921-.921m6.141 0h2.456c.614 0 .921.307.921.921 0 .614-.307.921-.921.921h-2.456c-.614 0-.921-.307-.921-.921 0-.614.307-.921.921-.921m6.14 0h2.457c.614 0 .921.307.921.921 0 .614-.307.921-.921.921h-2.457c-.614 0-.921-.307-.921-.921 0-.614.307-.921.921-.921m6.141 0h2.457c.614 0 .921.307.921.921 0 .614-.307.921-.921.921h-2.457c-.614 0-.921-.307-.921-.921 0-.614.307-.921.921-.921m6.141 0h2.456c.614 0 .921.307.921.921 0 .614-.307.921-.921.921h-2.456c-.614 0-.921-.307-.921-.921 0-.614.307-.921.921-.921m6.141 0h2.456c.614 0 .921.307.921.921 0 .614-.307.921-.921.921h-2.456c-.614 0-.921-.307-.921-.921 0-.614.307-.921.921-.921m6.141 0h2.456c.614 0 .921.307.921.921 0 .614-.307.921-.921.921h-2.456c-.615 0-.922-.307-.922-.921 0-.614.307-.921.922-.921m6.14 0h2.457c.614 0 .921.307.921.921 0 .614-.307.921-.921.921h-2.457c-.614 0-.921-.307-.921-.921 0-.614.307-.921.921-.921m6.141 0h2.456c.614 0 .922.307.922.921 0 .614-.308.921-.922.921h-2.456c-.614 0-.921-.307-.921-.921 0-.614.307-.921.921-.921m6.141 0h2.456c.614 0 .921.307.921.921 0 .614-.307.921-.921.921h-2.456c-.614 0-.921-.307-.921-.921 0-.614.307-.921.921-.921m6.141 0h2.456c.614 0 .921.307.921.921 0 .614-.307.921-.921.921h-2.456c-.614 0-.921-.307-.921-.921 0-.614.307-.921.921-.921m6.14 0h2.457c.614 0 .921.307.921.921 0 .614-.307.921-.921.921h-2.457c-.614 0-.921-.307-.921-.921 0-.614.307-.921.921-.921m6.141 0h2.456c.615 0 .922.307.922.921 0 .614-.307.921-.922.921h-2.456c-.614 0-.921-.307-.921-.921 0-.614.307-.921.921-.921m6.141 0h2.456c.614 0 .921.307.921.921 0 .614-.307.921-.921.921h-2.456c-.614 0-.921-.307-.921-.921 0-.614.307-.921.921-.921m6.141 0h2.456c.614 0 .921.307.921.921 0 .614-.307.921-.921.921h-2.456c-.614 0-.921-.307-.921-.921 0-.614.307-.921.921-.921m6.14 0h2.457c.614 0 .921.307.921.921 0 .614-.307.921-.921.921h-2.457c-.614 0-.921-.307-.921-.921 0-.614.307-.921.921-.921m6.141 0h2.457c.614 0 .921.307.921.921 0 .614-.307.921-.921.921h-2.457c-.614 0-.921-.307-.921-.921 0-.614.307-.921.921-.921m6.076-.047a11.57 11.57 0 0 0 2.229-.423c.589-.173.97.035 1.143.624.174.589-.034.97-.623 1.143-.845.249-1.707.413-2.585.491-.611.055-.944-.223-1-.835-.055-.612.224-.945.836-1m5.324-1.857a11.554 11.554 0 0 0 1.771-1.431c.438-.431.872-.428 1.303.01.431.437.428.871-.01 1.303a13.408 13.408 0 0 1-2.052 1.657c-.513.338-.939.25-1.276-.263-.337-.514-.249-.939.264-1.276m3.841-4.192c.202-.376.383-.762.543-1.159l.421-1.042c.23-.569.63-.739 1.199-.509.57.23.739.63.509 1.199l-.42 1.041c-.186.46-.396.908-.63 1.343-.291.541-.707.666-1.248.375-.54-.291-.665-.707-.374-1.248m2.345-5.617l.92-2.277c.23-.57.63-.739 1.199-.509.569.23.739.629.509 1.199l-.92 2.277c-.23.57-.63.739-1.199.509-.57-.23-.74-.63-.509-1.199m2.3-5.694l.921-2.277c.23-.569.629-.739 1.199-.509.569.23.739.63.509 1.199l-.921 2.278c-.23.569-.629.739-1.199.509-.569-.23-.739-.63-.509-1.2m2.301-5.693l.92-2.277c.23-.57.63-.739 1.199-.509.57.23.74.629.509 1.199l-.92 2.277c-.23.57-.63.739-1.199.509-.569-.23-.739-.63-.509-1.199m2.301-5.693l.92-2.278c.23-.569.63-.739 1.199-.509.569.23.739.63.509 1.199l-.92 2.278c-.23.569-.63.739-1.199.509-.57-.23-.739-.63-.509-1.199m2.3-5.694l.921-2.277c.23-.57.629-.739 1.199-.509.569.23.739.63.509 1.199l-.921 2.277c-.23.57-.629.739-1.199.509-.569-.23-.739-.63-.509-1.199m2.301-5.693l.92-2.278c.23-.569.63-.739 1.199-.509.57.23.74.63.509 1.199l-.92 2.278c-.23.569-.63.739-1.199.509-.569-.23-.739-.63-.509-1.199m2.301-5.694l.92-2.277c.23-.57.63-.739 1.199-.509.57.23.739.63.509 1.199l-.92 2.277c-.23.569-.63.739-1.199.509-.57-.23-.739-.63-.509-1.199" fill="#1f46e7" fill-rule="nonzero"/><path d="M586.03 115.28l5.058 26.27-25.22 3.086 14.516-28.823 5.646-.533z" fill="#fff" fill-rule="nonzero"/><path d="M534.218 109.829c0 21.997 17.832 39.83 39.83 39.83 21.998 0 39.83-17.833 39.83-39.83s-17.832-39.83-39.83-39.83c-21.997 0-39.83 17.833-39.83 39.83" fill="#4263eb" fill-rule="nonzero"/><path d="M524.953 107.222c0 20.014 16.225 36.239 36.239 36.239 20.015 0 36.24-16.225 36.24-36.239 0-20.014-16.225-36.239-36.24-36.239-20.014 0-36.239 16.225-36.239 36.239" fill="#4263eb" fill-rule="nonzero"/><path d="M590.429 128.989c-.94 11.759 7.831 22.054 19.59 22.994 11.759.94 22.054-7.831 22.994-19.59.94-11.759-7.831-22.054-19.59-22.994-11.759-.94-22.054 7.831-22.994 19.59" fill="#4263eb" fill-rule="nonzero"/><path d="M557.224 147.362c-.94 11.759 7.831 22.054 19.59 22.994 11.759.94 22.054-7.831 22.994-19.59.94-11.759-7.831-22.054-19.59-22.994-11.759-.94-22.054 7.831-22.994 19.59M505.746 131.109c-.94 11.759 7.831 22.054 19.59 22.994 11.759.94 22.054-7.831 22.994-19.59.94-11.759-7.831-22.054-19.59-22.994-11.759-.94-22.054 7.831-22.994 19.59" fill="#4263eb" fill-rule="nonzero"/><path d="M587.221 148.741c-.664 8.309 5.533 15.584 13.843 16.248 8.309.664 15.584-5.533 16.248-13.843.664-8.309-5.533-15.584-13.843-16.248-8.309-.664-15.584 5.534-16.248 13.843M523.692 148.525c-.783 9.8 6.526 18.379 16.326 19.163 9.8.783 18.379-6.526 19.162-16.326.784-9.8-6.526-18.38-16.325-19.163-9.8-.783-18.38 6.526-19.163 16.326" fill="#4263eb" fill-rule="nonzero"/><path d="M474.231 260.593c0 38.361 31.098 69.458 69.458 69.458 38.361 0 69.459-31.097 69.459-69.458s-31.098-69.458-69.459-69.458c-38.36 0-69.458 31.097-69.458 69.458" fill="#f2751c" fill-rule="nonzero"/><path d="M538.478 175.606s-118.294 47.691-125.299 44.24c-7.006-3.452-45.878-46.035-52.053-49.452-6.176-3.417-8.011 13.116-8.011 13.116s35.594 76.134 60.567 76.095c31.101-.049 120.368-37.629 120.368-37.629l4.428-46.37z" fill="#fff" fill-rule="nonzero"/><path d="M413.178 219.846a13.282 13.282 0 0 1-.214-.109c1.764 1.41 7.304 7.511 6.623 24.439-.414 10.278-5.905 15.429-5.905 15.429 31.1-.2 120.368-37.628 120.368-37.628l4.428-46.371s-118.294 47.691-125.3 44.24zm-.214-.109c-.297-.238-.488-.343-.522-.342-.038 0 .114.127.522.342z" fill="url(#_Linear1)" fill-rule="nonzero"/><path d="M619.576 230.894c1.648-13.511 7.574-25.492.449-36.094-7.427-11.05-25.365-18.92-39.204-22.043-3.638-.82-24.603 1.648-28.836 1.357-46.138-3.166-46.431 71.355-46.883 83.568-.453 12.213 6.526 98.344 3.618 117.606-2.649 17.551 92.094 9.112 106.068 8.805a1.235 1.235 0 0 0 1.196-1.431c-1.677-10.62-11.722-76.76-5.49-99.197 3.935-14.166 7.11-36.396 9.082-52.571" fill="#fecc4d" fill-rule="nonzero"/><path d="M575.694 138.28s-.756 19.239 4.255 37.286c1.592 5.732-33.138 16.162-32.208 8.917 4.141-32.275-3.286-53.792-3.286-53.792l31.239 7.589z" fill="#fff" fill-rule="nonzero"/><path d="M548.366 344.077s19.084 37.946 66.483 39.983c.708.03 1.275-.59 1.177-1.291-1.256-9.028-8.315-62.013-7.387-106.541 1.018-48.852-60.273 67.849-60.273 67.849" fill="#d3a644" fill-rule="nonzero"/><path d="M549.786 231.284l-74.22-24.353c-1.233-.405-2.505.505-2.477 1.772l2.7 122.184a1.835 1.835 0 0 0 1.288 1.698l74.22 23.903c1.231.396 2.495-.514 2.467-1.776l-2.7-121.733a1.834 1.834 0 0 0-1.278-1.695" fill="#fff" fill-rule="nonzero"/><path d="M526.001 214.043l-30.596-10.308c-3.909-1.317-7.94 1.645-7.852 5.769l1.271 59.02a8.504 8.504 0 0 0 5.832 7.892l27.153 8.979c5.576 1.844 11.299-2.386 11.172-8.258l-1.193-55.219a8.504 8.504 0 0 0-5.787-7.875" fill="#d9edf6" fill-rule="nonzero"/><path d="M546.833 230.289l-74.22-25.006a1.878 1.878 0 0 0-2.477 1.82l2.7 125.459a1.879 1.879 0 0 0 1.288 1.743l74.22 24.543a1.878 1.878 0 0 0 2.467-1.824l-2.7-124.996a1.878 1.878 0 0 0-1.278-1.739" fill="#4263eb" fill-rule="nonzero"/><path d="M546.9 230.357c-66.671-7.091-73.997 102.273-73.997 102.273a1.879 1.879 0 0 0 1.288 1.743l74.22 24.543a1.878 1.878 0 0 0 2.467-1.824l-2.7-124.996c-.017-.791-.491-1.655-1.278-1.739" fill="#3054e9" fill-rule="nonzero"/><path d="M615.424 206.343c-1.235-9.631-8.501-27.933-26.796-17.18-21.151 12.431-26.24 118.954-26.24 118.954l-63.961-38.65s-31.451-.082-19.041 7.948c12.411 8.03 77.079 83.671 93.14 81.116 16.06-2.556 52.555-76.895 42.898-152.188" fill="#fff" fill-rule="nonzero"/><path d="M587.379 188.533c-21.15 12.43-24.991 119.584-24.991 119.584s6.324-2.446 10.234 9.16c5.428 16.114.469 41.198.469 41.198 16.06-2.555 60.719-79.973 51.061-155.267-.942-7.346-11.201-18.281-24.134-18.282-4.021 0-8.299 1.057-12.639 3.607z" fill="url(#_Linear2)" fill-rule="nonzero"/><path d="M576.375 137.477s-2.267 10.886 2.4 33.386c0 0-32.067-5.136-30.702-17.895.858-8.02 28.302-15.491 28.302-15.491" fill="#eaeacd" fill-rule="nonzero"/><path d="M543.098 85.798s-16.343 19.192-16.056 47.013c.167 16.167 7.353 23.373 16.349 24.229 11.281 1.073 20.382-5.661 28.27-13.796 8.09-8.343 18.716-16.941 17.348-25.557-2.261-14.248-45.911-31.889-45.911-31.889" fill="#fff" fill-rule="nonzero"/><path d="M582.903 136.006l-18.535-5.824s11.976-15.662-.915-21.768c-12.891-6.106-28.43-7.35-24.359-18.885 4.071-11.534 39.738-4.862 49.689 9.386 9.952 14.248-5.88 37.091-5.88 37.091" fill="#4263eb" fill-rule="nonzero"/><path d="M563.283 133.236a8.82 8.82 0 0 0 8.82 8.82 8.82 8.82 0 1 0-8.82-8.82M498.529 279.749c-1.445-6.813-5.514-12.52-14.144-16.294l-16.853-6.532c-2.202-.85-4.503 1.474-3.787 3.83l4.221 13.95c.923 3.041 3.147 5.378 6.038 6.34l14.599 4.854 9.926-6.148z" fill="#fff" fill-rule="nonzero"/><path d="M499.524 270.533l-4.635-8.357a8.002 8.002 0 0 0-1.619-1.743l-6.382-5.081a1.208 1.208 0 0 0-1.415-.06l-.366.245a2.18 2.18 0 0 0-.497 3.171l3.645 4.654c.23.291.411.621.535.973l1.79 8.653 8.944-2.455z" fill="#fff" fill-rule="nonzero"/><path d="M329.307 4.416h121.648a2.872 2.872 0 0 1 2.871 2.871v83.275a2.872 2.872 0 0 1-2.871 2.872H329.307a2.871 2.871 0 0 1-2.871-2.872V7.287a2.871 2.871 0 0 1 2.871-2.871" fill="#96b7e1" fill-rule="nonzero"/><path d="M330.661.5H449.6a4.226 4.226 0 0 1 4.226 4.225v80.567a4.226 4.226 0 0 1-4.226 4.226H330.661a4.225 4.225 0 0 1-4.225-4.226V4.725A4.225 4.225 0 0 1 330.661.5" fill="#fff" fill-rule="nonzero"/><path d="M451.436 90.032a.5.5 0 0 1-.5-.5V3.19a2.196 2.196 0 0 0-.633-1.549A2.162 2.162 0 0 0 448.76 1H326.736c-.575 0-1.137.234-1.543.641a2.164 2.164 0 0 0-.633 1.546v33.447a.5.5 0 1 1-1 0V3.19a3.2 3.2 0 0 1 .924-2.254A3.196 3.196 0 0 1 326.736 0H448.76c.84 0 1.66.341 2.252.936.592.596.929 1.418.924 2.257v86.339a.5.5 0 0 1-.5.5" fill="#96b7e1" fill-rule="nonzero"/><path fill="#fecc4d" d="M339.982 30.832h11.632v43.622h-11.632zM405.732 36.144h11.632v38.56h-11.632z"/><path fill="#f2751c" d="M361.634 20.246h11.632v54.207h-11.632z"/><path fill="#96b7e1" d="M383.386 43.034h11.632v31.669h-11.632zM426.877 52.643h11.633v21.811h-11.633z"/><path d="M77.868 31.621h80.58a3.52 3.52 0 0 1 3.52 3.52v57.52a3.52 3.52 0 0 1-3.52 3.52h-80.58a3.52 3.52 0 0 1-3.52-3.52v-57.52a3.52 3.52 0 0 1 3.52-3.52" fill="#239b6a" fill-rule="nonzero"/><path d="M73.785 28.287h83.08a2.27 2.27 0 0 1 2.27 2.27v60.02a2.27 2.27 0 0 1-2.27 2.27h-83.08a2.27 2.27 0 0 1-2.27-2.27v-60.02a2.27 2.27 0 0 1 2.27-2.27" fill="#fff" fill-rule="nonzero"/><path d="M71.515 83.241a.5.5 0 0 1-.5-.5V30.784c.006-1.653 1.348-2.997 2.99-2.997h55.53a.5.5 0 0 1 0 1h-55.53a2.002 2.002 0 0 0-1.99 1.999v51.955a.5.5 0 0 1-.5.5M159.135 28.787h-14.1a.5.5 0 0 1 0-1h14.1a.5.5 0 0 1 0 1" fill="#239b6a" fill-rule="nonzero"/><path d="M104.725 72.027l-6.17 6.13c9.73 9.724 25.499 9.724 35.23 0l-6.16-6.16c-6.319 6.322-16.564 6.336-22.9.03" fill="#4ccd9b" fill-rule="nonzero"/><path d="M128.075 48.667l5.26-5.26a.64.64 0 0 0 0-.92 24.827 24.827 0 0 0-17.07-6.84v8.72a16.179 16.179 0 0 1 10.93 4.31.64.64 0 0 0 .88-.01M98.555 78.157l6.17-6.16a16.162 16.162 0 0 1-4.75-11.55h-8.72a24.852 24.852 0 0 0 7.3 17.71" fill="#239b6a" fill-rule="nonzero"/><path d="M104.725 49.157a16.15 16.15 0 0 1 11.53-4.74v-8.77a24.837 24.837 0 0 0-17.7 7.3l6.17 6.21z" fill="#4ccd9b" fill-rule="nonzero"/><path d="M127.635 72.027a16.152 16.152 0 0 0 4.74-11.05.49.49 0 0 1 .49-.49h7.73a.5.5 0 0 1 .5.51 24.852 24.852 0 0 1-7.31 17.16l-6.16-6.16.01.03z" fill="#239b6a" fill-rule="nonzero"/><path d="M91.254 60.528l8.721-.051a16.108 16.108 0 0 1 4.749-11.319l-6.17-6.16a24.835 24.835 0 0 0-7.3 17.53z" fill="url(#_Linear3)" fill-rule="nonzero"/><path d="M270.042 242.894h-161.25M270.042 227.179h-161.25M270.042 211.465h-161.25M270.042 195.751h-161.25M270.042 180.037h-161.25M270.042 164.322h-161.25M270.042 148.608h-161.25M270.042 132.894h-161.25" fill="none" stroke="#eaeacd" stroke-width="2"/><path d="M147.042 242.644L162.82 137.52a4.234 4.234 0 0 1 8.333-.289l3.809 17.299a6.738 6.738 0 0 0 12.101 2.42l2.434-3.493a8.127 8.127 0 0 1 13.448.193l50.686 77.239a20.493 20.493 0 0 0 17.134 9.255h7.137a20.629 20.629 0 0 0 18.399-11.249l27.794-55.438" fill="none" stroke="#f2751c" stroke-width="2" stroke-linecap="round"/><path d="M31.868 258.982c-11.952 6.082 25.461 59.744 38.385 103.804-13.95-15.912-34.177-38.897-41.513-32.868-7.056 7.143 20.562 35.344 34.459 61.104-9.619-5.799-23.444-13.561-25.92-10.361-3.872 6.171 9.955 10.75 12.995 22.897-9.529-5.039-21.252-13.614-23.886-6.666-1.468 5.393 11.015 10.237 14.887 23.887-1.998-1.326-4.223-2.83-6.666 0-5.595 6.479 14.596 27.185 87.105 9.795 28.853-6.92 39.789 0 39.789 0 6.507-23.71 16.85-56.985 6.737-60.345-10.45-2.546-16.213 12.306-21.217 25.85-7.833-38.968-27.988-99.878-42.134-95.033-13.879 4.348-3.147 41.602 5.694 69.573-22.431-49.391-54.309-112.482-74.823-112.476a9.297 9.297 0 0 0-3.892.839z" fill="url(#_Linear4)" fill-rule="nonzero"/><path d="M350.231 150.797l2.644 3.497-24.326 18.396-2.645-3.497 24.327-18.396z" fill="#4263eb"/><path d="M325.357 169.649l-1.399 3.895 4.042-.4-2.643-3.495z" fill="#4263eb" fill-rule="nonzero"/><path d="M343.812 165.863c-.187-.312-7.16-3.459-9.406-2-3.032 1.969-.313 4.188 5.5 8.844" fill="#fff" fill-rule="nonzero"/><path d="M369.725 347.634h83.191a3.576 3.576 0 0 1 3.576 3.576v61.533a3.576 3.576 0 0 1-3.576 3.577h-83.191a3.576 3.576 0 0 1-3.576-3.577V351.21a3.576 3.576 0 0 1 3.576-3.576" fill="#f2751c" fill-rule="nonzero"/><path d="M367.059 344.301h83.191a3.576 3.576 0 0 1 3.576 3.576v61.533a3.576 3.576 0 0 1-3.576 3.577h-83.191a3.576 3.576 0 0 1-3.576-3.577v-61.533a3.576 3.576 0 0 1 3.576-3.576" fill="#fff" fill-rule="nonzero"/><path d="M363.141 352.227v57.515a3.652 3.652 0 0 0 3.651 3.652h74.097" fill="none" stroke="#f2751c" stroke-width="1.5" stroke-linecap="round" stroke-linejoin="round"/><path d="M408.654 350.216v9.591c10.403 0 18.836 8.434 18.836 18.836 0 10.403-8.433 18.836-18.836 18.836v9.592c15.136-.774 27.011-13.272 27.011-28.428 0-15.155-11.875-27.653-27.011-28.427z" fill="#f2751c" fill-rule="nonzero"/><path d="M380.189 378.68h9.592a18.832 18.832 0 0 1 18.873-18.872v-9.592c-15.72 0-28.465 12.744-28.465 28.464z" fill="url(#_Linear5)" fill-rule="nonzero"/><path d="M408.654 359.808v-9.591c-15.72 0-28.464 12.744-28.464 28.464h9.591a18.835 18.835 0 0 1 18.873-18.873" fill="#ffc400" fill-rule="nonzero"/><path d="M380.226 378.64c.02 15.694 12.736 28.41 28.428 28.431v-9.595c-10.403 0-18.836-8.431-18.836-18.836h-9.592z" fill="url(#_Linear6)" fill-rule="nonzero"/><path d="M380.226 378.64c.02 15.694 12.736 28.41 28.428 28.431v-9.595c-10.403 0-18.836-8.431-18.836-18.836h-9.592z" fill="url(#_Linear7)" fill-rule="nonzero"/><path d="M380.226 378.64c.02 15.694 12.736 28.41 28.428 28.431v-9.595c-10.403 0-18.836-8.431-18.836-18.836h-9.592z" fill="url(#_Linear8)" fill-rule="nonzero"/><path d="M493.271 218.237c.481 1.331.134 2.676-.775 3.005-.909.328-2.036-.485-2.517-1.816-.481-1.331-.134-2.676.775-3.004.909-.329 2.036.484 2.517 1.815M520.521 226.612c.481 1.331.134 2.676-.775 3.005-.909.328-2.036-.485-2.517-1.816-.481-1.331-.134-2.676.775-3.004.909-.329 2.036.484 2.517 1.815" fill="#d9edf6" fill-rule="nonzero"/><path d="M407.765 137.772a4.227 4.227 0 1 1-8.454 0 4.227 4.227 0 0 1 8.454 0M292.873 295.073a4.398 4.398 0 1 1-8.796 0 4.398 4.398 0 0 1 8.796 0" fill="#fff" fill-rule="nonzero"/></g><defs><linearGradient id="_Linear1" x1="0" y1="0" x2="1" y2="0" gradientUnits="userSpaceOnUse" gradientTransform="translate(412.437 217.606) scale(126.041)"><stop offset="0" stop-color="#f8980f"/><stop offset=".01" stop-color="#f8980f"/><stop offset="1" stop-color="#fecc4d"/></linearGradient><linearGradient id="_Linear2" x1="0" y1="0" x2="1" y2="0" gradientUnits="userSpaceOnUse" gradientTransform="rotate(-90 475.962 -117.985) scale(165.333)"><stop offset="0" stop-color="#f8980f"/><stop offset=".01" stop-color="#f8980f"/><stop offset="1" stop-color="#fecc4d"/></linearGradient><linearGradient id="_Linear3" x1="0" y1="0" x2="1" y2="0" gradientUnits="userSpaceOnUse" gradientTransform="rotate(-90 79.23 -18.754) scale(17.53)"><stop offset="0" stop-color="#4ccd9b"/><stop offset="1" stop-color="#239b6a"/></linearGradient><linearGradient id="_Linear4" x1="0" y1="0" x2="1" y2="0" gradientUnits="userSpaceOnUse" gradientTransform="translate(26.269 347.757) scale(146.206)"><stop offset="0" stop-color="#239b6a"/><stop offset="1" stop-color="#4ccd9b"/></linearGradient><linearGradient id="_Linear5" x1="0" y1="0" x2="1" y2="0" gradientUnits="userSpaceOnUse" gradientTransform="translate(380.228 364.436) scale(56.8422)"><stop offset="0" stop-color="#ff9a01"/><stop offset="1" stop-color="#ffc400"/></linearGradient><linearGradient id="_Linear6" x1="0" y1="0" x2="1" y2="0" gradientUnits="userSpaceOnUse" gradientTransform="translate(380.226 392.849) scale(56.8422)"><stop offset="0" stop-color="#ff9a01"/><stop offset="1" stop-color="#ffc400"/></linearGradient><linearGradient id="_Linear7" x1="0" y1="0" x2="1" y2="0" gradientUnits="userSpaceOnUse" gradientTransform="translate(322.047 392.849) scale(86.606)"><stop offset="0" stop-color="#ff9a01"/><stop offset="1" stop-color="#ffc400"/></linearGradient><linearGradient id="_Linear8" x1="0" y1="0" x2="1" y2="0" gradientUnits="userSpaceOnUse" gradientTransform="translate(357.677 392.849) scale(50.976)"><stop offset="0" stop-color="#f2751c"/><stop offset="1" stop-color="#ffc400"/></linearGradient></defs></svg>