<svg viewBox="0 0 753 443" xmlns="http://www.w3.org/2000/svg" xmlns:serif="http://www.serif.com/" fill-rule="evenodd" clip-rule="evenodd" stroke-miterlimit="10"><g serif:id="Слой 1"><g opacity=".67"><clipPath id="a"><path clip-rule="nonzero" d="M0 261.122h644.15v181.513H0z"/></clipPath><g clip-path="url(#a)"><path d="M1.705 347.603s24.677-127.181 166.094-73.082c141.418 54.1 261.006 120.538 405.271 78.777 144.265-41.761 53.15 115.791-131.927 85.42-185.076-30.372-263.852-49.354-288.529-25.626-24.677 23.727-169.891 18.033-150.909-65.489" fill="#d9edf6"/></g></g><path d="M237.22 338.031H66.015a.738.738 0 1 1 0-1.477H237.22a.738.738 0 1 1 0 1.477" fill="#96b7e1" fill-rule="nonzero"/><path d="M67.995 337.292c0 3.447-1.724 5.171-5.171 5.171s-5.171-1.724-5.171-5.171 1.724-5.171 5.171-5.171 5.171 1.724 5.171 5.171M108.388 314.436c0 3.447-1.724 5.171-5.171 5.171s-5.171-1.724-5.171-5.171 1.724-5.171 5.171-5.171 5.171 1.724 5.171 5.171" fill="#96b7e1" fill-rule="nonzero"/><path d="M189.484 337.676a.736.736 0 0 1-.522-.216l-20.005-20.005a7.783 7.783 0 0 0-5.52-2.281h-56.055a.738.738 0 1 1 0-1.478h56.055a9.258 9.258 0 0 1 6.563 2.713l20.006 20.006a.738.738 0 0 1-.522 1.261" fill="#96b7e1" fill-rule="nonzero"/><path d="M178.226 326.418h-49.125a.739.739 0 1 1 0-1.477h49.125a.738.738 0 1 1 0 1.477M83.301 365.305a.739.739 0 1 1 0-1.477h41.456a5.565 5.565 0 0 0 3.91-1.647l13.017-13.015a4.712 4.712 0 0 1 3.348-1.384h77.621a.738.738 0 1 1 0 1.477h-77.618c-.873 0-1.69.338-2.308.953l-13.015 13.014a7.039 7.039 0 0 1-4.949 2.079H83.301z" fill="#96b7e1" fill-rule="nonzero"/><path d="M83.301 374.066a.739.739 0 1 1 0-1.477h42.846a5.571 5.571 0 0 0 3.91-1.645l23.093-22.947a.74.74 0 0 1 1.042 1.048L131.1 371.99a7.037 7.037 0 0 1-4.948 2.076H83.301zM86.448 364.492c0 1.97-.985 2.955-2.955 2.955-1.97 0-2.955-.985-2.955-2.955 0-1.97.985-2.955 2.955-2.955 1.97 0 2.955.985 2.955 2.955" fill="#96b7e1" fill-rule="nonzero"/><path d="M84.601 373.327c0 1.97-.985 2.955-2.955 2.955-1.97 0-2.955-.985-2.955-2.955 0-1.97.985-2.955 2.955-2.955 1.97 0 2.955.985 2.955 2.955" fill="#96b7e1" fill-rule="nonzero"/><path d="M725.645 110.254c.102 9.63-5.164 21.193-15.786 21.278-17.492-.958-32.637-17.373-29.961-34.604 4.393-16.971 22.937-19.095 37.133-4.804 4.407 4.696 7.622 11.098 8.614 18.13M684.618 55.406c.869 6.735-3.704 12.47-10.323 12.87-6.563.372-12.625-4.73-13.467-11.409-.842-6.679 3.814-12.386 10.35-12.814 6.536-.428 12.571 4.618 13.44 11.353" fill="#d9edf6" fill-rule="nonzero"/><g opacity=".67"><clipPath id="b"><path clip-rule="nonzero" d="M86.881 44.054h586.081v247.417H86.881z"/></clipPath><g clip-path="url(#b)"><path d="M138.635 50.033c-32.891 19.797-48.952 53.027-51.438 87.384-2.224 30.87 7.299 75.859 29.279 105.717 17.096 23.283 50.505 36.05 88.015 32.039 44.463-5.822 81.182-43.175 133.953-56.009a198.528 198.528 0 0 1 32.747-1.298c46.372 1.775 86.131 24.457 125.889 47.138 45.641 26.139 83.578 40.623 123.117 6.28 51.609-45.91 78.355-166.692 18.754-208.591-61.004-43.415-111.754 34.662-217.277 36.361-149.456 2.407-179.844-76.996-283.039-49.021" fill="#d9edf6" fill-rule="nonzero"/></g></g><g opacity=".67"><clipPath id="c"><path clip-rule="nonzero" d="M360.662 145.896h367.325v212.579H360.662z"/></clipPath><g clip-path="url(#c)"><path d="M362.051 323.875c-20.624-61.729 194.251 51.252 260.056-12.022 65.806-63.274 51.885-163.88 75.929-165.778 24.044-1.898 54.416 9.491-2.531 117.69-56.946 108.198-314.44 117.022-333.454 60.11" fill="#d9edf6" fill-rule="nonzero"/></g></g><g opacity=".67"><clipPath id="d"><path clip-rule="nonzero" d="M189.639 0h333.217v87.568H189.639z"/></clipPath><g clip-path="url(#d)"><path d="M206.887.045c-21.276-1.4-23.729 30.525-2.526 32.771 32.348 3.425 66.069 12.209 102.642 32.901 58.198 32.927 174.141 26.945 207.058-6.577 32.917-33.521-28.923-60.122-145.99-36.128C288.807 39.259 238.79 2.144 206.887.045" fill="#d9edf6" fill-rule="nonzero"/></g></g><path d="M658.193 110.69a14.549 14.549 0 0 1-10.445-4.452l-35.847-35.847a13.774 13.774 0 0 0-9.707-4.08h-39.229a.619.619 0 0 1 0-1.239h39.234a15.004 15.004 0 0 1 10.58 4.444l35.854 35.854a13.313 13.313 0 0 0 9.566 4.08l.128-.001h78.184a.62.62 0 1 1 0 1.24h-78.178l-.14.001M559.438 54.702a.62.62 0 0 1-.437-1.059l34.386-34.239c5.519-5.531 13.165-8.703 20.981-8.703h133.163a.619.619 0 1 1 0 1.239H614.369c-7.49 0-14.817 3.04-20.107 8.341l-34.387 34.241a.617.617 0 0 1-.437.18" fill="#96b7e1" fill-rule="nonzero"/><path d="M523.142 28.724c-4.899 0-9.677.951-14.203 2.825a36.969 36.969 0 0 0-12.042 8.045 36.957 36.957 0 0 0-8.044 12.041 36.924 36.924 0 0 0-2.826 14.203c0 4.898.951 9.677 2.826 14.203a36.925 36.925 0 0 0 8.044 12.041 36.964 36.964 0 0 0 12.042 8.045c9.051 3.75 19.353 3.75 28.405 0a36.903 36.903 0 0 0 12.04-8.045 36.91 36.91 0 0 0 8.046-12.041 36.927 36.927 0 0 0 2.825-14.203c0-4.899-.95-9.677-2.825-14.203a36.92 36.92 0 0 0-8.046-12.041 36.929 36.929 0 0 0-12.04-8.045 36.937 36.937 0 0 0-14.202-2.825m0 76.707a39.41 39.41 0 0 1-15.152-3.014 39.42 39.42 0 0 1-12.845-8.582 39.389 39.389 0 0 1-8.582-12.845 39.399 39.399 0 0 1-3.014-15.152 39.399 39.399 0 0 1 3.014-15.152 39.364 39.364 0 0 1 8.582-12.844 39.402 39.402 0 0 1 12.845-8.583c4.828-2 9.925-3.014 15.152-3.014a39.394 39.394 0 0 1 15.151 3.014c4.83 2 9.151 4.888 12.844 8.583a39.382 39.382 0 0 1 8.583 12.844c2 4.829 3.014 9.926 3.014 15.152a39.399 39.399 0 0 1-3.014 15.152 39.402 39.402 0 0 1-8.583 12.845 39.374 39.374 0 0 1-12.844 8.582 39.413 39.413 0 0 1-15.151 3.014" fill="#bdd1eb" fill-rule="nonzero"/><path d="M514.83 57.526c-2.296 2.296-3.444 5.066-3.444 8.312 0 3.246 1.148 6.017 3.444 8.313 2.295 2.295 5.065 3.443 8.311 3.443 3.246 0 6.018-1.148 8.313-3.443 2.296-2.296 3.444-5.067 3.444-8.313 0-3.246-1.148-6.016-3.444-8.312-2.295-2.296-5.067-3.444-8.313-3.444-3.246 0-6.016 1.148-8.311 3.444z" fill="url(#_Linear5)" fill-rule="nonzero"/><path d="M535.906 65.74c0 7.009-5.682 12.692-12.692 12.692-7.009 0-12.691-5.683-12.691-12.692s5.682-12.692 12.691-12.692c7.01 0 12.692 5.683 12.692 12.692" fill="#a0bde3" fill-rule="nonzero"/><path d="M523.142 41.918c-3.158 0-6.239.612-9.155 1.82a23.832 23.832 0 0 0-7.76 5.186 23.808 23.808 0 0 0-5.185 7.76 23.801 23.801 0 0 0-1.821 9.155c0 3.157.613 6.237 1.821 9.153a23.818 23.818 0 0 0 5.185 7.761 23.798 23.798 0 0 0 7.76 5.185 24.01 24.01 0 0 0 18.308 0 23.811 23.811 0 0 0 7.762-5.185 23.81 23.81 0 0 0 5.184-7.761 23.796 23.796 0 0 0 1.822-9.153c0-3.157-.613-6.237-1.822-9.155a23.784 23.784 0 0 0-5.184-7.76 23.851 23.851 0 0 0-7.762-5.186 23.794 23.794 0 0 0-9.153-1.82m0 49.081c-3.32 0-6.559-.645-9.629-1.916a25.03 25.03 0 0 1-8.162-5.453 25.073 25.073 0 0 1-5.454-8.163 25.03 25.03 0 0 1-1.915-9.628c0-3.322.644-6.562 1.915-9.629a25.027 25.027 0 0 1 5.454-8.162 25.035 25.035 0 0 1 8.162-5.455 25.285 25.285 0 0 1 19.257 0 25.05 25.05 0 0 1 8.163 5.455 25.03 25.03 0 0 1 5.453 8.162 25.04 25.04 0 0 1 1.916 9.629c0 3.319-.645 6.558-1.916 9.628a25.013 25.013 0 0 1-5.453 8.163 25.044 25.044 0 0 1-8.163 5.453 25.045 25.045 0 0 1-9.628 1.916M484.788 66.458h-54.665a.619.619 0 0 1 0-1.24h54.665a.62.62 0 1 1 0 1.24" fill="#96b7e1" fill-rule="nonzero"/><path d="M434.973 65.838c0 2.07-.732 3.836-2.195 5.299-1.464 1.464-3.23 2.195-5.299 2.195-2.07 0-3.836-.731-5.3-2.195-1.463-1.463-2.195-3.229-2.195-5.299 0-2.069.732-3.836 2.195-5.299 1.464-1.464 3.23-2.195 5.3-2.195 2.069 0 3.835.731 5.299 2.195 1.463 1.463 2.195 3.23 2.195 5.299M721.081 122.004H610.43a14.629 14.629 0 0 1-10.286-4.297l-9.844-9.845a.62.62 0 1 1 .877-.876l9.845 9.846a13.387 13.387 0 0 0 9.409 3.933h110.65a.619.619 0 1 1 0 1.239M729.751 133.76h-93.606a.619.619 0 0 1 0-1.24h93.606a.62.62 0 1 1 0 1.24" fill="#96b7e1" fill-rule="nonzero"/><path d="M598.232 107.425c0 2.07-.732 3.836-2.195 5.299-1.464 1.464-3.23 2.195-5.299 2.195-2.07 0-3.836-.731-5.3-2.195-1.463-1.463-2.195-3.229-2.195-5.299 0-2.07.732-3.836 2.195-5.299 1.464-1.464 3.23-2.195 5.3-2.195 2.069 0 3.835.731 5.299 2.195 1.463 1.463 2.195 3.229 2.195 5.299M482.929 103.08H179.84a.619.619 0 0 1 0-1.239h303.089a.619.619 0 1 1 0 1.239" fill="#96b7e1" fill-rule="nonzero"/><path d="M182.632 102.46c0 1.988-.703 3.685-2.109 5.092-1.406 1.405-3.103 2.108-5.092 2.108-1.988 0-3.685-.703-5.091-2.108-1.406-1.407-2.109-3.104-2.109-5.092 0-1.988.703-3.686 2.109-5.092 1.406-1.405 3.103-2.108 5.091-2.108 1.989 0 3.686.703 5.092 2.108 1.406 1.406 2.109 3.104 2.109 5.092M352.65 102.639a.617.617 0 0 1-.438-.182l-27.92-27.92a11.723 11.723 0 0 0-8.092-3.345h-78.463a.62.62 0 1 1 0-1.24h78.47a12.958 12.958 0 0 1 8.956 3.704l27.925 27.925a.62.62 0 0 1-.438 1.058M642.541 216.671a20.621 20.621 0 0 1-14.654-6.058l-49.815-49.817c-3.629-3.657-8.686-5.757-13.811-5.696h-54.67a.62.62 0 0 1 0-1.24h54.665c5.496-.073 10.833 2.169 14.693 6.061l49.815 49.814a19.383 19.383 0 0 0 13.778 5.697h108.926a.619.619 0 1 1 0 1.239H642.541zM400.85 154.952h-76.12a.619.619 0 0 1 0-1.239h76.12a.619.619 0 1 1 0 1.239" fill="#96b7e1" fill-rule="nonzero"/><path d="M342.848 273.301a51.826 51.826 0 0 0-19.938 3.967 51.828 51.828 0 0 0-16.904 11.294 51.874 51.874 0 0 0-11.295 16.903 51.854 51.854 0 0 0-3.965 19.938 51.86 51.86 0 0 0 3.965 19.94 51.895 51.895 0 0 0 11.295 16.903 51.844 51.844 0 0 0 16.904 11.294 51.845 51.845 0 0 0 19.938 3.967 51.838 51.838 0 0 0 19.938-3.967 51.813 51.813 0 0 0 16.904-11.294 51.848 51.848 0 0 0 11.295-16.903 51.876 51.876 0 0 0 3.966-19.94 51.866 51.866 0 0 0-3.966-19.938 51.827 51.827 0 0 0-11.295-16.903 51.818 51.818 0 0 0-16.904-11.294 51.819 51.819 0 0 0-19.938-3.967m0 106.684a54.301 54.301 0 0 1-20.887-4.155 54.321 54.321 0 0 1-17.708-11.831 54.346 54.346 0 0 1-11.832-17.707 54.336 54.336 0 0 1-4.154-20.889 54.326 54.326 0 0 1 4.154-20.887 54.325 54.325 0 0 1 11.832-17.707 54.334 54.334 0 0 1 17.708-11.832 54.301 54.301 0 0 1 20.887-4.155 54.29 54.29 0 0 1 20.887 4.155 54.303 54.303 0 0 1 17.708 11.832 54.277 54.277 0 0 1 11.832 17.707 54.32 54.32 0 0 1 4.155 20.887 54.33 54.33 0 0 1-4.155 20.889 54.299 54.299 0 0 1-11.832 17.707 54.3 54.3 0 0 1-17.708 11.831 54.29 54.29 0 0 1-20.887 4.155" fill="#a0bde3" fill-rule="nonzero"/><path d="M359.518 325.361c0 9.022-7.314 16.336-16.336 16.336-9.022 0-16.335-7.314-16.335-16.336 0-9.022 7.313-16.336 16.335-16.336 9.022 0 16.336 7.314 16.336 16.336" fill="#a0bde3" fill-rule="nonzero"/><path d="M342.848 291.932c-4.419 0-8.728.857-12.809 2.548a33.315 33.315 0 0 0-10.859 7.255 33.302 33.302 0 0 0-7.256 10.859 33.318 33.318 0 0 0-2.547 12.809c0 4.419.857 8.729 2.547 12.81a33.281 33.281 0 0 0 7.256 10.859 33.336 33.336 0 0 0 10.859 7.257c8.166 3.383 17.455 3.38 25.618 0a33.34 33.34 0 0 0 10.86-7.257 33.305 33.305 0 0 0 7.255-10.859 33.313 33.313 0 0 0 2.548-12.81c0-4.417-.857-8.726-2.548-12.809a33.315 33.315 0 0 0-7.255-10.859 33.298 33.298 0 0 0-10.86-7.255 33.278 33.278 0 0 0-12.809-2.548m0 68.184c-4.58 0-9.049-.888-13.283-2.642a34.587 34.587 0 0 1-11.261-7.526 34.532 34.532 0 0 1-7.525-11.26 34.547 34.547 0 0 1-2.642-13.285c0-4.581.889-9.05 2.642-13.283a34.526 34.526 0 0 1 7.525-11.261 34.534 34.534 0 0 1 11.261-7.524c8.464-3.509 18.107-3.508 26.566 0a34.538 34.538 0 0 1 11.262 7.524 34.518 34.518 0 0 1 7.524 11.261 34.534 34.534 0 0 1 2.643 13.283c0 4.58-.889 9.051-2.643 13.285a34.514 34.514 0 0 1-7.524 11.26 34.549 34.549 0 0 1-11.262 7.526 34.522 34.522 0 0 1-13.283 2.642M331.344 154.333c0 2.881-1.019 5.34-3.056 7.378-2.037 2.037-4.496 3.055-7.377 3.055-2.882 0-5.341-1.018-7.378-3.055-2.037-2.038-3.055-4.497-3.055-7.378 0-2.881 1.018-5.34 3.055-7.377 2.037-2.038 4.496-3.056 7.378-3.056 2.881 0 5.34 1.018 7.377 3.056 2.037 2.037 3.056 4.496 3.056 7.377M650.014 200.359c-7.033 0-13.916-2.849-18.894-7.823l-46.436-46.435a25.88 25.88 0 0 0-18.08-7.46h-38.203a.62.62 0 1 1 0-1.239h38.206a27.12 27.12 0 0 1 18.95 7.819l46.44 46.439c4.746 4.742 11.311 7.459 18.018 7.459h37.97a.62.62 0 1 1 0 1.24h-37.971zM730.161 232.395H576.013a20.077 20.077 0 0 1-14.252-5.913l-13.813-13.814a.62.62 0 1 1 .876-.876l13.813 13.814a18.853 18.853 0 0 0 13.377 5.55h154.147a.619.619 0 1 1 0 1.239M336.781 86.916h-68.625a.619.619 0 0 1 0-1.24h68.625a.62.62 0 1 1 0 1.24" fill="#96b7e1" fill-rule="nonzero"/><path d="M558.819 212.23c0 2.881-1.019 5.34-3.056 7.377-2.037 2.038-4.496 3.056-7.377 3.056-2.882 0-5.34-1.018-7.378-3.056-2.037-2.037-3.055-4.496-3.055-7.377 0-2.881 1.018-5.34 3.055-7.377 2.038-2.038 4.496-3.056 7.378-3.056 2.881 0 5.34 1.018 7.377 3.056 2.037 2.037 3.056 4.496 3.056 7.377M203.939 141.286a.62.62 0 1 1 0-1.24h57.898a8.466 8.466 0 0 0 5.882-2.465l18.22-18.22a6.273 6.273 0 0 1 4.406-1.797H398.94a.619.619 0 0 1 0 1.239H290.345a5.032 5.032 0 0 0-3.535 1.44l-18.217 18.217a9.713 9.713 0 0 1-6.749 2.826h-57.905z" fill="#96b7e1" fill-rule="nonzero"/><path d="M204.087 153.63a.62.62 0 1 1 0-1.24h59.954a8.478 8.478 0 0 0 5.883-2.465l32.18-32.18a.62.62 0 1 1 .876.877l-32.182 32.182a9.724 9.724 0 0 1-6.748 2.826h-59.963zM270.384 27.549h-24.271a.619.619 0 0 1 0-1.239h24.247c.52-.01 1.084-.2 1.491-.572l5.418-5.418a.62.62 0 1 1 .876.876l-5.437 5.437a3.41 3.41 0 0 1-2.324.916M208.495 140.52c0 2.743-1.371 4.115-4.115 4.115-2.742 0-4.114-1.372-4.114-4.115 0-2.743 1.372-4.114 4.114-4.114 2.744 0 4.115 1.371 4.115 4.114" fill="#96b7e1" fill-rule="nonzero"/><path d="M205.85 152.864c0 2.743-1.371 4.114-4.115 4.114-2.742 0-4.114-1.371-4.114-4.114s1.372-4.115 4.114-4.115c2.744 0 4.115 1.372 4.115 4.115M566.492 66.458a.62.62 0 0 1-.438-1.058l32.769-32.77a28.243 28.243 0 0 1 19.685-8.116h129.023a.62.62 0 1 1 0 1.24H618.512a27.01 27.01 0 0 0-18.818 7.757L566.93 66.276a.617.617 0 0 1-.438.182M636.292 133.141c0 2.841-1.42 4.261-4.261 4.261s-4.262-1.42-4.262-4.261 1.421-4.262 4.262-4.262c2.841 0 4.261 1.421 4.261 4.262M384.565 357.94h84.228a14.631 14.631 0 0 1 10.287 4.297l9.843 9.845a.62.62 0 1 1-.876.876l-9.846-9.846a13.387 13.387 0 0 0-9.409-3.933h-84.227a.619.619 0 1 1 0-1.239M392.232 346.184h50.846a.62.62 0 1 1 0 1.239h-50.846a.619.619 0 1 1 0-1.239" fill="#96b7e1" fill-rule="nonzero"/><path d="M480.991 372.52c0-2.07.732-3.836 2.195-5.299 1.464-1.464 3.23-2.195 5.299-2.195 2.07 0 3.836.731 5.3 2.195 1.463 1.463 2.195 3.229 2.195 5.299 0 2.07-.732 3.836-2.195 5.299-1.464 1.464-3.23 2.195-5.3 2.195-2.069 0-3.835-.731-5.299-2.195-1.463-1.463-2.195-3.229-2.195-5.299M442.932 346.803c0-2.841 1.42-4.261 4.261-4.261s4.262 1.42 4.262 4.261-1.421 4.262-4.262 4.262c-2.841 0-4.261-1.421-4.261-4.262M95.052 77.364a61.095 61.095 0 0 0-23.495 4.673 61.08 61.08 0 0 0-19.916 13.308 61.087 61.087 0 0 0-13.309 19.918 61.074 61.074 0 0 0-4.673 23.493 61.083 61.083 0 0 0 4.673 23.494 61.093 61.093 0 0 0 13.309 19.917 61.065 61.065 0 0 0 19.916 13.308 61.096 61.096 0 0 0 23.495 4.674 61.083 61.083 0 0 0 23.493-4.674 61.038 61.038 0 0 0 19.917-13.308 61.093 61.093 0 0 0 13.309-19.917 61.108 61.108 0 0 0 4.672-23.494 61.103 61.103 0 0 0-4.672-23.493 61.087 61.087 0 0 0-13.309-19.918 61.053 61.053 0 0 0-19.917-13.308 61.082 61.082 0 0 0-23.493-4.673m0 124.024a62.322 62.322 0 0 1-23.969-4.768 62.317 62.317 0 0 1-20.319-13.576 62.329 62.329 0 0 1-13.577-20.32 62.302 62.302 0 0 1-4.768-23.968 62.31 62.31 0 0 1 4.768-23.968 62.325 62.325 0 0 1 13.577-20.319 62.304 62.304 0 0 1 20.319-13.577 62.322 62.322 0 0 1 23.969-4.768c8.266 0 16.33 1.604 23.968 4.768a62.278 62.278 0 0 1 20.318 13.577 62.312 62.312 0 0 1 13.578 20.319 62.335 62.335 0 0 1 4.767 23.968c0 8.266-1.604 16.33-4.767 23.968a62.316 62.316 0 0 1-13.578 20.32 62.291 62.291 0 0 1-20.318 13.576 62.317 62.317 0 0 1-23.968 4.768" fill="#96b7e1" fill-rule="nonzero"/><path d="M22.164 108.517a.619.619 0 0 1-.571-.859c12.427-29.69 41.253-48.873 73.436-48.873l.473-.001a77.684 77.684 0 0 1 23.245 3.555.62.62 0 0 1-.37 1.184c-7.556-2.368-15.437-3.566-23.323-3.499h-.022c-31.688 0-60.06 18.882-72.297 48.113a.619.619 0 0 1-.571.38M94.99 218.581c-21.306 0-41.333-8.295-56.402-23.363-15.082-15.082-23.378-35.134-23.362-56.462a.62.62 0 1 1 1.239 0c-.016 20.998 8.153 40.739 23 55.586 14.834 14.833 34.552 22.999 55.525 22.999h.061a.62.62 0 0 1 .619.62c0 .361-.318.615-.68.62M160.149 196.507c0 1.704-.602 3.159-1.808 4.364-1.205 1.205-2.659 1.808-4.364 1.808-1.704 0-3.159-.603-4.364-1.808s-1.807-2.66-1.807-4.364c0-1.704.602-3.159 1.807-4.364s2.66-1.808 4.364-1.808c1.705 0 3.159.603 4.364 1.808 1.206 1.205 1.808 2.66 1.808 4.364" fill="#96b7e1" fill-rule="nonzero"/><path d="M12.466 225.929a.62.62 0 0 1-.438-1.058L52.88 184.02a.62.62 0 1 1 .876.876l-40.852 40.851a.617.617 0 0 1-.438.182M136.784 93.528a.62.62 0 0 1-.438-1.058l23.511-23.511a15.543 15.543 0 0 1 11.017-4.59h37.033a.619.619 0 1 1 0 1.239h-37.031a14.314 14.314 0 0 0-10.142 4.227l-23.512 23.511a.617.617 0 0 1-.438.182" fill="#96b7e1" fill-rule="nonzero"/><path d="M128.996 87.21a.62.62 0 0 1-.438-1.058l27.479-27.479c2.747-2.858 6.578-4.503 10.583-4.444h39.229a.62.62 0 1 1 0 1.24h-39.235c-3.66-.091-7.173 1.449-9.692 4.072l-27.488 27.487a.617.617 0 0 1-.438.182M201.883 45.182h-27.774a.619.619 0 0 1 0-1.24h27.774a.62.62 0 1 1 0 1.24M267.568 185.078H136.784a.62.62 0 1 1 0-1.24h130.784a.62.62 0 1 1 0 1.24" fill="#96b7e1" fill-rule="nonzero"/><path d="M192.06 196.98h-34.997a.62.62 0 1 1 0-1.24h34.995a3.909 3.909 0 0 0 2.774-1.142l10.579-10.578a.62.62 0 0 1 .877.876l-10.581 10.579a5.139 5.139 0 0 1-3.647 1.505M176.313 44.563c0 1.704-.603 3.159-1.808 4.364s-2.659 1.808-4.364 1.808c-1.704 0-3.159-.603-4.364-1.808s-1.807-2.66-1.807-4.364c0-1.704.602-3.159 1.807-4.364s2.66-1.808 4.364-1.808c1.705 0 3.159.603 4.364 1.808s1.808 2.66 1.808 4.364M122.236 63.078c0 2.351-1.175 3.527-3.527 3.527-2.351 0-3.526-1.176-3.526-3.527s1.175-3.527 3.526-3.527c2.352 0 3.527 1.176 3.527 3.527M98.578 217.962c0 2.351-1.175 3.527-3.527 3.527-2.351 0-3.526-1.176-3.526-3.527s1.175-3.527 3.526-3.527c2.352 0 3.527 1.176 3.527 3.527M25.691 121.123c0 2.351-1.175 3.527-3.527 3.527-2.351 0-3.526-1.176-3.526-3.527s1.175-3.527 3.526-3.527c2.352 0 3.527 1.176 3.527 3.527M19.373 138.756c0 2.351-1.175 3.527-3.527 3.527-2.351 0-3.526-1.176-3.526-3.527s1.175-3.527 3.526-3.527c2.352 0 3.527 1.176 3.527 3.527M18.638 225.309c0 1.704-.603 3.159-1.808 4.364s-2.66 1.808-4.364 1.808c-1.704 0-3.159-.603-4.364-1.808s-1.808-2.66-1.808-4.364c0-1.704.603-3.159 1.808-4.364s2.66-1.808 4.364-1.808c1.704 0 3.159.603 4.364 1.808s1.808 2.66 1.808 4.364M95.051 106.603c-4.244 0-8.384.824-12.305 2.448a31.97 31.97 0 0 0-10.431 6.969 31.991 31.991 0 0 0-6.971 10.432 31.993 31.993 0 0 0-2.447 12.305c0 4.244.823 8.384 2.447 12.304a31.98 31.98 0 0 0 6.971 10.432 31.99 31.99 0 0 0 10.431 6.97 31.998 31.998 0 0 0 12.305 2.448c4.244 0 8.383-.824 12.305-2.448a31.99 31.99 0 0 0 10.431-6.97 31.994 31.994 0 0 0 6.97-10.432 31.992 31.992 0 0 0 2.447-12.304c0-4.244-.823-8.384-2.447-12.305a32.004 32.004 0 0 0-6.97-10.432 31.97 31.97 0 0 0-10.431-6.969 32.002 32.002 0 0 0-12.305-2.448m0 64.957c-4.329 0-8.553-.84-12.554-2.497a32.631 32.631 0 0 1-10.641-7.111 32.625 32.625 0 0 1-7.111-10.642 32.618 32.618 0 0 1-2.498-12.553c0-4.33.84-8.554 2.498-12.553a32.64 32.64 0 0 1 7.111-10.643 32.628 32.628 0 0 1 10.641-7.11 32.648 32.648 0 0 1 12.554-2.497c4.329 0 8.553.84 12.553 2.497s7.581 4.049 10.642 7.11a32.655 32.655 0 0 1 7.111 10.643c1.656 4 2.496 8.224 2.496 12.553 0 4.329-.84 8.553-2.496 12.553a32.64 32.64 0 0 1-7.111 10.642 32.63 32.63 0 0 1-10.642 7.111 32.64 32.64 0 0 1-12.553 2.497" fill="#96b7e1" fill-rule="nonzero"/><path d="M95.051 106.603c-4.244 0-8.384.824-12.305 2.448a31.97 31.97 0 0 0-10.431 6.969 31.991 31.991 0 0 0-6.971 10.432 31.993 31.993 0 0 0-2.447 12.305c0 4.244.823 8.384 2.447 12.304a31.98 31.98 0 0 0 6.971 10.432 31.99 31.99 0 0 0 10.431 6.97 31.998 31.998 0 0 0 12.305 2.448c4.244 0 8.383-.824 12.305-2.448a31.99 31.99 0 0 0 10.431-6.97 31.994 31.994 0 0 0 6.97-10.432 31.992 31.992 0 0 0 2.447-12.304c0-4.244-.823-8.384-2.447-12.305a32.004 32.004 0 0 0-6.97-10.432 31.97 31.97 0 0 0-10.431-6.969 32.002 32.002 0 0 0-12.305-2.448zm0 64.957c-4.329 0-8.553-.84-12.554-2.497a32.631 32.631 0 0 1-10.641-7.111 32.625 32.625 0 0 1-7.111-10.642 32.618 32.618 0 0 1-2.498-12.553c0-4.33.84-8.554 2.498-12.553a32.64 32.64 0 0 1 7.111-10.643 32.628 32.628 0 0 1 10.641-7.11 32.648 32.648 0 0 1 12.554-2.497c4.329 0 8.553.84 12.553 2.497s7.581 4.049 10.642 7.11a32.655 32.655 0 0 1 7.111 10.643c1.656 4 2.496 8.224 2.496 12.553 0 4.329-.84 8.553-2.496 12.553a32.64 32.64 0 0 1-7.111 10.642 32.63 32.63 0 0 1-10.642 7.111 32.64 32.64 0 0 1-12.553 2.497z" fill="none" stroke="#96b7e1"/><path d="M180.138 15.889c0 8.387-6.799 15.186-15.186 15.186s-15.186-6.799-15.186-15.186S156.565.703 164.952.703s15.186 6.799 15.186 15.186" fill="#d9edf6" fill-rule="nonzero" opacity=".67"/><path d="M281.943 38.52c0 4.688-.897 9.198-2.691 13.529a35.012 35.012 0 0 1-7.664 11.47 35.015 35.015 0 0 1-11.469 7.663 35.005 35.005 0 0 1-13.53 2.692 35 35 0 0 1-13.529-2.692 35.015 35.015 0 0 1-11.469-7.663 35.012 35.012 0 0 1-7.664-11.47 35.017 35.017 0 0 1-2.691-13.529c0-4.688.897-9.198 2.691-13.529a35.012 35.012 0 0 1 7.664-11.47 35.034 35.034 0 0 1 11.469-7.664 35.017 35.017 0 0 1 13.529-2.691c4.689 0 9.198.897 13.53 2.691a35.034 35.034 0 0 1 11.469 7.664 35.012 35.012 0 0 1 7.664 11.47 35.017 35.017 0 0 1 2.691 13.529" fill="#fff" fill-rule="nonzero" opacity=".97"/><g opacity=".31"><clipPath id="e"><path clip-rule="nonzero" d="M211.236 38.521h54.462V73.88h-54.462z"/></clipPath><g clip-path="url(#e)"><path d="M265.698 68.271a35.354 35.354 0 0 1-54.462-29.75c17.199 0 43.043 10.641 54.462 29.75" fill="#d9edf6" fill-rule="nonzero"/></g></g><path d="M245.564 25.952l-10.606 7.708a1.766 1.766 0 0 0-.637 1.944l4.048 12.463a1.77 1.77 0 0 0 1.769 1.202h13.008a1.768 1.768 0 0 0 1.662-1.202l4.049-12.463a1.766 1.766 0 0 0-.637-1.944l-10.606-7.708a1.764 1.764 0 0 0-2.05 0z" fill="url(#_Linear7)" fill-rule="nonzero"/><path d="M251.981 9.85c-.073.463.163.92.583 1.13l12.586 6.328c.411.206.909.129 1.236-.193l4.368-4.419a36.022 36.022 0 0 0-8.273-5.782 35.06 35.06 0 0 0-9.563-3.198l-.937 6.134z" fill="url(#_Linear8)" fill-rule="nonzero"/><path d="M215.495 21.711l5.516 2.881c.412.213.917.126 1.237-.212l9.917-10.005a1.08 1.08 0 0 0 .177-1.29l-2.812-5.516a35.196 35.196 0 0 0-14.035 14.142z" fill="url(#_Linear9)" fill-rule="nonzero"/><path d="M217.988 44.195l-6.134 1.006a35.477 35.477 0 0 0 9.139 17.679l4.366-4.402c.33-.334.409-.841.195-1.257l-6.453-12.513a1.095 1.095 0 0 0-1.113-.513z" fill="url(#_Linear10)" fill-rule="nonzero"/><path d="M257.937 64.311l-13.894 2.263a1.06 1.06 0 0 0-.883.902l-.955 6.133a35.34 35.34 0 0 0 19.691-3.234l-2.845-5.515a1.024 1.024 0 0 0-1.114-.549z" fill="url(#_Linear11)" fill-rule="nonzero"/><path d="M275.49 34.792c-.448.09-.795.449-.867.902l-2.139 13.928c-.067.453.159.902.567 1.114l5.55 2.775a35.137 35.137 0 0 0 3.022-19.708l-6.133.989z" fill="url(#_Linear12)" fill-rule="nonzero"/><path d="M273.767 122.924c-3.512 0-6.353 2.118-6.353 4.742v182.055c0 2.622 2.841 4.743 6.353 4.743H584.4c3.511 0 6.353-2.162 6.301-4.783V127.666c0-2.624-2.84-4.742-6.352-4.742H273.767z" fill="url(#_Linear13)" fill-rule="nonzero"/><path d="M574.074 304.137H263.439c-3.511 0-6.351-2.087-6.351-4.668V120.306c0-2.58 2.84-4.668 6.351-4.668h310.583c3.512 0 6.351 2.088 6.351 4.668v179.125c.052 2.581-2.788 4.706-6.299 4.706" fill="#fff" fill-rule="nonzero"/><path d="M412.761 115.126h163.002c3.548 0 6.418 2.84 6.418 6.351v10.843M386.743 305.945H263.439a6.347 6.347 0 0 1-6.351-6.351v-14.458M257.088 228.027V121.529a6.347 6.347 0 0 1 6.351-6.351h125.369" fill="none" stroke="#1f46e7" stroke-width="3" stroke-linecap="round" stroke-linejoin="round"/><path fill="#eaeacd" d="M283.421 153.725h233.751v5.163H283.421zM283.421 166.634h278.725v5.163H283.421zM283.421 179.542h197.142v5.163H283.421zM283.421 192.451h233.751v5.163H283.421zM283.421 205.36h254.302v5.163H283.421zM283.421 218.268h212.632v5.163H283.421zM283.421 231.177h278.725v5.163H283.421zM283.421 244.086h233.751v5.163H283.421z"/><path d="M100.975 269.943l34.067-36.021a3.815 3.815 0 0 1 5.391-.152l4.055-4.284 2.348-2.483c-6.14-6.926-9.628-15.696-9.889-25.061-.293-10.551 3.539-20.586 10.793-28.255 7.54-7.973 17.739-12.366 28.718-12.366a39.357 39.357 0 0 1 27.148 10.808c15.832 14.974 16.532 40.036 1.558 55.867-7.541 7.975-17.741 12.367-28.718 12.367-9 0-17.605-3.031-24.579-8.586l-6.396 6.76.254.237a3.817 3.817 0 0 1 .151 5.392l-34.068 36.023a3.815 3.815 0 0 1-5.393.15l-5.29-5.003a3.812 3.812 0 0 1-.15-5.393" fill="#fff" fill-rule="nonzero"/><path d="M553.387 267.99c-6.679 2.774-12.576 6.705-17.69 11.825a53.997 53.997 0 0 0-11.819 17.69 53.991 53.991 0 0 0-4.149 20.865 54.046 54.046 0 0 0 4.149 20.865 54.03 54.03 0 0 0 11.819 17.688c5.114 5.108 11.011 9.052 17.69 11.816a53.93 53.93 0 0 0 20.865 4.155 53.93 53.93 0 0 0 20.865-4.155 54.012 54.012 0 0 0 17.688-11.816 53.953 53.953 0 0 0 11.819-17.688 54.012 54.012 0 0 0 4.152-20.865 53.957 53.957 0 0 0-4.152-20.865 53.92 53.92 0 0 0-11.819-17.69c-5.112-5.12-11.008-9.051-17.688-11.825a54.124 54.124 0 0 0-20.865-4.146 54.124 54.124 0 0 0-20.865 4.146z" fill="url(#_Linear14)" fill-rule="nonzero"/><path d="M551.194 335.841l24.839 10.314a5.567 5.567 0 0 1 3.006 7.276l-.728 1.753-35.062-14.559.728-1.753a5.565 5.565 0 0 1 7.276-3.006l-.059-.025z" fill="#fff" fill-rule="nonzero"/><path d="M578.331 355.171l-35.121-14.583 1.276-3.073 35.121 14.583-1.276 3.073z" fill="#d9edf6"/><path d="M553.678 333.262l22.416 9.308a2.133 2.133 0 0 1 1.152 2.788l-.434 1.044-26.414-10.969.433-1.044a2.136 2.136 0 0 1 2.847-1.127" fill="#d9edf6" fill-rule="nonzero"/><path d="M576.168 342.542l-22.502-9.342a89.888 89.888 0 0 0 15.89-20.837l10.152 4.265a68.014 68.014 0 0 0-3.54 25.914" fill="#fff" fill-rule="nonzero"/><path d="M568.325 311.039l.242-.583c.206-.495.556-.64 1.051-.434l11.712 4.863c.495.206.64.556.435 1.051l-.242.583c-.206.495-.556.64-1.052.435l-11.712-4.864c-.495-.205-.64-.556-.434-1.051" fill="#d9edf6" fill-rule="nonzero"/><path d="M572.082 301.994l.242-.583c.206-.495.556-.64 1.051-.434l11.712 4.863c.495.206.64.556.435 1.051l-.242.583c-.206.495-.556.64-1.052.435l-11.712-4.864c-.495-.205-.64-.556-.434-1.051" fill="#fff" fill-rule="nonzero"/><path d="M580.916 312.266l-9.16-3.803 2.037-4.906 9.159 3.804-2.036 4.905z" fill="#d9edf6"/><path d="M588.965 286.833c0 1.905-.953 2.858-2.858 2.858-1.905 0-2.858-.953-2.858-2.858 0-1.905.953-2.858 2.858-2.858 1.905 0 2.858.953 2.858 2.858" fill="#d9edf6" fill-rule="nonzero"/><path d="M589.583 294.34c0 1.82-.643 3.373-1.93 4.66s-2.84 1.931-4.66 1.931c-1.82 0-3.374-.644-4.661-1.931-1.286-1.287-1.93-2.84-1.93-4.66 0-1.82.644-3.373 1.93-4.66 1.287-1.287 2.841-1.93 4.661-1.93 1.82 0 3.373.643 4.66 1.93s1.93 2.84 1.93 4.66" fill="#d9edf6" fill-rule="nonzero"/><path d="M583.782 305.26l-9.171-3.797.512-13.394a3.735 3.735 0 0 1 2.602 2.965c5.054-1.45 8.915.299 11.73 4.82.811-.96 2.027-.96 3.456-.405l-9.129 9.811z" fill="#d9edf6" fill-rule="nonzero"/><path d="M569.181 308.965l.242-.583c.206-.495.556-.64 1.051-.434l11.712 4.863c.495.206.64.556.435 1.051l-.242.583c-.206.495-.556.64-1.052.435l-11.712-4.864c-.495-.205-.64-.556-.434-1.051" fill="#fff" fill-rule="nonzero"/><path d="M217.894 265.62l.173 130.06c0 .863.69 1.554 1.553 1.554l91.051-.087c.863 0 1.553-.69 1.553-1.553l-.086-106.499-25.201-25.115-67.403.087c-.949 0-1.64.69-1.64 1.553" fill="#f2751c" fill-rule="nonzero"/><path d="M213.338 259.311l.173 130.06c0 .863.69 1.554 1.553 1.554l91.051-.087c.863 0 1.553-.69 1.553-1.553l-.086-106.499-25.201-25.115-67.403.086c-.949 0-1.64.691-1.64 1.554" fill="#fff" fill-rule="nonzero"/><path d="M247.514 257.671h-32.537c-.863 0-1.553.69-1.553 1.554l.086 94.502" fill="none" stroke="#f2751c" stroke-width="1.87" stroke-linecap="round" stroke-linejoin="round"/><path d="M307.582 282.786l-25.201-25.115v23.648c0 .863.691 1.553 1.554 1.553l23.647-.086z" fill="#f2751c" fill-rule="nonzero"/><path d="M234.137 324.299c0 4.056 2.762 6.99 6.732 6.99 4.056 0 6.818-2.934 6.818-6.99 0-4.23-2.676-7.077-6.733-7.077-4.055 0-6.817 3.019-6.817 7.077z" fill="url(#_Linear15)" fill-rule="nonzero"/><path d="M253.813 324.299c0 4.056 2.85 6.99 6.731 6.99 4.058 0 6.82-2.934 6.82-6.99 0-4.23-2.675-7.077-6.732-7.077s-6.819 3.019-6.819 7.077z" fill="url(#_Linear16)" fill-rule="nonzero"/><path d="M273.491 324.299c0 4.056 2.848 6.99 6.732 6.99 4.056 0 6.818-2.934 6.818-6.99 0-4.23-2.676-7.077-6.733-7.077-4.055 0-6.817 3.019-6.817 7.077z" fill="url(#_Linear17)" fill-rule="nonzero"/><path d="M247.989 324.298a7.076 7.076 0 0 1-7.077 7.077 7.076 7.076 0 0 1-7.077-7.077 7.076 7.076 0 0 1 7.077-7.077 7.076 7.076 0 0 1 7.077 7.077" fill="#f2751c" fill-rule="nonzero"/><path d="M267.58 324.298a7.076 7.076 0 0 1-7.077 7.077 7.076 7.076 0 0 1-7.077-7.077 7.076 7.076 0 0 1 7.077-7.077 7.076 7.076 0 0 1 7.077 7.077" fill="#f9a10c" fill-rule="nonzero"/><path d="M287.343 324.298a7.076 7.076 0 0 1-7.077 7.077 7.076 7.076 0 0 1-7.077-7.077 7.076 7.076 0 0 1 7.077-7.077 7.076 7.076 0 0 1 7.077 7.077" fill="#ffc400" fill-rule="nonzero"/><path d="M210.679 197.508c0 21.912-17.763 39.676-39.676 39.676-21.912 0-39.675-17.764-39.675-39.676 0-21.912 17.763-39.676 39.675-39.676 21.913 0 39.676 17.764 39.676 39.676" fill="#4ccd9b" fill-rule="nonzero"/><path d="M171.003 157.832c21.912 0 39.676 17.763 39.676 39.676 0 21.912-17.764 39.675-39.676 39.675-21.912 0-39.676-17.763-39.676-39.675" fill="none" stroke="#239b6a" stroke-width="3" stroke-linecap="round" stroke-linejoin="round"/><path d="M203.408 197.508c0 17.897-14.508 32.405-32.405 32.405-17.897 0-32.405-14.508-32.405-32.405 0-17.897 14.508-32.405 32.405-32.405 17.897 0 32.405 14.508 32.405 32.405" fill="#fff" fill-rule="nonzero"/><path d="M99.627 277.186l-6.167-6.167a3.09 3.09 0 0 1 0-4.37l36.765-36.765a3.09 3.09 0 0 1 4.37 0l6.167 6.167a3.09 3.09 0 0 1 0 4.37l-36.765 36.765a3.09 3.09 0 0 1-4.37 0" fill="#239b6a" fill-rule="nonzero"/></g><defs><linearGradient id="_Linear5" x1="0" y1="0" x2="1" y2="0" gradientUnits="userSpaceOnUse" gradientTransform="translate(-50.448 148.739) scale(23.4164)"><stop offset="0" stop-color="#239b6a"/><stop offset="1" stop-color="#4ccd9b"/></linearGradient><linearGradient id="_Linear7" x1="0" y1="0" x2="1" y2="0" gradientUnits="userSpaceOnUse" gradientTransform="translate(234.251 37.441) scale(24.6946)"><stop offset="0" stop-color="#4263eb"/><stop offset="1" stop-color="#1f46e7"/></linearGradient><linearGradient id="_Linear8" x1="0" y1="0" x2="1" y2="0" gradientUnits="userSpaceOnUse" gradientTransform="translate(157.57 -189.281) scale(25.2956)"><stop offset="0" stop-color="#4263eb"/><stop offset="1" stop-color="#1f46e7"/></linearGradient><linearGradient id="_Linear9" x1="0" y1="0" x2="1" y2="0" gradientUnits="userSpaceOnUse" gradientTransform="translate(149.03 350.198) scale(25.2956)"><stop offset="0" stop-color="#4263eb"/><stop offset="1" stop-color="#1f46e7"/></linearGradient><linearGradient id="_Linear10" x1="0" y1="0" x2="1" y2="0" gradientUnits="userSpaceOnUse" gradientTransform="translate(-366.69 508.794) scale(25.2957)"><stop offset="0" stop-color="#4263eb"/><stop offset="1" stop-color="#1f46e7"/></linearGradient><linearGradient id="_Linear11" x1="0" y1="0" x2="1" y2="0" gradientUnits="userSpaceOnUse" gradientTransform="translate(-676.884 67.315) scale(25.3137)"><stop offset="0" stop-color="#4263eb"/><stop offset="1" stop-color="#1f46e7"/></linearGradient><linearGradient id="_Linear12" x1="0" y1="0" x2="1" y2="0" gradientUnits="userSpaceOnUse" gradientTransform="translate(-352.869 -364.103) scale(25.2957)"><stop offset="0" stop-color="#4263eb"/><stop offset="1" stop-color="#1f46e7"/></linearGradient><linearGradient id="_Linear13" x1="0" y1="0" x2="1" y2="0" gradientUnits="userSpaceOnUse" gradientTransform="matrix(323.319 0 0 241.464 267.425 218.673)"><stop offset="0" stop-color="#4263eb"/><stop offset="1" stop-color="#1f46e7"/></linearGradient><linearGradient id="_Linear14" x1="0" y1="0" x2="1" y2="0" gradientUnits="userSpaceOnUse" gradientTransform="translate(519.702 318.366) scale(109.074)"><stop offset="0" stop-color="#4263eb"/><stop offset="1" stop-color="#1f46e7"/></linearGradient><linearGradient id="_Linear15" x1="0" y1="0" x2="1" y2="0" gradientUnits="userSpaceOnUse" gradientTransform="translate(234.127 324.261) scale(13.557)"><stop offset="0" stop-color="#4263eb"/><stop offset="1" stop-color="#1f46e7"/></linearGradient><linearGradient id="_Linear16" x1="0" y1="0" x2="1" y2="0" gradientUnits="userSpaceOnUse" gradientTransform="translate(253.816 324.261) scale(13.557)"><stop offset="0" stop-color="#4263eb"/><stop offset="1" stop-color="#1f46e7"/></linearGradient><linearGradient id="_Linear17" x1="0" y1="0" x2="1" y2="0" gradientUnits="userSpaceOnUse" gradientTransform="translate(273.508 324.261) scale(13.5556)"><stop offset="0" stop-color="#4263eb"/><stop offset="1" stop-color="#1f46e7"/></linearGradient></defs></svg>