<svg viewBox="0 0 711 442" xmlns="http://www.w3.org/2000/svg" xmlns:serif="http://www.serif.com/" fill-rule="evenodd" clip-rule="evenodd" stroke-linecap="round" stroke-miterlimit="10"><g serif:id="Слой 10"><path d="M201.965 185.435c-50.052 28.919-80.739 11.701-115.675 36.704-54.553 40.864-52.514 130.278-81.481 166.387h52.498l637.002.453c-73.826-34.62-35.331-152.693-98.731-197.949-25.87-19.751-40.31-11.83-55.74-3.907-14.919 7.661-30.764 15.322-58.762-2.043-59.557-40.034-42.485-133.553-145.926-133.553-98.991 0-84.246 104.433-133.185 133.908z" fill="url(#_Linear1)" fill-rule="nonzero"/><path d="M30.793 102.855c5.476-2.163 10.815 2.794 16.907 1.816 13.143-4.018 17.934-20.776 29.571-20.776 6.125.078 8.898 4.54 15.195 5.53 10.2.971 26.901-33.487 56.267-27.898 30.604 7.62 33.266 40.028 57.32 51.869H19.773c3.048-5.526 6.302-9.023 11.02-10.541M428.334 74.217l257.18-.56c-2.075-5.655-4.285-11.055-8.98-13.776-4.93-2.872-8.726 2.183-14.216-2.334-3.728-3.495-4.813-10.432-8.473-13.014-5.379-3.689-10.167 1.613-15.759-1.936-4.376-5.026-4.514-11.675-5.694-17.907-1.699-8.971-4.293-17.511-14.133-22.746-29.281-12.906-66.782 56.844-87.523 58.524-12.337 0-18.333-24.969-33.927-24.969-18.166-.215-47.801 25.234-68.475 38.718" fill="#e7edf8" fill-rule="nonzero"/><path d="M573.318 162.567l.124 93.259a1.11 1.11 0 0 0 1.114 1.114l65.287-.062a1.11 1.11 0 0 0 1.114-1.114l-.062-76.365-18.07-18.008-48.331.062c-.681 0-1.176.495-1.176 1.114" fill="#96b7e1" fill-rule="nonzero"/><path d="M570.05 158.043l.124 93.259a1.11 1.11 0 0 0 1.114 1.114l65.287-.062a1.11 1.11 0 0 0 1.114-1.114l-.062-76.365-18.07-18.008-48.331.062c-.681 0-1.176.495-1.176 1.114" fill="#fff" fill-rule="nonzero"/><path d="M570.174 226.678a.933.933 0 0 1-.934-.933l-.061-67.762a2.05 2.05 0 0 1 2.047-2.049h23.33a.933.933 0 0 1 0 1.867h-23.33a.176.176 0 0 0-.18.181l.062 67.761a.933.933 0 0 1-.933.935h-.001zM637.627 174.876l-18.07-18.008v16.956a1.11 1.11 0 0 0 1.114 1.114l16.956-.062zM82.849 181.461l.124 93.259a1.11 1.11 0 0 0 1.114 1.114l65.287-.062a1.11 1.11 0 0 0 1.114-1.114l-.062-76.365-18.07-18.008-48.331.062c-.681 0-1.176.495-1.176 1.114" fill="#96b7e1" fill-rule="nonzero"/><path d="M79.581 176.938l.124 93.259a1.11 1.11 0 0 0 1.114 1.114l65.287-.062a1.11 1.11 0 0 0 1.114-1.114l-.062-76.365-18.07-18.008-48.331.062c-.681 0-1.176.495-1.176 1.114" fill="#fff" fill-rule="nonzero"/><path d="M79.705 245.572a.933.933 0 0 1-.934-.933l-.061-67.762a2.05 2.05 0 0 1 2.047-2.049h23.33a.933.933 0 0 1 0 1.867h-23.33a.176.176 0 0 0-.18.181l.062 67.761a.933.933 0 0 1-.933.935h-.001zM147.158 193.77l-18.07-18.008v16.956a1.11 1.11 0 0 0 1.114 1.114l16.956-.062zM46.96 250.801l.124 93.259a1.11 1.11 0 0 0 1.114 1.114l65.287-.062a1.11 1.11 0 0 0 1.114-1.114l-.062-76.365-18.07-18.008-48.331.062c-.681 0-1.176.495-1.176 1.114" fill="#96b7e1" fill-rule="nonzero"/><path d="M43.693 246.277l.124 93.259a1.11 1.11 0 0 0 1.114 1.114l65.287-.062a1.11 1.11 0 0 0 1.114-1.114l-.062-76.365-18.07-18.008-48.331.062c-.681 0-1.176.495-1.176 1.114" fill="#fff" fill-rule="nonzero"/><path d="M43.816 314.911a.933.933 0 0 1-.934-.933l-.061-67.762a2.05 2.05 0 0 1 2.047-2.049h23.33a.933.933 0 0 1 0 1.867h-23.33a.176.176 0 0 0-.18.181l.062 67.761a.933.933 0 0 1-.933.935h-.001zM111.27 263.109L93.2 245.101v16.956a1.11 1.11 0 0 0 1.114 1.114l16.956-.062z" fill="#96b7e1" fill-rule="nonzero"/><path d="M72.04 97.012h28.245a15.1 15.1 0 0 0 14.82-12.209l13.484-69.15c2.14-10.972 17.911-10.756 19.749.27l11.359 68.154c1.501 9.008 14.457 8.987 15.929-.026l6.493-39.746c1.49-9.118 14.602-9.122 16.098-.005l27.223 104.705c2.788 16.998 17.477 29.474 34.701 29.474h26.995" fill="none" stroke="#f2751c" stroke-width="1.5" stroke-dasharray="1,5"/><path d="M7.638 175.312h40.737c12.246 0 22.173 9.927 22.173 22.173 0 17.341 14.058 31.399 31.399 31.399h28.463a27.286 27.286 0 0 0 25.858-18.578l10.395-30.87c4.663-13.848 24.052-14.382 29.469-.811l9.189 23.016a28.633 28.633 0 0 0 26.592 18.017h61.994a38.367 38.367 0 0 0 33.247-19.22l17.307-30.052c4.634-8.048 16.089-8.479 21.315-.803l4.442 6.524c5.671 8.33 18.251 7.335 22.542-1.784l9.139-19.422c4.121-8.756 16.37-9.306 21.259-.955l4.09 6.989a20.034 20.034 0 0 0 17.29 9.913 15.432 15.432 0 0 0 14.868-11.3l28.915-103.819c3.006-10.817 18.368-10.745 21.273.1l16.343 61.023c1.981 7.394 12.517 7.267 14.319-.172l7.872-32.495a21.095 21.095 0 0 1 20.504-16.13h31.822a21.098 21.098 0 0 1 20.16 14.878l12.171 39.453a21.456 21.456 0 0 0 20.503 15.131" fill="none" stroke="#239b6a" stroke-width="1.52"/><path d="M225.1 62.167h74.811a28.35 28.35 0 0 1 20.045 8.303l9.47 9.47a28.35 28.35 0 0 0 20.045 8.303h122.997a28.345 28.345 0 0 1 20.045 8.303 28.352 28.352 0 0 0 20.046 8.303h133.38" fill="none" stroke="#4263eb" stroke-width="1.5" stroke-dasharray="5,5"/><path d="M112.912 228.884a7.186 7.186 0 1 0 14.371 0 7.185 7.185 0 1 0-14.371 0" fill="#239b6a" fill-rule="nonzero"/><path d="M116.392 228.884a3.706 3.706 0 1 1 7.411 0 3.706 3.706 0 0 1-7.411 0" fill="#fff" fill-rule="nonzero"/><path d="M576.702 67.032a7.186 7.186 0 1 0 14.371 0 7.185 7.185 0 1 0-14.371 0" fill="#239b6a" fill-rule="nonzero"/><path d="M580.181 67.032a3.706 3.706 0 1 1 7.411 0 3.706 3.706 0 0 1-7.411 0" fill="#fff" fill-rule="nonzero"/><path d="M130.79 7.538a7.186 7.186 0 1 0 14.371 0 7.185 7.185 0 1 0-14.371 0" fill="#f2751c" fill-rule="nonzero"/><path d="M134.269 7.538a3.706 3.706 0 1 1 7.411 0 3.706 3.706 0 0 1-7.411 0" fill="#fff" fill-rule="nonzero"/><path d="M276.835 62.167a7.186 7.186 0 1 0 14.371 0 7.185 7.185 0 1 0-14.371 0" fill="#4263eb" fill-rule="nonzero"/><path d="M280.315 62.167a3.706 3.706 0 1 1 7.411 0 3.706 3.706 0 0 1-7.411 0" fill="#fff" fill-rule="nonzero"/><path d="M421.149 87.155a7.186 7.186 0 1 0 14.371 0 7.185 7.185 0 1 0-14.371 0" fill="#4263eb" fill-rule="nonzero"/><path d="M424.628 87.155a3.706 3.706 0 1 1 7.411 0 3.706 3.706 0 0 1-7.411 0" fill="#fff" fill-rule="nonzero"/><path d="M356.638 389.889c13.039 15.819 136.999-1.528 136.999-1.528s-34.75-9.625-78.25-29.125c-43.499-19.5-63.125-124.875-63.125-124.875s-44.874 95.778 4.376 155.528z" fill="url(#_Linear2)" fill-rule="nonzero"/><path d="M344.18 220.495c-31.096-23.6-73.068-26.87-111.839-2.547-31.989 32.751 16.488 126.927 7.229 174.911l130.066 2.5c-18-50.5-12.248-108.015-17.289-160.157-.563-5.824-3.509-11.171-8.167-14.707" fill="#4ccd9b" fill-rule="nonzero"/><path d="M317.501 133.098c6.42 19.816 8.363 33.539 5.457 49.44-.806 4.416-4.206 7.906-8.588 8.882l-.113.025a6.379 6.379 0 0 0-4.791 4.639l2.83 11.394c.221.891.253 1.823.096 2.728-3.469 19.868-30.509 15.568-39.854 3.374-1.398-1.824-2.03-4.121-1.91-6.414l5.197-21.366-1.344-52.258 43.02-.444z" fill="#fff" fill-rule="nonzero"/><path d="M311.394 125.076l-30.158-4.238c-14.825 1.232-23.253 12.91-21.846 27.637 1.418 14.841 5.955 28.715 13.921 41.525.882 1.419 2.973 1.361 3.78-.101l.983-17.977c-2.645-.938-5.456 1.699-6.656-1.858-1.778-5.272-.122-10.592 3.701-11.881 2.153-.726 4.469.065 6.519 1.689.81.641 1.43.801 1.104-.621l-.556-3.626c-1.341-8.743 5.35-16.656 14.194-16.785l22.079-2.828c10.474-6.872 8.435-12.4-7.065-10.936" fill="#f2751c" fill-rule="nonzero"/><path d="M275.347 144.188c8.672 3.049 7.591-2.964 13.166-4.156 12.234-1.541 17.51 2.871 32.154 1.742 7.794-1.101 11.742-8.485 8.578-15.602-2.938-6.036-9.855-5.715-13.41-2.435-6.13-5.981-14.262-9.202-22.451-8.168-12.69 1.604-25.325 11.639-29.396 23.607l11.359 5.012z" fill="#f2751c" fill-rule="nonzero"/><path d="M229.949 220.172c-6.688 8.01-69.264 126.86-45.063 165.187 11.672 18.485 144.584 12.5 144.584 12.5v-33.666s-88.437-18.045-91.667-17.333c0 0 34.666-96.334 22.666-112.001-8.565-11.183-16.74-18.334-23.368-18.335-2.658-.001-5.066 1.149-7.152 3.648z" fill="url(#_Linear3)" fill-rule="nonzero"/><path d="M314.824 191.359s-10.854 4.167-27.687-10.667c0 0 15.337 49.769 23.625 35.042 6.729-11.958-2.063-10.687-.313-21.687.202-1.268 4.375-2.688 4.375-2.688" fill="#eaeacd" fill-rule="nonzero"/><path d="M286.761 166.109a8.626 8.626 0 1 1-17.251-.001 8.626 8.626 0 0 1 17.251.001" fill="#fff" fill-rule="nonzero"/><path d="M531.184 388.483h-80.919l-12.724-43.279h80.919l12.724 43.279z" fill="#1f46e7" fill-rule="nonzero"/><path d="M563.23 351.807H382.74c-6.024 0-10.41-4.916-9.735-10.94l11.892-110.007c.674-6.025 6.072-10.941 12.097-10.941h180.49c6.024 0 10.41 4.916 9.735 10.941l-11.892 110.007c-.627 6.024-6.073 10.94-12.097 10.94" fill="#1f46e7" fill-rule="nonzero"/><path d="M382.782 351.89c-6.023-.137-10.41-4.916-9.735-10.94l11.892-110.007c.674-6.025 6.072-10.941 12.097-10.941h180.49c11.11.107 9.735 10.941 9.735 10.941-91.625-1.584-95.625 123.416-204.479 120.947" fill="#4263eb" fill-rule="nonzero"/><path d="M427.851 388.483h117.692c1.06 0 1.88-.819 1.88-1.88v-4.578c0-1.06-.82-1.88-1.88-1.88H427.851c-1.06 0-1.88.82-1.88 1.88v4.578c0 1.061.868 1.88 1.88 1.88" fill="#1f46e7" fill-rule="nonzero"/><path d="M495.093 289.859c-4.486 0-8.123-3.544-8.123-7.917 0-2.116.857-4.033 2.245-5.454a12.68 12.68 0 0 0-4.637-.879c-6.871 0-12.442 5.429-12.442 12.125s5.571 12.125 12.442 12.125c6.193 0 11.315-4.416 12.268-10.19-.565.121-1.15.19-1.753.19" fill="#d9edf6" fill-rule="nonzero"/><path d="M622.732 383.026c-12.495 0-22.625-10.13-22.625-22.625v-11.875h45.25v11.875c0 12.495-10.13 22.625-22.625 22.625" fill="#f2751c" fill-rule="nonzero"/><path d="M588.554 362.37c0 6.83 5.545 12.375 12.375 12.375s12.375-5.545 12.375-12.375-5.545-12.375-12.375-12.375-12.375 5.545-12.375 12.375z" fill="none" stroke="#f2751c" stroke-width="3" stroke-linecap="butt"/><path d="M600.107 360.401v-11.875h45.25s-45.25 24.37-45.25 11.875" fill="#fecc4d" fill-rule="nonzero"/><path d="M601.106 388.526h43.5a1.5 1.5 0 1 0 0-3h-43.5a1.5 1.5 0 1 0 0 3" fill="#f2751c" fill-rule="nonzero"/><path d="M328.387 388.528c-.072-.048-16 0-16 0 .654-5.117 13.824-23.391 19.577-24.953a81.88 81.88 0 0 1 3.123-.782 29.627 29.627 0 0 1 18.436 1.7l27.226 15.078c1.722.954 1.734 3.619.023 4.918l-2.474 1.875c-2.762 2.093-6.144 2.825-9.221 1.994-3.188-.859-7.176-1.98-9.501-2.795-3.184-1.116-6.872-1.416-10.038.224 0 0-4.651 2.741-21.151 2.741" fill="#fff" fill-rule="nonzero"/><path fill="#fff" d="M23.136 388.526h687.501v16H23.136z"/><path d="M130.877 376.567c2.102 3.376 2.085 7.853-.348 11.308-3.245 4.606-9.611 5.707-14.218 2.462-4.606-3.245-5.707-9.611-2.462-14.217 3.245-4.607 9.611-5.708 14.217-2.463 1.152.811 2.11 1.785 2.811 2.91m7.161-5.123c-.127-.273-.486-.374-.759-.248l-3.18 1.464a15.023 15.023 0 0 0-3.176-3.013 15.13 15.13 0 0 0-3.934-1.967l.312-3.511c.027-.299-.179-.588-.478-.615l-5.82-.503c-.299-.027-.588.18-.615.479l-.312 3.511a15.03 15.03 0 0 0-7.865 3.66l-2.908-2.018c-.246-.173-.582-.143-.755.103l-3.387 4.785c-.173.245-.075.594.17.767l2.869 2.046c-1.124 2.791-1.338 5.791-.755 8.641l-3.221 1.492a.544.544 0 0 0-.276.718l2.46 5.328c.126.273.418.362.69.236l3.221-1.493a15.3 15.3 0 0 0 3.204 3.054 15.124 15.124 0 0 0 3.933 1.967l-.352 3.538c-.027.299.192.521.491.548l5.847.543c.299.027.561-.22.588-.519l.312-3.511c2.88-.411 5.643-1.623 7.892-3.62l2.869 2.045c.245.173.594.076.767-.17l3.387-4.785c.173-.245.102-.554-.143-.727l-2.869-2.046c1.124-2.791 1.338-5.791.756-8.641l3.221-1.492a.544.544 0 0 0 .275-.718l-2.459-5.328zm27.756 16.854a10.696 10.696 0 0 0 2.432 5.288l-8.275 11.772a24.866 24.866 0 0 1-8.537-18.373l14.38 1.313zm12.452 8.753l6.065 13.112a24.829 24.829 0 0 1-20.159-1.843l8.315-11.8c1.867.715 3.867.892 5.779.531m-14.687-31.782l6.065 13.113a10.476 10.476 0 0 0-2.013 2.14 10.458 10.458 0 0 0-1.334 2.618l-14.38-1.313a24.622 24.622 0 0 1 4.064-9.487 24.903 24.903 0 0 1 7.598-7.071m17.374 18.465a5.438 5.438 0 0 1-.163 6.059c-1.766 2.506-5.168 3.117-7.674 1.352-2.507-1.766-3.05-5.155-1.285-7.661 1.766-2.507 5.128-3.09 7.634-1.325a5.422 5.422 0 0 1 1.488 1.575m19.751 7.716c-.652 3.323-2.028 6.567-4.104 9.514-2.076 2.947-4.649 5.31-7.558 7.043l-6.065-13.112a10.556 10.556 0 0 0 2.013-2.14 10.543 10.543 0 0 0 1.334-2.618l14.38 1.313zm-39.507-60.12a10.19 10.19 0 0 1 .24 12.084c-3.245 4.606-9.611 5.707-14.217 2.462-4.607-3.245-5.708-9.611-2.463-14.218 3.245-4.606 9.611-5.707 14.218-2.462.864.608 1.61 1.338 2.222 2.134m27.225 33.586l-8.315 11.8c-1.868-.715-3.841-.852-5.752-.49l-6.105-13.085c6.506-2.218 13.854-1.765 20.172 1.775m7.832 6.902c3.135 4.227 4.856 9.319 4.933 14.474l-14.42-1.286a10.705 10.705 0 0 0-2.432-5.288l8.315-11.799a24.568 24.568 0 0 1 3.604 3.899m-27.485-45.009a.52.52 0 0 0-.581-.074l-3.181 1.464a15.32 15.32 0 0 0-3.203-3.054 15.157 15.157 0 0 0-3.934-1.966l.313-3.511c.027-.299-.153-.548-.452-.575l-5.847-.543c-.298-.027-.56.22-.587.519l-.313 3.511c-2.88.411-5.642 1.622-7.892 3.62l-2.908-2.018c-.246-.173-.554-.103-.727.142l-3.387 4.786c-.173.245-.103.554.142.727l2.869 2.045c-1.124 2.791-1.338 5.791-.755 8.642l-3.221 1.492a.544.544 0 0 0-.276.718l2.46 5.328a.543.543 0 0 0 .718.275l3.221-1.492a15.004 15.004 0 0 0 3.176 3.014 15.124 15.124 0 0 0 3.933 1.967l-.352 3.538c-.027.299.22.561.519.588l5.846.543c.299.027.561-.22.588-.519l.313-3.511a15.04 15.04 0 0 0 7.864-3.661l2.869 2.046a.587.587 0 0 0 .794-.13l3.347-4.758a.587.587 0 0 0-.13-.794l-2.868-2.046c1.123-2.791 1.337-5.791.755-8.641l3.221-1.492a.545.545 0 0 0 .275-.718l-2.472-5.261a.7.7 0 0 0-.137-.201m40.309 41.024c-.109-.237-.345-.36-.582-.25l-4.563 2.114a32.2 32.2 0 0 0-6.028-7.191l2.909-4.106c.151-.213.058-.509-.155-.659l-5.37-3.813c-.214-.15-.509-.058-.66.156l-2.869 4.078a32.171 32.171 0 0 0-8.803-3.235l.418-4.996c.023-.26-.137-.471-.397-.494l-6.576-.576c-.26-.023-.471.136-.494.397l-.485 4.982c-3.141.086-6.21.649-9.196 1.625l-2.113-4.563a.464.464 0 0 0-.623-.222l-6.013 2.75a.465.465 0 0 0-.223.623l2.114 4.563a32.2 32.2 0 0 0-7.191 6.028l-4.106-2.91a.506.506 0 0 0-.686.116l-3.785 5.41c-.151.214-.086.469.128.619l4.105 2.909a32.157 32.157 0 0 0-3.235 8.804l-5.023-.458c-.26-.024-.444.177-.467.437l-.643 6.562c-.024.261.204.484.464.508l4.983.485a32.453 32.453 0 0 0 1.584 9.223l-4.523 2.086a.464.464 0 0 0-.222.623l2.75 6.013c.11.237.386.332.623.222l4.563-2.113c1.613 2.632 3.597 5.083 5.988 7.218l-2.869 4.078c-.151.214-.126.496.088.647l5.41 3.785c.213.15.496.125.646-.088l2.909-4.106a32.16 32.16 0 0 0 8.804 3.236l-.458 5.023c-.023.26.177.443.437.467l6.535.603c.26.023.512-.164.535-.424l.418-4.996a32.752 32.752 0 0 0 9.262-1.612l2.114 4.563c.11.237.386.332.623.223l6.013-2.751a.464.464 0 0 0 .223-.622l-2.114-4.564a32.168 32.168 0 0 0 7.191-6.027l4.105 2.909c.214.151.496.126.647-.088l3.785-5.41c.15-.214.126-.496-.088-.647l-4.106-2.909a32.141 32.141 0 0 0 3.236-8.803l4.983.485c.26.023.484-.204.507-.464l.603-6.536c.024-.26-.164-.511-.424-.534l-5.023-.458a32.454 32.454 0 0 0-1.585-9.223l4.563-2.114a.463.463 0 0 0 .223-.622l-2.791-5.986zm42.884 14.948c3.263 5.24 3.269 12.179-.509 17.542-5.037 7.15-14.916 8.853-22.067 3.816s-8.853-14.916-3.816-22.067c5.037-7.15 14.916-8.853 22.066-3.816 1.788 1.259 3.239 2.779 4.326 4.525m11.122-7.945c-.195-.423-.727-.588-1.15-.392l-4.98 2.28a23.363 23.363 0 0 0-4.921-4.708 23.552 23.552 0 0 0-6.104-3.076l.507-5.469c.042-.464-.315-.839-.779-.881l-9.046-.832c-.465-.042-.868.274-.91.738l-.479 5.509a23.493 23.493 0 0 0-12.267 5.665l-4.473-3.188a.82.82 0 0 0-1.157.201l-5.22 7.449a.822.822 0 0 0 .201 1.158l4.446 3.149c-1.744 4.332-2.079 9.036-1.175 13.461l-4.979 2.28a.838.838 0 0 0-.42 1.111l3.8 8.241a.837.837 0 0 0 1.111.419l4.979-2.28a23.487 23.487 0 0 0 4.962 4.68 23.562 23.562 0 0 0 6.103 3.076l-.506 5.469c-.042.464.274.867.738.909l9.047.832c.464.042.907-.302.949-.766l.48-5.509c4.469-.639 8.735-2.537 12.226-5.637l4.513 3.161a.823.823 0 0 0 1.158-.202l5.22-7.449a.823.823 0 0 0-.202-1.158l-4.485-3.121a23.605 23.605 0 0 0 1.214-13.489l4.98-2.28a.836.836 0 0 0 .419-1.111l-3.8-8.24z" fill="#1f46e7" fill-rule="nonzero"/><path d="M251.924 382.775c3.263 5.24 3.268 12.178-.509 17.541-5.037 7.151-14.917 8.854-22.067 3.817-7.151-5.037-8.853-14.917-3.816-22.067 5.037-7.151 14.916-8.853 22.066-3.816 1.788 1.259 3.239 2.778 4.326 4.525m11.122-7.945c-.195-.423-.728-.588-1.15-.393l-4.98 2.281a23.363 23.363 0 0 0-4.921-4.708 23.552 23.552 0 0 0-6.104-3.076l.507-5.469c.042-.464-.315-.84-.779-.882l-9.047-.831c-.464-.042-.867.274-.909.738l-.479 5.509a23.49 23.49 0 0 0-12.267 5.665l-4.473-3.188a.822.822 0 0 0-1.158.201l-5.219 7.449a.822.822 0 0 0 .201 1.158l4.446 3.148c-1.744 4.332-2.079 9.037-1.175 13.462l-4.979 2.28a.838.838 0 0 0-.42 1.111l3.8 8.24a.837.837 0 0 0 1.111.42l4.979-2.28a23.487 23.487 0 0 0 4.962 4.68 23.546 23.546 0 0 0 6.103 3.076l-.506 5.469c-.042.464.274.867.738.909l9.047.831c.464.042.907-.301.949-.765l.479-5.509c4.47-.639 8.736-2.537 12.227-5.638l4.513 3.161c.381.269.89.18 1.158-.201l5.22-7.449a.823.823 0 0 0-.202-1.158l-4.485-3.121a23.605 23.605 0 0 0 1.214-13.489l4.98-2.28a.837.837 0 0 0 .419-1.111l-3.8-8.24zM139.776 417.353c2.102 3.376 2.085 7.853-.348 11.308-3.245 4.606-9.611 5.707-14.218 2.462-4.606-3.245-5.707-9.611-2.462-14.217 3.245-4.607 9.611-5.708 14.217-2.463 1.152.811 2.11 1.785 2.811 2.91m7.161-5.123c-.127-.273-.486-.374-.759-.248l-3.18 1.464a15.023 15.023 0 0 0-3.176-3.013 15.13 15.13 0 0 0-3.934-1.967l.312-3.511c.027-.299-.179-.588-.478-.615l-5.82-.503c-.299-.027-.588.18-.615.479l-.312 3.511a15.03 15.03 0 0 0-7.865 3.66l-2.908-2.018c-.246-.173-.582-.143-.755.103l-3.387 4.785c-.173.245-.075.594.17.767l2.869 2.046c-1.124 2.791-1.338 5.791-.755 8.641l-3.221 1.492a.544.544 0 0 0-.276.718l2.46 5.328c.126.273.418.362.69.236l3.221-1.493a15.3 15.3 0 0 0 3.204 3.054 15.124 15.124 0 0 0 3.933 1.967l-.352 3.538c-.027.299.192.521.491.548l5.847.543c.299.027.561-.22.588-.519l.312-3.511c2.88-.411 5.643-1.623 7.892-3.62l2.869 2.045c.245.173.594.076.767-.17l3.387-4.785c.173-.245.102-.554-.143-.727l-2.869-2.046c1.124-2.791 1.338-5.791.756-8.641l3.221-1.492a.544.544 0 0 0 .275-.718l-2.459-5.328z" fill="#4263eb" fill-rule="nonzero"/></g><defs><linearGradient id="_Linear1" x1="0" y1="0" x2="1" y2="0" gradientUnits="userSpaceOnUse" gradientTransform="rotate(-90 377.122 27.563) scale(401.349)"><stop offset="0" stop-color="#b4cae8"/><stop offset="1" stop-color="#fbfbfe"/></linearGradient><linearGradient id="_Linear2" x1="0" y1="0" x2="1" y2="0" gradientUnits="userSpaceOnUse" gradientTransform="rotate(-90 434.562 20.966) scale(218.691)"><stop offset="0" stop-color="#239b6a"/><stop offset="1" stop-color="#4ccd9b"/></linearGradient><linearGradient id="_Linear3" x1="0" y1="0" x2="1" y2="0" gradientUnits="userSpaceOnUse" gradientTransform="rotate(-90 347.635 93.225) scale(204.752)"><stop offset="0" stop-color="#239b6a"/><stop offset="1" stop-color="#4ccd9b"/></linearGradient></defs></svg>