<svg xmlns="http://www.w3.org/2000/svg" viewBox="-1193 409 24 24" width="24" heigth="24"><defs><style>.a{fill:#4c6ef5;}</style></defs><g transform="translate(-1193 409)"><path class="a" d="M0,24H24V0H0ZM1.5,1.5h21v21H1.5Z"/><rect class="a" width="12" height="1.5" transform="translate(8.925 6.75)"/><rect class="a" width="12" height="1.5" transform="translate(8.925 9.75)"/><rect class="a" width="12" height="1.5" transform="translate(8.925 15.75)"/><rect class="a" width="6" height="1.5" transform="translate(8.925 18.75)"/><path class="a" d="M2.925,8.25h4.5V3.75h-4.5Zm1.5-3h1.5v1.5h-1.5Z"/><path class="a" d="M2.925,14.25h4.5V9.75h-4.5Zm1.5-3h1.5v1.5h-1.5Z"/><path class="a" d="M2.925,20.25h4.5v-4.5h-4.5Zm1.5-3h1.5v1.5h-1.5Z"/><rect class="a" width="12" height="1.5" transform="translate(8.925 3.75)"/><rect class="a" width="12" height="1.5" transform="translate(8.925 12.75)"/></g></svg>
