<?xml version="1.0" encoding="utf-8"?>
<!-- Generator: Adobe Illustrator 16.0.0, SVG Export Plug-In . SVG Version: 6.00 Build 0)  -->
<!DOCTYPE svg PUBLIC "-//W3C//DTD SVG 1.1//EN" "http://www.w3.org/Graphics/SVG/1.1/DTD/svg11.dtd">
<svg version="1.1" id="Слой_1" xmlns="http://www.w3.org/2000/svg" xmlns:xlink="http://www.w3.org/1999/xlink" x="0px" y="0px"
	 width="120px" height="120px" viewBox="0 0 120 120" enable-background="new 0 0 120 120" xml:space="preserve">
<rect fill="#FFFFFF" width="120" height="120"/>
<g>
	<defs>
		<rect id="SVGID_1_" width="120" height="120"/>
	</defs>
	<clipPath id="SVGID_2_">
		<use xlink:href="#SVGID_1_"  overflow="visible"/>
	</clipPath>
	
		<path clip-path="url(#SVGID_2_)" fill="none" stroke="#1F46E7" stroke-linecap="round" stroke-miterlimit="10" stroke-dasharray="1,2" d="
		M85.669,40.333v13.993c0,3.679-2.982,6.661-6.662,6.661H66.414c-3.679,0-6.662,2.983-6.662,6.662v25.017"/>
	
		<path clip-path="url(#SVGID_2_)" fill="none" stroke="#4CCD9B" stroke-linecap="round" stroke-miterlimit="10" stroke-dasharray="4,5" d="
		M28.722,39.32v10.157c0,4.087,3.314,7.401,7.401,7.401h49.324c4.088,0,7.401,3.314,7.401,7.402v27.595"/>
	<path clip-path="url(#SVGID_2_)" fill="none" stroke="#F2751C" stroke-miterlimit="10" d="M61.154,71v5.111
		c0,2.607-2.114,4.722-4.724,4.722H34.778c-2.609,0-4.723,2.115-4.723,4.723V95.5"/>
	<rect x="9.477" y="94.5" clip-path="url(#SVGID_2_)" fill="#F2751C" width="28.364" height="17.667"/>
</g>
<g>
	<defs>
		<polygon id="SVGID_3_" points="20.758,89.25 9.477,94.5 37.841,94.5 44.827,89.25 		"/>
	</defs>
	<clipPath id="SVGID_4_">
		<use xlink:href="#SVGID_3_"  overflow="visible"/>
	</clipPath>
	
		<linearGradient id="SVGID_5_" gradientUnits="userSpaceOnUse" x1="4.882813e-004" y1="119.999" x2="1.0005" y2="119.999" gradientTransform="matrix(35.3497 0 0 -35.3497 9.4688 4333.8389)">
		<stop  offset="0" style="stop-color:#F2751C"/>
		<stop  offset="1" style="stop-color:#FFC400"/>
	</linearGradient>
	<rect x="9.477" y="89.25" clip-path="url(#SVGID_4_)" fill="url(#SVGID_5_)" width="35.35" height="5.25"/>
</g>
<g>
	<defs>
		<polygon id="SVGID_6_" points="37.841,94.5 37.841,112.166 44.827,106.917 44.827,89.25 		"/>
	</defs>
	<clipPath id="SVGID_7_">
		<use xlink:href="#SVGID_6_"  overflow="visible"/>
	</clipPath>
	
		<linearGradient id="SVGID_8_" gradientUnits="userSpaceOnUse" x1="0" y1="120" x2="1" y2="120" gradientTransform="matrix(6.9861 0 0 -6.9861 37.8398 939.0452)">
		<stop  offset="0" style="stop-color:#F2751C"/>
		<stop  offset="1" style="stop-color:#FFC400"/>
	</linearGradient>
	<rect x="37.841" y="89.25" clip-path="url(#SVGID_7_)" fill="url(#SVGID_8_)" width="6.986" height="22.916"/>
</g>
<g>
	<defs>
		<rect id="SVGID_9_" width="120" height="120"/>
	</defs>
	<clipPath id="SVGID_10_">
		<use xlink:href="#SVGID_9_"  overflow="visible"/>
	</clipPath>
	<rect x="82.159" y="94.5" clip-path="url(#SVGID_10_)" fill="#239B6A" width="28.364" height="17.667"/>
</g>
<g>
	<defs>
		<polygon id="SVGID_11_" points="75.173,89.25 82.159,94.5 110.523,94.5 99.243,89.25 		"/>
	</defs>
	<clipPath id="SVGID_12_">
		<use xlink:href="#SVGID_11_"  overflow="visible"/>
	</clipPath>
	
		<linearGradient id="SVGID_13_" gradientUnits="userSpaceOnUse" x1="9.765625e-004" y1="119.999" x2="1.001" y2="119.999" gradientTransform="matrix(-35.3497 0 0 -35.3497 110.5313 4333.8389)">
		<stop  offset="0" style="stop-color:#239B6A"/>
		<stop  offset="1" style="stop-color:#4CCD9B"/>
	</linearGradient>
	<rect x="75.173" y="89.25" clip-path="url(#SVGID_12_)" fill="url(#SVGID_13_)" width="35.351" height="5.25"/>
</g>
<g>
	<defs>
		<polygon id="SVGID_14_" points="75.173,106.917 82.159,112.166 82.159,94.5 75.173,89.25 		"/>
	</defs>
	<clipPath id="SVGID_15_">
		<use xlink:href="#SVGID_14_"  overflow="visible"/>
	</clipPath>
	
		<linearGradient id="SVGID_16_" gradientUnits="userSpaceOnUse" x1="0" y1="120" x2="1" y2="120" gradientTransform="matrix(-6.9861 0 0 -6.9861 82.1602 939.0452)">
		<stop  offset="0" style="stop-color:#239B6A"/>
		<stop  offset="1" style="stop-color:#4CCD9B"/>
	</linearGradient>
	<rect x="75.173" y="89.25" clip-path="url(#SVGID_15_)" fill="url(#SVGID_16_)" width="6.986" height="22.916"/>
</g>
<g>
	<defs>
		<path id="SVGID_17_" d="M70.669,28.206c0,8.284,6.716,15,15,15c8.285,0,15.001-6.716,15.001-15s-6.716-15-15.001-15
			C77.385,13.206,70.669,19.922,70.669,28.206"/>
	</defs>
	<clipPath id="SVGID_18_">
		<use xlink:href="#SVGID_17_"  overflow="visible"/>
	</clipPath>
	
		<linearGradient id="SVGID_19_" gradientUnits="userSpaceOnUse" x1="4.882813e-004" y1="120" x2="1.0005" y2="120" gradientTransform="matrix(30 0 0 -30 70.6719 3628.2031)">
		<stop  offset="0" style="stop-color:#4263EB"/>
		<stop  offset="1" style="stop-color:#1F46E7"/>
	</linearGradient>
	<rect x="70.669" y="13.206" clip-path="url(#SVGID_18_)" fill="url(#SVGID_19_)" width="30.001" height="30"/>
</g>
<g>
	<defs>
		<rect id="SVGID_20_" width="120" height="120"/>
	</defs>
	<clipPath id="SVGID_21_">
		<use xlink:href="#SVGID_20_"  overflow="visible"/>
	</clipPath>
	<path clip-path="url(#SVGID_21_)" fill="#EAEACD" d="M92.354,39.32H78.984v-0.665c0-1.079,0.875-1.954,1.955-1.954h9.46
		c1.079,0,1.954,0.875,1.954,1.954V39.32z"/>
	<rect x="78.984" y="38.147" clip-path="url(#SVGID_21_)" fill="#C8CBAC" width="13.369" height="1.173"/>
	<path clip-path="url(#SVGID_21_)" fill="#D8D7BF" d="M90.71,36.701H80.629V36.3c0-0.426,0.346-0.772,0.771-0.772h8.537
		c0.426,0,0.772,0.346,0.772,0.772V36.701z"/>
	<path clip-path="url(#SVGID_21_)" fill="#EAEACD" d="M89.95,35.528h-8.562c1.251-2.971,2.032-5.942,2.345-8.913h3.87
		C87.839,29.846,88.621,32.818,89.95,35.528"/>
	<path clip-path="url(#SVGID_21_)" fill="#D8D7BF" d="M87.79,26.614h-4.242c-0.216,0-0.393-0.177-0.393-0.393
		c0-0.217,0.177-0.393,0.393-0.393h4.242c0.216,0,0.393,0.176,0.393,0.393C88.183,26.438,88.006,26.614,87.79,26.614"/>
	<path clip-path="url(#SVGID_21_)" fill="#EAEACD" d="M87.79,23.175h-4.242c-0.216,0-0.393-0.177-0.393-0.393
		c0-0.217,0.177-0.393,0.393-0.393h4.242c0.216,0,0.393,0.176,0.393,0.393C88.183,22.998,88.006,23.175,87.79,23.175"/>
	<rect x="83.925" y="23.174" clip-path="url(#SVGID_21_)" fill="#C8CBAC" width="3.489" height="1.867"/>
	<path clip-path="url(#SVGID_21_)" fill="#C8CBAC" d="M86.671,16.094c0,0.553-0.449,1.002-1.002,1.002s-1.002-0.449-1.002-1.002
		c0-0.553,0.449-1.002,1.002-1.002S86.671,15.541,86.671,16.094"/>
	<path clip-path="url(#SVGID_21_)" fill="#C8CBAC" d="M87.985,18.953c0,1.279-1.037,2.316-2.316,2.316
		c-1.278,0-2.316-1.037-2.316-2.316c0-1.279,1.037-2.316,2.316-2.316S87.985,17.673,87.985,18.953"/>
	<path clip-path="url(#SVGID_21_)" fill="#D8D7BF" d="M87.414,22.388h-3.489l-1.643-4.418c0.539-0.017,0.967,0.167,1.246,0.616
		c1.446-1.159,2.934-1.104,4.457-0.015c0.138-0.426,0.529-0.59,1.07-0.601L87.414,22.388z"/>
	<path clip-path="url(#SVGID_21_)" fill="#EAEACD" d="M87.79,25.828h-4.242c-0.216,0-0.393-0.177-0.393-0.393
		c0-0.217,0.177-0.393,0.393-0.393h4.242c0.216,0,0.393,0.176,0.393,0.393C88.183,25.651,88.006,25.828,87.79,25.828"/>
</g>
<g>
	<defs>
		<path id="SVGID_22_" d="M13.724,26.615c0,8.283,6.715,14.998,14.998,14.998c8.283,0,14.998-6.715,14.997-14.999
			c0-8.283-6.715-14.997-14.997-14.997C20.438,11.617,13.723,18.331,13.724,26.615"/>
	</defs>
	<clipPath id="SVGID_23_">
		<use xlink:href="#SVGID_22_"  overflow="visible"/>
	</clipPath>
	
		<linearGradient id="SVGID_24_" gradientUnits="userSpaceOnUse" x1="4.882813e-004" y1="120" x2="1.0005" y2="120" gradientTransform="matrix(29.9959 -5.340000e-004 -5.340000e-004 -29.9959 13.7828 3626.1221)">
		<stop  offset="0" style="stop-color:#239B6A"/>
		<stop  offset="1" style="stop-color:#4CCD9B"/>
	</linearGradient>
	<rect x="13.723" y="11.617" clip-path="url(#SVGID_23_)" fill="url(#SVGID_24_)" width="29.998" height="29.996"/>
</g>
<g>
	<defs>
		<rect id="SVGID_25_" width="120" height="120"/>
	</defs>
	<clipPath id="SVGID_26_">
		<use xlink:href="#SVGID_25_"  overflow="visible"/>
	</clipPath>
	<path clip-path="url(#SVGID_26_)" fill="#EAEACD" d="M40.364,26.614c0,6.43-5.212,11.642-11.642,11.642
		c-6.429,0-11.642-5.212-11.642-11.642c0-6.429,5.212-11.642,11.642-11.642C35.151,14.972,40.364,20.184,40.364,26.614"/>
	
		<circle clip-path="url(#SVGID_26_)" fill="none" stroke="#4CCD9B" stroke-width="0.474" stroke-linecap="round" stroke-miterlimit="10" cx="28.722" cy="26.614" r="7.612"/>
	<path clip-path="url(#SVGID_26_)" fill="#239B6A" d="M30.055,26.614c0,0.736-0.597,1.333-1.333,1.333
		c-0.736,0-1.333-0.597-1.333-1.333c0-0.736,0.597-1.333,1.333-1.333C29.458,25.282,30.055,25.878,30.055,26.614"/>
	
		<line clip-path="url(#SVGID_26_)" fill="none" stroke="#239B6A" stroke-width="0.474" stroke-linecap="round" stroke-miterlimit="10" x1="34.445" y1="18.174" x2="28.722" y2="26.615"/>
	
		<line clip-path="url(#SVGID_26_)" fill="none" stroke="#239B6A" stroke-width="0.569" stroke-linecap="round" stroke-miterlimit="10" x1="36.215" y1="26.614" x2="29.17" y2="26.614"/>
	<path clip-path="url(#SVGID_26_)" fill="#F2751C" d="M45.022,57.448c-0.417,8.272,5.951,15.315,14.222,15.732
		c8.272,0.417,15.316-5.95,15.733-14.222c0.416-8.272-5.951-15.315-14.223-15.732C52.483,42.809,45.44,49.176,45.022,57.448"/>
</g>
<g>
	<defs>
		<path id="SVGID_27_" d="M45.023,57.448c-0.199,3.956,1.155,7.628,3.526,10.432L70.78,47.782
			c-2.553-2.639-6.069-4.358-10.025-4.557c-0.257-0.012-0.513-0.019-0.767-0.019C52.052,43.205,45.427,49.433,45.023,57.448"/>
	</defs>
	<clipPath id="SVGID_28_">
		<use xlink:href="#SVGID_27_"  overflow="visible"/>
	</clipPath>
	
		<linearGradient id="SVGID_29_" gradientUnits="userSpaceOnUse" x1="0" y1="119.998" x2="1" y2="119.998" gradientTransform="matrix(1.2705 -25.2055 -25.2055 -1.2705 3081.7739 220.7693)">
		<stop  offset="0" style="stop-color:#F2751C"/>
		<stop  offset="1" style="stop-color:#FFC400"/>
	</linearGradient>
	<polygon clip-path="url(#SVGID_28_)" fill="url(#SVGID_29_)" points="43.583,67.817 44.89,41.9 72.021,43.268 70.714,69.185 	"/>
</g>
<g>
	<defs>
		<rect id="SVGID_30_" width="120" height="120"/>
	</defs>
	<clipPath id="SVGID_31_">
		<use xlink:href="#SVGID_30_"  overflow="visible"/>
	</clipPath>
	<path clip-path="url(#SVGID_31_)" fill="#FECC4D" d="M49.075,57.652c-0.304,6.034,4.341,11.172,10.375,11.476
		c6.034,0.304,11.171-4.341,11.476-10.375c0.304-6.034-4.341-11.172-10.375-11.476C54.517,46.973,49.378,51.618,49.075,57.652"/>
	<path clip-path="url(#SVGID_31_)" fill="#F2751C" d="M64.487,59.554c0.059,0.116,0.115,0.226-0.002-0.006
		c-0.12-0.236-0.063-0.121-0.003-0.004c-0.382-0.754-1.088-1.256-1.843-1.599c-0.499-0.226-1.024-0.392-1.55-0.546l0.177-3.486
		c0.442,0.102,0.883,0.267,1.238,0.558c0.164,0.134,0.306,0.294,0.412,0.478c0.055,0.094,0.102,0.194,0.136,0.297
		s0.049,0.21,0.081,0.312c0.113,0.345,0.43,0.597,0.789,0.631c0.368,0.035,0.729-0.16,0.901-0.486
		c0.085-0.159,0.121-0.342,0.104-0.521c-0.011-0.112-0.041-0.224-0.07-0.333c-0.031-0.116-0.069-0.23-0.112-0.343
		c-0.158-0.402-0.391-0.776-0.683-1.094c-0.617-0.673-1.466-1.083-2.346-1.288c-0.117-0.028-0.237-0.052-0.356-0.073l0.051-1.013
		c0.019-0.356-0.178-0.698-0.494-0.863c-0.319-0.167-0.72-0.128-1.001,0.097c-0.206,0.163-0.333,0.411-0.347,0.674l-0.051,1.017
		c-0.91,0.083-1.828,0.386-2.537,0.975c-0.332,0.276-0.609,0.616-0.808,0.999c-0.213,0.409-0.323,0.861-0.343,1.321
		c-0.02,0.453,0.04,0.913,0.218,1.332c0.169,0.397,0.44,0.739,0.765,1.02c0.67,0.578,1.528,0.904,2.362,1.165l-0.184,3.643
		c-0.425-0.144-0.83-0.368-1.139-0.697c-0.15-0.161-0.278-0.343-0.378-0.539c-0.051-0.099-0.093-0.203-0.127-0.309
		c-0.034-0.106-0.052-0.217-0.082-0.324c-0.096-0.352-0.4-0.617-0.76-0.668c-0.366-0.051-0.735,0.128-0.922,0.446
		c-0.091,0.154-0.136,0.334-0.127,0.514c0.006,0.105,0.032,0.211,0.057,0.314c0.028,0.114,0.061,0.228,0.098,0.34
		c0.143,0.426,0.362,0.825,0.636,1.182c0.552,0.715,1.33,1.218,2.183,1.499c0.153,0.051,0.309,0.095,0.466,0.133l-0.054,1.071
		c-0.018,0.355,0.178,0.699,0.494,0.864c0.32,0.167,0.719,0.128,1.001-0.098c0.205-0.164,0.332-0.412,0.346-0.674l0.05-0.979
		c0.928-0.029,1.873-0.25,2.644-0.788c0.73-0.51,1.241-1.288,1.382-2.17C64.866,60.87,64.792,60.16,64.487,59.554 M59.599,56.878
		c-0.209-0.076-0.404-0.153-0.576-0.233c-0.205-0.094-0.406-0.204-0.586-0.341c-0.161-0.122-0.315-0.271-0.383-0.466
		c-0.071-0.205-0.07-0.442-0.039-0.654c0.032-0.212,0.117-0.408,0.247-0.578c0.346-0.454,0.946-0.669,1.49-0.757L59.599,56.878z
		 M63.078,61.768c-0.401,0.636-1.219,0.851-1.924,0.895l0.168-3.349c0.427,0.135,0.855,0.283,1.243,0.511
		c0.178,0.105,0.349,0.228,0.48,0.388c0.123,0.148,0.195,0.326,0.225,0.517C63.324,61.082,63.271,61.464,63.078,61.768"/>
	<rect x="48.628" y="89.25" clip-path="url(#SVGID_31_)" fill="#1F46E7" width="22.745" height="22.917"/>
</g>
<g>
	<defs>
		<rect id="SVGID_32_" x="41.584" y="94.5" width="36.833" height="17.666"/>
	</defs>
	<clipPath id="SVGID_33_">
		<use xlink:href="#SVGID_32_"  overflow="visible"/>
	</clipPath>
	
		<linearGradient id="SVGID_34_" gradientUnits="userSpaceOnUse" x1="4.882813e-004" y1="120" x2="1.0005" y2="120" gradientTransform="matrix(0 -17.6667 -17.6667 0 2180 112.1719)">
		<stop  offset="0" style="stop-color:#1F46E7"/>
		<stop  offset="1" style="stop-color:#4263EB"/>
	</linearGradient>
	<rect x="41.584" y="94.5" clip-path="url(#SVGID_33_)" fill="url(#SVGID_34_)" width="36.833" height="17.666"/>
</g>
</svg>
