<?xml version="1.0" encoding="utf-8"?>
<!-- Generator: Adobe Illustrator 16.0.0, SVG Export Plug-In . SVG Version: 6.00 Build 0)  -->
<!DOCTYPE svg PUBLIC "-//W3C//DTD SVG 1.1//EN" "http://www.w3.org/Graphics/SVG/1.1/DTD/svg11.dtd">
<svg version="1.1" id="Слой_1" xmlns="http://www.w3.org/2000/svg" xmlns:xlink="http://www.w3.org/1999/xlink" x="0px" y="0px"
	 width="120px" height="120px" viewBox="0 0 120 120" enable-background="new 0 0 120 120" xml:space="preserve">
<g>
	<defs>
		<path id="SVGID_1_" d="M88.618,57.986l-1.254-1.253L88.618,57.986z M86.682,56.733l-7.486,7.486
			c-0.933,0.933-0.589,2.51,0.642,2.982c1.125,0.432,2.145,0.996,2.749,1.601c1.761,1.763,1.318,4.104-0.4,5.821
			c-1.717,1.717-4.059,2.16-5.819,0.399c-0.612-0.612-1.2-1.631-1.651-2.755c-0.482-1.206-2.04-1.528-2.959-0.608l-7.434,7.433
			c-0.189,0.189-0.189,0.494,0,0.684l7.433,7.433c0.92,0.92,2.478,0.598,2.96-0.609c0.451-1.123,1.039-2.141,1.651-2.753
			c1.761-1.761,4.103-1.317,5.819,0.399c1.719,1.718,2.161,4.06,0.4,5.821c-0.604,0.604-1.624,1.168-2.748,1.6
			c-1.231,0.473-1.575,2.05-0.643,2.983l7.486,7.485c0.188,0.188,0.494,0.188,0.683,0l7.434-7.434
			c0.92-0.919,2.477-0.599,2.96,0.608c0.45,1.124,1.038,2.143,1.651,2.755c1.761,1.762,4.103,1.318,5.819-0.399
			c1.718-1.718,2.16-4.059,0.399-5.821c-0.604-0.604-1.624-1.168-2.748-1.6c-1.23-0.472-1.575-2.05-0.642-2.982l7.828-7.828
			l-7.828-7.826c-0.934-0.934-0.589-2.512,0.642-2.983c1.125-0.432,2.144-0.996,2.748-1.601c1.761-1.762,1.318-4.104-0.399-5.82
			c-1.717-1.718-4.059-2.161-5.819-0.4c-0.613,0.613-1.201,1.631-1.651,2.754c-0.483,1.207-2.04,1.529-2.96,0.61l-7.434-7.434
			c-0.095-0.094-0.218-0.141-0.341-0.141C86.899,56.592,86.776,56.639,86.682,56.733 M87.364,56.733l-0.341-0.341L87.364,56.733z"/>
	</defs>
	<clipPath id="SVGID_2_">
		<use xlink:href="#SVGID_1_"  overflow="visible"/>
	</clipPath>
	
		<linearGradient id="SVGID_3_" gradientUnits="userSpaceOnUse" x1="-4.882813e-004" y1="120" x2="1.0005" y2="120" gradientTransform="matrix(45.8846 0 0 -45.8846 64.1875 5585.4966)">
		<stop  offset="0" style="stop-color:#4263EB"/>
		<stop  offset="1" style="stop-color:#1F46E7"/>
	</linearGradient>
	<rect x="64.133" y="56.392" clip-path="url(#SVGID_2_)" fill="url(#SVGID_3_)" width="45.934" height="45.931"/>
</g>
<g>
	<defs>
		<rect id="SVGID_4_" width="120" height="120"/>
	</defs>
	<clipPath id="SVGID_5_">
		<use xlink:href="#SVGID_4_"  overflow="visible"/>
	</clipPath>
	<path clip-path="url(#SVGID_5_)" fill="#1F46E7" d="M71.756,87.209c0.919,0.919,2.476,0.598,2.96-0.609
		c0.45-1.124,1.038-2.142,1.649-2.754c1.763-1.761,4.104-1.318,5.821,0.399c1.718,1.718,2.16,4.06,0.399,5.82
		c-0.605,0.605-1.623,1.168-2.748,1.601c-1.231,0.473-1.575,2.05-0.643,2.982l7.486,7.486c0.188,0.189,0.494,0.189,0.683,0
		l7.434-7.434c0.92-0.919,2.476-0.598,2.96,0.609c0.451,1.123,1.038,2.142,1.65,2.753c1.762,1.763,4.104,1.319,5.82-0.398
		c1.718-1.717,2.161-4.06,0.399-5.82c-0.605-0.604-1.623-1.169-2.748-1.601c-1.231-0.473-1.574-2.051-0.643-2.983l7.828-7.827
		C92.752,73.956,80.283,77.085,71.756,87.209"/>
</g>
<g>
	<defs>
		<path id="SVGID_6_" d="M32.636,59.471l-7.434,7.434c-0.919,0.919-2.476,0.598-2.959-0.609c-0.451-1.123-1.039-2.142-1.651-2.754
			c-1.761-1.761-4.103-1.318-5.821,0.4c-1.717,1.717-2.16,4.059-0.399,5.819c0.605,0.605,1.624,1.169,2.748,1.601
			c1.232,0.473,1.575,2.05,0.642,2.982l-7.827,7.827l7.827,7.827c0.933,0.934,0.59,2.511-0.642,2.984
			c-1.124,0.431-2.143,0.994-2.748,1.6c-1.761,1.761-1.318,4.103,0.399,5.82c1.718,1.719,4.06,2.161,5.821,0.399
			c0.612-0.612,1.2-1.631,1.651-2.754c0.483-1.207,2.04-1.527,2.959-0.608l7.775,7.774l-1.595-1.595l1.254,1.254
			c0.188,0.188,0.494,0.188,0.682,0l7.486-7.487c0.934-0.932,0.59-2.51-0.641-2.981c-1.125-0.433-2.143-0.995-2.748-1.601
			c-1.762-1.762-1.319-4.104,0.399-5.82c1.717-1.719,4.058-2.16,5.82-0.399c0.613,0.612,1.2,1.63,1.65,2.754
			c0.485,1.206,2.041,1.528,2.961,0.608l7.433-7.434c0.189-0.188,0.189-0.494,0-0.683l-7.433-7.433
			c-0.92-0.921-2.476-0.599-2.961,0.608c-0.451,1.123-1.038,2.142-1.65,2.753c-1.762,1.763-4.103,1.319-5.82-0.397
			c-1.718-1.72-2.161-4.061-0.399-5.822c0.605-0.604,1.623-1.168,2.748-1.6c1.231-0.473,1.574-2.051,0.641-2.982l-7.486-7.487
			c-0.094-0.094-0.218-0.141-0.341-0.141C32.853,59.33,32.73,59.377,32.636,59.471"/>
	</defs>
	<clipPath id="SVGID_7_">
		<use xlink:href="#SVGID_6_"  overflow="visible"/>
	</clipPath>
	
		<linearGradient id="SVGID_8_" gradientUnits="userSpaceOnUse" x1="9.765625e-004" y1="120" x2="1.002" y2="120" gradientTransform="matrix(45.8846 0 0 -45.8846 9.9375 5588.4341)">
		<stop  offset="0" style="stop-color:#239B6A"/>
		<stop  offset="1" style="stop-color:#4CCD9B"/>
	</linearGradient>
	<rect x="9.935" y="59.33" clip-path="url(#SVGID_7_)" fill="url(#SVGID_8_)" width="45.932" height="45.885"/>
</g>
<g>
	<defs>
		<rect id="SVGID_9_" width="120" height="120"/>
	</defs>
	<clipPath id="SVGID_10_">
		<use xlink:href="#SVGID_9_"  overflow="visible"/>
	</clipPath>
	<path clip-path="url(#SVGID_10_)" fill="#239B6A" d="M17.762,90c0.933,0.933,0.59,2.51-0.642,2.982
		c-1.125,0.433-2.143,0.995-2.748,1.601c-1.761,1.762-1.318,4.103,0.399,5.82c1.718,1.718,4.059,2.16,5.821,0.399
		c0.612-0.612,1.2-1.63,1.65-2.754c0.484-1.207,2.041-1.528,2.96-0.609l7.775,7.775l-1.595-1.595l1.254,1.254
		c0.188,0.188,0.494,0.188,0.682,0l7.486-7.486c0.933-0.933,0.59-2.511-0.642-2.983c-1.124-0.432-2.143-0.994-2.748-1.6
		c-1.761-1.762-1.318-4.104,0.399-5.821c1.718-1.718,4.06-2.16,5.821-0.398c0.612,0.611,1.2,1.63,1.651,2.754
		c0.483,1.206,2.04,1.528,2.959,0.608C40.692,80.21,25.525,80.21,17.762,90"/>
</g>
<g>
	<defs>
		<path id="SVGID_11_" d="M36.927,39.222l-1.187-1.188l-0.407-0.406L36.927,39.222z M58.034,14.927L50.6,22.36
			c-0.919,0.92-0.598,2.476,0.609,2.96c1.123,0.451,2.142,1.039,2.754,1.651c1.761,1.761,1.319,4.103-0.399,5.82
			c-1.718,1.718-4.059,2.161-5.821,0.399c-0.605-0.605-1.168-1.623-1.6-2.748c-0.472-1.231-2.05-1.574-2.983-0.642l-7.486,7.486
			c-0.189,0.189-0.189,0.495,0,0.683l0.066,0.065l7.367,7.369c0.92,0.919,0.598,2.475-0.608,2.96
			c-1.124,0.45-2.142,1.037-2.754,1.649c-1.761,1.762-1.319,4.103,0.399,5.822c1.718,1.717,4.06,2.16,5.821,0.398
			c0.605-0.604,1.168-1.623,1.6-2.747c0.473-1.232,2.05-1.575,2.983-0.642l7.827,7.827l7.827-7.828
			c0.933-0.932,2.51-0.589,2.983,0.643c0.432,1.124,0.994,2.143,1.601,2.747c1.761,1.762,4.103,1.319,5.82-0.398
			c1.717-1.719,2.159-4.06,0.398-5.822c-0.612-0.612-1.63-1.199-2.753-1.649c-1.207-0.485-1.529-2.041-0.609-2.96l7.434-7.434
			c0.188-0.188,0.188-0.494,0-0.683L73.59,29.8c-0.933-0.932-2.511-0.589-2.982,0.643c-0.432,1.124-0.996,2.143-1.601,2.747
			c-1.762,1.762-4.103,1.319-5.821-0.399c-1.718-1.717-2.16-4.059-0.398-5.82c0.613-0.612,1.63-1.2,2.754-1.651
			c1.207-0.484,1.528-2.04,0.609-2.96l-7.435-7.433c-0.094-0.095-0.218-0.142-0.341-0.142
			C58.251,14.785,58.128,14.832,58.034,14.927"/>
	</defs>
	<clipPath id="SVGID_12_">
		<use xlink:href="#SVGID_11_"  overflow="visible"/>
	</clipPath>
	
		<linearGradient id="SVGID_13_" gradientUnits="userSpaceOnUse" x1="-4.882813e-004" y1="119.999" x2="1.0005" y2="119.999" gradientTransform="matrix(45.8846 0 0 -45.8846 35.3438 5543.874)">
		<stop  offset="0" style="stop-color:#F2751C"/>
		<stop  offset="1" style="stop-color:#FFC400"/>
	</linearGradient>
	<rect x="35.333" y="14.785" clip-path="url(#SVGID_12_)" fill="url(#SVGID_13_)" width="45.932" height="45.885"/>
</g>
<g>
	<defs>
		<rect id="SVGID_14_" width="120" height="120"/>
	</defs>
	<clipPath id="SVGID_15_">
		<use xlink:href="#SVGID_14_"  overflow="visible"/>
	</clipPath>
	<path clip-path="url(#SVGID_15_)" fill="#F2751C" d="M81.076,37.286c0.188,0.189,0.188,0.494,0,0.683l-7.435,7.433
		c-0.919,0.92-0.597,2.476,0.609,2.96c1.124,0.451,2.142,1.038,2.754,1.651c1.762,1.761,1.319,4.103-0.398,5.82
		c-1.718,1.718-4.06,2.161-5.821,0.399c-0.604-0.605-1.168-1.623-1.601-2.748c-0.472-1.231-2.05-1.575-2.982-0.642l-7.827,7.828
		l-7.827-7.828c-0.933-0.932-2.511-0.589-2.983,0.642c-0.432,1.125-0.996,2.143-1.6,2.748c-1.762,1.762-4.104,1.319-5.821-0.399
		c-1.718-1.717-2.16-4.059-0.399-5.82c0.612-0.613,1.63-1.2,2.754-1.651c1.206-0.484,1.528-2.04,0.609-2.96
		C53.862,38.334,66.97,36.666,81.076,37.286"/>
</g>
</svg>
