<?xml version="1.0" encoding="utf-8"?>
<!-- Generator: Adobe Illustrator 16.0.0, SVG Export Plug-In . SVG Version: 6.00 Build 0)  -->
<!DOCTYPE svg PUBLIC "-//W3C//DTD SVG 1.1//EN" "http://www.w3.org/Graphics/SVG/1.1/DTD/svg11.dtd">
<svg version="1.1" id="Слой_1" xmlns="http://www.w3.org/2000/svg" xmlns:xlink="http://www.w3.org/1999/xlink" x="0px" y="0px"
	 width="120px" height="120px" viewBox="0 0 120 120" enable-background="new 0 0 120 120" xml:space="preserve">
<g>
	<defs>
		<path id="SVGID_1_" d="M50.275,61.128c-4.714,8.05-9.302,23.022-12.016,26.211c-0.139,0.509,0.045,1.051,0.465,1.37l10.957,9.589
			c4.037-4.795,12.28-11.216,11.603-21.625c0.104-0.42-5.099-1.764-5.391-2.083l-1.022-10.796c-0.594-0.647-2.787-2.844-4.068-2.844
			C50.601,60.95,50.422,61.005,50.275,61.128"/>
	</defs>
	<clipPath id="SVGID_2_">
		<use xlink:href="#SVGID_1_"  overflow="visible"/>
	</clipPath>
	
		<linearGradient id="SVGID_3_" gradientUnits="userSpaceOnUse" x1="0" y1="120.002" x2="1" y2="120.002" gradientTransform="matrix(-21.2222 24.0702 -24.0702 -21.2222 2947.0476 2616.6687)">
		<stop  offset="0" style="stop-color:#4CCD9B"/>
		<stop  offset="1" style="stop-color:#239B6A"/>
	</linearGradient>
	<polygon clip-path="url(#SVGID_2_)" fill="url(#SVGID_3_)" points="48.547,49.124 19.593,81.963 51.534,110.125 80.488,77.285 	"/>
</g>
<g>
	<defs>
		<rect id="SVGID_4_" width="120" height="120"/>
	</defs>
	<clipPath id="SVGID_5_">
		<use xlink:href="#SVGID_4_"  overflow="visible"/>
	</clipPath>
	<path clip-path="url(#SVGID_5_)" fill="#4CCD9B" d="M52.66,58.413c11.679-8.864,27.442-10.092,42.005-0.957
		c12.015,12.3-6.192,35.14-2.715,53.163H51.629c-2.37-21.87-3.93-27.099-2.036-46.683C49.804,61.749,50.91,59.741,52.66,58.413"/>
	<path clip-path="url(#SVGID_5_)" fill="#EAEACD" d="M44.146,29.83c1.071,9.182,3.302,15.362,8.06,20.822
		c1.321,1.516,3.429,2.082,5.34,1.455l0.049-0.016c1.414-0.42,1.958-0.899,1.958-0.899c-0.112,1.495-0.057,3.462,0.098,5.712
		c0.013,0.411,0.112,0.816,0.29,1.187c3.906,8.148,15.045,3.013,17.596-3.379c0.382-0.956,0.376-2.023,0.046-2.998
		C75.875,44.742,61.5,20.75,61.769,21.698L44.146,29.83z"/>
	<path clip-path="url(#SVGID_5_)" fill="#4263EB" d="M46.336,23.125l12.262-7.212c6.62-2.114,12.342,1.423,14.364,8.031
		c2.037,6.66,2.554,13.459,1.401,20.41c-0.128,0.77-1.04,1.119-1.649,0.631l-2.542-5.379c0.975-0.876,1.568-2.446,1.451-4.195
		c-0.174-2.594-1.323-3.777-3.202-3.651c-1.061,0.071-1.806,1.115-2.401,2.182c-0.234,0.421-1.12,0.121-1.216-1.178L64.396,31.1
		c-0.98-4.013-5.282-6.235-9.123-4.712l-10.036,2.72C39.49,28.011,39.384,25.261,46.336,23.125"/>
	
		<path clip-path="url(#SVGID_5_)" fill="none" stroke="#C8CBAC" stroke-width="0.406" stroke-linecap="round" stroke-miterlimit="10" d="
		M65.067,43.68c-0.309,2.819-1.746,5.418-5.94,7.48"/>
	<path clip-path="url(#SVGID_5_)" fill="#4263EB" d="M64.729,25.688c-3.249,2.808-3.807,0.009-6.434,0.444
		c-5.582,1.421-7.122,4.241-13.681,6.253c-3.576,0.854-6.554-1.682-6.395-5.317c0.245-3.126,3.307-4.168,5.413-3.35
		c1.642-3.648,4.627-6.439,8.364-7.388c5.791-1.472,13,0.731,16.815,5.238L64.729,25.688z"/>
</g>
<g>
	<defs>
		<path id="SVGID_6_" d="M86.324,57.099c-2.259,0.413-3.221,3.523-2.08,7.193c4.533,12.893,7.945,27.808,10.689,43.926
			c0.512,1.994,2.13,3.718,3.929,4.187c2.03,0.526,7.704-0.301,8.765-2.077c3.677-6.162-2.044-33.162-7.482-46.003
			c-1.724-4.071-4.345-7.698-9.143-7.752c-0.028-0.001-0.055-0.001-0.083-0.001C89.421,56.571,87.901,56.811,86.324,57.099"/>
	</defs>
	<clipPath id="SVGID_7_">
		<use xlink:href="#SVGID_6_"  overflow="visible"/>
	</clipPath>
	
		<linearGradient id="SVGID_8_" gradientUnits="userSpaceOnUse" x1="0" y1="119.9912" x2="1" y2="119.9912" gradientTransform="matrix(-27.463 -41.7206 -41.7206 27.463 5122.7817 -3180.8533)">
		<stop  offset="0" style="stop-color:#F1B827"/>
		<stop  offset="1" style="stop-color:#FECC4D"/>
	</linearGradient>
	<polygon clip-path="url(#SVGID_7_)" fill="url(#SVGID_8_)" points="91.629,125.882 57.22,73.609 102.778,43.62 137.188,95.893 	"/>
</g>
<g>
	<defs>
		<rect id="SVGID_9_" width="120" height="120"/>
	</defs>
	<clipPath id="SVGID_10_">
		<use xlink:href="#SVGID_9_"  overflow="visible"/>
	</clipPath>
	<path clip-path="url(#SVGID_10_)" fill="#1F46E7" d="M35.444,110.551l31.788,0.067c1.318,0.002,2.305-1.208,2.037-2.498
		l-4.618-22.281c-0.173-0.833-0.871-1.372-1.78-1.373l-32.525-0.07c-2.434-0.005-2.524,0.879-2.205,2.488l4.418,21.313
		C32.843,109.565,34.047,110.548,35.444,110.551"/>
	<path clip-path="url(#SVGID_10_)" fill="#4263EB" d="M33.68,110.547l31.789,0.068c1.317,0.002,2.305-1.208,2.036-2.498
		l-4.617-22.282c-0.174-0.833-0.871-1.372-1.78-1.373l-32.525-0.07c-2.434-0.005-2.524,0.879-2.205,2.488l4.418,21.313
		C31.079,109.562,32.283,110.544,33.68,110.547"/>
	<path clip-path="url(#SVGID_10_)" fill="#3054E9" d="M33.68,110.547l31.789,0.068c1.317,0.002,2.305-1.208,2.036-2.498
		l-3.53-17.037C51.243,94.16,39.038,99.33,33.68,110.547"/>
	<path clip-path="url(#SVGID_10_)" fill="#EAEACD" d="M61.481,93.337l-3.148-1.444c-0.272-0.096-0.558-0.149-0.847-0.161
		l-2.955-0.111c-0.188-0.008-0.36,0.107-0.425,0.285l-0.054,0.15c-0.158,0.435,0.089,0.912,0.535,1.033l2.065,0.575
		c0.13,0.035,0.253,0.094,0.365,0.17l2.381,2.142L61.481,93.337z"/>
	<path clip-path="url(#SVGID_10_)" fill="#EAEACD" d="M56.3,97.048L56.3,97.048c-0.632,2.249,0.879,4.874,3.214,5.53
		c1.141-0.473,2.412-0.534,3.593-0.172l37.693,11.553c2.335,0.656,5.256-2.14,6.025-5.146c0.6-2.747-0.919-5.697-3.254-6.354
		l-40.551-8.146l-1.539-0.977C59.146,92.682,56.932,94.799,56.3,97.048"/>
	<path clip-path="url(#SVGID_10_)" fill="#EAEACD" d="M65.038,97.401c-2.394-2.131-5.457-3.137-9.685-2.183l-8.027,2.177
		c-1.048,0.284-1.267,1.773-0.36,2.453l5.369,4.018c1.17,0.875,2.632,1.134,3.966,0.702l6.735-2.182L65.038,97.401z"/>
	<path clip-path="url(#SVGID_10_)" fill="#EAEACD" d="M66.206,35.475c-0.127,2.49,1.233,4.583,3.037,4.675
		c1.805,0.092,3.371-1.851,3.498-4.341c0.127-2.49-1.233-4.583-3.037-4.675C67.899,31.042,66.333,32.985,66.206,35.475"/>
	<path clip-path="url(#SVGID_10_)" fill="#FFFFFF" d="M94.894,107.78c0,3.655,2.964,6.621,6.621,6.621
		c3.655,0,6.62-2.966,6.62-6.621c0-3.656-2.965-6.621-6.62-6.621C97.857,101.159,94.894,104.124,94.894,107.78"/>
</g>
<g>
	<defs>
		<path id="SVGID_11_" d="M86.324,57.099c-2.259,0.413-5.662,4.875-4.522,8.544c1.961,12.999,6.5,21.5,11.57,33.938l-27.264-5.063
			c-1.095,1.231-2.225,5.887-1.308,8.797c0,0,30.334,10.74,36.713,11.086c2.747,0.148,5.11-1.68,6.11-4.069
			c0.001-0.001,0.002-0.002,0.003-0.004c3.677-6.162-2.044-33.162-7.482-46.003c-1.724-4.071-4.219-7.013-9.25-8.992
			c-0.17-0.067-0.342-0.096-0.515-0.096C89.104,55.236,87.738,56.841,86.324,57.099"/>
	</defs>
	<clipPath id="SVGID_12_">
		<use xlink:href="#SVGID_11_"  overflow="visible"/>
	</clipPath>
	
		<linearGradient id="SVGID_13_" gradientUnits="userSpaceOnUse" x1="0" y1="120.0605" x2="1" y2="120.0605" gradientTransform="matrix(-30.7644 -39.2632 39.2632 -30.7644 -4603.6284 3807.5464)">
		<stop  offset="0" style="stop-color:#239B6A"/>
		<stop  offset="1" style="stop-color:#4CCD9B"/>
	</linearGradient>
	<polygon clip-path="url(#SVGID_12_)" fill="url(#SVGID_13_)" points="140.1,91.986 93.266,32.214 35.088,77.799 81.923,137.57 	"/>
</g>
<g>
	<defs>
		<rect id="SVGID_14_" width="120" height="120"/>
	</defs>
	<clipPath id="SVGID_15_">
		<use xlink:href="#SVGID_14_"  overflow="visible"/>
	</clipPath>
	<path clip-path="url(#SVGID_15_)" fill="#F2751C" d="M7.747,62.94c1.458,6.746,8.109,11.033,14.855,9.576
		c6.747-1.458,11.034-8.109,9.576-14.856c-1.458-6.746-8.109-11.033-14.856-9.575C10.576,49.543,6.289,56.194,7.747,62.94"/>
</g>
<g>
	<defs>
		<path id="SVGID_16_" d="M17.322,48.085c-6.746,1.458-11.033,8.109-9.575,14.855c0.697,3.227,2.583,5.888,5.099,7.63l13.53-20.991
			c-1.902-1.139-4.108-1.778-6.407-1.778C19.096,47.801,18.21,47.893,17.322,48.085"/>
	</defs>
	<clipPath id="SVGID_17_">
		<use xlink:href="#SVGID_16_"  overflow="visible"/>
	</clipPath>
	
		<linearGradient id="SVGID_18_" gradientUnits="userSpaceOnUse" x1="0" y1="120.0645" x2="1" y2="120.0645" gradientTransform="matrix(-4.4427 -20.5575 -20.5575 4.4427 2486.7295 -464.0732)">
		<stop  offset="0" style="stop-color:#F2751C"/>
		<stop  offset="1" style="stop-color:#FFC400"/>
	</linearGradient>
	<polygon clip-path="url(#SVGID_17_)" fill="url(#SVGID_18_)" points="7.185,74.718 1.588,48.817 25.479,43.654 31.077,69.554 	"/>
</g>
<g>
	<defs>
		<rect id="SVGID_19_" width="120" height="120"/>
	</defs>
	<clipPath id="SVGID_20_">
		<use xlink:href="#SVGID_19_"  overflow="visible"/>
	</clipPath>
	<path clip-path="url(#SVGID_20_)" fill="#FECC4D" d="M11.051,62.227c1.064,4.921,5.915,8.049,10.837,6.984
		c4.921-1.063,8.048-5.915,6.985-10.836c-1.064-4.922-5.916-8.049-10.837-6.986C13.115,52.453,9.987,57.305,11.051,62.227"/>
	<path clip-path="url(#SVGID_20_)" fill="#F2751C" d="M23.866,60.415c0.072,0.08,0.141,0.156-0.003-0.005
		c-0.148-0.163-0.076-0.084-0.003-0.003c-0.472-0.523-1.149-0.774-1.83-0.887c-0.45-0.074-0.909-0.094-1.365-0.104l-0.614-2.843
		c0.379-0.014,0.768,0.023,1.118,0.18c0.161,0.073,0.309,0.171,0.435,0.296c0.064,0.064,0.123,0.134,0.174,0.21
		c0.049,0.075,0.084,0.158,0.133,0.233c0.165,0.253,0.474,0.387,0.772,0.337c0.303-0.052,0.551-0.287,0.619-0.587
		c0.034-0.146,0.024-0.301-0.03-0.441c-0.033-0.088-0.081-0.172-0.128-0.253c-0.051-0.087-0.106-0.171-0.165-0.252
		c-0.214-0.289-0.483-0.54-0.787-0.732c-0.642-0.408-1.414-0.554-2.166-0.528c-0.102,0.003-0.203,0.009-0.303,0.018l-0.179-0.825
		c-0.063-0.291-0.294-0.524-0.584-0.588c-0.294-0.065-0.608,0.053-0.785,0.295c-0.13,0.176-0.179,0.403-0.133,0.617l0.18,0.83
		c-0.715,0.264-1.388,0.707-1.831,1.335c-0.207,0.294-0.356,0.627-0.433,0.979c-0.083,0.375-0.074,0.762,0.01,1.137
		c0.082,0.369,0.23,0.726,0.464,1.025c0.222,0.283,0.515,0.499,0.837,0.655c0.665,0.319,1.426,0.395,2.153,0.425l0.642,2.971
		c-0.373-0.022-0.747-0.115-1.067-0.313c-0.156-0.096-0.299-0.215-0.421-0.352c-0.063-0.068-0.119-0.143-0.169-0.221
		c-0.051-0.079-0.089-0.163-0.137-0.244c-0.153-0.261-0.456-0.408-0.756-0.372c-0.306,0.038-0.564,0.263-0.646,0.559
		c-0.039,0.145-0.036,0.299,0.01,0.44c0.027,0.085,0.071,0.164,0.114,0.242c0.047,0.085,0.098,0.17,0.152,0.251
		c0.208,0.313,0.471,0.586,0.769,0.813c0.598,0.456,1.334,0.691,2.081,0.733c0.134,0.008,0.269,0.01,0.404,0.005l0.189,0.874
		c0.062,0.29,0.294,0.524,0.584,0.589c0.294,0.064,0.607-0.054,0.785-0.296c0.13-0.176,0.179-0.403,0.132-0.616l-0.172-0.801
		c0.741-0.224,1.453-0.606,1.957-1.207c0.477-0.567,0.719-1.305,0.641-2.046C24.456,61.391,24.242,60.836,23.866,60.415
		 M19.353,59.322c-0.186-0.016-0.359-0.036-0.514-0.063c-0.186-0.032-0.372-0.076-0.546-0.147c-0.156-0.063-0.313-0.15-0.409-0.293
		c-0.102-0.149-0.153-0.34-0.173-0.517c-0.021-0.177,0.005-0.354,0.073-0.519c0.179-0.44,0.616-0.744,1.035-0.932L19.353,59.322z
		 M23.212,62.502c-0.185,0.599-0.796,0.948-1.355,1.137l-0.59-2.731c0.373,0.017,0.75,0.043,1.111,0.143
		c0.166,0.045,0.33,0.107,0.471,0.208c0.132,0.093,0.228,0.22,0.292,0.367C23.261,61.896,23.3,62.216,23.212,62.502"/>
</g>
<g>
	<defs>
		<path id="SVGID_21_" d="M89.803,19.476c-1.213,6.795,3.313,13.287,10.108,14.499c6.795,1.213,13.287-3.314,14.499-10.108
			c1.212-6.795-3.313-13.286-10.108-14.5c-0.743-0.132-1.48-0.196-2.21-0.196C96.151,9.171,90.883,13.424,89.803,19.476"/>
	</defs>
	<clipPath id="SVGID_22_">
		<use xlink:href="#SVGID_21_"  overflow="visible"/>
	</clipPath>
	
		<linearGradient id="SVGID_23_" gradientUnits="userSpaceOnUse" x1="0" y1="119.9785" x2="1" y2="119.9785" gradientTransform="matrix(24.6071 4.3907 4.3907 -24.6071 -437.0895 2972.3215)">
		<stop  offset="0" style="stop-color:#4263EB"/>
		<stop  offset="1" style="stop-color:#1F46E7"/>
	</linearGradient>
	<polygon clip-path="url(#SVGID_22_)" fill="url(#SVGID_23_)" points="89.424,4.497 120.121,9.974 114.788,39.863 84.091,34.385 	
		"/>
</g>
<g>
	<defs>
		<rect id="SVGID_24_" width="120" height="120"/>
	</defs>
	<clipPath id="SVGID_25_">
		<use xlink:href="#SVGID_24_"  overflow="visible"/>
	</clipPath>
	<path clip-path="url(#SVGID_25_)" fill="#EAEACD" d="M105.963,31.766l-10.966-1.957l0.097-0.545
		c0.158-0.885,1.004-1.475,1.889-1.317l7.761,1.385c0.886,0.158,1.475,1.003,1.316,1.889L105.963,31.766z"/>
	
		<rect x="94.996" y="29.818" transform="matrix(0.9844 0.1757 -0.1757 0.9844 6.8888 -17.197)" clip-path="url(#SVGID_25_)" fill="#C8CBAC" width="11.139" height="0.977"/>
	<path clip-path="url(#SVGID_25_)" fill="#D8D7BF" d="M104.997,29.377l-8.269-1.475l0.059-0.329c0.063-0.35,0.396-0.583,0.746-0.52
		l7.002,1.249c0.351,0.062,0.583,0.397,0.521,0.746L104.997,29.377z"/>
	<path clip-path="url(#SVGID_25_)" fill="#EAEACD" d="M104.546,28.304l-7.022-1.253c1.461-2.254,2.537-4.577,3.229-6.968
		l3.175,0.567C103.646,23.334,103.852,25.886,104.546,28.304"/>
	<path clip-path="url(#SVGID_25_)" fill="#D8D7BF" d="M104.079,20.676l-3.479-0.621c-0.178-0.031-0.297-0.203-0.265-0.38
		c0.03-0.177,0.202-0.297,0.38-0.265l3.479,0.621c0.179,0.032,0.297,0.203,0.266,0.38C104.427,20.588,104.256,20.708,104.079,20.676
		"/>
	<path clip-path="url(#SVGID_25_)" fill="#EAEACD" d="M104.582,17.855l-3.479-0.621c-0.179-0.031-0.297-0.203-0.266-0.38
		c0.031-0.177,0.202-0.297,0.38-0.265l3.479,0.621c0.178,0.032,0.297,0.203,0.265,0.38
		C104.931,17.767,104.759,17.887,104.582,17.855"/>
	
		<rect x="101.252" y="17.532" transform="matrix(0.9844 0.1757 -0.1757 0.9844 4.8156 -17.7626)" clip-path="url(#SVGID_25_)" fill="#C8CBAC" width="2.907" height="1.555"/>
	<path clip-path="url(#SVGID_25_)" fill="#C8CBAC" d="M104.7,11.883c-0.081,0.454-0.514,0.756-0.968,0.675s-0.756-0.514-0.675-0.968
		s0.514-0.756,0.968-0.675S104.781,11.429,104.7,11.883"/>
	<path clip-path="url(#SVGID_25_)" fill="#C8CBAC" d="M105.36,14.42c-0.188,1.049-1.19,1.748-2.239,1.561s-1.748-1.19-1.561-2.239
		c0.187-1.049,1.189-1.748,2.238-1.561C104.849,12.368,105.547,13.372,105.36,14.42"/>
	<path clip-path="url(#SVGID_25_)" fill="#D8D7BF" d="M104.389,17.155l-2.862-0.511l-0.7-3.864c0.445,0.065,0.769,0.279,0.933,0.688
		c1.354-0.739,2.566-0.477,3.658,0.64c0.175-0.329,0.52-0.407,0.965-0.336L104.389,17.155z"/>
	<path clip-path="url(#SVGID_25_)" fill="#EAEACD" d="M104.193,20.031l-3.479-0.621c-0.178-0.031-0.297-0.203-0.265-0.38
		c0.03-0.177,0.201-0.297,0.38-0.265l3.479,0.621c0.178,0.032,0.297,0.203,0.266,0.38C104.542,19.943,104.371,20.063,104.193,20.031
		"/>
</g>
<g>
	<defs>
		<path id="SVGID_26_" d="M83.349,27.363c0,1.249,1.014,2.263,2.264,2.263s2.263-1.014,2.263-2.263c0-1.25-1.013-2.263-2.263-2.263
			S83.349,26.113,83.349,27.363"/>
	</defs>
	<clipPath id="SVGID_27_">
		<use xlink:href="#SVGID_26_"  overflow="visible"/>
	</clipPath>
	
		<linearGradient id="SVGID_28_" gradientUnits="userSpaceOnUse" x1="0" y1="120.001" x2="1" y2="120.001" gradientTransform="matrix(2.4747 -3.1583 -3.1583 -2.4747 463.0388 326.3358)">
		<stop  offset="0" style="stop-color:#4263EB"/>
		<stop  offset="1" style="stop-color:#1F46E7"/>
	</linearGradient>
	<polygon clip-path="url(#SVGID_27_)" fill="url(#SVGID_28_)" points="81.151,27.904 85.07,22.903 90.072,26.822 86.153,31.823 	"/>
</g>
<g>
	<defs>
		<path id="SVGID_29_" d="M78.818,32.959c0,0.899,0.729,1.628,1.628,1.628c0.898,0,1.628-0.729,1.628-1.628
			s-0.729-1.628-1.628-1.628C79.547,31.331,78.818,32.06,78.818,32.959"/>
	</defs>
	<clipPath id="SVGID_30_">
		<use xlink:href="#SVGID_29_"  overflow="visible"/>
	</clipPath>
	
		<linearGradient id="SVGID_31_" gradientUnits="userSpaceOnUse" x1="0" y1="120" x2="1" y2="120" gradientTransform="matrix(1.7805 -2.2723 -2.2723 -1.7805 351.9943 248.0646)">
		<stop  offset="0" style="stop-color:#4263EB"/>
		<stop  offset="1" style="stop-color:#1F46E7"/>
	</linearGradient>
	<polygon clip-path="url(#SVGID_30_)" fill="url(#SVGID_31_)" points="77.237,33.349 80.057,29.75 83.654,32.569 80.835,36.168 	"/>
</g>
<g>
	<defs>
		<path id="SVGID_32_" d="M16.334,4.17C9.479,4.98,4.577,11.195,5.387,18.051c0.811,6.856,7.026,11.756,13.881,10.946
			c6.856-0.81,11.757-7.024,10.947-13.88c-0.751-6.358-6.15-11.035-12.399-11.035C17.327,4.082,16.832,4.111,16.334,4.17"/>
	</defs>
	<clipPath id="SVGID_33_">
		<use xlink:href="#SVGID_32_"  overflow="visible"/>
	</clipPath>
	
		<linearGradient id="SVGID_34_" gradientUnits="userSpaceOnUse" x1="0" y1="119.9863" x2="1" y2="119.9863" gradientTransform="matrix(24.8272 -2.934 -2.934 -24.8272 357.472 2997.3149)">
		<stop  offset="0" style="stop-color:#239B6A"/>
		<stop  offset="1" style="stop-color:#4CCD9B"/>
	</linearGradient>
	<polygon clip-path="url(#SVGID_33_)" fill="url(#SVGID_34_)" points="1.579,4.437 30.661,1 34.023,29.453 4.941,32.89 	"/>
</g>
<g>
	<defs>
		<rect id="SVGID_35_" width="120" height="120"/>
	</defs>
	<clipPath id="SVGID_36_">
		<use xlink:href="#SVGID_35_"  overflow="visible"/>
	</clipPath>
	<path clip-path="url(#SVGID_36_)" fill="#EAEACD" d="M27.437,15.445c0.629,5.322-3.175,10.146-8.497,10.775
		c-5.322,0.628-10.146-3.176-10.775-8.498c-0.629-5.321,3.176-10.145,8.497-10.774C21.984,6.319,26.808,10.123,27.437,15.445"/>
	
		<circle clip-path="url(#SVGID_36_)" fill="none" stroke="#4CCD9B" stroke-width="0.395" stroke-linecap="round" stroke-miterlimit="10" cx="17.801" cy="16.584" r="6.344"/>
	<path clip-path="url(#SVGID_36_)" fill="#239B6A" d="M18.905,16.454c0.072,0.609-0.364,1.162-0.973,1.234
		c-0.609,0.072-1.162-0.364-1.234-0.973c-0.072-0.61,0.364-1.162,0.973-1.234C18.281,15.408,18.833,15.844,18.905,16.454"/>
	
		<line clip-path="url(#SVGID_36_)" fill="none" stroke="#239B6A" stroke-width="0.395" stroke-linecap="round" stroke-miterlimit="10" x1="21.713" y1="9.038" x2="17.801" y2="16.584"/>
	
		<line clip-path="url(#SVGID_36_)" fill="none" stroke="#239B6A" stroke-width="0.474" stroke-linecap="round" stroke-miterlimit="10" x1="24.003" y1="15.851" x2="18.173" y2="16.54"/>
	<path clip-path="url(#SVGID_36_)" fill="#4CCD9B" d="M36.398,11.156c-0.062,1.248-1.124,2.21-2.373,2.148
		c-1.248-0.062-2.209-1.124-2.147-2.373c0.062-1.248,1.124-2.21,2.372-2.148S36.46,9.908,36.398,11.156"/>
	<path clip-path="url(#SVGID_36_)" fill="#4CCD9B" d="M42.905,13.962c-0.039,0.777-0.699,1.375-1.476,1.336
		c-0.776-0.038-1.375-0.699-1.336-1.476c0.039-0.776,0.699-1.375,1.476-1.336C42.345,12.525,42.943,13.185,42.905,13.962"/>
	<path clip-path="url(#SVGID_36_)" fill="#F2751C" d="M39.456,54.959c1.045,0.686,1.335,2.089,0.649,3.134
		c-0.686,1.044-2.089,1.335-3.134,0.649s-1.335-2.089-0.649-3.134C37.008,54.563,38.411,54.273,39.456,54.959"/>
	<path clip-path="url(#SVGID_36_)" fill="#F2751C" d="M46.327,49.983c0.65,0.427,0.831,1.3,0.404,1.95
		c-0.427,0.649-1.3,0.83-1.95,0.403c-0.65-0.427-0.83-1.299-0.404-1.949C44.804,49.737,45.677,49.557,46.327,49.983"/>
</g>
</svg>
