<svg xmlns="http://www.w3.org/2000/svg" xmlns:xlink="http://www.w3.org/1999/xlink" viewBox="0 0 520 360"><defs><style>.cls-1{fill:#fff;}.cls-2{fill:#d9edf6;}.cls-21,.cls-3,.cls-4,.cls-7{fill:none;stroke-miterlimit:10;}.cls-3{stroke:#96b7e1;stroke-linecap:round;stroke-width:1px;}.cls-4,.cls-7{stroke-width:2px;}.cls-4{stroke:url(#linear-gradient);}.cls-5{fill:url(#linear-gradient-2);}.cls-6{fill:#96b7e1;}.cls-7{stroke:url(#linear-gradient-3);}.cls-8{fill:url(#linear-gradient-4);}.cls-9{fill:url(#linear-gradient-5);}.cls-10{fill:url(#linear-gradient-6);}.cls-11{fill:url(#linear-gradient-7);}.cls-12{fill:url(#linear-gradient-8);}.cls-13{fill:url(#linear-gradient-9);}.cls-14{fill:url(#linear-gradient-10);}.cls-15{fill:url(#linear-gradient-11);}.cls-16{fill:url(#linear-gradient-12);}.cls-17{fill:url(#linear-gradient-13);}.cls-18{fill:url(#linear-gradient-14);}.cls-19{fill:url(#linear-gradient-15);}.cls-20{fill:url(#linear-gradient-16);}.cls-21{stroke:url(#linear-gradient-17);}.cls-22{fill:url(#linear-gradient-18);}.cls-23{fill:url(#linear-gradient-19);}.cls-24{fill:url(#linear-gradient-20);}.cls-25{fill:url(#linear-gradient-21);}.cls-26{fill:url(#linear-gradient-22);}.cls-27{fill:url(#linear-gradient-23);}.cls-28{fill:url(#linear-gradient-24);}.cls-29{fill:url(#linear-gradient-25);}.cls-30{fill:url(#linear-gradient-26);}</style><linearGradient id="linear-gradient" x1="424.67" y1="230.36" x2="462.67" y2="230.36" gradientUnits="userSpaceOnUse"><stop offset="0" stop-color="#ff6e2a"/><stop offset="1" stop-color="#ffa12a"/></linearGradient><linearGradient id="linear-gradient-2" x1="438.17" y1="230.36" x2="449.17" y2="230.36" gradientUnits="userSpaceOnUse"><stop offset="0" stop-color="#239b6a"/><stop offset="1" stop-color="#4ccd9b"/></linearGradient><linearGradient id="linear-gradient-3" x1="66" y1="105.11" x2="104" y2="105.11" xlink:href="#linear-gradient-2"/><linearGradient id="linear-gradient-4" x1="79.5" y1="105.11" x2="90.5" y2="105.11" gradientUnits="userSpaceOnUse"><stop offset="0" stop-color="#4263eb"/><stop offset="1" stop-color="#1f46e7"/></linearGradient><linearGradient id="linear-gradient-5" x1="133.98" y1="203.79" x2="138.65" y2="203.79" xlink:href="#linear-gradient-2"/><linearGradient id="linear-gradient-6" x1="171.45" y1="303.26" x2="180.74" y2="303.26" xlink:href="#linear-gradient-4"/><linearGradient id="linear-gradient-7" x1="171.45" y1="291.26" x2="180.75" y2="291.26" xlink:href="#linear-gradient-4"/><linearGradient id="linear-gradient-8" x1="322.74" y1="87.01" x2="322.74" y2="46.24" xlink:href="#linear-gradient-2"/><linearGradient id="linear-gradient-9" x1="148.49" y1="83.05" x2="160.33" y2="83.05" xlink:href="#linear-gradient-4"/><linearGradient id="linear-gradient-10" x1="103.67" y1="69.09" x2="115.43" y2="69.09" xlink:href="#linear-gradient"/><linearGradient id="linear-gradient-11" x1="385.74" y1="272.89" x2="395.76" y2="272.89" xlink:href="#linear-gradient"/><linearGradient id="linear-gradient-12" x1="401.62" y1="272.9" x2="411.35" y2="272.9" xlink:href="#linear-gradient-2"/><linearGradient id="linear-gradient-13" x1="366.72" y1="232.45" x2="379.61" y2="232.45" xlink:href="#linear-gradient-4"/><linearGradient id="linear-gradient-14" x1="368.06" y1="108.74" x2="374.75" y2="108.74" xlink:href="#linear-gradient"/><linearGradient id="linear-gradient-15" x1="272" y1="94.74" x2="296.53" y2="94.74" gradientTransform="translate(460.34 -158.48) rotate(90)" xlink:href="#linear-gradient-2"/><linearGradient id="linear-gradient-16" x1="359.64" y1="125.79" x2="365.37" y2="125.79" xlink:href="#linear-gradient-4"/><linearGradient id="linear-gradient-17" x1="137.47" y1="248.51" x2="157.88" y2="248.51" xlink:href="#linear-gradient-4"/><linearGradient id="linear-gradient-18" x1="139.19" y1="247.51" x2="150.16" y2="247.51" gradientTransform="translate(-99.84 393.18) rotate(-90)" xlink:href="#linear-gradient"/><linearGradient id="linear-gradient-19" x1="79.91" y1="226.17" x2="83.32" y2="226.17" gradientTransform="translate(214.53 478) rotate(180)" xlink:href="#linear-gradient-2"/><linearGradient id="linear-gradient-20" x1="79.91" y1="231.33" x2="83.32" y2="231.33" gradientTransform="translate(214.53 478) rotate(180)" xlink:href="#linear-gradient-2"/><linearGradient id="linear-gradient-21" x1="110.67" y1="253.83" x2="106.27" y2="253.83" gradientTransform="translate(-114.78 370.72) rotate(-90)" xlink:href="#linear-gradient"/><linearGradient id="linear-gradient-22" x1="399.76" y1="127.9" x2="446.86" y2="127.9" xlink:href="#linear-gradient-2"/><linearGradient id="linear-gradient-23" x1="419.81" y1="127.9" x2="426.81" y2="127.9" xlink:href="#linear-gradient"/><linearGradient id="linear-gradient-24" x1="476.88" y1="129.9" x2="485.9" y2="129.9" xlink:href="#linear-gradient"/><linearGradient id="linear-gradient-25" x1="476.88" y1="141.73" x2="485.9" y2="141.73" xlink:href="#linear-gradient"/><linearGradient id="linear-gradient-26" x1="260" y1="293.86" x2="260" y2="70.14" xlink:href="#linear-gradient"/></defs><title>adv-2</title><g id="bg"><rect class="cls-1" width="520" height="360"/></g><g id="cloud"><path class="cls-2" d="M93.31,46.44C42.27,75.49,13.69,138.88,26.52,197c16.91,76.6,82.72,96.6,152,80.85,47.22-10.74,84.37-44.18,133.62-20,56.09,27.56,101.65,60.62,153.5,8.62,35.76-35.88,37.94-99.4,19.7-144.94C461.24,61.5,408.74,46,355.14,62c-48.75,14.52-82.23,34.46-134.61,12.77C181.17,58.45,143.24,21,93.31,46.44Z"/><ellipse class="cls-2" cx="260.44" cy="52.51" rx="26.85" ry="17.63"/><path class="cls-2" d="M335.1,294.27c-1.29,15.66-17.29,21.66-31.29,19.66-10-2-20-8-23-18-2-10,5-18,14-21,14-4,30,0,38,11.75A14.43,14.43,0,0,1,335.1,294.27Z"/><ellipse class="cls-2" cx="453" cy="299.67" rx="12.67" ry="8" transform="translate(-69.28 150.55) rotate(-17.55)"/></g><g id="graphs"><path class="cls-3" d="M343.5,209.58h36.69a6.77,6.77,0,0,1,4.79,2l16.81,16.81a6.77,6.77,0,0,0,4.79,2H425"/><path class="cls-3" d="M338.33,256h62.49a13.64,13.64,0,0,0,9.67-4l16.14-16.13"/><circle class="cls-4" cx="443.67" cy="230.36" r="18"/><circle class="cls-5" cx="443.67" cy="230.36" r="5.5"/><circle class="cls-3" cx="443.67" cy="230.36" r="11.5"/><line class="cls-3" x1="487.33" y1="230.36" x2="461.67" y2="230.36"/><circle class="cls-6" cx="488.62" cy="230.36" r="3.5"/><path class="cls-3" d="M411.92,210.86l-4.64-4.65a6.62,6.62,0,0,0-4.66-1.93H350.67"/><line class="cls-3" x1="390.67" y1="198.8" x2="346.67" y2="198.8"/><circle class="cls-6" cx="411.92" cy="210.86" r="3.5"/><line class="cls-3" x1="55.3" y1="160.4" x2="171.18" y2="160.4"/><circle class="cls-6" cx="53.14" cy="160.4" r="3.5"/><circle class="cls-6" cx="80.48" cy="144.93" r="3.5"/><path class="cls-3" d="M83.3,144.93h37.94a5.8,5.8,0,0,1,4.09,1.69l13.54,13.54"/><path class="cls-3" d="M185.17,125.89h-36.7a6.79,6.79,0,0,1-4.79-2l-16.81-16.81a6.76,6.76,0,0,0-4.78-2H103.67"/><line class="cls-3" x1="41.33" y1="105.11" x2="67" y2="105.11"/><circle class="cls-7" cx="85" cy="105.11" r="18"/><circle class="cls-8" cx="85" cy="105.11" r="5.5"/><circle class="cls-3" cx="85" cy="105.11" r="11.5"/><circle class="cls-6" cx="40.04" cy="105.11" r="3.5"/><path class="cls-3" d="M110,99.61h12.86a8.8,8.8,0,0,1,6.22,2.58l15.66,15.66a8.8,8.8,0,0,0,6.22,2.58h12.79"/><path class="cls-3" d="M116.74,124.61l4.65,4.65a6.59,6.59,0,0,0,4.65,1.92h52"/><line class="cls-3" x1="138" y1="136.67" x2="182" y2="136.67"/><line class="cls-3" x1="98" y1="152.54" x2="131.25" y2="152.54"/><circle class="cls-6" cx="116.74" cy="124.61" r="3.5"/><path class="cls-3" d="M161.32,168H108.79a2.71,2.71,0,0,0-1.92.79l-8.81,8.81a4.29,4.29,0,0,1-3,1.26H67"/><path class="cls-3" d="M114.63,168,99,183.53a4.29,4.29,0,0,1-3,1.26H67"/><path class="cls-9" d="M134.11,203.56a.26.26,0,0,0,0,.46l2.07,1.18,2.08,1.18a.26.26,0,0,0,.39-.23v-4.72a.26.26,0,0,0-.39-.23l-2.08,1.18Z"/><path class="cls-3" d="M92.29,208.21h16.5a1.84,1.84,0,0,0,1.3-.54l3.66-3.67"/><path class="cls-6" d="M115.38,204.35h11.5l15.28,8.7V194.53l-15.29,8.71H82.36a2.75,2.75,0,0,0-5.37,0h0v1.11h0a2.75,2.75,0,0,0,5.37,0h31.43m-19.74,3.3a1.8,1.8,0,1,0,0,1.11m47,2.37-12.87-7.34L141,196.46Z"/><path class="cls-3" d="M166.5,224.5H118a3.07,3.07,0,0,0-2.18.9l-6.15,6.15a3,3,0,0,1-2.17.9H56.64"/><path class="cls-3" d="M167.81,232.65H120.52a3.11,3.11,0,0,0-2.17.9l-6.21,6.21a3,3,0,0,1-2.17.9H72"/><line class="cls-3" x1="338.33" y1="125.89" x2="356" y2="125.89"/><circle class="cls-6" cx="67.13" cy="178.81" r="2"/><circle class="cls-6" cx="65.88" cy="184.79" r="2"/><path class="cls-10" d="M172,299.12a.5.5,0,0,0-.45.74l2,3.64,2,3.64a.5.5,0,0,0,.86,0l2.15-3.55,2.15-3.56a.49.49,0,0,0-.41-.75l-4.15-.09Z"/><path class="cls-11" d="M172,287.12a.5.5,0,0,0-.45.74l2,3.64,2,3.64a.5.5,0,0,0,.87,0l2.15-3.55,2.15-3.55a.5.5,0,0,0-.41-.76l-4.15-.09Z"/><path class="cls-12" d="M326,73.86a3.28,3.28,0,1,1-3.28-3.23A3.26,3.26,0,0,1,326,73.86Zm-3.28,6.69A3.23,3.23,0,1,0,326,83.78,3.24,3.24,0,0,0,322.74,80.55ZM327.64,54V49.35a.77.77,0,0,0-.39-.66l-4.13-2.35a.77.77,0,0,0-.75,0l-4.13,2.35a.77.77,0,0,0-.39.66V54a.76.76,0,0,0,.38.66l4.14,2.36a.77.77,0,0,0,.75,0l4.13-2.36A.75.75,0,0,0,327.64,54Z"/><path class="cls-13" d="M159.83,84.1a1,1,0,0,0,0-1.67L155,79.55l-4.84-2.91a1,1,0,0,0-1.46.81L148.62,83l-.13,5.57a1,1,0,0,0,1.43.87l5-2.69Z"/><path class="cls-14" d="M115.43,71.88V66.3a1,1,0,0,0-.49-.84L110,62.66a1,1,0,0,0-1,0l-4.92,2.8a1,1,0,0,0-.48.84v5.58a1,1,0,0,0,.48.84l4.92,2.8a1,1,0,0,0,1,0l4.92-2.8A1,1,0,0,0,115.43,71.88Z"/><path class="cls-15" d="M390.75,277.84a4.95,4.95,0,1,0-5-4.95A5,5,0,0,0,390.75,277.84Z"/><path class="cls-16" d="M411.06,273.57a.55.55,0,0,0,0-.95l-4.2-2.51-4.21-2.53a.55.55,0,0,0-.83.46l-.11,4.85-.11,4.86a.55.55,0,0,0,.81.49l4.33-2.34Z"/><path class="cls-17" d="M379.61,235.62v-6.33a.86.86,0,0,0-.44-.76l-5.57-3.18a.9.9,0,0,0-.87,0l-5.57,3.18a.87.87,0,0,0-.44.76v6.33a.89.89,0,0,0,.44.76l5.57,3.17a.9.9,0,0,0,.87,0l5.57-3.17A.89.89,0,0,0,379.61,235.62Z"/><path class="cls-18" d="M368.06,112a.55.55,0,0,0,.82.49l2.79-1.55,2.8-1.56a.55.55,0,0,0,0-1l-2.73-1.69L369,105a.55.55,0,0,0-.84.46l-.07,3.23Z"/><path class="cls-19" d="M355.12,113.53v24.52l20.95-12.26Zm1.45,2.55,16.6,9.71-16.6,9.71Z"/><path class="cls-20" d="M365,125.22a.66.66,0,0,1,0,1.14l-2.21,1.29-2.2,1.28a.66.66,0,0,1-1-.57v-5.15a.66.66,0,0,1,1-.57l2.19,1.28Z"/><line class="cls-3" x1="182.82" y1="248.51" x2="157.38" y2="248.51"/><path class="cls-21" d="M156.86,254.41l-8.67,5a1,1,0,0,1-1,0l-8.68-5a1,1,0,0,1-.51-.89v-10a1,1,0,0,1,.51-.89l8.68-5a1,1,0,0,1,1,0l8.67,5a1,1,0,0,1,.52.89v10A1,1,0,0,1,156.86,254.41Z"/><path class="cls-22" d="M152.26,251.42l-4.36,2.52a.45.45,0,0,1-.45,0l-4.36-2.52a.45.45,0,0,1-.23-.39v-5a.44.44,0,0,1,.23-.38l4.36-2.52a.45.45,0,0,1,.45,0l4.36,2.52a.43.43,0,0,1,.22.38v5A.44.44,0,0,1,152.26,251.42Z"/><circle class="cls-6" cx="54.88" cy="232.45" r="3.5"/><circle class="cls-6" cx="70.23" cy="240.66" r="3.5"/><path class="cls-23" d="M132.91,250.15a1.68,1.68,0,1,0,1.71,1.68A1.7,1.7,0,0,0,132.91,250.15Z"/><path class="cls-24" d="M132.91,248.35a1.68,1.68,0,1,0-1.71-1.68A1.7,1.7,0,0,0,132.91,248.35Z"/><path class="cls-25" d="M140.38,264.39l-3.09-1.78a.42.42,0,0,1,0-.72l3.09-1.78a.41.41,0,0,1,.62.36V264A.41.41,0,0,1,140.38,264.39Z"/><circle class="cls-3" cx="423.31" cy="127.9" r="34.97"/><path class="cls-3" d="M464.49,145.29A44.78,44.78,0,0,1,410,170.58"/><path class="cls-3" d="M423.31,83.21A44.69,44.69,0,0,1,468,127.9"/><path class="cls-26" d="M423.31,104.35a23.55,23.55,0,1,0,23.55,23.55A23.55,23.55,0,0,0,423.31,104.35Zm0,43.9a20.36,20.36,0,1,1,20.36-20.35A20.36,20.36,0,0,1,423.31,148.25Z"/><circle class="cls-27" cx="423.31" cy="127.9" r="3.5"/><circle class="cls-6" cx="390.06" cy="95.31" r="3.5"/><line class="cls-3" x1="446.86" y1="102.04" x2="469.9" y2="79"/><path class="cls-3" d="M399.76,153.75,386.53,167a8.49,8.49,0,0,1-6,2.49H359.64"/><path class="cls-3" d="M360.83,175.17H383a8.07,8.07,0,0,0,5.71-2.37l15.48-15.48"/><line class="cls-3" x1="363.05" y1="181" x2="378.7" y2="181"/><path class="cls-28" d="M484,129.58l-1.85-3.32a.68.68,0,0,0-1.17,0l-2,3.25-2,3.22a.68.68,0,0,0,.56,1l3.84.08,3.83.08a.68.68,0,0,0,.61-1Z"/><path class="cls-29" d="M479,141.31l-2,3.22a.68.68,0,0,0,.56,1l3.84.08,3.83.08a.67.67,0,0,0,.61-1L484,141.41l-1.85-3.32a.68.68,0,0,0-1.17,0Z"/><path class="cls-3" d="M338.33,249.5H398.9a12.77,12.77,0,0,0,9-3.74l15.4-15.4"/><line class="cls-3" x1="326.02" y1="102.04" x2="399.76" y2="102.04"/><path class="cls-3" d="M360.83,102l6-6a2.58,2.58,0,0,1,1.82-.75h19.71"/><circle class="cls-6" cx="380.98" cy="181" r="3.5"/><circle class="cls-6" cx="392.56" cy="198.8" r="2"/><circle class="cls-6" cx="410.03" cy="170.58" r="2"/><circle class="cls-6" cx="423.31" cy="83.21" r="2"/><circle class="cls-6" cx="464.49" cy="145.29" r="2"/><circle class="cls-6" cx="468" cy="127.9" r="2"/><circle class="cls-6" cx="469.9" cy="79" r="3.5"/></g><g id="logo"><path class="cls-1" d="M364.24,183.51A65.1,65.1,0,0,0,359.17,165c-.18-.43-.38-.86-.58-1.29h0v0c-.26-.54-.52-1.1-.8-1.7l0,0a81.74,81.74,0,0,0-13.66-19.33c-.19-23.76-10.31-41.79-32.07-53.11a34,34,0,0,0-25.93-19A35.35,35.35,0,0,0,259.94,77a35,35,0,0,0-26-6.48,34,34,0,0,0-25.93,19c-21.76,11.32-31.88,29.36-32.07,53.11A82,82,0,0,0,162.24,162h0l-.8,1.7v0h0c-.2.43-.4.86-.58,1.29a65.1,65.1,0,0,0-5.07,18.55,77.15,77.15,0,0,0-.66,9,69.44,69.44,0,0,0,12.71,40.16A65.66,65.66,0,0,0,179,245.08c1,.86.88,1.91,1,2.92a52.4,52.4,0,0,0,35.5,43.28,48.8,48.8,0,0,0,14.11,2.56c.37,0,4.52,0,5.17,0l1.05-.08.6,0c1-.07,4.85-.61,5.83-.81l.2,0,.92-.2.9-.21.34-.09.63-.16a51.25,51.25,0,0,0,13.89-6l.14-.08a2.57,2.57,0,0,1,.46-.2,1.42,1.42,0,0,1,.9.22l1,.53q2,1.18,4.07,2.18l1.22.58a49.31,49.31,0,0,0,18.52,4.39c.57.06,4.41.05,4.72,0h0l.48,0a46.53,46.53,0,0,0,9.85-1.41l.34-.08.51-.14a49.21,49.21,0,0,0,7.68-2.69A52.38,52.38,0,0,0,340,248c.13-1,0-2.06,1-2.92a65.66,65.66,0,0,0,11.22-12.43,69.44,69.44,0,0,0,12.71-40.16A76.82,76.82,0,0,0,364.24,183.51Z"/><path class="cls-30" d="M364.24,183.51A65.1,65.1,0,0,0,359.17,165c-.18-.43-.38-.86-.58-1.29h0v0c-.26-.54-.52-1.1-.8-1.7l0,0a81.74,81.74,0,0,0-13.66-19.33c-.19-23.76-10.31-41.79-32.07-53.11a34,34,0,0,0-25.93-19A35.35,35.35,0,0,0,259.94,77a35,35,0,0,0-26-6.48,34,34,0,0,0-25.93,19c-21.76,11.32-31.88,29.36-32.07,53.11A82,82,0,0,0,162.24,162h0l-.8,1.7v0h0c-.2.43-.4.86-.58,1.29a65.1,65.1,0,0,0-5.07,18.55,77.15,77.15,0,0,0-.66,9,69.44,69.44,0,0,0,12.71,40.16A65.66,65.66,0,0,0,179,245.08c1,.86.88,1.91,1,2.92a52.4,52.4,0,0,0,35.5,43.28,48.8,48.8,0,0,0,14.11,2.56c.37,0,4.52,0,5.17,0l1.05-.08.6,0c1-.07,4.85-.61,5.83-.81l.2,0,.92-.2.9-.21.34-.09.63-.16a51.25,51.25,0,0,0,13.89-6l.14-.08a2,2,0,0,1,.46-.2,1.42,1.42,0,0,1,.9.22l1,.53q2,1.18,4.07,2.18l1.22.58a49.31,49.31,0,0,0,18.52,4.39c.57.06,4.41.05,4.72,0h0l.48,0a46.53,46.53,0,0,0,9.85-1.41l.34-.08.51-.14a49.21,49.21,0,0,0,7.68-2.69A52.38,52.38,0,0,0,340,248c.13-1,0-2.06,1-2.92a65.66,65.66,0,0,0,11.22-12.43,69.44,69.44,0,0,0,12.71-40.16A76.82,76.82,0,0,0,364.24,183.51Zm-7.05,12.94a67.89,67.89,0,0,1-1.37,9.75,61.56,61.56,0,0,1-21.6,34.73,1.65,1.65,0,0,0-.64,1.33c-.12,2-.21,4.07-.51,6.08A47.15,47.15,0,0,1,330,259.42a1.74,1.74,0,0,0-.28.46,44,44,0,0,1-5.35,9.2A43.49,43.49,0,0,1,321,273a48.85,48.85,0,0,1-12,9.15l-.93.48h0a43.05,43.05,0,0,1-11.8,3.82c-1.51.27-3,.46-4.48.58a51.73,51.73,0,0,1-11.31-.49A40.45,40.45,0,0,1,274.1,285a45.8,45.8,0,0,1-9.21-4.2l-.69-.42,0,0c-1.15-.72-2.27-1.5-3.36-2.32a1.08,1.08,0,0,0-1.1-.26,1.79,1.79,0,0,0-.52.28l-.89.65a45.7,45.7,0,0,1-16.48,7.38c-.75.16-1.49.29-2.25.41a54,54,0,0,1-8.49.6,49.9,49.9,0,0,1-7.3-.74,43.63,43.63,0,0,1-18-7.51A51.53,51.53,0,0,1,199,273c-.65-.67-1.28-1.36-1.88-2.06a44.22,44.22,0,0,1-6.83-11.05,1.88,1.88,0,0,0-.31-.5,46.94,46.94,0,0,1-3-11c-.3-2-.39-4.05-.51-6.08a1.66,1.66,0,0,0-.64-1.33,61.53,61.53,0,0,1-21.6-34.73,68,68,0,0,1-1.37-9.74,59.86,59.86,0,0,1,4.87-28.54c4.19-8.67,9.35-16,16-21.72C181.47,124.4,190.06,106.11,213,95c8.08-17.57,30.62-25.5,47-8.53,16.34-17,39-9.06,47,8.51,22.94,11.07,31.53,29.35,29.29,51.17,6.68,5.69,11.84,13.06,16,21.72A59.9,59.9,0,0,1,357.19,196.45ZM256.44,220.61c0,.44.05.75.05,1q0,22,0,43.91a2,2,0,0,1-.55,1.35,34.75,34.75,0,0,1-45.57,1.84,34.13,34.13,0,0,1-10.67-14.37c-.27-.68-.17-1.06.46-1.41,1.46-.8,2.91-1.61,4.32-2.48.6-.36.84-.26,1.07.38a28.13,28.13,0,0,0,23.23,18.58,27.89,27.89,0,0,0,19.75-5.07,2.35,2.35,0,0,0,1.17-2.19c0-12.22,0-24.43,0-36.65a1.6,1.6,0,0,1,1-1.7c1.71-.88,3.34-1.91,5-2.87A7.43,7.43,0,0,1,256.44,220.61ZM256.55,92c-12.92-8.61-29.77-4.56-36.74,11.53-12.56,4.75-21.15,13.32-24.7,26.73a38.44,38.44,0,0,0,.85,23.08c-7.14,4.9-12.05,11.65-15.59,19.55a1.47,1.47,0,0,0-.31.48c-.5,1.19-.95,2.38-1.37,3.59,0,0,0,.08,0,.12h0a41.85,41.85,0,0,0-1.86,7.59,53.89,53.89,0,0,0-.68,7.9,48.85,48.85,0,0,0,21.11,40.16,1.39,1.39,0,0,1,.69,1.71,30.18,30.18,0,0,0-.65,10.41,34.44,34.44,0,0,0,11.3,22.51,34.72,34.72,0,0,0,41,4.21,33.32,33.32,0,0,0,3.77-3,6.65,6.65,0,0,1,1.24-1c1.6-.7,1.85-1.92,1.84-3.56-.07-15.54-.05-31.08,0-46.62,0-.08,0-.14,0-.21h.15Zm-7,121.79q0,24.33,0,48.64a1.89,1.89,0,0,1-.86,1.74,28.1,28.1,0,0,1-44.44-18c-1.54-10.34,1.68-19,9.53-26a1.33,1.33,0,0,1,1.63-.26,6.79,6.79,0,0,0,9.07-4.24,6.84,6.84,0,1,0-13.32-2.83,2.91,2.91,0,0,1-.81,1.56,59.63,59.63,0,0,0-8.07,9.17c-.66,1-1.24,2-1.93,3.17-1-.78-2-1.48-2.84-2.26a42,42,0,0,1-12.67-44.82A54.81,54.81,0,0,1,199,159.67a46.4,46.4,0,0,0,12.08,13.08l.09-.15a7.1,7.1,0,1,0,2.67-6.65c-10.08-7.22-15.48-20.07-12.14-34.27,4.5-14.07,13.56-20.18,24.83-22.45,3.41-10.8,11.65-16.09,23.05-12.1v29.64c-3.7,1.58-7.17,2-10.38,1.13a7.09,7.09,0,1,0-3.33,7.72,24.22,24.22,0,0,0,13.71,0v58.84a11,11,0,0,0-3.37-1.68c0-.07,0-.14,0-.21a7.1,7.1,0,1,0-3.5,6.11,22.83,22.83,0,0,1,6.86,4.63v9.24h0Zm-35.17-.18a3.59,3.59,0,1,1,3.6,3.53A3.44,3.44,0,0,1,214.39,213.61Zm.18-42.05a3.61,3.61,0,1,1,3.61,3.61A3.6,3.6,0,0,1,214.57,171.56Zm21.34-42.06a3.61,3.61,0,1,1-3.61-3.61A3.61,3.61,0,0,1,235.91,129.5Zm6.83,63a3.61,3.61,0,1,1-3.61-3.61A3.61,3.61,0,0,1,242.74,192.53ZM256.55,92c-12.92-8.61-29.77-4.56-36.74,11.53-12.56,4.75-21.15,13.32-24.7,26.73a38.44,38.44,0,0,0,.85,23.08c-7.14,4.9-12.05,11.65-15.59,19.55a1.47,1.47,0,0,0-.31.48c-.5,1.19-.95,2.38-1.37,3.59,0,0,0,.08,0,.12h0a41.85,41.85,0,0,0-1.86,7.59,53.89,53.89,0,0,0-.68,7.9,48.85,48.85,0,0,0,21.11,40.16,1.39,1.39,0,0,1,.69,1.71,30.18,30.18,0,0,0-.65,10.41,34.44,34.44,0,0,0,11.3,22.51,34.72,34.72,0,0,0,41,4.21,33.32,33.32,0,0,0,3.77-3,6.65,6.65,0,0,1,1.24-1c1.6-.7,1.85-1.92,1.84-3.56-.07-15.54-.05-31.08,0-46.62,0-.08,0-.14,0-.21h.15Zm-7,121.79q0,24.33,0,48.64a1.89,1.89,0,0,1-.86,1.74,28.1,28.1,0,0,1-44.44-18c-1.54-10.34,1.68-19,9.53-26a1.33,1.33,0,0,1,1.63-.26,6.79,6.79,0,0,0,9.07-4.24,6.84,6.84,0,1,0-13.32-2.83,2.91,2.91,0,0,1-.81,1.56,59.63,59.63,0,0,0-8.07,9.17c-.66,1-1.24,2-1.93,3.17-1-.78-2-1.48-2.84-2.26a42,42,0,0,1-12.67-44.82A54.81,54.81,0,0,1,199,159.67a46.4,46.4,0,0,0,12.08,13.08l.09-.15a7.1,7.1,0,1,0,2.67-6.65c-10.08-7.22-15.48-20.07-12.14-34.27,4.5-14.07,13.56-20.18,24.83-22.45,3.41-10.8,11.65-16.09,23.05-12.1v29.64c-3.7,1.58-7.17,2-10.38,1.13a7.09,7.09,0,1,0-3.33,7.72,24.22,24.22,0,0,0,13.71,0v58.84a11,11,0,0,0-3.37-1.68c0-.07,0-.14,0-.21a7.1,7.1,0,1,0-3.5,6.11,22.83,22.83,0,0,1,6.86,4.63v9.24h0Zm-35.17-.18a3.59,3.59,0,1,1,3.6,3.53A3.44,3.44,0,0,1,214.39,213.61Zm.18-42.05a3.61,3.61,0,1,1,3.61,3.61A3.6,3.6,0,0,1,214.57,171.56Zm21.34-42.06a3.61,3.61,0,1,1-3.61-3.61A3.61,3.61,0,0,1,235.91,129.5Zm6.83,63a3.61,3.61,0,1,1-3.61-3.61A3.61,3.61,0,0,1,242.74,192.53ZM263,217.24h.15c0,.07,0,.13,0,.21,0,15.54.05,31.08,0,46.62,0,1.64.24,2.86,1.85,3.56a6.93,6.93,0,0,1,1.23,1,33.32,33.32,0,0,0,3.77,3,34.72,34.72,0,0,0,41-4.21,34.44,34.44,0,0,0,11.3-22.51,30.42,30.42,0,0,0-.64-10.41,1.37,1.37,0,0,1,.69-1.71,48.88,48.88,0,0,0,21.1-40.16,53.89,53.89,0,0,0-.68-7.9,41.85,41.85,0,0,0-1.86-7.59h0l-.05-.12c-.41-1.21-.87-2.4-1.37-3.59a1.47,1.47,0,0,0-.31-.48c-3.54-7.9-8.45-14.65-15.58-19.55a38.36,38.36,0,0,0,.84-23.08c-3.55-13.41-12.14-22-24.7-26.73C292.81,87.44,276,83.39,263,92Zm7-4.74h0v-9.24a22.74,22.74,0,0,1,6.87-4.63,7,7,0,0,0,3.58,1,7.1,7.1,0,1,0-7.09-7.09c0,.07,0,.14,0,.21a11.09,11.09,0,0,0-3.37,1.68V135.58a24.22,24.22,0,0,0,13.71,0,7.1,7.1,0,1,0-3.33-7.72c-3.2.89-6.68.45-10.38-1.13V97.13c11.4-4,19.65,1.3,23.06,12.1,11.26,2.27,20.32,8.38,24.82,22.45,3.34,14.2-2.06,27-12.14,34.27a7.09,7.09,0,1,0,2.67,6.65l.09.15a46.59,46.59,0,0,0,12.09-13.08,54.91,54.91,0,0,1,14.13,19.94,40.86,40.86,0,0,1,1.54,19.25,41.43,41.43,0,0,1-14.2,25.57c-.9.78-1.86,1.48-2.85,2.26-.69-1.14-1.27-2.18-1.93-3.17a60.1,60.1,0,0,0-8.06-9.17,2.93,2.93,0,0,1-.82-1.56,6.85,6.85,0,1,0-4.25,7.07,1.33,1.33,0,0,1,1.63.26c7.85,7,11.07,15.68,9.53,26a28.1,28.1,0,0,1-44.44,18,1.89,1.89,0,0,1-.86-1.74q0-24.31,0-48.64Zm31.57,4.64a3.59,3.59,0,1,1,3.6-3.53A3.43,3.43,0,0,1,301.6,217.14Zm-.18-42a3.61,3.61,0,1,1,3.61-3.61A3.62,3.62,0,0,1,301.42,175.17Zm-14.13-49.28a3.61,3.61,0,1,1-3.61,3.61A3.61,3.61,0,0,1,287.29,125.89Zm-6.83,63a3.61,3.61,0,1,1-3.61,3.61A3.6,3.6,0,0,1,280.46,188.92Z"/></g></svg>