<svg xmlns="http://www.w3.org/2000/svg" viewBox="-1193 235.863 24 22.275" width="24" heigth="23"><defs><style>.a{fill:#4c6ef5;}</style></defs><g transform="translate(-1193 235.863)"><path class="a" d="M15.225,22.275l1.05-1.05L13.8,18.75l2.475-2.475-1.05-1.05L11.7,18.75Z"/><path class="a" d="M20.4,22.275l3.525-3.525L20.4,15.225l-1.05,1.05,2.475,2.475L19.35,21.225Z"/><path class="a" d="M21,0H13.2L12,1.2,10.8,0H3V3H0V21H10.5V19.5h-9V4.5H3V18h7.5V16.5h-6V1.5h5.7l1.05,1.05V15h1.5V2.55L13.8,1.5h5.7V13.575H21V4.5h1.5v9.075H24V3H21Z"/><rect class="a" width="3.75" height="1.5" transform="translate(6 5.25)"/><rect class="a" width="3.75" height="1.5" transform="translate(6 8.25)"/><rect class="a" width="3.75" height="1.5" transform="translate(6 11.25)"/><rect class="a" width="3.75" height="1.5" transform="translate(14.25 5.25)"/><rect class="a" width="3.75" height="1.5" transform="translate(14.25 8.25)"/><rect class="a" width="3.75" height="1.5" transform="translate(14.25 11.25)"/></g></svg>
