<?xml version="1.0" encoding="utf-8"?>
<!-- Generator: Adobe Illustrator 19.1.1, SVG Export Plug-In . SVG Version: 6.00 Build 0)  -->
<svg version="1.1" xmlns="http://www.w3.org/2000/svg" xmlns:xlink="http://www.w3.org/1999/xlink" x="0px" y="0px"
	 viewBox="0 0 1500 520" style="enable-background:new 0 0 1500 520;" xml:space="preserve">
<style type="text/css">
	.st0{fill:#FFFFFF;}
	.st1{fill:#D9EDF6;}
	.st2{fill:#1F46E7;}
	.st3{fill:#4263EB;}
	.st4{fill:#EAEACD;}
	.st5{fill:#96B7E1;}
	.st6{fill:url(#SVGID_1_);}
	.st7{fill:url(#SVGID_2_);}
	.st8{fill:url(#SVGID_3_);}
	.st9{fill:url(#SVGID_4_);}
	.st10{fill:url(#SVGID_5_);}
	.st11{fill:url(#SVGID_6_);}
	.st12{fill:url(#SVGID_7_);}
	.st13{fill:url(#SVGID_8_);}
	.st14{fill:url(#SVGID_9_);}
	.st15{fill:url(#SVGID_10_);}
	.st16{fill:#C8CBAC;}
	.st17{fill:#D8D7BF;}
	.st18{fill:#F2751C;}
	.st19{fill:url(#XMLID_2_);}
	.st20{fill:#FECC4D;}
	.st21{fill:url(#SVGID_11_);}
	.st22{fill:url(#SVGID_12_);}
	.st23{fill:url(#SVGID_13_);}
	.st24{fill:url(#SVGID_14_);}
	.st25{fill:url(#SVGID_15_);}
	.st26{fill:url(#SVGID_16_);}
	.st27{fill-rule:evenodd;clip-rule:evenodd;fill:url(#SVGID_17_);}
	
		.st28{fill-rule:evenodd;clip-rule:evenodd;fill:none;stroke:#FFFFFF;stroke-width:1.605;stroke-linecap:round;stroke-miterlimit:10;}
	.st29{fill-rule:evenodd;clip-rule:evenodd;fill:url(#SVGID_18_);}
	.st30{fill:none;stroke:#1F46E7;stroke-width:1.8677;stroke-miterlimit:10;}
	.st31{fill:#FFC400;}
	.st32{fill:url(#SVGID_19_);}
	.st33{fill:url(#SVGID_20_);}
	.st34{fill:url(#SVGID_21_);}
	.st35{fill:url(#SVGID_22_);}
	.st36{fill:url(#SVGID_23_);}
	.st37{fill:none;stroke:#4CCD9B;stroke-width:1.3585;stroke-linecap:round;stroke-miterlimit:10;}
	.st38{fill:#239B6A;}
	.st39{fill:none;stroke:#239B6A;stroke-width:1.3585;stroke-linecap:round;stroke-miterlimit:10;}
	.st40{fill:none;stroke:#239B6A;stroke-width:1.6302;stroke-linecap:round;stroke-miterlimit:10;}
	.st41{fill:url(#SVGID_24_);}
</style>
<g id="bg">
	<rect class="st0" width="1500" height="520"/>
</g>
<g id="cloud">
	<path class="st1" d="M103.2,458.7h1257.3c-41.4-13.2-48.2-48.2-89.7-76c-38.9-25.7-75.8-8.9-104.8-35.1
		c-37.9-39.6-22.2-116.1-95.3-133.6c-74.2-13.8-87.5,28.3-150,14.9C817.6,197,821.8,83,709.9,83c-143.3,0-169.1,133.5-222.7,143.8
		c-78,11.7-109.6-48.7-196.9-3.9C183.1,283.5,218.7,416.3,103.2,458.7z"/>
	<path class="st1" d="M1241.2,324.9c-43.6,36.8-101.9-34.2-51.7-62.6C1226.2,241.6,1273.5,292.1,1241.2,324.9
		C1216.7,345.6,1243.2,322.9,1241.2,324.9z"/>
	<path class="st1" d="M493.3,107.7c15.5-1.4,34.8,5.6,36.3,22.7c0.7,28.3-23.8,54.8-51.9,52.7c-27.9-4.9-33.7-34.5-12.5-59.2
		C472.2,116.2,482.1,110.2,493.3,107.7z"/>
	<path class="st1" d="M428.1,157.8c10.4,3.5,15.5,14.2,11.4,24.1c-4.1,9.8-15.8,15-26.1,11.5c-10.3-3.5-15.3-14.3-11.3-24.1
		C406.1,159.5,417.7,154.3,428.1,157.8z"/>
</g>
<g id="computer">
	<g>
		<g>
			<g>
				<g>
					<polygon class="st2" points="643.1,458.3 811.1,458.3 837.4,368.5 669.5,368.5 					"/>
					<polygon class="st3" points="670.1,458.3 838,458.3 864.4,368.5 696.5,368.5 					"/>
				</g>
				<path class="st2" d="M860.4,382.2H692.5l-14.9,50.7C689.5,392.2,844.3,436.9,860.4,382.2z"/>
			</g>
			<g>
				<g>
					<path class="st2" d="M579.4,382.2h374.5c12.5,0,21.6-10.2,20.2-22.7L951.7,152c-1.4-12.5-12.6-22.7-25.1-22.7H552.1
						c-12.5,0-21.6,10.2-20.2,22.7l22.4,207.5C555.6,372,566.9,382.2,579.4,382.2z"/>
					<path class="st4" d="M594.3,382.2h374.5c12.5,0,21.6-10.2,20.2-22.7L966.6,152c-1.4-12.5-12.6-22.7-25.1-22.7H567
						c-12.5,0-21.6,10.2-20.2,22.7l22.4,207.5C570.5,372,581.8,382.2,594.3,382.2z"/>
					<path class="st3" d="M546.8,152c-1.4-12.5,7.7-22.7,20.2-22.7h374.5c12.5,0,23.8,10.2,25.1,22.7l2.2,20.7H549L546.8,152z"/>
					<path class="st3" d="M989,359.5c1.4,12.5-7.7,22.7-20.2,22.7H594.3c-12.5,0-23.8-10.2-25.1-22.7l-2.2-20.7h419.8L989,359.5z"/>
					<path class="st0" d="M768.1,361.6c0.7,6.2,6.2,11.2,12.5,11.2c6.2,0,10.7-5,10-11.2s-6.2-11.2-12.5-11.2
						C771.9,350.4,767.4,355.4,768.1,361.6z"/>
				</g>
			</g>
		</g>
		<path class="st2" d="M860.3,458.3H616.1c-2.2,0-3.9-1.7-3.9-3.9v-9.5c0-2.2,1.7-3.9,3.9-3.9h244.2c2.2,0,3.9,1.7,3.9,3.9v9.5
			C864.2,456.6,862.4,458.3,860.3,458.3z"/>
		<g>
			<path class="st3" d="M742.7,431.6l-15.8,36.6c-1.4,3.2,0.3,6.9,3.6,7.9l37.5,12.1L742.7,431.6z"/>
			<path class="st1" d="M769,488.2h190.1c3.1,0,5.2-3.2,4-6.1l-22-51.1c-0.7-1.6-2.3-2.6-4-2.6H747c-3.1,0-5.2,3.2-4,6.1l22,51.1
				C765.8,487.2,767.3,488.2,769,488.2z"/>
		</g>
		<g>
			<path class="st5" d="M915.4,446.7h14c0.9,0,1.4-0.8,1.1-1.6l-4-9c-0.2-0.4-0.6-0.7-1.1-0.7h-14c-0.9,0-1.4,0.8-1.1,1.6l4,9
				C914.5,446.4,914.9,446.7,915.4,446.7z"/>
			<path class="st5" d="M894.1,446.7h14c0.9,0,1.4-0.8,1.1-1.6l-4-9c-0.2-0.4-0.6-0.7-1.1-0.7h-14c-0.9,0-1.4,0.8-1.1,1.6l4,9
				C893.2,446.4,893.6,446.7,894.1,446.7z"/>
			<path class="st5" d="M872.8,446.7h14c0.9,0,1.4-0.8,1.1-1.6l-4-9c-0.2-0.4-0.6-0.7-1.1-0.7h-14c-0.9,0-1.4,0.8-1.1,1.6l4,9
				C871.9,446.4,872.4,446.7,872.8,446.7z"/>
			<path class="st5" d="M851.5,446.7h14c0.9,0,1.4-0.8,1.1-1.6l-4-9c-0.2-0.4-0.6-0.7-1.1-0.7h-14c-0.9,0-1.4,0.8-1.1,1.6l4,9
				C850.6,446.4,851.1,446.7,851.5,446.7z"/>
			<path class="st5" d="M830.2,446.7h14c0.9,0,1.4-0.8,1.1-1.6l-4-9c-0.2-0.4-0.6-0.7-1.1-0.7h-14c-0.9,0-1.4,0.8-1.1,1.6l4,9
				C829.3,446.4,829.8,446.7,830.2,446.7z"/>
			<path class="st5" d="M809,446.7h14c0.9,0,1.4-0.8,1.1-1.6l-4-9c-0.2-0.4-0.6-0.7-1.1-0.7h-14c-0.9,0-1.4,0.8-1.1,1.6l4,9
				C808,446.4,808.5,446.7,809,446.7z"/>
			<path class="st5" d="M787.7,446.7h14c0.9,0,1.4-0.8,1.1-1.6l-4-9c-0.2-0.4-0.6-0.7-1.1-0.7h-14c-0.9,0-1.4,0.8-1.1,1.6l4,9
				C786.7,446.4,787.2,446.7,787.7,446.7z"/>
			<path class="st5" d="M766.4,446.7h14c0.9,0,1.4-0.8,1.1-1.6l-4-9c-0.2-0.4-0.6-0.7-1.1-0.7h-14c-0.9,0-1.4,0.8-1.1,1.6l4,9
				C765.5,446.4,765.9,446.7,766.4,446.7z"/>
		</g>
		<g>
			<path class="st5" d="M923.1,463.3h14c0.9,0,1.4-0.8,1.1-1.6l-4-9c-0.2-0.4-0.6-0.7-1.1-0.7h-14c-0.9,0-1.4,0.8-1.1,1.6l4,9
				C922.2,463,922.6,463.3,923.1,463.3z"/>
			<path class="st5" d="M901.8,463.3h14c0.9,0,1.4-0.8,1.1-1.6l-4-9c-0.2-0.4-0.6-0.7-1.1-0.7h-14c-0.9,0-1.4,0.8-1.1,1.6l4,9
				C900.9,463,901.3,463.3,901.8,463.3z"/>
			<path class="st5" d="M880.5,463.3h14c0.9,0,1.4-0.8,1.1-1.6l-4-9c-0.2-0.4-0.6-0.7-1.1-0.7h-14c-0.9,0-1.4,0.8-1.1,1.6l4,9
				C879.6,463,880,463.3,880.5,463.3z"/>
			<path class="st5" d="M859.2,463.3h14c0.9,0,1.4-0.8,1.1-1.6l-4-9c-0.2-0.4-0.6-0.7-1.1-0.7h-14c-0.9,0-1.4,0.8-1.1,1.6l4,9
				C858.3,463,858.7,463.3,859.2,463.3z"/>
			<path class="st5" d="M837.9,463.3h14c0.9,0,1.4-0.8,1.1-1.6l-4-9c-0.2-0.4-0.6-0.7-1.1-0.7h-14c-0.9,0-1.4,0.8-1.1,1.6l4,9
				C837,463,837.5,463.3,837.9,463.3z"/>
			<path class="st5" d="M816.6,463.3h14c0.9,0,1.4-0.8,1.1-1.6l-4-9c-0.2-0.4-0.6-0.7-1.1-0.7h-14c-0.9,0-1.4,0.8-1.1,1.6l4,9
				C815.7,463,816.2,463.3,816.6,463.3z"/>
			<path class="st5" d="M795.3,463.3h14c0.9,0,1.4-0.8,1.1-1.6l-4-9c-0.2-0.4-0.6-0.7-1.1-0.7h-14c-0.9,0-1.4,0.8-1.1,1.6l4,9
				C794.4,463,794.9,463.3,795.3,463.3z"/>
			<path class="st5" d="M774.1,463.3h14c0.9,0,1.4-0.8,1.1-1.6l-4-9c-0.2-0.4-0.6-0.7-1.1-0.7h-14c-0.9,0-1.4,0.8-1.1,1.6l4,9
				C773.1,463,773.6,463.3,774.1,463.3z"/>
		</g>
		<g>
			<path class="st5" d="M930,479.5h14c0.9,0,1.4-0.8,1.1-1.6l-4-9c-0.2-0.4-0.6-0.7-1.1-0.7h-14c-0.9,0-1.4,0.8-1.1,1.6l4,9
				C929.1,479.2,929.5,479.5,930,479.5z"/>
			<path class="st5" d="M908.7,479.5h14c0.9,0,1.4-0.8,1.1-1.6l-4-9c-0.2-0.4-0.6-0.7-1.1-0.7h-14c-0.9,0-1.4,0.8-1.1,1.6l4,9
				C907.8,479.2,908.2,479.5,908.7,479.5z"/>
			<path class="st5" d="M887.4,479.5h14c0.9,0,1.4-0.8,1.1-1.6l-4-9c-0.2-0.4-0.6-0.7-1.1-0.7h-14c-0.9,0-1.4,0.8-1.1,1.6l4,9
				C886.5,479.2,886.9,479.5,887.4,479.5z"/>
			<path class="st5" d="M866.1,479.5h14c0.9,0,1.4-0.8,1.1-1.6l-4-9c-0.2-0.4-0.6-0.7-1.1-0.7h-14c-0.9,0-1.4,0.8-1.1,1.6l4,9
				C865.2,479.2,865.6,479.5,866.1,479.5z"/>
			<path class="st5" d="M844.8,479.5h14c0.9,0,1.4-0.8,1.1-1.6l-4-9c-0.2-0.4-0.6-0.7-1.1-0.7h-14c-0.9,0-1.4,0.8-1.1,1.6l4,9
				C843.9,479.2,844.3,479.5,844.8,479.5z"/>
			<path class="st5" d="M823.5,479.5h14c0.9,0,1.4-0.8,1.1-1.6l-4-9c-0.2-0.4-0.6-0.7-1.1-0.7h-14c-0.9,0-1.4,0.8-1.1,1.6l4,9
				C822.6,479.2,823,479.5,823.5,479.5z"/>
			<path class="st5" d="M802.2,479.5h14c0.9,0,1.4-0.8,1.1-1.6l-4-9c-0.2-0.4-0.6-0.7-1.1-0.7h-14c-0.9,0-1.4,0.8-1.1,1.6l4,9
				C801.3,479.2,801.7,479.5,802.2,479.5z"/>
			<path class="st5" d="M780.9,479.5h14c0.9,0,1.4-0.8,1.1-1.6l-4-9c-0.2-0.4-0.6-0.7-1.1-0.7h-14c-0.9,0-1.4,0.8-1.1,1.6l4,9
				C780,479.2,780.5,479.5,780.9,479.5z"/>
		</g>
	</g>
	<g>
		<path class="st0" d="M951.6,306.2H818c-2.2,0-4.2-1.8-4.4-4l-9.8-93c-0.2-2.2,1.4-4,3.6-4H941c2.2,0,4.2,1.8,4.4,4l9.8,93
			C955.4,304.4,953.8,306.2,951.6,306.2z"/>
		
			<linearGradient id="SVGID_1_" gradientUnits="userSpaceOnUse" x1="808.2592" y1="210.8106" x2="949.9022" y2="210.8106" gradientTransform="matrix(1 0 0.1056 1 -26.6115 0)">
			<stop  offset="0" style="stop-color:#239B6A"/>
			<stop  offset="1" style="stop-color:#4CCD9B"/>
		</linearGradient>
		<path class="st6" d="M945.4,209.2c-0.2-2.2-2.2-4-4.4-4H807.3c-2.2,0-3.8,1.8-3.6,4l0.8,7.2h141.6L945.4,209.2z"/>
	</g>
	<g>
		
			<linearGradient id="SVGID_2_" gradientUnits="userSpaceOnUse" x1="581.8135" y1="216.1687" x2="614.9934" y2="216.1687" gradientTransform="matrix(0.9317 -1.765695e-002 0.2391 1.0687 -15.459 -5.6618)">
			<stop  offset="0" style="stop-color:#4263EB"/>
			<stop  offset="1" style="stop-color:#1F46E7"/>
		</linearGradient>
		<path class="st7" d="M607.6,229.5l-24.7,0.2c-0.9,0-1.7-0.7-1.8-1.7l-2.7-26.2c-0.1-0.9,0.5-1.7,1.4-1.7l24.7-0.2
			c0.9,0,1.7,0.7,1.8,1.7l2.7,26.2C609.1,228.7,608.5,229.5,607.6,229.5z"/>
		<path class="st0" d="M646.5,229.2l-24.7,0.2c-0.9,0-1.7-0.7-1.8-1.7l-2.7-26.2c-0.1-0.9,0.5-1.7,1.4-1.7l24.7-0.2
			c0.9,0,1.7,0.7,1.8,1.7l2.7,26.2C648,228.5,647.3,229.2,646.5,229.2z"/>
		
			<linearGradient id="SVGID_3_" gradientUnits="userSpaceOnUse" x1="664.9382" y1="217.0903" x2="698.1181" y2="217.0903" gradientTransform="matrix(0.9317 -1.765695e-002 0.2391 1.0687 -15.459 -5.6618)">
			<stop  offset="0" style="stop-color:#239B6A"/>
			<stop  offset="1" style="stop-color:#4CCD9B"/>
		</linearGradient>
		<path class="st8" d="M685.3,229l-24.7,0.2c-0.9,0-1.7-0.7-1.8-1.7l-2.7-26.2c-0.1-0.9,0.5-1.7,1.4-1.7l24.7-0.2
			c0.9,0,1.7,0.7,1.8,1.7l2.7,26.2C686.8,228.2,686.2,229,685.3,229z"/>
		
			<linearGradient id="SVGID_4_" gradientUnits="userSpaceOnUse" x1="576.5164" y1="254.6063" x2="609.6963" y2="254.6063" gradientTransform="matrix(0.9317 -1.765695e-002 0.2391 1.0687 -15.459 -5.6618)">
			<stop  offset="0" style="stop-color:#239B6A"/>
			<stop  offset="1" style="stop-color:#4CCD9B"/>
		</linearGradient>
		<path class="st9" d="M611.9,270.6l-24.7,0.2c-0.9,0-1.7-0.7-1.8-1.7l-2.7-26.2c-0.1-0.9,0.5-1.7,1.4-1.7l24.7-0.2
			c0.9,0,1.7,0.7,1.8,1.7l2.7,26.2C613.4,269.9,612.8,270.6,611.9,270.6z"/>
		
			<linearGradient id="SVGID_5_" gradientUnits="userSpaceOnUse" x1="618.0787" y1="255.0671" x2="651.2586" y2="255.0671" gradientTransform="matrix(0.9317 -1.765695e-002 0.2391 1.0687 -15.459 -5.6618)">
			<stop  offset="0" style="stop-color:#F2751C"/>
			<stop  offset="1" style="stop-color:#FFC400"/>
		</linearGradient>
		<path class="st10" d="M650.7,270.4l-24.7,0.2c-0.9,0-1.7-0.7-1.8-1.7l-2.7-26.2c-0.1-0.9,0.5-1.7,1.4-1.7l24.7-0.2
			c0.9,0,1.7,0.7,1.8,1.7l2.7,26.2C652.2,269.6,651.6,270.4,650.7,270.4z"/>
		<path class="st0" d="M689.6,270.2l-24.7,0.2c-0.9,0-1.7-0.7-1.8-1.7l-2.7-26.2c-0.1-0.9,0.5-1.7,1.4-1.7l24.7-0.2
			c0.9,0,1.7,0.7,1.8,1.7l2.7,26.2C691.1,269.4,690.4,270.2,689.6,270.2z"/>
		<path class="st0" d="M616.1,311.8l-24.7,0.2c-0.9,0-1.7-0.7-1.8-1.7l-2.7-26.2c-0.1-0.9,0.5-1.7,1.4-1.7l24.7-0.2
			c0.9,0,1.7,0.7,1.8,1.7l2.7,26.2C617.6,311.1,617,311.8,616.1,311.8z"/>
		<path class="st0" d="M655,311.6l-24.7,0.2c-0.9,0-1.7-0.7-1.8-1.7l-2.7-26.2c-0.1-0.9,0.5-1.7,1.4-1.7l24.7-0.2
			c0.9,0,1.7,0.7,1.8,1.7l2.7,26.2C656.5,310.8,655.9,311.6,655,311.6z"/>
		
			<linearGradient id="SVGID_6_" gradientUnits="userSpaceOnUse" x1="654.3439" y1="293.9656" x2="687.5238" y2="293.9656" gradientTransform="matrix(0.9317 -1.765695e-002 0.2391 1.0687 -15.459 -5.6618)">
			<stop  offset="0" style="stop-color:#4263EB"/>
			<stop  offset="1" style="stop-color:#1F46E7"/>
		</linearGradient>
		<path class="st11" d="M693.8,311.3l-24.7,0.2c-0.9,0-1.7-0.7-1.8-1.7l-2.7-26.2c-0.1-0.9,0.5-1.7,1.4-1.7l24.7-0.2
			c0.9,0,1.7,0.7,1.8,1.7l2.7,26.2C695.3,310.6,694.7,311.3,693.8,311.3z"/>
	</g>
	
		<linearGradient id="SVGID_7_" gradientUnits="userSpaceOnUse" x1="705.0517" y1="218.2048" x2="738.2316" y2="218.2048" gradientTransform="matrix(0.9317 -1.765695e-002 0.2391 1.0687 -15.459 -5.6618)">
		<stop  offset="0" style="stop-color:#4263EB"/>
		<stop  offset="1" style="stop-color:#1F46E7"/>
	</linearGradient>
	<path class="st12" d="M723,229.5l-24.7,0.2c-0.9,0-1.7-0.7-1.8-1.7l-2.7-26.2c-0.1-0.9,0.5-1.7,1.4-1.7l24.7-0.2
		c0.9,0,1.7,0.7,1.8,1.7l2.7,26.2C724.5,228.7,723.8,229.5,723,229.5z"/>
	<path class="st0" d="M761.8,229.2l-24.7,0.2c-0.9,0-1.7-0.7-1.8-1.7l-2.7-26.2c-0.1-0.9,0.5-1.7,1.4-1.7l24.7-0.2
		c0.9,0,1.7,0.7,1.8,1.7l2.7,26.2C763.3,228.5,762.7,229.2,761.8,229.2z"/>
	<path class="st0" d="M727.2,270.6l-24.7,0.2c-0.9,0-1.7-0.7-1.8-1.7l-2.7-26.2c-0.1-0.9,0.5-1.7,1.4-1.7l24.7-0.2
		c0.9,0,1.7,0.7,1.8,1.7l2.7,26.2C728.7,269.9,728.1,270.6,727.2,270.6z"/>
	<path class="st0" d="M766,270.4l-24.7,0.2c-0.9,0-1.7-0.7-1.8-1.7l-2.7-26.2c-0.1-0.9,0.5-1.7,1.4-1.7l24.7-0.2
		c0.9,0,1.7,0.7,1.8,1.7l2.7,26.2C767.5,269.6,766.9,270.4,766,270.4z"/>
	<linearGradient id="SVGID_8_" gradientUnits="userSpaceOnUse" x1="702.3232" y1="297.1413" x2="732.8773" y2="297.1413">
		<stop  offset="0" style="stop-color:#239B6A"/>
		<stop  offset="1" style="stop-color:#4CCD9B"/>
	</linearGradient>
	<path class="st13" d="M731.5,311.8l-24.7,0.2c-0.9,0-1.7-0.7-1.8-1.7l-2.7-26.2c-0.1-0.9,0.5-1.7,1.4-1.7l24.7-0.2
		c0.9,0,1.7,0.7,1.8,1.7l2.7,26.2C733,311.1,732.3,311.8,731.5,311.8z"/>
	<linearGradient id="SVGID_9_" gradientUnits="userSpaceOnUse" x1="741.159" y1="296.8999" x2="771.7131" y2="296.8999">
		<stop  offset="0" style="stop-color:#F2751C"/>
		<stop  offset="1" style="stop-color:#FFC400"/>
	</linearGradient>
	<path class="st14" d="M770.3,311.6l-24.7,0.2c-0.9,0-1.7-0.7-1.8-1.7l-2.7-26.2c-0.1-0.9,0.5-1.7,1.4-1.7l24.7-0.2
		c0.9,0,1.7,0.7,1.8,1.7l2.7,26.2C771.8,310.8,771.2,311.6,770.3,311.6z"/>
</g>
<g id="Layer_5">
</g>
<g id="Layer_3">
	<g>
		<linearGradient id="SVGID_10_" gradientUnits="userSpaceOnUse" x1="1326.0626" y1="295.7067" x2="1412.0853" y2="295.7067">
			<stop  offset="0" style="stop-color:#239B6A"/>
			<stop  offset="1" style="stop-color:#4CCD9B"/>
		</linearGradient>
		<circle class="st15" cx="1369.1" cy="295.7" r="43"/>
		<g>
			<path class="st4" d="M1374.6,332.5l-35.4-14.7l0.7-1.8c1.2-2.9,4.5-4.2,7.3-3l25,10.4c2.9,1.2,4.2,4.5,3,7.3L1374.6,332.5z"/>
			
				<rect x="1338.3" y="321.9" transform="matrix(0.9236 0.3834 -0.3834 0.9236 227.8232 -495.775)" class="st16" width="38.3" height="3.4"/>
			<path class="st17" d="M1373.1,323.7l-26.7-11.1l0.4-1.1c0.5-1.1,1.8-1.7,2.9-1.2l22.6,9.4c1.1,0.5,1.7,1.8,1.2,2.9L1373.1,323.7z
				"/>
			<path class="st4" d="M1372.4,319.8l-22.7-9.4c6.6-6.5,11.9-13.5,16-21l10.2,4.3C1373,302.4,1371.8,311.2,1372.4,319.8z"/>
			<path class="st17" d="M1376.4,293.8l-11.2-4.7c-0.6-0.2-0.8-0.9-0.6-1.5l0,0c0.2-0.6,0.9-0.8,1.5-0.6l11.2,4.7
				c0.6,0.2,0.8,0.9,0.6,1.5l0,0C1377.7,293.8,1377,294.1,1376.4,293.8z"/>
			<path class="st4" d="M1380.2,284.7l-11.2-4.7c-0.6-0.2-0.8-0.9-0.6-1.5l0,0c0.2-0.6,0.9-0.8,1.5-0.6l11.2,4.7
				c0.6,0.2,0.8,0.9,0.6,1.5l0,0C1381.5,284.7,1380.8,285,1380.2,284.7z"/>
			
				<rect x="1368.6" y="282.2" transform="matrix(0.9236 0.3834 -0.3834 0.9236 214.2046 -504.8984)" class="st16" width="10" height="5.4"/>
			<circle class="st16" cx="1382.4" cy="263.6" r="2.9"/>
			<circle class="st16" cx="1379.2" cy="271.2" r="6.6"/>
			<path class="st17" d="M1380.1,282.2l-9.2-3.8l0.5-13.5c1.4,0.5,2.4,1.5,2.6,3c5.1-1.5,9,0.3,11.8,4.9c0.8-1,2-1,3.5-0.4
				L1380.1,282.2z"/>
			<path class="st4" d="M1377.3,291.7l-11.2-4.7c-0.6-0.2-0.8-0.9-0.6-1.5l0,0c0.2-0.6,0.9-0.8,1.5-0.6l11.2,4.7
				c0.6,0.2,0.8,0.9,0.6,1.5v0C1378.5,291.7,1377.9,292,1377.3,291.7z"/>
		</g>
	</g>
	<g>
		<g id="XMLID_498_">
			<circle id="XMLID_505_" class="st18" cx="1053.6" cy="89.4" r="43"/>
			
				<linearGradient id="XMLID_2_" gradientUnits="userSpaceOnUse" x1="1076.9106" y1="185.9946" x2="1076.9106" y2="113.6294" gradientTransform="matrix(0.9783 -0.2073 0.2073 0.9783 -39.0539 160.8363)">
				<stop  offset="0" style="stop-color:#F2751C"/>
				<stop  offset="1" style="stop-color:#FFC400"/>
			</linearGradient>
			<path id="XMLID_503_" class="st19" d="M1075.8,52.6c-9-5.4-20-7.6-31.1-5.3c-23.2,4.9-38.1,27.7-33.2,51
				c2.4,11.1,8.8,20.3,17.4,26.3L1075.8,52.6z"/>
			<g id="XMLID_500_">
				<g>
					<circle id="XMLID_9_" class="st20" cx="1053.6" cy="89.4" r="31.4"/>
				</g>
			</g>
		</g>
		<g>
			<path id="XMLID_493_" class="st18" d="M1067,89.8C1067.3,90.1,1067.5,90.4,1067,89.8C1066.5,89.2,1066.8,89.5,1067,89.8
				c-1.6-1.8-4-2.7-6.3-3.1c-1.5-0.3-3.1-0.3-4.7-0.4l-2.1-9.8c1.3,0,2.6,0.1,3.8,0.6c0.6,0.3,1.1,0.6,1.5,1
				c0.2,0.2,0.4,0.5,0.6,0.7c0.2,0.3,0.3,0.5,0.5,0.8c0.6,0.9,1.6,1.3,2.7,1.2c1-0.2,1.9-1,2.1-2c0.1-0.5,0.1-1-0.1-1.5
				c-0.1-0.3-0.3-0.6-0.4-0.9c-0.2-0.3-0.4-0.6-0.6-0.9c-0.7-1-1.7-1.9-2.7-2.5c-2.2-1.4-4.9-1.9-7.4-1.8c-0.3,0-0.7,0-1,0.1
				l-0.6-2.8c-0.2-1-1-1.8-2-2c-1-0.2-2.1,0.2-2.7,1c-0.4,0.6-0.6,1.4-0.5,2.1l0.6,2.9c-2.5,0.9-4.8,2.4-6.3,4.6
				c-0.7,1-1.2,2.2-1.5,3.4c-0.3,1.3-0.3,2.6,0,3.9c0.3,1.3,0.8,2.5,1.6,3.5c0.8,1,1.8,1.7,2.9,2.3c2.3,1.1,4.9,1.4,7.4,1.5
				l2.2,10.2c-1.3-0.1-2.6-0.4-3.7-1.1c-0.5-0.3-1-0.7-1.4-1.2c-0.2-0.2-0.4-0.5-0.6-0.8c-0.2-0.3-0.3-0.6-0.5-0.8
				c-0.5-0.9-1.6-1.4-2.6-1.3c-1.1,0.1-1.9,0.9-2.2,1.9c-0.1,0.5-0.1,1,0,1.5c0.1,0.3,0.2,0.6,0.4,0.8c0.2,0.3,0.3,0.6,0.5,0.9
				c0.7,1.1,1.6,2,2.6,2.8c2.1,1.6,4.6,2.4,7.1,2.6c0.5,0,0.9,0,1.4,0l0.6,3c0.2,1,1,1.8,2,2c1,0.2,2.1-0.2,2.7-1
				c0.4-0.6,0.6-1.4,0.5-2.1l-0.6-2.8c2.6-0.8,5-2.1,6.8-4.1c1.6-1.9,2.5-4.5,2.2-7C1069,93.2,1068.3,91.3,1067,89.8z M1051.5,86
				c-0.6-0.1-1.2-0.1-1.8-0.2c-0.6-0.1-1.3-0.3-1.9-0.5c-0.5-0.2-1.1-0.5-1.4-1c-0.3-0.5-0.5-1.2-0.6-1.8c-0.1-0.6,0-1.2,0.3-1.8
				c0.6-1.5,2.1-2.6,3.6-3.2L1051.5,86z M1064.8,97c-0.6,2.1-2.8,3.3-4.7,3.9l-2-9.4c1.3,0.1,2.6,0.2,3.8,0.5
				c0.6,0.2,1.1,0.4,1.6,0.7c0.5,0.3,0.8,0.8,1,1.3C1064.9,94.9,1065.1,96,1064.8,97z"/>
		</g>
	</g>
	<g>
		<circle class="st4" cx="226.5" cy="124.6" r="43"/>
		<path class="st16" d="M249.8,160.8c-6.7,4.3-14.7,6.8-23.2,6.8c-23.7,0-43-19.3-43-43C204.5,124.6,235.9,137.5,249.8,160.8z"/>
		<linearGradient id="SVGID_11_" gradientUnits="userSpaceOnUse" x1="211.5189" y1="123.2929" x2="241.5476" y2="123.2929">
			<stop  offset="0" style="stop-color:#4263EB"/>
			<stop  offset="1" style="stop-color:#1F46E7"/>
		</linearGradient>
		<path class="st21" d="M216.5,136.2l-4.9-15.2c-0.3-0.9,0-1.8,0.8-2.4l12.9-9.4c0.7-0.5,1.8-0.5,2.5,0l12.9,9.4
			c0.7,0.5,1.1,1.5,0.8,2.4l-4.9,15.2c-0.3,0.9-1.1,1.5-2,1.5h-15.9C217.6,137.7,216.8,137.1,216.5,136.2z"/>
		<g>
			
				<linearGradient id="SVGID_12_" gradientUnits="userSpaceOnUse" x1="160.6294" y1="157.146" x2="191.4033" y2="157.146" gradientTransform="matrix(0.8933 0.4496 -0.4496 0.8933 157.0685 -128.9204)">
				<stop  offset="0" style="stop-color:#4263EB"/>
				<stop  offset="1" style="stop-color:#1F46E7"/>
			</linearGradient>
			<path class="st22" d="M250.6,98.6l5.3-5.4c-2.9-2.7-6.3-5.1-10.1-7c-3.8-1.9-7.7-3.2-11.6-3.9l-1.1,7.5c-0.1,0.6,0.2,1.1,0.7,1.4
				l15.3,7.7C249.6,99.1,250.2,99,250.6,98.6z"/>
			
				<linearGradient id="SVGID_13_" gradientUnits="userSpaceOnUse" x1="351.0041" y1="42.6434" x2="381.778" y2="42.6434" gradientTransform="matrix(0.7036 -0.7106 0.7106 0.7036 -88.6334 328.1593)">
				<stop  offset="0" style="stop-color:#4263EB"/>
				<stop  offset="1" style="stop-color:#1F46E7"/>
			</linearGradient>
			<path class="st23" d="M209.2,93.7l-3.5-6.7c-7,3.9-13,9.7-17.1,17.2l6.7,3.4c0.5,0.3,1.1,0.2,1.5-0.2L209,95.2
				C209.4,94.8,209.5,94.2,209.2,93.7z"/>
			
				<linearGradient id="SVGID_14_" gradientUnits="userSpaceOnUse" x1="518.7269" y1="188.3236" x2="549.5008" y2="188.3236" gradientTransform="matrix(-0.4584 -0.8887 0.8887 -0.4584 270.1492 703.0811)">
				<stop  offset="0" style="stop-color:#4263EB"/>
				<stop  offset="1" style="stop-color:#1F46E7"/>
			</linearGradient>
			<path class="st24" d="M191.8,131.5l-7.4,1.2c1.6,8,5.4,15.6,11.1,21.6l5.3-5.4c0.4-0.4,0.5-1,0.2-1.5l-7.9-15.2
				C192.9,131.7,192.3,131.4,191.8,131.5z"/>
			
				<linearGradient id="SVGID_15_" gradientUnits="userSpaceOnUse" x1="432.0106" y1="392.8537" x2="462.7845" y2="392.8537" gradientTransform="matrix(-0.9869 0.1613 -0.1613 -0.9869 737.5909 477.7158)">
				<stop  offset="0" style="stop-color:#4263EB"/>
				<stop  offset="1" style="stop-color:#1F46E7"/>
			</linearGradient>
			<path class="st25" d="M222.4,159.8l-1.1,7.5c8.3,1,16.6-0.4,24-3.9l-3.5-6.7c-0.3-0.5-0.8-0.8-1.4-0.7l-16.9,2.8
				C222.9,158.8,222.4,159.3,222.4,159.8z"/>
			
				<linearGradient id="SVGID_16_" gradientUnits="userSpaceOnUse" x1="210.6942" y1="373.58" x2="241.4681" y2="373.58" gradientTransform="matrix(-0.1515 0.9885 -0.9885 -0.1515 667.7032 -36.4894)">
				<stop  offset="0" style="stop-color:#4263EB"/>
				<stop  offset="1" style="stop-color:#1F46E7"/>
			</linearGradient>
			<path class="st26" d="M260.6,121.2l-2.6,16.9c-0.1,0.6,0.2,1.1,0.7,1.4l6.7,3.4c3.6-7.7,4.8-16.1,3.7-24l-7.5,1.2
				C261.1,120.2,260.7,120.6,260.6,121.2z"/>
		</g>
	</g>
	<g>
		<g>
			<linearGradient id="SVGID_17_" gradientUnits="userSpaceOnUse" x1="151.8555" y1="377.2833" x2="250.7836" y2="377.2833">
				<stop  offset="0" style="stop-color:#4263EB"/>
				<stop  offset="1" style="stop-color:#1F46E7"/>
			</linearGradient>
			<path class="st27" d="M244.8,335.4h-87c-3.3,0-5.9,2.7-5.9,5.9v59c0,3.3,2.7,5.9,5.9,5.9h77.1l12.3,12.3c1.3,1.3,3.6,0.4,3.6-1.5
				v-16.7v-25v-34.1C250.8,338,248.1,335.4,244.8,335.4z"/>
			<g>
				<line class="st28" x1="232.2" y1="354.1" x2="237.9" y2="354.1"/>
				<line class="st28" x1="166.6" y1="354.1" x2="223.9" y2="354.1"/>
				<line class="st28" x1="223.1" y1="362.5" x2="237.9" y2="362.5"/>
				<line class="st28" x1="166.6" y1="362.5" x2="215.8" y2="362.5"/>
				<line class="st28" x1="195.9" y1="370.9" x2="237.9" y2="370.9"/>
				<line class="st28" x1="166.6" y1="370.9" x2="174.2" y2="370.9"/>
				<line class="st28" x1="226.5" y1="379.3" x2="237.9" y2="379.3"/>
				<line class="st28" x1="166.6" y1="379.3" x2="217" y2="379.3"/>
				<line class="st28" x1="166.6" y1="387.7" x2="228.2" y2="387.7"/>
			</g>
		</g>
		<g>
			<linearGradient id="SVGID_18_" gradientUnits="userSpaceOnUse" x1="155.3045" y1="360.3467" x2="155.3045" y2="276.5416">
				<stop  offset="0" style="stop-color:#F2751C"/>
				<stop  offset="1" style="stop-color:#FFC400"/>
			</linearGradient>
			<path class="st29" d="M111.8,360.3h87c3.3,0,5.9-2.7,5.9-5.9v-59c0-3.3-2.7-5.9-5.9-5.9h-77.1l-12.3-12.3
				c-1.3-1.3-3.6-0.4-3.6,1.5v16.7v25v34.1C105.8,357.7,108.5,360.3,111.8,360.3z"/>
			<g>
				<line class="st28" x1="119.4" y1="308" x2="190.8" y2="308"/>
				<line class="st28" x1="184.3" y1="317.1" x2="190.8" y2="317.1"/>
				<line class="st28" x1="119.4" y1="317.1" x2="178.1" y2="317.1"/>
				<line class="st28" x1="146.1" y1="326.2" x2="186" y2="326.2"/>
				<line class="st28" x1="119.4" y1="326.2" x2="131.9" y2="326.2"/>
				<line class="st28" x1="175.9" y1="335.2" x2="190.8" y2="335.2"/>
				<line class="st28" x1="119.4" y1="335.2" x2="169.1" y2="335.2"/>
				<line class="st28" x1="119.4" y1="344.3" x2="176.8" y2="344.3"/>
			</g>
		</g>
	</g>
	<g>
		<g>
			<path class="st0" d="M1213.5,329.1h-154.7c-2.5,0-4.5-2-4.5-4.5V219.2c0-2.5,2-4.5,4.5-4.5h154.7c2.5,0,4.5,2,4.5,4.5v105.4
				C1218,327.1,1216,329.1,1213.5,329.1z"/>
		</g>
		<g>
			<path class="st30" d="M1218,329.1V218.2c0-1.9-1.5-3.4-3.4-3.4h-156.7c-1.9,0-3.4,1.5-3.4,3.4V261"/>
		</g>
		<g>
			<g>
				<g>
					<rect x="1074.8" y="253.7" class="st31" width="14.9" height="56"/>
				</g>
				<rect x="1102.7" y="240.1" class="st18" width="14.9" height="69.6"/>
				<rect x="1130.6" y="269" class="st5" width="14.9" height="40.7"/>
				<linearGradient id="SVGID_19_" gradientUnits="userSpaceOnUse" x1="1165.9802" y1="309.7141" x2="1165.9802" y2="255.4912">
					<stop  offset="0" style="stop-color:#F2751C"/>
					<stop  offset="1" style="stop-color:#FFC400"/>
				</linearGradient>
				<rect x="1158.5" y="255.5" class="st32" width="14.9" height="54.2"/>
				<rect x="1186.4" y="281.7" class="st2" width="14.9" height="28"/>
			</g>
		</g>
	</g>
	<g>
		<path class="st0" d="M338.8,203.2l0.2,150.7c0,1,0.8,1.8,1.8,1.8l105.5-0.1c1,0,1.8-0.8,1.8-1.8L448,230.4l-29.2-29.1l-78.1,0.1
			C339.6,201.4,338.8,202.2,338.8,203.2z"/>
		<path class="st30" d="M378.4,201.3l-37.7,0c-1,0-1.8,0.8-1.8,1.8l0.1,109.5"/>
		<path class="st30" d="M408.3,355.6l-67.5,0.1c-1,0-1.8-0.8-1.8-1.8v-8.5"/>
		<path class="st2" d="M448,230.4l-29.2-29.1l0,27.4c0,1,0.8,1.8,1.8,1.8L448,230.4z"/>
		<line class="st30" x1="448.1" y1="254.9" x2="448.1" y2="301.4"/>
		<g>
			<linearGradient id="SVGID_20_" gradientUnits="userSpaceOnUse" x1="362.8888" y1="278.4576" x2="378.5968" y2="278.4576">
				<stop  offset="0" style="stop-color:#4263EB"/>
				<stop  offset="1" style="stop-color:#1F46E7"/>
			</linearGradient>
			<path class="st33" d="M362.9,278.5c0-4.7,3.2-8.2,7.9-8.2c4.7,0,7.8,3.3,7.8,8.2c0,4.7-3.2,8.1-7.9,8.1
				C366.1,286.6,362.9,283.2,362.9,278.5z"/>
			<linearGradient id="SVGID_21_" gradientUnits="userSpaceOnUse" x1="385.704" y1="278.4576" x2="401.412" y2="278.4576">
				<stop  offset="0" style="stop-color:#4263EB"/>
				<stop  offset="1" style="stop-color:#1F46E7"/>
			</linearGradient>
			<path class="st34" d="M385.7,278.5c0-4.7,3.2-8.2,7.9-8.2c4.7,0,7.8,3.3,7.8,8.2c0,4.7-3.2,8.1-7.9,8.1
				C389,286.6,385.7,283.2,385.7,278.5z"/>
			<linearGradient id="SVGID_22_" gradientUnits="userSpaceOnUse" x1="408.5193" y1="278.4576" x2="424.2272" y2="278.4576">
				<stop  offset="0" style="stop-color:#4263EB"/>
				<stop  offset="1" style="stop-color:#1F46E7"/>
			</linearGradient>
			<path class="st35" d="M408.5,278.5c0-4.7,3.2-8.2,7.9-8.2c4.7,0,7.8,3.3,7.8,8.2c0,4.7-3.2,8.1-7.9,8.1
				C411.8,286.6,408.5,283.2,408.5,278.5z"/>
		</g>
	</g>
	<g>
		
			<linearGradient id="SVGID_23_" gradientUnits="userSpaceOnUse" x1="414.0989" y1="337.0541" x2="500.0992" y2="337.0541" gradientTransform="matrix(1 -1.780347e-005 1.780347e-005 1 8.1223 12.9716)">
			<stop  offset="0" style="stop-color:#239B6A"/>
			<stop  offset="1" style="stop-color:#4CCD9B"/>
		</linearGradient>
		<circle class="st36" cx="465.2" cy="350" r="43"/>
		<circle class="st4" cx="465.2" cy="350" r="33.4"/>
		<circle class="st37" cx="465.2" cy="350" r="21.8"/>
		<circle class="st38" cx="465.2" cy="350" r="3.8"/>
		<line class="st39" x1="481.6" y1="325.8" x2="465.2" y2="350"/>
		<line class="st40" x1="486.7" y1="350" x2="466.5" y2="350"/>
	</g>
	<g>
		<linearGradient id="SVGID_24_" gradientUnits="userSpaceOnUse" x1="1090.115" y1="488.4114" x2="1090.115" y2="414.7023">
			<stop  offset="0" style="stop-color:#F2751C"/>
			<stop  offset="1" style="stop-color:#FFC400"/>
		</linearGradient>
		<path class="st41" d="M1142.8,415.5c0-0.4-0.3-0.8-0.8-0.8h-51.8h-52.7c0.7,25.8,12.7,44.3,32,58c1.7,1.2,2.6,3,2.6,4.9v9.1
			c0,1,1,1.8,2.1,1.8h31.9c1.2,0,2.1-0.8,2.1-1.8l0-9.1c0-1.9,1-3.7,2.6-4.9C1129.9,459.1,1141.8,440.9,1142.8,415.5z"/>
		<g>
			<path class="st2" d="M1057.2,404.5h117.6c-0.6-4.1-7.1-8.9-29.3-9.4c-21-1.1-19.4-19.8-42.2-19
				C1083.9,376.2,1070,398.5,1057.2,404.5z"/>
			<path class="st2" d="M1134.4,375.6c-1.7,3.1-1,7.2,1.2,9.9c1.9,2.2,4.5,3.6,7.4,3.9c3.9,0.2,8-1.3,10.5-4.2
				c0.4-0.5,0.7-1,0.9-1.5c0.2-0.6,0.4-1.1,0.5-1.8c0.3-2.9-1-5.7-3.3-7.8c-0.6-0.5-1.2-1-1.9-1.4s-1.4-0.7-2.1-1
				c-0.6-0.2-1.3-0.4-2-0.5s-1.4-0.2-2.1-0.2c-2.6,0.2-6,0.3-7.7,2.7C1135.3,374.2,1134.8,374.8,1134.4,375.6z"/>
		</g>
	</g>
</g>
</svg>
