<?xml version="1.0" encoding="utf-8"?>
<!-- Generator: Adobe Illustrator 19.1.1, SVG Export Plug-In . SVG Version: 6.00 Build 0)  -->
<svg version="1.1" xmlns="http://www.w3.org/2000/svg" xmlns:xlink="http://www.w3.org/1999/xlink" x="0px" y="0px"
	 viewBox="0 0 1000 860" style="enable-background:new 0 0 1000 860;" xml:space="preserve">
<style type="text/css">
	.st0{fill:#FFFFFF;}
	.st1{fill:#D9EDF6;}
	.st2{fill:none;stroke:#F2751C;stroke-width:3;stroke-linecap:round;stroke-miterlimit:10;stroke-dasharray:5,10.5783;}
	.st3{fill:#F2751C;}
	.st4{fill:none;stroke:#4263EB;stroke-width:3;stroke-linecap:round;stroke-miterlimit:10;stroke-dasharray:10.6576,10.6576;}
	.st5{fill:url(#SVGID_1_);}
	.st6{fill:url(#SVGID_2_);}
	.st7{fill:url(#SVGID_3_);}
	.st8{fill:none;stroke:#1F46E7;stroke-width:3;stroke-miterlimit:10;}
	.st9{fill-rule:evenodd;clip-rule:evenodd;fill:none;stroke:#EAEACD;stroke-width:10.7282;stroke-miterlimit:10;}
	.st10{fill:#239B6A;}
	.st11{fill:url(#SVGID_4_);}
	.st12{fill:#4CCD9B;}
	.st13{fill:url(#SVGID_5_);}
	.st14{fill:url(#SVGID_6_);}
	.st15{fill:url(#SVGID_7_);}
	.st16{fill:none;stroke:#CCDFDD;stroke-width:1.1876;stroke-miterlimit:10;}
	.st17{fill:url(#SVGID_8_);}
	.st18{fill:#FFC400;}
	.st19{fill:url(#SVGID_9_);}
	.st20{fill:url(#SVGID_10_);}
</style>
<g id="bg">
	<rect class="st0" width="1000" height="860"/>
</g>
<g id="cloud">
	<g>
		<path class="st1" d="M813.9,329c-16.9-6.7-34.9-8.7-52.9-10.7c-72-7-163,25-216-37.1c-7.5-10.4-14.5-20.9-21.3-31.2
			c-20.4-31-39.1-61-64.2-88.9c-10.8-11.8-22.2-23-34.2-33.2c-34.7-33.8-79.2-52-125.6-55.3c-15.5-1.1-31.1-0.6-46.7,1.6
			c-62,7.4-114.2,42.7-151.9,90.4c-9.4,11.9-17.9,24.6-25.4,37.8C17,311.3,21,467.3,121,554.3c23,19.3,48.2,30,74.6,35.3
			c13.2,2.7,26.6,4,40.2,4.4c11.2,1.3,21.2,0.3,32.2-0.7c80-13,180-38,241,35c23,28.5,44.5,59,69.4,84.8c8.3,8.6,17,16.7,26.2,24
			c12.9,9.2,26.9,17.4,41.7,24.4c14.8,7,30.3,12.7,46.1,17C740,792.3,793,792.3,839,769.3c75-38,118-120,122-201
			c3-73-17-153-74.4-203.3c-11.9-9.8-25.4-18-40.5-24C836.1,336.4,825.3,332.4,813.9,329z"/>
		<path class="st1" d="M302.8,667.1c7.5-37.6,47-56,82.5-54.8c43.5,1.8,87.9,29.3,94.9,74.7c3.8,26.3-11.7,51.7-35.7,64.1
			c-43.3,21.7-97.9,9.4-126.9-28.4C304.7,706.9,298.7,687.1,302.8,667.1z"/>
		<path class="st1" d="M530.7,167.3c10.3-49,67.3-72,112.3-56c34,12,61,41,66,77c5,44-32,84-75,90c-50,7-98-29-104.8-77.6
			C527.6,189.9,528,178.6,530.7,167.3z"/>
		<path class="st1" d="M826.2,202.1c0.2,17.2-12,32.2-27.1,39.2c-18,8-41.9,2-51.9-16c-7.8-14-4.7-31,5.4-44
			c8.1-10,20.2-16,32.1-16.4C807.7,163.7,826.3,180.3,826.2,202.1z"/>
	</g>
</g>
<g id="Layer_6">
	<g>
		<path class="st2" d="M951.3,402.4h-55.2c-5.6,0-10.6-3.6-12.4-8.9l-43.8-127.9c-4.2-12.4-22-11.6-25.1,1.1L794,350.5
			c-1.5,5.8-6.7,9.9-12.7,9.9H607.9c-5.8,0-10.8-3.8-12.5-9.2l-52.6-170.8c-1.7-5.5-6.8-9.2-12.5-9.2H272.5c-4.8,0-9.2,2.6-11.5,6.8
			l-48,87.8c-5,9.1-18,9.1-23,0l-47.8-87.7c-2.3-4.2-6.7-6.8-11.5-6.8H67.1"/>
		<path class="st3" d="M201,286.7c9.2,0,16.7-7.5,16.7-16.7c0-9.2-7.5-16.7-16.7-16.7s-16.7,7.5-16.7,16.7
			C184.2,279.2,191.7,286.7,201,286.7z M201,261.3c4.8,0,8.6,3.9,8.6,8.6c0,4.8-3.9,8.6-8.6,8.6s-8.6-3.9-8.6-8.6
			C192.3,265.2,196.2,261.3,201,261.3z"/>
		<path class="st3" d="M828,275.3c9.2,0,16.7-7.5,16.7-16.7c0-9.2-7.5-16.7-16.7-16.7s-16.7,7.5-16.7,16.7
			C811.2,267.8,818.7,275.3,828,275.3z M828,249.9c4.8,0,8.6,3.9,8.6,8.6c0,4.8-3.9,8.6-8.6,8.6s-8.6-3.9-8.6-8.6
			C819.3,253.8,823.2,249.9,828,249.9z"/>
	</g>
	<g>
		<path class="st4" d="M955,468.9l-107.4,48.8c-2.1,1-3.7,2.7-4.5,4.9l-15.8,47.3c-2.5,7.6-13.4,7.6-15.8-0.1l-30.3-95.1
			c-1.1-3.5-4.3-5.8-7.9-5.8h-56.9h-437c-2.7,0-5.3,1.3-6.8,3.5l-64,91.1c-3.5,5.1-11.2,4.6-14.1-0.8l-82.2-150.9
			c-1.5-2.7-4.3-4.3-7.3-4.3H63"/>
		
			<linearGradient id="SVGID_1_" gradientUnits="userSpaceOnUse" x1="892.253" y1="409.7968" x2="925.747" y2="409.7968" gradientTransform="matrix(-1 0 0 1 1018 0)">
			<stop  offset="0" style="stop-color:#4263EB"/>
			<stop  offset="1" style="stop-color:#1F46E7"/>
		</linearGradient>
		<path class="st5" d="M122.5,420.4c10.8-16.9-7.1-34.8-24-24c-1.2,0.7-2.2,1.7-2.9,2.9c-10.8,16.9,7.1,34.8,24,24
			C120.7,422.5,121.7,421.5,122.5,420.4z M115.5,403.7c6.6,9.1-3.5,19.2-12.6,12.6c-0.2-0.1-0.3-0.3-0.4-0.4
			c-6.6-9.1,3.5-19.2,12.6-12.6C115.2,403.4,115.4,403.6,115.5,403.7z"/>
		
			<linearGradient id="SVGID_2_" gradientUnits="userSpaceOnUse" x1="156.9392" y1="519.8393" x2="190.4332" y2="519.8393" gradientTransform="matrix(-1 0 0 1 1018 0)">
			<stop  offset="0" style="stop-color:#4263EB"/>
			<stop  offset="1" style="stop-color:#1F46E7"/>
		</linearGradient>
		<path class="st6" d="M857.8,530.4c10.8-16.9-7.1-34.8-24-24c-1.2,0.7-2.2,1.7-2.9,2.9c-10.8,16.9,7.1,34.8,24,24
			C856,532.6,857,531.6,857.8,530.4z M850.8,513.8c6.6,9.1-3.5,19.2-12.6,12.6c-0.2-0.1-0.3-0.3-0.4-0.4
			c-6.6-9.1,3.5-19.2,12.6-12.6C850.6,513.4,850.7,513.6,850.8,513.8z"/>
	</g>
</g>
<g id="list">
	<g>
		<path class="st0" d="M751.9,760h-501c-6.8,0-12.3-5.5-12.3-12.3V89.3c0-6.8,5.5-12.3,12.3-12.3h501c6.8,0,12.3,5.5,12.3,12.3
			v658.4C764.2,754.5,758.7,760,751.9,760z"/>
		<linearGradient id="SVGID_3_" gradientUnits="userSpaceOnUse" x1="256.3789" y1="436.3657" x2="782.0587" y2="436.3657">
			<stop  offset="0" style="stop-color:#4263EB"/>
			<stop  offset="1" style="stop-color:#1F46E7"/>
		</linearGradient>
		<path class="st7" d="M769.7,777.9h-501c-6.8,0-12.3-5.5-12.3-12.3V107.2c0-6.8,5.5-12.3,12.3-12.3h501c6.8,0,12.3,5.5,12.3,12.3
			v658.4C782.1,772.4,776.5,777.9,769.7,777.9z"/>
		<path class="st0" d="M751.9,760h-501c-6.8,0-12.3-5.5-12.3-12.3V89.3c0-6.8,5.5-12.3,12.3-12.3h501c6.8,0,12.3,5.5,12.3,12.3
			v658.4C764.2,754.5,758.7,760,751.9,760z"/>
		<path class="st1" d="M764.2,89.3c0-6.8-5.5-12.3-12.3-12.3h-501c-6.8,0-12.3,5.5-12.3,12.3v23.9h525.7V89.3z"/>
		<path class="st8" d="M238.5,480.2V89.3c0-6.8,5.5-12.3,12.3-12.3h221.1"/>
		<path class="st8" d="M646.2,77h105.6c6.8,0,12.3,5.5,12.3,12.3v658.4c0,6.8-5.5,12.3-12.3,12.3h-501c-6.8,0-12.3-5.5-12.3-12.3
			v-60.1"/>
		<circle class="st0" cx="260.7" cy="97.3" r="7.7"/>
		<circle class="st0" cx="283.5" cy="97.3" r="7.7"/>
		<circle class="st0" cx="306.3" cy="97.3" r="7.7"/>
	</g>
</g>
<g id="text">
	<g>
		<line class="st9" x1="281.9" y1="151.8" x2="719.6" y2="151.8"/>
		<line class="st9" x1="679.6" y1="192.7" x2="719.6" y2="192.7"/>
		<line class="st9" x1="281.9" y1="192.7" x2="641.5" y2="192.7"/>
		<line class="st9" x1="445.2" y1="233.7" x2="690.1" y2="233.7"/>
		<line class="st9" x1="281.9" y1="233.7" x2="358.1" y2="233.7"/>
		<line class="st9" x1="628.2" y1="274.7" x2="719.6" y2="274.7"/>
		<line class="st9" x1="281.9" y1="274.7" x2="586.8" y2="274.7"/>
		<line class="st9" x1="281.9" y1="315.6" x2="633.5" y2="315.6"/>
	</g>
	<g>
		<line class="st9" x1="649.5" y1="434.8" x2="719.6" y2="434.8"/>
		<line class="st9" x1="281.9" y1="434.8" x2="590.8" y2="434.8"/>
		<line class="st9" x1="281.9" y1="466.8" x2="659.5" y2="466.8"/>
		<line class="st9" x1="670.9" y1="507.8" x2="719.6" y2="507.8"/>
		<line class="st9" x1="601.5" y1="507.8" x2="646.2" y2="507.8"/>
		<line class="st9" x1="281.9" y1="507.8" x2="576.5" y2="507.8"/>
		<line class="st9" x1="281.9" y1="548.7" x2="719.6" y2="548.7"/>
		<line class="st9" x1="281.9" y1="589.7" x2="628.2" y2="589.7"/>
		<line class="st9" x1="719.6" y1="630.6" x2="623.9" y2="630.6"/>
		<line class="st9" x1="432.1" y1="630.6" x2="586.8" y2="630.6"/>
		<line class="st9" x1="281.9" y1="630.6" x2="364" y2="630.6"/>
		<line class="st9" x1="633.5" y1="671.6" x2="719.6" y2="671.6"/>
		<line class="st9" x1="455" y1="671.6" x2="601.5" y2="671.6"/>
		<line class="st9" x1="281.9" y1="671.6" x2="402" y2="671.6"/>
		<line class="st9" x1="404" y1="712.6" x2="573.5" y2="712.6"/>
		<line class="st9" x1="281.9" y1="712.6" x2="352.7" y2="712.6"/>
	</g>
</g>
<g id="graph02">
	<g>
		<path class="st10" d="M764.2,37.1v23.4c25.3,0,45.8,20.5,45.8,45.8c0,25.3-20.5,45.8-45.8,45.8v23.4c38.2,0,69.2-31,69.2-69.2
			S802.4,37.1,764.2,37.1z"/>
		<linearGradient id="SVGID_4_" gradientUnits="userSpaceOnUse" x1="694.9871" y1="71.6717" x2="833.3698" y2="71.6717">
			<stop  offset="0" style="stop-color:#FF9A01"/>
			<stop  offset="1" style="stop-color:#FFC400"/>
		</linearGradient>
		<path class="st11" d="M764.2,60.4V37.1c-38.2,0-69.2,31-69.2,69.2h23.4C718.3,81,738.9,60.4,764.2,60.4z"/>
		<path class="st12" d="M764.2,60.4V37.1c-38.2,0-69.2,31-69.2,69.2h23.4C718.3,81,738.9,60.4,764.2,60.4z"/>
		<linearGradient id="SVGID_5_" gradientUnits="userSpaceOnUse" x1="694.9871" y1="140.863" x2="833.3698" y2="140.863">
			<stop  offset="0" style="stop-color:#FF9A01"/>
			<stop  offset="1" style="stop-color:#FFC400"/>
		</linearGradient>
		<path class="st13" d="M764.2,175.5v-23.4c-25.3,0-45.8-20.5-45.8-45.8H695C695,144.5,726,175.5,764.2,175.5z"/>
		<linearGradient id="SVGID_6_" gradientUnits="userSpaceOnUse" x1="553.3867" y1="140.863" x2="764.1784" y2="140.863">
			<stop  offset="0" style="stop-color:#FF9A01"/>
			<stop  offset="1" style="stop-color:#FFC400"/>
		</linearGradient>
		<path class="st14" d="M764.2,175.5v-23.4c-25.3,0-45.8-20.5-45.8-45.8H695C695,144.5,726,175.5,764.2,175.5z"/>
		<linearGradient id="SVGID_7_" gradientUnits="userSpaceOnUse" x1="640.1143" y1="140.863" x2="764.1785" y2="140.863">
			<stop  offset="0" style="stop-color:#4CCD9B"/>
			<stop  offset="1" style="stop-color:#239B6A"/>
		</linearGradient>
		<path class="st15" d="M764.2,175.5v-23.4c-25.3,0-45.8-20.5-45.8-45.8H695C695,144.5,726,175.5,764.2,175.5z"/>
	</g>
</g>
<g id="graph01">
	<g>
		<circle class="st0" cx="452.9" cy="675.2" r="31"/>
		<circle class="st0" cx="340" cy="675.2" r="31"/>
		<circle class="st0" cx="229.6" cy="675.2" r="31"/>
		<g>
			<g>
				<path class="st16" d="M71.7,675.3c0,23.5,19.1,42.6,42.6,42.6c23.5,0,42.6-19.1,42.6-42.6c0-23.5-19.1-42.6-42.6-42.6
					C90.8,632.7,71.7,651.7,71.7,675.3z M85.7,675.3c0-15.8,12.8-28.6,28.6-28.6c15.8,0,28.6,12.8,28.6,28.6s-12.8,28.6-28.6,28.6
					C98.5,703.9,85.7,691.1,85.7,675.3z"/>
				
					<linearGradient id="SVGID_8_" gradientUnits="userSpaceOnUse" x1="385.7643" y1="675.2914" x2="471.0402" y2="675.2914" gradientTransform="matrix(-1 0 0 1 542.7036 0)">
					<stop  offset="0" style="stop-color:#F2751C"/>
					<stop  offset="1" style="stop-color:#FFC400"/>
				</linearGradient>
				<path class="st17" d="M71.7,675.3c0,23.5,19.1,42.6,42.6,42.6c23.5,0,42.6-19.1,42.6-42.6c0-23.5-19.1-42.6-42.6-42.6
					C90.8,632.7,71.7,651.7,71.7,675.3z M85.7,675.3c0-15.8,12.8-28.6,28.6-28.6c15.8,0,28.6,12.8,28.6,28.6s-12.8,28.6-28.6,28.6
					C98.5,703.9,85.7,691.1,85.7,675.3z"/>
			</g>
			<g>
				<path class="st18" d="M410.1,675.3c0,23.5,19.1,42.6,42.6,42.6c23.5,0,42.6-19.1,42.6-42.6c0-23.5-19.1-42.6-42.6-42.6
					C429.2,632.7,410.1,651.7,410.1,675.3z M424.2,675.3c0-15.8,12.8-28.6,28.6-28.6c15.8,0,28.6,12.8,28.6,28.6
					s-12.8,28.6-28.6,28.6C437,703.9,424.2,691.1,424.2,675.3z"/>
				<path class="st3" d="M452.8,632.7C452.8,632.7,452.8,632.7,452.8,632.7l0.1,14.1c0,0-0.1,0-0.1,0c-15.8,0-28.6,12.8-28.6,28.6
					c0,0,0,0,0,0h-14.1c0,0,0,0,0,0C410.1,651.7,429.2,632.7,452.8,632.7z"/>
			</g>
			<g>
				<path class="st18" d="M297.3,675.3c0,23.5,19.1,42.6,42.6,42.6c23.5,0,42.6-19.1,42.6-42.6c0-23.5-19.1-42.6-42.6-42.6
					C316.4,632.7,297.3,651.7,297.3,675.3z M311.4,675.3c0-15.8,12.8-28.6,28.6-28.6c15.8,0,28.6,12.8,28.6,28.6
					s-12.8,28.6-28.6,28.6C324.2,703.9,311.4,691.1,311.4,675.3z"/>
				<path class="st3" d="M297.3,675.3c0-23.5,19.1-42.6,42.6-42.6c0,0,0,0,0.1,0v14.1c0,0,0,0-0.1,0c-15.8,0-28.6,12.8-28.6,28.6
					s12.8,28.6,28.6,28.6c0,0,0,0,0.1,0v14.1c0,0,0,0-0.1,0C316.4,717.9,297.3,698.8,297.3,675.3z"/>
			</g>
			<g>
				<path class="st18" d="M184.5,675.3c0,23.5,19.1,42.6,42.6,42.6c23.5,0,42.6-19.1,42.6-42.6c0-23.5-19.1-42.6-42.6-42.6
					C203.6,632.7,184.5,651.7,184.5,675.3z M198.5,675.3c0-15.8,12.8-28.6,28.6-28.6c15.8,0,28.6,12.8,28.6,28.6
					s-12.8,28.6-28.6,28.6C211.3,703.9,198.5,691.1,198.5,675.3z"/>
				<path class="st3" d="M227.1,632.7C227.2,632.7,227.2,632.7,227.1,632.7l0.1,14.1c0,0-0.1,0-0.1,0c-15.8,0-28.6,12.8-28.6,28.6
					s12.8,28.6,28.6,28.6c7.9,0,15.1-3.2,20.2-8.4l9.9,9.9c-7.7,7.7-18.4,12.5-30.2,12.5c-23.5,0-42.6-19.1-42.6-42.6
					C184.5,651.7,203.6,632.7,227.1,632.7z"/>
			</g>
		</g>
	</g>
</g>
<g id="ad">
	<linearGradient id="SVGID_9_" gradientUnits="userSpaceOnUse" x1="281.899" y1="378.0313" x2="484.159" y2="378.0313">
		<stop  offset="0" style="stop-color:#F2751C"/>
		<stop  offset="1" style="stop-color:#FFC400"/>
	</linearGradient>
	<rect x="281.9" y="355" class="st19" width="202.3" height="46"/>
	<linearGradient id="SVGID_10_" gradientUnits="userSpaceOnUse" x1="509.4421" y1="378.0313" x2="711.7021" y2="378.0313">
		<stop  offset="0" style="stop-color:#F2751C"/>
		<stop  offset="1" style="stop-color:#FFC400"/>
	</linearGradient>
	<rect x="509.4" y="355" class="st20" width="202.3" height="46"/>
	<g>
		<g>
			<path class="st3" d="M351.1,394.5l13.5-32.9h7.6l13.4,32.9h-7.3l-2.4-6.2h-15.1l-2.4,6.2H351.1z M363,382.5h10.6l-4.6-11.8
				c-0.2-0.7-0.5-1.3-0.7-2.6c-0.2,1.3-0.5,1.9-0.8,2.6L363,382.5z"/>
			<path class="st3" d="M401.6,361.6c11.7,0,17.3,6.9,17.3,16.5c0,9.6-5.6,16.5-17.3,16.5h-12.3v-32.9H401.6z M401.6,367.8h-5.3
				v20.5h5.3c6.5,0,10.1-3.5,10.1-10.3C411.6,371.3,408.1,367.8,401.6,367.8z"/>
		</g>
		<g>
			<path class="st0" d="M347.2,394.5l13.5-32.9h7.6l13.4,32.9h-7.3l-2.4-6.2H357l-2.4,6.2H347.2z M359.2,382.5h10.6l-4.6-11.8
				c-0.2-0.7-0.5-1.3-0.7-2.6c-0.2,1.3-0.5,1.9-0.8,2.6L359.2,382.5z"/>
			<path class="st0" d="M397.7,361.6c11.7,0,17.3,6.9,17.3,16.5c0,9.6-5.6,16.5-17.3,16.5h-12.3v-32.9H397.7z M397.7,367.8h-5.3
				v20.5h5.3c6.5,0,10.1-3.5,10.1-10.3C407.8,371.3,404.2,367.8,397.7,367.8z"/>
		</g>
	</g>
	<g>
		<g>
			<path class="st3" d="M578.6,394.5l13.5-32.9h7.6l13.4,32.9h-7.3l-2.4-6.2h-15.1l-2.4,6.2H578.6z M590.6,382.5h10.6l-4.6-11.8
				c-0.2-0.7-0.5-1.3-0.7-2.6c-0.2,1.3-0.5,1.9-0.8,2.6L590.6,382.5z"/>
			<path class="st3" d="M629.1,361.6c11.7,0,17.3,6.9,17.3,16.5c0,9.6-5.6,16.5-17.3,16.5h-12.3v-32.9H629.1z M629.1,367.8h-5.3
				v20.5h5.3c6.5,0,10.1-3.5,10.1-10.3C639.2,371.3,635.7,367.8,629.1,367.8z"/>
		</g>
		<g>
			<path class="st0" d="M574.8,394.5l13.5-32.9h7.6l13.4,32.9h-7.3l-2.4-6.2h-15.1l-2.4,6.2H574.8z M586.7,382.5h10.6l-4.6-11.8
				c-0.2-0.7-0.5-1.3-0.7-2.6c-0.2,1.3-0.5,1.9-0.8,2.6L586.7,382.5z"/>
			<path class="st0" d="M625.2,361.6c11.7,0,17.3,6.9,17.3,16.5c0,9.6-5.6,16.5-17.3,16.5h-12.3v-32.9H625.2z M625.2,367.8H620v20.5
				h5.3c6.5,0,10.1-3.5,10.1-10.3C635.3,371.3,631.8,367.8,625.2,367.8z"/>
		</g>
	</g>
</g>
</svg>
