<svg xmlns="http://www.w3.org/2000/svg" xmlns:xlink="http://www.w3.org/1999/xlink" viewBox="0 0 630 290"><defs><style>.cls-1{fill:#fff;}.cls-2{fill:url(#linear-gradient);}.cls-3{fill:#239b6a;}.cls-4{fill:url(#linear-gradient-2);}.cls-5{fill:#4263eb;}.cls-6{fill:#c9e5f2;}.cls-7{fill:#d9edf6;}.cls-8{fill:url(#linear-gradient-3);}.cls-9{fill:url(#linear-gradient-4);}.cls-10{fill:#4ccd9b;}.cls-11{fill:#1f46e7;}.cls-12{fill:#b9ddee;}.cls-13{fill:url(#linear-gradient-5);}.cls-14{fill:#3054e9;}.cls-15,.cls-21{fill:none;stroke:#c8cbac;stroke-linecap:round;stroke-miterlimit:10;}.cls-15{stroke-width:0.38px;}.cls-16{fill:#f2751c;}.cls-17{fill:url(#linear-gradient-6);}.cls-18{fill:url(#linear-gradient-7);}.cls-19{fill:#fecc4d;}.cls-20{fill:#eaeacd;}.cls-21{stroke-width:0.38px;}.cls-22{fill:url(#linear-gradient-8);}.cls-23{fill:#f8631a;}</style><linearGradient id="linear-gradient" x1="266.81" y1="164.58" x2="326.18" y2="164.58" gradientTransform="translate(-36.71 90.4) rotate(-16.95)" gradientUnits="userSpaceOnUse"><stop offset="0" stop-color="#239b6a"/><stop offset="1" stop-color="#4ccd9b"/></linearGradient><linearGradient id="linear-gradient-2" x1="286.74" y1="148.4" x2="383.05" y2="182.72" gradientUnits="userSpaceOnUse"><stop offset="0" stop-color="#f2751c"/><stop offset="1" stop-color="#ffc400"/></linearGradient><linearGradient id="linear-gradient-3" x1="213.23" y1="55.35" x2="248.71" y2="55.35" xlink:href="#linear-gradient-2"/><linearGradient id="linear-gradient-4" x1="425.87" y1="162.41" x2="451.23" y2="121.99" gradientTransform="matrix(1, 0, 0, 1, 0, 0)" xlink:href="#linear-gradient"/><linearGradient id="linear-gradient-5" x1="689.57" y1="183.07" x2="720.37" y2="133.98" gradientTransform="matrix(-1, 0, 0, 1, 1203.08, 0)" xlink:href="#linear-gradient"/><linearGradient id="linear-gradient-6" x1="194.61" y1="170.78" x2="197.53" y2="138.71" gradientTransform="translate(-76.42 89.34) rotate(-22.94)" gradientUnits="userSpaceOnUse"><stop offset="0" stop-color="#f1b827"/><stop offset="1" stop-color="#fecc4d"/></linearGradient><linearGradient id="linear-gradient-7" x1="205.56" y1="159.92" x2="205.56" y2="146" gradientTransform="matrix(1, 0, 0, 1, 0, 0)" xlink:href="#linear-gradient"/><linearGradient id="linear-gradient-8" x1="218.88" y1="188.52" x2="224.23" y2="142.31" gradientTransform="matrix(-1, 0, 0, 1, 353.19, 0)" xlink:href="#linear-gradient-6"/></defs><title>adv-1</title><g id="bg"><rect class="cls-1" width="630" height="290"/></g><g id="plants"><path class="cls-2" d="M296.61,160.24c-4.28-4.83,1.95-14.52-2.31-19.07-4.61-5-10.65,3.23-17.09-1.58-3.88-3.33.85-8.36-4.53-15.91-3.25-4.75-8.93-.28-14.36-3.15a.55.55,0,0,0-.79.58c1,6-4.51,9.59-1,14.19,5.42,7.52,11.71,4.65,13.61,9.39,2.49,7.64-7.27,10.72-4,16.7,2.95,5.49,14.12,2.7,17.32,8.3,4.76,9.21-14.07,15.84-9.06,25.82,6.62,13.17,30.61,6.3,45.13,10.56.63-15.12,14.82-35.64,4.47-46.13C316.13,152,303.81,167.7,296.61,160.24Z"/><path class="cls-3" d="M257.53,121.11c1,6-4.51,9.59-1,14.19,5.42,7.52,11.71,4.65,13.61,9.39,2.49,7.64-7.27,10.72-4,16.7,2.95,5.49,14.12,2.7,17.32,8.3,4.76,9.21-14.07,15.84-9.06,25.82,6.62,13.17,30.61,6.3,45.13,10.56,0,0,0-.06,0-.09l-61.89-85.26A.48.48,0,0,0,257.53,121.11Z"/><path class="cls-4" d="M375.54,203.8H305.31c-1.53-1.78-2.7-3.59-1.55-5.53,1.51-1.49,2.64-.76,3.77,0-2.19-7.73-9.25-10.47-8.42-13.52,1.5-3.93,8.12.92,13.51,3.77-1.71-6.87-9.54-9.46-7.35-13,1.4-1.81,9.22,2.58,14.66,5.86-7.86-14.56-23.48-30.51-19.49-34.56,4.15-3.43,15.6,9.57,23.48,18.61-7.31-24.92-28.46-55.27-21.71-58.7,11.41-5.21,31.06,33.36,44.53,63.13-5-15.82-11.08-36.88-3.23-39.34,8-2.75,19.41,31.71,23.83,53.74,2.84-7.65,6.09-16.06,12-14.62C385.06,171.57,379.22,190.39,375.54,203.8Z"/><path class="cls-5" d="M537.6,210.34h70.22c1.54-1.79,2.7-3.6,1.55-5.54-1.51-1.48-2.64-.75-3.77,0,2.19-7.72,9.25-10.46,8.42-13.51-1.49-3.93-8.12.92-13.51,3.77,1.72-6.87,9.54-9.46,7.35-12.95-1.4-1.81-9.22,2.58-14.66,5.86,7.86-14.57,23.48-30.52,19.49-34.56C608.54,150,597.1,163,589.21,172c7.31-24.92,28.47-55.27,21.71-58.71-11.41-5.2-31,33.37-44.52,63.14,5-15.82,11.07-36.89,3.22-39.35-8-2.74-19.4,31.71-23.83,53.75-2.83-7.66-6.09-16.06-12-14.62C528.07,178.11,533.92,196.93,537.6,210.34Z"/></g><g id="clouds"><path class="cls-6" d="M237.94,223.64l463.93-1c-5.7-9.79-11.77-19.14-24.68-23.85-13.54-5-24,3.78-39.06-4-10.24-6.05-13.22-18.06-23.27-22.53-14.79-6.39-27.94,2.79-43.3-3.35-12-8.71-12.41-20.22-15.65-31-4.67-15.54-11.79-30.33-38.83-39.39C436.63,76.14,316.67,211.36,237.94,223.64Z"/><path class="cls-7" d="M146,71,35.83,70.74c1.35-2.32,2.79-4.54,5.86-5.66s5.69.9,9.27-1c2.43-1.44,3.14-4.29,5.53-5.35,3.51-1.52,6.63.66,10.28-.8,2.85-2.06,2.94-4.8,3.71-7.36,1.11-3.69,2.81-7.2,9.22-9.35C98.81,36,127.29,68.06,146,71Z"/><path class="cls-7" d="M306.78,93.79l184.79-.25c-1.49-2.56-3.08-5-6.46-6.24-3.54-1.3-6.27,1-10.21-1.06-2.68-1.58-3.46-4.72-6.09-5.89-3.86-1.67-7.3.73-11.32-.88-3.15-2.27-3.25-5.28-4.09-8.11-1.22-4.06-3.09-7.93-10.16-10.3-21-5.84-48,25.74-62.89,26.51-8.86,0-22.68-11.31-33.88-11.31C333.42,76.16,321.63,87.69,306.78,93.79Z"/><path class="cls-7" d="M-10.85,264.71h430c-14.17-4.5-16.5-16.5-30.67-26-13.29-8.78-34.43.55-53.14-9-30.79-15-72.67-92-138.69-93.53-49,0-57.84,45.67-76.17,49.17-26.67,4-37.5-16.67-67.33-1.34C16.48,204.79,28.65,250.21-10.85,264.71Z"/></g><g id="sun"><circle class="cls-8" cx="230.97" cy="55.35" r="17.74"/></g><g id="man"><path class="cls-9" d="M471.89,126.68c.11-.46-5.61-1.94-5.94-2.29l-1.12-11.89c-.76-.82-3.87-3.93-5.06-2.93-5.08,8.67-10,24.65-13,28.6l-1.62-.25-25.72-4a4.4,4.4,0,0,0-5.59,3.44h0c-.58,2.57,6.27,6.25,8.8,7L450.12,153c.33.14,1.8.53,1.82.52a7.52,7.52,0,0,0,7.54-3.48C464,144.83,472.62,137.83,471.89,126.68Z"/><path class="cls-1" d="M418.23,142.31c-1.94.41-4.82-1.74-6.49-3.18a4.88,4.88,0,0,0-3.11-1.23c-.82,0-2.2-.12-3.3-.22a3.57,3.57,0,0,1-2.65-1.69l-.56-.88a1,1,0,0,1,.57-1.53L413,132a9.83,9.83,0,0,1,6,1.59c.3.2.6.4.89.61a4.55,4.55,0,0,1-1.5,8.08Z"/><path class="cls-10" d="M468,104.06l17.22-.07a18.81,18.81,0,0,1,18.2,13.83l12.83,46.84H472.64L459.51,115.1A8.79,8.79,0,0,1,468,104.06Z"/><path class="cls-11" d="M432,164.66l15.51,18.69H487a8.11,8.11,0,0,0,8-9.71l-1.8-9Z"/><circle class="cls-11" cx="432.35" cy="174.29" r="9.63"/><path class="cls-5" d="M455,164.66l15.51,18.69h39.55a8.11,8.11,0,0,0,8-9.71l-1.81-9Z"/><path class="cls-12" d="M542.61,154.79c56.13-7.46,88.06,38.52,107.55,37.22,12-1.32,17.34-7.27,29.05-7.37,22.24,0,31.4,22.36,56.52,27.72,11.65,1.3,21.85-5.31,32.32-2.43,9,2,15.24,6.7,21.07,14.07H433.05C479,208.2,484.11,165,542.61,154.79Z"/><path class="cls-11" d="M455.79,239.83l1.31,5.43a3.78,3.78,0,0,1-3.68,4.67H424.49a1.43,1.43,0,0,1-.79-2.61l14-7.49Z"/><polygon class="cls-11" points="423.06 176.85 437.86 239.83 455.96 239.83 447.48 183.35 441.69 171.94 423.06 176.85"/><circle class="cls-5" cx="455.39" cy="174.29" r="9.63"/><polygon class="cls-5" points="446.11 176.85 460.84 239.83 479.01 239.83 470.52 183.35 464.73 171.94 446.11 176.85"/><path class="cls-11" d="M478.9,239.83l1.31,5.43a3.79,3.79,0,0,1-3.68,4.67H447.59a1.42,1.42,0,0,1-.78-2.61l14-7.49Z"/><path class="cls-13" d="M472.12,156,498,153.27A267.28,267.28,0,0,0,485.25,116c-2-5.83,2.82-8.69,5.73-9.38,4.47-.94,8.84,2.76,11,7,5.66,10.93,13.14,33.79,13.33,45.5a7.53,7.53,0,0,1-6.71,7.48s-1.54,0-1.89,0l-28.82-1.29c-2.64-.08-10.2-1.86-10.31-4.49h0A4.4,4.4,0,0,1,472.12,156Z"/><path class="cls-1" d="M473.17,164.46c-1.77.89-5.11-.44-7.09-1.4a4.85,4.85,0,0,0-3.33-.38c-.8.2-2.16.44-3.24.63a3.56,3.56,0,0,1-3-.94l-.77-.7a1,1,0,0,1,.16-1.64l9.51-4.17a9.86,9.86,0,0,1,6.17,0l1,.35a4.56,4.56,0,0,1,.64,8.2Z"/><path class="cls-11" d="M455.2,160.56h24.48a0,0,0,0,1,0,0V165a0,0,0,0,1,0,0h-29a0,0,0,0,1,0,0v0A4.48,4.48,0,0,1,455.2,160.56Z" transform="translate(930.39 325.59) rotate(180)"/><path class="cls-5" d="M418,165H458.4l-6.1-29.12a2,2,0,0,0-2.1-1.61H412c-2.87,0-3,1-2.59,2.93l5.25,25.05A3.46,3.46,0,0,0,418,165Z"/><path class="cls-14" d="M418,165a3.46,3.46,0,0,1-3.39-2.75l-4.2-20.06C423.88,158.33,448.9,146,456.5,165H418Z"/><ellipse class="cls-1" cx="432.18" cy="150.84" rx="2.68" ry="3.52" transform="translate(-0.22 301.05) rotate(-38.4)"/><path class="cls-1" d="M453.9,82.55c-.08,8.89.88,14.72,4.09,20.82a4.79,4.79,0,0,0,4.64,2.52h.05a2.71,2.71,0,0,1,2.54,1.27l.3,5a2.88,2.88,0,0,0,.31,1.12c3.95,7.65,14.41,2.44,16.66-3.72a4.11,4.11,0,0,0-.05-2.85l-4.84-8-6.13-21.45Z"/><ellipse class="cls-1" cx="474.27" cy="91.64" rx="4.3" ry="3.12" transform="translate(372.68 563.88) rotate(-88.8)"/><path class="cls-5" d="M455.36,78.5l11.73-5.58c6.19-1.39,11.12,2.29,12.43,8.46a40.41,40.41,0,0,1-.36,18.68.94.94,0,0,1-1.55.45l-1.88-5.1a4.76,4.76,0,0,0,1.65-3.7c.05-2.38-1.3-4.33-3-4.37a3,3,0,0,0-2.44,1.52c-.25.37-.48.51-.53-.11l-.24-1.54a6.21,6.21,0,0,0-7.92-5l-9.35,1.67C448.74,82.4,448.86,79.89,455.36,78.5Z"/><path class="cls-15" d="M471.2,101.52c-1.27,2.34-3.44,4.09-7.82,4.39"/><path class="cls-5" d="M472.47,81.67c-3.14,2.35-3.46-.23-5.89,0-5.17.93-6.76,3.4-12.86,4.81a4.6,4.6,0,0,1-5.49-5.25,3.59,3.59,0,0,1,5.15-2.71,11.74,11.74,0,0,1,8.09-6.19,16.09,16.09,0,0,1,15,5.85Z"/></g><g id="girl"><path class="cls-5" d="M201.48,144H226.3c-.15-1-1.68-2.12-7-2.23-5-.26-4.62-4.7-10-4.51C204.7,137.25,201.87,142.18,201.48,144Z"/><polygon class="cls-11" points="161.11 186.84 184.69 204.2 189.93 200.66 189.15 186.84 161.11 186.84"/><polygon class="cls-11" points="205.42 186.84 181.09 186.84 180.72 205.69 208.56 204.2 205.42 186.84"/><polygon class="cls-5" points="123.74 177.9 123.74 186.84 161.11 186.84 153.33 177.9 123.74 177.9"/><path class="cls-5" d="M182.49,206.08l-42.34,3.5a15.15,15.15,0,0,1-16.39-15.1v-7.65h66Z"/><path class="cls-12" d="M128.55,195.79C72.42,188.33,40.49,234.31,21,233c-12-1.32-17.34-7.27-29-7.37-22.24,0-31.4,22.36-56.52,27.72-11.64,1.3-21.85-5.31-32.32-2.43-9,2-15.24,6.7-21.06,14.07H238.12C192.14,249.2,187.05,206,128.55,195.79Z"/><path class="cls-16" d="M104.51,143.87c-8.59-4.34-5.18-19.89,8.52-22.2-1.22-7.72,3.65-11.83,12.72-13.44-.2-3.8,2.16-5.13,5.15-5.87l-.38,2.21,7-2.86L159.37,97c4.5,8,2.26,14.47-1.08,17,5.84,4.94,4.68,13.23-1.14,13.7,12,23.82,1,37.65-28.51,41.56a26.86,26.86,0,0,1-16.91-5.52c-3.44-2.81-5.06-6.55-5.43-11.44C102.69,151.76,99.53,146.84,104.51,143.87Z"/><ellipse class="cls-16" cx="122.85" cy="164.33" rx="6.84" ry="7.14"/><path class="cls-16" d="M157.24,103.22c-5.36,4.09-12,2.92-20.2,2.18l-7.3-.51c-.53-12.66,7.42-18.61,18.36-16.73,10.22,2.18,16.83,13,8.8,24.31Z"/><path class="cls-17" d="M157.82,130.79c-3.1,1.23-4.52,5.29-4.15,8.73.83,7.67,6.08,23.91,9.09,32.79a5.24,5.24,0,0,0,7.65,2.81l5.27-3.15a13.71,13.71,0,0,1-1.4-3.6c-4.27-12.08-7.63-23.59-9.45-34.15C163.7,129.86,159.87,130,157.82,130.79Z"/><path class="cls-1" d="M202.15,153.64h0a4,4,0,0,1-1.56,5.17h0a4.44,4.44,0,0,0-3,.56l-26,15.26c-5,2.79-7.44.86-8.66-1.46h0c-1-2.13.32-5.33,4.59-7.25L198,152.42l.87-.68C200.61,150.75,201.19,151.92,202.15,153.64Z"/><path class="cls-1" d="M196.92,155.35a7.7,7.7,0,0,1,6.73-3.3l6.27.2a1.06,1.06,0,0,1,.69,1.74l-3.24,3.89a3.3,3.3,0,0,1-2.78,1.21l-5.33-.43Z"/><path class="cls-18" d="M201,146h9.1a0,0,0,0,1,0,0v11.79a2.12,2.12,0,0,1-2.12,2.12h-4.85a2.12,2.12,0,0,1-2.12-2.12V146A0,0,0,0,1,201,146Z"/><path class="cls-1" d="M198.82,151.74l2.06-1.61a2.41,2.41,0,0,1,.59-.26l2.15-.6a.32.32,0,0,1,.36.13l.07.1a.61.61,0,0,1-.21.86l-1.42.78a.88.88,0,0,0-.24.19l-1.37,2Z"/><path class="cls-19" d="M163.27,131.43c-2.82-2.59-26.33-13.26-41.93-1.76,0,12.94,2.42,34.92,2.53,48.41l29.46-.18C155.55,157.4,163.79,151.16,163.27,131.43Z"/><polygon class="cls-11" points="123.75 181.94 154.57 179.33 153.33 177.9 153.7 174.9 123.75 176.23 123.75 181.94"/><path class="cls-1" d="M157.94,103.09c.41,5.63-1,12.54-4.35,17.34-1.61,2.27-4.52,1.71-5.16,1.58l2.14,6.54a1.79,1.79,0,0,1-1,1.66c-4.72,2.39-11.6,2.35-15-2.23a2,2,0,0,1-.54-1.42c.52-3.49,1.37-8.11,2.17-14.33a.44.44,0,0,0-.15-.48c-4-2.48-2.34-6.85,1.42-6.42a.52.52,0,0,0,.51-.28C140.05,101,148.86,104.89,157.94,103.09Z"/><path class="cls-20" d="M136.26,112c3.53,5.5,6.53,8.3,12.17,10l2.14,6.54C140,128.2,139.35,119.94,136.26,112Z"/><path class="cls-21" d="M140.27,117.21a21.31,21.31,0,0,0,8,4.74"/><path class="cls-11" d="M176.43,151H154.11a1.46,1.46,0,0,1-1.43-1.76L156,133.56a1.21,1.21,0,0,1,1.25-1h22.84c1.71,0,1.77.62,1.55,1.75l-3.14,15A2.08,2.08,0,0,1,176.43,151Z"/><path class="cls-5" d="M177.67,151H155.35a1.46,1.46,0,0,1-1.43-1.76l3.28-15.64a1.21,1.21,0,0,1,1.25-1h22.84c1.71,0,1.77.62,1.55,1.75l-3.14,15A2.08,2.08,0,0,1,177.67,151Z"/><path class="cls-14" d="M177.67,151H155.35a1.46,1.46,0,0,1-1.43-1.76l2.51-12C165.36,139.42,173.93,143.07,177.67,151Z"/><path class="cls-22" d="M117.73,131.85c-3.34,2.87-3,7-1.86,10.85,3.74,12.23,17.08,35.24,23.3,37.41,1.79.63,4.82-2.78,5.94-4.35h0a5.41,5.41,0,0,0,.29-5.26c-7.57-13-14-25.46-18.37-37.2-1.36-3.25-3.87-4.87-5.7-3.83A23.89,23.89,0,0,0,117.73,131.85Z"/><path class="cls-1" d="M161.85,146l1.26-2.28a2.56,2.56,0,0,1,.45-.48l1.74-1.39a.33.33,0,0,1,.39,0l.1.07a.6.6,0,0,1,.14.87l-1,1.27a1.17,1.17,0,0,0-.15.27l-.49,2.37Z"/><path class="cls-1" d="M165.65,146.45h0a4,4,0,0,1,.58,5.37h0a4.46,4.46,0,0,0-2.53,1.68l-18.65,25.1a5.43,5.43,0,0,1-7.85,1.11h0c-1.78-1.57-2.14-4.52,0-7L161.32,147l.53-1C163.11,144.39,164.1,145.24,165.65,146.45Z"/><path class="cls-1" d="M161.5,150.07a7.7,7.7,0,0,1,4.92-5.66l5.85-2.27a1.05,1.05,0,0,1,1.31,1.33l-1.46,4.84a3.28,3.28,0,0,1-2.1,2.2L165,152.2Z"/><path class="cls-5" d="M190.54,186.83h-9.95l-15.34,77.89H176.1L196,194A5.65,5.65,0,0,0,190.54,186.83Z"/><path class="cls-23" d="M177.81,258.62H166.39l-4,17.88a.72.72,0,0,0,.71.89h22.21a.66.66,0,0,0,.26-1.27l-11.4-4.8Z"/><path class="cls-11" d="M195.25,186.83h10.17a10.7,10.7,0,0,1,10.68,10.11l3.82,67.87-10.4,1.44Z"/><path class="cls-23" d="M219.61,259.58H208.56l2.38,17.35a1,1,0,0,0,.93.81h18.21a.89.89,0,0,0,.37-1.69l-8.53-3.94a1.57,1.57,0,0,1-.92-1.27Z"/><rect class="cls-1" y="264.71" width="48" height="13.03"/></g></svg>