<svg xmlns="http://www.w3.org/2000/svg" xmlns:xlink="http://www.w3.org/1999/xlink" viewBox="0 0 520 310"><defs><style>.cls-1{fill:#fff;}.cls-2{fill:#d9edf6;}.cls-13,.cls-3,.cls-5,.cls-8{fill:none;stroke-linecap:round;stroke-miterlimit:10;}.cls-3{stroke:#239b6a;stroke-dasharray:4 5;}.cls-3,.cls-8{stroke-width:1.5px;}.cls-4{fill:#239b6a;}.cls-5{stroke:#f2751c;stroke-width:1.5px;}.cls-6{fill:#f2751c;}.cls-7{fill:#1f46e7;}.cls-8{stroke:#1f46e7;stroke-dasharray:2 3;}.cls-9{fill:url(#linear-gradient);}.cls-10{fill:url(#linear-gradient-2);}.cls-11{fill:#4ccd9b;}.cls-12{fill:url(#linear-gradient-3);}.cls-13{stroke:#c8cbac;stroke-width:1px;}</style><linearGradient id="linear-gradient" x1="199.99" y1="283.51" x2="239.79" y2="213.5" gradientUnits="userSpaceOnUse"><stop offset="0" stop-color="#239b6a"/><stop offset="1" stop-color="#4ccd9b"/></linearGradient><linearGradient id="linear-gradient-2" x1="331.32" y1="283.06" x2="282.38" y2="219.1" xlink:href="#linear-gradient"/><linearGradient id="linear-gradient-3" x1="263.09" y1="265.85" x2="263.09" y2="195.58" gradientUnits="userSpaceOnUse"><stop offset="0" stop-color="#4263eb"/><stop offset="1" stop-color="#1f46e7"/></linearGradient></defs><title>adv-4</title><g id="bg"><rect class="cls-1" width="520" height="310"/></g><g id="cloud"><path class="cls-2" d="M30,275H490c-44.25-20.75-28.5-68.37-66.5-95.5-30.5-23.29-46,0-80.14-21.17-35.69-24-26.69-75-88.69-75-59.34,0-52,52-81.34,69.67-30,17.33-48.39,7-69.33,22C58.83,208.83,102.5,268,30,275Z"/><path class="cls-2" d="M178.51,125.78c1.11,15.29-13.89,25.29-27.89,22.29-11-3-12-17-6-25s17-12,27.29-7.41A13.91,13.91,0,0,1,178.51,125.78Z"/><path class="cls-2" d="M372,139.63c2.46,5,2.57,12.23-2.88,14.93-9.28,3.85-21.17-.9-24.07-10.47-1.94-9.86,7.12-15.57,18-11.71A19.6,19.6,0,0,1,372,139.63Z"/><path class="cls-2" d="M347.06,124.44a6.36,6.36,0,0,1-6.52,6.84,7.53,7.53,0,0,1-7.12-7.18,6.4,6.4,0,0,1,6.53-6.82A7.49,7.49,0,0,1,347.06,124.44Z"/></g><g id="graphs"><path class="cls-3" d="M467.5,137.11h-9.9a14.33,14.33,0,0,0-14.33,14.32h0A20.28,20.28,0,0,1,423,171.71H404.61a17.61,17.61,0,0,1-16.7-12l-6.72-19.94a10.14,10.14,0,0,0-19-.52l-5.94,14.87a18.49,18.49,0,0,1-17.17,11.63H299a24.77,24.77,0,0,1-21.47-12.41l-11.18-19.41a8.13,8.13,0,0,0-13.77-.52l-2.87,4.21a8.41,8.41,0,0,1-14.56-1.15l-5.9-12.54a7.77,7.77,0,0,0-13.73-.62l-2.64,4.51a12.93,12.93,0,0,1-11.17,6.41h0a10,10,0,0,1-9.6-7.3l-23.91-86a7.12,7.12,0,0,0-13.74.07L143.9,80.39a4.77,4.77,0,0,1-9.25-.11l-5.08-21a13.63,13.63,0,0,0-13.24-10.42H95.77a13.63,13.63,0,0,0-13,9.61L74.89,84a13.85,13.85,0,0,1-13.24,9.77"/><path class="cls-4" d="M253.88,130.89a5.94,5.94,0,1,0,5.93-5.94A5.93,5.93,0,0,0,253.88,130.89Zm2.87,0a3.07,3.07,0,1,1,3.06,3.06A3.06,3.06,0,0,1,256.75,130.89Z"/><path class="cls-4" d="M98.24,48.14a5.94,5.94,0,1,0,5.93-5.94A5.93,5.93,0,0,0,98.24,48.14Zm2.87,0a3.07,3.07,0,1,1,3.06,3.06A3.06,3.06,0,0,1,101.11,48.14Z"/><path class="cls-4" d="M419.65,171.65a5.94,5.94,0,1,0,5.94-5.94A5.93,5.93,0,0,0,419.65,171.65Zm2.87,0a3.07,3.07,0,1,1,3.07,3.06A3.07,3.07,0,0,1,422.52,171.65Z"/><path class="cls-5" d="M60.31,191.5l9-60.8a3.08,3.08,0,0,1,6.06-.21l2.77,12.58a4.9,4.9,0,0,0,8.8,1.76l1.77-2.54a5.91,5.91,0,0,1,9.78.14l36.86,56.17a14.9,14.9,0,0,0,12.46,6.73H153a15,15,0,0,0,13.38-8.18l20.58-40.08a10.55,10.55,0,0,1,18.6-.32l18,32.35a23.06,23.06,0,0,0,20.15,11.84h56.65a22.71,22.71,0,0,0,22.41-19l18.87-115c1-5.88,9.43-5.88,10.4,0l4.19,25.67a5.21,5.21,0,0,0,10.29,0l7.34-44c1.18-7.13,11.37-7.27,12.75-.18L395.3,93a9.75,9.75,0,0,0,9.57,7.88h18.25a11.12,11.12,0,0,1,10.31,7l17.65,43.72a8.43,8.43,0,0,0,15.69-.16l5.52-14.55"/><path class="cls-6" d="M290.48,200.84a5.94,5.94,0,1,0,5.94-5.94A5.93,5.93,0,0,0,290.48,200.84Zm2.87,0a3.07,3.07,0,1,1,3.07,3.06A3.07,3.07,0,0,1,293.35,200.84Z"/><path class="cls-6" d="M410.73,100.64a5.94,5.94,0,1,0,5.94-5.94A5.94,5.94,0,0,0,410.73,100.64Zm2.87,0a3.07,3.07,0,1,1,3.07,3.06A3.06,3.06,0,0,1,413.6,100.64Z"/><path class="cls-6" d="M66.33,129.31a5.94,5.94,0,1,0,5.94-5.94A5.93,5.93,0,0,0,66.33,129.31Zm2.87,0a3.07,3.07,0,1,1,3.07,3.06A3.08,3.08,0,0,1,69.2,129.31Z"/><path class="cls-7" d="M159.77,231.61a5.94,5.94,0,1,0,5.94-5.93A5.94,5.94,0,0,0,159.77,231.61Zm2.87,0a3.07,3.07,0,1,1,3.07,3.07A3.06,3.06,0,0,1,162.64,231.61Z"/><path class="cls-7" d="M366.19,208.53a5.94,5.94,0,1,0,5.94-5.94A5.94,5.94,0,0,0,366.19,208.53Zm2.88,0a3.06,3.06,0,1,1,3.06,3.06A3.06,3.06,0,0,1,369.07,208.53Z"/><path class="cls-8" d="M57.5,258h75.86a8.77,8.77,0,0,0,6.21-2.57l22.26-22.25a8.73,8.73,0,0,1,6.2-2.57h93.42a8.77,8.77,0,0,0,8.14-5.49l24.1-59.64a3.31,3.31,0,0,1,6-.25l20.88,41.33a3.31,3.31,0,0,0,2.95,1.81h45a8.81,8.81,0,0,1,7.63,4.44l12.35,21.68a8.8,8.8,0,0,0,7.63,4.43h76.19"/></g><g id="body"><path class="cls-9" d="M254.63,256.55l-43.7-4.63c6.26-23,13.31-44.19,21.54-62.85,3.39-9.83-4.75-14.67-9.67-15.83-7.55-1.58-14.92,4.66-18.61,11.78-9.55,18.45-22.18,57-22.49,76.77A12.7,12.7,0,0,0,193,274.41s2.59,0,3.18-.06l48.64-2.18c4.45-.13,17.22-3.13,17.39-7.58h0C262.41,260.13,259.1,256.29,254.63,256.55Z"/><path class="cls-1" d="M252.86,270.8c3,1.51,8.61-.74,12-2.36a8.27,8.27,0,0,1,5.61-.65c1.35.34,3.64.76,5.47,1.08a6,6,0,0,0,5.07-1.6l1.29-1.18a1.69,1.69,0,0,0-.27-2.76l-16-7a16.65,16.65,0,0,0-10.42,0q-.87.29-1.71.6a7.68,7.68,0,0,0-1.09,13.83Z"/><path class="cls-10" d="M265.37,256.55l43.7-4.63c-6.26-23-13.31-44.19-21.54-62.85-3.39-9.83,4.75-14.67,9.67-15.83,7.55-1.58,14.92,4.66,18.61,11.78,9.55,18.45,22.18,57,22.49,76.77A12.7,12.7,0,0,1,327,274.41s-2.59,0-3.18-.06l-48.64-2.18c-4.45-.13-17.22-3.13-17.39-7.58h0C257.59,260.13,260.9,256.29,265.37,256.55Z"/><path class="cls-1" d="M267.14,270.8c-3,1.51-8.61-.74-12-2.36a8.27,8.27,0,0,0-5.61-.65c-1.35.34-3.64.76-5.47,1.08a6,6,0,0,1-5.07-1.6l-1.29-1.18a1.69,1.69,0,0,1,.27-2.76l16-7a16.65,16.65,0,0,1,10.42,0q.87.29,1.71.6a7.68,7.68,0,0,1,1.09,13.83Z"/><path class="cls-11" d="M306.1,181.3c.64-5-3.89-7.79-9.28-9.32-24.65-5.36-49.82-5.08-75.43,0-6,1.43-9.92,4.35-9.29,9.32l2.1,72.08h90Z"/></g><g id="laptop"><path class="cls-7" d="M205.54,195.58h115.1a4.48,4.48,0,0,1,4.48,4.48v65.79a0,0,0,0,1,0,0H201.05a0,0,0,0,1,0,0V200.06A4.48,4.48,0,0,1,205.54,195.58Z"/><path class="cls-12" d="M320.64,195.58a4.48,4.48,0,0,1,4.48,4.48v65.79H201.05v-16.1C229.28,212.86,270,195.58,320.64,195.58Z"/><path class="cls-7" d="M201.05,265.85H325.12a0,0,0,0,1,0,0v6.4a2.74,2.74,0,0,1-2.74,2.74H203.8a2.74,2.74,0,0,1-2.74-2.74v-6.4A0,0,0,0,1,201.05,265.85Z"/><ellipse class="cls-1" cx="263.09" cy="235.47" rx="9.15" ry="7.32"/></g><g id="face"><ellipse class="cls-1" cx="281.87" cy="138.9" rx="10.07" ry="5.39" transform="translate(69.27 370.31) rotate(-73.66)"/><path class="cls-1" d="M277,172.17c-11.48,10.48-23.7,9.43-36.46,0l3.28-18.47h29.9Z"/><ellipse class="cls-1" cx="259.1" cy="134.89" rx="21.9" ry="33.21"/><path class="cls-13" d="M273.84,159.46c-3.9,5.37-9.07,8.65-14.74,8.65-5.92,0-11.29-3.57-15.23-9.36"/><path class="cls-6" d="M297,118.28a4.18,4.18,0,0,0-3.86-1.58c2.63-3.48,3.48-7.34,1.83-9.35-1.44-1.75-4.37-1.61-7.4.06,1.53-4.18,1.44-8-.49-9.29s-5.51.32-8.49,4c-1.52-.66-3.41-1.42-5.77-2.34-13-5.08-28.45-4.22-35.66,1.78-7.8,7.18-7.29,20.15-7.29,20.15s1,9.77,3.31,13.8l4.05-4.58c15.53-11.8,30.18,6.23,44.78,3.3,2.8-.73,4.78-1.42,6.07-2.47a15.73,15.73,0,0,0,4.28-2.47C296.74,125.82,298.81,120.9,297,118.28Z"/><ellipse class="cls-1" cx="235.81" cy="138.9" rx="5.39" ry="10.07" transform="translate(-29.55 71.95) rotate(-16.34)"/><ellipse class="cls-6" cx="275.79" cy="131.82" rx="5.07" ry="11.25" transform="translate(-17.42 218.21) rotate(-41.96)"/><ellipse class="cls-6" cx="265.36" cy="126.98" rx="5.07" ry="11.25" transform="translate(-27.86 150.65) rotate(-30.19)"/></g></svg>