<?xml version="1.0" encoding="utf-8"?>
<!-- Generator: Adobe Illustrator 16.0.0, SVG Export Plug-In . SVG Version: 6.00 Build 0)  -->
<!DOCTYPE svg PUBLIC "-//W3C//DTD SVG 1.1//EN" "http://www.w3.org/Graphics/SVG/1.1/DTD/svg11.dtd">
<svg version="1.1" id="Слой_1" xmlns="http://www.w3.org/2000/svg" xmlns:xlink="http://www.w3.org/1999/xlink" x="0px" y="0px"
	 width="520px" height="400px" viewBox="0 0 520 400" enable-background="new 0 0 520 400" xml:space="preserve">
<g>
	<g>
		<defs>
			<rect id="SVGID_1_" y="330.208" width="520" height="69.791"/>
		</defs>
		<clipPath id="SVGID_2_">
			<use xlink:href="#SVGID_1_"  overflow="visible"/>
		</clipPath>
		
			<radialGradient id="SVGID_3_" cx="-1018.8359" cy="522.3809" r="0.9996" gradientTransform="matrix(241.6741 0 0 51.6704 246489.625 -26668.5391)" gradientUnits="userSpaceOnUse">
			<stop  offset="0" style="stop-color:#96B7E1"/>
			<stop  offset="1" style="stop-color:#FFFFFF"/>
		</radialGradient>
		<rect y="330.208" clip-path="url(#SVGID_2_)" fill="url(#SVGID_3_)" width="520" height="69.791"/>
	</g>
</g>
<g>
	<g>
		<defs>
			<rect id="SVGID_4_" y="-40" width="520" height="440"/>
		</defs>
		<clipPath id="SVGID_5_">
			<use xlink:href="#SVGID_4_"  overflow="visible"/>
		</clipPath>
		<path clip-path="url(#SVGID_5_)" fill="#D9EDF6" d="M13.28,330.516H506.72c-25.379-8.541-19.278-23.915-33.677-38.068
			c-10.778-8.389-28.159-8.237-45.391-19.034c-25.989-21.964-1.83-131.78-44.658-152.279
			c-52.712-21.475-74.432,25.624-114.941,23.428c-36.361-4.881-55.396-35.629-95.174-23.916
			c-62.961,22.208-43.948,81.262-69.55,110.304c-18.913,17.937-28.674,10.737-39.29,28.309
			C46.957,286.102,66.968,316.363,13.28,330.516"/>
	</g>
	<g>
		<defs>
			<rect id="SVGID_6_" y="-40" width="520" height="440"/>
		</defs>
		<clipPath id="SVGID_7_">
			<use xlink:href="#SVGID_6_"  overflow="visible"/>
		</clipPath>
		<path clip-path="url(#SVGID_7_)" fill="#D9EDF6" d="M75.667,195.836c-9.627,15.146-8.631,23.518,3.467,24.803
			c9.601,0.4,18.549-9.824,24.803-20.803c1.934-3.867-1.2-9.867-8.534-12.001C85.597,185.428,80.209,189.969,75.667,195.836"/>
	</g>
	<g>
		<defs>
			<rect id="SVGID_8_" y="-40" width="520" height="440"/>
		</defs>
		<clipPath id="SVGID_9_">
			<use xlink:href="#SVGID_8_"  overflow="visible"/>
		</clipPath>
		<path clip-path="url(#SVGID_9_)" fill="#D9EDF6" d="M288.208,96.481c-19.035-3.866-45.621,30.511-16.993,36.097
			c14.573,6.138,25.252-3.076,31.364-15.269C309.26,103.985,298.734,100.014,288.208,96.481
			C283.428,95.51,288.977,96.738,288.208,96.481"/>
	</g>
	<g>
		<defs>
			<rect id="SVGID_10_" y="-40" width="520" height="440"/>
		</defs>
		<clipPath id="SVGID_11_">
			<use xlink:href="#SVGID_10_"  overflow="visible"/>
		</clipPath>
		<path clip-path="url(#SVGID_11_)" fill="#D9EDF6" d="M318.604,84.672c-12.404-5.296-14.08,1.929-11.379,10.223
			c2.217,6.655,8.465,5.508,13.694-0.772C324.48,89.654,322.994,86.723,318.604,84.672"/>
	</g>
	<g>
		<defs>
			<rect id="SVGID_12_" y="-40" width="520" height="440"/>
		</defs>
		<clipPath id="SVGID_13_">
			<use xlink:href="#SVGID_12_"  overflow="visible"/>
		</clipPath>
		<path clip-path="url(#SVGID_13_)" fill="#D9EDF6" d="M453.032,170.429c-8.198,0.582-11.958,4.881-11.958,10.738
			c0.733,6.118,4.607,8.607,11.958,7.077c5.902-1.237,12.689-2.563,12.689-6.833C464.831,173.713,460.716,169.914,453.032,170.429"
			/>
	</g>
	<g>
		<defs>
			<rect id="SVGID_14_" y="-40" width="520" height="440"/>
		</defs>
		<clipPath id="SVGID_15_">
			<use xlink:href="#SVGID_14_"  overflow="visible"/>
		</clipPath>
		<path clip-path="url(#SVGID_15_)" fill="#D9EDF6" d="M457.669,200.202c-15.534,3.412-23.693,12.2-24.16,26.6
			c1.913,15.946,11.485,23.123,28.553,21.72c11.559-2.306,17.306-10.295,18.791-22.451
			C481.829,210.695,472.433,197.03,457.669,200.202"/>
	</g>
	<g>
		<defs>
			<rect id="SVGID_16_" y="-40" width="520" height="440"/>
		</defs>
		<clipPath id="SVGID_17_">
			<use xlink:href="#SVGID_16_"  overflow="visible"/>
		</clipPath>
		
			<path clip-path="url(#SVGID_17_)" fill="none" stroke="#F2751C" stroke-width="1.5" stroke-linecap="round" stroke-miterlimit="10" stroke-dasharray="1,5" d="
			M472.294,196.729l-8.997-60.799c-0.502-3.391-5.33-3.559-6.065-0.211l-2.767,12.581c-0.917,4.172-6.36,5.255-8.805,1.752
			l-1.767-2.532c-2.392-3.426-7.485-3.354-9.777,0.139l-36.862,56.17c-2.755,4.198-7.438,6.729-12.461,6.729h-5.136
			c-5.644,0-10.813-3.158-13.388-8.179l-20.578-40.085c-3.849-7.497-14.5-7.679-18.603-0.317l-18.024,32.351
			c-4.071,7.312-11.783,11.842-20.151,11.842h-56.647c-11.126,0-20.613-8.059-22.414-19.038L190.984,72.1
			c-0.966-5.889-9.435-5.886-10.397,0.003l-4.194,25.673c-0.951,5.821-9.319,5.835-10.289,0.016l-7.337-44.021
			c-1.187-7.121-11.374-7.261-12.756-0.175l-8.709,44.665c-0.893,4.58-4.906,7.886-9.573,7.886h-18.243
			c-4.533,0-8.613,2.752-10.31,6.956l-17.652,43.722c-2.87,7.11-12.971,7.005-15.693-0.163L60.31,142.12"/>
	</g>
	<g>
		<defs>
			<rect id="SVGID_18_" y="-40" width="520" height="440"/>
		</defs>
		<clipPath id="SVGID_19_">
			<use xlink:href="#SVGID_18_"  overflow="visible"/>
		</clipPath>
		
			<path clip-path="url(#SVGID_19_)" fill="none" stroke="#4263EB" stroke-width="1.5" stroke-linecap="round" stroke-miterlimit="10" d="
			M479.327,159.82c-32.302,7.717-42.721-35.888-75.022-28.17c-15.885,3.795-21.438,16.269-26.822,28.886"/>
	</g>
	<g>
		<defs>
			<rect id="SVGID_20_" y="-40" width="520" height="440"/>
		</defs>
		<clipPath id="SVGID_21_">
			<use xlink:href="#SVGID_20_"  overflow="visible"/>
		</clipPath>
		
			<path clip-path="url(#SVGID_21_)" fill="none" stroke="#4263EB" stroke-width="1.5" stroke-linecap="round" stroke-miterlimit="10" stroke-dasharray="234.046,9.362" d="
			M373.7,169.1c-4.699,9.853-10.791,18.534-23.58,21.59c-32.304,7.717-42.722-35.888-75.022-28.171
			c-32.304,7.718-21.886,51.324-54.189,59.042c-14.613,3.491-24.747-3.519-34.455-11.529"/>
	</g>
	<g>
		<defs>
			<rect id="SVGID_22_" y="-40" width="520" height="440"/>
		</defs>
		<clipPath id="SVGID_23_">
			<use xlink:href="#SVGID_22_"  overflow="visible"/>
		</clipPath>
		
			<path clip-path="url(#SVGID_23_)" fill="none" stroke="#4263EB" stroke-width="1.5" stroke-linecap="round" stroke-miterlimit="10" d="
			M182.86,207.027c-10.505-8.817-21.097-17.431-36.981-13.636c-32.305,7.718-21.887,51.324-54.192,59.042"/>
	</g>
	<g>
		<defs>
			<rect id="SVGID_24_" y="-40" width="520" height="440"/>
		</defs>
		<clipPath id="SVGID_25_">
			<use xlink:href="#SVGID_24_"  overflow="visible"/>
		</clipPath>
		
			<path clip-path="url(#SVGID_25_)" fill="none" stroke="#239B6A" stroke-width="1.52" stroke-linecap="round" stroke-miterlimit="10" d="
			M61.646,121.537h9.9c7.91,0,14.322,6.412,14.322,14.322c0,11.2,9.08,20.281,20.281,20.281h18.384c7.566,0,14.288-4.83,16.702-12
			l6.714-19.939c3.012-8.945,15.536-9.29,19.035-0.524l5.935,14.866c2.805,7.027,9.609,11.637,17.176,11.637h40.042
			c8.863,0,17.052-4.733,21.476-12.414l11.178-19.411c2.994-5.198,10.394-5.476,13.769-0.518l2.869,4.213
			c3.663,5.381,11.788,4.738,14.561-1.152l5.902-12.545c2.662-5.655,10.573-6.01,13.73-0.616l2.643,4.514
			c2.321,3.965,6.571,6.402,11.168,6.402c4.478,0,8.403-2.984,9.604-7.298l23.908-86.016c1.941-6.987,11.865-6.94,13.74,0.065
			l10.557,39.415c1.279,4.776,8.085,4.694,9.249-0.111l5.084-20.989c1.48-6.113,6.954-10.418,13.243-10.418h20.555
			c5.979,0,11.26,3.897,13.021,9.61l7.862,25.482c1.792,5.811,7.162,9.774,13.242,9.774"/>
	</g>
	<g>
		<defs>
			<rect id="SVGID_26_" y="-40" width="520" height="440"/>
		</defs>
		<clipPath id="SVGID_27_">
			<use xlink:href="#SVGID_26_"  overflow="visible"/>
		</clipPath>
		
			<path clip-path="url(#SVGID_27_)" fill="none" stroke="#4263EB" stroke-width="1.5" stroke-linecap="round" stroke-miterlimit="10" stroke-dasharray="5,5" d="
			M61.5,46.178h73.534c7.39,0,14.478,2.937,19.703,8.161l9.308,9.308c5.226,5.226,12.314,8.162,19.704,8.162h120.897
			c7.392,0,14.479,2.935,19.703,8.161c5.228,5.226,12.313,8.161,19.703,8.161h131.104"/>
	</g>
	<g>
		<defs>
			<rect id="SVGID_28_" y="-40" width="520" height="440"/>
		</defs>
		<clipPath id="SVGID_29_">
			<use xlink:href="#SVGID_28_"  overflow="visible"/>
		</clipPath>
		<circle clip-path="url(#SVGID_29_)" fill="#FFFFFF" cx="134.292" cy="46.299" r="3.458"/>
	</g>
	<g>
		<defs>
			<rect id="SVGID_30_" y="-40" width="520" height="440"/>
		</defs>
		<clipPath id="SVGID_31_">
			<use xlink:href="#SVGID_30_"  overflow="visible"/>
		</clipPath>
		<path clip-path="url(#SVGID_31_)" fill="#4263EB" d="M134.266,40.241c-3.279,0-5.937,2.658-5.937,5.937
			c0,3.28,2.658,5.938,5.937,5.938c3.279,0,5.937-2.658,5.937-5.938C140.202,42.899,137.544,40.241,134.266,40.241 M134.266,49.241
			c-1.691,0-3.063-1.371-3.063-3.063c0-1.691,1.372-3.062,3.063-3.062s3.063,1.371,3.063,3.062
			C137.329,47.87,135.957,49.241,134.266,49.241"/>
	</g>
	<g>
		<defs>
			<rect id="SVGID_32_" y="-40" width="520" height="440"/>
		</defs>
		<clipPath id="SVGID_33_">
			<use xlink:href="#SVGID_32_"  overflow="visible"/>
		</clipPath>
		<circle clip-path="url(#SVGID_33_)" fill="#FFFFFF" cx="115" cy="106.008" r="3.458"/>
	</g>
	<g>
		<defs>
			<rect id="SVGID_34_" y="-40" width="520" height="440"/>
		</defs>
		<clipPath id="SVGID_35_">
			<use xlink:href="#SVGID_34_"  overflow="visible"/>
		</clipPath>
		<path clip-path="url(#SVGID_35_)" fill="#F2751C" d="M114.938,99.929c-3.279,0-5.937,2.658-5.937,5.937
			c0,3.28,2.658,5.938,5.937,5.938s5.937-2.658,5.937-5.938C120.875,102.587,118.216,99.929,114.938,99.929 M114.938,108.929
			c-1.691,0-3.063-1.371-3.063-3.063c0-1.691,1.372-3.062,3.063-3.062s3.063,1.371,3.063,3.062
			C118,107.558,116.628,108.929,114.938,108.929"/>
	</g>
	<g>
		<defs>
			<rect id="SVGID_36_" y="-40" width="520" height="440"/>
		</defs>
		<clipPath id="SVGID_37_">
			<use xlink:href="#SVGID_36_"  overflow="visible"/>
		</clipPath>
		<circle clip-path="url(#SVGID_37_)" fill="#FFFFFF" cx="102.568" cy="156.154" r="3.458"/>
	</g>
	<g>
		<defs>
			<rect id="SVGID_38_" y="-40" width="520" height="440"/>
		</defs>
		<clipPath id="SVGID_39_">
			<use xlink:href="#SVGID_38_"  overflow="visible"/>
		</clipPath>
		<path clip-path="url(#SVGID_39_)" fill="#239B6A" d="M102.555,149.136c-3.279,0-5.937,2.658-5.937,5.938
			c0,3.28,2.658,5.938,5.937,5.938c3.279,0,5.937-2.658,5.937-5.938C108.492,151.794,105.833,149.136,102.555,149.136
			 M102.555,158.136c-1.691,0-3.063-1.371-3.063-3.063c0-1.691,1.372-3.063,3.063-3.063s3.063,1.371,3.063,3.063
			C105.618,156.765,104.246,158.136,102.555,158.136"/>
	</g>
	<g>
		<defs>
			<rect id="SVGID_40_" y="-40" width="520" height="440"/>
		</defs>
		<clipPath id="SVGID_41_">
			<use xlink:href="#SVGID_40_"  overflow="visible"/>
		</clipPath>
		<circle clip-path="url(#SVGID_41_)" fill="#D9EDF6" cx="235.333" cy="206.154" r="3.458"/>
	</g>
	<g>
		<defs>
			<rect id="SVGID_42_" y="-40" width="520" height="440"/>
		</defs>
		<clipPath id="SVGID_43_">
			<use xlink:href="#SVGID_42_"  overflow="visible"/>
		</clipPath>
		<path clip-path="url(#SVGID_43_)" fill="#F2751C" d="M235.188,200.125c-3.279,0-5.937,2.658-5.937,5.938
			c0,3.28,2.658,5.938,5.937,5.938s5.937-2.658,5.937-5.938C241.125,202.783,238.466,200.125,235.188,200.125 M235.188,209.125
			c-1.691,0-3.063-1.371-3.063-3.063c0-1.692,1.372-3.063,3.063-3.063s3.063,1.371,3.063,3.063
			C238.251,207.754,236.878,209.125,235.188,209.125"/>
	</g>
	<g>
		<defs>
			<rect id="SVGID_44_" y="-40" width="520" height="440"/>
		</defs>
		<clipPath id="SVGID_45_">
			<use xlink:href="#SVGID_44_"  overflow="visible"/>
		</clipPath>
		<circle clip-path="url(#SVGID_45_)" fill="#D9EDF6" cx="268.333" cy="115.258" r="3.458"/>
	</g>
	<g>
		<defs>
			<rect id="SVGID_46_" y="-40" width="520" height="440"/>
		</defs>
		<clipPath id="SVGID_47_">
			<use xlink:href="#SVGID_46_"  overflow="visible"/>
		</clipPath>
		<path clip-path="url(#SVGID_47_)" fill="#239B6A" d="M268.328,109.379c-3.278,0-5.938,2.658-5.938,5.937
			c0,3.28,2.658,5.938,5.938,5.938s5.938-2.658,5.938-5.938C274.266,112.037,271.607,109.379,268.328,109.379 M268.328,118.379
			c-1.69,0-3.063-1.371-3.063-3.063c0-1.691,1.371-3.062,3.063-3.062s3.063,1.371,3.063,3.062
			C271.393,117.008,270.02,118.379,268.328,118.379"/>
	</g>
	<g>
		<defs>
			<rect id="SVGID_48_" y="-40" width="520" height="440"/>
		</defs>
		<clipPath id="SVGID_49_">
			<use xlink:href="#SVGID_48_"  overflow="visible"/>
		</clipPath>
		<circle clip-path="url(#SVGID_49_)" fill="#FFFFFF" cx="310.75" cy="73.174" r="3.458"/>
	</g>
	<g>
		<defs>
			<rect id="SVGID_50_" y="-40" width="520" height="440"/>
		</defs>
		<clipPath id="SVGID_51_">
			<use xlink:href="#SVGID_50_"  overflow="visible"/>
		</clipPath>
		<path clip-path="url(#SVGID_51_)" fill="#4263EB" d="M310.672,67.155c-3.279,0-5.938,2.658-5.938,5.937
			c0,3.28,2.658,5.938,5.938,5.938c3.278,0,5.938-2.658,5.938-5.938C316.607,69.813,313.95,67.155,310.672,67.155 M310.672,76.155
			c-1.691,0-3.063-1.371-3.063-3.063c0-1.691,1.371-3.062,3.063-3.062c1.69,0,3.063,1.371,3.063,3.062
			C313.734,74.784,312.362,76.155,310.672,76.155"/>
	</g>
	<g>
		<defs>
			<rect id="SVGID_52_" y="-40" width="520" height="440"/>
		</defs>
		<clipPath id="SVGID_53_">
			<use xlink:href="#SVGID_52_"  overflow="visible"/>
		</clipPath>
		<circle clip-path="url(#SVGID_53_)" fill="#FFFFFF" cx="424" cy="33.216" r="3.458"/>
	</g>
	<g>
		<defs>
			<rect id="SVGID_54_" y="-40" width="520" height="440"/>
		</defs>
		<clipPath id="SVGID_55_">
			<use xlink:href="#SVGID_54_"  overflow="visible"/>
		</clipPath>
		<path clip-path="url(#SVGID_55_)" fill="#239B6A" d="M423.968,27.291c-3.278,0-5.937,2.658-5.937,5.937
			c0,3.28,2.658,5.938,5.937,5.938c3.279,0,5.938-2.658,5.938-5.938C429.905,29.949,427.247,27.291,423.968,27.291 M423.968,36.291
			c-1.689,0-3.063-1.371-3.063-3.063c0-1.691,1.372-3.062,3.063-3.062c1.691,0,3.063,1.371,3.063,3.062
			C427.031,34.92,425.659,36.291,423.968,36.291"/>
	</g>
	<g>
		<defs>
			<rect id="SVGID_56_" y="-40" width="520" height="440"/>
		</defs>
		<clipPath id="SVGID_57_">
			<use xlink:href="#SVGID_56_"  overflow="visible"/>
		</clipPath>
		<circle clip-path="url(#SVGID_57_)" fill="#FFFFFF" cx="459.292" cy="134.591" r="3.458"/>
	</g>
	<g>
		<defs>
			<rect id="SVGID_58_" y="-40" width="520" height="440"/>
		</defs>
		<clipPath id="SVGID_59_">
			<use xlink:href="#SVGID_58_"  overflow="visible"/>
		</clipPath>
		<path clip-path="url(#SVGID_59_)" fill="#F2751C" d="M459.336,128.594c-3.279,0-5.938,2.658-5.938,5.938
			c0,3.28,2.658,5.938,5.938,5.938s5.937-2.658,5.937-5.938C465.272,131.252,462.615,128.594,459.336,128.594 M459.336,137.594
			c-1.69,0-3.063-1.371-3.063-3.063c0-1.691,1.373-3.063,3.063-3.063s3.063,1.371,3.063,3.063
			C462.397,136.223,461.026,137.594,459.336,137.594"/>
	</g>
</g>
<g>
	<g>
		<defs>
			<rect id="SVGID_60_" y="-40" width="520" height="440"/>
		</defs>
		<clipPath id="SVGID_61_">
			<use xlink:href="#SVGID_60_"  overflow="visible"/>
		</clipPath>
		<path clip-path="url(#SVGID_61_)" fill="#F2751C" d="M484,217.766c18.5-17.08-1.25-53.767-37.394-49.75
			c-2.478-20.325-17.683-27.166-41.661-24.709c-2.215-9.696-9.12-11.361-17.166-11.074l2.544,5.287l-19.656-2.187l-58.438,3.703
			c-5.619,23.297,4.688,38.047,14.924,42.085c-11.151,16.629-2.276,36.646,12.705,33.67
			c-13.129,68.577,24.595,95.446,101.604,84.139c15.692-4.479,29.783-13.456,38.587-26.043c6.666-9.526,8.04-20.106,5.48-32.678
			C494.25,236.333,498.667,221.667,484,217.766"/>
	</g>
	<g>
		<defs>
			<rect id="SVGID_62_" y="-40" width="520" height="440"/>
		</defs>
		<clipPath id="SVGID_63_">
			<use xlink:href="#SVGID_62_"  overflow="visible"/>
		</clipPath>
		<path clip-path="url(#SVGID_63_)" fill="#F2751C" d="M451.087,294.684c0,10.318-8.02,18.685-17.912,18.685
			c-9.892,0-17.911-8.365-17.911-18.685c0-10.32,8.019-18.684,17.911-18.684C443.068,276,451.087,284.364,451.087,294.684"/>
	</g>
	<g>
		<defs>
			<rect id="SVGID_64_" y="-40" width="520" height="440"/>
		</defs>
		<clipPath id="SVGID_65_">
			<use xlink:href="#SVGID_64_"  overflow="visible"/>
		</clipPath>
		<path clip-path="url(#SVGID_65_)" fill="#F2751C" d="M322.097,153.287c16.417,6.463,32.353-1.257,52.406-9.011l17.997-6.514
			c-7.755-32.229-32.04-41.511-58.206-28.928c-24.167,12.833-33.044,44.76-4.713,67.51L322.097,153.287z"/>
	</g>
</g>
<g>
	<g>
		<defs>
			<path id="SVGID_66_" d="M320.462,234.586c-8.239,27.4-12.138,88.948-3.271,100.698c2.56,3.39,12.42,0.809,16.441-0.718
				c3.566-1.354,6.484-5.229,7.085-9.41c2.021-33.486,5.666-64.665,12.05-91.971c1.72-11.652-7.684-15.16-13.399-15.42
				c-0.095-0.002-0.188-0.002-0.282-0.002C330.482,217.764,323.046,225.996,320.462,234.586"/>
		</defs>
		<clipPath id="SVGID_67_">
			<use xlink:href="#SVGID_66_"  overflow="visible"/>
		</clipPath>
		
			<linearGradient id="SVGID_68_" gradientUnits="userSpaceOnUse" x1="-1020.4805" y1="522.5166" x2="-1019.4805" y2="522.5166" gradientTransform="matrix(7.6023 -83.5181 83.5181 7.6023 -35554.4219 -88875.3984)">
			<stop  offset="0" style="stop-color:#F1B827"/>
			<stop  offset="1" style="stop-color:#FECC4D"/>
		</linearGradient>
		<polygon clip-path="url(#SVGID_67_)" fill="url(#SVGID_68_)" points="297.408,337.681 308.703,213.598 365.402,218.758 
			354.107,342.842 		"/>
	</g>
</g>
<g>
	<g>
		<defs>
			<rect id="SVGID_69_" y="-40" width="520" height="440"/>
		</defs>
		<clipPath id="SVGID_70_">
			<use xlink:href="#SVGID_69_"  overflow="visible"/>
		</clipPath>
		<path clip-path="url(#SVGID_70_)" fill="#FECC4D" d="M332.618,219.357c7.396-6.781,15.224-12.75,23.426-17.416
			c12.89-7.334,26.703-11.45,41.207-10.449c10.787,0.745,21.957,4.32,33.416,11.508c28,28.667-8.271,85.667-0.167,127.667h-71.438
			C353.247,277,331.254,271,332.618,219.357"/>
	</g>
	<g>
		<defs>
			<rect id="SVGID_71_" y="-40" width="520" height="440"/>
		</defs>
		<clipPath id="SVGID_72_">
			<use xlink:href="#SVGID_71_"  overflow="visible"/>
		</clipPath>
		<path clip-path="url(#SVGID_72_)" fill="#FFFFFF" d="M427.762,328.667L427.762,328.667c0.071,5.159-6.104,7.717-6.104,7.717
			c-2.166-1.657-8.736-0.252-11.462-0.148l-83.113,3.246c-9.75,0-13.083-6.481-13.33-12.729c-0.213-5.383,4.497-14.503,15.83-13.061
			l83.781,9.342l8.724-1.824C427.443,321.135,427.69,323.508,427.762,328.667"/>
	</g>
	<g>
		<defs>
			<rect id="SVGID_73_" y="-40" width="520" height="440"/>
		</defs>
		<clipPath id="SVGID_74_">
			<use xlink:href="#SVGID_73_"  overflow="visible"/>
		</clipPath>
		<path clip-path="url(#SVGID_74_)" fill="#FFFFFF" d="M320.219,153.47c3.018,14.471,11.531,30.854,23.406,40.529
			c5.688,4.563,12.604,1.068,14.129,0.275l-0.688,17.99c0.412,1.786,1.852,3.135,3.651,3.483
			c13.589,2.637,30.882-2.427,36.099-16.361c0.473-1.264,0.582-2.641,0.35-3.971c-2.107-12.041-7.05-24.147-15.757-34.509
			c-0.325-0.387-0.304-0.945,0.038-1.317c8.38-9.131,0.979-18.927-8.174-15.15c-0.514,0.212-1.112,0.072-1.488-0.335
			C363.798,135.479,344.373,151.491,320.219,153.47"/>
	</g>
	<g>
		<defs>
			<rect id="SVGID_75_" y="-40" width="520" height="440"/>
		</defs>
		<clipPath id="SVGID_76_">
			<use xlink:href="#SVGID_75_"  overflow="visible"/>
		</clipPath>
		<path clip-path="url(#SVGID_76_)" fill="#EAEACD" d="M381.184,160.327c-4.934,16.36-10.47,25.563-23.43,33.948l-0.686,17.991
			C383.348,203.824,379.131,182.553,381.184,160.327"/>
	</g>
	<g>
		<defs>
			<rect id="SVGID_77_" y="-40" width="520" height="440"/>
		</defs>
		<clipPath id="SVGID_78_">
			<use xlink:href="#SVGID_77_"  overflow="visible"/>
		</clipPath>
		<path clip-path="url(#SVGID_78_)" fill="#1F46E7" d="M283.977,257.752h58.432c2.423,0,4.232-2.229,3.736-4.6l-8.578-40.939
			c-0.319-1.529-1.604-2.518-3.276-2.518h-59.785c-4.475,0-4.637,1.625-4.045,4.58l8.205,39.16
			C279.191,255.952,281.407,257.752,283.977,257.752"/>
	</g>
	<g>
		<defs>
			<rect id="SVGID_79_" y="-40" width="520" height="440"/>
		</defs>
		<clipPath id="SVGID_80_">
			<use xlink:href="#SVGID_79_"  overflow="visible"/>
		</clipPath>
		<path clip-path="url(#SVGID_80_)" fill="#4263EB" d="M280.734,257.752h58.431c2.423,0,4.231-2.229,3.735-4.6l-8.576-40.939
			c-0.32-1.529-1.606-2.518-3.277-2.518h-59.786c-4.474,0-4.636,1.625-4.044,4.58l8.205,39.16
			C275.948,255.952,278.165,257.752,280.734,257.752"/>
	</g>
	<g>
		<defs>
			<rect id="SVGID_81_" y="-40" width="520" height="440"/>
		</defs>
		<clipPath id="SVGID_82_">
			<use xlink:href="#SVGID_81_"  overflow="visible"/>
		</clipPath>
		<path clip-path="url(#SVGID_82_)" fill="#3054E9" d="M280.734,257.752h58.431c2.423,0,4.231-2.229,3.735-4.6l-6.559-31.303
			C312.954,227.561,290.539,237.113,280.734,257.752"/>
	</g>
</g>
<g>
	<g>
		<defs>
			<path id="SVGID_83_" d="M413.273,211.538c-11.541,30.729-28.268,63.452-48.076,97.36c-2.135,4.463-1.814,10.132,0.775,13.769
				c2.924,4.103,11.707,13.907,16.401,12.271c16.274-5.67,50.329-66.781,60.125-98.813c3.105-10.152,3.875-20.875-4.875-28.375
				c-2.794-2.37-6.016-4.309-9.426-6.244c-0.978-0.555-2.025-0.82-3.107-0.82C420.855,200.686,416.111,204.757,413.273,211.538"/>
		</defs>
		<clipPath id="SVGID_84_">
			<use xlink:href="#SVGID_83_"  overflow="visible"/>
		</clipPath>
		
			<linearGradient id="SVGID_85_" gradientUnits="userSpaceOnUse" x1="-1020.1411" y1="521.9043" x2="-1019.1411" y2="521.9043" gradientTransform="matrix(13.9989 -120.9458 120.9458 13.9989 -48446.7344 -130331.7344)">
			<stop  offset="0" style="stop-color:#F1B827"/>
			<stop  offset="1" style="stop-color:#FECC4D"/>
		</linearGradient>
		<polygon clip-path="url(#SVGID_84_)" fill="url(#SVGID_85_)" points="347.645,333.908 364.164,191.17 461.795,202.47 
			445.272,345.208 		"/>
	</g>
</g>
<g>
	<g>
		<defs>
			<rect id="SVGID_86_" y="-40" width="520" height="440"/>
		</defs>
		<clipPath id="SVGID_87_">
			<use xlink:href="#SVGID_86_"  overflow="visible"/>
		</clipPath>
		<path clip-path="url(#SVGID_87_)" fill="#FFFFFF" d="M419.033,335.503c3.474,1.856,10.024-0.085,13.917-1.544
			c2.099-0.787,4.385-0.875,6.531-0.23c1.567,0.469,4.237,1.105,6.373,1.596c2.058,0.472,4.218-0.002,5.889-1.294l1.496-1.157
			c1.035-0.8,0.859-2.411-0.322-2.97l-18.7-7.845c-3.879-1.437-8.101-1.783-12.13-0.85c-4.749,1.102-9.383,1.878-13.91,4.278
			C408.177,325.488,414.145,332.696,419.033,335.503"/>
	</g>
	<g>
		<defs>
			<rect id="SVGID_88_" y="-40" width="520" height="440"/>
		</defs>
		<clipPath id="SVGID_89_">
			<use xlink:href="#SVGID_88_"  overflow="visible"/>
		</clipPath>
		<path clip-path="url(#SVGID_89_)" fill="#FFFFFF" d="M322.156,244.781l-3.319-5.984c-0.321-0.471-0.713-0.892-1.159-1.248
			l-4.57-3.638c-0.293-0.231-0.7-0.25-1.013-0.043l-0.262,0.175c-0.76,0.508-0.925,1.557-0.356,2.271l2.61,3.332
			c0.165,0.209,0.294,0.445,0.383,0.697l1.282,6.196L322.156,244.781z"/>
	</g>
	<g>
		<defs>
			<rect id="SVGID_90_" y="-40" width="520" height="440"/>
		</defs>
		<clipPath id="SVGID_91_">
			<use xlink:href="#SVGID_90_"  overflow="visible"/>
		</clipPath>
		<path clip-path="url(#SVGID_91_)" fill="#FFFFFF" d="M312.198,245.956L312.198,245.956c-4.066,3.174-4.814,9.817-1.521,14.041
			c2.649,0.651,4.988,2.206,6.615,4.396l49.99,67.203c8.042,7,14.538,6.251,19.386,1.405c3.041-3.04,5.987-12.096-0.633-18.716
			l-62.495-66.988l-1.386-2.516C318.859,240.557,316.266,242.782,312.198,245.956"/>
	</g>
	<g>
		<defs>
			<rect id="SVGID_92_" y="-40" width="520" height="440"/>
		</defs>
		<clipPath id="SVGID_93_">
			<use xlink:href="#SVGID_92_"  overflow="visible"/>
		</clipPath>
		<path clip-path="url(#SVGID_93_)" fill="none" stroke="#EEEEEE" stroke-linecap="round" stroke-miterlimit="10" d="
			M356.29,316.873l9.886,13.518c6.949,8.484,16.316,6.492,19.741,3.067"/>
	</g>
	<g>
		<defs>
			<rect id="SVGID_94_" y="-40" width="520" height="440"/>
		</defs>
		<clipPath id="SVGID_95_">
			<use xlink:href="#SVGID_94_"  overflow="visible"/>
		</clipPath>
		<path clip-path="url(#SVGID_95_)" fill="#FFFFFF" d="M323.059,255.415c-1.313-6.194-5.013-11.382-12.858-14.813l-15.321-5.938
			c-2.002-0.773-4.094,1.34-3.443,3.482l3.838,12.682c0.838,2.764,2.86,4.889,5.489,5.763l13.272,4.413L323.059,255.415z"/>
	</g>
</g>
<g>
	<g>
		<defs>
			<path id="SVGID_96_" d="M177.015,213.718l-2.513,26.563c-0.72,0.783-13.521,4.091-13.265,5.125
				c-1.668,25.607,18.615,41.406,28.547,53.206l26.958-23.595c1.034-0.783,1.487-2.117,1.146-3.371
				c-6.679-7.844-17.966-44.685-29.564-64.488c-0.361-0.305-0.802-0.438-1.298-0.438
				C183.873,206.72,178.477,212.124,177.015,213.718"/>
		</defs>
		<clipPath id="SVGID_97_">
			<use xlink:href="#SVGID_96_"  overflow="visible"/>
		</clipPath>
		
			<linearGradient id="SVGID_98_" gradientUnits="userSpaceOnUse" x1="-1017.2329" y1="519.7871" x2="-1016.2329" y2="519.7871" gradientTransform="matrix(52.2151 59.2224 -59.2224 52.2151 84080.3125 33347.4883)">
			<stop  offset="0" style="stop-color:#4CCD9B"/>
			<stop  offset="1" style="stop-color:#239B6A"/>
		</linearGradient>
		<polygon clip-path="url(#SVGID_97_)" fill="url(#SVGID_98_)" points="192.573,177.622 263.813,258.422 185.225,327.711 
			113.985,246.911 		"/>
	</g>
</g>
<g>
	<g>
		<defs>
			<rect id="SVGID_99_" y="-40" width="520" height="440"/>
		</defs>
		<clipPath id="SVGID_100_">
			<use xlink:href="#SVGID_99_"  overflow="visible"/>
		</clipPath>
		<path clip-path="url(#SVGID_100_)" fill="#4CCD9B" d="M183.481,201.762c-28.736-21.809-67.522-24.83-103.35-2.354
			c-29.561,30.265,15.237,86.46,6.681,130.802h99.206c5.831-53.811,9.669-66.673,5.01-114.857
			C190.508,209.971,187.786,205.03,183.481,201.762"/>
	</g>
</g>
<g>
	<g>
		<defs>
			<path id="SVGID_101_" d="M65.801,213.686c-16.263,31.4-37.916,107.073-25.051,119.938c5.129,5.129,7.583,5.045,14.053,5.045
				l67.87-3.038c6.227-0.181,24.091-4.387,24.338-10.609c0.249-6.24-4.385-11.603-10.635-11.246l-61.143-6.479
				c8.759-32.12,18.616-61.837,30.129-87.937c4.749-13.764-5.872-20.168-12.757-21.787c-1.157-0.243-2.321-0.358-3.483-0.358
				C79.689,197.214,70.391,204.824,65.801,213.686"/>
		</defs>
		<clipPath id="SVGID_102_">
			<use xlink:href="#SVGID_101_"  overflow="visible"/>
		</clipPath>
		
			<linearGradient id="SVGID_103_" gradientUnits="userSpaceOnUse" x1="-1019.373" y1="522.0635" x2="-1018.373" y2="522.0635" gradientTransform="matrix(63.9006 -89.6841 89.6841 63.9006 18359.4531 -124447.0156)">
			<stop  offset="0" style="stop-color:#239B6A"/>
			<stop  offset="1" style="stop-color:#4CCD9B"/>
		</linearGradient>
		<polygon clip-path="url(#SVGID_102_)" fill="url(#SVGID_103_)" points="-36.345,291.384 69.983,142.154 214.357,245.021 
			108.029,394.252 		"/>
	</g>
</g>
<g>
	<g>
		<defs>
			<rect id="SVGID_104_" y="-40" width="520" height="440"/>
		</defs>
		<clipPath id="SVGID_105_">
			<use xlink:href="#SVGID_104_"  overflow="visible"/>
		</clipPath>
		<path clip-path="url(#SVGID_105_)" fill="#FFFFFF" d="M136.227,333.714c4.169,2.107,12.053-1.035,16.739-3.302
			c2.527-1.223,5.277-1.549,7.855-0.905c1.883,0.47,5.091,1.059,7.654,1.501c2.473,0.428,5.072-0.392,7.086-2.234l1.804-1.65
			c1.247-1.143,1.044-3.232-0.376-3.855l-22.446-9.845c-4.658-1.521-9.732-1.587-14.581,0.007c-0.8,0.264-1.597,0.543-2.392,0.84
			c-8.445,3.155-9.365,14.907-1.519,19.349C136.109,333.649,136.167,333.682,136.227,333.714"/>
	</g>
	<g>
		<defs>
			<rect id="SVGID_106_" y="-40" width="520" height="440"/>
		</defs>
		<clipPath id="SVGID_107_">
			<use xlink:href="#SVGID_106_"  overflow="visible"/>
		</clipPath>
		<path clip-path="url(#SVGID_107_)" fill="#1F46E7" d="M197.681,336.953h-53.476c-5.402,0-9.781-4.379-9.781-9.781h63.257V336.953z
			"/>
	</g>
	<g>
		<defs>
			<rect id="SVGID_108_" y="-40" width="520" height="440"/>
		</defs>
		<clipPath id="SVGID_109_">
			<use xlink:href="#SVGID_108_"  overflow="visible"/>
		</clipPath>
		<path clip-path="url(#SVGID_109_)" fill="#4263EB" d="M269.118,336.953h-88.22l13.332-63.639c0.448-2.138,2.244-3.519,4.58-3.519
			h83.545c6.252,0,6.479,2.271,5.65,6.401l-11.466,54.726C275.807,334.436,272.707,336.953,269.118,336.953"/>
	</g>
	<g>
		<defs>
			<rect id="SVGID_110_" y="-40" width="520" height="440"/>
		</defs>
		<clipPath id="SVGID_111_">
			<use xlink:href="#SVGID_110_"  overflow="visible"/>
		</clipPath>
		<path clip-path="url(#SVGID_111_)" fill="#3054E9" d="M269.118,336.953c3.589,0,6.688-2.518,7.423-6.029l9.179-43.808
			c-29.386,35.188-84.053,8.188-100.673,49.834c-0.001,0.001-0.001,0.002-0.002,0.003H269.118z"/>
	</g>
	<g>
		<defs>
			<rect id="SVGID_112_" y="-40" width="520" height="440"/>
		</defs>
		<clipPath id="SVGID_113_">
			<use xlink:href="#SVGID_112_"  overflow="visible"/>
		</clipPath>
		<path clip-path="url(#SVGID_113_)" fill="#FFFFFF" d="M195.018,119.409c0.91,23.264-1.152,38.617-9.091,54.846
			c-2.204,4.507-6.918,7.233-11.928,6.957l-0.129-0.007c-2.679-0.148-5.213,1.221-6.559,3.541l-0.403,13.116
			c-0.032,1.025-0.28,2.038-0.723,2.964c-9.745,20.326-37.537,7.517-43.901-8.431c-0.952-2.386-0.937-5.048-0.114-7.479
			l12.058-21.416l14.369-56.633L195.018,119.409z"/>
	</g>
	<g>
		<defs>
			<rect id="SVGID_114_" y="-40" width="520" height="440"/>
		</defs>
		<clipPath id="SVGID_115_">
			<use xlink:href="#SVGID_114_"  overflow="visible"/>
		</clipPath>
		<path clip-path="url(#SVGID_115_)" fill="#FFFFFF" d="M150.553,144.402c0.317,6.211-3.075,11.433-7.577,11.663
			c-4.503,0.23-8.41-4.618-8.727-10.83c-0.318-6.211,3.075-11.433,7.577-11.663C146.328,133.342,150.235,138.191,150.553,144.402"/>
	</g>
	<g>
		<defs>
			<rect id="SVGID_116_" y="-40" width="520" height="440"/>
		</defs>
		<clipPath id="SVGID_117_">
			<use xlink:href="#SVGID_116_"  overflow="visible"/>
		</clipPath>
		<path clip-path="url(#SVGID_117_)" fill="#4263EB" d="M190.875,108.929L159.71,95.242c-16.324-3.161-28.926,6.854-31.869,23.124
			c-2.966,16.397-2.283,32.698,2.411,48.891c0.52,1.794,2.787,2.365,4.098,1.036l4.525-13.496c-2.562-1.81-4.412-5.372-4.627-9.562
			c-0.317-6.211,3.075-11.433,7.578-11.663c2.537-0.13,4.789,1.422,6.503,3.79c0.677,0.935,1.296,1.294,1.376-0.334l0.499-4.07
			c1.203-9.813,10.797-16.301,20.352-13.764l24.611,3.639C208.516,118.61,207.995,112.045,190.875,108.929"/>
	</g>
	<g>
		<defs>
			<rect id="SVGID_118_" y="-40" width="520" height="440"/>
		</defs>
		<clipPath id="SVGID_119_">
			<use xlink:href="#SVGID_118_"  overflow="visible"/>
		</clipPath>
		<path clip-path="url(#SVGID_119_)" fill="#FFFFFF" d="M244.472,306.351c-1.153,3.88-4.9,6.841-8.368,6.614
			c-3.469-0.225-5.346-3.552-4.192-7.43c1.153-3.879,4.9-6.84,8.368-6.615C243.749,299.146,245.625,302.471,244.472,306.351"/>
	</g>
	<g>
		<defs>
			<rect id="SVGID_120_" y="-40" width="520" height="440"/>
		</defs>
		<clipPath id="SVGID_121_">
			<use xlink:href="#SVGID_120_"  overflow="visible"/>
		</clipPath>
		<path clip-path="url(#SVGID_121_)" fill="none" stroke="#EEEEEE" stroke-linecap="round" stroke-miterlimit="10" d="
			M151.213,170.433c3.508,6.032,9.331,10.445,20.822,10.899"/>
	</g>
	<g>
		<defs>
			<rect id="SVGID_122_" y="-40" width="520" height="440"/>
		</defs>
		<clipPath id="SVGID_123_">
			<use xlink:href="#SVGID_122_"  overflow="visible"/>
		</clipPath>
		<path clip-path="url(#SVGID_123_)" fill="#4263EB" d="M146.307,118.583c8.408,5.905,9.064-0.892,15.423-0.487
			c13.63,2.044,17.971,8.388,34.069,11.605c8.719,1.174,15.201-5.576,13.951-14.191c-1.335-7.383-8.874-9.131-13.691-6.678
			c-4.786-8.29-12.561-14.217-21.684-15.582c-14.139-2.115-30.771,4.858-38.773,16.503L146.307,118.583z"/>
	</g>
	<g>
		<defs>
			<rect id="SVGID_124_" y="-40" width="520" height="440"/>
		</defs>
		<clipPath id="SVGID_125_">
			<use xlink:href="#SVGID_124_"  overflow="visible"/>
		</clipPath>
		<path clip-path="url(#SVGID_125_)" fill="#FFFFFF" d="M105.5,165c1.93,0,1.934-3,0-3C103.57,162,103.566,165,105.5,165"/>
	</g>
</g>
</svg>
