<svg xmlns="http://www.w3.org/2000/svg" xmlns:xlink="http://www.w3.org/1999/xlink" viewBox="0 0 360 200"><defs><style>.cls-1{fill:#F8F9FA;}.cls-2{fill:#d9edf6;}.cls-3{fill:#4263eb;}.cls-4{fill:#239b6a;}.cls-10,.cls-18,.cls-19,.cls-20,.cls-31,.cls-33,.cls-35,.cls-37,.cls-5,.cls-8{fill:none;stroke-miterlimit:10;}.cls-5,.cls-8{stroke:#eaeacd;stroke-width:0.75px;}.cls-6{fill:#4ccd9b;}.cls-7{fill:url(#linear-gradient);}.cls-10,.cls-18,.cls-19,.cls-20,.cls-31,.cls-33,.cls-35,.cls-37,.cls-8{stroke-linecap:round;}.cls-9{fill:#eaeacd;}.cls-10{stroke:#c8cbac;stroke-width:0.61px;}.cls-11{fill:#1f46e7;}.cls-12{fill:#3054e9;}.cls-13{fill:url(#linear-gradient-2);}.cls-14{fill:url(#linear-gradient-3);}.cls-15{fill:#c8cbac;}.cls-16{fill:#d8d7bf;}.cls-17{fill:url(#linear-gradient-4);}.cls-18{stroke:#4ccd9b;}.cls-18,.cls-19{stroke-width:0.63px;}.cls-19,.cls-20{stroke:#239b6a;}.cls-20{stroke-width:0.76px;}.cls-21{fill:#f2751c;}.cls-22{fill:url(#linear-gradient-5);}.cls-23{fill:#fecc4d;}.cls-24{fill:url(#linear-gradient-6);}.cls-25{fill:url(#linear-gradient-7);}.cls-26{fill:url(#linear-gradient-8);}.cls-27{fill:url(#linear-gradient-9);}.cls-28{fill:url(#linear-gradient-10);}.cls-29{fill:url(#linear-gradient-11);}.cls-30,.cls-32,.cls-34,.cls-36{fill-rule:evenodd;}.cls-30{fill:url(#linear-gradient-12);}.cls-31,.cls-33,.cls-35,.cls-37{stroke:#fff;}.cls-31{stroke-width:0.53px;}.cls-32{fill:url(#linear-gradient-13);}.cls-33{stroke-width:0.61px;}.cls-34{fill:url(#linear-gradient-14);}.cls-35{stroke-width:0.47px;}.cls-36{fill:url(#linear-gradient-15);}.cls-37{stroke-width:0.63px;}</style><linearGradient id="linear-gradient" x1="165.3" y1="160.13" x2="148.67" y2="90.04" gradientUnits="userSpaceOnUse"><stop offset="0" stop-color="#239b6a"/><stop offset="1" stop-color="#4ccd9b"/></linearGradient><linearGradient id="linear-gradient-2" x1="181.63" y1="159.53" x2="193.03" y2="85.41" xlink:href="#linear-gradient"/><linearGradient id="linear-gradient-3" x1="255.16" y1="150.12" x2="301.03" y2="150.12" gradientUnits="userSpaceOnUse"><stop offset="0" stop-color="#4263eb"/><stop offset="1" stop-color="#1f46e7"/></linearGradient><linearGradient id="linear-gradient-4" x1="281.67" y1="13.59" x2="327.53" y2="13.59" gradientTransform="translate(8.13 12.96)" xlink:href="#linear-gradient"/><linearGradient id="linear-gradient-5" x1="64.57" y1="149.96" x2="64.57" y2="111.37" gradientTransform="translate(-18.27 39.18) rotate(-11.97)" gradientUnits="userSpaceOnUse"><stop offset="0" stop-color="#f2751c"/><stop offset="1" stop-color="#ffc400"/></linearGradient><linearGradient id="linear-gradient-6" x1="43.11" y1="28.43" x2="59.13" y2="28.43" xlink:href="#linear-gradient-3"/><linearGradient id="linear-gradient-7" x1="-20.71" y1="-104.83" x2="-4.3" y2="-104.83" gradientTransform="translate(24.29 110.25) rotate(26.72)" xlink:href="#linear-gradient-3"/><linearGradient id="linear-gradient-8" x1="19.96" y1="226.22" x2="36.37" y2="226.22" gradientTransform="translate(-143.89 -124.32) rotate(-45.28)" xlink:href="#linear-gradient-3"/><linearGradient id="linear-gradient-9" x1="-282.32" y1="367.21" x2="-265.91" y2="367.21" gradientTransform="translate(-418.95 -36.85) rotate(-117.28)" xlink:href="#linear-gradient-3"/><linearGradient id="linear-gradient-10" x1="-509.82" y1="123.29" x2="-493.41" y2="123.29" gradientTransform="matrix(-0.99, 0.16, -0.16, -0.99, -420.76, 251.78)" xlink:href="#linear-gradient-3"/><linearGradient id="linear-gradient-11" x1="-348.13" y1="-168.45" x2="-331.72" y2="-168.45" gradientTransform="translate(-146.82 342.69) rotate(98.72)" xlink:href="#linear-gradient-3"/><linearGradient id="linear-gradient-12" x1="-275.43" y1="125.61" x2="-237.67" y2="125.61" gradientTransform="matrix(-1, 0, 0, 1, 55.09, 0)" xlink:href="#linear-gradient"/><linearGradient id="linear-gradient-13" x1="10.27" y1="117.78" x2="53.16" y2="117.78" xlink:href="#linear-gradient-3"/><linearGradient id="linear-gradient-14" x1="85.37" y1="63.94" x2="85.37" y2="35.74" gradientTransform="matrix(1, 0, 0, 1, 0, 0)" xlink:href="#linear-gradient-5"/><linearGradient id="linear-gradient-15" x1="402.05" y1="454.3" x2="402.05" y2="416.67" gradientTransform="matrix(-1, 0, 0, 1, 677.79, -387.78)" xlink:href="#linear-gradient-5"/></defs><title>pub-2</title><g id="bg"><rect class="cls-1" width="360" height="200"/></g><g id="clouds"><path class="cls-2" d="M0,159.17H360c-11.86-3.76-13.81-13.81-25.67-21.76-11.13-7.36-21.72-2.55-30-10C293.46,116,297.94,94.11,277,89.09c-21.24-3.94-25,8.11-42.94,4.27-29.51-9.14-28.3-41.77-60.35-41.77-41,0-48.42,38.23-63.77,41.16-22.32,3.35-31.39-14-56.37-1.11C22.88,109,33.07,147,0,159.17Z"/></g><g id="hero"><path class="cls-3" d="M175.9,28c-6.65-14.12-24.44-12.47-34.45-7.75S129.94,37,139.64,45c2.61,2.18,3.22,5.85,5.22,8.25l31.86-23.44C176.46,29.23,176.19,28.6,175.9,28Z"/><path class="cls-4" d="M148.38,80c-6.12-.13-11.42,5.7-13.25,11.78-5.78,19.21-8.37,62.11-2.15,70.34,1.79,2.38,8.56.81,11.38-.26h0a8.51,8.51,0,0,0,5-6.6c1.41-23.47,4-45.32,8.44-64.46C159,82.68,152.39,80.22,148.38,80Z"/><path class="cls-4" d="M193.09,183.07,135.3,163.59c-3.58-1.12-5-7.22-3.47-11.77h0c1.55-4.06,6-6.61,9.59-5.48l59.31,21.91C203.08,169.33,198.08,184.8,193.09,183.07Z"/><path class="cls-1" d="M207.29,179.27h0c-1.08,3.45-5.75,3.8-5.75,3.8-2.39-.33-5.76-2.08-7.6-2.61L135.3,163.59c-3.58-1.12-5-7.22-3.47-11.77h0c1.55-4.06,6-6.61,9.59-5.48l57.74,24.33S208.37,175.81,207.29,179.27Z"/><path class="cls-1" d="M198.83,179.1c.67,2.91,5,5.69,7.8,7.19a7.66,7.66,0,0,1,3.38,3.62c.52,1.13,1.48,3,2.26,4.44a5.33,5.33,0,0,0,3.67,2.72l1.4.28a1.32,1.32,0,0,0,1.54-1.66l-4.81-14.59a16.09,16.09,0,0,0-5.54-7.36c-3-2.17-5.74-4.44-9.37-5.83A51.94,51.94,0,0,0,198.83,179.1Z"/><path class="cls-5" d="M196.54,178.85c.66,2.91,5,5.69,7.8,7.19a7.76,7.76,0,0,1,3.38,3.62c.51,1.13,1.48,3,2.26,4.44a5.33,5.33,0,0,0,3.66,2.72l1.41.28.89,0,1.4.28a1.32,1.32,0,0,0,1.54-1.66l-4.81-14.59a16.09,16.09,0,0,0-5.54-7.36c-3-2.17-5.74-4.44-9.37-5.83"/><path class="cls-6" d="M143.65,81.15a91.62,91.62,0,0,1,16.42-12.21c9-5.14,18.71-8,28.88-7.32,7.56.52,14.41,2.75,24.1,6.91C236,85.25,224.14,123,220.5,159.17H156.1C145.53,126.84,142.69,117.35,143.65,81.15Z"/><path class="cls-7" d="M200.73,168.25l-51-18.85c1.48-21.23,3.95-41,8.05-58.56,1.21-8.16-5.38-10.62-9.39-10.8-6.12-.13-11.42,5.7-13.25,11.78-5.78,19.21-8.51,62.35-2.29,70.58a6.71,6.71,0,0,0,2.46,1.19l57.79,19.48C198.08,184.8,203.08,169.33,200.73,168.25Z"/><path class="cls-1" d="M161.27,63.57l-.49,12.61a3.24,3.24,0,0,0,2.56,2.44c9.53,1.85,21.65-1.7,25.3-11.47a3.67,3.67,0,0,0,.25-2.78c-3.56-7.55-6.93-16.07-11-24.19a.76.76,0,0,1,0-.92Z"/><path class="cls-8" d="M188.89,64.37c-3.56-7.55-2.93-7.65-7-15.77"/><path class="cls-9" d="M177.69,39.78c-3.46,11.46-7.34,17.91-16.42,23.79l-.49,12.61C179.2,70.26,176.25,55.35,177.69,39.78Z"/><path class="cls-10" d="M173.25,51a39.24,39.24,0,0,1-11.68,12.37"/><path class="cls-11" d="M127.75,111.58H168.7a2.68,2.68,0,0,0,2.62-3.23l-6-28.69a2.23,2.23,0,0,0-2.3-1.77h-41.9c-3.14,0-3.25,1.14-2.83,3.22L124,108.55A3.8,3.8,0,0,0,127.75,111.58Z"/><path class="cls-3" d="M125.48,111.58h41a2.68,2.68,0,0,0,2.62-3.23l-6-28.69a2.24,2.24,0,0,0-2.3-1.77h-41.9c-3.14,0-3.25,1.14-2.84,3.22l5.75,27.44A3.81,3.81,0,0,0,125.48,111.58Z"/><path class="cls-12" d="M125.48,111.58h41a2.68,2.68,0,0,0,2.62-3.23l-4.6-21.94C148.06,90.42,132.35,97.11,125.48,111.58Z"/><ellipse class="cls-1" cx="160.78" cy="39.26" rx="20.04" ry="28.25" transform="translate(-3.42 18.5) rotate(-6.52)"/><path class="cls-8" d="M164,67.33c-11,1.26-21.34-10.29-23.11-25.8"/><path class="cls-3" d="M140.71,11.52,155,8.63c12.35-2.49,24,3.55,26,13.48l2.5,12.4c.64,3.15-2,6.34-5.94,7.13h0c-3.35.67-6.51-1-7-3.66l-.58-2.9c-.31-1.5-2.11-2.36-4-1.91-15.9,3.87-28.14,2.14-33.27-10.5C130.83,18,134.64,12.74,140.71,11.52Z"/><ellipse class="cls-1" cx="179.56" cy="36.95" rx="7.14" ry="5.06" transform="translate(140.9 216.15) rotate(-89.46)"/><path class="cls-8" d="M181.77,48.43l-2.28-4.34c2.79,0,5.09-3.15,5.13-7.09a8.75,8.75,0,0,0-1.7-5.41"/><path class="cls-4" d="M220.39,71.5c7.06,3.93,8,11.4,7.31,18.81-2.26,23.37-17.84,69.61-28.23,75.77-3,1.78-9.68-3.24-12.26-5.65h0a10,10,0,0,1-2.46-9.35c8.88-26.05,15.8-50.86,19.45-73.58,1.25-6.35,5.17-10.18,8.85-9A42.17,42.17,0,0,1,220.39,71.5Z"/><path class="cls-1" d="M157.25,100.87l-2.4-4.31a4.17,4.17,0,0,0-.83-.9L150.73,93a.62.62,0,0,0-.73,0l-.19.13a1.12,1.12,0,0,0-.26,1.63l1.88,2.4a1.58,1.58,0,0,1,.28.51l.92,4.46Z"/><path class="cls-1" d="M169.46,114.63,158.3,102.71l-1-1.82c-2.37-3-4.24-1.44-7.17.85h0a7.45,7.45,0,0,0-1.1,10.11h0A8.48,8.48,0,0,1,153.8,115l9.53,12.83Z"/><path class="cls-1" d="M156.9,108.35c-.94-4.46-3.61-8.2-9.26-10.67l-11-4.27a2,2,0,0,0-2.49,2.5l2.77,9.14a6.19,6.19,0,0,0,4,4.15l9.56,3.18Z"/><path class="cls-4" d="M153.26,116.43l36.4,49c2.31,3,8.51,2.16,12.23-.88h0c3.27-2.88,4.08-8,1.77-10.91l-41.24-48.23C160.12,103.65,151,114,153.26,116.43Z"/><path class="cls-13" d="M220.39,71.5a42.17,42.17,0,0,0-7.34-3c-3.68-1.21-7.6,2.62-8.85,9-3,18.57-8.15,38.54-14.79,59.45l-27-31.57c-2.3-1.73-11.45,8.64-9.16,11.05l36.4,49c1.72,2.21,5.62,2.32,9,1a2.61,2.61,0,0,0,.78-.29c.09-.05.18-.13.27-.19a11.38,11.38,0,0,0,2.15-1.37,9.24,9.24,0,0,0,2.49-3.64c9.81-14.21,21.39-50.67,23.32-70.57C228.42,82.9,227.45,75.43,220.39,71.5Z"/></g><g id="icons"><circle class="cls-14" cx="278.09" cy="150.12" r="22.93"/><path class="cls-9" d="M264.73,162H280a2.61,2.61,0,0,1,2.61,2.61V166a0,0,0,0,1,0,0H262.13a0,0,0,0,1,0,0v-1.4A2.61,2.61,0,0,1,264.73,162Z" transform="translate(83.69 -91.89) rotate(22.55)"/><rect class="cls-15" x="261.7" y="164.09" width="20.44" height="1.79" transform="translate(84.04 -91.65) rotate(22.55)"/><path class="cls-16" d="M266.78,160.39h13.35a1,1,0,0,1,1,1v.76a0,0,0,0,1,0,0H265.75a0,0,0,0,1,0,0v-.76A1,1,0,0,1,266.78,160.39Z" transform="translate(82.74 -92.52) rotate(22.55)"/><path class="cls-9" d="M279.85,163l-12.09-5a47.57,47.57,0,0,0,8.53-11.21l5.47,2.27A36.7,36.7,0,0,0,279.85,163Z"/><rect class="cls-16" x="275.41" y="146.72" width="7.69" height="1.2" rx="0.52" ry="0.52" transform="translate(77.83 -95.82) rotate(22.55)"/><rect class="cls-9" x="277.43" y="141.86" width="7.69" height="1.2" rx="0.52" ry="0.52" transform="translate(76.12 -96.96) rotate(22.55)"/><rect class="cls-15" x="277.83" y="142.91" width="5.33" height="2.85" transform="translate(76.78 -96.52) rotate(22.55)"/><circle class="cls-15" cx="285.19" cy="133.02" r="1.53"/><circle class="cls-15" cx="283.52" cy="137.06" r="3.54"/><path class="cls-16" d="M284,142.93l-4.93-2,.27-7.2a2,2,0,0,1,1.4,1.6c2.72-.79,4.79.16,6.3,2.59.44-.52,1.09-.52,1.86-.22Z"/><rect class="cls-9" x="275.87" y="145.61" width="7.69" height="1.2" rx="0.52" ry="0.52" transform="translate(77.44 -96.08) rotate(22.55)"/><circle class="cls-17" cx="312.73" cy="26.55" r="22.93"/><circle class="cls-9" cx="312.73" cy="26.55" r="17.8"/><circle class="cls-18" cx="312.73" cy="26.55" r="11.64"/><circle class="cls-4" cx="312.73" cy="26.55" r="2.04"/><line class="cls-19" x1="321.48" y1="13.64" x2="312.73" y2="26.55"/><line class="cls-20" x1="324.18" y1="26.55" x2="313.41" y2="26.55"/><g id="_Группа_" data-name="&lt;Группа&gt;"><circle id="_Контур_" data-name="&lt;Контур&gt;" class="cls-21" cx="76.3" cy="156.42" r="22.93"/><path id="_Контур_2" data-name="&lt;Контур&gt;" class="cls-22" d="M88.14,136.8a22.92,22.92,0,0,0-25,38.41Z"/><g id="_Группа_2" data-name="&lt;Группа&gt;"><circle id="_Контур_3" data-name="&lt;Контур&gt;" class="cls-23" cx="76.3" cy="156.42" r="16.73"/></g></g><path id="_Составной_контур_" data-name="&lt;Составной контур&gt;" class="cls-21" d="M83.46,156.66c.13.15.26.29,0,0s-.14-.15,0,0A5.59,5.59,0,0,0,80.1,155a17.57,17.57,0,0,0-2.51-.2l-1.1-5.22a4.5,4.5,0,0,1,2.05.33,2.88,2.88,0,0,1,.79.55,2.37,2.37,0,0,1,.32.39c.09.13.15.29.24.43a1.41,1.41,0,0,0,2.56-.45,1.48,1.48,0,0,0,0-.81,2.6,2.6,0,0,0-.24-.47,4.53,4.53,0,0,0-.3-.46,5.45,5.45,0,0,0-1.44-1.35,6.89,6.89,0,0,0-4-1,5.07,5.07,0,0,0-.55,0l-.33-1.52a1.41,1.41,0,0,0-1.06-1.08,1.4,1.4,0,0,0-1.69,1.67l.32,1.52a7.11,7.11,0,0,0-3.37,2.44,4.83,4.83,0,0,0-.8,1.79,4.71,4.71,0,0,0,0,2.08,4.82,4.82,0,0,0,.84,1.89,4.34,4.34,0,0,0,1.54,1.21,10,10,0,0,0,3.94.79l1.16,5.46a4.23,4.23,0,0,1-2-.59,3.59,3.59,0,0,1-.77-.64,4,4,0,0,1-.31-.41c-.09-.15-.16-.3-.25-.45a1.41,1.41,0,0,0-2.57.33,1.4,1.4,0,0,0,0,.81,2.94,2.94,0,0,0,.2.44c.09.16.18.32.28.47a6.44,6.44,0,0,0,1.4,1.5,7,7,0,0,0,3.82,1.36h.74l.34,1.6a1.41,1.41,0,0,0,2.76-.58l-.31-1.47a7.45,7.45,0,0,0,3.6-2.2,5.08,5.08,0,0,0,0-6.57Zm-8.27-2c-.34,0-.66-.07-1-.12a4.93,4.93,0,0,1-1-.27,1.69,1.69,0,0,1-.75-.54,2.27,2.27,0,0,1-.31-.95,1.81,1.81,0,0,1,.14-1,3.54,3.54,0,0,1,1.9-1.71Zm7,5.87a3.62,3.62,0,0,1-2.49,2.07l-1.06-5a9.25,9.25,0,0,1,2,.26,2.73,2.73,0,0,1,.87.39,1.62,1.62,0,0,1,.53.68A2.29,2.29,0,0,1,82.24,160.49Z"/><circle class="cls-9" cx="51.12" cy="29.13" r="22.93"/><path class="cls-15" d="M63.52,48.42A22.93,22.93,0,0,1,28.19,29.13C39.35,29.13,56.14,36,63.52,48.42Z"/><path class="cls-24" d="M45.8,35.32l-2.63-8.08A1.13,1.13,0,0,1,43.58,26l6.88-5a1.13,1.13,0,0,1,1.33,0l6.87,5a1.13,1.13,0,0,1,.41,1.27l-2.62,8.08a1.15,1.15,0,0,1-1.08.78h-8.5A1.13,1.13,0,0,1,45.8,35.32Z"/><path class="cls-25" d="M64,15.25l2.84-2.87A23.19,23.19,0,0,0,55.23,6.56l-.61,4a.68.68,0,0,0,.37.73l8.16,4.11A.7.7,0,0,0,64,15.25Z"/><path class="cls-26" d="M41.88,12.63,40,9.05a22.86,22.86,0,0,0-9.11,9.2l3.6,1.81a.7.7,0,0,0,.8-.13l6.43-6.5A.68.68,0,0,0,41.88,12.63Z"/><path class="cls-27" d="M32.57,32.81l-4,.65A23,23,0,0,0,34.53,45l2.84-2.87a.68.68,0,0,0,.12-.8L33.3,33.18A.69.69,0,0,0,32.57,32.81Z"/><path class="cls-28" d="M48.89,47.9l-.61,4a23,23,0,0,0,12.77-2.1l-1.84-3.57a.69.69,0,0,0-.73-.37l-9,1.47A.71.71,0,0,0,48.89,47.9Z"/><path class="cls-29" d="M69.3,27.29l-1.39,9a.71.71,0,0,0,.38.73l3.59,1.81a22.77,22.77,0,0,0,2-12.8l-4,.65A.69.69,0,0,0,69.3,27.29Z"/></g><g id="helps"><path class="cls-30" d="M295,109.61h33.23a2.27,2.27,0,0,1,2.27,2.27v22.53a2.27,2.27,0,0,1-2.27,2.27H298.84l-4.69,4.68a.81.81,0,0,1-1.39-.57V111.88A2.27,2.27,0,0,1,295,109.61Z"/><line class="cls-31" x1="299.86" y1="116.78" x2="297.66" y2="116.78"/><line class="cls-31" x1="324.89" y1="116.78" x2="303.02" y2="116.78"/><line class="cls-31" x1="303.35" y1="119.98" x2="297.66" y2="119.98"/><line class="cls-31" x1="324.89" y1="119.98" x2="306.12" y2="119.98"/><line class="cls-31" x1="313.7" y1="123.19" x2="297.66" y2="123.19"/><line class="cls-31" x1="324.89" y1="123.19" x2="321.98" y2="123.19"/><line class="cls-31" x1="302.02" y1="126.39" x2="297.66" y2="126.39"/><line class="cls-31" x1="324.89" y1="126.39" x2="305.67" y2="126.39"/><line class="cls-31" x1="324.89" y1="129.59" x2="301.4" y2="129.59"/><path class="cls-32" d="M50.58,99.62H12.85a2.58,2.58,0,0,0-2.58,2.57v25.58a2.58,2.58,0,0,0,2.58,2.58H46.26l5.32,5.32a.93.93,0,0,0,1.58-.65V102.19A2.58,2.58,0,0,0,50.58,99.62Z"/><line class="cls-33" x1="45.1" y1="107.75" x2="47.59" y2="107.75"/><line class="cls-33" x1="16.67" y1="107.75" x2="41.51" y2="107.75"/><line class="cls-33" x1="41.14" y1="111.39" x2="47.59" y2="111.39"/><line class="cls-33" x1="16.67" y1="111.39" x2="37.99" y2="111.39"/><line class="cls-33" x1="29.38" y1="115.03" x2="47.59" y2="115.03"/><line class="cls-33" x1="16.67" y1="115.03" x2="19.98" y2="115.03"/><line class="cls-33" x1="42.65" y1="118.67" x2="47.59" y2="118.67"/><line class="cls-33" x1="16.67" y1="118.67" x2="38.5" y2="118.67"/><line class="cls-33" x1="16.67" y1="122.3" x2="43.35" y2="122.3"/><path class="cls-34" d="M70.73,63.94H100a2,2,0,0,0,2-2V42.08a2,2,0,0,0-2-2H74.09L70,36a.72.72,0,0,0-1.23.5V61.94A2,2,0,0,0,70.73,63.94Z"/><line class="cls-35" x1="73.31" y1="46.33" x2="97.31" y2="46.33"/><line class="cls-35" x1="95.12" y1="49.38" x2="97.31" y2="49.38"/><line class="cls-35" x1="73.31" y1="49.38" x2="93.03" y2="49.38"/><line class="cls-35" x1="82.26" y1="52.43" x2="95.69" y2="52.43"/><line class="cls-35" x1="73.31" y1="52.43" x2="77.48" y2="52.43"/><line class="cls-35" x1="92.3" y1="55.48" x2="97.31" y2="55.48"/><line class="cls-35" x1="73.31" y1="55.48" x2="90.03" y2="55.48"/><line class="cls-35" x1="73.31" y1="58.54" x2="92.59" y2="58.54"/><path class="cls-36" d="M295.29,66.52h-39.1a2.66,2.66,0,0,1-2.66-2.67V37.35a2.66,2.66,0,0,1,2.66-2.67h34.62l5.51-5.51a1,1,0,0,1,1.64.67v34A2.67,2.67,0,0,1,295.29,66.52Z"/><line class="cls-37" x1="291.85" y1="43.02" x2="259.81" y2="43.02"/><line class="cls-37" x1="262.74" y1="47.09" x2="259.81" y2="47.09"/><line class="cls-37" x1="291.85" y1="47.09" x2="265.52" y2="47.09"/><line class="cls-37" x1="279.89" y1="51.17" x2="261.97" y2="51.17"/><line class="cls-37" x1="291.85" y1="51.17" x2="286.27" y2="51.17"/><line class="cls-37" x1="266.5" y1="55.24" x2="259.81" y2="55.24"/><line class="cls-37" x1="291.85" y1="55.24" x2="269.53" y2="55.24"/><line class="cls-37" x1="291.85" y1="59.31" x2="266.11" y2="59.31"/></g></svg>
