<svg width="455" height="420" xmlns="http://www.w3.org/2000/svg" viewBox="0 0 454.78 419.056"><defs><style>.a,.r,.t{fill:#fff;}.b{fill:#ffc093;}.b,.k{font-size:13px;}.b,.c,.f,.h,.j,.l{font-family:Ubuntu-Regular, Ubuntu;}.c{fill:#9fb0f4;}.c,.n{font-size:12px;}.d,.e,.q,.s,.v{fill:none;}.d{stroke:#f1f3f5;}.e{stroke:#dee2e6;}.f{fill:#adb5bd;font-size:11px;}.g,.j,.l{fill:#343a40;}.g,.i,.j,.m,.o{font-size:15px;}.g,.i,.k,.m,.n,.o{font-family:Ubuntu-Bold, Ubuntu;font-weight:700;}.h,.l{font-weight:400;}.i{fill:#f89650;}.k,.n{fill:#2f9e44;}.m{fill:#617cec;}.o{fill:#cb64e3;}.p{fill:#bc98df;}.q{stroke:#feb17b;}.q,.r,.s,.t{stroke-width:3px;}.r{stroke:#f69754;}.s{stroke:#8ca3fe;}.t{stroke:#677ed9;}.u{stroke:none;}</style></defs><g transform="translate(0)"><rect class="a" width="454.78" height="419.056" rx="4" transform="translate(0)"/><g transform="translate(22.832 60.123)"><g transform="translate(0.466 22.838)"><text class="b" transform="translate(0 12)"><tspan x="0" y="0">60k</tspan></text><text class="b" transform="translate(0 44.625)"><tspan x="0" y="0">50k</tspan></text><text class="b" transform="translate(0 77.25)"><tspan x="0" y="0">40k</tspan></text><text class="b" transform="translate(0 109.875)"><tspan x="0" y="0">30k</tspan></text><text class="b" transform="translate(0 142.501)"><tspan x="0" y="0">20k</tspan></text><text class="b" transform="translate(0 175.126)"><tspan x="0" y="0">10k</tspan></text></g><g transform="translate(390.011 22.838)"><text class="c" transform="translate(16 11)"><tspan x="-16.488" y="0">0.7</tspan></text><text class="c" transform="translate(16 43.625)"><tspan x="-16.488" y="0">0.6</tspan></text><text class="c" transform="translate(16 76.25)"><tspan x="-16.488" y="0">0.5</tspan></text><text class="c" transform="translate(16 108.875)"><tspan x="-16.488" y="0">0.4</tspan></text><text class="c" transform="translate(16 141.501)"><tspan x="-16.488" y="0">0.3</tspan></text><text class="c" transform="translate(16 174.126)"><tspan x="-16.488" y="0">0.2</tspan></text></g><g transform="translate(31.685)"><line class="d" y1="222.783"/><line class="d" y1="222.783" transform="translate(350.404)"/><g transform="translate(3.728 31.693)"><line class="e" x2="4.66"/><line class="e" x2="4.66" transform="translate(9.319)"/><line class="e" x2="4.66" transform="translate(18.639)"/><line class="e" x2="4.66" transform="translate(27.958)"/><line class="e" x2="4.66" transform="translate(37.277)"/><line class="e" x2="4.66" transform="translate(46.596)"/><line class="e" x2="4.66" transform="translate(55.916)"/><line class="e" x2="4.66" transform="translate(65.235)"/><line class="e" x2="4.66" transform="translate(74.554)"/><line class="e" x2="4.66" transform="translate(83.873)"/><line class="e" x2="4.66" transform="translate(93.193)"/><line class="e" x2="4.66" transform="translate(102.512)"/><line class="e" x2="4.66" transform="translate(111.831)"/><line class="e" x2="4.66" transform="translate(121.15)"/><line class="e" x2="4.66" transform="translate(130.47)"/><line class="e" x2="4.66" transform="translate(139.789)"/><line class="e" x2="4.66" transform="translate(149.108)"/><line class="e" x2="4.66" transform="translate(158.427)"/><line class="e" x2="4.66" transform="translate(167.747)"/><line class="e" x2="4.66" transform="translate(177.066)"/><line class="e" x2="4.66" transform="translate(186.385)"/><line class="e" x2="4.66" transform="translate(195.705)"/><line class="e" x2="4.66" transform="translate(205.024)"/><line class="e" x2="4.66" transform="translate(214.343)"/><line class="e" x2="4.66" transform="translate(223.662)"/><line class="e" x2="4.66" transform="translate(232.982)"/><line class="e" x2="4.66" transform="translate(242.301)"/><line class="e" x2="4.66" transform="translate(251.62)"/><line class="e" x2="4.66" transform="translate(260.939)"/><line class="e" x2="4.66" transform="translate(270.259)"/><line class="e" x2="4.66" transform="translate(279.578)"/><line class="e" x2="4.66" transform="translate(288.897)"/><line class="e" x2="4.66" transform="translate(298.216)"/><line class="e" x2="4.66" transform="translate(307.536)"/><line class="e" x2="4.66" transform="translate(316.855)"/><line class="e" x2="4.66" transform="translate(326.174)"/><line class="e" x2="4.66" transform="translate(335.493)"/></g><g transform="translate(3.728 64.318)"><line class="e" x2="4.66"/><line class="e" x2="4.66" transform="translate(9.319)"/><line class="e" x2="4.66" transform="translate(18.639)"/><line class="e" x2="4.66" transform="translate(27.958)"/><line class="e" x2="4.66" transform="translate(37.277)"/><line class="e" x2="4.66" transform="translate(46.596)"/><line class="e" x2="4.66" transform="translate(55.916)"/><line class="e" x2="4.66" transform="translate(65.235)"/><line class="e" x2="4.66" transform="translate(74.554)"/><line class="e" x2="4.66" transform="translate(83.873)"/><line class="e" x2="4.66" transform="translate(93.193)"/><line class="e" x2="4.66" transform="translate(102.512)"/><line class="e" x2="4.66" transform="translate(111.831)"/><line class="e" x2="4.66" transform="translate(121.15)"/><line class="e" x2="4.66" transform="translate(130.47)"/><line class="e" x2="4.66" transform="translate(139.789)"/><line class="e" x2="4.66" transform="translate(149.108)"/><line class="e" x2="4.66" transform="translate(158.427)"/><line class="e" x2="4.66" transform="translate(167.747)"/><line class="e" x2="4.66" transform="translate(177.066)"/><line class="e" x2="4.66" transform="translate(186.385)"/><line class="e" x2="4.66" transform="translate(195.705)"/><line class="e" x2="4.66" transform="translate(205.024)"/><line class="e" x2="4.66" transform="translate(214.343)"/><line class="e" x2="4.66" transform="translate(223.662)"/><line class="e" x2="4.66" transform="translate(232.982)"/><line class="e" x2="4.66" transform="translate(242.301)"/><line class="e" x2="4.66" transform="translate(251.62)"/><line class="e" x2="4.66" transform="translate(260.939)"/><line class="e" x2="4.66" transform="translate(270.259)"/><line class="e" x2="4.66" transform="translate(279.578)"/><line class="e" x2="4.66" transform="translate(288.897)"/><line class="e" x2="4.66" transform="translate(298.216)"/><line class="e" x2="4.66" transform="translate(307.536)"/><line class="e" x2="4.66" transform="translate(316.855)"/><line class="e" x2="4.66" transform="translate(326.174)"/><line class="e" x2="4.66" transform="translate(335.493)"/></g><g transform="translate(3.728 96.943)"><line class="e" x2="4.66"/><line class="e" x2="4.66" transform="translate(9.319)"/><line class="e" x2="4.66" transform="translate(18.639)"/><line class="e" x2="4.66" transform="translate(27.958)"/><line class="e" x2="4.66" transform="translate(37.277)"/><line class="e" x2="4.66" transform="translate(46.596)"/><line class="e" x2="4.66" transform="translate(55.916)"/><line class="e" x2="4.66" transform="translate(65.235)"/><line class="e" x2="4.66" transform="translate(74.554)"/><line class="e" x2="4.66" transform="translate(83.873)"/><line class="e" x2="4.66" transform="translate(93.193)"/><line class="e" x2="4.66" transform="translate(102.512)"/><line class="e" x2="4.66" transform="translate(111.831)"/><line class="e" x2="4.66" transform="translate(121.15)"/><line class="e" x2="4.66" transform="translate(130.47)"/><line class="e" x2="4.66" transform="translate(139.789)"/><line class="e" x2="4.66" transform="translate(149.108)"/><line class="e" x2="4.66" transform="translate(158.427)"/><line class="e" x2="4.66" transform="translate(167.747)"/><line class="e" x2="4.66" transform="translate(177.066)"/><line class="e" x2="4.66" transform="translate(186.385)"/><line class="e" x2="4.66" transform="translate(195.705)"/><line class="e" x2="4.66" transform="translate(205.024)"/><line class="e" x2="4.66" transform="translate(214.343)"/><line class="e" x2="4.66" transform="translate(223.662)"/><line class="e" x2="4.66" transform="translate(232.982)"/><line class="e" x2="4.66" transform="translate(242.301)"/><line class="e" x2="4.66" transform="translate(251.62)"/><line class="e" x2="4.66" transform="translate(260.939)"/><line class="e" x2="4.66" transform="translate(270.259)"/><line class="e" x2="4.66" transform="translate(279.578)"/><line class="e" x2="4.66" transform="translate(288.897)"/><line class="e" x2="4.66" transform="translate(298.216)"/><line class="e" x2="4.66" transform="translate(307.536)"/><line class="e" x2="4.66" transform="translate(316.855)"/><line class="e" x2="4.66" transform="translate(326.174)"/><line class="e" x2="4.66" transform="translate(335.493)"/></g><g transform="translate(3.728 129.568)"><line class="e" x2="4.66"/><line class="e" x2="4.66" transform="translate(9.319)"/><line class="e" x2="4.66" transform="translate(18.639)"/><line class="e" x2="4.66" transform="translate(27.958)"/><line class="e" x2="4.66" transform="translate(37.277)"/><line class="e" x2="4.66" transform="translate(46.596)"/><line class="e" x2="4.66" transform="translate(55.916)"/><line class="e" x2="4.66" transform="translate(65.235)"/><line class="e" x2="4.66" transform="translate(74.554)"/><line class="e" x2="4.66" transform="translate(83.873)"/><line class="e" x2="4.66" transform="translate(93.193)"/><line class="e" x2="4.66" transform="translate(102.512)"/><line class="e" x2="4.66" transform="translate(111.831)"/><line class="e" x2="4.66" transform="translate(121.15)"/><line class="e" x2="4.66" transform="translate(130.47)"/><line class="e" x2="4.66" transform="translate(139.789)"/><line class="e" x2="4.66" transform="translate(149.108)"/><line class="e" x2="4.66" transform="translate(158.427)"/><line class="e" x2="4.66" transform="translate(167.747)"/><line class="e" x2="4.66" transform="translate(177.066)"/><line class="e" x2="4.66" transform="translate(186.385)"/><line class="e" x2="4.66" transform="translate(195.705)"/><line class="e" x2="4.66" transform="translate(205.024)"/><line class="e" x2="4.66" transform="translate(214.343)"/><line class="e" x2="4.66" transform="translate(223.662)"/><line class="e" x2="4.66" transform="translate(232.982)"/><line class="e" x2="4.66" transform="translate(242.301)"/><line class="e" x2="4.66" transform="translate(251.62)"/><line class="e" x2="4.66" transform="translate(260.939)"/><line class="e" x2="4.66" transform="translate(270.259)"/><line class="e" x2="4.66" transform="translate(279.578)"/><line class="e" x2="4.66" transform="translate(288.897)"/><line class="e" x2="4.66" transform="translate(298.216)"/><line class="e" x2="4.66" transform="translate(307.536)"/><line class="e" x2="4.66" transform="translate(316.855)"/><line class="e" x2="4.66" transform="translate(326.174)"/><line class="e" x2="4.66" transform="translate(335.493)"/></g><g transform="translate(3.728 162.194)"><line class="e" x2="4.66"/><line class="e" x2="4.66" transform="translate(9.319)"/><line class="e" x2="4.66" transform="translate(18.639)"/><line class="e" x2="4.66" transform="translate(27.958)"/><line class="e" x2="4.66" transform="translate(37.277)"/><line class="e" x2="4.66" transform="translate(46.596)"/><line class="e" x2="4.66" transform="translate(55.916)"/><line class="e" x2="4.66" transform="translate(65.235)"/><line class="e" x2="4.66" transform="translate(74.554)"/><line class="e" x2="4.66" transform="translate(83.873)"/><line class="e" x2="4.66" transform="translate(93.193)"/><line class="e" x2="4.66" transform="translate(102.512)"/><line class="e" x2="4.66" transform="translate(111.831)"/><line class="e" x2="4.66" transform="translate(121.15)"/><line class="e" x2="4.66" transform="translate(130.47)"/><line class="e" x2="4.66" transform="translate(139.789)"/><line class="e" x2="4.66" transform="translate(149.108)"/><line class="e" x2="4.66" transform="translate(158.427)"/><line class="e" x2="4.66" transform="translate(167.747)"/><line class="e" x2="4.66" transform="translate(177.066)"/><line class="e" x2="4.66" transform="translate(186.385)"/><line class="e" x2="4.66" transform="translate(195.705)"/><line class="e" x2="4.66" transform="translate(205.024)"/><line class="e" x2="4.66" transform="translate(214.343)"/><line class="e" x2="4.66" transform="translate(223.662)"/><line class="e" x2="4.66" transform="translate(232.982)"/><line class="e" x2="4.66" transform="translate(242.301)"/><line class="e" x2="4.66" transform="translate(251.62)"/><line class="e" x2="4.66" transform="translate(260.939)"/><line class="e" x2="4.66" transform="translate(270.259)"/><line class="e" x2="4.66" transform="translate(279.578)"/><line class="e" x2="4.66" transform="translate(288.897)"/><line class="e" x2="4.66" transform="translate(298.216)"/><line class="e" x2="4.66" transform="translate(307.536)"/><line class="e" x2="4.66" transform="translate(316.855)"/><line class="e" x2="4.66" transform="translate(326.174)"/><line class="e" x2="4.66" transform="translate(335.493)"/></g><g transform="translate(3.728 194.819)"><line class="e" x2="4.66"/><line class="e" x2="4.66" transform="translate(9.319)"/><line class="e" x2="4.66" transform="translate(18.639)"/><line class="e" x2="4.66" transform="translate(27.958)"/><line class="e" x2="4.66" transform="translate(37.277)"/><line class="e" x2="4.66" transform="translate(46.596)"/><line class="e" x2="4.66" transform="translate(55.916)"/><line class="e" x2="4.66" transform="translate(65.235)"/><line class="e" x2="4.66" transform="translate(74.554)"/><line class="e" x2="4.66" transform="translate(83.873)"/><line class="e" x2="4.66" transform="translate(93.193)"/><line class="e" x2="4.66" transform="translate(102.512)"/><line class="e" x2="4.66" transform="translate(111.831)"/><line class="e" x2="4.66" transform="translate(121.15)"/><line class="e" x2="4.66" transform="translate(130.47)"/><line class="e" x2="4.66" transform="translate(139.789)"/><line class="e" x2="4.66" transform="translate(149.108)"/><line class="e" x2="4.66" transform="translate(158.427)"/><line class="e" x2="4.66" transform="translate(167.747)"/><line class="e" x2="4.66" transform="translate(177.066)"/><line class="e" x2="4.66" transform="translate(186.385)"/><line class="e" x2="4.66" transform="translate(195.705)"/><line class="e" x2="4.66" transform="translate(205.024)"/><line class="e" x2="4.66" transform="translate(214.343)"/><line class="e" x2="4.66" transform="translate(223.662)"/><line class="e" x2="4.66" transform="translate(232.982)"/><line class="e" x2="4.66" transform="translate(242.301)"/><line class="e" x2="4.66" transform="translate(251.62)"/><line class="e" x2="4.66" transform="translate(260.939)"/><line class="e" x2="4.66" transform="translate(270.259)"/><line class="e" x2="4.66" transform="translate(279.578)"/><line class="e" x2="4.66" transform="translate(288.897)"/><line class="e" x2="4.66" transform="translate(298.216)"/><line class="e" x2="4.66" transform="translate(307.536)"/><line class="e" x2="4.66" transform="translate(316.855)"/><line class="e" x2="4.66" transform="translate(326.174)"/><line class="e" x2="4.66" transform="translate(335.493)"/></g></g><g transform="translate(0 222.783)"><text class="f" transform="translate(30.696 13.263)"><tspan x="-6.204" y="0">00</tspan></text><text class="f" transform="translate(66.109 13.263)"><tspan x="-6.204" y="0">02</tspan></text><text class="f" transform="translate(100.591 13.263)"><tspan x="-6.204" y="0">04</tspan></text><text class="f" transform="translate(136.004 13.263)"><tspan x="-6.204" y="0">06</tspan></text><text class="f" transform="translate(170.485 13.263)"><tspan x="-6.204" y="0">08</tspan></text><text class="f" transform="translate(205.898 13.263)"><tspan x="-6.204" y="0">10</tspan></text><text class="f" transform="translate(241.311 13.263)"><tspan x="-6.204" y="0">12</tspan></text><text class="f" transform="translate(275.793 13.263)"><tspan x="-6.204" y="0">14</tspan></text><text class="f" transform="translate(311.206 13.263)"><tspan x="-6.204" y="0">16</tspan></text><text class="f" transform="translate(345.687 13.263)"><tspan x="-6.204" y="0">18</tspan></text><text class="f" transform="translate(381.1 13.263)"><tspan x="-6.204" y="0">20</tspan></text><line class="e" x2="409.116"/></g></g><g transform="translate(22.366 20.507)"><text class="g" transform="translate(0 14)"><tspan x="0" y="0">Engagement today</tspan><tspan class="h" y="0" xml:space="preserve"> compared to typical Tuesday</tspan></text><line class="e" x2="409.116" transform="translate(0.466 39.616)"/></g><g transform="translate(22.366 323.455)"><text class="i" transform="translate(0 14)"><tspan x="0" y="0">Reads</tspan></text><text class="j" transform="translate(0 36.372)"><tspan x="0" y="0">546,554</tspan></text><text class="k" transform="translate(0 67.929)"><tspan x="0" y="0">+10%</tspan><tspan class="l" y="0" xml:space="preserve"> to 493,158</tspan></text><line class="e" x2="44.732" transform="translate(0.466 48.938)"/><g transform="translate(162.155)"><text class="m" transform="translate(0 14)"><tspan x="0" y="0">EQ</tspan></text><text class="n" transform="translate(0 66.929)"><tspan x="0" y="0">+7%</tspan><tspan class="l" y="0" xml:space="preserve"> to 0.52</tspan></text><text class="j" transform="translate(0 36.372)"><tspan x="0" y="0">0.64 avg.</tspan></text><line class="e" x2="44.732" transform="translate(0.466 48.938)"/></g><g transform="translate(311.263)"><text class="o" transform="translate(0 14)"><tspan x="0" y="0">Stories</tspan></text><text class="k" transform="translate(0 67.929)"><tspan x="0" y="0">+20%</tspan><tspan class="l" y="0" xml:space="preserve"> to 184</tspan></text><text class="j" transform="translate(0 36.372)"><tspan x="0" y="0">232</tspan></text><line class="e" x2="44.732" transform="translate(0.466 48.938)"/></g></g><g transform="translate(52.173 104.845)"><g transform="translate(2.811 123.531)"><path class="p" d="M1.4,0h0A1.4,1.4,0,0,1,2.8,1.4V54.065a0,0,0,0,1,0,0H0a0,0,0,0,1,0,0V1.4A1.4,1.4,0,0,1,1.4,0Z"/><path class="p" d="M1.4,0h0A1.4,1.4,0,0,1,2.8,1.4V33.557a0,0,0,0,1,0,0H0a0,0,0,0,1,0,0V1.4A1.4,1.4,0,0,1,1.4,0Z" transform="translate(16.775 20.507)"/><path class="p" d="M1.4,0h0A1.4,1.4,0,0,1,2.8,1.4V32.625a0,0,0,0,1,0,0H0a0,0,0,0,1,0,0V1.4A1.4,1.4,0,0,1,1.4,0Z" transform="translate(156.564 21.439)"/><path class="p" d="M1.4,0h0A1.4,1.4,0,0,1,2.8,1.4V32.625a0,0,0,0,1,0,0H0a0,0,0,0,1,0,0V1.4A1.4,1.4,0,0,1,1.4,0Z" transform="translate(261.871 21.439)"/><path class="p" d="M1.4,0h0A1.4,1.4,0,0,1,2.8,1.4V26.1a0,0,0,0,1,0,0H0a0,0,0,0,1,0,0V1.4A1.4,1.4,0,0,1,1.4,0Z" transform="translate(34.481 27.964)"/><path class="p" d="M1.4,0h0A1.4,1.4,0,0,1,2.8,1.4V23.3a0,0,0,0,1,0,0H0a0,0,0,0,1,0,0V1.4A1.4,1.4,0,0,1,1.4,0Z" transform="translate(86.669 30.761)"/><path class="p" d="M1.4,0h0A1.4,1.4,0,0,1,2.8,1.4V23.3a0,0,0,0,1,0,0H0a0,0,0,0,1,0,0V1.4A1.4,1.4,0,0,1,1.4,0Z" transform="translate(279.578 30.761)"/><path class="p" d="M1.4,0h0A1.4,1.4,0,0,1,2.8,1.4V27.032a0,0,0,0,1,0,0H0a0,0,0,0,1,0,0V1.4A1.4,1.4,0,0,1,1.4,0Z" transform="translate(191.977 27.032)"/><path class="p" d="M1.4,0h0A1.4,1.4,0,0,1,2.8,1.4V27.032a0,0,0,0,1,0,0H0a0,0,0,0,1,0,0V1.4A1.4,1.4,0,0,1,1.4,0Z" transform="translate(227.39 27.032)"/><path class="p" d="M1.4,0h0A1.4,1.4,0,0,1,2.8,1.4V23.3a0,0,0,0,1,0,0H0a0,0,0,0,1,0,0V1.4A1.4,1.4,0,0,1,1.4,0Z" transform="translate(121.15 30.761)"/><path class="p" d="M1.4,0h0A1.4,1.4,0,0,1,2.8,1.4V18.643a0,0,0,0,1,0,0H0a0,0,0,0,1,0,0V1.4A1.4,1.4,0,0,1,1.4,0Z" transform="translate(138.857 35.422)"/><path class="p" d="M1.4,0h0A1.4,1.4,0,0,1,2.8,1.4V18.643a0,0,0,0,1,0,0H0a0,0,0,0,1,0,0V1.4A1.4,1.4,0,0,1,1.4,0Z" transform="translate(209.683 35.422)"/><path class="p" d="M1.4,0h0A1.4,1.4,0,0,1,2.8,1.4V43.811a0,0,0,0,1,0,0H0a0,0,0,0,1,0,0V1.4A1.4,1.4,0,0,1,1.4,0Z" transform="translate(52.188 10.254)"/><path class="p" d="M1.4,0h0A1.4,1.4,0,0,1,2.8,1.4V54.065a0,0,0,0,1,0,0H0a0,0,0,0,1,0,0V1.4A1.4,1.4,0,0,1,1.4,0Z" transform="translate(68.963)"/><path class="p" d="M1.4,0h0A1.4,1.4,0,0,1,2.8,1.4V54.065a0,0,0,0,1,0,0H0a0,0,0,0,1,0,0V1.4A1.4,1.4,0,0,1,1.4,0Z" transform="translate(103.444)"/><path class="p" d="M1.4,0h0A1.4,1.4,0,0,1,2.8,1.4V44.743a0,0,0,0,1,0,0H0a0,0,0,0,1,0,0V1.4A1.4,1.4,0,0,1,1.4,0Z" transform="translate(244.165 9.321)"/><path class="p" d="M1.4,0h0A1.4,1.4,0,0,1,2.8,1.4V40.082a0,0,0,0,1,0,0H0a0,0,0,0,1,0,0V1.4A1.4,1.4,0,0,1,1.4,0Z" transform="translate(174.27 13.982)"/></g><g transform="translate(0 92.214)"><path class="q" d="M1003.984-202.566c11.662,9.463,29.2,13.259,38.8,13.259,56.362,0,59.91-73.289,116.686-73.289,43.408,0,47.628,38.512,92.667,38.512,35.729,0,47.066-23.9,47.066-23.9" transform="translate(-1003.984 262.596)"/><g class="r" transform="translate(288.912 8.013)"><ellipse class="u" cx="6.523" cy="6.525" rx="6.523" ry="6.525"/><ellipse class="v" cx="6.523" cy="6.525" rx="5.023" ry="5.025"/></g></g><path class="s" d="M1003.984-257.567c60.639,0,59.838-64.463,110.759-64.463,30.177,0,31.336,23.271,59.525,23.271,31.669,0,30.7-62.764,58.115-62.764,26.071,0,26.062,38.489,66.34,38.489" transform="translate(-1003.984 361.523)"/><g class="t" transform="translate(287.98 32.18)"><ellipse class="u" cx="6.523" cy="6.525" rx="6.523" ry="6.525"/><ellipse class="v" cx="6.523" cy="6.525" rx="5.023" ry="5.025"/></g></g><rect class="a" width="4.66" height="65.25" transform="translate(49.392 203.208)"/><line class="d" y2="57.793" transform="translate(54.518 205.538)"/></g></svg>