<svg width="455" height="446" xmlns="http://www.w3.org/2000/svg" xmlns:xlink="http://www.w3.org/1999/xlink" viewBox="0 0 454.78 444.503"><defs><style>.a,.j,.l,.v{fill:#fff;}.b{fill:#f1f3f5;}.c,.r{fill:#343a40;}.c,.d,.e,.f{font-size:16px;}.c,.m,.n,.q,.r,.v{font-family:Ubuntu-Regular, Ubuntu;}.d{fill:#f89650;}.d,.e,.f{font-family:Ubuntu-Bold, Ubuntu;font-weight:700;}.e{fill:#cb64e3;}.f{fill:#7089ea;}.g{fill:url(#a);}.h{fill:#bc98df;}.i,.k,.o,.p,.s{fill:none;}.i,.j{stroke:#feb17b;}.i,.k{stroke-width:3px;}.j,.l{stroke-width:2px;}.k,.l{stroke:#8ca3fe;}.m{fill:#ffc093;}.m,.n,.q,.r,.v{font-size:13px;}.n,.u{fill:#9fb0f4;}.o{stroke:#f1f3f5;}.p{stroke:#dee2e6;}.q{fill:#adb5bd;}.t{fill:#4c6ef5;}.w{stroke:none;}.x{filter:url(#h);}.y{filter:url(#f);}.z{filter:url(#d);}.aa{filter:url(#b);}</style><linearGradient id="a" x1="0.5" y1="0.601" x2="0.5" y2="1" gradientUnits="objectBoundingBox"><stop offset="0" stop-color="#feeee4"/><stop offset="1" stop-color="#fff"/></linearGradient><filter id="b" x="94.5" y="141.643" width="100" height="17" filterUnits="userSpaceOnUse"><feOffset dy="1" input="SourceAlpha"/><feGaussianBlur stdDeviation="0.5" result="c"/><feFlood flood-opacity="0.161"/><feComposite operator="in" in2="c"/><feComposite in="SourceGraphic"/></filter><filter id="d" x="202.206" y="145.349" width="11.485" height="11.485" filterUnits="userSpaceOnUse"><feOffset dy="1" input="SourceAlpha"/><feGaussianBlur stdDeviation="0.5" result="e"/><feFlood flood-opacity="0.161"/><feComposite operator="in" in2="e"/><feComposite in="SourceGraphic"/></filter><filter id="f" x="246.5" y="141.643" width="87" height="17" filterUnits="userSpaceOnUse"><feOffset dy="1" input="SourceAlpha"/><feGaussianBlur stdDeviation="0.5" result="g"/><feFlood flood-opacity="0.161"/><feComposite operator="in" in2="g"/><feComposite in="SourceGraphic"/></filter><filter id="h" x="342.206" y="145.349" width="11.485" height="11.485" filterUnits="userSpaceOnUse"><feOffset dy="1" input="SourceAlpha"/><feGaussianBlur stdDeviation="0.5" result="i"/><feFlood flood-opacity="0.161"/><feComposite operator="in" in2="i"/><feComposite in="SourceGraphic"/></filter></defs><g transform="translate(0 0)"><rect class="a" width="454.78" height="444.503" rx="4" transform="translate(0 0)"/><rect class="b" width="135" height="30" rx="15" transform="translate(300 15.143)"/><text class="c" transform="translate(22.366 35.502)"><tspan x="0" y="0">Engagement Volume &amp; Quality</tspan></text><g transform="translate(22.366 59.378)"><g transform="translate(0 0)"><text class="d" transform="translate(0 15)"><tspan x="0" y="0">Story Views</tspan></text><text class="c" transform="translate(0 37.366)"><tspan x="0" y="0">141,243</tspan></text></g><g transform="translate(162.155 0)"><text class="e" transform="translate(0 15)"><tspan x="0" y="0">New Stories</tspan></text><text class="c" transform="translate(0 37.366)"><tspan x="0" y="0">41</tspan></text></g><g transform="translate(311.263 0)"><text class="f" transform="translate(0 15)"><tspan x="0" y="0">Engagement</tspan></text><text class="c" transform="translate(0 37.366)"><tspan x="0" y="0">0.42 </tspan></text></g></g><g transform="translate(0 122)"><g transform="translate(52.173 163.485)"><path class="g" d="M1001.833-133.208c1.45,0-1.638-75.687,0-75.736,14.794-.445,19.176-4.305,40.823-12.745,16.539-6.448,39.192-8.755,69.65-8.755,27.137,0,53.429-9.953,71.059-25.063,17.4-14.916,38.994-29.026,69.407-9.12,22.165,14.507,46.036,27.762,68.782,27.762h35.013c.861,0-.676,103.1.478,103.1" transform="translate(-1003.984 253.596)"/></g><g transform="translate(54.984 228.322)"><path class="h" d="M1.4,0h0A1.4,1.4,0,0,1,2.8,1.4V16.052a0,0,0,0,1,0,0H0a0,0,0,0,1,0,0V1.4A1.4,1.4,0,0,1,1.4,0Z" transform="translate(0 38)"/><path class="h" d="M1.4,0h0A1.4,1.4,0,0,1,2.8,1.4V33.549a0,0,0,0,1,0,0H0a0,0,0,0,1,0,0V1.4A1.4,1.4,0,0,1,1.4,0Z" transform="translate(16.775 20.502)"/><path class="h" d="M1.4,0h0A1.4,1.4,0,0,1,2.8,1.4v31.22a0,0,0,0,1,0,0H0a0,0,0,0,1,0,0V1.4A1.4,1.4,0,0,1,1.4,0Z" transform="translate(156.564 21.434)"/><path class="h" d="M1.4,0h0A1.4,1.4,0,0,1,2.8,1.4v11.22a0,0,0,0,1,0,0H0a0,0,0,0,1,0,0V1.4A1.4,1.4,0,0,1,1.4,0Z" transform="translate(261.871 41.434)"/><path class="h" d="M1.4,0h0A1.4,1.4,0,0,1,2.8,1.4v24.7a0,0,0,0,1,0,0H0a0,0,0,0,1,0,0V1.4A1.4,1.4,0,0,1,1.4,0Z" transform="translate(34.481 27.958)"/><path class="h" d="M1.4,0h0A1.4,1.4,0,0,1,2.8,1.4V23.3a0,0,0,0,1,0,0H0a0,0,0,0,1,0,0V1.4A1.4,1.4,0,0,1,1.4,0Z" transform="translate(86.669 30.754)"/><path class="h" d="M1.4,0h0A1.4,1.4,0,0,1,2.8,1.4V23.3a0,0,0,0,1,0,0H0a0,0,0,0,1,0,0V1.4A1.4,1.4,0,0,1,1.4,0Z" transform="translate(279.578 30.754)"/><path class="h" d="M1.4,0h0A1.4,1.4,0,0,1,2.8,1.4v.628a0,0,0,0,1,0,0H0a0,0,0,0,1,0,0V1.4A1.4,1.4,0,0,1,1.4,0Z" transform="translate(191.977 52.026)"/><path class="h" d="M1.4,0h0A1.4,1.4,0,0,1,2.8,1.4V9.026a0,0,0,0,1,0,0H0a0,0,0,0,1,0,0V1.4A1.4,1.4,0,0,1,1.4,0Z" transform="translate(346.677 45.026)"/><path class="h" d="M1.4,0h0A1.4,1.4,0,0,1,2.8,1.4V27.026a0,0,0,0,1,0,0H0a0,0,0,0,1,0,0V1.4A1.4,1.4,0,0,1,1.4,0Z" transform="translate(227.39 27.026)"/><path class="h" d="M1.4,0h0A1.4,1.4,0,0,1,2.8,1.4V23.3a0,0,0,0,1,0,0H0a0,0,0,0,1,0,0V1.4A1.4,1.4,0,0,1,1.4,0Z" transform="translate(121.15 30.754)"/><path class="h" d="M1.4,0h0A1.4,1.4,0,0,1,2.8,1.4V18.639a0,0,0,0,1,0,0H0a0,0,0,0,1,0,0V1.4A1.4,1.4,0,0,1,1.4,0Z" transform="translate(138.857 35.413)"/><path class="h" d="M1.4,0h0A1.4,1.4,0,0,1,2.8,1.4V18.639a0,0,0,0,1,0,0H0a0,0,0,0,1,0,0V1.4A1.4,1.4,0,0,1,1.4,0Z" transform="translate(209.683 35.413)"/><path class="h" d="M1.4,0h0A1.4,1.4,0,0,1,2.8,1.4V6.8a0,0,0,0,1,0,0H0a0,0,0,0,1,0,0V1.4A1.4,1.4,0,0,1,1.4,0Z" transform="translate(52.188 47.251)"/><path class="h" d="M1.4,0h0A1.4,1.4,0,0,1,2.8,1.4V13.052a0,0,0,0,1,0,0H0a0,0,0,0,1,0,0V1.4A1.4,1.4,0,0,1,1.4,0Z" transform="translate(68.963 41)"/><path class="h" d="M1.4,0h0A1.4,1.4,0,0,1,2.8,1.4V54.052a0,0,0,0,1,0,0H0a0,0,0,0,1,0,0V1.4A1.4,1.4,0,0,1,1.4,0Z" transform="translate(296.353)"/><path class="h" d="M1.4,0h0A1.4,1.4,0,0,1,2.8,1.4V54.052a0,0,0,0,1,0,0H0a0,0,0,0,1,0,0V1.4A1.4,1.4,0,0,1,1.4,0Z" transform="translate(103.444)"/><path class="h" d="M1.4,0h0A1.4,1.4,0,0,1,2.8,1.4V33.052a0,0,0,0,1,0,0H0a0,0,0,0,1,0,0V1.4A1.4,1.4,0,0,1,1.4,0Z" transform="translate(329.902 21)"/><path class="h" d="M1.4,0h0A1.4,1.4,0,0,1,2.8,1.4V26.732a0,0,0,0,1,0,0H0a0,0,0,0,1,0,0V1.4A1.4,1.4,0,0,1,1.4,0Z" transform="translate(244.165 27.319)"/><path class="h" d="M1.4,0h0A1.4,1.4,0,0,1,2.8,1.4V27.073a0,0,0,0,1,0,0H0a0,0,0,0,1,0,0V1.4A1.4,1.4,0,0,1,1.4,0Z" transform="translate(174.27 26.979)"/><path class="h" d="M1.4,0h0A1.4,1.4,0,0,1,2.8,1.4V40.073a0,0,0,0,1,0,0H0a0,0,0,0,1,0,0V1.4A1.4,1.4,0,0,1,1.4,0Z" transform="translate(313.127 13.979)"/></g><g transform="translate(52.173 149.485)"><path class="i" d="M1003.984-201.968c14.978,0,26.882-10.274,37.843-13.24,26.455-9.243,41.914-8.766,69.962-11.953,29.323-4.3,48.128-17.052,69.962-34.582,15.777-13.387,47.147-34.847,70.122-4.3,20.564,27.34,44.265,46.463,70.121,51.156,25.067,4.55,28.818,8.234,34.742,10.04" transform="translate(-1003.984 253.596)"/></g><g class="j" transform="translate(366 184.143)"><circle class="w" cx="4" cy="4" r="4"/><circle class="s" cx="4" cy="4" r="3"/></g><g class="j" transform="translate(296 133.143)"><circle class="w" cx="4" cy="4" r="4"/><circle class="s" cx="4" cy="4" r="3"/></g><g class="j" transform="translate(226 137.143)"><circle class="w" cx="4" cy="4" r="4"/><circle class="s" cx="4" cy="4" r="3"/></g><g class="j" transform="translate(156 172.143)"><circle class="w" cx="4" cy="4" r="4"/><circle class="s" cx="4" cy="4" r="3"/></g><g class="j" transform="translate(86 184.143)"><circle class="w" cx="4" cy="4" r="4"/><circle class="s" cx="4" cy="4" r="3"/></g><path class="k" d="M1004.561-212.73c10.033-1.264,19.1.834,37.132-4.3,38.9-15.79,44.992-26.64,70.121-52.272,12.846-13.1,33.286-26.418,70.183-16,19.2,3.446,44.7,28.985,69.558,47.275,25.572,18.814,52.163,16.894,70.281,16.894,15.869,0,26.046-9.536,34.928-11.848" transform="translate(-951.811 391.315)"/><g class="l" transform="translate(86 170.143)"><circle class="w" cx="4" cy="4" r="4"/><circle class="s" cx="4" cy="4" r="3"/></g><g class="l" transform="translate(156 118.143)"><circle class="w" cx="4" cy="4" r="4"/><circle class="s" cx="4" cy="4" r="3"/></g><g class="l" transform="translate(226 102.143)"><circle class="w" cx="4" cy="4" r="4"/><circle class="s" cx="4" cy="4" r="3"/></g><g class="l" transform="translate(296 149.143)"><circle class="w" cx="4" cy="4" r="4"/><circle class="s" cx="4" cy="4" r="3"/></g><g class="l" transform="translate(366 166.143)"><circle class="w" cx="4" cy="4" r="4"/><circle class="s" cx="4" cy="4" r="3"/></g><rect class="a" width="4.66" height="150.925" transform="translate(49.392 130.47)"/><g transform="translate(23.298 82.941)"><text class="m" transform="translate(0 12)"><tspan x="0" y="0">10k</tspan></text><text class="m" transform="translate(21 60.46)"><tspan x="-14.118" y="0">8k</tspan></text><text class="m" transform="translate(21 107.988)"><tspan x="-14.118" y="0">6k</tspan></text><text class="m" transform="translate(21 156.449)"><tspan x="-14.118" y="0">4k</tspan></text></g><g transform="translate(412.843 82.941)"><text class="n" transform="translate(18 12)"><tspan x="-17.862" y="0">0.8</tspan></text><text class="n" transform="translate(18 60.46)"><tspan x="-17.862" y="0">0.6</tspan></text><text class="n" transform="translate(18 107.988)"><tspan x="-17.862" y="0">0.4</tspan></text><text class="n" transform="translate(18 156.449)"><tspan x="-17.862" y="0">0.2</tspan></text></g><g transform="translate(54.518 60.109)"><line class="o" y1="222.73"/><line class="o" y1="222.73" transform="translate(350.404)"/><g transform="translate(3.728 32.151)"><line class="p" x2="4.66"/><line class="p" x2="4.66" transform="translate(9.319)"/><line class="p" x2="4.66" transform="translate(18.639)"/><line class="p" x2="4.66" transform="translate(27.958)"/><line class="p" x2="4.66" transform="translate(37.277)"/><line class="p" x2="4.66" transform="translate(46.596)"/><line class="p" x2="4.66" transform="translate(55.916)"/><line class="p" x2="4.66" transform="translate(65.235)"/><line class="p" x2="4.66" transform="translate(74.554)"/><line class="p" x2="4.66" transform="translate(83.873)"/><line class="p" x2="4.66" transform="translate(93.193)"/><line class="p" x2="4.66" transform="translate(102.512)"/><line class="p" x2="4.66" transform="translate(111.831)"/><line class="p" x2="4.66" transform="translate(121.15)"/><line class="p" x2="4.66" transform="translate(130.47)"/><line class="p" x2="4.66" transform="translate(139.789)"/><line class="p" x2="4.66" transform="translate(149.108)"/><line class="p" x2="4.66" transform="translate(158.427)"/><line class="p" x2="4.66" transform="translate(167.747)"/><line class="p" x2="4.66" transform="translate(177.066)"/><line class="p" x2="4.66" transform="translate(186.385)"/><line class="p" x2="4.66" transform="translate(195.705)"/><line class="p" x2="4.66" transform="translate(205.024)"/><line class="p" x2="4.66" transform="translate(214.343)"/><line class="p" x2="4.66" transform="translate(223.662)"/><line class="p" x2="4.66" transform="translate(232.982)"/><line class="p" x2="4.66" transform="translate(242.301)"/><line class="p" x2="4.66" transform="translate(251.62)"/><line class="p" x2="4.66" transform="translate(260.939)"/><line class="p" x2="4.66" transform="translate(270.259)"/><line class="p" x2="4.66" transform="translate(279.578)"/><line class="p" x2="4.66" transform="translate(288.897)"/><line class="p" x2="4.66" transform="translate(298.216)"/><line class="p" x2="4.66" transform="translate(307.536)"/><line class="p" x2="4.66" transform="translate(316.855)"/><line class="p" x2="4.66" transform="translate(326.174)"/><line class="p" x2="4.66" transform="translate(335.493)"/></g><g transform="translate(3.728 79.68)"><line class="p" x2="4.66"/><line class="p" x2="4.66" transform="translate(9.319)"/><line class="p" x2="4.66" transform="translate(18.639)"/><line class="p" x2="4.66" transform="translate(27.958)"/><line class="p" x2="4.66" transform="translate(37.277)"/><line class="p" x2="4.66" transform="translate(46.596)"/><line class="p" x2="4.66" transform="translate(55.916)"/><line class="p" x2="4.66" transform="translate(65.235)"/><line class="p" x2="4.66" transform="translate(74.554)"/><line class="p" x2="4.66" transform="translate(83.873)"/><line class="p" x2="4.66" transform="translate(93.193)"/><line class="p" x2="4.66" transform="translate(102.512)"/><line class="p" x2="4.66" transform="translate(111.831)"/><line class="p" x2="4.66" transform="translate(121.15)"/><line class="p" x2="4.66" transform="translate(130.47)"/><line class="p" x2="4.66" transform="translate(139.789)"/><line class="p" x2="4.66" transform="translate(149.108)"/><line class="p" x2="4.66" transform="translate(158.427)"/><line class="p" x2="4.66" transform="translate(167.747)"/><line class="p" x2="4.66" transform="translate(177.066)"/><line class="p" x2="4.66" transform="translate(186.385)"/><line class="p" x2="4.66" transform="translate(195.705)"/><line class="p" x2="4.66" transform="translate(205.024)"/><line class="p" x2="4.66" transform="translate(214.343)"/><line class="p" x2="4.66" transform="translate(223.662)"/><line class="p" x2="4.66" transform="translate(232.982)"/><line class="p" x2="4.66" transform="translate(242.301)"/><line class="p" x2="4.66" transform="translate(251.62)"/><line class="p" x2="4.66" transform="translate(260.939)"/><line class="p" x2="4.66" transform="translate(270.259)"/><line class="p" x2="4.66" transform="translate(279.578)"/><line class="p" x2="4.66" transform="translate(288.897)"/><line class="p" x2="4.66" transform="translate(298.216)"/><line class="p" x2="4.66" transform="translate(307.536)"/><line class="p" x2="4.66" transform="translate(316.855)"/><line class="p" x2="4.66" transform="translate(326.174)"/><line class="p" x2="4.66" transform="translate(335.493)"/></g><g transform="translate(3.728 128.14)"><line class="p" x2="4.66"/><line class="p" x2="4.66" transform="translate(9.319)"/><line class="p" x2="4.66" transform="translate(18.639)"/><line class="p" x2="4.66" transform="translate(27.958)"/><line class="p" x2="4.66" transform="translate(37.277)"/><line class="p" x2="4.66" transform="translate(46.596)"/><line class="p" x2="4.66" transform="translate(55.916)"/><line class="p" x2="4.66" transform="translate(65.235)"/><line class="p" x2="4.66" transform="translate(74.554)"/><line class="p" x2="4.66" transform="translate(83.873)"/><line class="p" x2="4.66" transform="translate(93.193)"/><line class="p" x2="4.66" transform="translate(102.512)"/><line class="p" x2="4.66" transform="translate(111.831)"/><line class="p" x2="4.66" transform="translate(121.15)"/><line class="p" x2="4.66" transform="translate(130.47)"/><line class="p" x2="4.66" transform="translate(139.789)"/><line class="p" x2="4.66" transform="translate(149.108)"/><line class="p" x2="4.66" transform="translate(158.427)"/><line class="p" x2="4.66" transform="translate(167.747)"/><line class="p" x2="4.66" transform="translate(177.066)"/><line class="p" x2="4.66" transform="translate(186.385)"/><line class="p" x2="4.66" transform="translate(195.705)"/><line class="p" x2="4.66" transform="translate(205.024)"/><line class="p" x2="4.66" transform="translate(214.343)"/><line class="p" x2="4.66" transform="translate(223.662)"/><line class="p" x2="4.66" transform="translate(232.982)"/><line class="p" x2="4.66" transform="translate(242.301)"/><line class="p" x2="4.66" transform="translate(251.62)"/><line class="p" x2="4.66" transform="translate(260.939)"/><line class="p" x2="4.66" transform="translate(270.259)"/><line class="p" x2="4.66" transform="translate(279.578)"/><line class="p" x2="4.66" transform="translate(288.897)"/><line class="p" x2="4.66" transform="translate(298.216)"/><line class="p" x2="4.66" transform="translate(307.536)"/><line class="p" x2="4.66" transform="translate(316.855)"/><line class="p" x2="4.66" transform="translate(326.174)"/><line class="p" x2="4.66" transform="translate(335.493)"/></g><g transform="translate(3.728 176.6)"><line class="p" x2="4.66"/><line class="p" x2="4.66" transform="translate(9.319)"/><line class="p" x2="4.66" transform="translate(18.639)"/><line class="p" x2="4.66" transform="translate(27.958)"/><line class="p" x2="4.66" transform="translate(37.277)"/><line class="p" x2="4.66" transform="translate(46.596)"/><line class="p" x2="4.66" transform="translate(55.916)"/><line class="p" x2="4.66" transform="translate(65.235)"/><line class="p" x2="4.66" transform="translate(74.554)"/><line class="p" x2="4.66" transform="translate(83.873)"/><line class="p" x2="4.66" transform="translate(93.193)"/><line class="p" x2="4.66" transform="translate(102.512)"/><line class="p" x2="4.66" transform="translate(111.831)"/><line class="p" x2="4.66" transform="translate(121.15)"/><line class="p" x2="4.66" transform="translate(130.47)"/><line class="p" x2="4.66" transform="translate(139.789)"/><line class="p" x2="4.66" transform="translate(149.108)"/><line class="p" x2="4.66" transform="translate(158.427)"/><line class="p" x2="4.66" transform="translate(167.747)"/><line class="p" x2="4.66" transform="translate(177.066)"/><line class="p" x2="4.66" transform="translate(186.385)"/><line class="p" x2="4.66" transform="translate(195.705)"/><line class="p" x2="4.66" transform="translate(205.024)"/><line class="p" x2="4.66" transform="translate(214.343)"/><line class="p" x2="4.66" transform="translate(223.662)"/><line class="p" x2="4.66" transform="translate(232.982)"/><line class="p" x2="4.66" transform="translate(242.301)"/><line class="p" x2="4.66" transform="translate(251.62)"/><line class="p" x2="4.66" transform="translate(260.939)"/><line class="p" x2="4.66" transform="translate(270.259)"/><line class="p" x2="4.66" transform="translate(279.578)"/><line class="p" x2="4.66" transform="translate(288.897)"/><line class="p" x2="4.66" transform="translate(298.216)"/><line class="p" x2="4.66" transform="translate(307.536)"/><line class="p" x2="4.66" transform="translate(316.855)"/><line class="p" x2="4.66" transform="translate(326.174)"/><line class="p" x2="4.66" transform="translate(335.493)"/></g></g><g transform="translate(22.832 282.84)"><text class="q" transform="translate(31.696 15.262)"><tspan x="-7.332" y="0">00</tspan></text><text class="q" transform="translate(67.109 15.262)"><tspan x="-7.332" y="0">02</tspan></text><text class="q" transform="translate(101.591 15.262)"><tspan x="-7.332" y="0">04</tspan></text><text class="q" transform="translate(137.004 15.262)"><tspan x="-7.332" y="0">06</tspan></text><text class="q" transform="translate(171.485 15.262)"><tspan x="-7.332" y="0">08</tspan></text><text class="q" transform="translate(206.898 15.262)"><tspan x="-7.332" y="0">10</tspan></text><text class="q" transform="translate(242.311 15.262)"><tspan x="-7.332" y="0">12</tspan></text><text class="q" transform="translate(276.793 15.262)"><tspan x="-7.332" y="0">14</tspan></text><text class="q" transform="translate(312.206 15.262)"><tspan x="-7.332" y="0">16</tspan></text><text class="q" transform="translate(346.687 15.262)"><tspan x="-7.332" y="0">18</tspan></text><text class="q" transform="translate(382.1 15.262)"><tspan x="-7.332" y="0">20</tspan></text><line class="p" x2="409.116"/></g><line class="p" x2="409.116" transform="translate(22.832 60.109)"/></g><g transform="translate(280.416 19.117)"><text class="r" transform="translate(32.685 15.796)"><tspan x="0" y="0">Export to CSV</tspan></text><g transform="translate(120 1)"><path class="s" d="M0,0H20V20H0Z"/><g transform="translate(2.5 2.501)"><path class="t" d="M17.167,3H4.667A1.672,1.672,0,0,0,3,4.667V16.336A1.672,1.672,0,0,0,4.667,18h12.5a1.672,1.672,0,0,0,1.667-1.667V4.667A1.672,1.672,0,0,0,17.167,3Zm0,1.667v2.5H4.667v-2.5ZM13,16.336H8.833v-7.5H13Zm-8.333-7.5h2.5v7.5h-2.5Zm10,7.5v-7.5h2.5v7.5Z" transform="translate(-3 -3)"/></g></g></g><line class="p" x2="454" transform="translate(0.5 118.643)"/><g transform="translate(-4)"><rect class="u" width="142" height="28" rx="14" transform="translate(88 136.143)"/><g class="aa" transform="matrix(1, 0, 0, 1, 4, 0)"><text class="v" transform="translate(96 154.14)"><tspan x="0" y="0">Channel: Twitter</tspan></text></g><g class="z" transform="matrix(1, 0, 0, 1, 4, 0)"><path class="a" d="M7408.95-12257.494l-2.828,2.828-1.416-1.413,2.829-2.829-2.829-2.827,1.416-1.416,2.828,2.829,2.829-2.829,1.413,1.416-2.828,2.827,2.828,2.829-1.413,1.413Z" transform="translate(-7201 12409)"/></g></g><g transform="translate(3)"><rect class="u" width="130" height="28" rx="14" transform="translate(233 136.143)"/><g class="y" transform="matrix(1, 0, 0, 1, -3, 0)"><text class="v" transform="translate(248 154.14)"><tspan x="0" y="0">Device: Phone</tspan></text></g><g class="x" transform="matrix(1, 0, 0, 1, -3, 0)"><path class="a" d="M7408.95-12257.494l-2.828,2.828-1.416-1.413,2.829-2.829-2.829-2.827,1.416-1.416,2.828,2.829,2.829-2.829,1.413,1.416-2.828,2.827,2.828,2.829-1.413,1.413Z" transform="translate(-7061 12409)"/></g></g></g></svg>