<svg xmlns="http://www.w3.org/2000/svg" xmlns:xlink="http://www.w3.org/1999/xlink" viewBox="10333 3864.5 522.702 159.4"><defs><style>.a{fill:none;stroke-miterlimit:10;stroke:#96b7e1;stroke-linecap:round}.d{fill:#96b7e1}</style><linearGradient id="a" x1="-23.896" y1="4.026" x2="-22.9" y2="4.026" gradientUnits="objectBoundingBox"><stop offset="0" stop-color="#239b6a"/><stop offset="1" stop-color="#4ccd9b"/></linearGradient><linearGradient id="b" x1=".001" y1=".501" x2="1.002" y2=".501" gradientUnits="objectBoundingBox"><stop offset="0" stop-color="#4263eb"/><stop offset="1" stop-color="#1f46e7"/></linearGradient><linearGradient id="c" x1=".006" y1=".492" x2=".989" y2=".492" xlink:href="#a"/><linearGradient id="d" x1=".002" y1=".493" x2="1.007" y2=".493" xlink:href="#b"/><linearGradient id="e" x1=".002" y1=".49" x2="1.007" y2=".49" xlink:href="#b"/><linearGradient id="f" x1=".003" y1=".498" x2="1.002" y2=".498" xlink:href="#b"/><linearGradient id="g" x1="-.005" y1=".498" x2=".998" y2=".498" gradientUnits="objectBoundingBox"><stop offset="0" stop-color="#ff6e2a"/><stop offset="1" stop-color="#ffa12a"/></linearGradient><linearGradient id="h" x1="-11.556" y1="-11.777" x2="-10.556" y2="-11.777" xlink:href="#g"/><linearGradient id="i" x1="-8.648" y1="-10.684" x2="-7.636" y2="-10.684" xlink:href="#a"/><linearGradient id="j" x1="13.565" y1="4.009" x2="14.561" y2="4.009" xlink:href="#b"/><linearGradient id="k" x1="-.196" y1=".665" x2=".805" y2=".665" xlink:href="#a"/><linearGradient id="l" x1="-1.325" y1="1.616" x2="-.32" y2="1.616" xlink:href="#g"/><linearGradient id="m" x1="11.927" y1="1.987" x2="12.933" y2="1.987" xlink:href="#g"/><linearGradient id="n" x1="11.917" y1="4.948" x2="12.923" y2="4.948" xlink:href="#g"/></defs><g transform="translate(10309.002 3852.1)"><path class="a" d="M534.6 80.1h-53.2a9.444 9.444 0 0 1-6.9-2.9l-24.4-24.4a9.851 9.851 0 0 0-6.9-2.9h-26.7m125.6-37h-90.6a19.747 19.747 0 0 0-14 5.8L414.1 42"/><circle cx="26.1" cy="26.1" r="26.1" transform="translate(363.3 23.9)" stroke-width="2" stroke="#bdd1eb" fill="none" stroke-miterlimit="10"/><circle cx="8" cy="8" r="8" transform="translate(381.4 42)" fill="url(#a)"/><circle class="a" cx="16.7" cy="16.7" r="16.7" transform="translate(372.7 33.3)"/><path class="a" d="M326.1 50h37.2"/><circle class="d" cx="5.1" cy="5.1" r="5.1" transform="translate(319.2 44.9)"/><path class="a" d="M435.4 78.3l6.7 6.7a9.465 9.465 0 0 0 6.7 2.8h75.3m-57.8 8H530"/><circle class="d" cx="5.1" cy="5.1" r="5.1" transform="translate(430.3 73.2)"/><path class="a" d="M157.2 83.3h163"/><circle class="d" cx="4.9" cy="4.9" r="4.9" transform="translate(149.3 78.4)"/><circle class="d" cx="4.9" cy="4.9" r="4.9" transform="translate(187.7 56.7)"/><path class="a" d="M196.6 61.6H250a8.433 8.433 0 0 1 5.8 2.4l19 19m271.4 77.6h-74.1a13.7 13.7 0 0 1-9.7-4l-33.9-33.9a13.528 13.528 0 0 0-9.7-4h-37.2m-125.8-.1h51.8"/><circle cx="36.3" cy="36.3" r="36.3" transform="translate(307.6 82.3)" stroke="#a0bde3" stroke-width="2" fill="none" stroke-miterlimit="10"/><circle cx="11.1" cy="11.1" r="11.1" transform="translate(332.8 107.5)" fill="url(#b)"/><circle class="a" cx="23.2" cy="23.2" r="23.2" transform="translate(320.7 95.4)"/><circle class="d" cx="7.1" cy="7.1" r="7.1" transform="translate(246.1 111.5)"/><path class="a" d="M394.4 107.5h26a18.129 18.129 0 0 1 12.6 5.2l31.6 31.6a17.774 17.774 0 0 0 12.6 5.2H503m-95 8.5l9.4 9.4a13.327 13.327 0 0 0 9.4 3.9h104.9m-314.4-99H264"/><circle class="d" cx="7.1" cy="7.1" r="7.1" transform="translate(400.9 150.9)"/><path class="a" d="M306.3 94h-73.9a3.864 3.864 0 0 0-2.7 1.1l-12.4 12.4a6.224 6.224 0 0 1-4.3 1.8h-39.4"/><path class="a" d="M240.7 94l-21.9 21.9a6.224 6.224 0 0 1-4.3 1.8h-40.8"/><path d="M244.1 27.2a.283.283 0 0 0 0 .5l2.1 1.2 2.1 1.2c.2.1.4 0 .4-.2v-4.8c0-.2-.2-.3-.4-.2l-2.1 1.2z" fill="url(#c)"/><path class="a" d="M202.3 31.9h16.5a1.9 1.9 0 0 0 1.3-.5l3.7-3.7"/><path class="d" d="M225.4 28h11.5l15.3 8.7V18.2l-15.3 8.7h-44.5a2.786 2.786 0 0 0-5.4 0h-.1V28h.1a2.786 2.786 0 0 0 5.4 0h31.4M204 31.3a1.743 1.743 0 0 0-1.7-1.2 1.8 1.8 0 1 0 0 3.6 1.743 1.743 0 0 0 1.7-1.2m47 2.3l-12.9-7.3 12.9-7.3z"/><circle class="d" cx="2.8" cy="2.8" r="2.8" transform="translate(171.1 106.4)"/><circle class="d" cx="2.8" cy="2.8" r="2.8" transform="translate(169.3 114.8)"/><path d="M482.3 48.9a.481.481 0 0 0-.4.7l1.8 3.3 1.8 3.3a.468.468 0 0 0 .8 0l1.9-3.2 1.9-3.2a.449.449 0 0 0-.4-.7L486 49z" fill="url(#d)"/><path d="M482.3 38.1a.481.481 0 0 0-.4.7l1.8 3.3 1.8 3.3a.468.468 0 0 0 .8 0l1.9-3.2 1.9-3.2a.449.449 0 0 0-.4-.7l-3.7-.1z" fill="url(#e)"/><path d="M302.2 33.7a1.455 1.455 0 0 0 .1-2.5l-7.3-4.3-7.3-4.4a1.431 1.431 0 0 0-2.2 1.2l-.2 8.4-.2 8.4a1.508 1.508 0 0 0 2.2 1.3l7.5-4.1z" fill="url(#f)"/><path d="M527.4 123.8v-7.2a1.149 1.149 0 0 0-.6-1.1l-6.4-3.6a1.271 1.271 0 0 0-1.2 0l-6.4 3.6a1.149 1.149 0 0 0-.6 1.1v7.2a1.255 1.255 0 0 0 .6 1.1l6.4 3.6a1.271 1.271 0 0 0 1.2 0l6.4-3.6a1.738 1.738 0 0 0 .6-1.1z" fill="url(#g)"/><path d="M271.6 149.3a6.3 6.3 0 0 0 0 12.6 6.3 6.3 0 1 0 0-12.6z" fill="url(#h)"/><path d="M245.1 154.7a.667.667 0 0 0 0 1.2l5.3 3.2 5.3 3.2a.633.633 0 0 0 1-.6l.1-6.2.1-6.2c0-.5-.6-.9-1-.6l-5.5 3z" fill="url(#i)"/><path d="M46.8 32.6v10.2a1.387 1.387 0 0 0 .7 1.2l9 5.1a1.708 1.708 0 0 0 1.4 0l9-5.1a1.525 1.525 0 0 0 .7-1.2V32.6a1.387 1.387 0 0 0-.7-1.2l-9-5.1a1.708 1.708 0 0 0-1.4 0l-9 5.1a1.387 1.387 0 0 0-.7 1.2z" fill="url(#j)"/><path class="a" d="M542.1 22.3h-87.8a18.89 18.89 0 0 0-13.1 5.4L418.9 50"/><circle class="d" cx="2.9" cy="2.9" r="2.9" transform="translate(460.6 92.9)"/><circle class="a" cx="42.2" cy="42.2" r="42.2" transform="translate(57.3 65.8)"/><path class="a" d="M49.9 87a53.754 53.754 0 0 1 49.6-33 52.506 52.506 0 0 1 16 2.4m-16 105.5A53.859 53.859 0 0 1 45.6 108"/><path d="M99.5 136.4A28.4 28.4 0 1 0 71.1 108a28.381 28.381 0 0 0 28.4 28.4zm0-53A24.6 24.6 0 1 1 75 108a24.582 24.582 0 0 1 24.5-24.6z" fill="url(#k)"/><circle cx="4.2" cy="4.2" r="4.2" transform="translate(95.3 103.8)" fill="url(#l)"/><circle class="d" cx="4.2" cy="4.2" r="4.2" transform="translate(135.4 143.1)"/><path class="a" d="M71.1 139.1l-27.8 27.8m84.6-90.1l16-16a10.224 10.224 0 0 1 7.2-3h25.2"/><path class="a" d="M174.9 50.9h-26.7a9.444 9.444 0 0 0-6.9 2.9l-18.7 18.7m49.6-28.6h-18.9"/><path d="M26.3 105.9l2.2 4a.8.8 0 0 0 1.4 0l2.4-3.9 2.4-3.9a.785.785 0 0 0-.7-1.2l-4.6-.1-4.6-.1a.818.818 0 0 0-.7 1.2z" fill="url(#m)"/><path d="M32.4 91.8l2.4-3.9a.785.785 0 0 0-.7-1.2l-4.6-.1-4.6-.1a.818.818 0 0 0-.7 1.2l2.2 4 2.2 4a.8.8 0 0 0 1.4 0z" fill="url(#n)"/><path class="a" d="M216.9 139.1h-89m47 0l-7.2 7.2a3.1 3.1 0 0 1-2.2.9h-23.8"/><circle class="d" cx="4.2" cy="4.2" r="4.2" transform="translate(146.4 39.7)"/><circle class="d" cx="2.4" cy="2.4" r="2.4" transform="translate(113.2 54.1)"/><circle class="d" cx="2.4" cy="2.4" r="2.4" transform="translate(97.1 159.5)"/><circle class="d" cx="2.4" cy="2.4" r="2.4" transform="translate(47.5 93.6)"/><circle class="d" cx="2.4" cy="2.4" r="2.4" transform="translate(43.2 105.6)"/><circle class="d" cx="4.2" cy="4.2" r="4.2" transform="translate(39.1 162.7)"/></g></svg>