<svg xmlns="http://www.w3.org/2000/svg" xmlns:xlink="http://www.w3.org/1999/xlink" viewBox="0 0 520 260"><defs><style>.cls-1{fill:#fff;}.cls-2{fill:#d9edf6;}.cls-14,.cls-21,.cls-22,.cls-3,.cls-5,.cls-6{fill-rule:evenodd;}.cls-3{fill:url(#linear-gradient);}.cls-13,.cls-4{fill:none;stroke-miterlimit:10;}.cls-4{stroke:#fff;stroke-linecap:round;stroke-width:0.9px;}.cls-5{fill:url(#linear-gradient-2);}.cls-6{fill:url(#linear-gradient-3);}.cls-21,.cls-7{fill:#f2751c;}.cls-8{fill:url(#linear-gradient-4);}.cls-9{fill:#ffc400;}.cls-10{fill:url(#linear-gradient-5);}.cls-11{fill:url(#linear-gradient-6);}.cls-12{fill:url(#linear-gradient-7);}.cls-13{stroke:#1f46e7;}.cls-14{fill:url(#linear-gradient-8);}.cls-15{fill:#4ccd9b;}.cls-16{fill:#239b6a;}.cls-17{fill:url(#linear-gradient-9);}.cls-18{fill:#96b7e1;}.cls-19{fill:url(#linear-gradient-10);}.cls-20{fill:#1f46e7;}.cls-22{fill:url(#linear-gradient-11);}.cls-23{fill:url(#linear-gradient-12);}.cls-24{fill:url(#linear-gradient-13);}.cls-25{fill:url(#linear-gradient-14);}</style><linearGradient id="linear-gradient" x1="24.06" y1="118.38" x2="79.54" y2="118.38" gradientUnits="userSpaceOnUse"><stop offset="0" stop-color="#4263eb"/><stop offset="1" stop-color="#1f46e7"/></linearGradient><linearGradient id="linear-gradient-2" x1="414.9" y1="184.88" x2="470.37" y2="184.88" xlink:href="#linear-gradient"/><linearGradient id="linear-gradient-3" x1="416.83" y1="175.38" x2="416.83" y2="128.38" gradientUnits="userSpaceOnUse"><stop offset="0" stop-color="#f2751c"/><stop offset="1" stop-color="#ffc400"/></linearGradient><linearGradient id="linear-gradient-4" x1="75.83" y1="189.41" x2="121.76" y2="189.41" gradientUnits="userSpaceOnUse"><stop offset="0" stop-color="#ff9a01"/><stop offset="1" stop-color="#ffc400"/></linearGradient><linearGradient id="linear-gradient-5" x1="75.83" y1="212.37" x2="121.76" y2="212.37" xlink:href="#linear-gradient-4"/><linearGradient id="linear-gradient-6" x1="28.82" y1="212.37" x2="98.8" y2="212.37" xlink:href="#linear-gradient-4"/><linearGradient id="linear-gradient-7" x1="57.61" y1="212.37" x2="98.8" y2="212.37" xlink:href="#linear-gradient-3"/><linearGradient id="linear-gradient-8" x1="126.08" y1="162.31" x2="191.49" y2="162.31" gradientUnits="userSpaceOnUse"><stop offset="0" stop-color="#239b6a"/><stop offset="1" stop-color="#4ccd9b"/></linearGradient><linearGradient id="linear-gradient-9" x1="423.2" y1="56.32" x2="423.2" y2="38.79" gradientUnits="userSpaceOnUse"><stop offset="0" stop-color="#4ccd9b"/><stop offset="1" stop-color="#239b6a"/></linearGradient><linearGradient id="linear-gradient-10" x1="161.36" y1="85.56" x2="161.36" y2="56.53" xlink:href="#linear-gradient-3"/><linearGradient id="linear-gradient-11" x1="262.1" y1="181.3" x2="262.1" y2="101.5" xlink:href="#linear-gradient-3"/><linearGradient id="linear-gradient-12" x1="316.66" y1="175.56" x2="323.91" y2="175.56" xlink:href="#linear-gradient"/><linearGradient id="linear-gradient-13" x1="327.2" y1="175.56" x2="334.45" y2="175.56" xlink:href="#linear-gradient"/><linearGradient id="linear-gradient-14" x1="337.73" y1="175.56" x2="344.98" y2="175.56" xlink:href="#linear-gradient"/></defs><title>adv-3</title><g id="bg"><rect class="cls-1" width="520" height="260"/></g><g id="cloud"><path class="cls-2" d="M454.39,202.29c24.29-18.31,34.21-45.82,33.34-73.1-.79-24.51-12-59.18-31.78-80.9-15.39-16.94-42.77-24.25-72-18C349.39,38.54,323.53,71,283,85.46a157.31,157.31,0,0,1-25.7,3.72C220.61,91.6,187.41,77,154.21,62.4,116.09,45.56,85,37.27,56.67,67.59c-36.89,40.43-32.82,114.89,17.6,143,51.65,29.19,100-17.12,146.74-41.83,8.61-3.37,18.44-4.49,27.4-5.19a106.2,106.2,0,0,1,33.18,5.22c8.12,2.45,43.35,20,52.55,25.88C370.18,217.65,419.26,228.27,454.39,202.29Z"/><path class="cls-2" d="M246.35,56.89c0,6.15-16.51,17.89-24.91,17.82s-18.54-1.46-18.53-7.6,9.94-16.59,18.15-18.32C230.3,46.84,246.36,50.74,246.35,56.89Z"/><path class="cls-2" d="M297.57,197c1.13,12.24-5.82,21-18.88,22.77-5.86.81-11.67-1.94-15.56-6.8-5.84-9.73,1.94-20.43,10.69-24.32S296.84,189.37,297.57,197Z"/><path class="cls-2" d="M279.4,51.4c0,2.59-3.4,4.91-5.82,5.84-3.83,1.48-11.12,1.57-11.67-1.15-.61-3,1-6.85,8.74-9.39C275.2,45.22,279.4,48.81,279.4,51.4Z"/></g><g id="_01" data-name="01"><path class="cls-3" d="M76.2,94.89H27.4a3.33,3.33,0,0,0-3.34,3.33v33.09a3.34,3.34,0,0,0,3.34,3.34H70.61l6.89,6.88a1.2,1.2,0,0,0,2-.85V98.22A3.33,3.33,0,0,0,76.2,94.89Z"/><line class="cls-4" x1="69.11" y1="105.41" x2="72.34" y2="105.41"/><line class="cls-4" x1="32.34" y1="105.41" x2="64.48" y2="105.41"/><line class="cls-4" x1="63.99" y1="110.12" x2="72.34" y2="110.12"/><line class="cls-4" x1="32.34" y1="110.12" x2="59.92" y2="110.12"/><line class="cls-4" x1="48.77" y1="114.82" x2="72.34" y2="114.82"/><line class="cls-4" x1="32.34" y1="114.82" x2="36.62" y2="114.82"/><line class="cls-4" x1="65.94" y1="119.53" x2="72.34" y2="119.53"/><line class="cls-4" x1="32.34" y1="119.53" x2="60.57" y2="119.53"/><line class="cls-4" x1="32.34" y1="124.24" x2="66.85" y2="124.24"/></g><g id="_02" data-name="02"><path class="cls-5" d="M467,161.38H418.23a3.33,3.33,0,0,0-3.33,3.33v33.1a3.33,3.33,0,0,0,3.33,3.33h43.22l6.88,6.88a1.2,1.2,0,0,0,2-.84V164.71A3.33,3.33,0,0,0,467,161.38Z"/><line class="cls-4" x1="459.94" y1="171.9" x2="463.18" y2="171.9"/><line class="cls-4" x1="423.18" y1="171.9" x2="455.31" y2="171.9"/><line class="cls-4" x1="454.82" y1="176.61" x2="463.18" y2="176.61"/><line class="cls-4" x1="423.18" y1="176.61" x2="450.75" y2="176.61"/><line class="cls-4" x1="439.61" y1="181.32" x2="463.18" y2="181.32"/><line class="cls-4" x1="423.18" y1="181.32" x2="427.45" y2="181.32"/><line class="cls-4" x1="456.77" y1="186.02" x2="463.18" y2="186.02"/><line class="cls-4" x1="423.18" y1="186.02" x2="451.41" y2="186.02"/><line class="cls-4" x1="423.18" y1="190.73" x2="457.69" y2="190.73"/><path class="cls-6" d="M392.43,175.38h48.81a3.33,3.33,0,0,0,3.33-3.33V139a3.33,3.33,0,0,0-3.33-3.33H398l-6.88-6.88a1.2,1.2,0,0,0-2.05.84v42.47A3.34,3.34,0,0,0,392.43,175.38Z"/><line class="cls-4" x1="396.72" y1="146.03" x2="436.72" y2="146.03"/><line class="cls-4" x1="433.07" y1="151.12" x2="436.72" y2="151.12"/><line class="cls-4" x1="396.72" y1="151.12" x2="429.59" y2="151.12"/><line class="cls-4" x1="411.65" y1="156.21" x2="434.03" y2="156.21"/><line class="cls-4" x1="396.72" y1="156.21" x2="403.68" y2="156.21"/><line class="cls-4" x1="428.37" y1="161.29" x2="436.72" y2="161.29"/><line class="cls-4" x1="396.72" y1="161.29" x2="424.59" y2="161.29"/><line class="cls-4" x1="396.72" y1="166.38" x2="428.86" y2="166.38"/></g><g id="_03" data-name="03"><rect class="cls-1" x="62.3" y="173.14" width="73" height="55.5"/><path class="cls-7" d="M98.8,177.92v7.75a15.22,15.22,0,0,1,0,30.44v7.75a23,23,0,0,0,0-45.94Z"/><path class="cls-8" d="M98.8,185.67v-7.75a23,23,0,0,0-23,23h7.75A15.22,15.22,0,0,1,98.8,185.67Z"/><path class="cls-9" d="M98.8,185.67v-7.75a23,23,0,0,0-23,23h7.75A15.22,15.22,0,0,1,98.8,185.67Z"/><path class="cls-10" d="M98.8,223.86v-7.75a15.22,15.22,0,0,1-15.22-15.22H75.83A23,23,0,0,0,98.8,223.86Z"/><path class="cls-11" d="M98.8,223.86v-7.75a15.22,15.22,0,0,1-15.22-15.22H75.83A23,23,0,0,0,98.8,223.86Z"/><path class="cls-12" d="M98.8,223.86v-7.75a15.22,15.22,0,0,1-15.22-15.22H75.83A23,23,0,0,0,98.8,223.86Z"/><path class="cls-13" d="M61.5,173v53.5a3,3,0,0,0,3,3H126"/></g><g id="_04" data-name="04"><path class="cls-14" d="M127.22,182.22h60.93a3.34,3.34,0,0,0,3.34-3.34V145.74a3.33,3.33,0,0,0-3.34-3.34H139.27a3.34,3.34,0,0,0-3.34,3.34v25.59l-9.49,8.92A1.14,1.14,0,0,0,127.22,182.22Z"/><line class="cls-4" x1="178.93" y1="151.11" x2="183.38" y2="151.11"/><line class="cls-4" x1="172.59" y1="151.11" x2="176.68" y2="151.11"/><line class="cls-4" x1="143.38" y1="151.11" x2="170.3" y2="151.11"/><line class="cls-4" x1="143.38" y1="156.21" x2="183.38" y2="156.21"/><line class="cls-4" x1="143.38" y1="161.31" x2="175.03" y2="161.31"/><line class="cls-4" x1="174.63" y1="166.41" x2="183.38" y2="166.41"/><line class="cls-4" x1="157.1" y1="166.41" x2="171.25" y2="166.41"/><line class="cls-4" x1="143.38" y1="166.41" x2="150.89" y2="166.41"/><line class="cls-4" x1="175.52" y1="171.5" x2="183.38" y2="171.5"/><line class="cls-4" x1="159.21" y1="171.5" x2="172.59" y2="171.5"/><line class="cls-4" x1="143.38" y1="171.5" x2="154.36" y2="171.5"/></g><g id="_05" data-name="05"><rect class="cls-1" x="396.73" y="24.13" width="87.62" height="64.56"/><path class="cls-13" d="M396.73,24.13h85.13a2.49,2.49,0,0,1,2.49,2.48v59.6a2.49,2.49,0,0,1-2.49,2.48H466.31"/><path class="cls-15" d="M429.94,67.87,423.77,74A24.92,24.92,0,0,0,459,74l-6.16-6.16A16.21,16.21,0,0,1,429.94,67.87Z"/><path class="cls-16" d="M453.29,44.51l5.26-5.26a.64.64,0,0,0,0-.92,24.83,24.83,0,0,0-17.07-6.84v8.72a16.18,16.18,0,0,1,10.93,4.31A.64.64,0,0,0,453.29,44.51Z"/><path class="cls-16" d="M423.77,74l6.17-6.16a16.16,16.16,0,0,1-4.75-11.55h-8.72A24.85,24.85,0,0,0,423.77,74Z"/><path class="cls-15" d="M429.94,45a16.15,16.15,0,0,1,11.53-4.74V31.49a24.84,24.84,0,0,0-17.7,7.3h0L429.94,45Z"/><path class="cls-16" d="M452.85,67.87a16.15,16.15,0,0,0,4.74-11.05.49.49,0,0,1,.49-.49h7.73a.5.5,0,0,1,.5.51A24.85,24.85,0,0,1,459,74h0l-6.16-6.16Z"/><path class="cls-17" d="M425.19,56.32A16.11,16.11,0,0,1,429.94,45l-6.17-6.16a24.83,24.83,0,0,0-7.3,17.53Z"/></g><g id="_06" data-name="06"><rect class="cls-1" x="101.61" y="34.7" width="87.61" height="61.22"/><path class="cls-13" d="M189.21,95.93V36.55a1.84,1.84,0,0,0-1.84-1.85H103.45a1.84,1.84,0,0,0-1.84,1.85v23"/><rect class="cls-9" x="112.56" y="55.56" width="8" height="30"/><rect class="cls-7" x="127.45" y="48.28" width="8" height="37.28"/><rect class="cls-18" x="142.41" y="63.78" width="8" height="21.78"/><rect class="cls-19" x="157.36" y="56.53" width="8" height="29.03"/><rect class="cls-20" x="172.32" y="70.56" width="8" height="15"/></g><g id="_07" data-name="07"><path class="cls-15" d="M264.35,46.8l-.05,87.14a1,1,0,0,0,1,1l61,0a1,1,0,0,0,1.05-1.05l0-71.32L310.57,45.78l-45.17,0A1,1,0,0,0,264.35,46.8Z"/><path class="cls-16" d="M327.44,62.65,310.58,45.78V61.6a1,1,0,0,0,1,1Z"/><path class="cls-1" d="M281.35,89.24A3.57,3.57,0,0,1,285,85.47a3.75,3.75,0,0,1,0,7.5A3.55,3.55,0,0,1,281.35,89.24Z"/><path class="cls-1" d="M291.88,89.24a3.57,3.57,0,0,1,3.65-3.77,3.75,3.75,0,1,1-3.65,3.77Z"/><path class="cls-1" d="M302.42,89.24a3.57,3.57,0,0,1,3.65-3.77,3.75,3.75,0,1,1-3.65,3.77Z"/><path class="cls-18" d="M232.78,68.74l-.05,87.13a1,1,0,0,0,1,1l61,0a1,1,0,0,0,1-1l0-71.32L279,67.72l-45.17,0A1,1,0,0,0,232.78,68.74Z"/><path class="cls-20" d="M295.87,84.59,279,67.72V83.53a1,1,0,0,0,1,1Z"/><path class="cls-1" d="M250.14,109.32a3.56,3.56,0,0,1,3.64-3.76,3.75,3.75,0,1,1-3.64,3.76Z"/><path class="cls-1" d="M260.67,109.32a3.56,3.56,0,0,1,3.65-3.76,3.75,3.75,0,0,1,0,7.49A3.55,3.55,0,0,1,260.67,109.32Z"/><path class="cls-1" d="M271.2,109.32a3.56,3.56,0,0,1,3.65-3.76,3.75,3.75,0,0,1,0,7.49A3.55,3.55,0,0,1,271.2,109.32Z"/><path class="cls-21" d="M269.37,121.3h68.48a2,2,0,0,1,2.07,2.65l-13.67,52.66a7.2,7.2,0,0,1-6.11,4.69H227.79a2,2,0,0,1-2.08-2.65l14.9-57.35Z"/><path class="cls-22" d="M204.87,101.5h19.95a3.71,3.71,0,0,1,3.52,2.85l2.53,9.39a3.72,3.72,0,0,0,3.52,2.86h68.49a3.71,3.71,0,0,1,3.52,2.85l15.27,56.79a3.92,3.92,0,0,1-3.53,5.06H225.79a3.71,3.71,0,0,1-3.53-2.85L202.49,104.9A2.63,2.63,0,0,1,204.87,101.5Z"/><path class="cls-1" d="M302.09,135.82l0,79.44a1,1,0,0,0,.95,1l55.61,0a1,1,0,0,0,.95-1l0-65-15.38-15.38-41.17,0A1,1,0,0,0,302.09,135.82Z"/><path class="cls-13" d="M302.06,189.41v25.85a1,1,0,0,0,.95,1l55.61,0"/><path class="cls-20" d="M359.61,150.27l-15.38-15.38v14.42a1,1,0,0,0,.95.95Z"/><path class="cls-23" d="M316.66,175.58a3.57,3.57,0,0,1,3.65-3.77,3.75,3.75,0,0,1,0,7.49A3.54,3.54,0,0,1,316.66,175.58Z"/><path class="cls-24" d="M327.2,175.58a3.56,3.56,0,0,1,3.64-3.77,3.75,3.75,0,1,1-3.64,3.77Z"/><path class="cls-25" d="M337.73,175.58a3.57,3.57,0,0,1,3.65-3.77,3.75,3.75,0,1,1-3.65,3.77Z"/></g></svg>