<svg xmlns="http://www.w3.org/2000/svg" xmlns:xlink="http://www.w3.org/1999/xlink" viewBox="0 0 520 260"><defs><style>.cls-1{fill:#fff}.cls-2{fill:#d9edf6}.cls-13,.cls-4{fill:none;stroke-miterlimit:10}.cls-4{stroke:#fff;stroke-linecap:round;stroke-width:.9px}.cls-7{fill:#f2751c}.cls-9{fill:#ffc400}.cls-13{stroke:#1f46e7}.cls-15{fill:#4ccd9b}.cls-16{fill:#239b6a}.cls-18{fill:#96b7e1}.cls-20{fill:#1f46e7}</style><linearGradient id="linear-gradient" x1="24.06" y1="118.38" x2="79.54" y2="118.38" gradientUnits="userSpaceOnUse"><stop offset="0" stop-color="#4263eb"/><stop offset="1" stop-color="#1f46e7"/></linearGradient><linearGradient id="linear-gradient-2" x1="414.9" y1="184.88" x2="470.37" y2="184.88" xlink:href="#linear-gradient"/><linearGradient id="linear-gradient-3" x1="416.83" y1="175.38" x2="416.83" y2="128.38" gradientUnits="userSpaceOnUse"><stop offset="0" stop-color="#f2751c"/><stop offset="1" stop-color="#ffc400"/></linearGradient><linearGradient id="linear-gradient-4" x1="75.83" y1="189.41" x2="121.76" y2="189.41" gradientUnits="userSpaceOnUse"><stop offset="0" stop-color="#ff9a01"/><stop offset="1" stop-color="#ffc400"/></linearGradient><linearGradient id="linear-gradient-5" x1="75.83" y1="212.37" x2="121.76" y2="212.37" xlink:href="#linear-gradient-4"/><linearGradient id="linear-gradient-6" x1="28.82" y1="212.37" x2="98.8" y2="212.37" xlink:href="#linear-gradient-4"/><linearGradient id="linear-gradient-7" x1="57.61" y1="212.37" x2="98.8" y2="212.37" xlink:href="#linear-gradient-3"/><linearGradient id="linear-gradient-8" x1="126.08" y1="162.31" x2="191.49" y2="162.31" gradientUnits="userSpaceOnUse"><stop offset="0" stop-color="#239b6a"/><stop offset="1" stop-color="#4ccd9b"/></linearGradient><linearGradient id="linear-gradient-9" x1="423.2" y1="56.32" x2="423.2" y2="38.79" gradientUnits="userSpaceOnUse"><stop offset="0" stop-color="#4ccd9b"/><stop offset="1" stop-color="#239b6a"/></linearGradient><linearGradient id="linear-gradient-10" x1="161.36" y1="85.56" x2="161.36" y2="56.53" xlink:href="#linear-gradient-3"/><linearGradient id="linear-gradient-11" x1="262.1" y1="181.3" x2="262.1" y2="101.5" xlink:href="#linear-gradient-3"/><linearGradient id="linear-gradient-12" x1="316.66" y1="175.56" x2="323.91" y2="175.56" xlink:href="#linear-gradient"/><linearGradient id="linear-gradient-13" x1="327.2" y1="175.56" x2="334.45" y2="175.56" xlink:href="#linear-gradient"/><linearGradient id="linear-gradient-14" x1="337.73" y1="175.56" x2="344.98" y2="175.56" xlink:href="#linear-gradient"/></defs><path class="cls-1" d="M0 0h520v260H0z" id="bg"/><g id="cloud"><path class="cls-2" d="M454.39 202.29c24.29-18.31 34.21-45.82 33.34-73.1-.79-24.51-12-59.18-31.78-80.9-15.39-16.94-42.77-24.25-72-18C349.39 38.54 323.53 71 283 85.46a157.31 157.31 0 0 1-25.7 3.72C220.61 91.6 187.41 77 154.21 62.4 116.09 45.56 85 37.27 56.67 67.59c-36.89 40.43-32.82 114.89 17.6 143 51.65 29.19 100-17.12 146.74-41.83 8.61-3.37 18.44-4.49 27.4-5.19a106.2 106.2 0 0 1 33.18 5.22c8.12 2.45 43.35 20 52.55 25.88 36.04 22.98 85.12 33.6 120.25 7.62z"/><path class="cls-2" d="M246.35 56.89c0 6.15-16.51 17.89-24.91 17.82s-18.54-1.46-18.53-7.6 9.94-16.59 18.15-18.32c9.24-1.95 25.3 1.95 25.29 8.1zM297.57 197c1.13 12.24-5.82 21-18.88 22.77-5.86.81-11.67-1.94-15.56-6.8-5.84-9.73 1.94-20.43 10.69-24.32s23.02.72 23.75 8.35zM279.4 51.4c0 2.59-3.4 4.91-5.82 5.84-3.83 1.48-11.12 1.57-11.67-1.15-.61-3 1-6.85 8.74-9.39 4.55-1.48 8.75 2.11 8.75 4.7z"/></g><g id="_01" data-name="1"><path d="M76.2 94.89H27.4a3.33 3.33 0 0 0-3.34 3.33v33.09a3.34 3.34 0 0 0 3.34 3.34h43.21l6.89 6.88a1.2 1.2 0 0 0 2-.85V98.22a3.33 3.33 0 0 0-3.3-3.33z" fill="url(#linear-gradient)" fill-rule="evenodd"/><path class="cls-4" d="M69.11 105.41h3.23m-40 0h32.14m-.49 4.71h8.35m-40 0h27.58m-11.15 4.7h23.57m-40 0h4.28m29.32 4.71h6.4m-40 0h28.23m-28.23 4.71h34.51"/></g><g id="_02" data-name="2"><path d="M467 161.38h-48.77a3.33 3.33 0 0 0-3.33 3.33v33.1a3.33 3.33 0 0 0 3.33 3.33h43.22l6.88 6.88a1.2 1.2 0 0 0 2-.84v-42.47a3.33 3.33 0 0 0-3.33-3.33z" fill="url(#linear-gradient-2)" fill-rule="evenodd"/><path class="cls-4" d="M459.94 171.9h3.24m-40 0h32.13m-.49 4.71h8.36m-40 0h27.57m-11.14 4.71h23.57m-40 0h4.27m29.32 4.7h6.41m-40 0h28.23m-28.23 4.71h34.51"/><path d="M392.43 175.38h48.81a3.33 3.33 0 0 0 3.33-3.33V139a3.33 3.33 0 0 0-3.33-3.33H398l-6.88-6.88a1.2 1.2 0 0 0-2.05.84v42.47a3.34 3.34 0 0 0 3.36 3.28z" fill="url(#linear-gradient-3)" fill-rule="evenodd"/><path class="cls-4" d="M396.72 146.03h40m-3.65 5.09h3.65m-40 0h32.87m-17.94 5.09h22.38m-37.31 0h6.96m24.69 5.08h8.35m-40 0h27.87m-27.87 5.09h32.14"/></g><g id="_03" data-name="3"><path class="cls-1" d="M62.3 173.14h73v55.5h-73z"/><path class="cls-7" d="M98.8 177.92v7.75a15.22 15.22 0 0 1 0 30.44v7.75a23 23 0 0 0 0-45.94z"/><path d="M98.8 185.67v-7.75a23 23 0 0 0-23 23h7.75a15.22 15.22 0 0 1 15.25-15.25z" fill="url(#linear-gradient-4)"/><path class="cls-9" d="M98.8 185.67v-7.75a23 23 0 0 0-23 23h7.75a15.22 15.22 0 0 1 15.25-15.25z"/><path d="M98.8 223.86v-7.75a15.22 15.22 0 0 1-15.22-15.22h-7.75a23 23 0 0 0 22.97 22.97z" fill="url(#linear-gradient-5)"/><path d="M98.8 223.86v-7.75a15.22 15.22 0 0 1-15.22-15.22h-7.75a23 23 0 0 0 22.97 22.97z" fill="url(#linear-gradient-6)"/><path d="M98.8 223.86v-7.75a15.22 15.22 0 0 1-15.22-15.22h-7.75a23 23 0 0 0 22.97 22.97z" fill="url(#linear-gradient-7)"/><path class="cls-13" d="M61.5 173v53.5a3 3 0 0 0 3 3H126"/></g><g id="_04" data-name="4"><path d="M127.22 182.22h60.93a3.34 3.34 0 0 0 3.34-3.34v-33.14a3.33 3.33 0 0 0-3.34-3.34h-48.88a3.34 3.34 0 0 0-3.34 3.34v25.59l-9.49 8.92a1.14 1.14 0 0 0 .78 1.97z" fill="url(#linear-gradient-8)" fill-rule="evenodd"/><path class="cls-4" d="M178.93 151.11h4.45m-10.79 0h4.09m-33.3 0h26.92m-26.92 5.1h40m-40 5.1h31.65m-.4 5.1h8.75m-26.28 0h14.15m-27.87 0h7.51m24.63 5.09h7.86m-24.17 0h13.38m-29.21 0h10.98"/></g><g id="_05" data-name="5"><path class="cls-1" d="M396.73 24.13h87.62v64.56h-87.62z"/><path class="cls-13" d="M396.73 24.13h85.13a2.49 2.49 0 0 1 2.49 2.48v59.6a2.49 2.49 0 0 1-2.49 2.48h-15.55"/><path class="cls-15" d="M429.94 67.87L423.77 74A24.92 24.92 0 0 0 459 74l-6.16-6.16a16.21 16.21 0 0 1-22.9.03z"/><path class="cls-16" d="M453.29 44.51l5.26-5.26a.64.64 0 0 0 0-.92 24.83 24.83 0 0 0-17.07-6.84v8.72a16.18 16.18 0 0 1 10.93 4.31.64.64 0 0 0 .88-.01zM423.77 74l6.17-6.16a16.16 16.16 0 0 1-4.75-11.55h-8.72a24.85 24.85 0 0 0 7.3 17.71z"/><path class="cls-15" d="M429.94 45a16.15 16.15 0 0 1 11.53-4.74v-8.77a24.84 24.84 0 0 0-17.7 7.3l6.17 6.21z"/><path class="cls-16" d="M452.85 67.87a16.15 16.15 0 0 0 4.74-11.05.49.49 0 0 1 .49-.49h7.73a.5.5 0 0 1 .5.51A24.85 24.85 0 0 1 459 74l-6.16-6.16z"/><path d="M425.19 56.32A16.11 16.11 0 0 1 429.94 45l-6.17-6.16a24.83 24.83 0 0 0-7.3 17.53z" fill="url(#linear-gradient-9)"/></g><g id="_06" data-name="6"><path class="cls-1" d="M101.61 34.7h87.61v61.22h-87.61z"/><path class="cls-13" d="M189.21 95.93V36.55a1.84 1.84 0 0 0-1.84-1.85h-83.92a1.84 1.84 0 0 0-1.84 1.85v23"/><path class="cls-9" d="M112.56 55.56h8v30h-8z"/><path class="cls-7" d="M127.45 48.28h8v37.28h-8z"/><path class="cls-18" d="M142.41 63.78h8v21.78h-8z"/><path d="M157.36 56.53h8v29.03h-8z" fill="url(#linear-gradient-10)"/><path class="cls-20" d="M172.32 70.56h8v15h-8z"/></g><g id="_07" data-name="7"><path class="cls-15" d="M264.35 46.8l-.05 87.14a1 1 0 0 0 1 1h61a1 1 0 0 0 1.05-1.05V62.57l-16.78-16.79H265.4a1 1 0 0 0-1.05 1.02z"/><path class="cls-16" d="M327.44 62.65l-16.86-16.87V61.6a1 1 0 0 0 1 1z"/><path class="cls-1" d="M281.35 89.24a3.57 3.57 0 0 1 3.65-3.77 3.75 3.75 0 0 1 0 7.5 3.55 3.55 0 0 1-3.65-3.73zm10.53 0a3.57 3.57 0 0 1 3.65-3.77 3.75 3.75 0 1 1-3.65 3.77zm10.54 0a3.57 3.57 0 0 1 3.65-3.77 3.75 3.75 0 1 1-3.65 3.77z"/><path class="cls-18" d="M232.78 68.74l-.05 87.13a1 1 0 0 0 1 1h61a1 1 0 0 0 1-1V84.55L279 67.72h-45.17a1 1 0 0 0-1.05 1.02z"/><path class="cls-20" d="M295.87 84.59L279 67.72v15.81a1 1 0 0 0 1 1z"/><path class="cls-1" d="M250.14 109.32a3.56 3.56 0 0 1 3.64-3.76 3.75 3.75 0 1 1-3.64 3.76zm10.53 0a3.56 3.56 0 0 1 3.65-3.76 3.75 3.75 0 0 1 0 7.49 3.55 3.55 0 0 1-3.65-3.73zm10.53 0a3.56 3.56 0 0 1 3.65-3.76 3.75 3.75 0 0 1 0 7.49 3.55 3.55 0 0 1-3.65-3.73z"/><path d="M269.37 121.3h68.48a2 2 0 0 1 2.07 2.65l-13.67 52.66a7.2 7.2 0 0 1-6.11 4.69h-92.35a2 2 0 0 1-2.08-2.65l14.9-57.35z" fill="#f2751c" fill-rule="evenodd"/><path d="M204.87 101.5h19.95a3.71 3.71 0 0 1 3.52 2.85l2.53 9.39a3.72 3.72 0 0 0 3.52 2.86h68.49a3.71 3.71 0 0 1 3.52 2.85l15.27 56.79a3.92 3.92 0 0 1-3.53 5.06h-92.35a3.71 3.71 0 0 1-3.53-2.85l-19.77-73.55a2.63 2.63 0 0 1 2.38-3.4z" fill="url(#linear-gradient-11)" fill-rule="evenodd"/><path class="cls-1" d="M302.09 135.82v79.44a1 1 0 0 0 .95 1h55.61a1 1 0 0 0 .95-1v-65l-15.38-15.38h-41.17a1 1 0 0 0-.96.94z"/><path class="cls-13" d="M302.06 189.41v25.85a1 1 0 0 0 .95 1h55.61"/><path class="cls-20" d="M359.61 150.27l-15.38-15.38v14.42a1 1 0 0 0 .95.95z"/><path d="M316.66 175.58a3.57 3.57 0 0 1 3.65-3.77 3.75 3.75 0 0 1 0 7.49 3.54 3.54 0 0 1-3.65-3.72z" fill="url(#linear-gradient-12)"/><path d="M327.2 175.58a3.56 3.56 0 0 1 3.64-3.77 3.75 3.75 0 1 1-3.64 3.77z" fill="url(#linear-gradient-13)"/><path d="M337.73 175.58a3.57 3.57 0 0 1 3.65-3.77 3.75 3.75 0 1 1-3.65 3.77z" fill="url(#linear-gradient-14)"/></g></svg>