<svg xmlns="http://www.w3.org/2000/svg" xmlns:xlink="http://www.w3.org/1999/xlink" viewBox="0 0 400 140"><defs><style>.cls-1{fill:#f8f9fa}.cls-2{fill:#d9edf6}.cls-3{fill:url(#linear-gradient)}.cls-4{fill:url(#linear-gradient-2)}.cls-5{fill:url(#linear-gradient-3)}.cls-6{fill:url(#linear-gradient-4)}.cls-7{fill:#1f46e7}.cls-8{fill:url(#linear-gradient-5)}.cls-9{fill:url(#linear-gradient-6)}.cls-10{fill:url(#linear-gradient-7)}.cls-11{fill:#f2751c}.cls-12,.cls-19,.cls-21,.cls-22{fill:none;stroke-linecap:round;stroke-miterlimit:10}.cls-12{stroke:#f2751c;stroke-width:2.66px}.cls-13{fill:url(#linear-gradient-8)}.cls-14{fill:url(#linear-gradient-9)}.cls-15{fill:#eaeacd}.cls-16{fill:#c8cbac}.cls-17{fill:#d8d7bf}.cls-18{fill:url(#linear-gradient-10)}.cls-19{stroke:#4ccd9b}.cls-19,.cls-21{stroke-width:.63px}.cls-20{fill:#239b6a}.cls-21,.cls-22{stroke:#239b6a}.cls-22{stroke-width:.76px}.cls-23{fill:url(#linear-gradient-11)}.cls-24{fill:#fecc4d}.cls-25{fill:url(#linear-gradient-12)}.cls-26{fill:url(#linear-gradient-13)}.cls-27{fill:url(#linear-gradient-14)}.cls-28{fill:url(#linear-gradient-15)}.cls-29{fill:url(#linear-gradient-16)}.cls-30{fill:url(#linear-gradient-17)}</style><linearGradient id="linear-gradient" x1="136.33" y1="75.86" x2="251.33" y2="75.86" gradientUnits="userSpaceOnUse"><stop offset="0" stop-color="#4263eb"/><stop offset="1" stop-color="#1f46e7"/></linearGradient><linearGradient id="linear-gradient-2" x1="151.33" y1="75.86" x2="236.33" y2="75.86" xlink:href="#linear-gradient"/><linearGradient id="linear-gradient-3" x1="166.33" y1="75.86" x2="221.33" y2="75.86" xlink:href="#linear-gradient"/><linearGradient id="linear-gradient-4" x1="181.33" y1="75.86" x2="206.33" y2="75.86" xlink:href="#linear-gradient"/><linearGradient id="linear-gradient-5" x1="245.89" y1="22.66" x2="247.18" y2="6.99" gradientUnits="userSpaceOnUse"><stop offset="0" stop-color="#f2751c"/><stop offset="1" stop-color="#ffc400"/></linearGradient><linearGradient id="linear-gradient-6" x1="245.3" y1="26.15" x2="267.71" y2="17" xlink:href="#linear-gradient-5"/><linearGradient id="linear-gradient-7" x1="238.34" y1="14.66" x2="254.06" y2="14.66" xlink:href="#linear-gradient"/><linearGradient id="linear-gradient-8" x1="194.61" y1="68.01" x2="208.79" y2="68.01" xlink:href="#linear-gradient-5"/><linearGradient id="linear-gradient-9" x1="313.89" y1="27.84" x2="353.9" y2="27.84" xlink:href="#linear-gradient"/><linearGradient id="linear-gradient-10" x1="265.52" y1="74.47" x2="305.52" y2="74.47" gradientTransform="translate(8.13 12.96)" gradientUnits="userSpaceOnUse"><stop offset="0" stop-color="#239b6a"/><stop offset="1" stop-color="#4ccd9b"/></linearGradient><linearGradient id="linear-gradient-11" x1="87.49" y1="97.25" x2="87.49" y2="63.59" gradientTransform="rotate(-11.97 197.744 76.71)" xlink:href="#linear-gradient-5"/><linearGradient id="linear-gradient-12" x1="48.67" y1="40.27" x2="62.64" y2="40.27" xlink:href="#linear-gradient"/><linearGradient id="linear-gradient-13" x1="5.29" y1="-87.99" x2="19.6" y2="-87.99" gradientTransform="rotate(26.72 -199.955 76.268)" xlink:href="#linear-gradient"/><linearGradient id="linear-gradient-14" x1=".46" y1="217.2" x2="14.77" y2="217.2" gradientTransform="rotate(-45.28 -200.984 80.342)" xlink:href="#linear-gradient"/><linearGradient id="linear-gradient-15" x1="-291.29" y1="306.92" x2="-276.98" y2="306.92" gradientTransform="rotate(-117.28 -200.703 79.24)" xlink:href="#linear-gradient"/><linearGradient id="linear-gradient-16" x1="-466.77" y1="57.17" x2="-452.45" y2="57.17" gradientTransform="matrix(-.99 .16 -.16 -.99 -385.86 188.94)" xlink:href="#linear-gradient"/><linearGradient id="linear-gradient-17" x1="-283.47" y1="-186.89" x2="-269.16" y2="-186.89" gradientTransform="rotate(98.72 -200.476 78.335)" xlink:href="#linear-gradient"/></defs><path class="cls-1" d="M0 0h400v140H0z" id="bg"/><g id="cloud"><path class="cls-2" d="M339.42 122.8c31.46-22.78 32.32-63.94 8.87-93.67-16.5-21-38.64-24-61.62-20a167.34 167.34 0 0 0-23.08 6 234.59 234.59 0 0 1-23.28 10A118.44 118.44 0 0 1 223 30.29a113.61 113.61 0 0 1-18.15 2.53c-25.89 1.64-49.34-8.27-72.79-18.18C105.11 3.21 73 9.31 53 29.89c-26 27.44-24.32 70.89 11.29 90 36.48 19.82 77.3-3 110.3-19.82 6.08-2.29 13-3 19.36-3.52a77.67 77.67 0 0 1 23.43 3.45c5.74 1.67 30.62 13.58 37.12 17.57 25.5 15.66 60.11 22.87 84.92 5.23z"/><path class="cls-2" d="M229 18.38c0 6.33-7 11.35-15.66 11.27s-15.61-5.21-15.59-11.53 7-11.43 15.64-11.36S229 12.06 229 18.38z"/><circle class="cls-2" cx="365.65" cy="119.51" r="4.82"/></g><g id="target"><circle class="cls-3" cx="193.83" cy="75.86" r="57.5"/><circle class="cls-1" cx="193.83" cy="75.86" r="50"/><circle class="cls-4" cx="193.83" cy="75.86" r="42.5"/><circle class="cls-1" cx="193.83" cy="75.86" r="35"/><circle class="cls-5" cx="193.83" cy="75.86" r="27.5"/><circle class="cls-1" cx="193.83" cy="75.86" r="20"/><circle class="cls-6" cx="193.83" cy="75.86" r="12.5"/><circle class="cls-7" cx="195.11" cy="74.58" r="2.68"/><path class="cls-8" d="M238.34 30.91l8-23.89a.5.5 0 0 1 .39-.34l6.73-1.17a.5.5 0 0 1 .59.53l-.73 9.86z"/><path class="cls-9" d="M239 31.82l24-7.55a.52.52 0 0 0 .34-.39l1.3-6.7a.51.51 0 0 0-.52-.61l-9.88.55z"/><path class="cls-10" d="M247.34 6.58l-1.66 16.98.71-.71 5.67-17.1-4.72.83z"/><path class="cls-11" d="M247.34 6.58l-1.66 16.98.71-.71 5.67-17.1-4.72.83z"/><path class="cls-12" d="M200.07 69.65l58.88-58.46"/><path class="cls-13" d="M208.21 70l-12.3 5a1 1 0 0 1-1.23-1.23l5-12.27a1 1 0 0 1 1.7-.09 18.13 18.13 0 0 0 6.89 6.85.94.94 0 0 1-.06 1.74z"/><path class="cls-11" d="M202.49 72.31L195.91 75a1 1 0 0 1-1.23-1.23l1.94-4.71a6 6 0 0 1 5.87 3.25zm60.88-48.43l.86-4.45L248.15 23l-1.3 1.25 5.57 3.34L263 24.27a.52.52 0 0 0 .37-.39z"/></g><g id="icons"><circle class="cls-14" cx="333.9" cy="27.84" r="20"/><path class="cls-15" d="M322.58 38.17h12.61a2.61 2.61 0 0 1 2.61 2.61v.89H320v-.89a2.61 2.61 0 0 1 2.61-2.61z" transform="rotate(22.55 328.823 39.897)"/><path class="cls-16" transform="rotate(22.55 328.457 40.804)" d="M319.6 40.03h17.83v1.56H319.6z"/><path class="cls-17" d="M324.16 36.8h11.38a1 1 0 0 1 1 1v.53h-13.41v-.53a1 1 0 0 1 1.03-1z" transform="rotate(22.55 329.793 37.565)"/><path class="cls-15" d="M335.43 39.05l-10.55-4.38a42.16 42.16 0 0 0 7.45-9.77l4.76 2a31.88 31.88 0 0 0-1.66 12.15z"/><rect class="cls-17" x="331.56" y="24.88" width="6.7" height="1.05" rx=".52" ry=".52" transform="rotate(22.55 334.85 25.396)"/><rect class="cls-15" x="333.32" y="20.64" width="6.7" height="1.05" rx=".52" ry=".52" transform="rotate(22.55 336.613 21.16)"/><path class="cls-16" transform="rotate(22.55 335.945 22.779)" d="M333.67 21.55h4.65v2.49h-4.65z"/><circle class="cls-16" cx="340.09" cy="12.93" r="1.34"/><circle class="cls-16" cx="338.63" cy="16.45" r="3.09"/><path class="cls-17" d="M339 21.57l-4.3-1.78.24-6.28a1.75 1.75 0 0 1 1.22 1.39c2.37-.68 4.18.14 5.5 2.26.38-.45.95-.45 1.62-.19z"/><rect class="cls-15" x="331.96" y="23.91" width="6.7" height="1.05" rx=".52" ry=".52" transform="rotate(22.55 335.257 24.428)"/><circle class="cls-18" cx="293.65" cy="87.43" r="20"/><circle class="cls-15" cx="293.65" cy="87.43" r="15.52"/><circle class="cls-19" cx="293.65" cy="87.43" r="10.15"/><circle class="cls-20" cx="293.65" cy="87.43" r="1.78"/><path class="cls-21" d="M301.28 76.17l-7.63 11.26"/><path class="cls-22" d="M303.64 87.43h-9.4"/><g id="_Группа_" data-name="&lt;Группа&gt;"><circle id="_Контур_" data-name="&lt;Контур&gt;" class="cls-11" cx="94.41" cy="105.66" r="20"/><path id="_Контур_2" data-name="&lt;Контур&gt;" class="cls-23" d="M104.75 88.54A20 20 0 0 0 83 122z"/><g id="_Группа_2" data-name="&lt;Группа&gt;"><circle id="_Контур_3" data-name="&lt;Контур&gt;" class="cls-24" cx="94.41" cy="105.66" r="14.59"/></g></g><path id="_Составной_контур_" data-name="&lt;Составной контур&gt;" class="cls-11" d="M100.66 105.86c-.24-.27-.13-.14 0 0a4.89 4.89 0 0 0-2.92-1.43 16 16 0 0 0-2.19-.17l-1-4.56a3.91 3.91 0 0 1 1.79.3 2.48 2.48 0 0 1 .69.47 3 3 0 0 1 .28.34c.08.12.13.25.21.38a1.23 1.23 0 0 0 2.23-.4 1.2 1.2 0 0 0 0-.7 3.11 3.11 0 0 0-.2-.41c-.08-.14-.17-.27-.26-.4A4.57 4.57 0 0 0 98 98.09a6.08 6.08 0 0 0-3.46-.86h-.49l-.28-1.32a1.22 1.22 0 0 0-.93-1 1.25 1.25 0 0 0-1.26.47 1.28 1.28 0 0 0-.21 1l.28 1.33a6.18 6.18 0 0 0-2.94 2.12 4.48 4.48 0 0 0-.7 1.56 4.3 4.3 0 0 0 0 1.82 4.18 4.18 0 0 0 .74 1.65 3.79 3.79 0 0 0 1.33 1 8.83 8.83 0 0 0 3.45.7l1 4.75a3.66 3.66 0 0 1-1.7-.51 2.77 2.77 0 0 1-.67-.56 2.42 2.42 0 0 1-.27-.36c-.08-.12-.14-.26-.22-.39a1.27 1.27 0 0 0-1.21-.6 1.24 1.24 0 0 0-1 1.6 2.26 2.26 0 0 0 .18.39c.07.13.16.27.24.4a5.46 5.46 0 0 0 1.23 1.31 6 6 0 0 0 3.32 1.18h.65l.29 1.4a1.23 1.23 0 0 0 2.2.48 1.28 1.28 0 0 0 .21-1l-.27-1.28a6.42 6.42 0 0 0 3.14-1.92 4.42 4.42 0 0 0 0-5.73zm-7.22-1.77c-.29 0-.57-.06-.82-.11a3.88 3.88 0 0 1-.87-.24 1.34 1.34 0 0 1-.65-.47 2 2 0 0 1-.28-.83 1.83 1.83 0 0 1 .12-.83 3.11 3.11 0 0 1 1.67-1.48zm6.16 5.11a3.17 3.17 0 0 1-2.17 1.8l-.93-4.37a7.69 7.69 0 0 1 1.78.23 2.2 2.2 0 0 1 .75.34 1.34 1.34 0 0 1 .46.59 2 2 0 0 1 .11 1.41z"/><circle class="cls-15" cx="55.65" cy="40.88" r="20"/><path class="cls-16" d="M66.46 57.71a20 20 0 0 1-30.81-16.83c9.73 0 24.35 6.02 30.81 16.83z"/><path class="cls-25" d="M51 46.28l-2.29-7.05a1 1 0 0 1 .36-1.1l6-4.36a1 1 0 0 1 1.16 0l6 4.36a1 1 0 0 1 .36 1.1l-2.29 7.05a1 1 0 0 1-.94.68H52a1 1 0 0 1-1-.68z"/><path class="cls-26" d="M66.85 28.77l2.47-2.5A20.37 20.37 0 0 0 64.64 23a19.82 19.82 0 0 0-5.41-1.81l-.53 3.47a.61.61 0 0 0 .33.64l7.12 3.58a.61.61 0 0 0 .7-.11z"/><path class="cls-27" d="M47.59 26.49L46 23.37a19.91 19.91 0 0 0-7.94 8L41.18 33a.59.59 0 0 0 .7-.12l5.61-5.66a.61.61 0 0 0 .1-.73z"/><path class="cls-28" d="M39.47 44.09l-3.47.57a20.06 20.06 0 0 0 5.17 10l2.47-2.49a.61.61 0 0 0 .11-.71l-3.65-7.08a.62.62 0 0 0-.63-.29z"/><path class="cls-29" d="M53.71 57.26l-.54 3.47a20 20 0 0 0 11.14-1.83l-1.61-3.12a.58.58 0 0 0-.63-.31l-7.86 1.28a.6.6 0 0 0-.5.51z"/><path class="cls-30" d="M71.51 39.28l-1.21 7.88a.61.61 0 0 0 .32.63l3.14 1.57a19.88 19.88 0 0 0 1.71-11.15l-3.47.56a.62.62 0 0 0-.49.51z"/></g></svg>