<svg xmlns="http://www.w3.org/2000/svg" viewBox="0 0 1000 860"><style>.st0{fill:#fff}.st1{fill:#d9edf6}.st2{fill:none;stroke:#f2751c;stroke-width:3;stroke-linecap:round;stroke-miterlimit:10;stroke-dasharray:5,10.5783}.st3{fill:#f2751c}.st4{fill:none;stroke:#4263eb;stroke-width:3;stroke-linecap:round;stroke-miterlimit:10;stroke-dasharray:10.6576,10.6576}.st5{fill:url(#SVGID_1_)}.st6{fill:url(#SVGID_2_)}.st7{fill:url(#SVGID_3_)}.st8,.st9{fill:none;stroke:#1f46e7;stroke-width:3;stroke-miterlimit:10}.st9{fill-rule:evenodd;clip-rule:evenodd;stroke:#eaeacd;stroke-width:10.7282}.st10{fill:#239b6a}.st11{fill:url(#SVGID_4_)}.st12{fill:#4ccd9b}.st13{fill:url(#SVGID_5_)}.st14{fill:url(#SVGID_6_)}.st15{fill:url(#SVGID_7_)}.st16{fill:none;stroke:#ccdfdd;stroke-width:1.1876;stroke-miterlimit:10}.st17{fill:url(#SVGID_8_)}.st18{fill:#ffc400}.st19{fill:url(#SVGID_9_)}.st20{fill:url(#SVGID_10_)}</style><path class="st0" d="M0 0h1000v860H0z" id="bg"/><g id="cloud"><path class="st1" d="M813.9 329c-16.9-6.7-34.9-8.7-52.9-10.7-72-7-163 25-216-37.1-7.5-10.4-14.5-20.9-21.3-31.2-20.4-31-39.1-61-64.2-88.9-10.8-11.8-22.2-23-34.2-33.2-34.7-33.8-79.2-52-125.6-55.3-15.5-1.1-31.1-.6-46.7 1.6-62 7.4-114.2 42.7-151.9 90.4-9.4 11.9-17.9 24.6-25.4 37.8C17 311.3 21 467.3 121 554.3c23 19.3 48.2 30 74.6 35.3 13.2 2.7 26.6 4 40.2 4.4 11.2 1.3 21.2.3 32.2-.7 80-13 180-38 241 35 23 28.5 44.5 59 69.4 84.8 8.3 8.6 17 16.7 26.2 24 12.9 9.2 26.9 17.4 41.7 24.4 14.8 7 30.3 12.7 46.1 17C740 792.3 793 792.3 839 769.3c75-38 118-120 122-201 3-73-17-153-74.4-203.3-11.9-9.8-25.4-18-40.5-24-10-4.6-20.8-8.6-32.2-12z"/><path class="st1" d="M302.8 667.1c7.5-37.6 47-56 82.5-54.8 43.5 1.8 87.9 29.3 94.9 74.7 3.8 26.3-11.7 51.7-35.7 64.1-43.3 21.7-97.9 9.4-126.9-28.4-12.9-15.8-18.9-35.6-14.8-55.6zm227.9-499.8c10.3-49 67.3-72 112.3-56 34 12 61 41 66 77 5 44-32 84-75 90-50 7-98-29-104.8-77.6-1.6-10.8-1.2-22.1 1.5-33.4zm295.5 34.8c.2 17.2-12 32.2-27.1 39.2-18 8-41.9 2-51.9-16-7.8-14-4.7-31 5.4-44 8.1-10 20.2-16 32.1-16.4 23-1.2 41.6 15.4 41.5 37.2z"/></g><g id="Layer_6"><path class="st2" d="M951.3 402.4h-55.2c-5.6 0-10.6-3.6-12.4-8.9l-43.8-127.9c-4.2-12.4-22-11.6-25.1 1.1L794 350.5c-1.5 5.8-6.7 9.9-12.7 9.9H607.9c-5.8 0-10.8-3.8-12.5-9.2l-52.6-170.8c-1.7-5.5-6.8-9.2-12.5-9.2H272.5c-4.8 0-9.2 2.6-11.5 6.8l-48 87.8c-5 9.1-18 9.1-23 0l-47.8-87.7c-2.3-4.2-6.7-6.8-11.5-6.8H67.1"/><path class="st3" d="M201 286.7c9.2 0 16.7-7.5 16.7-16.7s-7.5-16.7-16.7-16.7-16.7 7.5-16.7 16.7c-.1 9.2 7.4 16.7 16.7 16.7zm0-25.4c4.8 0 8.6 3.9 8.6 8.6 0 4.8-3.9 8.6-8.6 8.6s-8.6-3.9-8.6-8.6c-.1-4.7 3.8-8.6 8.6-8.6zm627 14c9.2 0 16.7-7.5 16.7-16.7s-7.5-16.7-16.7-16.7-16.7 7.5-16.7 16.7c-.1 9.2 7.4 16.7 16.7 16.7zm0-25.4c4.8 0 8.6 3.9 8.6 8.6 0 4.8-3.9 8.6-8.6 8.6s-8.6-3.9-8.6-8.6c-.1-4.7 3.8-8.6 8.6-8.6z"/><path class="st4" d="M955 468.9l-107.4 48.8c-2.1 1-3.7 2.7-4.5 4.9l-15.8 47.3c-2.5 7.6-13.4 7.6-15.8-.1l-30.3-95.1a8.25 8.25 0 0 0-7.9-5.8H279.4c-2.7 0-5.3 1.3-6.8 3.5l-64 91.1c-3.5 5.1-11.2 4.6-14.1-.8l-82.2-150.9c-1.5-2.7-4.3-4.3-7.3-4.3H63"/><linearGradient id="SVGID_1_" gradientUnits="userSpaceOnUse" x1="892.253" y1="409.797" x2="925.747" y2="409.797" gradientTransform="matrix(-1 0 0 1 1018 0)"><stop offset="0" stop-color="#4263eb"/><stop offset="1" stop-color="#1f46e7"/></linearGradient><path class="st5" d="M122.5 420.4c10.8-16.9-7.1-34.8-24-24-1.2.7-2.2 1.7-2.9 2.9-10.8 16.9 7.1 34.8 24 24 1.1-.8 2.1-1.8 2.9-2.9zm-7-16.7c6.6 9.1-3.5 19.2-12.6 12.6-.2-.1-.3-.3-.4-.4-6.6-9.1 3.5-19.2 12.6-12.6l.4.4z"/><linearGradient id="SVGID_2_" gradientUnits="userSpaceOnUse" x1="156.939" y1="519.839" x2="190.433" y2="519.839" gradientTransform="matrix(-1 0 0 1 1018 0)"><stop offset="0" stop-color="#4263eb"/><stop offset="1" stop-color="#1f46e7"/></linearGradient><path class="st6" d="M857.8 530.4c10.8-16.9-7.1-34.8-24-24-1.2.7-2.2 1.7-2.9 2.9-10.8 16.9 7.1 34.8 24 24 1.1-.7 2.1-1.7 2.9-2.9zm-7-16.6c6.6 9.1-3.5 19.2-12.6 12.6-.2-.1-.3-.3-.4-.4-6.6-9.1 3.5-19.2 12.6-12.6.2 0 .3.2.4.4z"/></g><g id="list"><path class="st0" d="M751.9 760h-501c-6.8 0-12.3-5.5-12.3-12.3V89.3c0-6.8 5.5-12.3 12.3-12.3h501c6.8 0 12.3 5.5 12.3 12.3v658.4c0 6.8-5.5 12.3-12.3 12.3z"/><linearGradient id="SVGID_3_" gradientUnits="userSpaceOnUse" x1="256.379" y1="436.366" x2="782.059" y2="436.366"><stop offset="0" stop-color="#4263eb"/><stop offset="1" stop-color="#1f46e7"/></linearGradient><path class="st7" d="M769.7 777.9h-501c-6.8 0-12.3-5.5-12.3-12.3V107.2c0-6.8 5.5-12.3 12.3-12.3h501c6.8 0 12.3 5.5 12.3 12.3v658.4c.1 6.8-5.5 12.3-12.3 12.3z"/><path class="st0" d="M751.9 760h-501c-6.8 0-12.3-5.5-12.3-12.3V89.3c0-6.8 5.5-12.3 12.3-12.3h501c6.8 0 12.3 5.5 12.3 12.3v658.4c0 6.8-5.5 12.3-12.3 12.3z"/><path class="st1" d="M764.2 89.3c0-6.8-5.5-12.3-12.3-12.3h-501c-6.8 0-12.3 5.5-12.3 12.3v23.9h525.7V89.3z"/><path class="st8" d="M238.5 480.2V89.3c0-6.8 5.5-12.3 12.3-12.3h221.1m174.3 0h105.6c6.8 0 12.3 5.5 12.3 12.3v658.4c0 6.8-5.5 12.3-12.3 12.3h-501c-6.8 0-12.3-5.5-12.3-12.3v-60.1"/><circle class="st0" cx="260.7" cy="97.3" r="7.7"/><circle class="st0" cx="283.5" cy="97.3" r="7.7"/><circle class="st0" cx="306.3" cy="97.3" r="7.7"/></g><path class="st9" d="M281.9 151.8h437.7m-40 40.9h40m-437.7 0h359.6m-196.3 41h244.9m-408.2 0h76.2m270.1 41h91.4m-437.7 0h304.9m-304.9 40.9h351.6m16 119.2h70.1m-437.7 0h308.9m-308.9 32h377.6m11.4 41h48.7m-118.1 0h44.7m-364.3 0h294.6m-294.6 40.9h437.7m-437.7 41h346.3m91.4 40.9h-95.7m-191.8 0h154.7m-304.9 0H364m269.5 41h86.1m-264.6 0h146.5m-319.6 0H402m2 41h169.5m-291.6 0h70.8" id="text"/><g id="graph02"><path class="st10" d="M764.2 37.1v23.4c25.3 0 45.8 20.5 45.8 45.8 0 25.3-20.5 45.8-45.8 45.8v23.4c38.2 0 69.2-31 69.2-69.2s-31-69.2-69.2-69.2z"/><linearGradient id="SVGID_4_" gradientUnits="userSpaceOnUse" x1="694.987" y1="71.672" x2="833.37" y2="71.672"><stop offset="0" stop-color="#ff9a01"/><stop offset="1" stop-color="#ffc400"/></linearGradient><path class="st11" d="M764.2 60.4V37.1c-38.2 0-69.2 31-69.2 69.2h23.4c-.1-25.3 20.5-45.9 45.8-45.9z"/><path class="st12" d="M764.2 60.4V37.1c-38.2 0-69.2 31-69.2 69.2h23.4c-.1-25.3 20.5-45.9 45.8-45.9z"/><linearGradient id="SVGID_5_" gradientUnits="userSpaceOnUse" x1="694.987" y1="140.863" x2="833.37" y2="140.863"><stop offset="0" stop-color="#ff9a01"/><stop offset="1" stop-color="#ffc400"/></linearGradient><path class="st13" d="M764.2 175.5v-23.4c-25.3 0-45.8-20.5-45.8-45.8H695c0 38.2 31 69.2 69.2 69.2z"/><linearGradient id="SVGID_6_" gradientUnits="userSpaceOnUse" x1="553.387" y1="140.863" x2="764.178" y2="140.863"><stop offset="0" stop-color="#ff9a01"/><stop offset="1" stop-color="#ffc400"/></linearGradient><path class="st14" d="M764.2 175.5v-23.4c-25.3 0-45.8-20.5-45.8-45.8H695c0 38.2 31 69.2 69.2 69.2z"/><linearGradient id="SVGID_7_" gradientUnits="userSpaceOnUse" x1="640.114" y1="140.863" x2="764.178" y2="140.863"><stop offset="0" stop-color="#4ccd9b"/><stop offset="1" stop-color="#239b6a"/></linearGradient><path class="st15" d="M764.2 175.5v-23.4c-25.3 0-45.8-20.5-45.8-45.8H695c0 38.2 31 69.2 69.2 69.2z"/></g><g id="graph01"><circle class="st0" cx="452.9" cy="675.2" r="31"/><circle class="st0" cx="340" cy="675.2" r="31"/><circle class="st0" cx="229.6" cy="675.2" r="31"/><path class="st16" d="M71.7 675.3c0 23.5 19.1 42.6 42.6 42.6s42.6-19.1 42.6-42.6-19.1-42.6-42.6-42.6-42.6 19-42.6 42.6zm14 0c0-15.8 12.8-28.6 28.6-28.6s28.6 12.8 28.6 28.6-12.8 28.6-28.6 28.6-28.6-12.8-28.6-28.6z"/><linearGradient id="SVGID_8_" gradientUnits="userSpaceOnUse" x1="385.764" y1="675.291" x2="471.04" y2="675.291" gradientTransform="matrix(-1 0 0 1 542.704 0)"><stop offset="0" stop-color="#f2751c"/><stop offset="1" stop-color="#ffc400"/></linearGradient><path class="st17" d="M71.7 675.3c0 23.5 19.1 42.6 42.6 42.6s42.6-19.1 42.6-42.6-19.1-42.6-42.6-42.6-42.6 19-42.6 42.6zm14 0c0-15.8 12.8-28.6 28.6-28.6s28.6 12.8 28.6 28.6-12.8 28.6-28.6 28.6-28.6-12.8-28.6-28.6z"/><path class="st18" d="M410.1 675.3c0 23.5 19.1 42.6 42.6 42.6s42.6-19.1 42.6-42.6-19.1-42.6-42.6-42.6-42.6 19-42.6 42.6zm14.1 0c0-15.8 12.8-28.6 28.6-28.6s28.6 12.8 28.6 28.6-12.8 28.6-28.6 28.6-28.6-12.8-28.6-28.6z"/><path class="st3" d="M452.8 632.7l.1 14.1h-.1c-15.8 0-28.6 12.8-28.6 28.6h-14.1c0-23.7 19.1-42.7 42.7-42.7z"/><path class="st18" d="M297.3 675.3c0 23.5 19.1 42.6 42.6 42.6s42.6-19.1 42.6-42.6-19.1-42.6-42.6-42.6-42.6 19-42.6 42.6zm14.1 0c0-15.8 12.8-28.6 28.6-28.6s28.6 12.8 28.6 28.6-12.8 28.6-28.6 28.6-28.6-12.8-28.6-28.6z"/><path class="st3" d="M297.3 675.3c0-23.5 19.1-42.6 42.6-42.6h.1v14.1h-.1c-15.8 0-28.6 12.8-28.6 28.6s12.8 28.6 28.6 28.6h.1v14.1h-.1c-23.5-.2-42.6-19.3-42.6-42.8z"/><path class="st18" d="M184.5 675.3c0 23.5 19.1 42.6 42.6 42.6s42.6-19.1 42.6-42.6-19.1-42.6-42.6-42.6-42.6 19-42.6 42.6zm14 0c0-15.8 12.8-28.6 28.6-28.6s28.6 12.8 28.6 28.6-12.8 28.6-28.6 28.6-28.6-12.8-28.6-28.6z"/><path class="st3" d="M227.1 632.7c.1 0 .1 0 0 0l.1 14.1h-.1c-15.8 0-28.6 12.8-28.6 28.6s12.8 28.6 28.6 28.6c7.9 0 15.1-3.2 20.2-8.4l9.9 9.9c-7.7 7.7-18.4 12.5-30.2 12.5-23.5 0-42.6-19.1-42.6-42.6.1-23.7 19.2-42.7 42.7-42.7z"/></g><g id="ad"><linearGradient id="SVGID_9_" gradientUnits="userSpaceOnUse" x1="281.899" y1="378.031" x2="484.159" y2="378.031"><stop offset="0" stop-color="#f2751c"/><stop offset="1" stop-color="#ffc400"/></linearGradient><path class="st19" d="M281.9 355h202.3v46H281.9z"/><linearGradient id="SVGID_10_" gradientUnits="userSpaceOnUse" x1="509.442" y1="378.031" x2="711.702" y2="378.031"><stop offset="0" stop-color="#f2751c"/><stop offset="1" stop-color="#ffc400"/></linearGradient><path class="st20" d="M509.4 355h202.3v46H509.4z"/><path class="st3" d="M351.1 394.5l13.5-32.9h7.6l13.4 32.9h-7.3l-2.4-6.2h-15.1l-2.4 6.2h-7.3zm11.9-12h10.6l-4.6-11.8c-.2-.7-.5-1.3-.7-2.6-.2 1.3-.5 1.9-.8 2.6l-4.5 11.8zm38.6-20.9c11.7 0 17.3 6.9 17.3 16.5s-5.6 16.5-17.3 16.5h-12.3v-32.9h12.3zm0 6.2h-5.3v20.5h5.3c6.5 0 10.1-3.5 10.1-10.3-.1-6.7-3.6-10.2-10.1-10.2z"/><path class="st0" d="M347.2 394.5l13.5-32.9h7.6l13.4 32.9h-7.3l-2.4-6.2h-15l-2.4 6.2h-7.4zm12-12h10.6l-4.6-11.8c-.2-.7-.5-1.3-.7-2.6-.2 1.3-.5 1.9-.8 2.6l-4.5 11.8zm38.5-20.9c11.7 0 17.3 6.9 17.3 16.5s-5.6 16.5-17.3 16.5h-12.3v-32.9h12.3zm0 6.2h-5.3v20.5h5.3c6.5 0 10.1-3.5 10.1-10.3 0-6.7-3.6-10.2-10.1-10.2z"/><path class="st3" d="M578.6 394.5l13.5-32.9h7.6l13.4 32.9h-7.3l-2.4-6.2h-15.1l-2.4 6.2h-7.3zm12-12h10.6l-4.6-11.8c-.2-.7-.5-1.3-.7-2.6-.2 1.3-.5 1.9-.8 2.6l-4.5 11.8zm38.5-20.9c11.7 0 17.3 6.9 17.3 16.5s-5.6 16.5-17.3 16.5h-12.3v-32.9h12.3zm0 6.2h-5.3v20.5h5.3c6.5 0 10.1-3.5 10.1-10.3 0-6.7-3.5-10.2-10.1-10.2z"/><path class="st0" d="M574.8 394.5l13.5-32.9h7.6l13.4 32.9H602l-2.4-6.2h-15.1l-2.4 6.2h-7.3zm11.9-12h10.6l-4.6-11.8c-.2-.7-.5-1.3-.7-2.6-.2 1.3-.5 1.9-.8 2.6l-4.5 11.8zm38.5-20.9c11.7 0 17.3 6.9 17.3 16.5s-5.6 16.5-17.3 16.5h-12.3v-32.9h12.3zm0 6.2H620v20.5h5.3c6.5 0 10.1-3.5 10.1-10.3-.1-6.7-3.6-10.2-10.2-10.2z"/></g></svg>