<svg xmlns="http://www.w3.org/2000/svg" viewBox="0 0 1000 860" width="520" height="450"><style>.st0{fill:#fff}.st1{fill:#d9edf6}.st7{fill:#f2751c}.st11{fill:#4ccd9b}.st12{fill:#239b6a}</style><path class="st0" d="M0 0h1000v860H0z" id="white_x5F_bg"/><g id="clouds"><path class="st1" d="M215.6 582.4c124.9 25.7 207.8-55.5 313.4 51.5 80.8 81.9 133.9 154.8 261.9 112.4 219.7-72.7 228.7-456.8-11.9-502.6-127.6-24.3-225.8 90.7-347.1-11.9-68.3-57.8-120.9-84.4-212.4-87.2-247.2 0-245.3 388.1-3.9 437.8z"/><path class="st1" d="M640.7 174.7C641 213 606 239 571 245c-43 7-92-11-108-54-9-25 1-53 22-70 38-30 94-29 130 2.2 15.9 12.9 25.8 31 25.7 51.5z"/></g><g id="graph"><g id="Layer_2"><path d="M935.8 481l-19 128.6c-1.1 7.2-11.3 7.5-12.8.4l-5.8-26.6c-1.9-8.8-13.5-11.1-18.6-3.7l-3.7 5.4c-5.1 7.2-15.8 7.1-20.7-.3l-78-118.8c-5.8-8.9-15.7-14.2-26.4-14.2h-10.9c-11.9 0-22.9 6.7-28.3 17.3L668 553.9c-8.1 15.9-30.7 16.2-39.4.7l-38.1-68.4a48.71 48.71 0 0 0-42.6-25.1H428c-23.5 0-43.6 17-47.4 40.3l-39.9 243.4c-2 12.5-20 12.5-22 0l-8.9-54.3c-2-12.3-19.7-12.3-21.8 0l-15.5 93.1c-2.5 15.1-24.1 15.4-27 .4l-18.4-94.5c-1.9-9.7-10.4-16.7-20.3-16.7h-38.6c-9.6 0-18.2-5.8-21.8-14.7l-37.3-92.5c-6.1-15-27.4-14.8-33.2.3l-11.7 30.8" fill="none" stroke="#f2751c" stroke-width="3" stroke-linecap="round" stroke-miterlimit="10" stroke-dasharray="5,10.5783"/><path d="M67.5 268.8h21.1c16.9 0 30.5 13.7 30.5 30.5 0 23.9 19.4 43.2 43.2 43.2h39.2c16.1 0 30.5-10.3 35.6-25.6l14.3-42.5c6.4-19.1 33.1-19.8 40.6-1.1l12.6 31.7c6 15 20.5 24.8 36.6 24.8h85.4c18.9 0 36.3-10.1 45.8-26.5l23.8-41.4c6.4-11.1 22.2-11.7 29.3-1.1l6.1 9c7.8 11.5 25.1 10.1 31-2.5l12.6-26.7c5.7-12.1 22.5-12.8 29.3-1.3l5.6 9.6c4.9 8.5 14 13.6 23.8 13.6 9.5 0 17.9-6.4 20.5-15.6l51-183.3c4.1-14.9 25.3-14.8 29.3.1l22.5 84c2.7 10.2 17.2 10 19.7-.2l10.8-44.7c3.2-13 14.8-22.2 28.2-22.2h43.8c12.7 0 24 8.3 27.8 20.5l16.8 54.3c3.8 12.4 15.3 20.8 28.2 20.8" stroke="#4263eb" stroke-dasharray="10.6576,10.6576" fill="none" stroke-width="3" stroke-linecap="round" stroke-miterlimit="10"/><path d="M888.6 346.1c1.9 0 1.9-3 0-3-2 0-2 3 0 3z" fill="#4263eb"/></g></g><g id="points"><linearGradient id="SVGID_1_" gradientUnits="userSpaceOnUse" x1="105.68" y1="319.5" x2="140.68" y2="319.5"><stop offset="0" stop-color="#4263eb"/><stop offset="1" stop-color="#1f46e7"/></linearGradient><path d="M123.2 302c-9.7 0-17.5 7.8-17.5 17.5s7.8 17.5 17.5 17.5 17.5-7.8 17.5-17.5-7.9-17.5-17.5-17.5zm0 26.5c-5 0-9-4-9-9s4-9 9-9 9 4 9 9-4 9-9 9z" fill="url(#SVGID_1_)"/><linearGradient id="SVGID_2_" gradientUnits="userSpaceOnUse" x1="704.653" y1="53.78" x2="739.653" y2="53.78"><stop offset="0" stop-color="#4263eb"/><stop offset="1" stop-color="#1f46e7"/></linearGradient><path d="M722.2 36.3c-9.7 0-17.5 7.8-17.5 17.5s7.8 17.5 17.5 17.5 17.5-7.8 17.5-17.5-7.9-17.5-17.5-17.5zm0 26.5c-5 0-9-4-9-9s4-9 9-9 9 4 9 9-4.1 9-9 9z" fill="url(#SVGID_2_)"/><path class="st7" d="M911.1 597.1c-9.7 0-17.5 7.8-17.5 17.5s7.8 17.5 17.5 17.5 17.5-7.8 17.5-17.5-7.8-17.5-17.5-17.5zm0 26.5c-5 0-9-4-9-9s4-9 9-9 9 4 9 9-4 9-9 9zM257.6 777.4c-9.7 0-17.5 7.8-17.5 17.5s7.8 17.5 17.5 17.5 17.5-7.8 17.5-17.5-7.8-17.5-17.5-17.5zm0 26.5c-5 0-9-4-9-9s4-9 9-9 9 4 9 9-4 9-9 9z"/></g><g id="window"><linearGradient id="SVGID_3_" gradientUnits="userSpaceOnUse" x1="206.918" y1="450" x2="833.082" y2="450"><stop offset="0" stop-color="#4263eb"/><stop offset="1" stop-color="#1f46e7"/></linearGradient><path d="M820.8 698.4H219.2c-6.8 0-12.3-5.5-12.3-12.3V214c0-6.8 5.5-12.3 12.3-12.3h601.5c6.8 0 12.3 5.5 12.3 12.3v472c.1 6.8-5.4 12.4-12.2 12.4z" fill="url(#SVGID_3_)"/><path class="st0" d="M800.8 678.4H199.2c-6.8 0-12.3-5.5-12.3-12.3V194c0-6.8 5.5-12.3 12.3-12.3h601.5c6.8 0 12.3 5.5 12.3 12.3v472c.1 6.8-5.4 12.4-12.2 12.4z"/><path d="M438 678.4H199.2c-6.8 0-12.3-5.5-12.3-12.3v-28m0-107.1V194c0-6.8 5.5-12.3 12.3-12.3H442m140-.1h218.8c6.8 0 12.3 5.5 12.3 12.3v21" fill="none" stroke="#1f46e7" stroke-width="3" stroke-miterlimit="10"/><path d="M237.9 225h142.5v142.5H237.9zm0 162.1h452.7v10H237.9zm0 25h539.8v10H237.9zm0 25h381.8v10H237.9zm0 25h452.7v10H237.9zm0 25h492.5v10H237.9zm0 25h411.8v10H237.9zm0 25h539.8v10H237.9zm0 25h452.7v10H237.9z" fill="#eaeacd"/></g><g id="dia"><path class="st11" d="M134 501.6l-15.9 15.9c25.1 25.1 65.8 25.1 90.9 0l-15.9-15.9c-16.3 16.4-42.8 16.4-59.1 0z"/><path class="st12" d="M194.3 441.4l13.6-13.6c.7-.7.7-1.7 0-2.4-12.3-11.7-28.2-17.6-44.1-17.6v22.5c10.1 0 20.3 3.8 28.2 11.1.6.6 1.7.6 2.3 0zm-76.2 76.2l15.9-15.9c-8.2-8.2-12.3-19-12.2-29.8H99.3c-.1 16.5 6.2 33 18.8 45.7z"/><path class="st11" d="M134 442.5c8.2-8.2 19-12.3 29.8-12.2v-22.5c-16.5-.1-33.1 6.2-45.7 18.8l15.9 15.9z"/><path class="st12" d="M193.1 501.6c7.9-7.9 12-18.2 12.2-28.5 0-.7.6-1.3 1.3-1.3h19.9c.7 0 1.3.6 1.3 1.3-.3 16.1-6.5 32.1-18.8 44.4l-15.9-15.9z"/><linearGradient id="SVGID_4_" gradientUnits="userSpaceOnUse" x1="116.646" y1="471.865" x2="116.646" y2="426.629"><stop offset="0" stop-color="#4ccd9b"/><stop offset="1" stop-color="#239b6a"/></linearGradient><path d="M121.8 471.9c.1-10.6 4.1-21.2 12.2-29.3l-15.9-15.9c-12.5 12.5-18.8 28.9-18.8 45.2h22.5z" fill="url(#SVGID_4_)"/><path d="M636.7 654.5h30.9v116h-30.9z" fill="#ffc400"/><path class="st7" d="M694.3 626.3h30.9v144.1h-30.9z"/><path d="M752.1 686.2H783v84.2h-30.9z" fill="#96b7e1"/><linearGradient id="SVGID_5_" gradientUnits="userSpaceOnUse" x1="825.349" y1="770.409" x2="825.349" y2="658.191"><stop offset="0" stop-color="#f2751c"/><stop offset="1" stop-color="#ffc400"/></linearGradient><path d="M809.9 658.2h30.9v112.2h-30.9z" fill="url(#SVGID_5_)"/><path d="M867.7 712.4h30.9v58h-30.9z" fill="#1f46e7"/></g><g id="ad"><linearGradient id="SVGID_6_" gradientUnits="userSpaceOnUse" x1="678" y1="319.5" x2="678" y2="130.5"><stop offset="0" stop-color="#f2751c"/><stop offset="1" stop-color="#ffc400"/></linearGradient><path d="M583.5 130.5h189v189h-189z" fill="url(#SVGID_6_)"/><path class="st7" d="M612.5 260l27.7-67.8H656l27.6 67.8h-15l-4.9-12.7h-31l-5 12.7h-15.2zm24.7-24.8h21.9l-9.5-24.3c-.5-1.4-1-2.7-1.5-5.3-.5 2.6-1 4-1.5 5.3l-9.4 24.3zm79.3-43.1c24.1 0 35.6 14.2 35.6 33.9s-11.4 33.9-35.6 33.9h-25.4v-67.8h25.4zm0 12.8h-10.9v42.2h10.9c13.5 0 20.7-7.2 20.7-21.1 0-13.9-7.2-21.1-20.7-21.1z"/><path class="st0" d="M604.5 260l27.7-67.8H648l27.6 67.8h-15l-4.9-12.7h-31l-5 12.7h-15.2zm24.7-24.8h21.9l-9.5-24.3c-.5-1.4-1-2.7-1.5-5.3-.5 2.6-1 4-1.5 5.3l-9.4 24.3zm79.3-43.1c24.1 0 35.6 14.2 35.6 33.9s-11.4 33.9-35.6 33.9h-25.4v-67.8h25.4zm0 12.8h-10.9v42.2h10.9c13.5 0 20.7-7.2 20.7-21.1 0-13.9-7.2-21.1-20.7-21.1z"/></g></svg>