<svg xmlns="http://www.w3.org/2000/svg" viewBox="0 0 1500 520"><style>.st0{fill:#fff}.st1{fill:#d9edf6}.st2{fill:#1f46e7}.st3{fill:#4263eb}.st4{fill:#eaeacd}.st5{fill:#96b7e1}.st16{fill:#c8cbac}.st17{fill:#d8d7bf}.st18{fill:#f2751c}.st28,.st30{fill:none;stroke-miterlimit:10}.st28{fill-rule:evenodd;clip-rule:evenodd;stroke-linecap:round;stroke:#fff;stroke-width:1.605}.st30{stroke:#1f46e7;stroke-width:1.8677}</style><path class="st0" d="M0 0h1500v520H0z" id="bg"/><g id="cloud"><path class="st1" d="M103.2 458.7h1257.3c-41.4-13.2-48.2-48.2-89.7-76-38.9-25.7-75.8-8.9-104.8-35.1-37.9-39.6-22.2-116.1-95.3-133.6-74.2-13.8-87.5 28.3-150 14.9C817.6 197 821.8 83 709.9 83c-143.3 0-169.1 133.5-222.7 143.8-78 11.7-109.6-48.7-196.9-3.9-107.2 60.6-71.6 193.4-187.1 235.8z"/><path class="st1" d="M1241.2 324.9c-43.6 36.8-101.9-34.2-51.7-62.6 36.7-20.7 84 29.8 51.7 62.6-24.5 20.7 2-2 0 0zM493.3 107.7c15.5-1.4 34.8 5.6 36.3 22.7.7 28.3-23.8 54.8-51.9 52.7-27.9-4.9-33.7-34.5-12.5-59.2 7-7.7 16.9-13.7 28.1-16.2zm-65.2 50.1c10.4 3.5 15.5 14.2 11.4 24.1-4.1 9.8-15.8 15-26.1 11.5s-15.3-14.3-11.3-24.1 15.6-15 26-11.5z"/></g><g id="computer"><path class="st2" d="M643.1 458.3h168l26.3-89.8H669.5z"/><path class="st3" d="M670.1 458.3H838l26.4-89.8H696.5z"/><path class="st2" d="M860.4 382.2H692.5l-14.9 50.7c11.9-40.7 166.7 4 182.8-50.7zm-281 0h374.5c12.5 0 21.6-10.2 20.2-22.7L951.7 152c-1.4-12.5-12.6-22.7-25.1-22.7H552.1c-12.5 0-21.6 10.2-20.2 22.7l22.4 207.5c1.3 12.5 12.6 22.7 25.1 22.7z"/><path class="st4" d="M594.3 382.2h374.5c12.5 0 21.6-10.2 20.2-22.7L966.6 152c-1.4-12.5-12.6-22.7-25.1-22.7H567c-12.5 0-21.6 10.2-20.2 22.7l22.4 207.5c1.3 12.5 12.6 22.7 25.1 22.7z"/><path class="st3" d="M546.8 152c-1.4-12.5 7.7-22.7 20.2-22.7h374.5c12.5 0 23.8 10.2 25.1 22.7l2.2 20.7H549l-2.2-20.7zM989 359.5c1.4 12.5-7.7 22.7-20.2 22.7H594.3c-12.5 0-23.8-10.2-25.1-22.7l-2.2-20.7h419.8l2.2 20.7z"/><path class="st0" d="M768.1 361.6c.7 6.2 6.2 11.2 12.5 11.2 6.2 0 10.7-5 10-11.2s-6.2-11.2-12.5-11.2c-6.2 0-10.7 5-10 11.2z"/><path class="st2" d="M860.3 458.3H616.1c-2.2 0-3.9-1.7-3.9-3.9v-9.5c0-2.2 1.7-3.9 3.9-3.9h244.2c2.2 0 3.9 1.7 3.9 3.9v9.5c0 2.2-1.8 3.9-3.9 3.9z"/><path class="st3" d="M742.7 431.6l-15.8 36.6c-1.4 3.2.3 6.9 3.6 7.9l37.5 12.1-25.3-56.6z"/><path class="st1" d="M769 488.2h190.1c3.1 0 5.2-3.2 4-6.1l-22-51.1c-.7-1.6-2.3-2.6-4-2.6H747c-3.1 0-5.2 3.2-4 6.1l22 51.1c.8 1.6 2.3 2.6 4 2.6z"/><path class="st5" d="M915.4 446.7h14c.9 0 1.4-.8 1.1-1.6l-4-9c-.2-.4-.6-.7-1.1-.7h-14c-.9 0-1.4.8-1.1 1.6l4 9c.2.4.6.7 1.1.7zm-21.3 0h14c.9 0 1.4-.8 1.1-1.6l-4-9c-.2-.4-.6-.7-1.1-.7h-14c-.9 0-1.4.8-1.1 1.6l4 9c.2.4.6.7 1.1.7zm-21.3 0h14c.9 0 1.4-.8 1.1-1.6l-4-9c-.2-.4-.6-.7-1.1-.7h-14c-.9 0-1.4.8-1.1 1.6l4 9c.2.4.7.7 1.1.7zm-21.3 0h14c.9 0 1.4-.8 1.1-1.6l-4-9c-.2-.4-.6-.7-1.1-.7h-14c-.9 0-1.4.8-1.1 1.6l4 9c.2.4.7.7 1.1.7zm-21.3 0h14c.9 0 1.4-.8 1.1-1.6l-4-9c-.2-.4-.6-.7-1.1-.7h-14c-.9 0-1.4.8-1.1 1.6l4 9c.2.4.7.7 1.1.7zm-21.2 0h14c.9 0 1.4-.8 1.1-1.6l-4-9c-.2-.4-.6-.7-1.1-.7h-14c-.9 0-1.4.8-1.1 1.6l4 9c.1.4.6.7 1.1.7zm-21.3 0h14c.9 0 1.4-.8 1.1-1.6l-4-9c-.2-.4-.6-.7-1.1-.7h-14c-.9 0-1.4.8-1.1 1.6l4 9c.1.4.6.7 1.1.7zm-21.3 0h14c.9 0 1.4-.8 1.1-1.6l-4-9c-.2-.4-.6-.7-1.1-.7h-14c-.9 0-1.4.8-1.1 1.6l4 9c.2.4.6.7 1.1.7zm156.7 16.6h14c.9 0 1.4-.8 1.1-1.6l-4-9c-.2-.4-.6-.7-1.1-.7h-14c-.9 0-1.4.8-1.1 1.6l4 9c.2.4.6.7 1.1.7zm-21.3 0h14c.9 0 1.4-.8 1.1-1.6l-4-9c-.2-.4-.6-.7-1.1-.7h-14c-.9 0-1.4.8-1.1 1.6l4 9c.2.4.6.7 1.1.7zm-21.3 0h14c.9 0 1.4-.8 1.1-1.6l-4-9c-.2-.4-.6-.7-1.1-.7h-14c-.9 0-1.4.8-1.1 1.6l4 9c.2.4.6.7 1.1.7zm-21.3 0h14c.9 0 1.4-.8 1.1-1.6l-4-9c-.2-.4-.6-.7-1.1-.7h-14c-.9 0-1.4.8-1.1 1.6l4 9c.2.4.6.7 1.1.7zm-21.3 0h14c.9 0 1.4-.8 1.1-1.6l-4-9c-.2-.4-.6-.7-1.1-.7h-14c-.9 0-1.4.8-1.1 1.6l4 9c.2.4.7.7 1.1.7zm-21.3 0h14c.9 0 1.4-.8 1.1-1.6l-4-9c-.2-.4-.6-.7-1.1-.7h-14c-.9 0-1.4.8-1.1 1.6l4 9c.2.4.7.7 1.1.7zm-21.3 0h14c.9 0 1.4-.8 1.1-1.6l-4-9c-.2-.4-.6-.7-1.1-.7h-14c-.9 0-1.4.8-1.1 1.6l4 9c.2.4.7.7 1.1.7zm-21.2 0h14c.9 0 1.4-.8 1.1-1.6l-4-9c-.2-.4-.6-.7-1.1-.7h-14c-.9 0-1.4.8-1.1 1.6l4 9c.1.4.6.7 1.1.7zM930 479.5h14c.9 0 1.4-.8 1.1-1.6l-4-9c-.2-.4-.6-.7-1.1-.7h-14c-.9 0-1.4.8-1.1 1.6l4 9c.2.4.6.7 1.1.7zm-21.3 0h14c.9 0 1.4-.8 1.1-1.6l-4-9c-.2-.4-.6-.7-1.1-.7h-14c-.9 0-1.4.8-1.1 1.6l4 9c.2.4.6.7 1.1.7zm-21.3 0h14c.9 0 1.4-.8 1.1-1.6l-4-9c-.2-.4-.6-.7-1.1-.7h-14c-.9 0-1.4.8-1.1 1.6l4 9c.2.4.6.7 1.1.7zm-21.3 0h14c.9 0 1.4-.8 1.1-1.6l-4-9c-.2-.4-.6-.7-1.1-.7h-14c-.9 0-1.4.8-1.1 1.6l4 9c.2.4.6.7 1.1.7zm-21.3 0h14c.9 0 1.4-.8 1.1-1.6l-4-9c-.2-.4-.6-.7-1.1-.7h-14c-.9 0-1.4.8-1.1 1.6l4 9c.2.4.6.7 1.1.7zm-21.3 0h14c.9 0 1.4-.8 1.1-1.6l-4-9c-.2-.4-.6-.7-1.1-.7h-14c-.9 0-1.4.8-1.1 1.6l4 9c.2.4.6.7 1.1.7zm-21.3 0h14c.9 0 1.4-.8 1.1-1.6l-4-9c-.2-.4-.6-.7-1.1-.7h-14c-.9 0-1.4.8-1.1 1.6l4 9c.2.4.6.7 1.1.7zm-21.3 0h14c.9 0 1.4-.8 1.1-1.6l-4-9c-.2-.4-.6-.7-1.1-.7h-14c-.9 0-1.4.8-1.1 1.6l4 9c.2.4.7.7 1.1.7z"/><path class="st0" d="M951.6 306.2H818c-2.2 0-4.2-1.8-4.4-4l-9.8-93c-.2-2.2 1.4-4 3.6-4H941c2.2 0 4.2 1.8 4.4 4l9.8 93c.2 2.2-1.4 4-3.6 4z"/><linearGradient id="SVGID_1_" gradientUnits="userSpaceOnUse" x1="808.259" y1="210.811" x2="949.902" y2="210.811" gradientTransform="matrix(1 0 .1056 1 -26.611 0)"><stop offset="0" stop-color="#239b6a"/><stop offset="1" stop-color="#4ccd9b"/></linearGradient><path d="M945.4 209.2c-.2-2.2-2.2-4-4.4-4H807.3c-2.2 0-3.8 1.8-3.6 4l.8 7.2h141.6l-.7-7.2z" fill="url(#SVGID_1_)"/><linearGradient id="SVGID_2_" gradientUnits="userSpaceOnUse" x1="581.813" y1="216.169" x2="614.993" y2="216.169" gradientTransform="matrix(.9317 -.01766 .2391 1.0687 -15.459 -5.662)"><stop offset="0" stop-color="#4263eb"/><stop offset="1" stop-color="#1f46e7"/></linearGradient><path d="M607.6 229.5l-24.7.2c-.9 0-1.7-.7-1.8-1.7l-2.7-26.2c-.1-.9.5-1.7 1.4-1.7l24.7-.2c.9 0 1.7.7 1.8 1.7l2.7 26.2c.1.9-.5 1.7-1.4 1.7z" fill="url(#SVGID_2_)"/><path class="st0" d="M646.5 229.2l-24.7.2c-.9 0-1.7-.7-1.8-1.7l-2.7-26.2c-.1-.9.5-1.7 1.4-1.7l24.7-.2c.9 0 1.7.7 1.8 1.7l2.7 26.2c.1 1-.6 1.7-1.4 1.7z"/><linearGradient id="SVGID_3_" gradientUnits="userSpaceOnUse" x1="664.938" y1="217.09" x2="698.118" y2="217.09" gradientTransform="matrix(.9317 -.01766 .2391 1.0687 -15.459 -5.662)"><stop offset="0" stop-color="#239b6a"/><stop offset="1" stop-color="#4ccd9b"/></linearGradient><path d="M685.3 229l-24.7.2c-.9 0-1.7-.7-1.8-1.7l-2.7-26.2c-.1-.9.5-1.7 1.4-1.7l24.7-.2c.9 0 1.7.7 1.8 1.7l2.7 26.2c.1.9-.5 1.7-1.4 1.7z" fill="url(#SVGID_3_)"/><linearGradient id="SVGID_4_" gradientUnits="userSpaceOnUse" x1="576.516" y1="254.606" x2="609.696" y2="254.606" gradientTransform="matrix(.9317 -.01766 .2391 1.0687 -15.459 -5.662)"><stop offset="0" stop-color="#239b6a"/><stop offset="1" stop-color="#4ccd9b"/></linearGradient><path d="M611.9 270.6l-24.7.2c-.9 0-1.7-.7-1.8-1.7l-2.7-26.2c-.1-.9.5-1.7 1.4-1.7l24.7-.2c.9 0 1.7.7 1.8 1.7l2.7 26.2c.1 1-.5 1.7-1.4 1.7z" fill="url(#SVGID_4_)"/><linearGradient id="SVGID_5_" gradientUnits="userSpaceOnUse" x1="618.079" y1="255.067" x2="651.259" y2="255.067" gradientTransform="matrix(.9317 -.01766 .2391 1.0687 -15.459 -5.662)"><stop offset="0" stop-color="#f2751c"/><stop offset="1" stop-color="#ffc400"/></linearGradient><path d="M650.7 270.4l-24.7.2c-.9 0-1.7-.7-1.8-1.7l-2.7-26.2c-.1-.9.5-1.7 1.4-1.7l24.7-.2c.9 0 1.7.7 1.8 1.7l2.7 26.2c.1.9-.5 1.7-1.4 1.7z" fill="url(#SVGID_5_)"/><path class="st0" d="M689.6 270.2l-24.7.2c-.9 0-1.7-.7-1.8-1.7l-2.7-26.2c-.1-.9.5-1.7 1.4-1.7l24.7-.2c.9 0 1.7.7 1.8 1.7l2.7 26.2c.1.9-.6 1.7-1.4 1.7zm-73.5 41.6l-24.7.2c-.9 0-1.7-.7-1.8-1.7l-2.7-26.2c-.1-.9.5-1.7 1.4-1.7l24.7-.2c.9 0 1.7.7 1.8 1.7l2.7 26.2c.1 1-.5 1.7-1.4 1.7zm38.9-.2l-24.7.2c-.9 0-1.7-.7-1.8-1.7l-2.7-26.2c-.1-.9.5-1.7 1.4-1.7l24.7-.2c.9 0 1.7.7 1.8 1.7l2.7 26.2c.1.9-.5 1.7-1.4 1.7z"/><linearGradient id="SVGID_6_" gradientUnits="userSpaceOnUse" x1="654.344" y1="293.966" x2="687.524" y2="293.966" gradientTransform="matrix(.9317 -.01766 .2391 1.0687 -15.459 -5.662)"><stop offset="0" stop-color="#4263eb"/><stop offset="1" stop-color="#1f46e7"/></linearGradient><path d="M693.8 311.3l-24.7.2c-.9 0-1.7-.7-1.8-1.7l-2.7-26.2c-.1-.9.5-1.7 1.4-1.7l24.7-.2c.9 0 1.7.7 1.8 1.7l2.7 26.2c.1 1-.5 1.7-1.4 1.7z" fill="url(#SVGID_6_)"/><linearGradient id="SVGID_7_" gradientUnits="userSpaceOnUse" x1="705.052" y1="218.205" x2="738.232" y2="218.205" gradientTransform="matrix(.9317 -.01766 .2391 1.0687 -15.459 -5.662)"><stop offset="0" stop-color="#4263eb"/><stop offset="1" stop-color="#1f46e7"/></linearGradient><path d="M723 229.5l-24.7.2c-.9 0-1.7-.7-1.8-1.7l-2.7-26.2c-.1-.9.5-1.7 1.4-1.7l24.7-.2c.9 0 1.7.7 1.8 1.7l2.7 26.2c.1.9-.6 1.7-1.4 1.7z" fill="url(#SVGID_7_)"/><path class="st0" d="M761.8 229.2l-24.7.2c-.9 0-1.7-.7-1.8-1.7l-2.7-26.2c-.1-.9.5-1.7 1.4-1.7l24.7-.2c.9 0 1.7.7 1.8 1.7l2.7 26.2c.1 1-.5 1.7-1.4 1.7zm-34.6 41.4l-24.7.2c-.9 0-1.7-.7-1.8-1.7l-2.7-26.2c-.1-.9.5-1.7 1.4-1.7l24.7-.2c.9 0 1.7.7 1.8 1.7l2.7 26.2c.1 1-.5 1.7-1.4 1.7zm38.8-.2l-24.7.2c-.9 0-1.7-.7-1.8-1.7l-2.7-26.2c-.1-.9.5-1.7 1.4-1.7l24.7-.2c.9 0 1.7.7 1.8 1.7l2.7 26.2c.1.9-.5 1.7-1.4 1.7z"/><linearGradient id="SVGID_8_" gradientUnits="userSpaceOnUse" x1="702.323" y1="297.141" x2="732.877" y2="297.141"><stop offset="0" stop-color="#239b6a"/><stop offset="1" stop-color="#4ccd9b"/></linearGradient><path d="M731.5 311.8l-24.7.2c-.9 0-1.7-.7-1.8-1.7l-2.7-26.2c-.1-.9.5-1.7 1.4-1.7l24.7-.2c.9 0 1.7.7 1.8 1.7l2.7 26.2c.1 1-.6 1.7-1.4 1.7z" fill="url(#SVGID_8_)"/><linearGradient id="SVGID_9_" gradientUnits="userSpaceOnUse" x1="741.159" y1="296.9" x2="771.713" y2="296.9"><stop offset="0" stop-color="#f2751c"/><stop offset="1" stop-color="#ffc400"/></linearGradient><path d="M770.3 311.6l-24.7.2c-.9 0-1.7-.7-1.8-1.7l-2.7-26.2c-.1-.9.5-1.7 1.4-1.7l24.7-.2c.9 0 1.7.7 1.8 1.7l2.7 26.2c.1.9-.5 1.7-1.4 1.7z" fill="url(#SVGID_9_)"/></g><g id="Layer_3"><linearGradient id="SVGID_10_" gradientUnits="userSpaceOnUse" x1="1326.063" y1="295.707" x2="1412.085" y2="295.707"><stop offset="0" stop-color="#239b6a"/><stop offset="1" stop-color="#4ccd9b"/></linearGradient><circle cx="1369.1" cy="295.7" r="43" fill="url(#SVGID_10_)"/><path class="st4" d="M1374.6 332.5l-35.4-14.7.7-1.8c1.2-2.9 4.5-4.2 7.3-3l25 10.4c2.9 1.2 4.2 4.5 3 7.3l-.6 1.8z"/><path transform="rotate(22.542 1357.603 323.689)" class="st16" d="M1338.3 321.9h38.3v3.4h-38.3z"/><path class="st17" d="M1373.1 323.7l-26.7-11.1.4-1.1c.5-1.1 1.8-1.7 2.9-1.2l22.6 9.4c1.1.5 1.7 1.8 1.2 2.9l-.4 1.1z"/><path class="st4" d="M1372.4 319.8l-22.7-9.4c6.6-6.5 11.9-13.5 16-21l10.2 4.3c-2.9 8.7-4.1 17.5-3.5 26.1z"/><path class="st17" d="M1376.4 293.8l-11.2-4.7c-.6-.2-.8-.9-.6-1.5.2-.6.9-.8 1.5-.6l11.2 4.7c.6.2.8.9.6 1.5-.2.6-.9.9-1.5.6z"/><path class="st4" d="M1380.2 284.7L1369 280c-.6-.2-.8-.9-.6-1.5.2-.6.9-.8 1.5-.6l11.2 4.7c.6.2.8.9.6 1.5-.2.6-.9.9-1.5.6z"/><path transform="rotate(22.542 1373.682 284.964)" class="st16" d="M1368.6 282.2h10v5.4h-10z"/><circle class="st16" cx="1382.4" cy="263.6" r="2.9"/><circle class="st16" cx="1379.2" cy="271.2" r="6.6"/><path class="st17" d="M1380.1 282.2l-9.2-3.8.5-13.5c1.4.5 2.4 1.5 2.6 3 5.1-1.5 9 .3 11.8 4.9.8-1 2-1 3.5-.4l-9.2 9.8z"/><path class="st4" d="M1377.3 291.7l-11.2-4.7c-.6-.2-.8-.9-.6-1.5.2-.6.9-.8 1.5-.6l11.2 4.7c.6.2.8.9.6 1.5-.3.6-.9.9-1.5.6z"/><g id="XMLID_498_"><circle id="XMLID_505_" class="st18" cx="1053.6" cy="89.4" r="43"/><linearGradient id="XMLID_2_" gradientUnits="userSpaceOnUse" x1="1076.911" y1="185.995" x2="1076.911" y2="113.629" gradientTransform="rotate(-11.958 747.946 266.688)"><stop offset="0" stop-color="#f2751c"/><stop offset="1" stop-color="#ffc400"/></linearGradient><path id="XMLID_503_" d="M1075.8 52.6c-9-5.4-20-7.6-31.1-5.3-23.2 4.9-38.1 27.7-33.2 51 2.4 11.1 8.8 20.3 17.4 26.3l46.9-72z" fill="url(#XMLID_2_)"/><g id="XMLID_500_"><circle id="XMLID_9_" cx="1053.6" cy="89.4" r="31.4" fill="#fecc4d"/></g></g><path id="XMLID_493_" class="st18" d="M1067 89.8c.3.3.5.6 0 0s-.2-.3 0 0c-1.6-1.8-4-2.7-6.3-3.1-1.5-.3-3.1-.3-4.7-.4l-2.1-9.8c1.3 0 2.6.1 3.8.6.6.3 1.1.6 1.5 1 .2.2.4.5.6.7.2.3.3.5.5.8.6.9 1.6 1.3 2.7 1.2 1-.2 1.9-1 2.1-2 .1-.5.1-1-.1-1.5-.1-.3-.3-.6-.4-.9l-.6-.9c-.7-1-1.7-1.9-2.7-2.5-2.2-1.4-4.9-1.9-7.4-1.8-.3 0-.7 0-1 .1l-.6-2.8c-.2-1-1-1.8-2-2-1-.2-2.1.2-2.7 1-.4.6-.6 1.4-.5 2.1l.6 2.9c-2.5.9-4.8 2.4-6.3 4.6-.7 1-1.2 2.2-1.5 3.4-.3 1.3-.3 2.6 0 3.9.3 1.3.8 2.5 1.6 3.5s1.8 1.7 2.9 2.3c2.3 1.1 4.9 1.4 7.4 1.5l2.2 10.2c-1.3-.1-2.6-.4-3.7-1.1-.5-.3-1-.7-1.4-1.2-.2-.2-.4-.5-.6-.8-.2-.3-.3-.6-.5-.8-.5-.9-1.6-1.4-2.6-1.3-1.1.1-1.9.9-2.2 1.9-.1.5-.1 1 0 1.5.1.3.2.6.4.8.2.3.3.6.5.9.7 1.1 1.6 2 2.6 2.8 2.1 1.6 4.6 2.4 7.1 2.6h1.4l.6 3c.2 1 1 1.8 2 2 1 .2 2.1-.2 2.7-1 .4-.6.6-1.4.5-2.1l-.6-2.8c2.6-.8 5-2.1 6.8-4.1 1.6-1.9 2.5-4.5 2.2-7-.2-2-.9-3.9-2.2-5.4zm-15.5-3.8c-.6-.1-1.2-.1-1.8-.2-.6-.1-1.3-.3-1.9-.5-.5-.2-1.1-.5-1.4-1-.3-.5-.5-1.2-.6-1.8-.1-.6 0-1.2.3-1.8.6-1.5 2.1-2.6 3.6-3.2l1.8 8.5zm13.3 11c-.6 2.1-2.8 3.3-4.7 3.9l-2-9.4c1.3.1 2.6.2 3.8.5.6.2 1.1.4 1.6.7.5.3.8.8 1 1.3.4.9.6 2 .3 3z"/><circle class="st4" cx="226.5" cy="124.6" r="43"/><path class="st16" d="M249.8 160.8c-6.7 4.3-14.7 6.8-23.2 6.8-23.7 0-43-19.3-43-43 20.9 0 52.3 12.9 66.2 36.2z"/><linearGradient id="SVGID_11_" gradientUnits="userSpaceOnUse" x1="211.519" y1="123.293" x2="241.548" y2="123.293"><stop offset="0" stop-color="#4263eb"/><stop offset="1" stop-color="#1f46e7"/></linearGradient><path d="M216.5 136.2l-4.9-15.2c-.3-.9 0-1.8.8-2.4l12.9-9.4c.7-.5 1.8-.5 2.5 0l12.9 9.4c.7.5 1.1 1.5.8 2.4l-4.9 15.2c-.3.9-1.1 1.5-2 1.5h-15.9c-1.1 0-1.9-.6-2.2-1.5z" fill="url(#SVGID_11_)"/><linearGradient id="SVGID_12_" gradientUnits="userSpaceOnUse" x1="160.629" y1="157.146" x2="191.403" y2="157.146" gradientTransform="rotate(26.716 349.968 266.248)"><stop offset="0" stop-color="#4263eb"/><stop offset="1" stop-color="#1f46e7"/></linearGradient><path d="M250.6 98.6l5.3-5.4c-2.9-2.7-6.3-5.1-10.1-7-3.8-1.9-7.7-3.2-11.6-3.9l-1.1 7.5c-.1.6.2 1.1.7 1.4l15.3 7.7c.5.2 1.1.1 1.5-.3z" fill="url(#SVGID_12_)"/><linearGradient id="SVGID_13_" gradientUnits="userSpaceOnUse" x1="351.004" y1="42.643" x2="381.778" y2="42.643" gradientTransform="rotate(-45.283 349.05 270.324)"><stop offset="0" stop-color="#4263eb"/><stop offset="1" stop-color="#1f46e7"/></linearGradient><path d="M209.2 93.7l-3.5-6.7c-7 3.9-13 9.7-17.1 17.2l6.7 3.4c.5.3 1.1.2 1.5-.2L209 95.2c.4-.4.5-1 .2-1.5z" fill="url(#SVGID_13_)"/><linearGradient id="SVGID_14_" gradientUnits="userSpaceOnUse" x1="518.727" y1="188.324" x2="549.501" y2="188.324" gradientTransform="rotate(-117.285 349.313 269.24)"><stop offset="0" stop-color="#4263eb"/><stop offset="1" stop-color="#1f46e7"/></linearGradient><path d="M191.8 131.5l-7.4 1.2c1.6 8 5.4 15.6 11.1 21.6l5.3-5.4c.4-.4.5-1 .2-1.5l-7.9-15.2c-.2-.5-.8-.8-1.3-.7z" fill="url(#SVGID_14_)"/><linearGradient id="SVGID_15_" gradientUnits="userSpaceOnUse" x1="432.011" y1="392.854" x2="462.784" y2="392.854" gradientTransform="rotate(170.716 349.405 268.798)"><stop offset="0" stop-color="#4263eb"/><stop offset="1" stop-color="#1f46e7"/></linearGradient><path d="M222.4 159.8l-1.1 7.5c8.3 1 16.6-.4 24-3.9l-3.5-6.7c-.3-.5-.8-.8-1.4-.7l-16.9 2.8c-.6 0-1.1.5-1.1 1z" fill="url(#SVGID_15_)"/><linearGradient id="SVGID_16_" gradientUnits="userSpaceOnUse" x1="210.694" y1="373.58" x2="241.468" y2="373.58" gradientTransform="rotate(98.713 349.501 268.329)"><stop offset="0" stop-color="#4263eb"/><stop offset="1" stop-color="#1f46e7"/></linearGradient><path d="M260.6 121.2l-2.6 16.9c-.1.6.2 1.1.7 1.4l6.7 3.4c3.6-7.7 4.8-16.1 3.7-24l-7.5 1.2c-.5.1-.9.5-1 1.1z" fill="url(#SVGID_16_)"/><linearGradient id="SVGID_17_" gradientUnits="userSpaceOnUse" x1="151.856" y1="377.283" x2="250.784" y2="377.283"><stop offset="0" stop-color="#4263eb"/><stop offset="1" stop-color="#1f46e7"/></linearGradient><path d="M244.8 335.4h-87c-3.3 0-5.9 2.7-5.9 5.9v59c0 3.3 2.7 5.9 5.9 5.9h77.1l12.3 12.3c1.3 1.3 3.6.4 3.6-1.5v-75.8c0-3.2-2.7-5.8-6-5.8z" fill-rule="evenodd" clip-rule="evenodd" fill="url(#SVGID_17_)"/><path class="st28" d="M232.2 354.1h5.7m-71.3 0h57.3m-.8 8.4h14.8m-71.3 0h49.2m-19.9 8.4h42m-71.3 0h7.6m52.3 8.4h11.4m-71.3 0H217m-50.4 8.4h61.6"/><linearGradient id="SVGID_18_" gradientUnits="userSpaceOnUse" x1="155.304" y1="360.347" x2="155.304" y2="276.542"><stop offset="0" stop-color="#f2751c"/><stop offset="1" stop-color="#ffc400"/></linearGradient><path d="M111.8 360.3h87c3.3 0 5.9-2.7 5.9-5.9v-59c0-3.3-2.7-5.9-5.9-5.9h-77.1l-12.3-12.3c-1.3-1.3-3.6-.4-3.6 1.5v75.8c0 3.2 2.7 5.8 6 5.8z" fill="url(#SVGID_18_)" fill-rule="evenodd" clip-rule="evenodd"/><path class="st28" d="M119.4 308h71.4m-6.5 9.1h6.5m-71.4 0h58.7m-32 9.1H186m-66.6 0h12.5m44 9h14.9m-71.4 0h49.7m-49.7 9.1h57.4"/><path class="st0" d="M1213.5 329.1h-154.7c-2.5 0-4.5-2-4.5-4.5V219.2c0-2.5 2-4.5 4.5-4.5h154.7c2.5 0 4.5 2 4.5 4.5v105.4c0 2.5-2 4.5-4.5 4.5z"/><path class="st30" d="M1218 329.1V218.2c0-1.9-1.5-3.4-3.4-3.4h-156.7c-1.9 0-3.4 1.5-3.4 3.4V261"/><path d="M1074.8 253.7h14.9v56h-14.9z" fill="#ffc400"/><path class="st18" d="M1102.7 240.1h14.9v69.6h-14.9z"/><path class="st5" d="M1130.6 269h14.9v40.7h-14.9z"/><linearGradient id="SVGID_19_" gradientUnits="userSpaceOnUse" x1="1165.98" y1="309.714" x2="1165.98" y2="255.491"><stop offset="0" stop-color="#f2751c"/><stop offset="1" stop-color="#ffc400"/></linearGradient><path d="M1158.5 255.5h14.9v54.2h-14.9z" fill="url(#SVGID_19_)"/><path class="st2" d="M1186.4 281.7h14.9v28h-14.9z"/><path class="st0" d="M338.8 203.2l.2 150.7c0 1 .8 1.8 1.8 1.8l105.5-.1c1 0 1.8-.8 1.8-1.8l-.1-123.4-29.2-29.1-78.1.1c-1.1 0-1.9.8-1.9 1.8z"/><path class="st30" d="M378.4 201.3h-37.7c-1 0-1.8.8-1.8 1.8l.1 109.5m69.3 43l-67.5.1c-1 0-1.8-.8-1.8-1.8v-8.5"/><path class="st2" d="M448 230.4l-29.2-29.1v27.4c0 1 .8 1.8 1.8 1.8l27.4-.1z"/><path class="st30" d="M448.1 254.9v46.5"/><linearGradient id="SVGID_20_" gradientUnits="userSpaceOnUse" x1="362.889" y1="278.458" x2="378.597" y2="278.458"><stop offset="0" stop-color="#4263eb"/><stop offset="1" stop-color="#1f46e7"/></linearGradient><path d="M362.9 278.5c0-4.7 3.2-8.2 7.9-8.2s7.8 3.3 7.8 8.2c0 4.7-3.2 8.1-7.9 8.1-4.6 0-7.8-3.4-7.8-8.1z" fill="url(#SVGID_20_)"/><linearGradient id="SVGID_21_" gradientUnits="userSpaceOnUse" x1="385.704" y1="278.458" x2="401.412" y2="278.458"><stop offset="0" stop-color="#4263eb"/><stop offset="1" stop-color="#1f46e7"/></linearGradient><path d="M385.7 278.5c0-4.7 3.2-8.2 7.9-8.2s7.8 3.3 7.8 8.2c0 4.7-3.2 8.1-7.9 8.1-4.5 0-7.8-3.4-7.8-8.1z" fill="url(#SVGID_21_)"/><linearGradient id="SVGID_22_" gradientUnits="userSpaceOnUse" x1="408.519" y1="278.458" x2="424.227" y2="278.458"><stop offset="0" stop-color="#4263eb"/><stop offset="1" stop-color="#1f46e7"/></linearGradient><path d="M408.5 278.5c0-4.7 3.2-8.2 7.9-8.2s7.8 3.3 7.8 8.2c0 4.7-3.2 8.1-7.9 8.1-4.5 0-7.8-3.4-7.8-8.1z" fill="url(#SVGID_22_)"/><linearGradient id="SVGID_23_" gradientUnits="userSpaceOnUse" x1="414.099" y1="337.054" x2="500.099" y2="337.054" gradientTransform="translate(8.122 12.972)"><stop offset="0" stop-color="#239b6a"/><stop offset="1" stop-color="#4ccd9b"/></linearGradient><circle cx="465.2" cy="350" r="43" fill="url(#SVGID_23_)"/><circle class="st4" cx="465.2" cy="350" r="33.4"/><circle cx="465.2" cy="350" r="21.8" fill="none" stroke="#4ccd9b" stroke-width="1.359" stroke-linecap="round" stroke-miterlimit="10"/><circle cx="465.2" cy="350" r="3.8" fill="#239b6a"/><path d="M481.6 325.8L465.2 350" fill="none" stroke="#239b6a" stroke-width="1.359" stroke-linecap="round" stroke-miterlimit="10"/><path d="M486.7 350h-20.2" stroke-width="1.63" fill="none" stroke="#239b6a" stroke-linecap="round" stroke-miterlimit="10"/><linearGradient id="SVGID_24_" gradientUnits="userSpaceOnUse" x1="1090.115" y1="488.411" x2="1090.115" y2="414.702"><stop offset="0" stop-color="#f2751c"/><stop offset="1" stop-color="#ffc400"/></linearGradient><path d="M1142.8 415.5c0-.4-.3-.8-.8-.8h-104.5c.7 25.8 12.7 44.3 32 58 1.7 1.2 2.6 3 2.6 4.9v9.1c0 1 1 1.8 2.1 1.8h31.9c1.2 0 2.1-.8 2.1-1.8v-9.1c0-1.9 1-3.7 2.6-4.9 19.1-13.6 31-31.8 32-57.2z" fill="url(#SVGID_24_)"/><path class="st2" d="M1057.2 404.5h117.6c-.6-4.1-7.1-8.9-29.3-9.4-21-1.1-19.4-19.8-42.2-19-19.4.1-33.3 22.4-46.1 28.4z"/><path class="st2" d="M1134.4 375.6c-1.7 3.1-1 7.2 1.2 9.9 1.9 2.2 4.5 3.6 7.4 3.9 3.9.2 8-1.3 10.5-4.2.4-.5.7-1 .9-1.5.2-.6.4-1.1.5-1.8.3-2.9-1-5.7-3.3-7.8-.6-.5-1.2-1-1.9-1.4s-1.4-.7-2.1-1c-.6-.2-1.3-.4-2-.5s-1.4-.2-2.1-.2c-2.6.2-6 .3-7.7 2.7-.5.5-1 1.1-1.4 1.9z"/></g></svg>