<svg xmlns="http://www.w3.org/2000/svg" xmlns:xlink="http://www.w3.org/1999/xlink" viewBox="10097 124.894 774 380"><defs><style>.a{fill:#fff;}.b{fill:#d9edf6;}.c{fill:#eaeacd;}.d{fill:#c8cbac;}.e{fill:url(#a);}.f{fill:url(#b);}.g{fill:url(#c);}.h{fill:url(#d);}.i{fill:url(#e);}.j{fill:url(#f);}.k{fill:#f2751c;}.l{fill:url(#g);}.m{fill:#fecc4d;}.n,.p,.r,.w,.y{fill:none;stroke-linecap:round;stroke-miterlimit:10;}.n{stroke:#239b6a;stroke-dasharray:4 5;}.n,.p,.r{stroke-width:1.906px;}.o{fill:#239b6a;}.p{stroke:#f2751c;}.q{fill:#1f46e7;}.r{stroke:#1f46e7;stroke-dasharray:2 3;}.s{fill:url(#h);}.t{fill:url(#i);}.u{fill:#4ccd9b;}.v{fill:url(#j);}.w{stroke:#c8cbac;stroke-width:1.266px;}.x,.z{fill-rule:evenodd;}.x{fill:url(#k);}.y{stroke:#fff;stroke-width:1.144px;}.z{fill:url(#l);}</style><linearGradient id="a" x1="0.003" y1="0.502" x2="1" y2="0.502" gradientUnits="objectBoundingBox"><stop offset="0" stop-color="#4263eb"/><stop offset="1" stop-color="#1f46e7"/></linearGradient><linearGradient id="b" x1="-4.532" y1="-29.185" x2="-3.187" y2="-29.185" xlink:href="#a"/><linearGradient id="c" x1="-16.67" y1="35.973" x2="-15.179" y2="35.973" xlink:href="#a"/><linearGradient id="d" x1="-96.114" y1="35.791" x2="-94.272" y2="35.791" xlink:href="#a"/><linearGradient id="e" x1="-89.174" y1="-32.394" x2="-87.892" y2="-32.394" xlink:href="#a"/><linearGradient id="f" x1="-105.382" y1="-49.066" x2="-102.722" y2="-49.066" xlink:href="#a"/><linearGradient id="g" x1="1.011" y1="-0.099" x2="1.011" y2="-1.024" gradientUnits="objectBoundingBox"><stop offset="0" stop-color="#f2751c"/><stop offset="1" stop-color="#ffc400"/></linearGradient><linearGradient id="h" x1="0.228" y1="1.089" x2="0.723" y2="0.399" gradientUnits="objectBoundingBox"><stop offset="0" stop-color="#239b6a"/><stop offset="1" stop-color="#4ccd9b"/></linearGradient><linearGradient id="i" x1="0.912" y1="1.084" x2="0.304" y2="0.454" xlink:href="#h"/><linearGradient id="j" x1="0.5" y1="0.999" x2="0.5" y2="0" xlink:href="#a"/><linearGradient id="k" x1="-0.72" y1="0.425" x2="0.282" y2="0.425" xlink:href="#a"/><linearGradient id="l" x1="0" y1="0.499" x2="1" y2="0.499" xlink:href="#h"/></defs><g transform="translate(10240 124.894)"><rect class="a" width="774" height="380" transform="translate(-143)"/><g transform="translate(-7.897 92.676)"><g transform="translate(8.875)"><path class="b" d="M38.129,342.161h567c-54.6-25.638-35.129-84.31-81.968-117.713-37.594-28.72-56.7,0-98.731-26.131-44-29.582-32.91-92.445-109.332-92.445-73.093,0-64.1,64.1-100.21,85.912-36.978,21.324-59.658,8.628-85.419,27.117C73.628,260.563,127.492,333.533,38.129,342.161Z" transform="translate(-38.129 -105.872)"/><path class="b" d="M225.427,159.426c1.356,18.859-17.133,31.185-34.39,27.487-13.559-3.7-14.791-20.954-7.4-30.815s20.954-14.791,33.65-9.121A17.073,17.073,0,0,1,225.427,159.426Z" transform="translate(-42.386 -107.04)"/><path class="b" d="M471.754,177.1c3.082,6.163,3.2,15.038-3.575,18.366-11.463,4.807-26.131-1.109-29.706-12.942-2.342-12.2,8.751-19.229,22.187-14.421A25.234,25.234,0,0,1,471.754,177.1Z" transform="translate(-50.205 -107.704)"/><path class="b" d="M440.631,157.832a7.735,7.735,0,0,1-8.012,8.382,9.148,9.148,0,0,1-8.751-8.875,7.8,7.8,0,0,1,8.012-8.382A9.529,9.529,0,0,1,440.631,157.832Z" transform="translate(-49.774 -107.172)"/></g><g transform="translate(478.865 116.234)"><circle class="c" cx="28.227" cy="28.227" r="28.227"/><path class="d" d="M566.26,278.618a28.3,28.3,0,0,1-43.511-23.789C536.431,254.829,557.139,263.334,566.26,278.618Z" transform="translate(-522.749 -226.603)"/><path class="e" d="M544.888,262.148l-3.2-9.984a1.348,1.348,0,0,1,.493-1.6l8.5-6.163a1.3,1.3,0,0,1,1.6,0l8.5,6.163a1.348,1.348,0,0,1,.493,1.6l-3.2,9.984a1.442,1.442,0,0,1-1.356.986H546.244A1.442,1.442,0,0,1,544.888,262.148Z" transform="translate(-523.318 -226.279)"/><g transform="translate(0.37 0.37)"><path class="f" d="M567.762,236.829l3.451-3.575a27.718,27.718,0,0,0-6.656-4.561,29.46,29.46,0,0,0-7.642-2.588l-.74,4.93a.825.825,0,0,0,.493.863l10.107,5.054A.746.746,0,0,0,567.762,236.829Z" transform="translate(-524.128 -226.105)"/><path class="g" d="M539.616,233.72l-2.219-4.437a29.183,29.183,0,0,0-11.217,11.34l4.437,2.219a.93.93,0,0,0,.986-.123l7.889-8.012A.746.746,0,0,0,539.616,233.72Z" transform="translate(-523.222 -226.201)"/><path class="h" d="M528.061,259.531l-4.93.74a28.476,28.476,0,0,0,7.272,14.175l3.451-3.575a.746.746,0,0,0,.123-.986L528.8,259.9C528.8,259.654,528.43,259.407,528.061,259.531Z" transform="translate(-523.13 -227.113)"/><path class="i" d="M548.908,278.643l-.74,4.93a28.974,28.974,0,0,0,15.777-2.588l-2.219-4.437a.825.825,0,0,0-.863-.493L549.771,277.9A1.081,1.081,0,0,0,548.908,278.643Z" transform="translate(-523.886 -227.613)"/><path class="j" d="M574.932,252.491l-1.726,11.093a.825.825,0,0,0,.493.863l4.437,2.219a29.44,29.44,0,0,0,2.465-15.777l-4.93.74A.9.9,0,0,0,574.932,252.491Z" transform="translate(-524.642 -226.853)"/></g></g><g transform="translate(0 1.205)"><circle class="k" cx="28.227" cy="28.227" r="28.227" transform="translate(0 0.15)"/><path class="l" d="M71.873,111.209a27.918,27.918,0,0,0-20.461-3.451,28.226,28.226,0,0,0-10.354,50.783Z" transform="translate(-28.978 -107.115)"/><g transform="translate(7.642 7.793)"><circle class="m" cx="20.584" cy="20.584" r="20.584"/></g><g transform="translate(19.086 13.185)"><path class="k" d="M66.673,136.148c.123.247.37.37,0,0h0a7.561,7.561,0,0,0-4.191-2.1,25.952,25.952,0,0,0-3.082-.247l-1.356-6.41a5.464,5.464,0,0,1,2.465.37,2.684,2.684,0,0,1,.986.616,1.7,1.7,0,0,1,.37.493.934.934,0,0,1,.247.493,1.657,1.657,0,0,0,1.726.74,1.57,1.57,0,0,0,1.356-1.356,1.31,1.31,0,0,0-.123-.986c-.123-.247-.123-.37-.247-.616s-.247-.37-.37-.616a11.422,11.422,0,0,0-1.726-1.726,8.661,8.661,0,0,0-4.93-1.233h-.74l-.123-1.479a1.708,1.708,0,0,0-1.356-1.356,1.812,1.812,0,0,0-1.726.616,1.712,1.712,0,0,0-.247,1.356l.37,1.849a9.32,9.32,0,0,0-4.191,2.958,4.566,4.566,0,0,0-.986,2.219,6.109,6.109,0,0,0,0,2.588,5.611,5.611,0,0,0,.986,2.342,5.457,5.457,0,0,0,1.849,1.479,12.89,12.89,0,0,0,4.807.986l1.479,6.779a4.444,4.444,0,0,1-2.465-.74c-.37-.247-.616-.493-.986-.74-.123-.123-.247-.37-.37-.493a.934.934,0,0,1-.247-.493,1.656,1.656,0,0,0-1.726-.863,1.909,1.909,0,0,0-1.479,1.233,1.361,1.361,0,0,0,0,.986.64.64,0,0,0,.247.493c.123.247.247.37.37.616a8.3,8.3,0,0,0,1.726,1.849,9.035,9.035,0,0,0,4.684,1.726h.863l.37,1.972a1.708,1.708,0,0,0,1.356,1.356,1.812,1.812,0,0,0,1.726-.616,1.712,1.712,0,0,0,.247-1.356L61.866,147a8.721,8.721,0,0,0,4.437-2.712,6.2,6.2,0,0,0,1.479-4.561A4.213,4.213,0,0,0,66.673,136.148Zm-10.231-2.465c-.37,0-.863-.123-1.109-.123a4.7,4.7,0,0,1-1.233-.37,1.572,1.572,0,0,1-.863-.616,2.082,2.082,0,0,1-.37-1.233,4.624,4.624,0,0,1,.123-1.233,3.945,3.945,0,0,1,2.342-2.1Zm8.751,7.149c-.37,1.356-1.849,2.1-3.081,2.588l-1.356-6.163a7.947,7.947,0,0,1,2.465.37,4.379,4.379,0,0,1,1.109.493,2.211,2.211,0,0,1,.616.863A2.39,2.39,0,0,1,65.194,140.832Z" transform="translate(-48.658 -120.71)"/></g></g></g><g transform="translate(34.874 34.127)"><g transform="translate(5.177)"><path class="n" d="M578.607,170.363H566.4a17.622,17.622,0,0,0-17.626,17.626h0a25.04,25.04,0,0,1-25.022,25.022h-22.68a21.616,21.616,0,0,1-20.584-14.791l-8.258-24.529a12.475,12.475,0,0,0-23.419-.616l-7.272,18.366a22.8,22.8,0,0,1-21.2,14.3h-49.3a30.44,30.44,0,0,1-26.5-15.284l-13.805-23.912a10.034,10.034,0,0,0-17.01-.616l-3.575,5.177a10.4,10.4,0,0,1-18-1.479l-7.272-15.408a9.523,9.523,0,0,0-16.887-.74l-3.2,5.547a15.884,15.884,0,0,1-13.805,7.889h0a12.278,12.278,0,0,1-11.833-9l-29.459-106c-2.342-8.628-14.668-8.5-16.887.123L179.738,100.6c-1.6,5.916-9.984,5.793-11.34-.123L162.112,74.59a16.848,16.848,0,0,0-16.27-12.819H120.45A16.679,16.679,0,0,0,104.427,73.6l-9.738,31.308c-1.873,6.034-2.021,9.2-8.288,10.5-.808.171,1.489,2.009.335,2.009" transform="translate(-78.419 -45.5)"/><path class="o" d="M322.7,166.143a7.286,7.286,0,0,0,7.272,7.272,7.367,7.367,0,0,0,7.272-7.272,7.272,7.272,0,0,0-14.545,0Zm3.575,0a3.821,3.821,0,1,1,3.821,3.821A3.84,3.84,0,0,1,326.273,166.143Z" transform="translate(-85.793 -48.923)"/><path class="o" d="M124.809,60.907a7.286,7.286,0,0,0,7.272,7.272,7.367,7.367,0,0,0,7.272-7.272,7.286,7.286,0,0,0-7.272-7.272A7.367,7.367,0,0,0,124.809,60.907Zm3.575,0a3.821,3.821,0,1,1,3.821,3.821A3.84,3.84,0,0,1,128.384,60.907Z" transform="translate(-79.819 -45.746)"/><path class="o" d="M533.3,217.872a7.286,7.286,0,0,0,7.272,7.272,7.367,7.367,0,0,0,7.272-7.272,7.286,7.286,0,0,0-7.272-7.272A7.367,7.367,0,0,0,533.3,217.872Zm3.575,0a3.821,3.821,0,1,1,3.821,3.821A3.84,3.84,0,0,1,536.873,217.872Z" transform="translate(-92.151 -50.484)"/></g><g transform="translate(3.451 9.213)"><path class="p" d="M76.639,237.7l11.093-74.942a3.822,3.822,0,0,1,7.519-.247L98.7,178.045a6.039,6.039,0,0,0,10.847,2.219l2.219-3.082a7.314,7.314,0,0,1,12.079.123l45.483,69.272a18.366,18.366,0,0,0,15.408,8.258h6.286a18.738,18.738,0,0,0,16.517-10.107L232.933,195.3a12.985,12.985,0,0,1,22.926-.37l22.187,39.936a28.5,28.5,0,0,0,24.9,14.545H372.71a28.051,28.051,0,0,0,27.61-23.419l23.3-141.749a6.493,6.493,0,0,1,12.819,0l5.177,31.678c1.233,7.149,11.463,7.149,12.7,0l9-54.234c1.479-8.751,14.052-9,15.777-.247l10.724,55.1a12.023,12.023,0,0,0,11.833,9.738h22.433a13.791,13.791,0,0,1,12.7,8.628l21.817,53.865a10.388,10.388,0,0,0,19.352-.247l6.779-17.873" transform="translate(-76.639 -55)"/><path class="k" d="M369.216,254.984a7.286,7.286,0,0,0,7.272,7.272,7.367,7.367,0,0,0,7.272-7.272,7.286,7.286,0,0,0-7.272-7.272A7.367,7.367,0,0,0,369.216,254.984Zm3.575,0a3.821,3.821,0,1,1,3.821,3.821A3.84,3.84,0,0,1,372.791,254.984Z" transform="translate(-85.472 -60.817)"/><path class="k" d="M521.986,127.633a7.286,7.286,0,0,0,7.272,7.272,7.367,7.367,0,0,0,7.272-7.272,7.286,7.286,0,0,0-7.272-7.272A7.367,7.367,0,0,0,521.986,127.633Zm3.575,0a3.821,3.821,0,1,1,3.821,3.821A3.84,3.84,0,0,1,525.561,127.633Z" transform="translate(-90.084 -56.973)"/><path class="k" d="M84.265,164.11a7.286,7.286,0,0,0,7.272,7.272,7.367,7.367,0,0,0,7.272-7.272,7.272,7.272,0,0,0-14.545,0Zm3.575,0a3.821,3.821,0,1,1,3.821,3.821A3.84,3.84,0,0,1,87.84,164.11Z" transform="translate(-76.87 -58.074)"/></g><g transform="translate(0 157.197)"><path class="q" d="M203.1,294.13a7.286,7.286,0,0,0,7.272,7.272,7.367,7.367,0,0,0,7.272-7.272,7.272,7.272,0,1,0-14.545,0Zm3.451,0a3.821,3.821,0,1,1,3.821,3.821A3.84,3.84,0,0,1,206.552,294.13Z" transform="translate(-77.006 -209.984)"/><path class="q" d="M465.428,264.77a7.286,7.286,0,0,0,7.272,7.272,7.367,7.367,0,0,0,7.272-7.272,7.272,7.272,0,0,0-14.545,0Zm3.575,0a3.821,3.821,0,1,1,3.821,3.821A3.84,3.84,0,0,1,469,264.77Z" transform="translate(-84.925 -209.097)"/><path class="r" d="M73.081,324.277h93.554a10.526,10.526,0,0,0,7.642-3.2l27.487-27.487a11.038,11.038,0,0,1,7.642-3.2H324.531a10.722,10.722,0,0,0,9.984-6.779l29.706-73.463a4.085,4.085,0,0,1,7.4-.37l25.761,50.906a4.115,4.115,0,0,0,3.575,2.219h55.467a10.674,10.674,0,0,1,9.368,5.423l15.284,26.747a10.974,10.974,0,0,0,9.368,5.423h93.924" transform="translate(-73.081 -207.591)"/></g></g><g transform="translate(187.84 197.153)"><g transform="translate(0 6.147)"><path class="s" d="M320.787,322.8l-53.865-5.67c7.765-28.35,16.394-54.481,26.5-77.407,4.191-12.079-5.793-18.119-11.956-19.475-9.245-1.972-18.366,5.793-22.926,14.545-11.833,22.8-27.364,70.258-27.733,94.664a15.724,15.724,0,0,0,13.928,15.531s3.2,0,3.944-.123l59.9-2.712c5.547-.123,21.2-3.821,21.447-9.368h0C330.4,327.239,326.334,322.555,320.787,322.8Z" transform="translate(-230.808 -219.94)"/><path class="a" d="M321.281,343.59c3.7,1.849,10.6-.863,14.791-2.958a9.681,9.681,0,0,1,6.9-.74c1.6.37,4.437.986,6.779,1.356a7.631,7.631,0,0,0,6.286-1.972l1.6-1.479a2.139,2.139,0,0,0-.37-3.451l-19.722-8.628a20.707,20.707,0,0,0-12.819,0c-.74.247-1.356.493-2.1.74-7.4,2.835-8.258,13.189-1.356,17.01C321.158,343.59,321.158,343.59,321.281,343.59Z" transform="translate(-233.397 -223.102)"/><path class="t" d="M337.026,322.8l53.865-5.67c-7.765-28.35-16.394-54.481-26.5-77.407-4.191-12.079,5.793-18.119,11.956-19.475,9.245-1.972,18.366,5.793,22.926,14.545,11.833,22.8,27.364,70.258,27.733,94.664a15.724,15.724,0,0,1-13.928,15.531s-3.2,0-3.944-.123l-59.9-2.712c-5.547-.123-21.2-3.821-21.447-9.368h0C327.412,327.239,331.48,322.555,337.026,322.8Z" transform="translate(-233.735 -219.94)"/><path class="a" d="M338.322,343.59c-3.7,1.849-10.6-.863-14.791-2.958a9.681,9.681,0,0,0-6.9-.74c-1.6.37-4.437.986-6.779,1.356a7.631,7.631,0,0,1-6.286-1.972l-1.6-1.479a2.139,2.139,0,0,1,.37-3.451l19.722-8.628a20.707,20.707,0,0,1,12.819,0c.74.247,1.356.493,2.1.74,7.4,2.835,8.258,13.189,1.356,17.01C338.445,343.59,338.445,343.59,338.322,343.59Z" transform="translate(-232.934 -223.102)"/></g><path class="u" d="M385.434,229.919c.74-6.163-4.807-9.614-11.463-11.463-30.322-6.656-61.383-6.286-92.938,0-7.4,1.726-12.2,5.423-11.463,11.463l2.588,88.87H383.092Z" transform="translate(-231.976 -213.601)"/></g><g transform="translate(211.876 231.096)"><path class="q" d="M408.434,335.253H255.592V254.148a5.524,5.524,0,0,1,5.547-5.547H403.01a5.524,5.524,0,0,1,5.547,5.547v81.105Z" transform="translate(-255.592 -248.601)"/><path class="v" d="M402.887,248.6a5.524,5.524,0,0,1,5.547,5.547v81.105H255.592V315.408C290.351,269.925,340.518,248.6,402.887,248.6Z" transform="translate(-255.592 -248.601)"/><path class="q" d="M405.106,349.167H258.92a3.314,3.314,0,0,1-3.328-3.328V337.95H408.557v7.889A3.5,3.5,0,0,1,405.106,349.167Z" transform="translate(-255.592 -251.299)"/><ellipse class="a" cx="11.217" cy="8.998" rx="11.217" ry="8.998" transform="translate(65.204 40.183)"/></g><g transform="translate(32.167 70.982)"><g transform="translate(212.581 37.935)"><ellipse class="a" cx="12.449" cy="6.656" rx="12.449" ry="6.656" transform="translate(56.784 62.326) rotate(-73.662)"/><path class="a" d="M350.658,218.151c-14.175,12.942-29.213,11.586-44.99,0l4.068-22.8H346.59Z" transform="translate(-289.975 -124.814)"/><ellipse class="a" cx="26.994" cy="40.922" rx="26.994" ry="40.922" transform="translate(11.625 6.439)"/><path class="w" d="M346.844,202.689c-4.807,6.656-11.217,10.6-18.119,10.6-7.272,0-13.928-4.437-18.736-11.586" transform="translate(-290.106 -125.005)"/><path class="k" d="M374.895,149.518c-.986-1.479-2.712-2.1-4.807-1.972,3.2-4.314,4.314-9,2.219-11.586-1.726-2.1-5.423-1.972-9.121.123,1.849-5.177,1.726-9.861-.616-11.463-2.465-1.726-6.779.37-10.477,4.93-1.849-.863-4.191-1.726-7.149-2.835-16.024-6.286-35.129-5.177-44,2.219-9.614,8.875-9,24.775-9,24.775s1.233,12.079,4.068,17.01l5.054-5.67c19.105-14.545,37.225,7.642,55.22,4.068,3.451-.863,5.916-1.726,7.519-3.081a16.89,16.89,0,0,0,5.3-3.081C374.525,158.763,377.114,152.723,374.895,149.518Z" transform="translate(-289.561 -122.618)"/><ellipse class="a" cx="6.656" cy="12.449" rx="6.656" ry="12.449" transform="translate(0 42.232) rotate(-16.338)"/><ellipse class="k" cx="6.287" cy="13.929" rx="6.287" ry="13.929" transform="translate(45.208 37.377) rotate(-41.964)"/><ellipse class="k" cx="6.286" cy="13.928" rx="6.286" ry="13.928" transform="matrix(0.864, -0.503, 0.503, 0.864, 33.951, 28.73)"/></g><g transform="translate(480.211 173.463)"><path class="x" d="M569.521,320.261h60.151a4.1,4.1,0,0,0,4.068-4.068v-40.8a4.1,4.1,0,0,0-4.068-4.068H576.423l-8.5-8.5a1.423,1.423,0,0,0-2.465.986v52.385A3.95,3.95,0,0,0,569.521,320.261Z" transform="translate(-565.448 -262.365)"/><g transform="translate(8.757 21.781)"><line class="y" x1="4.068" transform="translate(0 23.173)"/><line class="y" x1="39.566" transform="translate(9.738 23.173)"/><line class="y" x1="10.354" transform="translate(0 17.38)"/><line class="y" x1="33.896" transform="translate(15.407 17.38)"/><line class="y" x1="29.089" transform="translate(0 11.586)"/><line class="y" x1="5.177" transform="translate(44.127 11.586)"/><line class="y" x1="7.889" transform="translate(0 5.793)"/><line class="y" x1="34.759" transform="translate(14.545 5.793)"/><line class="y" x1="42.525" transform="translate(6.779)"/></g></g><path class="z" d="M71.641,132.56h75.189a4.1,4.1,0,0,0,4.068-4.068V87.57a4.1,4.1,0,0,0-4.068-4.068H86.555a4.1,4.1,0,0,0-4.068,4.068v31.555l-11.71,10.97A1.4,1.4,0,0,0,71.641,132.56Z" transform="translate(-70.289 -83.503)"/><g transform="translate(21.32 10.724)"><line class="y" x2="5.423" transform="translate(43.881)"/><line class="y" x2="5.054" transform="translate(35.992)"/><line class="y" x2="33.157"/><line class="y" x2="49.304" transform="translate(0 6.286)"/><line class="y" x2="38.95" transform="translate(0 12.573)"/><line class="y" x2="10.724" transform="translate(38.58 18.859)"/><line class="y" x2="17.503" transform="translate(16.887 18.859)"/><line class="y" x2="9.244" transform="translate(0 18.859)"/><line class="y" x2="9.738" transform="translate(39.566 25.145)"/><line class="y" x2="16.517" transform="translate(19.475 25.145)"/><line class="y" x2="13.559" transform="translate(0 25.145)"/></g></g></g></svg>