<svg xmlns="http://www.w3.org/2000/svg" xmlns:xlink="http://www.w3.org/1999/xlink" viewBox="10097 124.894 774 380"><defs><style>.a{fill:#fff}.b{fill:#d9edf6}.c{fill:#eaeacd}.d{fill:#c8cbac}.e{fill:url(#a)}.f{fill:url(#b)}.g{fill:url(#c)}.h{fill:url(#d)}.i{fill:url(#e)}.j{fill:url(#f)}.k{fill:#f2751c}.l{fill:url(#g)}.m{fill:#fecc4d}.n,.p,.r,.w,.y{fill:none;stroke-linecap:round;stroke-miterlimit:10}.n{stroke:#239b6a;stroke-dasharray:4 5}.n,.p,.r{stroke-width:1.906px}.o{fill:#239b6a}.p{stroke:#f2751c}.q{fill:#1f46e7}.r{stroke:#1f46e7;stroke-dasharray:2 3}.s{fill:url(#h)}.t{fill:url(#i)}.u{fill:#4ccd9b}.v{fill:url(#j)}.w{stroke:#c8cbac;stroke-width:1.266px}.x,.z{fill-rule:evenodd}.x{fill:url(#k)}.y{stroke:#fff;stroke-width:1.144px}.z{fill:url(#l)}</style><linearGradient id="a" x1=".003" y1=".502" x2="1" y2=".502" gradientUnits="objectBoundingBox"><stop offset="0" stop-color="#4263eb"/><stop offset="1" stop-color="#1f46e7"/></linearGradient><linearGradient id="b" x1="-4.532" y1="-29.185" x2="-3.187" y2="-29.185" xlink:href="#a"/><linearGradient id="c" x1="-16.67" y1="35.973" x2="-15.179" y2="35.973" xlink:href="#a"/><linearGradient id="d" x1="-96.114" y1="35.791" x2="-94.272" y2="35.791" xlink:href="#a"/><linearGradient id="e" x1="-89.174" y1="-32.394" x2="-87.892" y2="-32.394" xlink:href="#a"/><linearGradient id="f" x1="-105.382" y1="-49.066" x2="-102.722" y2="-49.066" xlink:href="#a"/><linearGradient id="g" x1="1.011" y1="-.099" x2="1.011" y2="-1.024" gradientUnits="objectBoundingBox"><stop offset="0" stop-color="#f2751c"/><stop offset="1" stop-color="#ffc400"/></linearGradient><linearGradient id="h" x1=".228" y1="1.089" x2=".723" y2=".399" gradientUnits="objectBoundingBox"><stop offset="0" stop-color="#239b6a"/><stop offset="1" stop-color="#4ccd9b"/></linearGradient><linearGradient id="i" x1=".912" y1="1.084" x2=".304" y2=".454" xlink:href="#h"/><linearGradient id="j" x1=".5" y1=".999" x2=".5" y2="0" xlink:href="#a"/><linearGradient id="k" x1="-.72" y1=".425" x2=".282" y2=".425" xlink:href="#a"/><linearGradient id="l" x1="0" y1=".499" x2="1" y2=".499" xlink:href="#h"/></defs><path class="a" d="M10097 124.894h774v380h-774z"/><path class="b" d="M10240.978 453.859h567c-54.6-25.638-35.129-84.31-81.968-117.713-37.594-28.72-56.7 0-98.731-26.131-44-29.582-32.91-92.445-109.332-92.445-73.093 0-64.1 64.1-100.21 85.912-36.978 21.324-59.658 8.628-85.419 27.117-55.841 41.662-1.977 114.632-91.34 123.26z"/><path class="b" d="M10424.019 269.956c1.356 18.859-17.133 31.185-34.39 27.487-13.559-3.7-14.791-20.954-7.4-30.815s20.954-14.791 33.65-9.121a17.073 17.073 0 0 1 8.14 12.449zm238.508 17.01c3.082 6.163 3.2 15.038-3.575 18.366-11.463 4.807-26.131-1.109-29.706-12.942-2.342-12.2 8.751-19.229 22.187-14.421a25.234 25.234 0 0 1 11.094 8.997zm-30.692-18.736a7.735 7.735 0 0 1-8.012 8.382 9.148 9.148 0 0 1-8.751-8.875 7.8 7.8 0 0 1 8.012-8.382 9.529 9.529 0 0 1 8.751 8.875z"/><g transform="translate(10710.968 333.804)"><circle class="c" cx="28.227" cy="28.227" r="28.227"/><path class="d" d="M43.511 52.015A28.3 28.3 0 0 1 0 28.226c13.682 0 34.39 8.505 43.511 23.789z"/><path class="e" d="M21.57 35.869l-3.2-9.984a1.348 1.348 0 0 1 .493-1.6l8.5-6.163a1.3 1.3 0 0 1 1.6 0l8.5 6.163a1.348 1.348 0 0 1 .493 1.6l-3.2 9.984a1.442 1.442 0 0 1-1.356.986H22.926a1.442 1.442 0 0 1-1.356-.986z"/><path class="f" d="M44.004 11.094l3.451-3.575a27.718 27.718 0 0 0-6.656-4.561A29.46 29.46 0 0 0 33.157.37l-.74 4.93a.825.825 0 0 0 .493.863l10.107 5.054a.746.746 0 0 0 .987-.123z"/><path class="g" d="M16.764 7.889l-2.219-4.437a29.183 29.183 0 0 0-11.217 11.34l4.437 2.219a.93.93 0 0 0 .986-.123l7.889-8.012a.746.746 0 0 0 .124-.987z"/><path class="h" d="M5.301 32.788l-4.93.74a28.476 28.476 0 0 0 7.272 14.175l3.451-3.575a.746.746 0 0 0 .123-.986L6.04 33.157c0-.246-.37-.493-.739-.369z"/><path class="i" d="M25.392 51.4l-.74 4.93a28.974 28.974 0 0 0 15.777-2.588l-2.219-4.437a.825.825 0 0 0-.863-.493l-11.092 1.845a1.081 1.081 0 0 0-.863.743z"/><path class="j" d="M50.66 26.008l-1.726 11.093a.825.825 0 0 0 .493.863l4.437 2.219a29.44 29.44 0 0 0 2.465-15.777l-4.93.74a.9.9 0 0 0-.739.862z"/></g><g transform="translate(10232.103 218.775)"><circle class="k" cx="28.227" cy="28.227" r="28.227" transform="translate(0 .15)"/><path class="l" d="M42.895 4.094A27.918 27.918 0 0 0 22.434.643 28.226 28.226 0 0 0 12.08 51.426z"/><circle class="m" cx="20.584" cy="20.584" r="20.584" transform="translate(7.642 7.793)"/><path class="k" d="M37.101 28.623c.123.247.37.37 0 0a7.561 7.561 0 0 0-4.191-2.1 25.952 25.952 0 0 0-3.082-.247l-1.356-6.41a5.464 5.464 0 0 1 2.465.37 2.684 2.684 0 0 1 .986.616 1.7 1.7 0 0 1 .37.493.934.934 0 0 1 .247.493 1.657 1.657 0 0 0 1.726.74 1.57 1.57 0 0 0 1.356-1.356 1.31 1.31 0 0 0-.123-.986c-.123-.247-.123-.37-.247-.616s-.247-.37-.37-.616a11.422 11.422 0 0 0-1.726-1.726 8.661 8.661 0 0 0-4.93-1.233h-.74l-.123-1.479a1.708 1.708 0 0 0-1.356-1.356 1.812 1.812 0 0 0-1.726.616 1.712 1.712 0 0 0-.247 1.356l.37 1.849a9.32 9.32 0 0 0-4.191 2.958 4.566 4.566 0 0 0-.986 2.219 6.109 6.109 0 0 0 0 2.588 5.611 5.611 0 0 0 .986 2.342 5.457 5.457 0 0 0 1.849 1.479 12.89 12.89 0 0 0 4.807.986l1.479 6.779a4.444 4.444 0 0 1-2.465-.74c-.37-.247-.616-.493-.986-.74-.123-.123-.247-.37-.37-.493a.934.934 0 0 1-.247-.493 1.656 1.656 0 0 0-1.726-.863 1.909 1.909 0 0 0-1.479 1.233 1.361 1.361 0 0 0 0 .986.64.64 0 0 0 .247.493c.123.247.247.37.37.616a8.3 8.3 0 0 0 1.726 1.849 9.035 9.035 0 0 0 4.684 1.726h.863l.37 1.972a1.708 1.708 0 0 0 1.356 1.356 1.812 1.812 0 0 0 1.726-.616 1.712 1.712 0 0 0 .247-1.356l-.37-1.837a8.721 8.721 0 0 0 4.437-2.712 6.2 6.2 0 0 0 1.479-4.561 4.213 4.213 0 0 0-1.109-3.579zM26.87 26.158c-.37 0-.863-.123-1.109-.123a4.7 4.7 0 0 1-1.233-.37 1.572 1.572 0 0 1-.863-.616 2.082 2.082 0 0 1-.37-1.233 4.624 4.624 0 0 1 .123-1.233 3.945 3.945 0 0 1 2.342-2.1zm8.751 7.149c-.37 1.356-1.849 2.1-3.081 2.588l-1.356-6.163a7.947 7.947 0 0 1 2.465.37 4.379 4.379 0 0 1 1.109.493 2.211 2.211 0 0 1 .616.863 2.39 2.39 0 0 1 .248 1.849z"/></g><path class="n" d="M10780.239 283.884h-12.207a17.622 17.622 0 0 0-17.626 17.626 25.04 25.04 0 0 1-25.022 25.022h-22.68a21.616 21.616 0 0 1-20.584-14.791l-8.258-24.529a12.475 12.475 0 0 0-23.419-.616l-7.272 18.366a22.8 22.8 0 0 1-21.2 14.3h-49.3a30.44 30.44 0 0 1-26.5-15.284l-13.805-23.912a10.034 10.034 0 0 0-17.01-.616l-3.575 5.177a10.4 10.4 0 0 1-18-1.479l-7.272-15.408a9.523 9.523 0 0 0-16.887-.74l-3.2 5.547a15.884 15.884 0 0 1-13.805 7.889 12.278 12.278 0 0 1-11.833-9l-29.459-106c-2.342-8.628-14.668-8.5-16.887.123l-13.068 48.562c-1.6 5.916-9.984 5.793-11.34-.123l-6.286-25.887a16.848 16.848 0 0 0-16.27-12.819h-25.392a16.679 16.679 0 0 0-16.023 11.829l-9.738 31.308c-1.873 6.034-2.021 9.2-8.288 10.5-.808.171 1.489 2.009.335 2.009"/><path class="o" d="M10516.958 276.241a7.286 7.286 0 0 0 7.272 7.272 7.367 7.367 0 0 0 7.272-7.272 7.272 7.272 0 0 0-14.545 0zm3.575 0a3.821 3.821 0 1 1 3.821 3.821 3.84 3.84 0 0 1-3.823-3.821zm-195.492-102.059a7.286 7.286 0 0 0 7.272 7.272 7.367 7.367 0 0 0 7.272-7.272 7.286 7.286 0 0 0-7.272-7.272 7.367 7.367 0 0 0-7.272 7.272zm3.575 0a3.821 3.821 0 1 1 3.821 3.821 3.84 3.84 0 0 1-3.821-3.821zm392.584 152.227a7.286 7.286 0 0 0 7.272 7.272 7.367 7.367 0 0 0 7.272-7.272 7.286 7.286 0 0 0-7.272-7.272 7.367 7.367 0 0 0-7.272 7.272zm3.575 0a3.821 3.821 0 1 1 3.821 3.821 3.84 3.84 0 0 1-3.823-3.821z"/><path class="p" d="M10278.325 350.934l11.093-74.942a3.822 3.822 0 0 1 7.519-.247l3.449 15.534a6.039 6.039 0 0 0 10.847 2.219l2.219-3.082a7.314 7.314 0 0 1 12.079.123l45.483 69.272a18.366 18.366 0 0 0 15.408 8.258h6.286a18.738 18.738 0 0 0 16.517-10.107l25.394-49.428a12.985 12.985 0 0 1 22.926-.37l22.187 39.936a28.5 28.5 0 0 0 24.9 14.545h69.764a28.051 28.051 0 0 0 27.61-23.419l23.3-141.749a6.493 6.493 0 0 1 12.819 0l5.177 31.678c1.233 7.149 11.463 7.149 12.7 0l9-54.234c1.479-8.751 14.052-9 15.777-.247l10.724 55.1a12.023 12.023 0 0 0 11.833 9.738h22.433a13.791 13.791 0 0 1 12.7 8.628l21.817 53.865a10.388 10.388 0 0 0 19.352-.247l6.779-17.873"/><path class="k" d="M10562.069 362.401a7.286 7.286 0 0 0 7.272 7.272 7.367 7.367 0 0 0 7.272-7.272 7.286 7.286 0 0 0-7.272-7.272 7.367 7.367 0 0 0-7.272 7.272zm3.575 0a3.821 3.821 0 1 1 3.821 3.821 3.84 3.84 0 0 1-3.821-3.821zm144.583-123.507a7.286 7.286 0 0 0 7.272 7.272 7.367 7.367 0 0 0 7.272-7.272 7.286 7.286 0 0 0-7.272-7.272 7.367 7.367 0 0 0-7.272 7.272zm3.575 0a3.821 3.821 0 1 1 3.821 3.821 3.84 3.84 0 0 1-3.821-3.821zm-428.082 35.376a7.286 7.286 0 0 0 7.272 7.272 7.367 7.367 0 0 0 7.272-7.272 7.272 7.272 0 0 0-14.545 0zm3.575 0a3.821 3.821 0 1 1 3.821 3.821 3.84 3.84 0 0 1-3.821-3.821z"/><path class="q" d="M10400.968 400.364a7.286 7.286 0 0 0 7.272 7.272 7.367 7.367 0 0 0 7.272-7.272 7.272 7.272 0 1 0-14.545 0zm3.451 0a3.821 3.821 0 1 1 3.821 3.821 3.84 3.84 0 0 1-3.82-3.821zm250.958-28.473a7.286 7.286 0 0 0 7.272 7.272 7.367 7.367 0 0 0 7.272-7.272 7.272 7.272 0 0 0-14.545 0zm3.575 0a3.821 3.821 0 1 1 3.821 3.821 3.84 3.84 0 0 1-3.824-3.821z"/><path class="r" d="M10274.874 432.904h93.554a10.526 10.526 0 0 0 7.642-3.2l27.487-27.487a11.038 11.038 0 0 1 7.642-3.2h115.125a10.722 10.722 0 0 0 9.984-6.779l29.706-73.463a4.085 4.085 0 0 1 7.4-.37l25.761 50.906a4.115 4.115 0 0 0 3.575 2.219h55.467a10.674 10.674 0 0 1 9.368 5.423l15.284 26.747a10.974 10.974 0 0 0 9.368 5.423h93.924"/><path class="s" d="M10517.819 431.054l-53.865-5.67c7.765-28.35 16.394-54.481 26.5-77.407 4.191-12.079-5.793-18.119-11.956-19.475-9.245-1.972-18.366 5.793-22.926 14.545-11.833 22.8-27.364 70.258-27.733 94.664a15.724 15.724 0 0 0 13.928 15.531s3.2 0 3.944-.123l59.9-2.712c5.547-.123 21.2-3.821 21.447-9.368.374-5.546-3.692-10.23-9.239-9.985z"/><path class="a" d="M10515.724 448.682c3.7 1.849 10.6-.863 14.791-2.958a9.681 9.681 0 0 1 6.9-.74c1.6.37 4.437.986 6.779 1.356a7.631 7.631 0 0 0 6.286-1.972l1.6-1.479a2.139 2.139 0 0 0-.37-3.451l-19.722-8.628a20.707 20.707 0 0 0-12.819 0c-.74.247-1.356.493-2.1.74-7.4 2.835-8.258 13.189-1.356 17.01-.112.122-.112.122.011.122z"/><path class="t" d="M10531.131 431.054l53.865-5.67c-7.765-28.35-16.394-54.481-26.5-77.407-4.191-12.079 5.793-18.119 11.956-19.475 9.245-1.972 18.366 5.793 22.926 14.545 11.833 22.8 27.364 70.258 27.733 94.664a15.724 15.724 0 0 1-13.928 15.531s-3.2 0-3.944-.123l-59.9-2.712c-5.547-.123-21.2-3.821-21.447-9.368-.375-5.546 3.693-10.23 9.239-9.985z"/><path class="a" d="M10533.228 448.682c-3.7 1.849-10.6-.863-14.791-2.958a9.681 9.681 0 0 0-6.9-.74c-1.6.37-4.437.986-6.779 1.356a7.631 7.631 0 0 1-6.286-1.972l-1.6-1.479a2.139 2.139 0 0 1 .37-3.451l19.722-8.628a20.707 20.707 0 0 1 12.819 0c.74.247 1.356.493 2.1.74 7.4 2.835 8.258 13.189 1.356 17.01.112.122.112.122-.011.122z"/><path class="u" d="M10581.298 338.365c.74-6.163-4.807-9.614-11.463-11.463-30.322-6.656-61.383-6.286-92.938 0-7.4 1.726-12.2 5.423-11.463 11.463l2.588 88.87h110.934z"/><g transform="translate(10451.876 355.99)"><path class="q" d="M152.842 86.652H0V5.547A5.524 5.524 0 0 1 5.547 0h141.871a5.524 5.524 0 0 1 5.547 5.547v81.105z"/><path class="v" d="M147.295-.001a5.524 5.524 0 0 1 5.547 5.547v81.105H0V66.807C34.759 21.324 84.926-.001 147.295-.001z"/><path class="q" d="M149.514 97.868H3.328A3.314 3.314 0 0 1 0 94.54v-7.889h152.965v7.889a3.5 3.5 0 0 1-3.451 3.328z"/><ellipse class="a" cx="11.217" cy="8.998" rx="11.217" ry="8.998" transform="translate(65.204 40.183)"/></g><g transform="translate(10484.748 233.811)"><ellipse class="a" cx="12.449" cy="6.656" rx="12.449" ry="6.656" transform="rotate(-73.662 70.001 -6.747)"/><path class="a" d="M60.683 93.337c-14.175 12.942-29.213 11.586-44.99 0l4.068-22.8h36.854z"/><ellipse class="a" cx="26.994" cy="40.922" rx="26.994" ry="40.922" transform="translate(11.625 6.439)"/><path class="w" d="M56.738 77.684c-4.807 6.656-11.217 10.6-18.119 10.6-7.272 0-13.928-4.437-18.736-11.586"/><path class="k" d="M85.334 26.9c-.986-1.479-2.712-2.1-4.807-1.972 3.2-4.314 4.314-9 2.219-11.586-1.726-2.1-5.423-1.972-9.121.123 1.849-5.177 1.726-9.861-.616-11.463-2.465-1.726-6.779.37-10.477 4.93-1.849-.863-4.191-1.726-7.149-2.835-16.024-6.286-35.129-5.177-44 2.219-9.614 8.875-9 24.775-9 24.775s1.233 12.079 4.068 17.01l5.054-5.67c19.105-14.545 37.225 7.642 55.22 4.068 3.451-.863 5.916-1.726 7.519-3.081a16.89 16.89 0 0 0 5.3-3.081c5.42-4.192 8.009-10.232 5.79-13.437z"/><ellipse class="a" cx="6.656" cy="12.449" rx="6.656" ry="12.449" transform="rotate(-16.338 147.099 21.116)"/><ellipse class="k" cx="6.287" cy="13.929" rx="6.287" ry="13.929" transform="rotate(-41.964 71.335 -40.252)"/><ellipse class="k" cx="6.286" cy="13.928" rx="6.286" ry="13.928" transform="rotate(-30.23 70.233 -48.508)"/></g><path class="x" d="M10756.451 427.235h60.151a4.1 4.1 0 0 0 4.068-4.068v-40.8a4.1 4.1 0 0 0-4.068-4.068h-53.249l-8.5-8.5a1.423 1.423 0 0 0-2.465.986v52.385a3.95 3.95 0 0 0 4.063 4.065z"/><path class="y" d="M10765.203 414.293h-4.068m49.304 0h-39.566m.616-5.793h-10.354m49.303 0h-33.896m13.682-5.794h-29.089m49.304 0h-5.177m-36.238-5.793h-7.889m49.304 0h-34.759m34.759-5.793h-42.525"/><path class="z" d="M10273.519 244.933h75.189a4.1 4.1 0 0 0 4.068-4.068v-40.922a4.1 4.1 0 0 0-4.068-4.068h-60.275a4.1 4.1 0 0 0-4.068 4.068v31.555l-11.71 10.97a1.4 1.4 0 0 0 .864 2.465z"/><path class="y" d="M10337.368 206.6h5.423m-13.312 0h5.054m-41.046 0h33.157m-33.157 6.286h49.304m-49.304 6.287h38.95m-.37 6.286h10.724m-32.417 0h17.503m-34.39 0h9.244m30.322 6.286h9.738m-29.829 0h16.517m-35.992 0h13.559"/></svg>