<?xml version="1.0" encoding="utf-8"?>
<!-- Generator: Adobe Illustrator 16.0.0, SVG Export Plug-In . SVG Version: 6.00 Build 0)  -->
<!DOCTYPE svg PUBLIC "-//W3C//DTD SVG 1.1//EN" "http://www.w3.org/Graphics/SVG/1.1/DTD/svg11.dtd">
<svg version="1.1" id="Слой_1" xmlns="http://www.w3.org/2000/svg" xmlns:xlink="http://www.w3.org/1999/xlink" x="0px" y="0px"
	 width="360px" height="120px" viewBox="0 0 360 120" enable-background="new 0 0 360 120" xml:space="preserve">
<rect fill="#FFFFFF" width="360" height="120"/>
<g>
	<defs>
		<rect id="SVGID_1_" width="360" height="120"/>
	</defs>
	<clipPath id="SVGID_2_">
		<use xlink:href="#SVGID_1_"  overflow="visible"/>
	</clipPath>
	<path clip-path="url(#SVGID_2_)" fill-rule="evenodd" clip-rule="evenodd" fill="#D9EDF6" d="M12,101.167h336l-23.358-3.602
		c-7.313-1.128-14.016-4.702-19.079-10.097c-7.985-8.51-16.135-15.638-26.549-17.989c-19.349-3.858-32.003,4.934-49.978,9.123
		c-5.498,1.003-11.088-1.203-14.418-5.691l-4.934-6.649c-2.143-2.889-5.447-4.689-9.037-4.924c-2.735-0.179-4.907-2.367-5.071-5.104
		c-0.877-14.69-7.704-27.409-20.757-27.409c-20.726,0-23.367,31.837-36.429,32.236c-13.095,0.199-15.038-20.876-31.031-20.129
		c-22.569,2.093-28.5,43.355-37.964,48.278C56.989,96.234,35.358,99.896,12,101.167"/>
	<path clip-path="url(#SVGID_2_)" fill-rule="evenodd" clip-rule="evenodd" fill="#D9EDF6" d="M63.277,70.82
		c-2.836,7.891-10.147,12.919-18.992,11.813c-6.576-1.196-10.164-7.772-6.576-13.751c5.978-7.772,18.533-12.555,25.064-3.727
		c0.007,0.01,0.013,0.021,0.02,0.031C63.826,66.871,63.945,68.962,63.277,70.82"/>
	
		<path clip-path="url(#SVGID_2_)" fill="none" stroke="#4263EB" stroke-linecap="round" stroke-miterlimit="10" stroke-dasharray="3.466,3.466" d="
		M323.394,66.388h-51.049c-5.08,0-9.952,2.018-13.544,5.61l-6.549,6.549c-3.593,3.593-8.466,5.61-13.546,5.61h-83.953
		c-5.081,0-9.953,2.019-13.545,5.61l-0.096,0.096c-3.592,3.593-8.464,5.61-13.544,5.61H36.606"/>
	
		<path clip-path="url(#SVGID_2_)" fill="none" stroke="#F2751C" stroke-linecap="round" stroke-miterlimit="10" stroke-dasharray="0.466,2.328" d="
		M36.606,82.785h41.979c0.547,0,1.052-0.292,1.326-0.766l6.055-10.488c0.604-1.045,2.124-1.014,2.683,0.057l4.246,8.127
		c0.616,1.178,2.338,1.065,2.794-0.183l9.289-25.397c0.502-1.373,2.459-1.328,2.897,0.067l8.643,27.511
		c0.201,0.638,0.792,1.072,1.461,1.072h14.672c0.64,0,1.212-0.398,1.435-0.997l12.857-34.567c0.493-1.326,2.366-1.331,2.866-0.008
		l7.485,19.821c0.225,0.596,0.795,0.989,1.432,0.989h15.013c0.605,0,1.154-0.356,1.399-0.909l11.184-25.205
		c0.245-0.553,0.794-0.91,1.399-0.91h20.608c0.62,0,1.179-0.374,1.415-0.946l6.857-16.607c0.236-0.573,0.795-0.947,1.415-0.947
		h34.074c0.571,0,1.097,0.32,1.359,0.828l5.458,10.569c0.264,0.509,0.788,0.828,1.36,0.828h20.695c0.625,0,1.188-0.38,1.421-0.961
		l3.741-9.337c0.507-1.265,2.291-1.286,2.827-0.033l3.008,7.017c0.549,1.279,2.382,1.222,2.849-0.09l5.327-14.954
		c0.217-0.61,0.795-1.017,1.441-1.017h21.814"/>
	
		<path clip-path="url(#SVGID_2_)" fill="none" stroke="#239B6A" stroke-width="0.708" stroke-linecap="round" stroke-miterlimit="10" d="
		M36.606,69.119h6.92c1.116,0,2.199,0.378,3.073,1.073l24.079,19.142c0.782,0.62,1.941,0.309,2.306-0.619l6.292-16.003
		c0.497-1.266,2.293-1.252,2.771,0.021l3.745,9.957c0.502,1.335,2.415,1.262,2.814-0.107l5.832-19.979
		c0.184-0.634,0.765-1.069,1.425-1.069h41.752c0.526,0,1.013,0.279,1.279,0.732l7.231,12.305c0.46,0.783,1.51,0.974,2.215,0.401
		l4.909-3.981c0.264-0.214,0.594-0.331,0.935-0.331h27.171c0.558,0,1.07-0.313,1.323-0.811l9.228-18.128
		c0.557-1.092,2.12-1.079,2.657,0.022l8.158,16.719c0.574,1.176,2.277,1.088,2.728-0.141l7.725-21.064
		c0.479-1.306,2.329-1.296,2.793,0.015l5.214,14.709c0.21,0.593,0.77,0.989,1.398,0.989h14.845c0.667,0,1.252-0.445,1.431-1.087
		l4.843-17.406c0.18-0.642,0.765-1.086,1.431-1.086h18.852c0.538,0,1.034,0.291,1.296,0.761l5.091,9.127
		c0.617,1.108,2.249,0.981,2.689-0.208l2.586-6.999c0.215-0.583,0.771-0.97,1.393-0.97h17.823c0.549,0,1.054-0.304,1.312-0.789
		l4.662-8.776c0.258-0.485,0.763-0.789,1.312-0.789h21.251"/>
	<path clip-path="url(#SVGID_2_)" fill="#239B6A" d="M44.377,66.62c-1.381,0-2.5,1.119-2.5,2.5c0,1.38,1.119,2.5,2.5,2.5
		c1.381,0,2.5-1.12,2.5-2.5C46.877,67.739,45.758,66.62,44.377,66.62 M44.377,70.409c-0.712,0-1.289-0.577-1.289-1.289
		c0-0.713,0.577-1.29,1.289-1.29c0.712,0,1.289,0.577,1.289,1.29C45.666,69.832,45.089,70.409,44.377,70.409"/>
	<path clip-path="url(#SVGID_2_)" fill="#F2751C" d="M87.313,68.351c-1.381,0-2.5,1.118-2.5,2.5c0,1.38,1.119,2.5,2.5,2.5
		s2.5-1.12,2.5-2.5C89.813,69.469,88.693,68.351,87.313,68.351 M87.313,72.14c-0.712,0-1.289-0.577-1.289-1.289
		c0-0.714,0.577-1.29,1.289-1.29s1.289,0.576,1.289,1.29C88.602,71.563,88.024,72.14,87.313,72.14"/>
	<path clip-path="url(#SVGID_2_)" fill="#239B6A" d="M71.453,87.156c-1.381,0-2.5,1.119-2.5,2.5c0,1.38,1.119,2.5,2.5,2.5
		c1.381,0,2.5-1.12,2.5-2.5C73.953,88.275,72.834,87.156,71.453,87.156 M71.453,90.945c-0.712,0-1.289-0.577-1.289-1.289
		c0-0.713,0.577-1.29,1.289-1.29c0.712,0,1.289,0.577,1.289,1.29C72.742,90.368,72.165,90.945,71.453,90.945"/>
	<path clip-path="url(#SVGID_2_)" fill="#4263EB" d="M84.772,92.959c-1.381,0-2.5,1.119-2.5,2.5c0,1.38,1.119,2.5,2.5,2.5
		c1.381,0,2.5-1.12,2.5-2.5C87.272,94.078,86.153,92.959,84.772,92.959 M84.772,96.748c-0.712,0-1.289-0.577-1.289-1.289
		c0-0.713,0.577-1.29,1.289-1.29c0.712,0,1.289,0.577,1.289,1.29C86.062,96.171,85.484,96.748,84.772,96.748"/>
	<path clip-path="url(#SVGID_2_)" fill="#4263EB" d="M292.562,63.888c-1.381,0-2.5,1.119-2.5,2.5s1.119,2.5,2.5,2.5
		s2.5-1.119,2.5-2.5S293.942,63.888,292.562,63.888 M292.562,67.677c-0.712,0-1.289-0.576-1.289-1.289s0.577-1.29,1.289-1.29
		s1.289,0.577,1.289,1.29S293.273,67.677,292.562,67.677"/>
	<path clip-path="url(#SVGID_2_)" fill="#239B6A" d="M301.345,32.25c-1.382,0-2.5,1.119-2.5,2.5c0,1.38,1.118,2.5,2.5,2.5
		c1.381,0,2.5-1.12,2.5-2.5C303.845,33.37,302.726,32.25,301.345,32.25 M301.345,36.04c-0.713,0-1.289-0.577-1.289-1.289
		c0-0.713,0.576-1.29,1.289-1.29c0.712,0,1.288,0.577,1.288,1.29C302.633,35.462,302.057,36.04,301.345,36.04"/>
	<path clip-path="url(#SVGID_2_)" fill="#239B6A" d="M276.201,43.014c-1.381,0-2.5,1.119-2.5,2.5c0,1.38,1.119,2.5,2.5,2.5
		s2.5-1.12,2.5-2.5C278.701,44.133,277.582,43.014,276.201,43.014 M276.201,46.803c-0.712,0-1.289-0.577-1.289-1.289
		c0-0.713,0.577-1.29,1.289-1.29s1.289,0.577,1.289,1.29C277.49,46.226,276.913,46.803,276.201,46.803"/>
	<path clip-path="url(#SVGID_2_)" fill="#F2751C" d="M287.562,20.597c-1.381,0-2.5,1.119-2.5,2.5c0,1.38,1.119,2.5,2.5,2.5
		s2.5-1.12,2.5-2.5C290.062,21.716,288.942,20.597,287.562,20.597 M287.562,24.386c-0.712,0-1.289-0.577-1.289-1.289
		c0-0.713,0.577-1.29,1.289-1.29s1.289,0.577,1.289,1.29C288.851,23.809,288.273,24.386,287.562,24.386"/>
</g>
<g>
	<defs>
		<path id="SVGID_3_" d="M235.56,7.829l-17.073,48.839l44.328,15.497l17.072-48.839c0.122-0.346-0.061-0.726-0.408-0.847
			l-43.07-15.058c-0.073-0.026-0.147-0.038-0.22-0.038C235.913,7.383,235.656,7.555,235.56,7.829"/>
	</defs>
	<clipPath id="SVGID_4_">
		<use xlink:href="#SVGID_3_"  overflow="visible"/>
	</clipPath>
	
		<linearGradient id="SVGID_5_" gradientUnits="userSpaceOnUse" x1="0" y1="120" x2="1" y2="120" gradientTransform="matrix(0 -64.7814 -64.7814 0 8022.9512 72.1563)">
		<stop  offset="0" style="stop-color:#F2751C"/>
		<stop  offset="1" style="stop-color:#FFC400"/>
	</linearGradient>
	<rect x="218.486" y="7.383" clip-path="url(#SVGID_4_)" fill="url(#SVGID_5_)" width="61.522" height="64.782"/>
</g>
<g>
	<defs>
		<rect id="SVGID_6_" width="360" height="120"/>
	</defs>
	<clipPath id="SVGID_7_">
		<use xlink:href="#SVGID_6_"  overflow="visible"/>
	</clipPath>
	<path clip-path="url(#SVGID_7_)" fill="#FFFFFF" d="M259.772,80.931l-42.27-14.778c-1.148-0.4-0.053-1.023,0.335-2.13l2.278-6.52
		c0.388-1.106,1.631-1.678,2.78-1.276l40.556,14.178"/>
	<path clip-path="url(#SVGID_7_)" fill="#1F46E7" d="M259.772,80.931l-42.229-14.763c-1.172-0.41-1.788-1.69-1.38-2.861l2.338-6.685
		c0.409-1.17,1.689-1.788,2.86-1.378l42.229,14.763"/>
	<path clip-path="url(#SVGID_7_)" fill="#FFFFFF" d="M262.765,72.371l-40.54-14.173c-0.708-0.247-1.481,0.126-1.729,0.834
		l-1.299,3.714c-0.247,0.708,0.126,1.481,0.833,1.729l40.54,14.173"/>
	<polyline clip-path="url(#SVGID_7_)" fill="#CECECE" points="259.053,74.092 225.465,62.351 225.75,61.535 259.338,73.277 	"/>
	<polygon clip-path="url(#SVGID_7_)" fill="#FFC400" points="228.114,62.361 230.152,63.074 228.955,66.497 227.144,64.614 
		224.531,65.021 225.75,61.534 	"/>
	<path clip-path="url(#SVGID_7_)" fill="#FECC4D" d="M267.742,32.941l-27.199-9.509c-0.286-0.1-0.438-0.413-0.337-0.7l2.451-7.014
		c0.101-0.286,0.414-0.437,0.7-0.337l27.2,9.509c0.286,0.1,0.437,0.413,0.337,0.7l-2.452,7.014
		C268.343,32.89,268.028,33.041,267.742,32.941"/>
	<path clip-path="url(#SVGID_7_)" fill="#FECC4D" d="M266.271,37.149l-27.2-9.509c-0.286-0.1-0.437-0.413-0.337-0.7l0.341-0.976
		c0.101-0.286,0.414-0.437,0.7-0.337l27.2,9.509c0.286,0.1,0.437,0.414,0.337,0.7l-0.341,0.976
		C266.871,37.098,266.558,37.249,266.271,37.149"/>
</g>
<g>
	<defs>
		<path id="SVGID_8_" d="M123.111,29c-0.541,0-0.979,0.438-0.979,0.979v70.034c0,0.541,0.438,0.979,0.979,0.979h117.375
			c0.541,0,0.979-0.438,0.979-0.979V29.979c0-0.541-0.438-0.979-0.979-0.979H123.111z"/>
	</defs>
	<clipPath id="SVGID_9_">
		<use xlink:href="#SVGID_8_"  overflow="visible"/>
	</clipPath>
	
		<linearGradient id="SVGID_10_" gradientUnits="userSpaceOnUse" x1="0" y1="120" x2="1" y2="120" gradientTransform="matrix(0 -71.9919 -71.9919 0 8820.8379 101)">
		<stop  offset="0" style="stop-color:#1F46E7"/>
		<stop  offset="1" style="stop-color:#4263EB"/>
	</linearGradient>
	<rect x="122.132" y="29" clip-path="url(#SVGID_9_)" fill="url(#SVGID_10_)" width="119.333" height="71.992"/>
</g>
<g>
	<defs>
		<rect id="SVGID_11_" width="360" height="120"/>
	</defs>
	<clipPath id="SVGID_12_">
		<use xlink:href="#SVGID_11_"  overflow="visible"/>
	</clipPath>
	<path clip-path="url(#SVGID_12_)" fill="#D9EDF6" d="M234.169,99.492H129.428c-0.57,0-1.032-0.462-1.032-1.032V31.532
		c0-0.57,0.462-1.032,1.032-1.032h104.741c0.57,0,1.032,0.462,1.032,1.032V98.46C235.201,99.03,234.739,99.492,234.169,99.492"/>
	<path clip-path="url(#SVGID_12_)" fill="#FFFFFF" d="M228.857,95.474h-94.117c-0.566,0-1.025-0.459-1.025-1.024V31.525
		c0-0.566,0.459-1.025,1.025-1.025h94.117c0.566,0,1.025,0.459,1.025,1.025v62.924C229.883,95.015,229.424,95.474,228.857,95.474"/>
	<polygon clip-path="url(#SVGID_12_)" fill-rule="evenodd" clip-rule="evenodd" fill="#D9EDF6" points="204.25,95.458 
		182.266,95.458 182.266,30.484 186.679,30.484 	"/>
	
		<line clip-path="url(#SVGID_12_)" fill="none" stroke="#C8CBAC" stroke-width="0.65" stroke-linecap="round" stroke-miterlimit="10" x1="173.769" y1="39.158" x2="176.871" y2="39.158"/>
	
		<line clip-path="url(#SVGID_12_)" fill="none" stroke="#C8CBAC" stroke-width="0.65" stroke-linecap="round" stroke-miterlimit="10" x1="138.464" y1="39.158" x2="169.319" y2="39.158"/>
	
		<line clip-path="url(#SVGID_12_)" fill="none" stroke="#C8CBAC" stroke-width="0.65" stroke-linecap="round" stroke-miterlimit="10" x1="168.852" y1="44.296" x2="176.872" y2="44.296"/>
	
		<line clip-path="url(#SVGID_12_)" fill="none" stroke="#C8CBAC" stroke-width="0.65" stroke-linecap="round" stroke-miterlimit="10" x1="138.464" y1="44.296" x2="164.944" y2="44.296"/>
	
		<line clip-path="url(#SVGID_12_)" fill="none" stroke="#C8CBAC" stroke-width="0.65" stroke-linecap="round" stroke-miterlimit="10" x1="154.243" y1="49.434" x2="176.871" y2="49.434"/>
	
		<line clip-path="url(#SVGID_12_)" fill="none" stroke="#C8CBAC" stroke-width="0.65" stroke-linecap="round" stroke-miterlimit="10" x1="138.464" y1="49.434" x2="142.57" y2="49.434"/>
	
		<line clip-path="url(#SVGID_12_)" fill="none" stroke="#C8CBAC" stroke-width="0.65" stroke-linecap="round" stroke-miterlimit="10" x1="170.725" y1="54.571" x2="176.872" y2="54.571"/>
	
		<line clip-path="url(#SVGID_12_)" fill="none" stroke="#C8CBAC" stroke-width="0.65" stroke-linecap="round" stroke-miterlimit="10" x1="138.464" y1="54.571" x2="165.573" y2="54.571"/>
	
		<line clip-path="url(#SVGID_12_)" fill="none" stroke="#C8CBAC" stroke-width="0.65" stroke-linecap="round" stroke-miterlimit="10" x1="138.464" y1="59.709" x2="171.604" y2="59.709"/>
	
		<line clip-path="url(#SVGID_12_)" fill="none" stroke="#C8CBAC" stroke-width="0.65" stroke-linecap="round" stroke-miterlimit="10" x1="172.598" y1="65.016" x2="176.871" y2="65.016"/>
	
		<line clip-path="url(#SVGID_12_)" fill="none" stroke="#C8CBAC" stroke-width="0.65" stroke-linecap="round" stroke-miterlimit="10" x1="166.51" y1="65.016" x2="170.432" y2="65.016"/>
	
		<line clip-path="url(#SVGID_12_)" fill="none" stroke="#C8CBAC" stroke-width="0.65" stroke-linecap="round" stroke-miterlimit="10" x1="138.464" y1="65.016" x2="164.314" y2="65.016"/>
	
		<line clip-path="url(#SVGID_12_)" fill="none" stroke="#C8CBAC" stroke-width="0.65" stroke-linecap="round" stroke-miterlimit="10" x1="138.464" y1="70.85" x2="176.872" y2="70.85"/>
	
		<line clip-path="url(#SVGID_12_)" fill="none" stroke="#C8CBAC" stroke-width="0.65" stroke-linecap="round" stroke-miterlimit="10" x1="138.464" y1="76.684" x2="168.852" y2="76.684"/>
	
		<line clip-path="url(#SVGID_12_)" fill="none" stroke="#C8CBAC" stroke-width="0.65" stroke-linecap="round" stroke-miterlimit="10" x1="168.471" y1="82.518" x2="176.872" y2="82.518"/>
	
		<line clip-path="url(#SVGID_12_)" fill="none" stroke="#C8CBAC" stroke-width="0.65" stroke-linecap="round" stroke-miterlimit="10" x1="151.641" y1="82.518" x2="165.222" y2="82.518"/>
	
		<line clip-path="url(#SVGID_12_)" fill="none" stroke="#C8CBAC" stroke-width="0.65" stroke-linecap="round" stroke-miterlimit="10" x1="138.464" y1="82.518" x2="145.669" y2="82.518"/>
	
		<line clip-path="url(#SVGID_12_)" fill="none" stroke="#C8CBAC" stroke-width="0.65" stroke-linecap="round" stroke-miterlimit="10" x1="169.32" y1="88.351" x2="176.871" y2="88.351"/>
	
		<line clip-path="url(#SVGID_12_)" fill="none" stroke="#C8CBAC" stroke-width="0.65" stroke-linecap="round" stroke-miterlimit="10" x1="153.658" y1="88.351" x2="166.51" y2="88.351"/>
	
		<line clip-path="url(#SVGID_12_)" fill="none" stroke="#C8CBAC" stroke-width="0.65" stroke-linecap="round" stroke-miterlimit="10" x1="138.464" y1="88.351" x2="149.006" y2="88.351"/>
	
		<line clip-path="url(#SVGID_12_)" fill="none" stroke="#C8CBAC" stroke-width="0.65" stroke-linecap="round" stroke-miterlimit="10" x1="189.828" y1="39.158" x2="186.727" y2="39.158"/>
	
		<line clip-path="url(#SVGID_12_)" fill="none" stroke="#C8CBAC" stroke-width="0.65" stroke-linecap="round" stroke-miterlimit="10" x1="225.133" y1="39.158" x2="194.277" y2="39.158"/>
	
		<line clip-path="url(#SVGID_12_)" fill="none" stroke="#C8CBAC" stroke-width="0.65" stroke-linecap="round" stroke-miterlimit="10" x1="194.746" y1="44.296" x2="186.726" y2="44.296"/>
	
		<line clip-path="url(#SVGID_12_)" fill="none" stroke="#C8CBAC" stroke-width="0.65" stroke-linecap="round" stroke-miterlimit="10" x1="225.133" y1="44.296" x2="198.653" y2="44.296"/>
	
		<line clip-path="url(#SVGID_12_)" fill="none" stroke="#C8CBAC" stroke-width="0.65" stroke-linecap="round" stroke-miterlimit="10" x1="209.354" y1="49.434" x2="186.727" y2="49.434"/>
	
		<line clip-path="url(#SVGID_12_)" fill="none" stroke="#C8CBAC" stroke-width="0.65" stroke-linecap="round" stroke-miterlimit="10" x1="225.133" y1="49.434" x2="221.027" y2="49.434"/>
	
		<line clip-path="url(#SVGID_12_)" fill="none" stroke="#C8CBAC" stroke-width="0.65" stroke-linecap="round" stroke-miterlimit="10" x1="186.726" y1="54.571" x2="225.133" y2="54.571"/>
	
		<line clip-path="url(#SVGID_12_)" fill="none" stroke="#C8CBAC" stroke-width="0.65" stroke-linecap="round" stroke-miterlimit="10" x1="206.418" y1="59.709" x2="186.727" y2="59.709"/>
	
		<line clip-path="url(#SVGID_12_)" fill="none" stroke="#C8CBAC" stroke-width="0.65" stroke-linecap="round" stroke-miterlimit="10" x1="225.133" y1="59.709" x2="213.043" y2="59.709"/>
	
		<line clip-path="url(#SVGID_12_)" fill="none" stroke="#C8CBAC" stroke-width="0.65" stroke-linecap="round" stroke-miterlimit="10" x1="196.418" y1="65.016" x2="186.726" y2="65.016"/>
	
		<line clip-path="url(#SVGID_12_)" fill="none" stroke="#C8CBAC" stroke-width="0.65" stroke-linecap="round" stroke-miterlimit="10" x1="225.133" y1="65.016" x2="199.283" y2="65.016"/>
	
		<line clip-path="url(#SVGID_12_)" fill="none" stroke="#C8CBAC" stroke-width="0.65" stroke-linecap="round" stroke-miterlimit="10" x1="225.133" y1="70.85" x2="186.727" y2="70.85"/>
	
		<line clip-path="url(#SVGID_12_)" fill="none" stroke="#C8CBAC" stroke-width="0.65" stroke-linecap="round" stroke-miterlimit="10" x1="198.653" y1="76.684" x2="186.726" y2="76.684"/>
	
		<line clip-path="url(#SVGID_12_)" fill="none" stroke="#C8CBAC" stroke-width="0.65" stroke-linecap="round" stroke-miterlimit="10" x1="225.133" y1="76.684" x2="207.418" y2="76.684"/>
	
		<line clip-path="url(#SVGID_12_)" fill="none" stroke="#C8CBAC" stroke-width="0.65" stroke-linecap="round" stroke-miterlimit="10" x1="186.727" y1="82.518" x2="211.957" y2="82.518"/>
	
		<line clip-path="url(#SVGID_12_)" fill="none" stroke="#C8CBAC" stroke-width="0.65" stroke-linecap="round" stroke-miterlimit="10" x1="225.133" y1="82.518" x2="217.928" y2="82.518"/>
	
		<line clip-path="url(#SVGID_12_)" fill="none" stroke="#C8CBAC" stroke-width="0.65" stroke-linecap="round" stroke-miterlimit="10" x1="194.277" y1="88.351" x2="186.726" y2="88.351"/>
	
		<line clip-path="url(#SVGID_12_)" fill="none" stroke="#C8CBAC" stroke-width="0.65" stroke-linecap="round" stroke-miterlimit="10" x1="209.939" y1="88.351" x2="197.088" y2="88.351"/>
	
		<line clip-path="url(#SVGID_12_)" fill="none" stroke="#C8CBAC" stroke-width="0.65" stroke-linecap="round" stroke-miterlimit="10" x1="225.133" y1="88.351" x2="214.591" y2="88.351"/>
	
		<line clip-path="url(#SVGID_12_)" fill="none" stroke="#1F46E7" stroke-miterlimit="10" x1="181.799" y1="30.5" x2="181.799" y2="99.492"/>
</g>
<g>
	<defs>
		<path id="SVGID_13_" d="M100.741,47.657c-1.682,0-3.045,1.363-3.045,3.044v17.44v12.787v8.559c0,0.973,1.176,1.461,1.865,0.772
			l6.286-6.287h39.476c1.681,0,3.044-1.362,3.044-3.044V50.701c0-1.681-1.363-3.044-3.044-3.044H100.741z"/>
	</defs>
	<clipPath id="SVGID_14_">
		<use xlink:href="#SVGID_13_"  overflow="visible"/>
	</clipPath>
	
		<linearGradient id="SVGID_15_" gradientUnits="userSpaceOnUse" x1="0" y1="120" x2="1" y2="120" gradientTransform="matrix(0 -42.9248 42.9248 0 -5027.9434 90.5938)">
		<stop  offset="0" style="stop-color:#F2751C"/>
		<stop  offset="1" style="stop-color:#FFC400"/>
	</linearGradient>
	<rect x="97.696" y="47.657" clip-path="url(#SVGID_14_)" fill="url(#SVGID_15_)" width="50.671" height="43.291"/>
</g>
<g>
	<defs>
		<rect id="SVGID_16_" width="360" height="120"/>
	</defs>
	<clipPath id="SVGID_17_">
		<use xlink:href="#SVGID_16_"  overflow="visible"/>
	</clipPath>
	<path clip-path="url(#SVGID_17_)" fill-rule="evenodd" clip-rule="evenodd" fill="#F2751C" d="M148.367,50.701V80.93
		c0,1.681-1.363,3.044-3.044,3.044h-39.476l-6.286,6.287c-0.688,0.688-1.865,0.199-1.865-0.773V80.93
		C124.235,80.648,140.679,70.119,148.367,50.701"/>
	
		<line clip-path="url(#SVGID_17_)" fill="none" stroke="#FFFFFF" stroke-width="0.931" stroke-linecap="round" stroke-miterlimit="10" x1="140.634" y1="55.115" x2="144.026" y2="55.115"/>
	
		<line clip-path="url(#SVGID_17_)" fill="none" stroke="#FFFFFF" stroke-width="0.931" stroke-linecap="round" stroke-miterlimit="10" x1="102.037" y1="55.115" x2="135.77" y2="55.115"/>
	
		<line clip-path="url(#SVGID_17_)" fill="none" stroke="#FFFFFF" stroke-width="0.931" stroke-linecap="round" stroke-miterlimit="10" x1="135.258" y1="60.056" x2="144.026" y2="60.056"/>
	
		<line clip-path="url(#SVGID_17_)" fill="none" stroke="#FFFFFF" stroke-width="0.931" stroke-linecap="round" stroke-miterlimit="10" x1="102.037" y1="60.056" x2="130.986" y2="60.056"/>
	
		<line clip-path="url(#SVGID_17_)" fill="none" stroke="#FFFFFF" stroke-width="0.931" stroke-linecap="round" stroke-miterlimit="10" x1="119.288" y1="64.996" x2="144.026" y2="64.996"/>
	
		<line clip-path="url(#SVGID_17_)" fill="none" stroke="#FFFFFF" stroke-width="0.931" stroke-linecap="round" stroke-miterlimit="10" x1="102.037" y1="64.996" x2="106.526" y2="64.996"/>
	
		<line clip-path="url(#SVGID_17_)" fill="none" stroke="#FFFFFF" stroke-width="0.931" stroke-linecap="round" stroke-miterlimit="10" x1="137.306" y1="69.937" x2="144.026" y2="69.937"/>
	
		<line clip-path="url(#SVGID_17_)" fill="none" stroke="#FFFFFF" stroke-width="0.931" stroke-linecap="round" stroke-miterlimit="10" x1="102.037" y1="69.937" x2="131.674" y2="69.937"/>
	
		<line clip-path="url(#SVGID_17_)" fill="none" stroke="#FFFFFF" stroke-width="0.931" stroke-linecap="round" stroke-miterlimit="10" x1="102.037" y1="74.877" x2="138.266" y2="74.877"/>
</g>
<g>
	<defs>
		<path id="SVGID_18_" d="M65.465,24.842v8.514v12.719v17.349c0,1.672,1.356,3.029,3.029,3.029h44.347
			c1.672,0,3.028-1.357,3.028-3.029V33.356c0-1.673-1.356-3.028-3.028-3.028H73.573l-6.253-6.254c-0.221-0.221-0.493-0.32-0.76-0.32
			C66.001,23.754,65.465,24.188,65.465,24.842"/>
	</defs>
	<clipPath id="SVGID_19_">
		<use xlink:href="#SVGID_18_"  overflow="visible"/>
	</clipPath>
	
		<linearGradient id="SVGID_20_" gradientUnits="userSpaceOnUse" x1="-9.765625e-004" y1="120" x2="0.9995" y2="120" gradientTransform="matrix(0 -42.6984 -42.6984 0 5214.4609 66.4375)">
		<stop  offset="0" style="stop-color:#4263EB"/>
		<stop  offset="1" style="stop-color:#1F46E7"/>
	</linearGradient>
	<rect x="65.465" y="23.754" clip-path="url(#SVGID_19_)" fill="url(#SVGID_20_)" width="50.404" height="42.699"/>
</g>
<g>
	<defs>
		<rect id="SVGID_21_" width="360" height="120"/>
	</defs>
	<clipPath id="SVGID_22_">
		<use xlink:href="#SVGID_21_"  overflow="visible"/>
	</clipPath>
	<path clip-path="url(#SVGID_22_)" fill-rule="evenodd" clip-rule="evenodd" fill="#1F46E7" d="M65.465,63.424
		c0,1.672,1.356,3.028,3.028,3.028h44.347c1.673,0,3.028-1.356,3.028-3.028V33.356C93.189,36.211,78.056,48.266,65.465,63.424"/>
	
		<line clip-path="url(#SVGID_22_)" fill="none" stroke="#FFFFFF" stroke-width="0.931" stroke-linecap="round" stroke-miterlimit="10" x1="70.352" y1="38.128" x2="111.75" y2="38.128"/>
	
		<line clip-path="url(#SVGID_22_)" fill="none" stroke="#FFFFFF" stroke-width="0.931" stroke-linecap="round" stroke-miterlimit="10" x1="107.964" y1="43.393" x2="111.75" y2="43.393"/>
	
		<line clip-path="url(#SVGID_22_)" fill="none" stroke="#FFFFFF" stroke-width="0.931" stroke-linecap="round" stroke-miterlimit="10" x1="70.352" y1="43.393" x2="104.368" y2="43.393"/>
	
		<line clip-path="url(#SVGID_22_)" fill="none" stroke="#FFFFFF" stroke-width="0.931" stroke-linecap="round" stroke-miterlimit="10" x1="85.797" y1="48.657" x2="108.958" y2="48.657"/>
	
		<line clip-path="url(#SVGID_22_)" fill="none" stroke="#FFFFFF" stroke-width="0.931" stroke-linecap="round" stroke-miterlimit="10" x1="70.352" y1="48.657" x2="77.555" y2="48.657"/>
	
		<line clip-path="url(#SVGID_22_)" fill="none" stroke="#FFFFFF" stroke-width="0.931" stroke-linecap="round" stroke-miterlimit="10" x1="103.105" y1="53.922" x2="111.75" y2="53.922"/>
	
		<line clip-path="url(#SVGID_22_)" fill="none" stroke="#FFFFFF" stroke-width="0.931" stroke-linecap="round" stroke-miterlimit="10" x1="70.352" y1="53.922" x2="99.193" y2="53.922"/>
	
		<line clip-path="url(#SVGID_22_)" fill="none" stroke="#FFFFFF" stroke-width="0.931" stroke-linecap="round" stroke-miterlimit="10" x1="70.352" y1="59.187" x2="103.61" y2="59.187"/>
</g>
<g>
	<defs>
		<path id="SVGID_23_" d="M233.229,58c-1.672,0-3.027,1.355-3.027,3.027V91.09c0,1.672,1.355,3.028,3.027,3.028h39.235h5.104h10.933
			c0.934,0,1.387-1.144,0.706-1.782l-8.611-8.089v-23.22c0-1.672-1.355-3.027-3.027-3.027H233.229z"/>
	</defs>
	<clipPath id="SVGID_24_">
		<use xlink:href="#SVGID_23_"  overflow="visible"/>
	</clipPath>
	
		<linearGradient id="SVGID_25_" gradientUnits="userSpaceOnUse" x1="-4.882813e-004" y1="120.0049" x2="0.9995" y2="120.0049" gradientTransform="matrix(0 -36.1182 36.1182 0 -4074.3071 94.125)">
		<stop  offset="0" style="stop-color:#239B6A"/>
		<stop  offset="1" style="stop-color:#4CCD9B"/>
	</linearGradient>
	<rect x="230.201" y="58" clip-path="url(#SVGID_24_)" fill="url(#SVGID_25_)" width="59.687" height="36.118"/>
</g>
<g>
	<defs>
		<rect id="SVGID_26_" width="360" height="120"/>
	</defs>
	<clipPath id="SVGID_27_">
		<use xlink:href="#SVGID_26_"  overflow="visible"/>
	</clipPath>
	<path clip-path="url(#SVGID_27_)" fill-rule="evenodd" clip-rule="evenodd" fill="#239B6A" d="M280.596,61.027v23.221l8.612,8.088
		c0.681,0.639,0.228,1.782-0.706,1.782h-10.935h-5.103h-39.236c-1.672,0-3.027-1.355-3.027-3.027
		C241.938,73.696,258.006,62.612,280.596,61.027"/>
	
		<line clip-path="url(#SVGID_27_)" fill="none" stroke="#FFFFFF" stroke-width="0.92" stroke-linecap="round" stroke-miterlimit="10" x1="271.402" y1="65.262" x2="276" y2="65.262"/>
	
		<line clip-path="url(#SVGID_27_)" fill="none" stroke="#FFFFFF" stroke-width="0.92" stroke-linecap="round" stroke-miterlimit="10" x1="264.852" y1="65.262" x2="269.071" y2="65.262"/>
	
		<line clip-path="url(#SVGID_27_)" fill="none" stroke="#FFFFFF" stroke-width="0.92" stroke-linecap="round" stroke-miterlimit="10" x1="234.676" y1="65.262" x2="262.489" y2="65.262"/>
	
		<line clip-path="url(#SVGID_27_)" fill="none" stroke="#FFFFFF" stroke-width="0.92" stroke-linecap="round" stroke-miterlimit="10" x1="234.676" y1="70.66" x2="276" y2="70.66"/>
	
		<line clip-path="url(#SVGID_27_)" fill="none" stroke="#FFFFFF" stroke-width="0.92" stroke-linecap="round" stroke-miterlimit="10" x1="234.676" y1="76.06" x2="267.37" y2="76.06"/>
	
		<line clip-path="url(#SVGID_27_)" fill="none" stroke="#FFFFFF" stroke-width="0.92" stroke-linecap="round" stroke-miterlimit="10" x1="266.961" y1="81.458" x2="276" y2="81.458"/>
	
		<line clip-path="url(#SVGID_27_)" fill="none" stroke="#FFFFFF" stroke-width="0.92" stroke-linecap="round" stroke-miterlimit="10" x1="248.853" y1="81.458" x2="263.466" y2="81.458"/>
	
		<line clip-path="url(#SVGID_27_)" fill="none" stroke="#FFFFFF" stroke-width="0.92" stroke-linecap="round" stroke-miterlimit="10" x1="234.676" y1="81.458" x2="242.428" y2="81.458"/>
	
		<line clip-path="url(#SVGID_27_)" fill="none" stroke="#FFFFFF" stroke-width="0.92" stroke-linecap="round" stroke-miterlimit="10" x1="267.875" y1="86.856" x2="276" y2="86.856"/>
	
		<line clip-path="url(#SVGID_27_)" fill="none" stroke="#FFFFFF" stroke-width="0.92" stroke-linecap="round" stroke-miterlimit="10" x1="251.022" y1="86.856" x2="264.852" y2="86.856"/>
	
		<line clip-path="url(#SVGID_27_)" fill="none" stroke="#FFFFFF" stroke-width="0.92" stroke-linecap="round" stroke-miterlimit="10" x1="234.676" y1="86.856" x2="246.019" y2="86.856"/>
</g>
</svg>
