<svg xmlns="http://www.w3.org/2000/svg" xmlns:xlink="http://www.w3.org/1999/xlink" width="360" height="120" viewBox="0 0 360 120"><path fill="#FFF" d="M0 0h360v120H0z"/><defs><path id="a" d="M0 0h360v120H0z"/></defs><clipPath id="b"><use xlink:href="#a" overflow="visible"/></clipPath><path clip-path="url(#b)" fill-rule="evenodd" clip-rule="evenodd" fill="#D9EDF6" d="M12 101.167h336l-23.358-3.602c-7.313-1.128-14.016-4.702-19.079-10.097-7.985-8.51-16.135-15.638-26.549-17.989-19.349-3.858-32.003 4.934-49.978 9.123a14.673 14.673 0 0 1-14.418-5.691l-4.934-6.649a12.246 12.246 0 0 0-9.037-4.924 5.438 5.438 0 0 1-5.071-5.104c-.877-14.69-7.704-27.409-20.757-27.409-20.726 0-23.367 31.837-36.429 32.236-13.095.199-15.038-20.876-31.031-20.129-22.569 2.093-28.5 43.355-37.964 48.278C56.989 96.234 35.358 99.896 12 101.167"/><path clip-path="url(#b)" fill-rule="evenodd" clip-rule="evenodd" fill="#D9EDF6" d="M63.277 70.82c-2.836 7.891-10.147 12.919-18.992 11.813-6.576-1.196-10.164-7.772-6.576-13.751 5.978-7.772 18.533-12.555 25.064-3.727l.02.031c1.033 1.685 1.152 3.776.484 5.634"/><path clip-path="url(#b)" fill="none" stroke="#4263EB" stroke-linecap="round" stroke-miterlimit="10" stroke-dasharray="3.466,3.466" d="M323.394 66.388h-51.049c-5.08 0-9.952 2.018-13.544 5.61l-6.549 6.549a19.156 19.156 0 0 1-13.546 5.61h-83.953a19.159 19.159 0 0 0-13.545 5.61l-.096.096a19.15 19.15 0 0 1-13.544 5.61H36.606"/><path clip-path="url(#b)" fill="none" stroke="#F2751C" stroke-linecap="round" stroke-miterlimit="10" stroke-dasharray="0.466,2.328" d="M36.606 82.785h41.979c.547 0 1.052-.292 1.326-.766l6.055-10.488c.604-1.045 2.124-1.014 2.683.057l4.246 8.127c.616 1.178 2.338 1.065 2.794-.183l9.289-25.397c.502-1.373 2.459-1.328 2.897.067l8.643 27.511a1.532 1.532 0 0 0 1.461 1.072h14.672c.64 0 1.212-.398 1.435-.997l12.857-34.567c.493-1.326 2.366-1.331 2.866-.008l7.485 19.821a1.53 1.53 0 0 0 1.432.989h15.013a1.53 1.53 0 0 0 1.399-.909l11.184-25.205a1.53 1.53 0 0 1 1.399-.91h20.608a1.53 1.53 0 0 0 1.415-.946l6.857-16.607a1.53 1.53 0 0 1 1.415-.947h34.074c.571 0 1.097.32 1.359.828l5.458 10.569c.264.509.788.828 1.36.828h20.695c.625 0 1.188-.38 1.421-.961l3.741-9.337c.507-1.265 2.291-1.286 2.827-.033l3.008 7.017c.549 1.279 2.382 1.222 2.849-.09l5.327-14.954a1.53 1.53 0 0 1 1.441-1.017h21.814"/><path clip-path="url(#b)" fill="none" stroke="#239B6A" stroke-width=".708" stroke-linecap="round" stroke-miterlimit="10" d="M36.606 69.119h6.92c1.116 0 2.199.378 3.073 1.073l24.079 19.142c.782.62 1.941.309 2.306-.619l6.292-16.003c.497-1.266 2.293-1.252 2.771.021l3.745 9.957c.502 1.335 2.415 1.262 2.814-.107l5.832-19.979a1.483 1.483 0 0 1 1.425-1.069h41.752c.526 0 1.013.279 1.279.732l7.231 12.305c.46.783 1.51.974 2.215.401l4.909-3.981c.264-.214.594-.331.935-.331h27.171c.558 0 1.07-.313 1.323-.811l9.228-18.128c.557-1.092 2.12-1.079 2.657.022l8.158 16.719c.574 1.176 2.277 1.088 2.728-.141l7.725-21.064c.479-1.306 2.329-1.296 2.793.015l5.214 14.709c.21.593.77.989 1.398.989h14.845c.667 0 1.252-.445 1.431-1.087l4.843-17.406a1.487 1.487 0 0 1 1.431-1.086h18.852c.538 0 1.034.291 1.296.761l5.091 9.127c.617 1.108 2.249.981 2.689-.208l2.586-6.999c.215-.583.771-.97 1.393-.97h17.823c.549 0 1.054-.304 1.312-.789l4.662-8.776a1.487 1.487 0 0 1 1.312-.789h21.251"/><path clip-path="url(#b)" fill="#239B6A" d="M44.377 66.62a2.5 2.5 0 1 0 0 5 2.5 2.5 0 0 0 0-5m0 3.789a1.289 1.289 0 1 1 0-2.578 1.289 1.289 0 0 1 0 2.578"/><path clip-path="url(#b)" fill="#F2751C" d="M87.313 68.351a2.499 2.499 0 1 0 0 5 2.5 2.5 0 0 0 0-5m0 3.789a1.289 1.289 0 1 1 0-2.578 1.289 1.289 0 0 1 0 2.578"/><path clip-path="url(#b)" fill="#239B6A" d="M71.453 87.156a2.5 2.5 0 1 0 0 5 2.5 2.5 0 0 0 0-5m0 3.789a1.289 1.289 0 1 1 0-2.578 1.289 1.289 0 0 1 0 2.578"/><path clip-path="url(#b)" fill="#4263EB" d="M84.772 92.959a2.5 2.5 0 1 0 0 5 2.5 2.5 0 0 0 0-5m0 3.789a1.289 1.289 0 1 1 0-2.578 1.289 1.289 0 0 1 0 2.578m207.79-32.86a2.5 2.5 0 1 0 0 5 2.5 2.5 0 0 0 0-5m0 3.789a1.29 1.29 0 1 1 0-2.58 1.29 1.29 0 0 1 0 2.58"/><path clip-path="url(#b)" fill="#239B6A" d="M301.345 32.25a2.499 2.499 0 1 0 0 5 2.5 2.5 0 0 0 0-5m0 3.79a1.288 1.288 0 1 1-.001-2.581 1.288 1.288 0 0 1 .001 2.581m-25.144 6.974a2.5 2.5 0 1 0 0 5 2.5 2.5 0 0 0 0-5m0 3.789a1.289 1.289 0 1 1 0-2.578 1.289 1.289 0 0 1 0 2.578"/><path clip-path="url(#b)" fill="#F2751C" d="M287.562 20.597a2.5 2.5 0 1 0 0 5 2.5 2.5 0 0 0 0-5m0 3.789a1.289 1.289 0 1 1 0-2.578 1.289 1.289 0 0 1 0 2.578"/><defs><path id="c" d="M235.56 7.829l-17.073 48.839 44.328 15.497 17.072-48.839a.664.664 0 0 0-.408-.847l-43.07-15.058a.666.666 0 0 0-.849.408"/></defs><clipPath id="d"><use xlink:href="#c" overflow="visible"/></clipPath><linearGradient id="e" gradientUnits="userSpaceOnUse" x1="0" y1="120" x2="1" y2="120" gradientTransform="matrix(0 -64.7814 -64.7814 0 8022.951 72.156)"><stop offset="0" stop-color="#f2751c"/><stop offset="1" stop-color="#ffc400"/></linearGradient><path clip-path="url(#d)" fill="url(#e)" d="M218.486 7.383h61.522v64.782h-61.522z"/><defs><path id="f" d="M0 0h360v120H0z"/></defs><clipPath id="g"><use xlink:href="#f" overflow="visible"/></clipPath><path clip-path="url(#g)" fill="#FFF" d="M259.772 80.931l-42.27-14.778c-1.148-.4-.053-1.023.335-2.13l2.278-6.52c.388-1.106 1.631-1.678 2.78-1.276l40.556 14.178"/><path clip-path="url(#g)" fill="#1F46E7" d="M259.772 80.931l-42.229-14.763a2.247 2.247 0 0 1-1.38-2.861l2.338-6.685a2.244 2.244 0 0 1 2.86-1.378l42.229 14.763"/><path clip-path="url(#g)" fill="#FFF" d="M262.765 72.371l-40.54-14.173a1.358 1.358 0 0 0-1.729.834l-1.299 3.714a1.358 1.358 0 0 0 .833 1.729l40.54 14.173"/><path clip-path="url(#g)" fill="#CECECE" d="M259.053 74.092l-33.588-11.741.285-.816 33.588 11.742"/><path clip-path="url(#g)" fill="#FFC400" d="M228.114 62.361l2.038.713-1.197 3.423-1.811-1.883-2.613.407 1.219-3.487z"/><path clip-path="url(#g)" fill="#FECC4D" d="M267.742 32.941l-27.199-9.509a.549.549 0 0 1-.337-.7l2.451-7.014a.55.55 0 0 1 .7-.337l27.2 9.509a.55.55 0 0 1 .337.7l-2.452 7.014a.55.55 0 0 1-.7.337m-1.471 4.208l-27.2-9.509a.55.55 0 0 1-.337-.7l.341-.976a.55.55 0 0 1 .7-.337l27.2 9.509a.55.55 0 0 1 .337.7l-.341.976a.55.55 0 0 1-.7.337"/><defs><path id="h" d="M123.111 29a.979.979 0 0 0-.979.979v70.034c0 .541.438.979.979.979h117.375a.979.979 0 0 0 .979-.979V29.979a.979.979 0 0 0-.979-.979H123.111z"/></defs><clipPath id="i"><use xlink:href="#h" overflow="visible"/></clipPath><linearGradient id="j" gradientUnits="userSpaceOnUse" x1="0" y1="120" x2="1" y2="120" gradientTransform="matrix(0 -71.9919 -71.9919 0 8820.838 101)"><stop offset="0" stop-color="#1f46e7"/><stop offset="1" stop-color="#4263eb"/></linearGradient><path clip-path="url(#i)" fill="url(#j)" d="M122.132 29h119.333v71.992H122.132z"/><defs><path id="k" d="M0 0h360v120H0z"/></defs><clipPath id="l"><use xlink:href="#k" overflow="visible"/></clipPath><path clip-path="url(#l)" fill="#D9EDF6" d="M234.169 99.492H129.428c-.57 0-1.032-.462-1.032-1.032V31.532c0-.57.462-1.032 1.032-1.032h104.741c.57 0 1.032.462 1.032 1.032V98.46c0 .57-.462 1.032-1.032 1.032"/><path clip-path="url(#l)" fill="#FFF" d="M228.857 95.474H134.74a1.025 1.025 0 0 1-1.025-1.024V31.525c0-.566.459-1.025 1.025-1.025h94.117c.566 0 1.025.459 1.025 1.025v62.924a1.024 1.024 0 0 1-1.025 1.025"/><path clip-path="url(#l)" fill-rule="evenodd" clip-rule="evenodd" fill="#D9EDF6" d="M204.25 95.458h-21.984V30.484h4.413z"/><path clip-path="url(#l)" fill="none" stroke="#C8CBAC" stroke-width=".65" stroke-linecap="round" stroke-miterlimit="10" d="M173.769 39.158h3.102m-38.407 0h30.855m-.467 5.138h8.02m-38.408 0h26.48m-10.701 5.138h22.628m-38.407 0h4.106m28.155 5.137h6.147m-38.408 0h27.109m-27.109 5.138h33.14m.994 5.307h4.273m-10.361 0h3.922m-31.968 0h25.85m-25.85 5.834h38.408m-38.408 5.834h30.388m-.381 5.834h8.401m-25.231 0h13.581m-26.758 0h7.205m23.651 5.833h7.551m-23.213 0h12.852m-28.046 0h10.542m40.822-49.193h-3.101m38.406 0h-30.856m.469 5.138h-8.02m38.407 0h-26.48m10.701 5.138h-22.627m38.406 0h-4.106m-34.301 5.137h38.407m-18.715 5.138h-19.691m38.406 0h-12.09m-16.625 5.307h-9.692m38.407 0h-25.85m25.85 5.834h-38.406m11.926 5.834h-11.927m38.407 0h-17.715m-20.691 5.834h25.23m13.176 0h-7.205m-23.651 5.833h-7.551m23.213 0h-12.851m28.045 0h-10.542"/><path clip-path="url(#l)" fill="none" stroke="#1F46E7" stroke-miterlimit="10" d="M181.799 30.5v68.992"/><defs><path id="m" d="M100.741 47.657a3.044 3.044 0 0 0-3.045 3.044v38.786c0 .973 1.176 1.461 1.865.772l6.286-6.287h39.476a3.044 3.044 0 0 0 3.044-3.044V50.701a3.044 3.044 0 0 0-3.044-3.044h-44.582z"/></defs><clipPath id="n"><use xlink:href="#m" overflow="visible"/></clipPath><linearGradient id="o" gradientUnits="userSpaceOnUse" x1="0" y1="120" x2="1" y2="120" gradientTransform="rotate(-90 -2468.675 2559.269) scale(42.9248)"><stop offset="0" stop-color="#f2751c"/><stop offset="1" stop-color="#ffc400"/></linearGradient><path clip-path="url(#n)" fill="url(#o)" d="M97.696 47.657h50.671v43.291H97.696z"/><defs><path id="p" d="M0 0h360v120H0z"/></defs><clipPath id="q"><use xlink:href="#p" overflow="visible"/></clipPath><path clip-path="url(#q)" fill-rule="evenodd" clip-rule="evenodd" fill="#F2751C" d="M148.367 50.701V80.93a3.044 3.044 0 0 1-3.044 3.044h-39.476l-6.286 6.287c-.688.688-1.865.199-1.865-.773V80.93c26.539-.282 42.983-10.811 50.671-30.229"/><path clip-path="url(#q)" fill="none" stroke="#FFF" stroke-width=".931" stroke-linecap="round" stroke-miterlimit="10" d="M140.634 55.115h3.392m-41.989 0h33.733m-.512 4.941h8.768m-41.989 0h28.949m-11.698 4.94h24.738m-41.989 0h4.489m30.78 4.941h6.72m-41.989 0h29.637m-29.637 4.94h36.229"/><defs><path id="r" d="M65.465 24.842v38.582a3.03 3.03 0 0 0 3.029 3.029h44.347a3.03 3.03 0 0 0 3.028-3.029V33.356a3.028 3.028 0 0 0-3.028-3.028H73.573l-6.253-6.254a1.086 1.086 0 0 0-1.855.768"/></defs><clipPath id="s"><use xlink:href="#r" overflow="visible"/></clipPath><linearGradient id="t" gradientUnits="userSpaceOnUse" x1="-.001" y1="120" x2="1" y2="120" gradientTransform="matrix(0 -42.6984 -42.6984 0 5214.46 66.438)"><stop offset="0" stop-color="#4263eb"/><stop offset="1" stop-color="#1f46e7"/></linearGradient><path clip-path="url(#s)" fill="url(#t)" d="M65.465 23.754h50.404v42.699H65.465z"/><defs><path id="u" d="M0 0h360v120H0z"/></defs><clipPath id="v"><use xlink:href="#u" overflow="visible"/></clipPath><path clip-path="url(#v)" fill-rule="evenodd" clip-rule="evenodd" fill="#1F46E7" d="M65.465 63.424a3.028 3.028 0 0 0 3.028 3.028h44.347a3.028 3.028 0 0 0 3.028-3.028V33.356c-22.679 2.855-37.812 14.91-50.403 30.068"/><path clip-path="url(#v)" fill="none" stroke="#FFF" stroke-width=".931" stroke-linecap="round" stroke-miterlimit="10" d="M70.352 38.128h41.398m-3.786 5.265h3.786m-41.398 0h34.016m-18.571 5.264h23.161m-38.606 0h7.203m25.55 5.265h8.645m-41.398 0h28.841m-28.841 5.265h33.258"/><defs><path id="w" d="M233.229 58a3.027 3.027 0 0 0-3.027 3.027V91.09a3.028 3.028 0 0 0 3.027 3.028h55.272c.934 0 1.387-1.144.706-1.782l-8.611-8.089v-23.22A3.027 3.027 0 0 0 277.569 58h-44.34z"/></defs><clipPath id="x"><use xlink:href="#w" overflow="visible"/></clipPath><linearGradient id="y" gradientUnits="userSpaceOnUse" x1="0" y1="120.005" x2="1" y2="120.005" gradientTransform="rotate(-90 -1990.091 2084.216) scale(36.1182)"><stop offset="0" stop-color="#239b6a"/><stop offset="1" stop-color="#4ccd9b"/></linearGradient><path clip-path="url(#x)" fill="url(#y)" d="M230.201 58h59.687v36.118h-59.687z"/><defs><path id="z" d="M0 0h360v120H0z"/></defs><clipPath id="A"><use xlink:href="#z" overflow="visible"/></clipPath><path clip-path="url(#A)" fill-rule="evenodd" clip-rule="evenodd" fill="#239B6A" d="M280.596 61.027v23.221l8.612 8.088c.681.639.228 1.782-.706 1.782h-55.274a3.027 3.027 0 0 1-3.027-3.027c11.737-17.395 27.805-28.479 50.395-30.064"/><path clip-path="url(#A)" fill="none" stroke="#FFF" stroke-width=".92" stroke-linecap="round" stroke-miterlimit="10" d="M271.402 65.262H276m-11.148 0h4.219m-34.395 0h27.813m-27.813 5.398H276m-41.324 5.4h32.694m-.409 5.398H276m-27.147 0h14.613m-28.79 0h7.752m25.447 5.398H276m-24.978 0h13.83m-30.176 0h11.343"/></svg>