<svg xmlns="http://www.w3.org/2000/svg" xmlns:xlink="http://www.w3.org/1999/xlink" viewBox="0 0 580 331.555" width="580" height="333"><defs><style>.a{fill:#d9edf6;}.b{fill:url(#a);}.c{fill:#f79311;}.d{fill:#f08132;}.e{fill:#4fcd9c;}.aa,.ab,.ac,.ad,.ae,.f,.i,.k,.z{fill:none;stroke-miterlimit:10;}.ad,.f{stroke:#f2751c;}.ab,.ac,.ad,.ae,.f,.i,.k{stroke-linecap:round;}.f,.i,.k{stroke-width:1.5px;}.f,.i{stroke-dasharray:4.893 4.893;}.g{fill:#fff;}.h{fill:#f2751c;}.i{stroke:#4565e8;}.j{fill:#4565e8;}.k{stroke:#4ccd9b;}.l{fill:#4ccd9b;}.m{fill:#f9c929;}.n{fill:url(#b);}.o{fill:url(#c);}.p{fill:#239b6a;}.q{fill:url(#d);}.r{fill:url(#e);}.s{fill:url(#f);}.t{fill:#c2def9;}.u{fill:#4263eb;}.v{fill:url(#g);}.w{fill:url(#h);}.x{fill:url(#i);}.y{fill:url(#j);}.z{stroke:#1f46e7;stroke-width:1.14px;}.ac,.ad,.z{stroke-linejoin:round;}.aa,.ae{stroke:#e8ebed;stroke-width:1.113px;}.aa{stroke-dasharray:3.269 5.449;}.ab{stroke:#b6d2f6;}.ab,.ac,.ad{stroke-width:1.67px;}.ac{stroke:#4263eb;}</style><linearGradient id="a" x1="0.08" y1="0.501" x2="0.959" y2="0.501" gradientUnits="objectBoundingBox"><stop offset="0" stop-color="#bed8f6"/><stop offset="1" stop-color="#95aaff"/></linearGradient><linearGradient id="b" x1="95.409" y1="16.775" x2="95.409" y2="15.775" gradientUnits="objectBoundingBox"><stop offset="0" stop-color="#faac0f"/><stop offset="1" stop-color="#f8a013"/></linearGradient><linearGradient id="c" x1="47.289" y1="16.775" x2="47.289" y2="15.775" xlink:href="#b"/><linearGradient id="d" x1="0.001" y1="0.504" x2="1.007" y2="0.504" gradientUnits="objectBoundingBox"><stop offset="0" stop-color="#4aca99"/><stop offset="1" stop-color="#29a271"/></linearGradient><linearGradient id="e" x1="21.576" y1="-0.484" x2="21.576" y2="-1.48" gradientUnits="objectBoundingBox"><stop offset="0" stop-color="#4ccd9b"/><stop offset="1" stop-color="#239b6a"/></linearGradient><linearGradient id="f" x1="13.302" y1="-24.615" x2="13.302" y2="-25.925" xlink:href="#d"/><linearGradient id="g" x1="1.431" y1="0.5" x2="2.433" y2="0.5" gradientUnits="objectBoundingBox"><stop offset="0" stop-color="#1f46e7"/><stop offset="1" stop-color="#4263eb"/></linearGradient><linearGradient id="h" x1="2.065" y1="0.431" x2="3.23" y2="0.783" gradientUnits="objectBoundingBox"><stop offset="0" stop-color="#f2751c"/><stop offset="1" stop-color="#ffc400"/></linearGradient><linearGradient id="i" x1="1.835" y1="0.499" x2="2.836" y2="0.499" gradientUnits="objectBoundingBox"><stop offset="0" stop-color="#239b6a"/><stop offset="1" stop-color="#4ccd9b"/></linearGradient><linearGradient id="j" x1="0.5" y1="0.007" x2="0.5" y2="0.988" gradientUnits="objectBoundingBox"><stop offset="0.085" stop-color="#c5dcf6"/><stop offset="0.495" stop-color="#afcef6"/><stop offset="0.849" stop-color="#86b3fc"/></linearGradient></defs><g transform="translate(-45.4 48.674)"><g transform="translate(63.383 52.695)"><path class="a" d="M187.029,56.473C143.011,53.81,125.8,76,123.488,117.263c-2.4,41.266-44.283,19.435-53.779,74.19-13.844,80.047,72.149,94.69,72.149,94.69h60.169" transform="translate(-68.2 -56.258)"/></g><g transform="translate(435.044 47.998)"><path class="a" d="M540.247,51s101.612-2.84,77.651,46.591c-28.043,58.039-9.318,68.954,12.247,80.314,41.887,22.009,55.021,107.736-40.468,107.736H487" transform="translate(-487 -50.966)"/><path class="a" d="M638.425,118.644c-8.874,20.677,11.98,18.015,18.37,14.465,9.407-5.147,10.383-16.95,2.662-22.63C647.3,101.694,638.425,118.644,638.425,118.644Z" transform="translate(-503.8 -57.38)"/><path class="a" d="M627.6,151.921c-2.574,7.1,1.775,9.762,6.212,9.141s7.366-6.922,4.881-10.472C636.211,147.218,629.377,147.04,627.6,151.921Z" transform="translate(-502.739 -61.904)"/></g><g transform="translate(25.4 52.643)"><path class="b" d="M137.4,109.551C111.926,106,97.372,128.1,88.5,127.477c-5.5-.621-7.9-3.461-13.223-3.55-10.117,0-14.288,10.738-25.647,13.312-5.325.621-9.939-2.574-14.643-1.154-4.082.976-6.922,3.195-9.584,6.745H187.181C166.326,135.287,163.93,114.432,137.4,109.551Z" transform="translate(-5.4 -62.162)"/><g transform="translate(19.79 91.85)"><path class="c" d="M55.776,185.106H52.758V182H50.806v3.106H47.7v1.952h3.106v3.106h1.952v-3.106h3.017Z" transform="translate(-38.7 -159.21)"/><path class="d" d="M100.434,164.581h-4.97V159.7H92.27v4.881H87.3v3.284h4.97v4.97h3.195v-4.97h4.97Z" transform="translate(-52.157 -159.7)"/><path class="c" d="M90.776,192.106H87.758V189H85.717v3.106H82.7v1.952h3.017v3.017h2.041v-3.017h3.017Z" transform="translate(-44.64 -149.998)"/></g><path class="e" d="M615.048,95.448H610.7V91.1h-2.751v4.348H603.6v2.84h4.349v4.26H610.7v-4.26h4.349Z" transform="translate(-90.481 -60.128)"/><path class="e" d="M675.948,88.548H671.6V84.2h-2.84v4.348H664.5v2.84h4.26v4.26h2.84v-4.26h4.348Z" transform="translate(-97.335 -59.352)"/><path class="e" d="M652.8,62.412h-6.212V56.2H642.5v6.212h-6.3v4.082h6.3v6.212h4.082V66.494H652.8Z" transform="translate(-94.15 -56.2)"/><g transform="translate(21.831 97.707)"><g transform="translate(448.957 9.851)"><path class="f" d="M555.9,204.822h25.47c2.573,0,4.97-1.952,6.833-5.325l3.195-6.123c1.775-3.461,4.26-5.325,6.833-5.325h41.887c2.574,0,4.97-1.952,6.833-5.325h0c1.775-3.461,4.26-5.325,6.833-5.325h23.162" transform="translate(-555.9 -177.4)"/><circle class="g" cx="2.041" cy="2.041" r="2.041" transform="translate(47.744 8.519)"/><path class="h" d="M615.41,188.8a3.9,3.9,0,1,0-3.9,3.9A3.882,3.882,0,0,0,615.41,188.8Zm-1.864,0a2.041,2.041,0,1,1-2.041-2.041A2.008,2.008,0,0,1,613.546,188.8Z" transform="translate(-561.719 -178.244)"/></g><g transform="translate(9.318 55.465)"><path class="i" d="M119.4,262.079c3.106,3.017,7.011,6.035,11.892,6.035a12.352,12.352,0,0,0,3.9-.621c8.342-2.485,11.093-10.472,14.022-19.08,2.84-8.342,5.857-17.039,14.554-19.612" transform="translate(-67.13 -228.8)"/><path class="i" d="M60.5,290.216c8.342-2.485,11.093-10.561,14.022-19.08,2.84-8.342,5.857-17.039,14.554-19.613s14.643,3.55,19.79,9.052" transform="translate(-60.5 -231.289)"/><circle class="g" cx="2.041" cy="2.041" r="2.041" transform="translate(82.887 9.939)"/><path class="j" d="M155.7,237.9a3.9,3.9,0,1,0,3.9,3.9A3.882,3.882,0,0,0,155.7,237.9Zm0,5.946a2.041,2.041,0,1,1,2.041-2.041A2.064,2.064,0,0,1,155.7,243.846Z" transform="translate(-70.777 -229.824)"/></g><path class="k" d="M197.937,204.283a9.135,9.135,0,0,1-8.7-6.39l-5.147-16.684a8.948,8.948,0,0,0-8.519-6.3H162.084a9.009,9.009,0,0,0-8.7,6.833L150.1,195.5a3.119,3.119,0,0,1-6.035.089l-6.922-25.825a4.632,4.632,0,0,0-8.963,0l-15.619,56.264a6.55,6.55,0,0,1-6.3,4.792h0a8.421,8.421,0,0,1-7.277-4.171L97.3,223.718a5.051,5.051,0,0,0-8.963.444l-3.9,8.253a5.6,5.6,0,0,1-5.147,3.195H63.73" transform="translate(-50 -166.3)"/><path class="l" d="M127.7,200.8a3.9,3.9,0,1,0,3.9,3.9A3.939,3.939,0,0,0,127.7,200.8Zm0,5.857a2.041,2.041,0,1,1,2.041-2.041A2.125,2.125,0,0,1,127.7,206.657Z" transform="translate(-58.307 -170.183)"/><circle class="g" cx="2.041" cy="2.041" r="2.041" transform="translate(67.357 32.48)"/></g><g transform="translate(25.851 161.513)"><path class="m" d="M98.06,67.751l5.236-5.236a21.264,21.264,0,0,0-30,0l5.236,5.236A13.766,13.766,0,0,1,98.06,67.751Z" transform="translate(-67.088 -56.325)"/><path class="d" d="M78.536,91.1,73.3,96.336a21.114,21.114,0,0,0,14.909,6.212V95.093A13.348,13.348,0,0,1,78.536,91.1Z" transform="translate(-67.088 -60.239)"/><path class="d" d="M106.436,63.3,101.2,68.536a13.389,13.389,0,0,1,3.993,9.851h7.455A21,21,0,0,0,106.436,63.3Z" transform="translate(-70.228 -57.11)"/><path class="m" d="M99.951,91.1A13.389,13.389,0,0,1,90.1,95.093v7.455a21.3,21.3,0,0,0,15.087-6.212h0L99.951,91.1Z" transform="translate(-68.979 -60.239)"/><path class="d" d="M77.759,68.525a13.4,13.4,0,0,0-3.993,9.762H66.4A21.3,21.3,0,0,1,72.612,63.2h0l5.147,5.325Z" transform="translate(-66.311 -57.099)"/><path class="n" d="M105.193,80.2a13.713,13.713,0,0,1-3.993,9.673l5.236,5.236A21.114,21.114,0,0,0,112.648,80.2Z" transform="translate(-70.228 -59.012)"/><path class="o" d="M73.755,80.2a13.713,13.713,0,0,0,3.993,9.673l-5.236,5.236A21.114,21.114,0,0,1,66.3,80.2Z" transform="translate(-66.3 -59.012)"/></g><g transform="translate(546.487 126.816)"><path class="l" d="M656.656,243.1,650,249.756a26.674,26.674,0,0,0,37.8,0l-6.656-6.656A17.2,17.2,0,0,1,656.656,243.1Z" transform="translate(-642.191 -204.053)"/><path class="p" d="M684.19,213.122l5.68-5.68a.7.7,0,0,0,0-.976A26.592,26.592,0,0,0,671.5,199.1v9.318a17.285,17.285,0,0,1,11.714,4.615A.633.633,0,0,0,684.19,213.122Z" transform="translate(-644.61 -199.1)"/><path class="p" d="M649.02,248.18l6.656-6.656a16.944,16.944,0,0,1-5.058-12.424H641.3A26.4,26.4,0,0,0,649.02,248.18Z" transform="translate(-641.211 -202.477)"/><path class="l" d="M656.667,213.577a16.945,16.945,0,0,1,12.424-5.058V199.2a26.8,26.8,0,0,0-18.991,7.809h0l6.567,6.567Z" transform="translate(-642.202 -199.111)"/><path class="q" d="M685.2,241.524a16.945,16.945,0,0,0,5.058-12.424h9.318a26.8,26.8,0,0,1-7.809,18.991h0l-6.567-6.567Z" transform="translate(-646.153 -202.477)"/><path class="r" d="M650.607,226.8a17.266,17.266,0,0,1,5.058-12.247L649.01,207.9a26.4,26.4,0,0,0-7.809,18.814h9.407Z" transform="translate(-641.2 -200.091)"/><g transform="translate(0 0)"><path class="e" d="M650.618,229.3H641.3a26.777,26.777,0,0,0,26.8,26.8v-9.318A17.517,17.517,0,0,1,650.618,229.3Z" transform="translate(-641.211 -202.499)"/><path class="p" d="M690.347,226.9h9.318a26.555,26.555,0,0,0-7.81-18.9l-6.656,6.656A17.017,17.017,0,0,1,690.347,226.9Z" transform="translate(-646.153 -200.102)"/><path class="p" d="M641.2,226.891h9.318a17.07,17.07,0,0,1,5.147-12.335L649.01,207.9A26.823,26.823,0,0,0,641.2,226.891Z" transform="translate(-641.2 -200.091)"/><path class="e" d="M671.4,208.507a17.222,17.222,0,0,1,12.335,5.147L690.391,207a26.685,26.685,0,0,0-18.991-7.9h0v9.407Z" transform="translate(-644.599 -199.1)"/><path class="p" d="M671.389,248.275a17.533,17.533,0,0,0,11.98-4.792.54.54,0,0,1,.71,0l5.857,5.857a.662.662,0,0,1,0,.8,26.828,26.828,0,0,1-18.636,7.543h0l.089-9.407Z" transform="translate(-644.588 -204.081)"/><path class="s" d="M656.767,213.477a17.3,17.3,0,0,1,12.247-5.058V199.1A26.2,26.2,0,0,0,650.2,206.91Z" transform="translate(-642.213 -199.1)"/></g></g></g><g transform="translate(126.877 24.6)"><rect class="t" width="18.37" height="213.43" transform="translate(368.868 44.55)"/><rect class="t" width="18.37" height="213.43" transform="translate(26.226 44.55)"/><rect class="h" width="18.37" height="14.022" transform="translate(26.226 44.55)"/><rect class="h" width="18.37" height="14.022" transform="translate(368.868 44.55)"/><rect class="c" width="324.272" height="20.677" transform="translate(44.596)"/><g transform="translate(390.443 206.396)"><path class="u" d="M598.87,281.779c2.662-3.017-1.242-8.963,1.42-11.8,2.84-3.106,6.567,1.952,10.561-.976,2.4-2.041-.532-5.147,2.84-9.851,2.041-2.929,5.5-.178,8.875-1.952a.391.391,0,0,1,.532.355c-.621,3.727,2.751,5.946.621,8.786-3.372,4.615-7.188,2.84-8.431,5.768-1.509,4.7,4.526,6.656,2.485,10.294-1.775,3.372-8.7,1.686-10.649,5.147-2.929,5.68,8.7,9.762,5.591,15.974-4.082,8.164-24.848,4.348-28.221,5.236-.355-9.318-8.786-20.766-2.4-27.245C586.89,276.721,594.433,286.394,598.87,281.779Z" transform="translate(-579.712 -257.174)"/><path class="v" d="M623.6,257.666c-.621,3.727,2.751,5.946.621,8.786-3.372,4.615-7.188,2.84-8.431,5.768-1.509,4.7,4.526,6.656,2.485,10.294-1.775,3.372-8.7,1.686-10.649,5.147-2.929,5.68,8.7,9.762,5.591,15.974-4.082,8.164-23.429,4.526-28.221,5.236v-.089L623.6,257.4Z" transform="translate(-580.307 -257.199)"/></g><path class="w" d="M539.346,306.747h49.164c1.065-1.242,1.864-2.485,1.065-3.9-1.065-1.065-1.864-.533-2.662,0,1.509-5.413,6.478-7.366,5.857-9.5-1.065-2.751-5.68.621-9.5,2.662,1.242-4.792,6.656-6.656,5.147-9.052-.976-1.242-6.478,1.775-10.294,4.082,5.5-10.206,16.418-21.387,13.667-24.138-2.929-2.4-10.916,6.656-16.418,13.045,5.147-17.394,19.879-38.692,15.175-41.089-7.987-3.639-21.742,23.34-31.149,44.195,3.55-11.093,7.721-25.825,2.219-27.511-5.591-1.952-13.578,22.186-16.684,37.628-1.952-5.325-4.26-11.27-8.342-10.206C532.69,284.206,536.773,297.34,539.346,306.747Z" transform="translate(-184.234 -48.679)"/><path class="x" d="M184.344,308.2h-41c-.887-1.065-1.6-2.13-.887-3.195.887-.887,1.509-.444,2.219,0-1.242-4.526-5.413-6.123-4.881-7.9.887-2.307,4.7.533,7.9,2.219-.976-3.993-5.591-5.5-4.26-7.543.8-1.065,5.413,1.509,8.519,3.461-4.615-8.519-13.667-17.838-11.359-20.145,2.4-2.041,9.141,5.591,13.667,10.827-4.26-14.554-16.6-32.214-12.69-34.255,6.656-3.017,18.1,19.435,26,36.829-2.929-9.229-6.478-21.565-1.864-22.985,4.7-1.6,11.359,18.548,13.933,31.327,1.686-4.437,3.55-9.407,7.011-8.519C189.846,289.381,186.474,300.386,184.344,308.2Z" transform="translate(-139.747 -50.127)"/><g transform="translate(55.423 8.697)"><path class="g" d="M219.657,37.506a2.934,2.934,0,1,1-2.929-3.106A3.053,3.053,0,0,1,219.657,37.506Z" transform="translate(-203.506 -34.4)"/><path class="g" d="M231.657,37.506a2.934,2.934,0,1,1-2.929-3.106A3.053,3.053,0,0,1,231.657,37.506Z" transform="translate(-204.856 -34.4)"/><path class="g" d="M208.057,37.506a2.934,2.934,0,1,1-2.929-3.106A3.053,3.053,0,0,1,208.057,37.506Z" transform="translate(-202.2 -34.4)"/></g><path class="y" d="M190,47.9H514.272V285.291H190Z" transform="translate(-145.404 -27.223)"/><g transform="translate(99.529 32.037)"><rect class="g" width="214.317" height="204.644"/><path class="z" d="M466.217,265.256H251.9V60.7" transform="translate(-251.9 -60.7)"/></g><g transform="translate(141.328 72.327)"><line class="aa" x2="136.222"/><line class="aa" x2="136.222" transform="translate(0 15.619)"/><line class="aa" x2="136.222" transform="translate(0 31.238)"/><line class="aa" x2="136.222" transform="translate(0 46.857)"/><line class="aa" x2="136.222" transform="translate(0 62.476)"/><line class="aa" x2="136.222" transform="translate(0 78.095)"/><line class="aa" x2="136.222" transform="translate(0 93.714)"/><line class="aa" x2="136.222" transform="translate(0 109.333)"/></g><g transform="translate(141.328 141.103)"><line class="ab" y2="8.963" transform="translate(0 31.238)"/><line class="ab" y2="21.92" transform="translate(10.294 18.281)"/><line class="ab" y2="37.273" transform="translate(20.589 2.929)"/><line class="ab" y2="20.411" transform="translate(30.883 19.79)"/><line class="ab" y2="30.972" transform="translate(41.177 9.229)"/><line class="ab" y2="40.201" transform="translate(51.56)"/><line class="ab" y2="28.664" transform="translate(61.855 11.537)"/><line class="ab" y2="18.015" transform="translate(72.149 22.186)"/><line class="ab" y2="22.097" transform="translate(82.443 18.104)"/><line class="ab" y2="37.983" transform="translate(92.738 2.219)"/><line class="ab" y2="28.664" transform="translate(103.032 11.537)"/><line class="ab" y2="23.074" transform="translate(113.326 17.128)"/><line class="ab" y2="18.459" transform="translate(123.71 21.742)"/></g><g transform="translate(141.328 76.582)"><path class="ac" d="M299,178.345l40.024-40.734a7.659,7.659,0,0,1,10.383-.533l4.881,4.082a7.664,7.664,0,0,0,10.383-.532l26.889-27.422a7.612,7.612,0,0,1,10.561-.355l16.95,15" transform="translate(-299 -110.895)"/><g transform="translate(116.787 13.849)"><path class="g" d="M433.985,132.37a2.485,2.485,0,0,1,0-4.97,2.485,2.485,0,1,1,0,4.97Z" transform="translate(-430.701 -126.601)"/><path class="u" d="M433.884,128.009a1.775,1.775,0,1,1-1.775,1.775,1.78,1.78,0,0,1,1.775-1.775m0-1.509a3.284,3.284,0,1,0,0,6.567,3.221,3.221,0,0,0,3.284-3.284,3.333,3.333,0,0,0-3.284-3.284Z" transform="translate(-430.6 -126.5)"/></g></g><g transform="translate(141.239 108.511)"><path class="ad" d="M419.237,161.185c-4.349-6.123-9.673-11-17.039-13.578-23.517-6.212-34.876,29.108-42.863,28.4-6.123-.266-9.5-10.561-15.974-10.561-9.318,0-12.957,23.251-23.429,27.777-4.881,1.065-7.188-4.881-11.625-2.485-3.816,1.686-7.011,8.342-9.407,14.465" transform="translate(-298.9 -146.874)"/><g transform="translate(117.054 11.383)"><path class="g" d="M434.174,165.747a2.574,2.574,0,1,1,2.574-2.574A2.575,2.575,0,0,1,434.174,165.747Z" transform="translate(-430.89 -159.801)"/><path class="h" d="M434.084,161.209a1.874,1.874,0,0,1,1.864,1.864,1.82,1.82,0,0,1-1.864,1.864,1.864,1.864,0,1,1,0-3.727m0-1.509a3.276,3.276,0,0,0-3.284,3.284,3.334,3.334,0,0,0,3.284,3.284,3.284,3.284,0,1,0,0-6.567Z" transform="translate(-430.8 -159.7)"/></g></g><line class="ae" x2="173.673" transform="translate(121.005 181.66)"/><path class="j" d="M391.076,85.512H277.306a3.144,3.144,0,0,1-3.106-3.106h0a3.144,3.144,0,0,1,3.106-3.106h113.77a3.144,3.144,0,0,1,3.106,3.106h0A3.144,3.144,0,0,1,391.076,85.512Z" transform="translate(-154.881 -30.757)"/><path class="c" d="M303.4,252.612H277.306a3.144,3.144,0,0,1-3.106-3.106h0a3.144,3.144,0,0,1,3.106-3.106H303.4a3.144,3.144,0,0,1,3.106,3.106h0A3.144,3.144,0,0,1,303.4,252.612Z" transform="translate(-154.881 -49.565)"/><g transform="translate(121.005 72.327)"><line class="ad" x2="9.851"/><line class="ad" x2="9.851" transform="translate(0 15.53)"/><line class="ad" x2="9.851" transform="translate(0 31.149)"/><line class="ad" x2="9.851" transform="translate(0 46.679)"/><line class="ad" x2="9.851" transform="translate(0 62.298)"/><line class="ad" x2="9.851" transform="translate(0 77.917)"/><line class="ad" x2="9.851" transform="translate(0 93.448)"/></g><g transform="translate(284.827 72.327)"><line class="ac" x2="9.851"/><line class="ac" x2="9.851" transform="translate(0 15.53)"/><line class="ac" x2="9.851" transform="translate(0 31.149)"/><line class="ac" x2="9.851" transform="translate(0 46.679)"/><line class="ac" x2="9.851" transform="translate(0 62.298)"/><line class="ac" x2="9.851" transform="translate(0 77.917)"/><line class="ac" x2="9.851" transform="translate(0 93.448)"/></g><line class="ab" x2="36.563" transform="translate(119.408 214.317)"/><line class="ab" x2="48.721" transform="translate(119.23 220.529)"/><path class="l" d="M446.2,252.612H420.106A3.144,3.144,0,0,1,417,249.506h0a3.144,3.144,0,0,1,3.106-3.106H446.2a3.144,3.144,0,0,1,3.106,3.106h0A3.032,3.032,0,0,1,446.2,252.612Z" transform="translate(-170.954 -49.565)"/><line class="ab" x2="36.563" transform="translate(246.223 214.317)"/><line class="ab" x2="48.632" transform="translate(246.046 220.529)"/><path class="j" d="M375.3,252.612H349.206a3.144,3.144,0,0,1-3.106-3.106h0a3.144,3.144,0,0,1,3.106-3.106H375.3a3.144,3.144,0,0,1,3.106,3.106h0A3.087,3.087,0,0,1,375.3,252.612Z" transform="translate(-162.974 -49.565)"/><line class="ab" x2="36.563" transform="translate(183.304 214.317)"/><line class="ab" x2="48.632" transform="translate(183.126 220.529)"/></g><path class="a" d="M448.7,96.617c8.772-1.555,13.769,7.884,16.768,7.551,1.888-.222,2.665-1.444,4.553-1.555,3.442,0,4.886,4.553,8.772,5.663,1.777.222,3.442-1.11,5-.444a5.921,5.921,0,0,1,3.331,2.887H431.6C438.818,107.5,439.6,98.727,448.7,96.617Z" transform="translate(-212.935 -112.241)"/><path class="a" d="M518.792,97.1c-19.908-5.9-31.248,29.908-38.052,28.644-4.284-.842-6.048-5.476-10.332-5.9-7.812,0-11.088,17.271-19.908,21.483-4.032.842-7.812-4.212-11.34-1.685-3.276,1.685-5.292,5.055-7.56,10.952h126C541.22,138.382,539.456,105.1,518.792,97.1Z" transform="translate(59.8 -145.118)"/></g></svg>