<svg xmlns="http://www.w3.org/2000/svg" xmlns:xlink="http://www.w3.org/1999/xlink" viewBox="0 0 580 331.555" width="580" height="333"><defs><style>.a{fill:#d9edf6}.c{fill:#f79311}.d{fill:#f08132}.e{fill:#4fcd9c}.ab,.ac,.ad{fill:none;stroke-miterlimit:10}.ad{stroke:#f2751c}.ab,.ac,.ad{stroke-linecap:round}.g{fill:#fff}.h{fill:#f2751c}.j{fill:#4565e8}.l{fill:#4ccd9b}.m{fill:#f9c929}.p{fill:#239b6a}.u{fill:#4263eb}.ac,.ad{stroke-linejoin:round}.ab{stroke:#b6d2f6}.ab,.ac,.ad{stroke-width:1.67px}.ac{stroke:#4263eb}</style><linearGradient id="a" x1=".08" y1=".501" x2=".959" y2=".501" gradientUnits="objectBoundingBox"><stop offset="0" stop-color="#bed8f6"/><stop offset="1" stop-color="#95aaff"/></linearGradient><linearGradient id="b" x1="95.409" y1="16.775" x2="95.409" y2="15.775" gradientUnits="objectBoundingBox"><stop offset="0" stop-color="#faac0f"/><stop offset="1" stop-color="#f8a013"/></linearGradient><linearGradient id="c" x1="47.289" y1="16.775" x2="47.289" y2="15.775" xlink:href="#b"/><linearGradient id="d" x1=".001" y1=".504" x2="1.007" y2=".504" gradientUnits="objectBoundingBox"><stop offset="0" stop-color="#4aca99"/><stop offset="1" stop-color="#29a271"/></linearGradient><linearGradient id="e" x1="21.576" y1="-.484" x2="21.576" y2="-1.48" gradientUnits="objectBoundingBox"><stop offset="0" stop-color="#4ccd9b"/><stop offset="1" stop-color="#239b6a"/></linearGradient><linearGradient id="f" x1="13.302" y1="-24.615" x2="13.302" y2="-25.925" xlink:href="#d"/><linearGradient id="g" x1="1.431" y1=".5" x2="2.433" y2=".5" gradientUnits="objectBoundingBox"><stop offset="0" stop-color="#1f46e7"/><stop offset="1" stop-color="#4263eb"/></linearGradient><linearGradient id="h" x1="2.065" y1=".431" x2="3.23" y2=".783" gradientUnits="objectBoundingBox"><stop offset="0" stop-color="#f2751c"/><stop offset="1" stop-color="#ffc400"/></linearGradient><linearGradient id="i" x1="1.835" y1=".499" x2="2.836" y2=".499" gradientUnits="objectBoundingBox"><stop offset="0" stop-color="#239b6a"/><stop offset="1" stop-color="#4ccd9b"/></linearGradient><linearGradient id="j" x1=".5" y1=".007" x2=".5" y2=".988" gradientUnits="objectBoundingBox"><stop offset=".085" stop-color="#c5dcf6"/><stop offset=".495" stop-color="#afcef6"/><stop offset=".849" stop-color="#86b3fc"/></linearGradient></defs><path class="a" d="M136.812 101.584c-44.018-2.663-61.229 19.527-63.541 60.79-2.4 41.266-44.283 19.435-53.779 74.19-13.844 80.047 72.149 94.69 72.149 94.69h60.169M442.891 96.706s101.612-2.84 77.651 46.591c-28.043 58.039-9.318 68.954 12.247 80.314 41.887 22.009 55.021 107.736-40.468 107.736H389.644"/><path class="a" d="M524.269 157.936c-8.874 20.677 11.98 18.015 18.37 14.465 9.407-5.147 10.383-16.95 2.662-22.63-12.157-8.785-21.032 8.165-21.032 8.165zm-9.764 28.753c-2.574 7.1 1.775 9.762 6.212 9.141s7.366-6.922 4.881-10.472c-2.482-3.372-9.316-3.55-11.093 1.331z"/><path d="M112 148.706c-25.474-3.551-40.028 18.549-48.9 17.926-5.5-.621-7.9-3.461-13.223-3.55-10.117 0-14.288 10.738-25.647 13.312-5.325.621-9.939-2.574-14.643-1.154-4.082.976-6.922 3.195-9.584 6.745h161.778c-20.855-7.543-23.251-28.398-49.781-33.279z" fill="url(#a)"/><path class="c" d="M16.866 219.063h-3.018v-3.106h-1.952v3.106H8.79v1.952h3.106v3.106h1.952v-3.106h3.017z"/><path class="d" d="M48.067 198.048h-4.97v-4.881h-3.194v4.881h-4.97v3.284h4.97v4.97h3.195v-4.97h4.97z"/><path class="c" d="M45.926 235.275h-3.018v-3.106h-2.041v3.106H37.85v1.952h3.017v3.017h2.041v-3.017h3.017z"/><path class="e" d="M504.567 136.637h-4.348v-4.348h-2.751v4.348h-4.349v2.84h4.349v4.26h2.751v-4.26h4.349zm54.046-6.124h-4.348v-4.348h-2.84v4.348h-4.26v2.84h4.26v4.26h2.84v-4.26h4.348zm-19.963-22.984h-6.212v-6.212h-4.088v6.212h-6.3v4.082h6.3v6.212h4.082v-6.212h6.218z"/><g transform="translate(1.831 199.024)"><g transform="translate(448.957 9.851)"><path d="M0 27.422h25.47c2.573 0 4.97-1.952 6.833-5.325l3.195-6.123c1.775-3.461 4.26-5.325 6.833-5.325h41.887c2.574 0 4.97-1.952 6.833-5.325 1.775-3.461 4.26-5.325 6.833-5.325h23.162" stroke-dasharray="4.893 4.893" stroke-width="1.5" stroke-linecap="round" stroke="#f2751c" fill="none" stroke-miterlimit="10"/><circle class="g" cx="2.041" cy="2.041" r="2.041" transform="translate(47.744 8.519)"/><path class="h" d="M53.691 10.556a3.9 3.9 0 1 0-3.9 3.9 3.882 3.882 0 0 0 3.9-3.9zm-1.864 0a2.041 2.041 0 1 1-2.041-2.041 2.008 2.008 0 0 1 2.041 2.041z"/></g><g transform="translate(9.318 55.465)"><path d="M52.27 33.279c3.106 3.017 7.011 6.035 11.892 6.035a12.352 12.352 0 0 0 3.9-.621c8.342-2.485 11.093-10.472 14.022-19.08 2.84-8.342 5.857-17.039 14.554-19.612M0 58.927c8.342-2.485 11.093-10.561 14.022-19.08 2.84-8.342 5.857-17.039 14.554-19.613s14.643 3.55 19.79 9.052" stroke="#4565e8" stroke-dasharray="4.893 4.893" stroke-width="1.5" stroke-linecap="round" fill="none" stroke-miterlimit="10"/><circle class="g" cx="2.041" cy="2.041" r="2.041" transform="translate(82.887 9.939)"/><path class="j" d="M84.923 8.076a3.9 3.9 0 1 0 3.9 3.9 3.882 3.882 0 0 0-3.9-3.9zm0 5.946a2.041 2.041 0 1 1 2.041-2.041 2.064 2.064 0 0 1-2.041 2.041z"/></g><path d="M147.937 37.983a9.135 9.135 0 0 1-8.7-6.39l-5.147-16.684a8.948 8.948 0 0 0-8.519-6.3h-13.487a9.009 9.009 0 0 0-8.7 6.833L100.1 29.2a3.119 3.119 0 0 1-6.035.089L87.143 3.464a4.632 4.632 0 0 0-8.963 0L62.561 59.728a6.55 6.55 0 0 1-6.3 4.792 8.421 8.421 0 0 1-7.277-4.171L47.3 57.418a5.051 5.051 0 0 0-8.963.444l-3.9 8.253a5.6 5.6 0 0 1-5.147 3.195H13.73" stroke="#4ccd9b" stroke-width="1.5" stroke-linecap="round" fill="none" stroke-miterlimit="10"/><path class="l" d="M69.393 30.617a3.9 3.9 0 1 0 3.9 3.9 3.939 3.939 0 0 0-3.9-3.9zm0 5.857a2.041 2.041 0 1 1 2.041-2.041 2.125 2.125 0 0 1-2.041 2.041z"/><circle class="g" cx="2.041" cy="2.041" r="2.041" transform="translate(67.357 32.48)"/></g><path class="m" d="M36.823 274.256l5.236-5.236a21.264 21.264 0 0 0-30 0l5.236 5.236a13.766 13.766 0 0 1 19.528 0z"/><path class="d" d="M17.299 293.691l-5.236 5.236a21.114 21.114 0 0 0 14.909 6.212v-7.455a13.348 13.348 0 0 1-9.673-3.993zm24.76-24.671l-5.236 5.236a13.389 13.389 0 0 1 3.993 9.851h7.455a21 21 0 0 0-6.212-15.087z"/><path class="m" d="M36.823 293.691a13.389 13.389 0 0 1-9.851 3.993v7.455a21.3 21.3 0 0 0 15.087-6.212l-5.236-5.236z"/><path class="d" d="M17.299 274.256a13.4 13.4 0 0 0-3.993 9.762H5.94a21.3 21.3 0 0 1 6.212-15.087l5.147 5.325z"/><path d="M40.816 284.018a13.713 13.713 0 0 1-3.993 9.673l5.236 5.236a21.114 21.114 0 0 0 6.212-14.909z" fill="url(#b)"/><path d="M13.306 284.018a13.713 13.713 0 0 0 3.993 9.673l-5.236 5.236a21.114 21.114 0 0 1-6.212-14.909z" fill="url(#c)"/><path class="l" d="M540.952 267.18l-6.656 6.656a26.674 26.674 0 0 0 37.8 0l-6.656-6.656a17.2 17.2 0 0 1-24.488 0z"/><path class="p" d="M566.067 242.155l5.68-5.68a.7.7 0 0 0 0-.976 26.592 26.592 0 0 0-18.37-7.366v9.318a17.285 17.285 0 0 1 11.714 4.615.633.633 0 0 0 .976.089zm-31.771 31.681l6.656-6.656a16.944 16.944 0 0 1-5.058-12.424h-9.318a26.4 26.4 0 0 0 7.72 19.08z"/><path class="l" d="M540.952 242.599a16.945 16.945 0 0 1 12.424-5.058v-9.319a26.8 26.8 0 0 0-18.991 7.809l6.567 6.567z"/><path d="M565.534 267.18a16.945 16.945 0 0 0 5.058-12.424h9.318a26.8 26.8 0 0 1-7.809 18.991l-6.567-6.567z" fill="url(#d)"/><path d="M535.894 254.842a17.266 17.266 0 0 1 5.058-12.247l-6.655-6.653a26.4 26.4 0 0 0-7.809 18.814h9.407z" fill="url(#e)"/><path class="e" d="M535.894 254.934h-9.318a26.777 26.777 0 0 0 26.8 26.8v-9.318a17.517 17.517 0 0 1-17.482-17.482z"/><path class="p" d="M570.681 254.931h9.318a26.555 26.555 0 0 0-7.81-18.9l-6.656 6.656a17.017 17.017 0 0 1 5.148 12.244zm-44.194.002h9.318a17.07 17.07 0 0 1 5.147-12.335l-6.655-6.656a26.823 26.823 0 0 0-7.81 18.991z"/><path class="e" d="M553.288 237.54a17.222 17.222 0 0 1 12.335 5.147l6.656-6.654a26.685 26.685 0 0 0-18.991-7.9v9.407z"/><path class="p" d="M553.288 272.327a17.533 17.533 0 0 0 11.98-4.792.54.54 0 0 1 .71 0l5.857 5.857a.662.662 0 0 1 0 .8 26.828 26.828 0 0 1-18.636 7.543l.089-9.407z"/><path d="M541.041 242.51a17.3 17.3 0 0 1 12.247-5.058v-9.319a26.2 26.2 0 0 0-18.814 7.81z" fill="url(#f)"/><path d="M450.345 117.824h18.37v213.43h-18.37zm-342.642 0h18.37v213.43h-18.37z" fill="#c2def9"/><path class="h" d="M107.703 117.824h18.37v14.022h-18.37zm342.642 0h18.37v14.022h-18.37z"/><path class="c" d="M126.073 73.274h324.272v20.677H126.073z"/><path class="u" d="M491.078 304.275c2.662-3.017-1.242-8.963 1.42-11.8 2.84-3.106 6.567 1.952 10.561-.976 2.4-2.041-.532-5.147 2.84-9.851 2.041-2.929 5.5-.178 8.875-1.952a.391.391 0 0 1 .532.355c-.621 3.727 2.751 5.946.621 8.786-3.372 4.615-7.188 2.84-8.431 5.768-1.509 4.7 4.526 6.656 2.485 10.294-1.775 3.372-8.7 1.686-10.649 5.147-2.929 5.68 8.7 9.762 5.591 15.974-4.082 8.164-24.848 4.348-28.221 5.236-.355-9.318-8.786-20.766-2.4-27.245 4.796-4.794 12.339 4.879 16.776.264z"/><path d="M515.213 280.137c-.621 3.727 2.751 5.946.621 8.786-3.372 4.615-7.188 2.84-8.431 5.768-1.509 4.7 4.526 6.656 2.485 10.294-1.775 3.372-8.7 1.686-10.649 5.147-2.929 5.68 8.7 9.762 5.591 15.974-4.082 8.164-23.429 4.526-28.221 5.236v-.089l38.604-51.382z" fill="url(#g)"/><path d="M436.589 331.342h49.164c1.065-1.242 1.864-2.485 1.065-3.9-1.065-1.065-1.864-.533-2.662 0 1.509-5.413 6.478-7.366 5.857-9.5-1.065-2.751-5.68.621-9.5 2.662 1.242-4.792 6.656-6.656 5.147-9.052-.976-1.242-6.478 1.775-10.294 4.082 5.5-10.206 16.418-21.387 13.667-24.138-2.929-2.4-10.916 6.656-16.418 13.045 5.147-17.394 19.879-38.692 15.175-41.089-7.987-3.639-21.742 23.34-31.149 44.195 3.55-11.093 7.721-25.825 2.219-27.511-5.591-1.952-13.578 22.186-16.684 37.628-1.952-5.325-4.26-11.27-8.342-10.206-3.901 1.243.182 14.377 2.755 23.784z" fill="url(#h)"/><path d="M126.074 331.347h-41c-.887-1.065-1.6-2.13-.887-3.195.887-.887 1.509-.444 2.219 0-1.242-4.526-5.413-6.123-4.881-7.9.887-2.307 4.7.533 7.9 2.219-.976-3.993-5.591-5.5-4.26-7.543.8-1.065 5.413 1.509 8.519 3.461-4.615-8.519-13.667-17.838-11.359-20.145 2.4-2.041 9.141 5.591 13.667 10.827-4.26-14.554-16.6-32.214-12.69-34.255 6.656-3.017 18.1 19.435 26 36.829-2.929-9.229-6.478-21.565-1.864-22.985 4.7-1.6 11.359 18.548 13.933 31.327 1.686-4.437 3.55-9.407 7.011-8.519 3.194 1.06-.178 12.065-2.308 19.879z" fill="url(#i)"/><path class="g" d="M153.051 85.077a2.934 2.934 0 1 1-2.929-3.106 3.053 3.053 0 0 1 2.929 3.106zm10.65 0a2.934 2.934 0 1 1-2.929-3.106 3.053 3.053 0 0 1 2.929 3.106zm-20.944 0a2.934 2.934 0 1 1-2.929-3.106 3.053 3.053 0 0 1 2.929 3.106z"/><path d="M126.073 93.951h324.272v237.391H126.073z" fill="url(#j)"/><path class="g" d="M181.006 105.311h214.317v204.644H181.006z"/><path d="M395.323 309.867H181.006V105.311" stroke-linejoin="round" stroke="#1f46e7" stroke-width="1.14" fill="none" stroke-miterlimit="10"/><path d="M222.805 145.601h136.222M222.805 161.22h136.222m-136.222 15.619h136.222m-136.222 15.619h136.222m-136.222 15.619h136.222m-136.222 15.619h136.222m-136.222 15.619h136.222m-136.222 15.619h136.222" stroke-dasharray="3.269 5.449" stroke="#e8ebed" stroke-width="1.113" fill="none" stroke-miterlimit="10"/><path class="ab" d="M222.805 245.615v8.963m10.294-21.92v21.92m10.295-37.272v37.273m10.294-20.412v20.411m10.294-30.972v30.972m10.383-40.201v40.201m10.295-28.664v28.664m10.294-18.015v18.015m10.294-22.097v22.097m10.295-37.982v37.983m10.294-28.665v28.664m10.294-23.073v23.074m10.384-18.46v18.459"/><path class="ac" d="M222.805 217.306l40.024-40.734a7.659 7.659 0 0 1 10.383-.533l4.881 4.082a7.664 7.664 0 0 0 10.383-.532l26.889-27.422a7.612 7.612 0 0 1 10.561-.355l16.95 15"/><path class="g" d="M342.876 169.474a2.485 2.485 0 0 1 0-4.97 2.485 2.485 0 1 1 0 4.97z"/><path class="u" d="M342.876 165.214a1.775 1.775 0 1 1-1.775 1.775 1.78 1.78 0 0 1 1.775-1.775m0-1.509a3.284 3.284 0 1 0 0 6.567 3.221 3.221 0 0 0 3.284-3.284 3.333 3.333 0 0 0-3.284-3.284z"/><path class="ad" d="M343.053 196.096c-4.349-6.123-9.673-11-17.039-13.578-23.517-6.212-34.876 29.108-42.863 28.4-6.123-.266-9.5-10.561-15.974-10.561-9.318 0-12.957 23.251-23.429 27.777-4.881 1.065-7.188-4.881-11.625-2.485-3.816 1.686-7.011 8.342-9.407 14.465"/><path class="g" d="M343.054 199.114a2.574 2.574 0 1 1 2.574-2.574 2.575 2.575 0 0 1-2.574 2.574z"/><path class="h" d="M343.054 194.677a1.874 1.874 0 0 1 1.864 1.864 1.82 1.82 0 0 1-1.864 1.864 1.864 1.864 0 1 1 0-3.727m0-1.509a3.276 3.276 0 0 0-3.284 3.284 3.334 3.334 0 0 0 3.284 3.284 3.284 3.284 0 1 0 0-6.567z"/><path d="M202.482 254.934h173.673" stroke="#e8ebed" stroke-width="1.113" stroke-linecap="round" fill="none" stroke-miterlimit="10"/><path class="j" d="M317.672 128.029h-113.77a3.144 3.144 0 0 1-3.106-3.106 3.144 3.144 0 0 1 3.106-3.106h113.77a3.144 3.144 0 0 1 3.106 3.106 3.144 3.144 0 0 1-3.106 3.106z"/><path class="c" d="M229.996 276.321h-26.094a3.144 3.144 0 0 1-3.106-3.106 3.144 3.144 0 0 1 3.106-3.106h26.094a3.144 3.144 0 0 1 3.106 3.106 3.144 3.144 0 0 1-3.106 3.106z"/><path class="ad" d="M202.482 145.601h9.851m-9.851 15.53h9.851m-9.851 15.619h9.851m-9.851 15.53h9.851m-9.851 15.619h9.851m-9.851 15.619h9.851m-9.851 15.531h9.851"/><path class="ac" d="M366.304 145.601h9.851m-9.851 15.53h9.851m-9.851 15.619h9.851m-9.851 15.53h9.851m-9.851 15.619h9.851m-9.851 15.619h9.851m-9.851 15.531h9.851"/><path class="ab" d="M200.885 287.591h36.563m-36.741 6.212h48.721"/><path class="l" d="M356.723 276.321h-26.094a3.144 3.144 0 0 1-3.106-3.106 3.144 3.144 0 0 1 3.106-3.106h26.094a3.144 3.144 0 0 1 3.106 3.106 3.032 3.032 0 0 1-3.106 3.106z"/><path class="ab" d="M327.7 287.591h36.563m-36.74 6.212h48.632"/><path class="j" d="M293.803 276.321h-26.094a3.144 3.144 0 0 1-3.106-3.106 3.144 3.144 0 0 1 3.106-3.106h26.094a3.144 3.144 0 0 1 3.106 3.106 3.087 3.087 0 0 1-3.106 3.106z"/><path class="ab" d="M264.781 287.591h36.563m-36.741 6.212h48.632"/><path class="a" d="M190.365 33.05c8.772-1.555 13.769 7.884 16.768 7.551 1.888-.222 2.665-1.444 4.553-1.555 3.442 0 4.886 4.553 8.772 5.663 1.777.222 3.442-1.11 5-.444a5.921 5.921 0 0 1 3.331 2.887h-55.524c7.218-3.219 8-11.992 17.1-14.102zM533.192.656c-19.908-5.9-31.248 29.908-38.052 28.644-4.284-.842-6.048-5.476-10.332-5.9-7.812 0-11.088 17.271-19.908 21.483-4.032.842-7.812-4.212-11.34-1.685-3.276 1.685-5.292 5.055-7.56 10.952h126C555.62 41.938 553.856 8.656 533.192.656z"/></svg>