<svg width="403" height="285" xmlns="http://www.w3.org/2000/svg" xmlns:xlink="http://www.w3.org/1999/xlink" viewBox="0 0 402.4 284.047"><defs><style>.cls-1{clip-path:url(#clip-path)}.cls-2{fill:#d9edf6}.cls-3{fill:#4ccd9b}.cls-4{fill:#239b6a}.cls-5{clip-path:url(#clip-path-8)}.cls-6{fill:url(#linear-gradient)}.cls-7{fill:#4263eb}.cls-11,.cls-8,.cls-9{fill:none;stroke-linecap:round;stroke-miterlimit:10}.cls-8,.cls-9{stroke:#f2751c;stroke-dasharray:.908 4.539;stroke-width:1.362px}.cls-9{stroke:#4263eb;stroke-dasharray:4.539 4.539}.cls-10{fill:#fff}.cls-11{stroke:#c8cbac;stroke-width:.908px}.cls-12{fill:#f2751c}.cls-13{clip-path:url(#clip-path-19)}.cls-14{fill:url(#linear-gradient-2)}.cls-15{clip-path:url(#clip-path-51)}.cls-16{fill:url(#linear-gradient-3)}.cls-17{fill:#ffc400}.cls-18{clip-path:url(#clip-path-53)}.cls-19{fill:url(#linear-gradient-4)}.cls-20{fill:url(#linear-gradient-5)}.cls-21{fill:url(#linear-gradient-6)}</style><clipPath id="clip-path"><path id="Rectangle_345" data-name="Rectangle 345" d="M0 0h402.4v284.047H0z"/></clipPath><clipPath id="clip-path-8"><path id="Path_175" data-name="Path 175" d="M38.2 194.35h8.93a16.55 16.55 0 0 1 4.86-11.645l-6.315-6.313A25.448 25.448 0 0 0 38.2 194.35" transform="translate(-38.204 -176.392)"/></clipPath><linearGradient id="linear-gradient" x1="-3.279" y1="4.192" x2="-3.193" y2="4.192" gradientUnits="objectBoundingBox"><stop offset="0" stop-color="#4ccd9b"/><stop offset="1" stop-color="#239b6a"/></linearGradient><clipPath id="clip-path-19"><path id="Path_185" data-name="Path 185" d="M121.754 72a1.264 1.264 0 0 0-1.265 1.264v73.612a1.262 1.262 0 0 0 1.265 1.264H164.8a1.263 1.263 0 0 0 1.264-1.264V73.264A1.264 1.264 0 0 0 164.8 72z" transform="translate(-120.489 -72)"/></clipPath><linearGradient id="linear-gradient-2" x1="-3.129" y1="2.611" x2="-3.103" y2="2.611" gradientUnits="objectBoundingBox"><stop offset="0" stop-color="#f2751c"/><stop offset="1" stop-color="#ffc400"/></linearGradient><clipPath id="clip-path-51"><path id="Path_188" data-name="Path 188" d="M242.385 44.416h9.176a18.008 18.008 0 0 1 18.007-18.007v-9.176a27.184 27.184 0 0 0-27.183 27.183" transform="translate(-242.385 -17.233)"/></clipPath><linearGradient id="linear-gradient-3" x1="-10.553" y1="9.699" x2="-10.51" y2="9.699" gradientUnits="objectBoundingBox"><stop offset="0" stop-color="#ff9a01"/><stop offset="1" stop-color="#ffc400"/></linearGradient><clipPath id="clip-path-53"><path id="Path_190" data-name="Path 190" d="M242.385 40.2a27.185 27.185 0 0 0 27.183 27.185V58.21a18.008 18.008 0 0 1-18.007-18.01z" transform="translate(-242.385 -40.201)"/></clipPath><linearGradient id="linear-gradient-4" x1="-10.553" y1="8.699" x2="-10.51" y2="8.699" xlink:href="#linear-gradient-3"/><linearGradient id="linear-gradient-5" x1="-10.553" y1="8.699" x2="-10.51" y2="8.699" xlink:href="#linear-gradient-3"/><linearGradient id="linear-gradient-6" x1="-10.553" y1="8.699" x2="-10.51" y2="8.699" xlink:href="#linear-gradient-2"/></defs><g id="Group_370" data-name="Group 370"><g id="Group_363" data-name="Group 363" class="cls-1"><path id="Path_168" data-name="Path 168" class="cls-2" d="M296.716 242.334c38.191-28.028 60.678-76.553 53.577-125.078-3.551-18.936-18.937-30.772-37.873-31.956-34.322-2.367-67.461 24.854-100.414 10.57-8.785-4.257-15.482-11.169-21.274-19.332-11.583-16.326-19.547-37.659-33.354-52.782-14.2-14.2-35.506-16.569-53.259-7.1-52.076 30.772-84.031 100.6-57.319 155.773a67.109 67.109 0 0 0 14.708 18.206c13.019 11.835 27.813 10.356 42.9 4.586a163.825 163.825 0 0 0 15.149-6.879c7.072-3.587 14.157-7.75 21.56-11 5.167-2.23 11.3-4.823 17.328-5.529s11.944.478 16.678 5.8c11.835 17.753 4.734 39.057 4.734 59.176a31.865 31.865 0 0 0 7.249 17.309 37.994 37.994 0 0 0 15.243 11.1 64.729 64.729 0 0 0 19.867 3.8 84.238 84.238 0 0 0 20.139-1.832c13.248-3.148 27.451-7.882 39.537-15.069a174.736 174.736 0 0 0 14.817-9.758" transform="translate(6.821 2.014)"/></g><g id="Group_364" data-name="Group 364" class="cls-1"><path id="Path_169" data-name="Path 169" class="cls-2" d="M150.781 188.513c3.88 5.3 4.538 11.638 2 16.985-5.076 10.691-15.5 18.845-27.734 15.919-14.385-4.471-19.007-23.437-10.238-34.733 5.68-7 14.169-6.113 23.317-7.623a19.882 19.882 0 0 1 12.654 9.453" transform="translate(20.256 32.863)"/></g><g id="Group_365" data-name="Group 365" class="cls-1"><path id="Path_170" data-name="Path 170" class="cls-3" d="M50.833 201.555l-6.314 6.314a25.523 25.523 0 0 0 36.1 0l-6.319-6.314a16.594 16.594 0 0 1-23.467 0" transform="translate(8.171 36.991)"/></g><g id="Group_366" data-name="Group 366" class="cls-1"><path id="Path_171" data-name="Path 171" class="cls-4" d="M71.947 183.408l5.384-5.384a.66.66 0 0 0-.009-.943 25.432 25.432 0 0 0-17.487-7v8.93a16.534 16.534 0 0 1 11.2 4.419.657.657 0 0 0 .913-.018" transform="translate(10.982 31.214)"/></g><g id="Group_367" data-name="Group 367" class="cls-1"><path id="Path_172" data-name="Path 172" class="cls-4" d="M45.679 209.7l6.314-6.314a16.546 16.546 0 0 1-4.86-11.823h-8.928a25.443 25.443 0 0 0 7.474 18.137" transform="translate(7.012 35.158)"/></g><g id="Group_368" data-name="Group 368" class="cls-1"><path id="Path_173" data-name="Path 173" class="cls-3" d="M50.833 183.865a16.534 16.534 0 0 1 11.812-4.858v-8.929a25.44 25.44 0 0 0-18.126 7.473z" transform="translate(8.171 31.214)"/></g><g id="Group_369" data-name="Group 369" class="cls-1"><path id="Path_174" data-name="Path 174" class="cls-4" d="M69.683 203.387a16.533 16.533 0 0 0 4.854-11.315.509.509 0 0 1 .508-.5h7.914a.507.507 0 0 1 .508.516A25.434 25.434 0 0 1 76 209.7z" transform="translate(12.789 35.16)"/></g></g><g id="Group_372" data-name="Group 372" transform="translate(45.216 208.765)"><g id="Group_371" data-name="Group 371" class="cls-5"><path id="Rectangle_352" data-name="Rectangle 352" class="cls-6" transform="translate(0 .001)" d="M0 0h13.789v17.958H0z"/></g></g><g id="Group_383" data-name="Group 383"><g id="Group_373" data-name="Group 373" class="cls-1"><path id="Path_176" data-name="Path 176" class="cls-7" d="M244.832 101.583a4.142 4.142 0 1 0 4.142 4.142 4.142 4.142 0 0 0-4.142-4.142m0 6.28a2.137 2.137 0 1 1 2.137-2.136 2.136 2.136 0 0 1-2.137 2.136" transform="translate(44.174 18.644)"/></g><g id="Group_374" data-name="Group 374" class="cls-1"><path id="Path_177" data-name="Path 177" class="cls-7" d="M79.985 148.245a4.142 4.142 0 1 0 4.142 4.142 4.142 4.142 0 0 0-4.142-4.142m0 6.28a2.137 2.137 0 1 1 2.136-2.137 2.137 2.137 0 0 1-2.136 2.137" transform="translate(13.919 27.207)"/></g><g id="Group_375" data-name="Group 375" class="cls-1"><path id="Path_178" data-name="Path 178" class="cls-8" d="M46.485 94.086h29.044a2.568 2.568 0 0 0 2.451-1.8l7.111-22.745a2.567 2.567 0 0 1 4.932.111l5.939 22.523a2.569 2.569 0 0 0 2.483 1.913h22.375a2.566 2.566 0 0 1 2.432 1.747l9.073 26.922a2.567 2.567 0 0 0 4.919-.181l6.819-26.558a2.569 2.569 0 0 1 2.487-1.929h31.32a2.567 2.567 0 0 1 2.52 2.076l5.235 26.885a2.567 2.567 0 0 0 4.86.566l4.333-9.6a2.568 2.568 0 0 1 4.751.173l16.275 44.38a2.569 2.569 0 0 0 2.41 1.684h14.779a2.567 2.567 0 0 0 2.362-1.565l7.186-16.919a2.566 2.566 0 0 1 4.7-.058l7.737 17.035a2.569 2.569 0 0 0 2.337 1.507h7.183a2.565 2.565 0 0 1 2.448 1.794l5.415 17.179a2.567 2.567 0 0 0 4.993-.432l2.166-16.311a2.567 2.567 0 0 1 2.543-2.229h10.407a2.568 2.568 0 0 0 2.327-1.482l4.96-10.63a2.567 2.567 0 0 1 4.59-.123l4.244 7.933a2.567 2.567 0 0 0 4.542-.03l13.162-25.432a2.567 2.567 0 0 1 4.624.133l7.892 17.67" transform="translate(8.531 12.432)"/></g><g id="Group_376" data-name="Group 376" class="cls-1"><path id="Path_179" data-name="Path 179" class="cls-9" d="M45.777 134.946h22.6a2.562 2.562 0 0 1 2.334 1.508l12.376 27.453a2.56 2.56 0 0 0 4.694-.06l14.108-33.572a2.559 2.559 0 0 1 4.493-.423l8.772 13.212a2.561 2.561 0 0 0 4.52-.489L128.061 121a2.561 2.561 0 0 1 4.764-.024l7.714 19.283a2.561 2.561 0 0 0 4.837-.239l11.943-41.3a2.561 2.561 0 0 1 4.927.027l7.546 27.221a2.558 2.558 0 0 0 2.466 1.876h25.229a2.56 2.56 0 0 0 2.5-1.992l6.94-30.461a2.56 2.56 0 0 1 4.972-.085l3.912 14.821a2.561 2.561 0 0 0 4.9.187l10.888-31.339a2.56 2.56 0 0 1 4.852.046l6.08 18.65a2.56 2.56 0 0 0 2.435 1.767h13.471a2.557 2.557 0 0 0 2.4-1.669l4.372-11.76a2.56 2.56 0 0 1 4.8.011l8.3 22.652a2.56 2.56 0 0 0 4.781.07l4.733-11.836A2.56 2.56 0 0 1 290.2 95.3h16.575a2.56 2.56 0 0 0 2.425-1.74l4.542-13.381a3.012 3.012 0 0 1 2.851-2.043h24.1" transform="translate(8.401 14.179)"/></g><g id="Group_377" data-name="Group 377" class="cls-1"><path id="Path_180" data-name="Path 180" class="cls-7" d="M239.785 72.644L188.395 61.9a1.753 1.753 0 0 1-1.418-.931c-1.5-2.956-5.189-5-9.852-6.635h53.739c7.952.788 10.52 9.712 10.9 16.413a1.815 1.815 0 0 1-1.979 1.9" transform="translate(32.508 9.972)"/></g><g id="Group_378" data-name="Group 378" class="cls-1"><path id="Path_181" data-name="Path 181" class="cls-10" d="M227.986 54.333h-99.614A16.371 16.371 0 0 0 112 70.7v130.391h101.192a14.793 14.793 0 0 0 14.794-14.791V78.226c.916-12.74 1.96-23.892 14.091-23.892h-14.091z" transform="translate(20.555 9.972)"/></g><g id="Group_379" data-name="Group 379" class="cls-1"><path id="Line_161" data-name="Line 161" class="cls-11" transform="translate(132.555 157.354)" d="M0 0v47.397"/></g><g id="Group_380" data-name="Group 380" class="cls-1"><path id="Path_182" data-name="Path 182" class="cls-12" d="M240.973 159.522a4.142 4.142 0 1 0 4.142 4.142 4.142 4.142 0 0 0-4.142-4.142m0 6.28a2.137 2.137 0 1 1 2.137-2.137 2.137 2.137 0 0 1-2.137 2.137" transform="translate(43.466 29.277)"/></g><g id="Group_381" data-name="Group 381" class="cls-1"><path id="Path_183" data-name="Path 183" class="cls-12" d="M286.008 116.5a4.142 4.142 0 1 0 4.142 4.142 4.142 4.142 0 0 0-4.142-4.142m0 6.28a2.137 2.137 0 1 1 2.137-2.137 2.137 2.137 0 0 1-2.137 2.137" transform="translate(51.731 21.381)"/></g><g id="Group_382" data-name="Group 382" class="cls-1"><path id="Path_184" data-name="Path 184" class="cls-12" d="M81.38 64.238a4.142 4.142 0 1 0 4.142 4.142 4.142 4.142 0 0 0-4.142-4.142m0 6.279a2.137 2.137 0 1 1 2.136-2.136 2.136 2.136 0 0 1-2.136 2.136" transform="translate(14.176 11.79)"/></g></g><g id="Group_385" data-name="Group 385" transform="translate(142.602 85.214)"><g id="Group_384" data-name="Group 384" class="cls-13"><path id="Rectangle_363" data-name="Rectangle 363" class="cls-14" d="M0 0h45.579v76.14H0z"/></g></g><g id="Group_417" data-name="Group 417"><g id="Group_386" data-name="Group 386" class="cls-1"><path id="Path_186" data-name="Path 186" class="cls-7" d="M87.769 163.029l120.146 10.744a1.752 1.752 0 0 1 1.419.931c1.5 2.956 5.187 5 9.852 6.635H96.691c-8.117-3.19-10.52-9.712-10.9-16.413a1.815 1.815 0 0 1 1.978-1.9" transform="translate(15.745 29.919)"/></g><g id="Group_387" data-name="Group 387" class="cls-1"><path id="Line_162" data-name="Line 162" class="cls-11" transform="translate(204.786 64.305)" d="M47.193 0H0"/></g><g id="Group_388" data-name="Group 388" class="cls-1"><path id="Line_163" data-name="Line 163" class="cls-11" transform="translate(195.282 85.214)" d="M0 0h44.382"/></g><g id="Group_389" data-name="Group 389" class="cls-1"><path id="Line_164" data-name="Line 164" class="cls-11" transform="translate(230.788 92.315)" d="M0 0h8.876"/></g><g id="Group_390" data-name="Group 390" class="cls-1"><path id="Line_165" data-name="Line 165" class="cls-11" transform="translate(195.282 92.315)" d="M0 0h27.073"/></g><g id="Group_391" data-name="Group 391" class="cls-1"><path id="Line_166" data-name="Line 166" class="cls-11" transform="translate(195.282 99.417)" d="M0 0h37.835"/></g><g id="Group_392" data-name="Group 392" class="cls-1"><path id="Line_167" data-name="Line 167" class="cls-11" transform="translate(219.397 106.518)" d="M0 0h20.268"/></g><g id="Group_393" data-name="Group 393" class="cls-1"><path id="Line_168" data-name="Line 168" class="cls-11" transform="translate(195.282 106.518)" d="M0 0h14.942"/></g><g id="Group_394" data-name="Group 394" class="cls-1"><path id="Line_169" data-name="Line 169" class="cls-11" transform="translate(195.282 113.619)" d="M0 0h25.298"/></g><g id="Group_395" data-name="Group 395" class="cls-1"><path id="Line_170" data-name="Line 170" class="cls-11" transform="translate(231.824 120.72)" d="M0 0h7.841"/></g><g id="Group_396" data-name="Group 396" class="cls-1"><path id="Line_171" data-name="Line 171" class="cls-11" transform="translate(195.282 120.72)" d="M0 0h25.298"/></g><g id="Group_397" data-name="Group 397" class="cls-1"><path id="Line_172" data-name="Line 172" class="cls-11" transform="translate(219.397 127.821)" d="M0 0h20.268"/></g><g id="Group_398" data-name="Group 398" class="cls-1"><path id="Line_173" data-name="Line 173" class="cls-11" transform="translate(195.282 127.821)" d="M0 0h14.239"/></g><g id="Group_399" data-name="Group 399" class="cls-1"><path id="Line_174" data-name="Line 174" class="cls-11" transform="translate(195.282 134.922)" d="M0 0h44.382"/></g><g id="Group_400" data-name="Group 400" class="cls-1"><path id="Line_175" data-name="Line 175" class="cls-11" transform="translate(224.131 142.024)" d="M0 0h15.534"/></g><g id="Group_401" data-name="Group 401" class="cls-1"><path id="Line_176" data-name="Line 176" class="cls-11" transform="translate(195.282 142.024)" d="M0 0h15.83"/></g><g id="Group_402" data-name="Group 402" class="cls-1"><path id="Line_177" data-name="Line 177" class="cls-11" transform="translate(195.282 149.125)" d="M0 0h31.068"/></g><g id="Group_403" data-name="Group 403" class="cls-1"><path id="Line_178" data-name="Line 178" class="cls-11" transform="translate(228.865 156.226)" d="M0 0h10.8"/></g><g id="Group_404" data-name="Group 404" class="cls-1"><path id="Line_179" data-name="Line 179" class="cls-11" transform="translate(213.479 156.226)" d="M0 0h9.912"/></g><g id="Group_405" data-name="Group 405" class="cls-1"><path id="Line_180" data-name="Line 180" class="cls-11" transform="translate(195.282 156.226)" d="M0 0h12.648"/></g><g id="Group_406" data-name="Group 406" class="cls-1"><path id="Line_181" data-name="Line 181" class="cls-11" transform="translate(195.282 163.327)" d="M0 0h44.382"/></g><g id="Group_407" data-name="Group 407" class="cls-1"><path id="Line_182" data-name="Line 182" class="cls-11" transform="translate(142.604 170.428)" d="M0 0h76.793"/></g><g id="Group_408" data-name="Group 408" class="cls-1"><path id="Line_183" data-name="Line 183" class="cls-11" transform="translate(218.436 177.53)" d="M0 0h21.229"/></g><g id="Group_409" data-name="Group 409" class="cls-1"><path id="Line_184" data-name="Line 184" class="cls-11" transform="translate(175.902 177.53)" d="M0 0h34.321"/></g><g id="Group_410" data-name="Group 410" class="cls-1"><path id="Line_185" data-name="Line 185" class="cls-11" transform="translate(142.604 177.53)" d="M0 0h18.209"/></g><g id="Group_411" data-name="Group 411" class="cls-1"><path id="Line_186" data-name="Line 186" class="cls-11" transform="translate(220.58 184.631)" d="M0 0h19.084"/></g><g id="Group_412" data-name="Group 412" class="cls-1"><path id="Line_187" data-name="Line 187" class="cls-11" transform="translate(181 184.631)" d="M0 0h32.48"/></g><g id="Group_413" data-name="Group 413" class="cls-1"><path id="Line_188" data-name="Line 188" class="cls-11" transform="translate(142.604 184.631)" d="M0 0h26.641"/></g><g id="Group_414" data-name="Group 414" class="cls-1"><path id="Line_189" data-name="Line 189" class="cls-11" transform="translate(169.689 191.732)" d="M0 0h37.577"/></g><g id="Group_415" data-name="Group 415" class="cls-1"><path id="Line_190" data-name="Line 190" class="cls-11" transform="translate(142.604 191.732)" d="M0 0h15.694"/></g><g id="Group_416" data-name="Group 416" class="cls-1"><path id="Path_187" data-name="Path 187" class="cls-12" d="M265.354 17.233v9.175a18.009 18.009 0 1 1 0 36.017V71.6a27.184 27.184 0 0 0 0-54.368" transform="translate(48.701 3.163)"/></g></g><g id="Group_419" data-name="Group 419" transform="translate(286.87 20.396)"><g id="Group_418" data-name="Group 418" class="cls-15"><path id="Rectangle_395" data-name="Rectangle 395" class="cls-16" d="M0 0h27.183v27.183H0z"/></g></g><g id="Group_421" data-name="Group 421"><g id="Group_420" data-name="Group 420" class="cls-1"><path id="Path_189" data-name="Path 189" class="cls-17" d="M269.569 26.408v-9.175a27.183 27.183 0 0 0-27.183 27.183h9.175a18.007 18.007 0 0 1 18.009-18.009" transform="translate(44.485 3.163)"/></g></g><g id="Group_423" data-name="Group 423" transform="translate(286.87 47.579)"><g id="Group_422" data-name="Group 422" class="cls-18"><path id="Rectangle_397" data-name="Rectangle 397" class="cls-19" d="M0 0h27.183v27.185H0z"/></g></g><g id="Group_425" data-name="Group 425" transform="translate(286.87 47.579)"><g id="Group_424" data-name="Group 424" class="cls-18"><path id="Rectangle_398" data-name="Rectangle 398" class="cls-20" d="M0 0h27.183v27.185H0z"/></g></g><g id="Group_427" data-name="Group 427" transform="translate(286.87 47.579)"><g id="Group_426" data-name="Group 426" class="cls-18"><path id="Rectangle_399" data-name="Rectangle 399" class="cls-21" d="M0 0h27.183v27.185H0z"/></g></g></svg>