<svg xmlns="http://www.w3.org/2000/svg" xmlns:xlink="http://www.w3.org/1999/xlink" width="520" height="400" viewBox="0 0 520 400"><defs><path id="a" d="M0 330.208h520v69.791H0z"/></defs><clipPath id="b"><use xlink:href="#a" overflow="visible"/></clipPath><radialGradient id="c" cx="-1018.836" cy="522.381" r="1" gradientTransform="matrix(241.6741 0 0 51.6704 246489.625 -26668.54)" gradientUnits="userSpaceOnUse"><stop offset="0" stop-color="#96b7e1"/><stop offset="1" stop-color="#fff"/></radialGradient><path clip-path="url(#b)" fill="url(#c)" d="M0 330.208h520v69.791H0z"/><defs><path id="d" d="M0-40h520v440H0z"/></defs><clipPath id="e"><use xlink:href="#d" overflow="visible"/></clipPath><path clip-path="url(#e)" fill="#D9EDF6" d="M13.28 330.516h493.44c-25.379-8.541-19.278-23.915-33.677-38.068-10.778-8.389-28.159-8.237-45.391-19.034-25.989-21.964-1.83-131.78-44.658-152.279-52.712-21.475-74.432 25.624-114.941 23.428-36.361-4.881-55.396-35.629-95.174-23.916-62.961 22.208-43.948 81.262-69.55 110.304-18.913 17.937-28.674 10.737-39.29 28.309-17.082 26.842 2.929 57.103-50.759 71.256"/><defs><path id="f" d="M0-40h520v440H0z"/></defs><clipPath id="g"><use xlink:href="#f" overflow="visible"/></clipPath><path clip-path="url(#g)" fill="#D9EDF6" d="M75.667 195.836c-9.627 15.146-8.631 23.518 3.467 24.803 9.601.4 18.549-9.824 24.803-20.803 1.934-3.867-1.2-9.867-8.534-12.001-9.806-2.407-15.194 2.134-19.736 8.001"/><defs><path id="h" d="M0-40h520v440H0z"/></defs><clipPath id="i"><use xlink:href="#h" overflow="visible"/></clipPath><path clip-path="url(#i)" fill="#D9EDF6" d="M288.208 96.481c-19.035-3.866-45.621 30.511-16.993 36.097 14.573 6.138 25.252-3.076 31.364-15.269 6.681-13.324-3.845-17.295-14.371-20.828-4.78-.971.769.257 0 0"/><defs><path id="j" d="M0-40h520v440H0z"/></defs><clipPath id="k"><use xlink:href="#j" overflow="visible"/></clipPath><path clip-path="url(#k)" fill="#D9EDF6" d="M318.604 84.672c-12.404-5.296-14.08 1.929-11.379 10.223 2.217 6.655 8.465 5.508 13.694-.772 3.561-4.469 2.075-7.4-2.315-9.451"/><defs><path id="l" d="M0-40h520v440H0z"/></defs><clipPath id="m"><use xlink:href="#l" overflow="visible"/></clipPath><path clip-path="url(#m)" fill="#D9EDF6" d="M453.032 170.429c-8.198.582-11.958 4.881-11.958 10.738.733 6.118 4.607 8.607 11.958 7.077 5.902-1.237 12.689-2.563 12.689-6.833-.89-7.698-5.005-11.497-12.689-10.982"/><defs><path id="n" d="M0-40h520v440H0z"/></defs><clipPath id="o"><use xlink:href="#n" overflow="visible"/></clipPath><path clip-path="url(#o)" fill="#D9EDF6" d="M457.669 200.202c-15.534 3.412-23.693 12.2-24.16 26.6 1.913 15.946 11.485 23.123 28.553 21.72 11.559-2.306 17.306-10.295 18.791-22.451.976-15.376-8.42-29.041-23.184-25.869"/><defs><path id="p" d="M0-40h520v440H0z"/></defs><clipPath id="q"><use xlink:href="#p" overflow="visible"/></clipPath><path clip-path="url(#q)" fill="none" stroke="#F2751C" stroke-width="1.5" stroke-linecap="round" stroke-miterlimit="10" stroke-dasharray="1,5" d="M472.294 196.729l-8.997-60.799c-.502-3.391-5.33-3.559-6.065-.211l-2.767 12.581c-.917 4.172-6.36 5.255-8.805 1.752l-1.767-2.532c-2.392-3.426-7.485-3.354-9.777.139l-36.862 56.17a14.905 14.905 0 0 1-12.461 6.729h-5.136a15.046 15.046 0 0 1-13.388-8.179l-20.578-40.085c-3.849-7.497-14.5-7.679-18.603-.317l-18.024 32.351a23.061 23.061 0 0 1-20.151 11.842h-56.647c-11.126 0-20.613-8.059-22.414-19.038L190.984 72.1c-.966-5.889-9.435-5.886-10.397.003l-4.194 25.673c-.951 5.821-9.319 5.835-10.289.016l-7.337-44.021c-1.187-7.121-11.374-7.261-12.756-.175l-8.709 44.665a9.753 9.753 0 0 1-9.573 7.886h-18.243a11.118 11.118 0 0 0-10.31 6.956l-17.652 43.722c-2.87 7.11-12.971 7.005-15.693-.163L60.31 142.12"/><defs><path id="r" d="M0-40h520v440H0z"/></defs><clipPath id="s"><use xlink:href="#r" overflow="visible"/></clipPath><path clip-path="url(#s)" fill="none" stroke="#4263EB" stroke-width="1.5" stroke-linecap="round" stroke-miterlimit="10" d="M479.327 159.82c-32.302 7.717-42.721-35.888-75.022-28.17-15.885 3.795-21.438 16.269-26.822 28.886"/><defs><path id="t" d="M0-40h520v440H0z"/></defs><clipPath id="u"><use xlink:href="#t" overflow="visible"/></clipPath><path clip-path="url(#u)" fill="none" stroke="#4263EB" stroke-width="1.5" stroke-linecap="round" stroke-miterlimit="10" stroke-dasharray="234.046,9.362" d="M373.7 169.1c-4.699 9.853-10.791 18.534-23.58 21.59-32.304 7.717-42.722-35.888-75.022-28.171-32.304 7.718-21.886 51.324-54.189 59.042-14.613 3.491-24.747-3.519-34.455-11.529"/><defs><path id="v" d="M0-40h520v440H0z"/></defs><clipPath id="w"><use xlink:href="#v" overflow="visible"/></clipPath><path clip-path="url(#w)" fill="none" stroke="#4263EB" stroke-width="1.5" stroke-linecap="round" stroke-miterlimit="10" d="M182.86 207.027c-10.505-8.817-21.097-17.431-36.981-13.636-32.305 7.718-21.887 51.324-54.192 59.042"/><defs><path id="x" d="M0-40h520v440H0z"/></defs><clipPath id="y"><use xlink:href="#x" overflow="visible"/></clipPath><path clip-path="url(#y)" fill="none" stroke="#239B6A" stroke-width="1.52" stroke-linecap="round" stroke-miterlimit="10" d="M61.646 121.537h9.9c7.91 0 14.322 6.412 14.322 14.322 0 11.2 9.08 20.281 20.281 20.281h18.384c7.566 0 14.288-4.83 16.702-12l6.714-19.939c3.012-8.945 15.536-9.29 19.035-.524l5.935 14.866a18.494 18.494 0 0 0 17.176 11.637h40.042a24.783 24.783 0 0 0 21.476-12.414l11.178-19.411c2.994-5.198 10.394-5.476 13.769-.518l2.869 4.213c3.663 5.381 11.788 4.738 14.561-1.152l5.902-12.545c2.662-5.655 10.573-6.01 13.73-.616l2.643 4.514a12.94 12.94 0 0 0 11.168 6.402 9.968 9.968 0 0 0 9.604-7.298l23.908-86.016c1.941-6.987 11.865-6.94 13.74.065l10.557 39.415c1.279 4.776 8.085 4.694 9.249-.111l5.084-20.989a13.626 13.626 0 0 1 13.243-10.418h20.555c5.979 0 11.26 3.897 13.021 9.61l7.862 25.482a13.857 13.857 0 0 0 13.242 9.774"/><defs><path id="z" d="M0-40h520v440H0z"/></defs><clipPath id="A"><use xlink:href="#z" overflow="visible"/></clipPath><path clip-path="url(#A)" fill="none" stroke="#4263EB" stroke-width="1.5" stroke-linecap="round" stroke-miterlimit="10" stroke-dasharray="5,5" d="M61.5 46.178h73.534a27.87 27.87 0 0 1 19.703 8.161l9.308 9.308a27.866 27.866 0 0 0 19.704 8.162h120.897a27.856 27.856 0 0 1 19.703 8.161 27.867 27.867 0 0 0 19.703 8.161h131.104"/><defs><path id="B" d="M0-40h520v440H0z"/></defs><clipPath id="C"><use xlink:href="#B" overflow="visible"/></clipPath><circle clip-path="url(#C)" fill="#FFF" cx="134.292" cy="46.299" r="3.458"/><defs><path id="D" d="M0-40h520v440H0z"/></defs><clipPath id="E"><use xlink:href="#D" overflow="visible"/></clipPath><path clip-path="url(#E)" fill="#4263EB" d="M134.266 40.241a5.937 5.937 0 1 0 0 11.876 5.937 5.937 0 0 0 0-11.876m0 9a3.063 3.063 0 1 1 0-6.126 3.063 3.063 0 0 1 0 6.126"/><defs><path id="F" d="M0-40h520v440H0z"/></defs><clipPath id="G"><use xlink:href="#F" overflow="visible"/></clipPath><circle clip-path="url(#G)" fill="#FFF" cx="115" cy="106.008" r="3.458"/><defs><path id="H" d="M0-40h520v440H0z"/></defs><clipPath id="I"><use xlink:href="#H" overflow="visible"/></clipPath><path clip-path="url(#I)" fill="#F2751C" d="M114.938 99.929a5.937 5.937 0 1 0 0 11.876 5.937 5.937 0 0 0 0-11.876m0 9a3.063 3.063 0 1 1 0-6.126 3.063 3.063 0 0 1 0 6.126"/><defs><path id="J" d="M0-40h520v440H0z"/></defs><clipPath id="K"><use xlink:href="#J" overflow="visible"/></clipPath><circle clip-path="url(#K)" fill="#FFF" cx="102.568" cy="156.154" r="3.458"/><defs><path id="L" d="M0-40h520v440H0z"/></defs><clipPath id="M"><use xlink:href="#L" overflow="visible"/></clipPath><path clip-path="url(#M)" fill="#239B6A" d="M102.555 149.136a5.937 5.937 0 0 0-5.937 5.938 5.937 5.937 0 1 0 11.874 0 5.938 5.938 0 0 0-5.937-5.938m0 9a3.063 3.063 0 1 1 0-6.126 3.063 3.063 0 0 1 0 6.126"/><defs><path id="N" d="M0-40h520v440H0z"/></defs><clipPath id="O"><use xlink:href="#N" overflow="visible"/></clipPath><circle clip-path="url(#O)" fill="#D9EDF6" cx="235.333" cy="206.154" r="3.458"/><defs><path id="P" d="M0-40h520v440H0z"/></defs><clipPath id="Q"><use xlink:href="#P" overflow="visible"/></clipPath><path clip-path="url(#Q)" fill="#F2751C" d="M235.188 200.125a5.937 5.937 0 0 0-5.937 5.938 5.937 5.937 0 1 0 11.874 0 5.938 5.938 0 0 0-5.937-5.938m0 9a3.063 3.063 0 1 1 0-6.126 3.063 3.063 0 0 1 0 6.126"/><defs><path id="R" d="M0-40h520v440H0z"/></defs><clipPath id="S"><use xlink:href="#R" overflow="visible"/></clipPath><circle clip-path="url(#S)" fill="#D9EDF6" cx="268.333" cy="115.258" r="3.458"/><defs><path id="T" d="M0-40h520v440H0z"/></defs><clipPath id="U"><use xlink:href="#T" overflow="visible"/></clipPath><path clip-path="url(#U)" fill="#239B6A" d="M268.328 109.379a5.938 5.938 0 1 0 0 11.877 5.938 5.938 0 0 0 0-11.877m0 9a3.062 3.062 0 1 1 3.063-3.063 3.061 3.061 0 0 1-3.063 3.063"/><defs><path id="V" d="M0-40h520v440H0z"/></defs><clipPath id="W"><use xlink:href="#V" overflow="visible"/></clipPath><circle clip-path="url(#W)" fill="#FFF" cx="310.75" cy="73.174" r="3.458"/><defs><path id="X" d="M0-40h520v440H0z"/></defs><clipPath id="Y"><use xlink:href="#X" overflow="visible"/></clipPath><path clip-path="url(#Y)" fill="#4263EB" d="M310.672 67.155a5.938 5.938 0 1 0 0 11.875 5.938 5.938 0 0 0 0-11.875m0 9a3.063 3.063 0 1 1 0-6.126 3.063 3.063 0 0 1 0 6.126"/><defs><path id="Z" d="M0-40h520v440H0z"/></defs><clipPath id="aa"><use xlink:href="#Z" overflow="visible"/></clipPath><circle clip-path="url(#aa)" fill="#FFF" cx="424" cy="33.216" r="3.458"/><defs><path id="ab" d="M0-40h520v440H0z"/></defs><clipPath id="ac"><use xlink:href="#ab" overflow="visible"/></clipPath><path clip-path="url(#ac)" fill="#239B6A" d="M423.968 27.291a5.938 5.938 0 1 0 .001 11.875 5.938 5.938 0 0 0-.001-11.875m0 9a3.063 3.063 0 1 1 0-6.124 3.063 3.063 0 0 1 0 6.124"/><defs><path id="ad" d="M0-40h520v440H0z"/></defs><clipPath id="ae"><use xlink:href="#ad" overflow="visible"/></clipPath><circle clip-path="url(#ae)" fill="#FFF" cx="459.292" cy="134.591" r="3.458"/><defs><path id="af" d="M0-40h520v440H0z"/></defs><clipPath id="ag"><use xlink:href="#af" overflow="visible"/></clipPath><path clip-path="url(#ag)" fill="#F2751C" d="M459.336 128.594a5.938 5.938 0 1 0 0 11.876 5.938 5.938 0 0 0 0-11.876m0 9a3.064 3.064 0 1 1 .002-6.128 3.064 3.064 0 0 1-.002 6.128"/><defs><path id="ah" d="M0-40h520v440H0z"/></defs><clipPath id="ai"><use xlink:href="#ah" overflow="visible"/></clipPath><path clip-path="url(#ai)" fill="#F2751C" d="M484 217.766c18.5-17.08-1.25-53.767-37.394-49.75-2.478-20.325-17.683-27.166-41.661-24.709-2.215-9.696-9.12-11.361-17.166-11.074l2.544 5.287-19.656-2.187-58.438 3.703c-5.619 23.297 4.688 38.047 14.924 42.085-11.151 16.629-2.276 36.646 12.705 33.67-13.129 68.577 24.595 95.446 101.604 84.139 15.692-4.479 29.783-13.456 38.587-26.043 6.666-9.526 8.04-20.106 5.48-32.678 8.721-3.876 13.138-18.542-1.529-22.443"/><defs><path id="aj" d="M0-40h520v440H0z"/></defs><clipPath id="ak"><use xlink:href="#aj" overflow="visible"/></clipPath><path clip-path="url(#ak)" fill="#F2751C" d="M451.087 294.684c0 10.318-8.02 18.685-17.912 18.685s-17.911-8.365-17.911-18.685c0-10.32 8.019-18.684 17.911-18.684 9.893 0 17.912 8.364 17.912 18.684"/><defs><path id="al" d="M0-40h520v440H0z"/></defs><clipPath id="am"><use xlink:href="#al" overflow="visible"/></clipPath><path clip-path="url(#am)" fill="#F2751C" d="M322.097 153.287c16.417 6.463 32.353-1.257 52.406-9.011l17.997-6.514c-7.755-32.229-32.04-41.511-58.206-28.928-24.167 12.833-33.044 44.76-4.713 67.51l-7.484-23.057z"/><defs><path id="an" d="M320.462 234.586c-8.239 27.4-12.138 88.948-3.271 100.698 2.56 3.39 12.42.809 16.441-.718 3.566-1.354 6.484-5.229 7.085-9.41 2.021-33.486 5.666-64.665 12.05-91.971 1.72-11.652-7.684-15.16-13.399-15.42-.095-.002-.188-.002-.282-.002-8.604.001-16.04 8.233-18.624 16.823"/></defs><clipPath id="ao"><use xlink:href="#an" overflow="visible"/></clipPath><linearGradient id="ap" gradientUnits="userSpaceOnUse" x1="-1020.481" y1="522.517" x2="-1019.481" y2="522.517" gradientTransform="rotate(-84.799 -66443.608 -24968.814) scale(83.8634)"><stop offset="0" stop-color="#f1b827"/><stop offset="1" stop-color="#fecc4d"/></linearGradient><path clip-path="url(#ao)" fill="url(#ap)" d="M297.408 337.681l11.295-124.083 56.699 5.16-11.295 124.084z"/><defs><path id="aq" d="M0-40h520v440H0z"/></defs><clipPath id="ar"><use xlink:href="#aq" overflow="visible"/></clipPath><path clip-path="url(#ar)" fill="#FECC4D" d="M332.618 219.357c7.396-6.781 15.224-12.75 23.426-17.416 12.89-7.334 26.703-11.45 41.207-10.449 10.787.745 21.957 4.32 33.416 11.508 28 28.667-8.271 85.667-.167 127.667h-71.438C353.247 277 331.254 271 332.618 219.357"/><defs><path id="as" d="M0-40h520v440H0z"/></defs><clipPath id="at"><use xlink:href="#as" overflow="visible"/></clipPath><path clip-path="url(#at)" fill="#FFF" d="M427.762 328.667c.071 5.159-6.104 7.717-6.104 7.717-2.166-1.657-8.736-.252-11.462-.148l-83.113 3.246c-9.75 0-13.083-6.481-13.33-12.729-.213-5.383 4.497-14.503 15.83-13.061l83.781 9.342 8.724-1.824c5.355-.075 5.602 2.298 5.674 7.457"/><defs><path id="au" d="M0-40h520v440H0z"/></defs><clipPath id="av"><use xlink:href="#au" overflow="visible"/></clipPath><path clip-path="url(#av)" fill="#FFF" d="M320.219 153.47c3.018 14.471 11.531 30.854 23.406 40.529 5.688 4.563 12.604 1.068 14.129.275l-.688 17.99c.412 1.786 1.852 3.135 3.651 3.483 13.589 2.637 30.882-2.427 36.099-16.361a7.614 7.614 0 0 0 .35-3.971c-2.107-12.041-7.05-24.147-15.757-34.509a.992.992 0 0 1 .038-1.317c8.38-9.131.979-18.927-8.174-15.15a1.342 1.342 0 0 1-1.488-.335c-7.987-8.625-27.412 7.387-51.566 9.366"/><defs><path id="aw" d="M0-40h520v440H0z"/></defs><clipPath id="ax"><use xlink:href="#aw" overflow="visible"/></clipPath><path clip-path="url(#ax)" fill="#EAEACD" d="M381.184 160.327c-4.934 16.36-10.47 25.563-23.43 33.948l-.686 17.991c26.28-8.442 22.063-29.713 24.116-51.939"/><defs><path id="ay" d="M0-40h520v440H0z"/></defs><clipPath id="az"><use xlink:href="#ay" overflow="visible"/></clipPath><path clip-path="url(#az)" fill="#1F46E7" d="M283.977 257.752h58.432a3.818 3.818 0 0 0 3.736-4.6l-8.578-40.939c-.319-1.529-1.604-2.518-3.276-2.518h-59.785c-4.475 0-4.637 1.625-4.045 4.58l8.205 39.16a5.423 5.423 0 0 0 5.311 4.317"/><defs><path id="aA" d="M0-40h520v440H0z"/></defs><clipPath id="aB"><use xlink:href="#aA" overflow="visible"/></clipPath><path clip-path="url(#aB)" fill="#4263EB" d="M280.734 257.752h58.431a3.817 3.817 0 0 0 3.735-4.6l-8.576-40.939c-.32-1.529-1.606-2.518-3.277-2.518h-59.786c-4.474 0-4.636 1.625-4.044 4.58l8.205 39.16a5.426 5.426 0 0 0 5.312 4.317"/><defs><path id="aC" d="M0-40h520v440H0z"/></defs><clipPath id="aD"><use xlink:href="#aC" overflow="visible"/></clipPath><path clip-path="url(#aD)" fill="#3054E9" d="M280.734 257.752h58.431a3.817 3.817 0 0 0 3.735-4.6l-6.559-31.303c-23.387 5.712-45.802 15.264-55.607 35.903"/><defs><path id="aE" d="M413.273 211.538c-11.541 30.729-28.268 63.452-48.076 97.36-2.135 4.463-1.814 10.132.775 13.769 2.924 4.103 11.707 13.907 16.401 12.271 16.274-5.67 50.329-66.781 60.125-98.813 3.105-10.152 3.875-20.875-4.875-28.375-2.794-2.37-6.016-4.309-9.426-6.244a6.217 6.217 0 0 0-3.107-.82c-4.235 0-8.979 4.071-11.817 10.852"/></defs><clipPath id="aF"><use xlink:href="#aE" overflow="visible"/></clipPath><linearGradient id="aG" gradientUnits="userSpaceOnUse" x1="-1020.141" y1="521.904" x2="-1019.141" y2="521.904" gradientTransform="rotate(-83.398 -97366.966 -37977.046) scale(121.7533)"><stop offset="0" stop-color="#f1b827"/><stop offset="1" stop-color="#fecc4d"/></linearGradient><path clip-path="url(#aF)" fill="url(#aG)" d="M347.645 333.908l16.519-142.738 97.631 11.3-16.523 142.738z"/><defs><path id="aH" d="M0-40h520v440H0z"/></defs><clipPath id="aI"><use xlink:href="#aH" overflow="visible"/></clipPath><path clip-path="url(#aI)" fill="#FFF" d="M419.033 335.503c3.474 1.856 10.024-.085 13.917-1.544a10.204 10.204 0 0 1 6.531-.23c1.567.469 4.237 1.105 6.373 1.596a7.049 7.049 0 0 0 5.889-1.294l1.496-1.157a1.753 1.753 0 0 0-.322-2.97l-18.7-7.845c-3.879-1.437-8.101-1.783-12.13-.85-4.749 1.102-9.383 1.878-13.91 4.278 0 .001 5.968 7.209 10.856 10.016"/><defs><path id="aJ" d="M0-40h520v440H0z"/></defs><clipPath id="aK"><use xlink:href="#aJ" overflow="visible"/></clipPath><path clip-path="url(#aK)" fill="#FFF" d="M322.156 244.781l-3.319-5.984a5.725 5.725 0 0 0-1.159-1.248l-4.57-3.638a.864.864 0 0 0-1.013-.043l-.262.175a1.562 1.562 0 0 0-.356 2.271l2.61 3.332c.165.209.294.445.383.697l1.282 6.196 6.404-1.758z"/><defs><path id="aL" d="M0-40h520v440H0z"/></defs><clipPath id="aM"><use xlink:href="#aL" overflow="visible"/></clipPath><path clip-path="url(#aM)" fill="#FFF" d="M312.198 245.956c-4.066 3.174-4.814 9.817-1.521 14.041a11.729 11.729 0 0 1 6.615 4.396l49.99 67.203c8.042 7 14.538 6.251 19.386 1.405 3.041-3.04 5.987-12.096-.633-18.716l-62.495-66.988-1.386-2.516c-3.295-4.224-5.888-1.999-9.956 1.175"/><defs><path id="aN" d="M0-40h520v440H0z"/></defs><clipPath id="aO"><use xlink:href="#aN" overflow="visible"/></clipPath><path clip-path="url(#aO)" fill="none" stroke="#EEE" stroke-linecap="round" stroke-miterlimit="10" d="M356.29 316.873l9.886 13.518c6.949 8.484 16.316 6.492 19.741 3.067"/><defs><path id="aP" d="M0-40h520v440H0z"/></defs><clipPath id="aQ"><use xlink:href="#aP" overflow="visible"/></clipPath><path clip-path="url(#aQ)" fill="#FFF" d="M323.059 255.415c-1.313-6.194-5.013-11.382-12.858-14.813l-15.321-5.938c-2.002-.773-4.094 1.34-3.443 3.482l3.838 12.682c.838 2.764 2.86 4.889 5.489 5.763l13.272 4.413 9.023-5.589z"/><defs><path id="aR" d="M177.015 213.718l-2.513 26.563c-.72.783-13.521 4.091-13.265 5.125-1.668 25.607 18.615 41.406 28.547 53.206l26.958-23.595a3.18 3.18 0 0 0 1.146-3.371c-6.679-7.844-17.966-44.685-29.564-64.488-.361-.305-.802-.438-1.298-.438-3.153 0-8.549 5.404-10.011 6.998"/></defs><clipPath id="aS"><use xlink:href="#aR" overflow="visible"/></clipPath><linearGradient id="aT" gradientUnits="userSpaceOnUse" x1="-1017.233" y1="519.787" x2="-1016.233" y2="519.787" gradientTransform="rotate(48.598 5110.285 109786.443) scale(78.9538)"><stop offset="0" stop-color="#4ccd9b"/><stop offset="1" stop-color="#239b6a"/></linearGradient><path clip-path="url(#aS)" fill="url(#aT)" d="M192.573 177.622l71.24 80.8-78.588 69.289-71.24-80.8z"/><defs><path id="aU" d="M0-40h520v440H0z"/></defs><clipPath id="aV"><use xlink:href="#aU" overflow="visible"/></clipPath><path clip-path="url(#aV)" fill="#4CCD9B" d="M183.481 201.762c-28.736-21.809-67.522-24.83-103.35-2.354-29.561 30.265 15.237 86.46 6.681 130.802h99.206c5.831-53.811 9.669-66.673 5.01-114.857-.52-5.382-3.242-10.323-7.547-13.591"/><defs><path id="aW" d="M65.801 213.686c-16.263 31.4-37.916 107.073-25.051 119.938 5.129 5.129 7.583 5.045 14.053 5.045l67.87-3.038c6.227-.181 24.091-4.387 24.338-10.609.249-6.24-4.385-11.603-10.635-11.246l-61.143-6.479c8.759-32.12 18.616-61.837 30.129-87.937 4.749-13.764-5.872-20.168-12.757-21.787a16.915 16.915 0 0 0-3.483-.358c-9.433-.001-18.731 7.609-23.321 16.471"/></defs><clipPath id="aX"><use xlink:href="#aW" overflow="visible"/></clipPath><linearGradient id="aY" gradientUnits="userSpaceOnUse" x1="-1019.373" y1="522.063" x2="-1018.373" y2="522.063" gradientTransform="rotate(-54.53 -111557.43 -80035.652) scale(110.1205)"><stop offset="0" stop-color="#239b6a"/><stop offset="1" stop-color="#4ccd9b"/></linearGradient><path clip-path="url(#aX)" fill="url(#aY)" d="M-36.345 291.384l106.328-149.23 144.374 102.867-106.328 149.231z"/><defs><path id="aZ" d="M0-40h520v440H0z"/></defs><clipPath id="ba"><use xlink:href="#aZ" overflow="visible"/></clipPath><path clip-path="url(#ba)" fill="#FFF" d="M136.227 333.714c4.169 2.107 12.053-1.035 16.739-3.302 2.527-1.223 5.277-1.549 7.855-.905 1.883.47 5.091 1.059 7.654 1.501 2.473.428 5.072-.392 7.086-2.234l1.804-1.65c1.247-1.143 1.044-3.232-.376-3.855l-22.446-9.845a23.333 23.333 0 0 0-14.581.007c-.8.264-1.597.543-2.392.84-8.445 3.155-9.365 14.907-1.519 19.349.058.029.116.062.176.094"/><defs><path id="bb" d="M0-40h520v440H0z"/></defs><clipPath id="bc"><use xlink:href="#bb" overflow="visible"/></clipPath><path clip-path="url(#bc)" fill="#1F46E7" d="M197.681 336.953h-53.476c-5.402 0-9.781-4.379-9.781-9.781h63.257v9.781z"/><defs><path id="bd" d="M0-40h520v440H0z"/></defs><clipPath id="be"><use xlink:href="#bd" overflow="visible"/></clipPath><path clip-path="url(#be)" fill="#4263EB" d="M269.118 336.953h-88.22l13.332-63.639c.448-2.138 2.244-3.519 4.58-3.519h83.545c6.252 0 6.479 2.271 5.65 6.401l-11.466 54.726a7.58 7.58 0 0 1-7.421 6.031"/><defs><path id="bf" d="M0-40h520v440H0z"/></defs><clipPath id="bg"><use xlink:href="#bf" overflow="visible"/></clipPath><path clip-path="url(#bg)" fill="#3054E9" d="M269.118 336.953a7.586 7.586 0 0 0 7.423-6.029l9.179-43.808c-29.386 35.188-84.053 8.188-100.673 49.834l-.002.003h84.073z"/><defs><path id="bh" d="M0-40h520v440H0z"/></defs><clipPath id="bi"><use xlink:href="#bh" overflow="visible"/></clipPath><path clip-path="url(#bi)" fill="#FFF" d="M195.018 119.409c.91 23.264-1.152 38.617-9.091 54.846-2.204 4.507-6.918 7.233-11.928 6.957l-.129-.007a7.128 7.128 0 0 0-6.559 3.541l-.403 13.116a7.418 7.418 0 0 1-.723 2.964c-9.745 20.326-37.537 7.517-43.901-8.431-.952-2.386-.937-5.048-.114-7.479l12.058-21.416 14.369-56.633 46.421 12.542z"/><defs><path id="bj" d="M0-40h520v440H0z"/></defs><clipPath id="bk"><use xlink:href="#bj" overflow="visible"/></clipPath><path clip-path="url(#bk)" fill="#FFF" d="M150.553 144.402c.317 6.211-3.075 11.433-7.577 11.663-4.503.23-8.41-4.618-8.727-10.83-.318-6.211 3.075-11.433 7.577-11.663 4.502-.23 8.409 4.619 8.727 10.83"/><defs><path id="bl" d="M0-40h520v440H0z"/></defs><clipPath id="bm"><use xlink:href="#bl" overflow="visible"/></clipPath><path clip-path="url(#bm)" fill="#4263EB" d="M190.875 108.929L159.71 95.242c-16.324-3.161-28.926 6.854-31.869 23.124-2.966 16.397-2.283 32.698 2.411 48.891.52 1.794 2.787 2.365 4.098 1.036l4.525-13.496c-2.562-1.81-4.412-5.372-4.627-9.562-.317-6.211 3.075-11.433 7.578-11.663 2.537-.13 4.789 1.422 6.503 3.79.677.935 1.296 1.294 1.376-.334l.499-4.07c1.203-9.813 10.797-16.301 20.352-13.764l24.611 3.639c13.349-4.223 12.828-10.788-4.292-13.904"/><defs><path id="bn" d="M0-40h520v440H0z"/></defs><clipPath id="bo"><use xlink:href="#bn" overflow="visible"/></clipPath><path clip-path="url(#bo)" fill="#FFF" d="M244.472 306.351c-1.153 3.88-4.9 6.841-8.368 6.614-3.469-.225-5.346-3.552-4.192-7.43 1.153-3.879 4.9-6.84 8.368-6.615 3.469.226 5.345 3.551 4.192 7.431"/><defs><path id="bp" d="M0-40h520v440H0z"/></defs><clipPath id="bq"><use xlink:href="#bp" overflow="visible"/></clipPath><path clip-path="url(#bq)" fill="none" stroke="#EEE" stroke-linecap="round" stroke-miterlimit="10" d="M151.213 170.433c3.508 6.032 9.331 10.445 20.822 10.899"/><defs><path id="br" d="M0-40h520v440H0z"/></defs><clipPath id="bs"><use xlink:href="#br" overflow="visible"/></clipPath><path clip-path="url(#bs)" fill="#4263EB" d="M146.307 118.583c8.408 5.905 9.064-.892 15.423-.487 13.63 2.044 17.971 8.388 34.069 11.605 8.719 1.174 15.201-5.576 13.951-14.191-1.335-7.383-8.874-9.131-13.691-6.678-4.786-8.29-12.561-14.217-21.684-15.582-14.139-2.115-30.771 4.858-38.773 16.503l10.705 8.83z"/><defs><path id="bt" d="M0-40h520v440H0z"/></defs><clipPath id="bu"><use xlink:href="#bt" overflow="visible"/></clipPath><path clip-path="url(#bu)" fill="#FFF" d="M105.5 165c1.93 0 1.934-3 0-3-1.93 0-1.934 3 0 3"/></svg>