<?xml version="1.0" encoding="utf-8"?>
<!-- Generator: Adobe Illustrator 16.0.0, SVG Export Plug-In . SVG Version: 6.00 Build 0)  -->
<!DOCTYPE svg PUBLIC "-//W3C//DTD SVG 1.1//EN" "http://www.w3.org/Graphics/SVG/1.1/DTD/svg11.dtd">
<svg version="1.1" id="Слой_1" xmlns="http://www.w3.org/2000/svg" xmlns:xlink="http://www.w3.org/1999/xlink" x="0px" y="0px"
	 width="530px" height="180px" viewBox="0 0 530 180" enable-background="new 0 0 530 180" xml:space="preserve">
<g>
	<defs>
		<path id="SVGID_1_" d="M181.333,71.667c-10.842,1.626-19.067-0.825-27.016-3.276c-11.601-3.578-22.614-7.156-40.317,1.942
			C77.333,91.084,89.5,136.5,50,151h430c-14.166-4.5-16.5-16.5-30.667-26c-13.288-8.784-25.938-3.042-35.855-12
			c-12.958-13.542-7.605-39.708-32.605-45.709c-12.73-2.361-20.215,0.084-27.213,2.529c-6.952,2.43-13.424,4.86-24.075,2.575
			C294.333,61.478,295.781,22.5,257.5,22.5C208.5,22.5,199.667,68.167,181.333,71.667"/>
	</defs>
	<clipPath id="SVGID_2_">
		<use xlink:href="#SVGID_1_"  overflow="visible"/>
	</clipPath>
	
		<radialGradient id="SVGID_3_" cx="0" cy="180" r="1" gradientTransform="matrix(255.0197 0 0 -120.75 247 21898.75)" gradientUnits="userSpaceOnUse">
		<stop  offset="0" style="stop-color:#96B7E1"/>
		<stop  offset="1" style="stop-color:#FFFFFF"/>
	</radialGradient>
	<rect x="50" y="22.5" clip-path="url(#SVGID_2_)" fill="url(#SVGID_3_)" width="430" height="128.5"/>
</g>
<g>
	<defs>
		<rect id="SVGID_4_" width="530" height="180"/>
	</defs>
	<clipPath id="SVGID_5_">
		<use xlink:href="#SVGID_4_"  overflow="visible"/>
	</clipPath>
	
		<path clip-path="url(#SVGID_5_)" fill="none" stroke="#F2751C" stroke-linecap="round" stroke-miterlimit="10" stroke-dasharray="1.923,5" d="
		M423.75,126.25h-22.705c-0.715,0-1.367-0.41-1.676-1.055l-3.863-8.058c-0.309-0.645-0.961-1.055-1.676-1.055h-7.593
		c-0.749,0-1.426-0.45-1.714-1.141l-2.743-6.566c-0.646-1.544-2.844-1.515-3.447,0.046l-2.54,6.559
		c-0.277,0.715-0.965,1.187-1.733,1.187h-7.054c-0.8,0-1.51-0.512-1.763-1.271l-9.986-29.959c-0.253-0.759-0.963-1.27-1.763-1.27
		h-16.798c-0.89,0-1.653,0.628-1.824,1.5l-2.411,12.283c-0.171,0.872-0.935,1.501-1.823,1.501h-6.42
		c-0.897,0-1.668,0.642-1.828,1.525l-2.446,13.496c-0.16,0.885-0.931,1.527-1.828,1.527h-7.343c-0.848,0-1.588-0.573-1.8-1.394
		l-5.557-21.515c-0.48-1.854-3.113-1.858-3.597-0.005l-4.538,17.371c-0.455,1.743-2.875,1.884-3.529,0.206l-2.633-6.749
		c-0.616-1.58-2.854-1.576-3.465,0.007l-4.195,10.888c-0.277,0.718-0.966,1.19-1.734,1.19h-22.139c-0.878,0-1.636-0.614-1.818-1.472
		l-6.397-30.123c-0.402-1.89-3.063-1.988-3.602-0.132l-7.612,26.208c-0.534,1.839-3.164,1.766-3.595-0.101l-2.616-11.334
		c-0.427-1.849-3.025-1.944-3.586-0.131l-9.008,29.123c-0.241,0.778-0.961,1.309-1.775,1.309h-10.933
		c-1.026,0-1.858-0.832-1.858-1.857v-12.789c0-1.026-0.832-1.858-1.858-1.858h-18.07c-1.026,0-1.858,0.832-1.858,1.858v12.789
		c0,1.025-0.832,1.857-1.858,1.857h-17.51c-0.695,0-1.332-0.388-1.651-1.006l-5.57-10.783c-0.71-1.374-2.69-1.331-3.338,0.073
		l-6.908,14.956c-0.304,0.657-0.962,1.079-1.687,1.079H110.27c-0.493,0-0.966,0.195-1.314,0.544l-4.662,4.661
		c-0.348,0.349-0.821,0.545-1.314,0.545H86"/>
	<path clip-path="url(#SVGID_5_)" fill="none" stroke="#239B6A" stroke-linecap="round" stroke-miterlimit="10" d="M88.5,111h29.486
		c1.248,0,2.404-0.659,3.04-1.733l10.455-17.666c1.363-2.303,4.692-2.313,6.069-0.018l7.921,13.202
		c0.638,1.063,1.788,1.715,3.029,1.715h9.681c1.408,0,2.681-0.836,3.241-2.128l8.722-20.127c1.246-2.877,5.343-2.825,6.517,0.081
		l6.447,15.964c0.539,1.336,1.835,2.21,3.275,2.21h20.482c1.413,0,2.69-0.842,3.247-2.14l23.183-54.053
		c1.133-2.641,4.775-2.897,6.266-0.441l10.244,16.873c1.415,2.331,4.827,2.248,6.126-0.15l2.567-4.739
		c0.617-1.14,1.81-1.85,3.106-1.85h12.129c1.381,0,2.636,0.805,3.211,2.061l3.611,7.878c0.575,1.256,1.83,2.061,3.211,2.061h22.143
		c1.542,0,2.906,1,3.369,2.471l9.942,31.558c0.464,1.471,1.828,2.471,3.37,2.471h21.913c1.293,0,2.482-0.706,3.102-1.841
		l5.376-9.854c1.294-2.373,4.663-2.472,6.097-0.181l4.532,7.253c1.356,2.171,4.502,2.222,5.929,0.096l12.404-18.478
		c1.329-1.98,4.198-2.101,5.689-0.239l5.942,7.42c0.671,0.837,1.685,1.324,2.758,1.324H426.5"/>
	<path clip-path="url(#SVGID_5_)" fill="#4263EB" d="M210.589,158.015h97.374l-8.557-70.24c-0.287-2.36-2.137-3.883-4.715-3.883
		h-92.215c-6.9,0-7.37,2.507-6.856,7.064l7.358,60.403C203.451,155.237,206.626,158.015,210.589,158.015"/>
	<path clip-path="url(#SVGID_5_)" fill="#96B7E1" d="M215.509,154.105h86.118l-7.567-62.121c-0.254-2.086-1.89-3.434-4.169-3.434
		h-81.556c-6.103,0-6.519,2.217-6.064,6.248l6.508,53.421C209.196,151.649,212.004,154.105,215.509,154.105"/>
	<path clip-path="url(#SVGID_5_)" fill="#1F46E7" d="M202.474,147.219l0.504,4.141c0.473,3.877,3.649,6.655,7.61,6.655h128.694
		c5.962,0,10.795-4.834,10.795-10.796H202.474z"/>
	<path clip-path="url(#SVGID_5_)" fill="#FFFFFF" d="M283.313,107.026h-12.118c-0.462,0-0.835-0.318-0.9-0.768l-0.63-4.328
		c-0.091-0.622,0.435-1.218,1.073-1.218h12.119c0.461,0,0.834,0.317,0.899,0.768l0.631,4.328
		C284.477,106.43,283.951,107.026,283.313,107.026"/>
	<path clip-path="url(#SVGID_5_)" fill="#239B6A" d="M284.803,117.262h-12.117c-0.463,0-0.836-0.318-0.9-0.768l-0.63-4.327
		c-0.091-0.623,0.434-1.219,1.073-1.219h12.118c0.461,0,0.834,0.317,0.899,0.768l0.631,4.328
		C285.967,116.666,285.442,117.262,284.803,117.262"/>
	<path clip-path="url(#SVGID_5_)" fill="#FFC400" d="M286.294,127.497h-12.118c-0.462,0-0.835-0.318-0.899-0.767l-0.631-4.328
		c-0.091-0.623,0.435-1.219,1.073-1.219h12.119c0.461,0,0.834,0.317,0.899,0.768l0.631,4.328
		C287.458,126.901,286.933,127.497,286.294,127.497"/>
	<path clip-path="url(#SVGID_5_)" fill="none" stroke="#1F46E7" stroke-width="0.75" stroke-miterlimit="10" d="M267.245,132.663
		h-47.321c-0.461,0-0.834-0.318-0.899-0.768l-4.727-32.452c-0.09-0.622,0.435-1.218,1.074-1.218h47.321
		c0.461,0,0.834,0.318,0.899,0.767l4.727,32.452C268.409,132.066,267.884,132.663,267.245,132.663z"/>
	
		<line clip-path="url(#SVGID_5_)" fill="none" stroke="#1F46E7" stroke-width="0.75" stroke-linecap="round" stroke-miterlimit="10" x1="218.343" y1="102.435" x2="242.449" y2="102.435"/>
	
		<line clip-path="url(#SVGID_5_)" fill="none" stroke="#1F46E7" stroke-width="0.75" stroke-linecap="round" stroke-miterlimit="10" x1="246.754" y1="102.435" x2="256.081" y2="102.435"/>
	
		<line clip-path="url(#SVGID_5_)" fill="none" stroke="#1F46E7" stroke-width="0.75" stroke-linecap="round" stroke-miterlimit="10" x1="218.947" y1="105.878" x2="250.828" y2="105.878"/>
	
		<line clip-path="url(#SVGID_5_)" fill="none" stroke="#1F46E7" stroke-width="0.75" stroke-linecap="round" stroke-miterlimit="10" x1="253.409" y1="105.878" x2="261.159" y2="105.878"/>
	<path clip-path="url(#SVGID_5_)" fill="#239B6A" d="M132.507,163.015l-12.059-7.145c-0.256-0.218-0.348-0.572-0.231-0.889
		l9.249-31.544L132.507,163.015z"/>
	<path clip-path="url(#SVGID_5_)" fill="#4CCD9B" d="M165.191,161.975l-32.685,1.04l-3.064-39.363
		c-0.028-0.364,0.26-0.675,0.625-0.675h28.291c0.364,0,0.683,0.245,0.776,0.597l6.905,37.259
		C166.189,161.396,165.775,161.954,165.191,161.975"/>
	<path clip-path="url(#SVGID_5_)" fill="#4263EB" d="M378.964,122.854h50.917c-7.292-2.542-8.854-9.042-13.667-10.833
		c-5.042-1.709-10.042,1.916-14,1c-4.339-1.146-5.464-6.021-10.526-4.834c-3.375,1.25-3.535,5.084-5.307,9
		C385.296,119.677,382.662,121.496,378.964,122.854"/>
</g>
<g>
	<defs>
		<path id="SVGID_6_" d="M397.471,149.693v-8.678c0.853-0.591,1.883-0.94,2.999-0.94c2.916,0,5.28,2.363,5.28,5.278
			c0,2.916-2.364,5.28-5.28,5.28C399.354,150.634,398.323,150.283,397.471,149.693 M368.97,131.514v26.834
			c0,2.577,6.38,4.666,14.251,4.666c7.869,0,14.25-2.089,14.25-4.666v-6.19c0.918,0.406,1.932,0.634,2.999,0.634
			c4.108,0,7.438-3.329,7.438-7.438c0-4.106-3.33-7.437-7.438-7.437c-1.067,0-2.081,0.229-2.999,0.634v-7.037H368.97z"/>
	</defs>
	<clipPath id="SVGID_7_">
		<use xlink:href="#SVGID_6_"  overflow="visible"/>
	</clipPath>
	
		<linearGradient id="SVGID_8_" gradientUnits="userSpaceOnUse" x1="0" y1="179.999" x2="1" y2="179.999" gradientTransform="matrix(38.9375 0 0 -38.9375 368.9688 7156)">
		<stop  offset="0" style="stop-color:#FF9A01"/>
		<stop  offset="1" style="stop-color:#FFC400"/>
	</linearGradient>
	<rect x="368.97" y="131.514" clip-path="url(#SVGID_7_)" fill="url(#SVGID_8_)" width="38.938" height="31.5"/>
</g>
<g>
	<defs>
		<rect id="SVGID_9_" width="530" height="180"/>
	</defs>
	<clipPath id="SVGID_10_">
		<use xlink:href="#SVGID_9_"  overflow="visible"/>
	</clipPath>
	<path clip-path="url(#SVGID_10_)" fill="#F2751C" d="M397.471,131.924c0,1.699-6.38,3.076-14.25,3.076s-14.25-1.377-14.25-3.076
		s6.38-3.076,14.25-3.076S397.471,130.225,397.471,131.924"/>
	<path clip-path="url(#SVGID_10_)" fill="#239B6A" d="M134.327,86.5c-1.933,0-3.5,1.567-3.5,3.5c0,1.934,1.567,3.5,3.5,3.5
		c1.933,0,3.5-1.566,3.5-3.5C137.827,88.067,136.26,86.5,134.327,86.5 M134.327,91.806c-0.997,0-1.805-0.809-1.805-1.806
		c0-0.997,0.808-1.806,1.805-1.806s1.805,0.809,1.805,1.806C136.132,90.997,135.324,91.806,134.327,91.806"/>
	<path clip-path="url(#SVGID_10_)" fill="#239B6A" d="M236.466,40.667c-1.933,0-3.5,1.567-3.5,3.5s1.567,3.5,3.5,3.5
		s3.5-1.567,3.5-3.5S238.399,40.667,236.466,40.667 M236.466,45.972c-0.997,0-1.805-0.808-1.805-1.805s0.808-1.806,1.805-1.806
		s1.805,0.809,1.805,1.806S237.463,45.972,236.466,45.972"/>
	<path clip-path="url(#SVGID_10_)" fill="#239B6A" d="M385.133,76.667c-1.933,0-3.5,1.567-3.5,3.5s1.567,3.5,3.5,3.5
		s3.5-1.567,3.5-3.5S387.065,76.667,385.133,76.667 M385.133,81.972c-0.997,0-1.805-0.808-1.805-1.805s0.808-1.806,1.805-1.806
		s1.805,0.809,1.805,1.806S386.13,81.972,385.133,81.972"/>
	<path clip-path="url(#SVGID_10_)" fill="#F2751C" d="M181.158,125.348c-1.933,0-3.5,1.567-3.5,3.5c0,1.934,1.567,3.5,3.5,3.5
		c1.933,0,3.5-1.566,3.5-3.5C184.658,126.915,183.091,125.348,181.158,125.348 M181.158,130.653c-0.997,0-1.805-0.809-1.805-1.806
		c0-0.996,0.808-1.806,1.805-1.806c0.997,0,1.805,0.81,1.805,1.806C182.963,129.845,182.155,130.653,181.158,130.653"/>
	<path clip-path="url(#SVGID_10_)" fill="#F2751C" d="M336.785,80.539c-1.933,0-3.5,1.567-3.5,3.5s1.567,3.5,3.5,3.5
		s3.5-1.567,3.5-3.5S338.718,80.539,336.785,80.539 M336.785,85.844c-0.997,0-1.805-0.808-1.805-1.805s0.808-1.806,1.805-1.806
		s1.805,0.809,1.805,1.806S337.782,85.844,336.785,85.844"/>
	<path clip-path="url(#SVGID_10_)" fill="#F2751C" d="M365.99,112c-1.934,0-3.5,1.567-3.5,3.5s1.566,3.5,3.5,3.5
		c1.933,0,3.5-1.567,3.5-3.5S367.923,112,365.99,112 M365.99,117.305c-0.997,0-1.806-0.808-1.806-1.805s0.809-1.806,1.806-1.806
		s1.805,0.809,1.805,1.806S366.987,117.305,365.99,117.305"/>
</g>
</svg>
