<svg xmlns="http://www.w3.org/2000/svg" xmlns:xlink="http://www.w3.org/1999/xlink" width="530" height="180" viewBox="0 0 530 180"><defs><path id="a" d="M181.333 71.667c-10.842 1.626-19.067-.825-27.016-3.276-11.601-3.578-22.614-7.156-40.317 1.942C77.333 91.084 89.5 136.5 50 151h430c-14.166-4.5-16.5-16.5-30.667-26-13.288-8.784-25.938-3.042-35.855-12-12.958-13.542-7.605-39.708-32.605-45.709-12.73-2.361-20.215.084-27.213 2.529-6.952 2.43-13.424 4.86-24.075 2.575C294.333 61.478 295.781 22.5 257.5 22.5c-49 0-57.833 45.667-76.167 49.167"/></defs><clipPath id="b"><use xlink:href="#a" overflow="visible"/></clipPath><radialGradient id="c" cx="0" cy="180" r="1" gradientTransform="matrix(277.0251 0 0 -141.7301 247 25675.174)" gradientUnits="userSpaceOnUse"><stop offset="0" stop-color="#ff9a01"/><stop offset=".121" stop-color="#ffac2f"/><stop offset=".301" stop-color="#ffc56d"/><stop offset=".475" stop-color="#ffdaa1"/><stop offset=".636" stop-color="#ffeaca"/><stop offset=".782" stop-color="#fff5e7"/><stop offset=".908" stop-color="#fffdf9"/><stop offset="1" stop-color="#fff"/></radialGradient><path clip-path="url(#b)" fill="url(#c)" d="M50 22.5h430V151H50z"/><defs><path id="d" d="M0 0h530v180H0z"/></defs><clipPath id="e"><use xlink:href="#d" overflow="visible"/></clipPath><path clip-path="url(#e)" fill="#F2751C" d="M397.167 125.167c0 1.656-5.56 3-12.417 3s-12.416-1.344-12.416-3c0-1.657 5.559-3 12.416-3s12.417 1.343 12.417 3"/><path clip-path="url(#e)" fill="#96B7E1" d="M95.698 112.586h64.148v38.613H95.698z"/><path clip-path="url(#e)" fill="#4263EB" d="M178.322 146.217l-18.476 4.982v-38.613l18.476 2.491z"/><path clip-path="url(#e)" fill="#D9EDF6" d="M116.458 126.703h51.069v34.461h-51.069z"/><path clip-path="url(#e)" fill="#96B7E1" d="M167.527 126.703l16.816 2.49v26.989l-16.816 4.982z"/><path clip-path="url(#e)" fill="none" stroke="#96B7E1" stroke-linecap="round" stroke-miterlimit="10" d="M124.836 131.833h42.914m-24.417 3.687h24.443m-51.318 10.5h31.792m-31.792 4h12.667"/><path clip-path="url(#e)" fill="#239B6A" d="M354.632 156.113l-41.828 10.582-1.146-4.524 41.828-10.582a.854.854 0 0 1 1.038.618l.726 2.868a.856.856 0 0 1-.618 1.038"/><path clip-path="url(#e)" fill="#4CCD9B" d="M355.035 156.011l-2.747.695c.222-1.656-.163-3.284-1.144-4.524l2.782-.704a.592.592 0 0 1 .631.222c.723 1.041.99 2.318.93 3.765a.598.598 0 0 1-.452.546m-43.376 6.16c1.021 1.275 1.521 2.741 1.145 4.523l-7.399-.535 6.254-3.988z"/><path clip-path="url(#e)" fill="#1F46E7" d="M311.869 151h-46.667l-7.333-24.968h46.667z"/><path clip-path="url(#e)" fill="#4263EB" d="M304.369 151h-46.667l-7.333-24.968h46.667z"/><path clip-path="url(#e)" fill="#1F46E7" d="M251.485 129.833h46.667l4.136 14.083c-3.319-11.303-46.333 1.132-50.803-14.083m78.084 0h-104.06c-3.481 0-5.998-2.821-5.623-6.304l6.226-57.666c.376-3.482 3.502-6.304 6.984-6.304h104.059c3.481 0 5.999 2.822 5.623 6.304l-6.226 57.666c-.375 3.483-3.502 6.304-6.983 6.304"/><path clip-path="url(#e)" fill="#FFF" d="M325.436 129.833h-104.06c-3.481 0-5.998-2.821-5.623-6.304l6.226-57.666c.376-3.482 3.502-6.304 6.984-6.304h104.059c3.481 0 5.999 2.822 5.623 6.304l-6.226 57.666c-.376 3.483-3.503 6.304-6.983 6.304"/><path clip-path="url(#e)" fill="#4263EB" d="M338.645 65.863c.376-3.481-2.142-6.304-5.623-6.304h-104.06c-3.481 0-6.608 2.823-6.984 6.304l-.622 5.761h116.667l.622-5.761zM215.753 123.53c-.376 3.48 2.142 6.304 5.623 6.304h104.06c3.481 0 6.608-2.823 6.984-6.304l.622-5.762H216.375l-.622 5.762z"/><path clip-path="url(#e)" fill="#FFF" d="M277.146 124.125c-.186 1.726-1.735 3.125-3.462 3.125-1.726 0-2.974-1.399-2.788-3.125.187-1.726 1.736-3.125 3.462-3.125 1.727 0 2.975 1.399 2.788 3.125"/><path clip-path="url(#e)" fill="none" stroke="#C8CBAC" stroke-width="1.17" stroke-linecap="round" stroke-miterlimit="10" d="M226.866 79.224h83.663m-2.206 7.736h23.129m-69.466 0h37.393m-73.67 0h19.837m63.958 7.736h20.791m-63.912 0h35.385m-77.216 0h29.025m-.674 7.737h40.94m-70.448 0h17.098m-13.627 0h83.663m-88.207 7.736h104.332"/><defs><path id="f" d="M372.334 125.167l2.999 32.166c0 1.657 4.216 3 9.417 3s9.417-1.343 9.417-3l2.999-32.166h-24.832z"/></defs><clipPath id="g"><use xlink:href="#f" overflow="visible"/></clipPath><linearGradient id="h" gradientUnits="userSpaceOnUse" x1="0" y1="180" x2="1" y2="180" gradientTransform="matrix(24.8334 0 0 -24.8334 372.328 4612.757)"><stop offset="0" stop-color="#ff9a01"/><stop offset="1" stop-color="#ffc400"/></linearGradient><path clip-path="url(#g)" fill="url(#h)" d="M372.334 125.167h24.832v35.166h-24.832z"/><defs><path id="i" d="M0 0h530v180H0z"/></defs><clipPath id="j"><use xlink:href="#i" overflow="visible"/></clipPath><path clip-path="url(#j)" fill="#4263EB" d="M284.208 143.582l4.395 10.158a1.621 1.621 0 0 1-1.011 2.191l-10.427 3.368 7.043-15.717z"/><path clip-path="url(#j)" fill="#D9EDF6" d="M276.875 159.3h-52.833a1.205 1.205 0 0 1-1.106-1.683l6.128-14.189c.19-.442.625-.728 1.106-.728h52.833c.866 0 1.449.888 1.106 1.683l-6.128 14.19a1.206 1.206 0 0 1-1.106.727"/><path clip-path="url(#j)" fill="#4263EB" d="M388.69 107.229l-4.659-.275 2.745-6.891z"/><path clip-path="url(#j)" fill="#F2751C" d="M397.167 125.167c0-.622-.784-1.2-2.125-1.68l-1.079 3.686c1.984-.531 3.204-1.234 3.204-2.006m-8.309 2.828l1.608-5.49a42.8 42.8 0 0 0-2.664-.243l-.345 5.831c.48-.026.945-.059 1.401-.098m-6.077.13l.35-5.93c-2.512.079-4.783.339-6.592.725l1.258 4.732c1.467.241 3.161.404 4.984.473"/><path clip-path="url(#j)" fill="#4CCD9B" d="M398.44 108.85l-2.839-.832a.856.856 0 0 0-1.061.58l-4.074 13.908-1.607 5.488c1.979-.168 3.726-.452 5.103-.821l1.08-3.686 3.979-13.578a.855.855 0 0 0-.581-1.059"/><path clip-path="url(#j)" fill="#239B6A" d="M377.798 127.652l-1.259-4.731-3.883-14.606a.851.851 0 0 0-1.044-.605l-2.858.76a.854.854 0 0 0-.607 1.045l4.249 15.939.013.002c.362.913 2.404 1.708 5.389 2.196"/><path clip-path="url(#j)" fill="#1F46E7" d="M384.031 106.954l-.899 15.241-.352 5.93a50.64 50.64 0 0 0 1.97.041c.931 0 1.836-.026 2.708-.072l.345-5.832.888-15.032-4.66-.276z"/><path clip-path="url(#j)" fill="#4CCD9B" d="M372.657 108.314l.621 2.336-4.511 1.198-.62-2.335a.855.855 0 0 1 .605-1.046l2.859-.76a.856.856 0 0 1 1.046.607"/><path clip-path="url(#j)" fill="#239B6A" d="M399.02 109.909l-.679 2.319-4.479-1.313.681-2.318a.853.853 0 0 1 1.059-.58l2.839.832a.855.855 0 0 1 .579 1.06"/><path clip-path="url(#j)" fill="#96B7E1" d="M236.201 147.758h-3.877c-.239 0-.401-.231-.307-.44l1.12-2.491a.334.334 0 0 1 .307-.193h3.877c.239 0 .4.232.306.441l-1.119 2.491a.336.336 0 0 1-.307.192m5.917 0h-3.877c-.239 0-.401-.231-.307-.44l1.12-2.491a.334.334 0 0 1 .307-.193h3.876c.24 0 .401.232.307.441l-1.119 2.491a.336.336 0 0 1-.307.192m5.917 0h-3.877c-.239 0-.401-.231-.307-.44l1.12-2.491a.334.334 0 0 1 .307-.193h3.877c.239 0 .4.232.306.441l-1.119 2.491a.336.336 0 0 1-.307.192m5.916 0h-3.877c-.239 0-.401-.231-.307-.44l1.12-2.491a.334.334 0 0 1 .307-.193h3.877c.239 0 .4.232.306.441l-1.119 2.491a.336.336 0 0 1-.307.192m5.917 0h-3.877c-.239 0-.401-.231-.307-.44l1.12-2.491a.334.334 0 0 1 .307-.193h3.877c.239 0 .4.232.306.441l-1.119 2.491a.335.335 0 0 1-.307.192m5.916 0h-3.877c-.239 0-.401-.231-.307-.44l1.12-2.491a.334.334 0 0 1 .307-.193h3.877c.239 0 .4.232.307.441l-1.119 2.491a.338.338 0 0 1-.308.192m5.917 0h-3.877c-.239 0-.401-.231-.307-.44l1.119-2.491a.336.336 0 0 1 .308-.193h3.877c.239 0 .399.232.306.441l-1.119 2.491a.336.336 0 0 1-.307.192m5.917 0h-3.877c-.239 0-.401-.231-.308-.44l1.12-2.491a.334.334 0 0 1 .308-.193h3.877c.238 0 .399.232.306.441l-1.119 2.491a.335.335 0 0 1-.307.192m-43.552 4.609h-3.877c-.239 0-.401-.232-.307-.441l1.12-2.491a.335.335 0 0 1 .307-.192h3.877c.239 0 .4.231.306.44l-1.119 2.491a.334.334 0 0 1-.307.193m5.917 0h-3.877c-.239 0-.401-.232-.307-.441l1.12-2.491a.335.335 0 0 1 .307-.192h3.876c.24 0 .401.231.307.44l-1.119 2.491a.335.335 0 0 1-.307.193m5.916 0h-3.877c-.239 0-.401-.232-.307-.441l1.12-2.491a.335.335 0 0 1 .307-.192h3.877c.239 0 .4.231.306.44l-1.119 2.491a.332.332 0 0 1-.307.193m5.917 0h-3.877c-.239 0-.401-.232-.307-.441l1.12-2.491a.335.335 0 0 1 .307-.192h3.877c.239 0 .4.231.306.44l-1.119 2.491a.334.334 0 0 1-.307.193m5.917 0h-3.877c-.239 0-.401-.232-.307-.441l1.12-2.491a.335.335 0 0 1 .307-.192h3.877c.239 0 .4.231.306.44l-1.119 2.491a.334.334 0 0 1-.307.193m5.916 0h-3.877c-.239 0-.401-.232-.307-.441l1.12-2.491a.335.335 0 0 1 .307-.192h3.877c.239 0 .4.231.306.44l-1.119 2.491a.333.333 0 0 1-.307.193m5.917 0h-3.877c-.239 0-.401-.232-.308-.441l1.12-2.491a.335.335 0 0 1 .308-.192h3.877c.238 0 .399.231.306.44l-1.119 2.491a.335.335 0 0 1-.307.193m5.916 0h-3.877c-.238 0-.4-.232-.307-.441l1.12-2.491a.335.335 0 0 1 .307-.192h3.877c.239 0 .4.231.307.44l-1.119 2.491a.334.334 0 0 1-.308.193m-43.326 4.5h-3.877c-.239 0-.401-.232-.307-.441l1.12-2.491a.335.335 0 0 1 .307-.192h3.877c.239 0 .4.231.306.44l-1.119 2.491a.334.334 0 0 1-.307.193m5.916 0h-3.877c-.239 0-.401-.232-.307-.441l1.12-2.491a.335.335 0 0 1 .307-.192h3.877c.239 0 .4.231.306.44l-1.119 2.491a.333.333 0 0 1-.307.193m5.917 0h-3.877c-.239 0-.401-.232-.307-.441l1.12-2.491a.335.335 0 0 1 .307-.192h3.876c.24 0 .401.231.307.44l-1.119 2.491a.335.335 0 0 1-.307.193m5.917 0h-3.877c-.239 0-.401-.232-.307-.441l1.12-2.491a.335.335 0 0 1 .307-.192h3.877c.239 0 .4.231.306.44l-1.119 2.491a.334.334 0 0 1-.307.193m5.916 0h-3.877c-.239 0-.401-.232-.307-.441l1.12-2.491a.335.335 0 0 1 .307-.192h3.876c.24 0 .401.231.307.44l-1.119 2.491a.332.332 0 0 1-.307.193m5.917 0h-3.877c-.239 0-.401-.232-.307-.441l1.12-2.491a.335.335 0 0 1 .307-.192h3.877c.239 0 .4.231.306.44l-1.119 2.491a.335.335 0 0 1-.307.193m5.917 0h-3.877c-.239 0-.401-.232-.307-.441l1.12-2.491a.335.335 0 0 1 .307-.192h3.877c.238 0 .399.231.306.44l-1.119 2.491a.335.335 0 0 1-.307.193m5.916 0h-3.877c-.239 0-.4-.232-.307-.441l1.12-2.491a.335.335 0 0 1 .307-.192h3.876c.24 0 .401.231.307.44l-1.118 2.491a.337.337 0 0 1-.308.193"/><path clip-path="url(#j)" fill="#4CCD9B" d="M153.343 57.513l19.65 41.945c.13.277.46.396.737.267l29.365-13.755a.556.556 0 0 0 .267-.738l-16.084-34.334-11.925-4.309-21.743 10.186a.556.556 0 0 0-.267.738"/><path clip-path="url(#j)" fill="#239B6A" d="M187.283 50.896l-11.925-4.309 3.566 7.612c.13.278.461.397.738.267l7.621-3.57z"/><path clip-path="url(#j)" fill="#96B7E1" d="M372.958 31.712l-17.943 42.703a.554.554 0 0 0 .296.726l29.895 12.562a.556.556 0 0 0 .727-.296l14.688-34.954-4.799-11.736-22.136-9.302a.557.557 0 0 0-.728.297"/><path clip-path="url(#j)" fill="#1F46E7" d="M400.624 52.455l-4.799-11.736-3.256 7.749a.555.555 0 0 0 .296.727l7.759 3.26z"/></svg>