<svg xmlns="http://www.w3.org/2000/svg" xmlns:xlink="http://www.w3.org/1999/xlink" viewBox="0 0 517.287 437.704"><defs><style>.a{fill:url(#a)}.b{clip-path:url(#b)}.c{fill:#d9edf6}.d,.e,.f,.g,.h,.u{fill:none;stroke-linecap:round;stroke-miterlimit:10}.d,.e,.f,.h{stroke-width:1.5px}.d{stroke-dasharray:1 5;stroke:#f2751c}.e,.f,.h{stroke:#4263eb}.f{stroke-dasharray:234.046 9.362}.g{stroke:#239b6a;stroke-width:1.52px}.h{stroke-dasharray:5 5}.i{fill:#fff}.j{fill:#4263eb}.k{fill:#f2751c}.l{fill:#239b6a}.m{clip-path:url(#ag)}.n{fill:url(#ah)}.o{fill:#fecc4d}.p{fill:#eaeacd}.q{fill:#1f46e7}.r{fill:#3054e9}.s{clip-path:url(#ap)}.t{fill:url(#aq)}.u{stroke:#eee}.v{clip-path:url(#aw)}.w{fill:url(#ax)}.x{fill:#4ccd9b}.y{clip-path:url(#az)}.z{fill:url(#ba)}</style><radialGradient id="a" cx=".5" cy="0" r="3.725" gradientTransform="matrix(.134 0 0 .236 .433 0)" gradientUnits="objectBoundingBox"><stop offset="0" stop-color="#a1bcdf"/><stop offset="1" stop-color="#f8f9fa"/></radialGradient><clipPath id="b"><path d="M0 0h517.287v437.704H0z"/></clipPath><clipPath id="ag"><path d="M320.419 234.5c-8.2 27.257-12.075 88.484-3.254 100.173 2.547 3.372 12.355.8 16.355-.714 3.547-1.347 6.45-5.2 7.048-9.361 2.01-33.311 5.636-64.328 11.987-91.491 1.711-11.591-7.644-15.081-13.329-15.34h-.281c-8.559 0-15.956 8.19-18.527 16.735" transform="translate(-312.139 -217.763)"/></clipPath><linearGradient id="ah" x1="-19.382" y1="2.39" x2="-19.368" y2="2.39" gradientUnits="objectBoundingBox"><stop offset="0" stop-color="#f1b827"/><stop offset="1" stop-color="#fecc4d"/></linearGradient><clipPath id="ap"><path d="M413.015 211.481c-11.481 30.569-28.121 63.121-47.825 96.852-2.124 4.44-1.8 10.079.771 13.7 2.909 4.082 11.646 13.834 16.315 12.207 16.189-5.64 50.066-66.433 59.811-98.3 3.089-10.1 3.855-20.766-4.85-28.227a60.424 60.424 0 0 0-9.377-6.211 6.184 6.184 0 0 0-3.091-.816c-4.213 0-8.932 4.05-11.755 10.8" transform="translate(-363.789 -200.686)"/></clipPath><linearGradient id="aq" x1="-11.982" y1="2.147" x2="-11.974" y2="2.147" xlink:href="#ah"/><clipPath id="aw"><path d="M176.932 213.681l-2.5 26.424c-.716.779-13.45 4.07-13.2 5.1-1.659 25.473 18.518 41.19 28.4 52.928l26.817-23.472a3.163 3.163 0 0 0 1.14-3.353c-6.644-7.8-17.872-44.452-29.41-64.152a1.935 1.935 0 0 0-1.291-.436c-3.137 0-8.5 5.376-9.959 6.962" transform="translate(-161.14 -206.72)"/></clipPath><linearGradient id="ax" x1="-7.55" y1="2.28" x2="-7.543" y2="2.28" gradientUnits="objectBoundingBox"><stop offset="0" stop-color="#4ccd9b"/><stop offset="1" stop-color="#239b6a"/></linearGradient><clipPath id="az"><path d="M65.65 213.6c-16.178 31.236-37.718 106.514-24.92 119.312 5.1 5.1 7.543 5.019 13.98 5.019l67.516-3.022c6.195-.18 23.965-4.364 24.211-10.554.248-6.207-4.362-11.542-10.579-11.187l-60.824-6.445c8.712-31.953 18.518-61.515 29.966-87.479 4.724-13.692-5.841-20.063-12.69-21.673a16.827 16.827 0 0 0-3.465-.356c-9.384 0-18.633 7.569-23.2 16.385" transform="translate(-36.842 -197.215)"/></clipPath><linearGradient id="ba" x1="-3.921" y1="1.507" x2="-3.917" y2="1.507" gradientUnits="objectBoundingBox"><stop offset="0" stop-color="#239b6a"/><stop offset="1" stop-color="#4ccd9b"/></linearGradient></defs><path class="a" d="M0 368.276h517.287v69.427H0z"/><g class="b"><path class="c" d="M13.211 368.583h490.866c-25.247-8.5-19.177-23.79-33.5-37.869-10.722-8.345-28.012-8.194-45.154-18.935-25.853-21.849-1.82-131.092-44.425-151.484-52.437-21.363-74.044 25.49-114.341 23.306-36.171-4.856-55.107-35.443-94.677-23.791-62.633 22.092-43.719 80.838-69.187 109.728-18.817 17.843-28.527 10.681-39.088 28.161-16.993 26.7 2.914 56.805-50.494 70.884"/></g><g class="b"><path class="c" d="M75.272 234.606c-9.577 15.067-8.586 23.4 3.449 24.674 9.551.4 18.452-9.773 24.674-20.694 1.924-3.847-1.194-9.816-8.489-11.938-9.755-2.394-15.115 2.123-19.633 7.959"/></g><g class="b"><path class="c" d="M286.705 135.769c-18.936-3.846-45.383 30.352-16.9 35.909 14.5 6.106 25.12-3.06 31.2-15.189 6.646-13.254-3.825-17.2-14.3-20.719-4.755-.966.765.256 0 0"/></g><g class="b"><path class="c" d="M316.942 124.022c-12.339-5.268-14.007 1.919-11.32 10.17 2.205 6.62 8.421 5.479 13.623-.768 3.542-4.446 2.064-7.361-2.3-9.4"/></g><g class="b"><path class="c" d="M450.669 209.331c-8.155.579-11.9 4.856-11.9 10.682.729 6.086 4.583 8.562 11.9 7.04 5.871-1.231 12.623-2.55 12.623-6.8-.885-7.658-4.979-11.437-12.623-10.925"/></g><g class="b"><path class="c" d="M455.281 238.949c-15.453 3.394-23.569 12.136-24.034 26.461 1.9 15.863 11.425 23 28.4 21.607 11.5-2.294 17.216-10.241 18.693-22.334.971-15.3-8.376-28.889-23.063-25.734"/></g><g class="b"><path class="d" d="M469.83 235.494l-8.95-60.482a3.069 3.069 0 0 0-6.033-.21l-2.753 12.515a4.875 4.875 0 0 1-8.759 1.743l-1.758-2.521a5.872 5.872 0 0 0-9.726.138l-36.666 55.88a14.828 14.828 0 0 1-12.4 6.694h-5.109a14.967 14.967 0 0 1-13.318-8.136l-20.473-39.876a10.5 10.5 0 0 0-18.506-.315l-17.93 32.182a22.941 22.941 0 0 1-20.046 11.78h-56.349a22.6 22.6 0 0 1-22.3-18.939l-18.769-114.432a5.24 5.24 0 0 0-10.343 0l-4.172 25.539a5.187 5.187 0 0 1-10.235.016l-7.3-43.791c-1.181-7.084-11.315-7.223-12.689-.174l-8.661 44.434a9.7 9.7 0 0 1-9.523 7.845h-18.148a11.06 11.06 0 0 0-10.256 6.92l-17.56 43.494a8.383 8.383 0 0 1-15.613-.159l-5.49-14.469"/></g><g class="b"><path class="e" d="M476.831 198.777c-32.133 7.677-42.5-35.7-74.631-28.023-15.8 3.775-21.326 16.184-26.682 28.735"/></g><g class="b"><path class="f" d="M371.75 208.009c-4.674 9.8-10.735 18.437-23.457 21.477-32.135 7.677-42.5-35.7-74.631-28.024s-21.772 51.056-53.906 58.734c-14.537 3.473-24.618-3.5-34.275-11.469"/></g><g class="b"><path class="e" d="M181.906 245.738c-10.45-8.771-20.987-17.34-36.788-13.565-32.136 7.678-21.773 51.056-53.909 58.734"/></g><g class="b"><path class="g" d="M61.324 160.694h9.848a14.247 14.247 0 0 1 14.247 14.247 20.176 20.176 0 0 0 20.175 20.175h18.284a17.532 17.532 0 0 0 16.615-11.937l6.679-19.835a10.091 10.091 0 0 1 18.936-.521l5.9 14.788a18.4 18.4 0 0 0 17.095 11.575h39.833a24.654 24.654 0 0 0 21.364-12.349l11.12-19.31a8.09 8.09 0 0 1 13.7-.515l2.854 4.191a8.366 8.366 0 0 0 14.485-1.146l5.871-12.48a7.726 7.726 0 0 1 13.658-.613l2.629 4.49a12.872 12.872 0 0 0 11.11 6.369 9.916 9.916 0 0 0 9.554-7.26l23.783-85.567a7.084 7.084 0 0 1 13.668.065l10.5 39.209a4.748 4.748 0 0 0 9.2-.11l5.058-20.874a13.555 13.555 0 0 1 13.174-10.364h20.448a13.554 13.554 0 0 1 12.953 9.56l7.821 25.349a13.785 13.785 0 0 0 13.173 9.723"/></g><g class="b"><path class="h" d="M61.179 85.728h73.15a27.724 27.724 0 0 1 19.6 8.118l9.259 9.259a27.721 27.721 0 0 0 19.6 8.119h120.268a27.711 27.711 0 0 1 19.6 8.118 27.721 27.721 0 0 0 19.6 8.118h130.423"/></g><g class="b"><circle class="i" cx="3.44" cy="3.44" r="3.44" transform="translate(130.151 82.409)"/></g><g class="b"><path class="j" d="M133.565 79.822a5.907 5.907 0 1 0 5.906 5.906 5.906 5.906 0 0 0-5.906-5.906m0 8.953a3.047 3.047 0 1 1 3.047-3.047 3.047 3.047 0 0 1-3.047 3.047"/></g><g class="b"><circle class="i" cx="3.44" cy="3.44" r="3.44" transform="translate(110.96 141.806)"/></g><g class="b"><path class="k" d="M114.338 139.199a5.907 5.907 0 1 0 5.906 5.906 5.906 5.906 0 0 0-5.906-5.906m0 8.953a3.047 3.047 0 1 1 3.047-3.047 3.047 3.047 0 0 1-3.047 3.047"/></g><g class="b"><circle class="i" cx="3.44" cy="3.44" r="3.44" transform="translate(98.593 191.691)"/></g><g class="b"><path class="l" d="M102.02 188.149a5.907 5.907 0 1 0 5.906 5.907 5.906 5.906 0 0 0-5.906-5.907m0 8.953a3.047 3.047 0 1 1 3.047-3.047 3.047 3.047 0 0 1-3.047 3.047"/></g><g class="b"><circle class="c" cx="3.44" cy="3.44" r="3.44" transform="translate(230.665 241.43)"/></g><g class="b"><path class="k" d="M233.961 238.872a5.907 5.907 0 1 0 5.906 5.907 5.906 5.906 0 0 0-5.906-5.907m0 8.953a3.047 3.047 0 1 1 3.047-3.047 3.047 3.047 0 0 1-3.047 3.047"/></g><g class="b"><circle class="c" cx="3.44" cy="3.44" r="3.44" transform="translate(263.493 151.008)"/></g><g class="b"><path class="l" d="M266.931 148.6a5.907 5.907 0 1 0 5.907 5.906 5.907 5.907 0 0 0-5.907-5.906m0 8.953a3.047 3.047 0 1 1 3.047-3.047 3.048 3.048 0 0 1-3.047 3.047"/></g><g class="b"><circle class="i" cx="3.44" cy="3.44" r="3.44" transform="translate(305.689 109.144)"/></g><g class="b"><path class="j" d="M309.051 106.596a5.907 5.907 0 1 0 5.907 5.906 5.907 5.907 0 0 0-5.907-5.906m0 8.953a3.047 3.047 0 1 1 3.047-3.047 3.047 3.047 0 0 1-3.047 3.047"/></g><g class="b"><circle class="i" cx="3.44" cy="3.44" r="3.44" transform="translate(418.348 69.394)"/></g><g class="b"><path class="l" d="M421.756 66.94a5.907 5.907 0 1 0 5.907 5.906 5.907 5.907 0 0 0-5.907-5.906m0 8.953a3.047 3.047 0 1 1 3.047-3.047 3.048 3.048 0 0 1-3.047 3.047"/></g><g class="b"><circle class="i" cx="3.44" cy="3.44" r="3.44" transform="translate(453.456 170.24)"/></g><g class="b"><path class="k" d="M456.939 167.714a5.907 5.907 0 1 0 5.906 5.907 5.907 5.907 0 0 0-5.906-5.907m0 8.953a3.047 3.047 0 1 1 3.047-3.047 3.048 3.048 0 0 1-3.047 3.047"/></g><g class="b"><path class="k" d="M481.479 256.422c18.4-16.991-1.243-53.486-37.2-49.49-2.465-20.219-17.591-27.024-41.444-24.58-2.2-9.645-9.072-11.3-17.076-11.016l2.531 5.259-19.553-2.176-58.137 3.683c-5.59 23.175 4.664 37.848 14.846 41.865-11.093 16.542-2.264 36.455 12.639 33.494-13.06 68.219 24.467 94.948 101.074 83.7 15.61-4.456 29.628-13.386 38.386-25.907 6.631-9.476 8-20 5.451-32.508 8.675-3.856 13.069-18.445-1.521-22.326"/></g><g class="b"><path class="k" d="M448.733 332.937c0 10.264-7.978 18.588-17.819 18.588s-17.818-8.321-17.818-18.588 7.978-18.586 17.819-18.586 17.819 8.32 17.819 18.586"/></g><g class="b"><path class="k" d="M320.417 192.279c16.331 6.429 32.184-1.25 52.133-8.964l17.9-6.48c-7.715-32.061-31.873-41.294-57.9-28.777-24.041 12.766-32.872 44.526-4.688 67.158z"/></g><g class="m"><path class="n" d="M295.856 375.711l11.236-123.434 56.4 5.133-11.233 123.435z"/></g><g class="b"><path class="o" d="M330.883 258.004a130.09 130.09 0 0 1 23.3-17.325c12.823-7.3 26.564-11.39 40.992-10.394 10.731.741 21.842 4.3 33.242 11.448 27.854 28.517-8.228 85.22-.166 127h-71.062c-5.785-53.387-27.663-59.356-26.306-110.729"/></g><g class="b"><path class="i" d="M425.53 366.743c.071 5.132-6.072 7.677-6.072 7.677-2.155-1.648-8.69-.251-11.4-.147l-82.679 3.229c-9.7 0-13.015-6.447-13.26-12.663-.212-5.355 4.474-14.427 15.747-12.993l83.344 9.293 8.678-1.815c5.327-.075 5.573 2.286 5.644 7.418"/></g><g class="b"><path class="i" d="M318.548 192.461c3 14.4 11.471 30.693 23.284 40.318 5.658 4.539 12.538 1.062 14.055.274l-.684 17.9a4.6 4.6 0 0 0 3.632 3.465c13.518 2.623 30.721-2.414 35.911-16.276a7.574 7.574 0 0 0 .348-3.95 72.425 72.425 0 0 0-15.675-34.329.987.987 0 0 1 .038-1.31c8.336-9.083.974-18.828-8.131-15.071a1.335 1.335 0 0 1-1.48-.333c-7.945-8.58-27.269 7.348-51.3 9.317"/></g><g class="b"><path class="p" d="M379.195 199.282c-4.908 16.275-10.415 25.43-23.308 33.771l-.682 17.9c26.143-8.4 21.948-29.558 23.99-51.668"/></g><g class="b"><path class="q" d="M282.495 296.197h58.127a3.8 3.8 0 0 0 3.717-4.576l-8.533-40.724a3.158 3.158 0 0 0-3.259-2.5h-59.473c-4.452 0-4.613 1.617-4.024 4.556l8.162 38.956a5.4 5.4 0 0 0 5.283 4.294"/></g><g class="b"><path class="j" d="M279.269 296.197h58.126a3.8 3.8 0 0 0 3.715-4.576l-8.53-40.724a3.161 3.161 0 0 0-3.26-2.5h-59.474c-4.451 0-4.612 1.617-4.023 4.556l8.162 38.956a5.4 5.4 0 0 0 5.284 4.294"/></g><g class="b"><path class="r" d="M279.269 296.199h58.126a3.8 3.8 0 0 0 3.716-4.576l-6.525-31.14c-23.265 5.682-45.563 15.184-55.317 35.716"/></g><g class="s"><path class="t" d="M345.831 371.957l16.433-141.993 97.122 11.241-16.437 141.989z"/></g><g class="b"><path class="i" d="M416.846 373.544c3.456 1.846 9.972-.085 13.844-1.536a10.151 10.151 0 0 1 6.5-.229c1.559.467 4.215 1.1 6.34 1.588a7.012 7.012 0 0 0 5.858-1.287l1.482-1.152a1.743 1.743 0 0 0-.32-2.954l-18.6-7.8a21.09 21.09 0 0 0-12.067-.846c-4.724 1.1-9.334 1.868-13.837 4.256 0 0 5.937 7.171 10.8 9.964"/></g><g class="b"><path class="i" d="M320.477 283.295l-3.3-5.953a5.7 5.7 0 0 0-1.153-1.241l-4.547-3.619a.859.859 0 0 0-1.008-.043l-.261.174a1.554 1.554 0 0 0-.354 2.259l2.6 3.315a2.418 2.418 0 0 1 .381.693l1.275 6.164z"/></g><g class="b"><path class="i" d="M310.569 284.464c-4.045 3.157-4.789 9.766-1.513 13.968a11.668 11.668 0 0 1 6.58 4.373l49.729 66.852c8 6.963 14.462 6.218 19.285 1.4 3.025-3.024 5.956-12.033-.63-18.618L321.851 285.8l-1.379-2.5c-3.278-4.2-5.857-1.989-9.9 1.169"/></g><g class="b"><path class="u" d="M354.431 355.011l9.834 13.447c6.913 8.44 16.231 6.458 19.638 3.051"/></g><g class="b"><path class="i" d="M321.373 293.874c-1.306-6.162-4.987-11.323-12.791-14.736l-15.241-5.907a2.753 2.753 0 0 0-3.425 3.464l3.818 12.616a8.561 8.561 0 0 0 5.46 5.733l13.2 4.39z"/></g><g class="v"><path class="w" d="M191.568 216.487l70.868 80.378-78.178 68.927-70.868-80.378z"/></g><g class="b"><path class="x" d="M182.523 240.501c-28.586-21.7-67.17-24.7-102.811-2.342-29.407 30.107 15.158 86.009 6.646 130.12h98.688c5.8-53.53 9.619-66.325 4.984-114.258a19.293 19.293 0 0 0-7.508-13.52"/></g><g class="y"><path class="z" d="M-36.155 329.654L69.618 181.203l143.621 102.33-105.773 148.453z"/></g><g class="b"><path class="i" d="M135.518 371.762c4.147 2.1 11.99-1.03 16.652-3.285a11.487 11.487 0 0 1 7.814-.9c1.873.468 5.064 1.053 7.614 1.493a8.373 8.373 0 0 0 7.049-2.222l1.795-1.641a2.341 2.341 0 0 0-.374-3.835l-22.329-9.794a23.212 23.212 0 0 0-14.5.007q-1.194.394-2.38.836a10.692 10.692 0 0 0-1.511 19.248c.058.029.115.062.175.094"/></g><g class="b"><path class="q" d="M196.65 374.984h-53.2a9.73 9.73 0 0 1-9.73-9.73h62.927z"/></g><g class="b"><path class="j" d="M267.714 374.984h-87.758l13.26-63.3a4.416 4.416 0 0 1 4.556-3.5h83.109c6.219 0 6.445 2.259 5.62 6.368l-11.405 54.432a7.54 7.54 0 0 1-7.382 6"/></g><g class="b"><path class="r" d="M267.714 374.986a7.546 7.546 0 0 0 7.384-6l9.131-43.579c-29.233 35-83.614 8.145-100.148 49.574z"/></g><g class="b"><path class="i" d="M194.001 158.578c.905 23.143-1.146 38.416-9.044 54.56a12.436 12.436 0 0 1-11.866 6.921l-.128-.007a7.091 7.091 0 0 0-6.525 3.523l-.4 13.048a7.38 7.38 0 0 1-.719 2.949c-9.694 20.22-37.341 7.478-43.672-8.387a10.78 10.78 0 0 1-.113-7.44l12-21.3 14.294-56.338z"/></g><g class="b"><path class="i" d="M149.768 183.439c.315 6.179-3.059 11.373-7.537 11.6s-8.366-4.594-8.681-10.773 3.059-11.373 7.537-11.6 8.365 4.595 8.681 10.774"/></g><g class="b"><path class="j" d="M189.879 148.152l-31-13.616c-16.239-3.145-28.775 6.818-31.7 23a105.145 105.145 0 0 0 2.4 48.636 2.44 2.44 0 0 0 4.077 1.031l4.5-13.426c-2.549-1.8-4.389-5.344-4.6-9.512-.315-6.179 3.059-11.373 7.538-11.6 2.524-.129 4.764 1.415 6.469 3.77.673.93 1.289 1.287 1.369-.332l.5-4.049a16.207 16.207 0 0 1 20.246-13.692l24.483 3.62c13.279-4.2 12.761-10.732-4.27-13.831"/></g><g class="b"><path class="i" d="M243.192 344.544c-1.147 3.86-4.874 6.805-8.324 6.579s-5.318-3.533-4.17-7.391 4.874-6.8 8.324-6.581 5.317 3.532 4.17 7.392"/></g><g class="b"><path class="u" d="M150.424 209.335c3.49 6 9.282 10.39 20.713 10.842"/></g><g class="b"><path class="j" d="M145.544 157.756c8.364 5.874 9.017-.887 15.343-.484 13.559 2.033 17.877 8.344 33.891 11.544 8.674 1.168 15.122-5.547 13.878-14.117-1.328-7.344-8.828-9.083-13.62-6.643-4.761-8.247-12.5-14.143-21.571-15.5-14.065-2.1-30.61 4.833-38.571 16.417z"/></g><g class="b"><path class="i" d="M104.949 203.93a1.493 1.493 0 0 0 0-2.984 1.493 1.493 0 0 0 0 2.984"/></g></svg>