<svg xmlns="http://www.w3.org/2000/svg" xmlns:xlink="http://www.w3.org/1999/xlink" width="530" height="180" viewBox="0 0 530 180"><defs><path id="a" d="M181.333 71.667c-10.842 1.626-19.067-.825-27.016-3.276-11.601-3.578-22.614-7.156-40.317 1.942C77.333 91.084 89.5 136.5 50 151h430c-14.166-4.5-16.5-16.5-30.667-26-13.288-8.784-25.938-3.042-35.855-12-12.958-13.542-7.605-39.708-32.605-45.709-12.73-2.361-20.215.084-27.213 2.529-6.952 2.43-13.424 4.86-24.075 2.575C294.333 61.478 295.781 22.5 257.5 22.5c-49 0-57.833 45.667-76.167 49.167"/></defs><clipPath id="b"><use xlink:href="#a" overflow="visible"/></clipPath><radialGradient id="c" cx="0" cy="180" r="1" gradientTransform="matrix(255.0197 0 0 -120.75 247 21898.75)" gradientUnits="userSpaceOnUse"><stop offset="0" stop-color="#96b7e1"/><stop offset="1" stop-color="#fff"/></radialGradient><path clip-path="url(#b)" fill="url(#c)" d="M50 22.5h430V151H50z"/><defs><path id="d" d="M0 0h530v180H0z"/></defs><clipPath id="e"><use xlink:href="#d" overflow="visible"/></clipPath><path clip-path="url(#e)" fill="none" stroke="#F2751C" stroke-linecap="round" stroke-miterlimit="10" stroke-dasharray="1.923,5" d="M423.75 126.25h-22.705c-.715 0-1.367-.41-1.676-1.055l-3.863-8.058a1.858 1.858 0 0 0-1.676-1.055h-7.593c-.749 0-1.426-.45-1.714-1.141l-2.743-6.566c-.646-1.544-2.844-1.515-3.447.046l-2.54 6.559a1.858 1.858 0 0 1-1.733 1.187h-7.054c-.8 0-1.51-.512-1.763-1.271l-9.986-29.959a1.857 1.857 0 0 0-1.763-1.27h-16.798c-.89 0-1.653.628-1.824 1.5l-2.411 12.283a1.858 1.858 0 0 1-1.823 1.501h-6.42c-.897 0-1.668.642-1.828 1.525l-2.446 13.496a1.858 1.858 0 0 1-1.828 1.527h-7.343a1.858 1.858 0 0 1-1.8-1.394l-5.557-21.515c-.48-1.854-3.113-1.858-3.597-.005l-4.538 17.371c-.455 1.743-2.875 1.884-3.529.206l-2.633-6.749c-.616-1.58-2.854-1.576-3.465.007l-4.195 10.888a1.858 1.858 0 0 1-1.734 1.19h-22.139a1.858 1.858 0 0 1-1.818-1.472l-6.397-30.123c-.402-1.89-3.063-1.988-3.602-.132l-7.612 26.208c-.534 1.839-3.164 1.766-3.595-.101l-2.616-11.334c-.427-1.849-3.025-1.944-3.586-.131l-9.008 29.123a1.86 1.86 0 0 1-1.775 1.309h-10.933a1.858 1.858 0 0 1-1.858-1.857v-12.789a1.858 1.858 0 0 0-1.858-1.858h-18.07a1.858 1.858 0 0 0-1.858 1.858v12.789a1.858 1.858 0 0 1-1.858 1.857h-17.51a1.858 1.858 0 0 1-1.651-1.006l-5.57-10.783c-.71-1.374-2.69-1.331-3.338.073l-6.908 14.956a1.86 1.86 0 0 1-1.687 1.079H110.27c-.493 0-.966.195-1.314.544l-4.662 4.661a1.856 1.856 0 0 1-1.314.545H86"/><path clip-path="url(#e)" fill="none" stroke="#239B6A" stroke-linecap="round" stroke-miterlimit="10" d="M88.5 111h29.486a3.534 3.534 0 0 0 3.04-1.733l10.455-17.666c1.363-2.303 4.692-2.313 6.069-.018l7.921 13.202a3.534 3.534 0 0 0 3.029 1.715h9.681a3.532 3.532 0 0 0 3.241-2.128l8.722-20.127c1.246-2.877 5.343-2.825 6.517.081l6.447 15.964a3.531 3.531 0 0 0 3.275 2.21h20.482c1.413 0 2.69-.842 3.247-2.14l23.183-54.053c1.133-2.641 4.775-2.897 6.266-.441l10.244 16.873c1.415 2.331 4.827 2.248 6.126-.15l2.567-4.739a3.532 3.532 0 0 1 3.106-1.85h12.129c1.381 0 2.636.805 3.211 2.061l3.611 7.878A3.532 3.532 0 0 0 283.766 68h22.143c1.542 0 2.906 1 3.369 2.471l9.942 31.558a3.534 3.534 0 0 0 3.37 2.471h21.913a3.534 3.534 0 0 0 3.102-1.841l5.376-9.854c1.294-2.373 4.663-2.472 6.097-.181l4.532 7.253c1.356 2.171 4.502 2.222 5.929.096l12.404-18.478c1.329-1.98 4.198-2.101 5.689-.239l5.942 7.42A3.534 3.534 0 0 0 396.332 90H426.5"/><path clip-path="url(#e)" fill="#4263EB" d="M210.589 158.015h97.374l-8.557-70.24c-.287-2.36-2.137-3.883-4.715-3.883h-92.215c-6.9 0-7.37 2.507-6.856 7.064l7.358 60.403c.473 3.878 3.648 6.656 7.611 6.656"/><path clip-path="url(#e)" fill="#96B7E1" d="M215.509 154.105h86.118l-7.567-62.121c-.254-2.086-1.89-3.434-4.169-3.434h-81.556c-6.103 0-6.519 2.217-6.064 6.248l6.508 53.421c.417 3.43 3.225 5.886 6.73 5.886"/><path clip-path="url(#e)" fill="#1F46E7" d="M202.474 147.219l.504 4.141c.473 3.877 3.649 6.655 7.61 6.655h128.694c5.962 0 10.795-4.834 10.795-10.796H202.474z"/><path clip-path="url(#e)" fill="#FFF" d="M283.313 107.026h-12.118a.89.89 0 0 1-.9-.768l-.63-4.328c-.091-.622.435-1.218 1.073-1.218h12.119c.461 0 .834.317.899.768l.631 4.328c.09.622-.436 1.218-1.074 1.218"/><path clip-path="url(#e)" fill="#239B6A" d="M284.803 117.262h-12.117a.889.889 0 0 1-.9-.768l-.63-4.327c-.091-.623.434-1.219 1.073-1.219h12.118c.461 0 .834.317.899.768l.631 4.328c.09.622-.435 1.218-1.074 1.218"/><path clip-path="url(#e)" fill="#FFC400" d="M286.294 127.497h-12.118a.888.888 0 0 1-.899-.767l-.631-4.328c-.091-.623.435-1.219 1.073-1.219h12.119c.461 0 .834.317.899.768l.631 4.328c.09.622-.435 1.218-1.074 1.218"/><path clip-path="url(#e)" fill="none" stroke="#1F46E7" stroke-width=".75" stroke-miterlimit="10" d="M267.245 132.663h-47.321a.89.89 0 0 1-.899-.768l-4.727-32.452c-.09-.622.435-1.218 1.074-1.218h47.321a.89.89 0 0 1 .899.767l4.727 32.452c.09.622-.435 1.219-1.074 1.219z"/><path clip-path="url(#e)" fill="none" stroke="#1F46E7" stroke-width=".75" stroke-linecap="round" stroke-miterlimit="10" d="M218.343 102.435h24.106m4.305 0h9.327m-37.134 3.443h31.881m2.581 0h7.75"/><path clip-path="url(#e)" fill="#239B6A" d="M132.507 163.015l-12.059-7.145a.801.801 0 0 1-.231-.889l9.249-31.544 3.041 39.578z"/><path clip-path="url(#e)" fill="#4CCD9B" d="M165.191 161.975l-32.685 1.04-3.064-39.363a.627.627 0 0 1 .625-.675h28.291c.364 0 .683.245.776.597l6.905 37.259a.91.91 0 0 1-.848 1.142"/><path clip-path="url(#e)" fill="#4263EB" d="M378.964 122.854h50.917c-7.292-2.542-8.854-9.042-13.667-10.833-5.042-1.709-10.042 1.916-14 1-4.339-1.146-5.464-6.021-10.526-4.834-3.375 1.25-3.535 5.084-5.307 9-1.085 2.49-3.719 4.309-7.417 5.667"/><defs><path id="f" d="M397.471 149.693v-8.678a5.243 5.243 0 0 1 2.999-.94 5.279 5.279 0 1 1 0 10.558 5.24 5.24 0 0 1-2.999-.94m-28.501-18.179v26.834c0 2.577 6.38 4.666 14.251 4.666 7.869 0 14.25-2.089 14.25-4.666v-6.19a7.437 7.437 0 1 0 0-13.607v-7.037H368.97z"/></defs><clipPath id="g"><use xlink:href="#f" overflow="visible"/></clipPath><linearGradient id="h" gradientUnits="userSpaceOnUse" x1="0" y1="179.999" x2="1" y2="179.999" gradientTransform="matrix(38.9375 0 0 -38.9375 368.969 7156)"><stop offset="0" stop-color="#ff9a01"/><stop offset="1" stop-color="#ffc400"/></linearGradient><path clip-path="url(#g)" fill="url(#h)" d="M368.97 131.514h38.938v31.5H368.97z"/><defs><path id="i" d="M0 0h530v180H0z"/></defs><clipPath id="j"><use xlink:href="#i" overflow="visible"/></clipPath><path clip-path="url(#j)" fill="#F2751C" d="M397.471 131.924c0 1.699-6.38 3.076-14.25 3.076s-14.25-1.377-14.25-3.076 6.38-3.076 14.25-3.076 14.25 1.377 14.25 3.076"/><path clip-path="url(#j)" fill="#239B6A" d="M134.327 86.5a3.5 3.5 0 1 0 0 7 3.5 3.5 0 0 0 0-7m0 5.306a1.806 1.806 0 1 1 .001-3.611 1.806 1.806 0 0 1-.001 3.611m102.139-51.139a3.5 3.5 0 1 0 0 7 3.5 3.5 0 0 0 0-7m0 5.305a1.805 1.805 0 1 1 0-3.61 1.805 1.805 0 0 1 0 3.61m148.667 30.695a3.5 3.5 0 1 0 0 7 3.5 3.5 0 0 0 0-7m0 5.305a1.805 1.805 0 1 1 0-3.61 1.805 1.805 0 0 1 0 3.61"/><path clip-path="url(#j)" fill="#F2751C" d="M181.158 125.348a3.5 3.5 0 1 0 0 7 3.5 3.5 0 0 0 0-7m0 5.305a1.806 1.806 0 1 1 .001-3.611 1.806 1.806 0 0 1-.001 3.611m155.627-50.114a3.5 3.5 0 1 0 0 7 3.5 3.5 0 0 0 0-7m0 5.305a1.805 1.805 0 1 1 0-3.61 1.805 1.805 0 0 1 0 3.61M365.99 112a3.5 3.5 0 1 0-.001 6.999 3.5 3.5 0 0 0 .001-6.999m0 5.305a1.806 1.806 0 1 1 0-3.611 1.806 1.806 0 0 1 0 3.611"/></svg>