<svg xmlns="http://www.w3.org/2000/svg" viewBox="0 0 927.5 315"><defs><style>.a{clip-path:url(#a)}.b{fill:url(#b)}.c{clip-path:url(#c)}.d,.e,.m,.n{fill:none;stroke-miterlimit:10}.d{stroke:#f2751c;stroke-dasharray:1.923 5}.d,.e,.n{stroke-linecap:round}.e{stroke:#239b6a}.f{fill:url(#f)}.g{fill:#239b6a}.h{fill:#4263eb}.i{fill:#96b7e1}.j{fill:#1f46e7}.k{fill:#fff}.l{fill:#ffc400}.m,.n{stroke:#1f46e7;stroke-width:.75px}.o{fill:#4ccd9b}.p{clip-path:url(#t)}.q{fill:url(#u)}.r{fill:#f2751c}.s{fill:#96b7e2}</style><clipPath id="a"><path d="M279.833 108.542c-18.974 2.846-33.367-1.444-47.278-5.733-20.3-6.261-39.574-12.523-70.555 3.4C97.833 142.522 119.125 222 50 247.375h752.5c-24.79-7.875-28.875-28.875-53.667-45.5-23.254-15.372-45.391-5.323-62.746-21-22.676-23.7-13.309-69.489-57.059-79.991-22.278-4.132-35.376.147-47.623 4.426-12.166 4.253-23.492 8.505-42.131 4.506C477.583 90.712 480.117 22.5 413.125 22.5c-85.75 0-101.208 79.917-133.292 86.042" transform="translate(-50 -22.5)"/></clipPath><radialGradient id="b" cx=".5" cy="1.214" r="1.602" gradientTransform="matrix(.299 0 0 .788 .351 .257)" gradientUnits="objectBoundingBox"><stop offset="0" stop-color="#96b7e1"/><stop offset="1" stop-color="#fff"/></radialGradient><clipPath id="c"><path d="M0 0h927.5v315H0z"/></clipPath><linearGradient id="f" x1="-.142" y1=".315" x2=".845" y2=".315" gradientUnits="objectBoundingBox"><stop offset="0" stop-color="#f2751c"/><stop offset="1" stop-color="#ffc400"/></linearGradient><clipPath id="t"><path d="M418.847 163.327v-15.186a9.238 9.238 0 1 1 0 15.187m-49.877-31.814v46.96c0 4.51 11.165 8.165 24.939 8.165s24.938-3.656 24.938-8.165v-10.833a13.016 13.016 0 1 0 0-23.812v-12.315z" transform="translate(-368.97 -131.514)"/></clipPath><linearGradient id="u" x1="-9.476" y1="1.539" x2="-9.45" y2="1.539" gradientUnits="objectBoundingBox"><stop offset="0" stop-color="#ff9a01"/><stop offset="1" stop-color="#ffc400"/></linearGradient></defs><g class="a"><path class="b" d="M87.5 39.375H840V264.25H87.5z"/></g><g class="c"><path class="d" d="M741.563 220.937h-39.734a3.252 3.252 0 0 1-2.933-1.846l-6.76-14.1a3.252 3.252 0 0 0-2.933-1.846h-13.288a3.25 3.25 0 0 1-3-2l-4.8-11.491a3.251 3.251 0 0 0-6.032.081l-4.445 11.478a3.252 3.252 0 0 1-3.033 2.077h-12.344a3.252 3.252 0 0 1-3.085-2.224L621.7 148.64a3.25 3.25 0 0 0-3.085-2.222h-29.4a3.249 3.249 0 0 0-3.192 2.625l-4.219 21.5a3.252 3.252 0 0 1-3.19 2.627h-11.232a3.252 3.252 0 0 0-3.2 2.669l-4.282 23.612a3.252 3.252 0 0 1-3.2 2.672h-12.85a3.252 3.252 0 0 1-3.15-2.44l-9.725-37.651a3.252 3.252 0 0 0-6.295-.009l-7.941 30.4a3.252 3.252 0 0 1-6.176.36l-4.608-11.811a3.252 3.252 0 0 0-6.064.012l-7.341 19.054a3.252 3.252 0 0 1-3.034 2.083h-38.74a3.252 3.252 0 0 1-3.181-2.576L436.4 146.83a3.252 3.252 0 0 0-6.3-.231l-13.325 45.864a3.252 3.252 0 0 1-6.291-.177l-4.578-19.835a3.252 3.252 0 0 0-6.275-.229l-15.764 50.965a3.254 3.254 0 0 1-3.106 2.291h-19.134a3.251 3.251 0 0 1-3.252-3.25v-22.38a3.252 3.252 0 0 0-3.251-3.251H323.5a3.252 3.252 0 0 0-3.252 3.251v22.381a3.251 3.251 0 0 1-3.252 3.25h-30.64a3.251 3.251 0 0 1-2.889-1.76l-9.748-18.87a3.252 3.252 0 0 0-5.842.128l-12.089 26.173a3.254 3.254 0 0 1-2.952 1.888h-59.864a3.246 3.246 0 0 0-2.3.952l-8.158 8.157a3.248 3.248 0 0 1-2.3.954H150.5"/></g><g class="c"><path class="e" d="M154.875 194.25h51.6a6.184 6.184 0 0 0 5.32-3.033l18.3-30.915a6.182 6.182 0 0 1 10.621-.031l13.862 23.1a6.184 6.184 0 0 0 5.3 3h16.942a6.181 6.181 0 0 0 5.672-3.724l15.26-35.222a6.182 6.182 0 0 1 11.4.142l11.282 27.937a6.179 6.179 0 0 0 5.731 3.867h35.843a6.184 6.184 0 0 0 5.682-3.745l40.57-94.593a6.181 6.181 0 0 1 10.966-.772l17.927 29.528a6.183 6.183 0 0 0 10.72-.263l4.502-8.288a6.181 6.181 0 0 1 5.436-3.237h21.226a6.18 6.18 0 0 1 5.619 3.607l6.319 13.786a6.18 6.18 0 0 0 5.619 3.607h38.75a6.18 6.18 0 0 1 5.9 4.324l17.4 55.226a6.184 6.184 0 0 0 5.9 4.324h38.348a6.185 6.185 0 0 0 5.428-3.222l9.408-17.244a6.182 6.182 0 0 1 10.67-.317l7.931 12.693a6.183 6.183 0 0 0 10.376.168l21.707-32.337a6.18 6.18 0 0 1 9.956-.418l10.4 12.985a6.185 6.185 0 0 0 4.827 2.317h52.78"/></g><g class="c"><path class="f" d="M550.673 208.765a24.62 24.62 0 0 0 1.729-3.137 21.088 21.088 0 0 0 1.024-2.817l5.314.128.7-5.763-5.186-1.024a20.567 20.567 0 0 0-1.217-6.211l4.8-3.33-2.753-4.994-5.314 2.561a19 19 0 0 0-4.482-3.97l2.113-5.891-5.186-2.305-3.07 5.635a19.135 19.135 0 0 0-6.019-.448l-1.665-5.7-5.571 1.281.7 6.019a20.6 20.6 0 0 0-4.8 2.945l-4.61-3.65-3.906 4.29 4.034 4.482a15.487 15.487 0 0 0-1.345 2.5c-.384.9-.7 1.793-1.024 2.689l-6.6-.128-.7 5.763 6.467 1.281a19.5 19.5 0 0 0 1.024 5.443L510.014 208l2.753 4.994 5.506-2.625a20.083 20.083 0 0 0 4.29 4.1l-1.985 5.571 5.186 2.305 2.817-5.058a18.571 18.571 0 0 0 5.891.7l1.665 5.891 5.571-1.281-.7-5.955a19.519 19.519 0 0 0 4.93-2.753l4.738 3.714 3.906-4.29zm-20.233-.512a11.7 11.7 0 1 1 13.638-5.186 11.89 11.89 0 0 1-13.638 5.186z"/><path class="g" d="M343.345 211.5a17.588 17.588 0 0 0 7.8-6.2l5.6 1.6 2.6-7-5.1-2.8a18.2 18.2 0 0 0-1.6-9.8l4.3-4.6-4.7-5.7-5.2 3.7a14.714 14.714 0 0 0-3.9-2.1 20.472 20.472 0 0 0-4.9-1.1l-1.6-6.1-7.3 1.1.4 6.5a18.033 18.033 0 0 0-7.2 6l-6.1-1.6-2.6 7 5.7 2.9a17.822 17.822 0 0 0 1.5 9.4l-4.4 4.7 4.7 5.7 5.3-3.6a17.836 17.836 0 0 0 4.1 2.2 19.521 19.521 0 0 0 4 1l1.6 6.1 7.3-1.1zm-3-7.8a9.112 9.112 0 1 1 5.4-11.7 9.074 9.074 0 0 1-5.4 11.7z"/><path class="h" d="M368.53 276.526h170.4l-14.97-122.92c-.5-4.13-3.74-6.8-8.251-6.8H354.333c-12.075 0-12.9 4.387-12 12.362l12.877 105.705a13.143 13.143 0 0 0 13.319 11.648"/></g><g class="c"><path class="i" d="M377.14 269.683h150.707l-13.244-108.711c-.445-3.651-3.308-6.009-7.3-6.009H364.586c-10.68 0-11.408 3.88-10.612 10.934l11.389 93.487a11.618 11.618 0 0 0 11.777 10.3"/></g><g class="c"><path class="j" d="M354.329 257.633l.882 7.247a13.144 13.144 0 0 0 13.318 11.646h225.214a18.893 18.893 0 0 0 18.891-18.893z"/></g><g class="c"><path class="k" d="M495.798 187.296h-21.207a1.558 1.558 0 0 1-1.575-1.344l-1.1-7.574a1.918 1.918 0 0 1 1.878-2.132h21.208a1.556 1.556 0 0 1 1.573 1.344l1.1 7.574a1.921 1.921 0 0 1-1.879 2.132"/></g><g class="c"><path class="g" d="M498.405 205.211h-21.2a1.555 1.555 0 0 1-1.575-1.344l-1.1-7.572a1.918 1.918 0 0 1 1.878-2.133h21.207a1.556 1.556 0 0 1 1.573 1.344l1.1 7.574a1.92 1.92 0 0 1-1.88 2.132"/></g><g class="c"><path class="l" d="M501.015 223.12h-21.207a1.555 1.555 0 0 1-1.573-1.342l-1.1-7.574a1.919 1.919 0 0 1 1.878-2.133h21.204a1.556 1.556 0 0 1 1.573 1.344l1.1 7.574a1.92 1.92 0 0 1-1.879 2.132"/></g><g class="c"><path class="m" d="M467.679 232.16h-82.812a1.557 1.557 0 0 1-1.573-1.344l-8.272-56.791a1.92 1.92 0 0 1 1.88-2.132h82.814a1.557 1.557 0 0 1 1.573 1.342l8.272 56.791a1.921 1.921 0 0 1-1.882 2.134z"/></g><g class="c"><path class="n" d="M382.1 179.261h42.186"/></g><g class="c"><path class="n" d="M431.819 179.261h16.322"/></g><g class="c"><path class="n" d="M383.157 185.286h55.792"/></g><g class="c"><path class="n" d="M443.466 185.286h13.563"/></g><g class="c"><path class="g" d="M231.887 285.278l-21.1-12.5a1.4 1.4 0 0 1-.4-1.556l16.186-55.2z"/></g><g class="c"><path class="o" d="M289.08 283.457l-57.2 1.82-5.362-68.885a1.1 1.1 0 0 1 1.094-1.181h49.509a1.4 1.4 0 0 1 1.358 1.045l12.084 65.2a1.593 1.593 0 0 1-1.484 2"/></g><g class="c"><path class="h" d="M663.187 214.995h89.1c-12.761-4.449-15.495-15.824-23.917-18.958-8.823-2.991-17.574 3.353-24.5 1.75-7.593-2.005-9.562-10.537-18.421-8.459-5.906 2.188-6.186 8.9-9.287 15.75-1.9 4.358-6.508 7.541-12.98 9.917"/></g><g class="p"><path class="q" d="M645.698 230.15h68.142v55.125h-68.142z"/></g><g class="c"><path class="r" d="M695.574 230.867c0 2.973-11.165 5.383-24.938 5.383s-24.938-2.41-24.938-5.383 11.165-5.383 24.938-5.383 24.938 2.41 24.938 5.383"/></g><g class="c"><path class="g" d="M235.072 151.375a6.125 6.125 0 1 0 6.125 6.125 6.125 6.125 0 0 0-6.125-6.125m0 9.286a3.161 3.161 0 1 1 3.159-3.161 3.16 3.16 0 0 1-3.159 3.161"/></g><g class="c"><path class="g" d="M413.815 71.167a6.125 6.125 0 1 0 6.125 6.125 6.125 6.125 0 0 0-6.125-6.125m0 9.284a3.16 3.16 0 1 1 3.159-3.159 3.158 3.158 0 0 1-3.159 3.159"/></g><g class="c"><path class="g" d="M673.983 134.167a6.125 6.125 0 1 0 6.125 6.125 6.125 6.125 0 0 0-6.125-6.125m0 9.284a3.16 3.16 0 1 1 3.159-3.159 3.158 3.158 0 0 1-3.159 3.159"/></g><g class="c"><path class="r" d="M317.026 219.359a6.125 6.125 0 1 0 6.125 6.125 6.125 6.125 0 0 0-6.125-6.125m0 9.284a3.161 3.161 0 1 1 3.159-3.161 3.16 3.16 0 0 1-3.159 3.161"/></g><g class="c"><path class="r" d="M589.374 140.943a6.125 6.125 0 1 0 6.125 6.125 6.125 6.125 0 0 0-6.125-6.125m0 9.284a3.16 3.16 0 1 1 3.159-3.159 3.158 3.158 0 0 1-3.159 3.159"/></g><g class="c"><path class="r" d="M640.482 196a6.125 6.125 0 1 0 6.125 6.125 6.124 6.124 0 0 0-6.125-6.125m0 9.284a3.16 3.16 0 1 1 3.159-3.159 3.16 3.16 0 0 1-3.159 3.159"/></g><path class="s" d="M575.945 234.5a14.759 14.759 0 0 0 4.1-6.5l4.4-.3.1-5.7-4.4-.7a13.539 13.539 0 0 0-3.7-6.6l1.9-4.4-4.9-2.9-2.8 4a12.7 12.7 0 0 0-3.4-.5 15.827 15.827 0 0 0-3.8.5l-2.8-4-5 2.7 2 4.6a13.4 13.4 0 0 0-3.6 6.2l-4.8.4-.1 5.7 4.8.6a14.39 14.39 0 0 0 3.5 6.4l-2 4.6 4.9 2.9 2.9-4a13.448 13.448 0 0 0 3.5.5 15.526 15.526 0 0 0 3.1-.3l2.8 4 5-2.7zm-5-4.6a7.023 7.023 0 1 1 .8-9.9 6.9 6.9 0 0 1-.8 9.9z"/></svg>