<svg xmlns="http://www.w3.org/2000/svg" xmlns:xlink="http://www.w3.org/1999/xlink" width="527" height="457" viewBox="0 0 527 457"><defs><path id="a" d="M92.8 3630.3c0 12.1 5.8 23.1 15.4 31.6 4.5 3.9 10.2 6 16.2 6h439.4c8.5 0 16.4-4.4 20.9-11.6a67.47 67.47 0 0 0 10.6-36.2c0-19.4-8.5-37.2-22.5-50.9-4.8-4.6-7.3-11.1-7.3-17.7v-.1c0-81.6-68.9-147.8-153.8-147.8-17.5 0-34.4 2.8-50.1 8-8.4 2.8-17.6.9-24.3-5-24.9-22.1-58.2-35.7-94.8-35.7-77 .1-139.5 60.1-139.5 134.1 0 21.7 5.4 42.3 14.9 60.4a24.6 24.6 0 0 1-6.8 30.9c-11.3 8.7-18.3 20.7-18.3 34z"/><path id="b" d="M518.6 3556.9c-23-9.4-25.3-63.1-52.7-63.2-30-.1-30.2 64.3-60.3 64.2-30-.1-29.8-64.5-59.9-64.6-2 0-3.8.3-5.6.8"/><path id="c" d="M583.8 3494.2c-25.1 2.8-28.3 53-50.3 62.5"/><path id="d" d="M320.3 3589.5c-30-.1-29.8-64.5-59.9-64.6-30-.1-30.2 64.3-60.3 64.2-30-.1-29.8-64.5-59.9-64.6-2 0-3.8.3-5.6.8"/><path id="e" d="M127.7 3529.1c-18.4 14.6-22.6 59.8-47.7 59.7"/><path id="f" d="M139.2 3527.1c-1.7 0-3.1-1.4-3.1-3.1 0-1.7 1.4-3.1 3.1-3.1 1.7 0 3.1 1.4 3.1 3.1 0 1.8-1.4 3.1-3.1 3.1zm0-9a5.91 5.91 0 0 0 0 11.8c3.2 0 5.9-2.7 5.9-5.9.1-3.2-2.6-5.9-5.9-5.9z"/><path id="g" d="M523.6 3560.4c-1.7 0-3.1-1.4-3.1-3.1 0-1.7 1.4-3.1 3.1-3.1 1.7 0 3.1 1.4 3.1 3.1-.1 1.8-1.5 3.1-3.1 3.1zm0-9a5.91 5.91 0 0 0 0 11.8c3.3 0 5.9-2.7 5.9-5.9s-2.7-5.9-5.9-5.9z"/><path id="h" d="M571.9 3515.6c-31.1-.1-40.9-29.9-58.4-49"/><path id="i" d="M172.6 3497.5c-16.7-19.1-26.8-47.6-57.2-47.7-11.7 0-20.4 4.1-27.6 10.4"/><path id="j" d="M502.5 3457.1c-6-3.8-13-6.1-21.7-6.2-45.7-.1-45.9 64.3-91.5 64.1-45.7-.1-45.5-64.6-91.1-64.7-45.7-.1-45.9 64.3-91.5 64.1-9 0-16.3-2.6-22.4-6.6"/><path id="k" d="M175.4 3504c-1.7 0-3.1-1.4-3.1-3.1 0-1.7 1.4-3.1 3.1-3.1 1.7 0 3.1 1.4 3.1 3.1 0 1.8-1.4 3.1-3.1 3.1zm0-9a5.91 5.91 0 0 0 0 11.8 5.91 5.91 0 0 0 0-11.8z"/><path id="m" d="M82.8 3678.2c0-42.53 116.94-77 261.2-77s261.2 34.47 261.2 77-116.94 77-261.2 77-261.2-34.47-261.2-77z"/><path id="o" d="M481.9 3668.9h70.2c1.5-1.8 2.7-3.6 1.6-5.5-1.5-1.5-2.6-.8-3.8 0 2.2-7.7 9.2-10.5 8.4-13.5-1.5-3.9-8.1.9-13.5 3.8 1.7-6.9 9.5-9.5 7.4-12.9-1.4-1.8-9.2 2.6-14.7 5.9 7.9-14.7 23.5-30.7 19.5-34.7-4.2-3.4-15.6 9.6-23.5 18.6 7.3-24.9 28.5-55.3 21.7-58.7-11.4-5.2-31.1 33.4-44.5 63.1 5-15.8 11.1-36.9 3.2-39.3-8-2.7-19.4 31.7-23.8 53.7-2.8-7.7-6.1-16.1-12-14.6-5.7 1.9.1 20.7 3.8 34.1z"/><path id="q" d="M137 3636c-4.3-4.8 1.9-14.5-2.3-19.1-4.6-5-10.6 3.2-17.1-1.6-3.9-3.3.9-8.4-4.5-15.9-3.2-4.8-8.9-.3-14.4-3.1-.4-.2-.9.1-.8.6 1 6-4.5 9.6-1 14.2 5.4 7.5 11.7 4.6 13.6 9.4 2.5 7.6-7.3 10.7-4 16.7 2.9 5.5 14.1 2.7 17.3 8.3 4.8 9.2-14.1 15.8-9.1 25.8 6.6 13.2 30.6 6.3 45.1 10.6.6-15.1 14.8-35.6 4.5-46.1-7.8-8.1-20.1 7.6-27.3.2z"/><path id="r" d="M97.9 3596.9c1 6-4.5 9.6-1 14.2 5.4 7.5 11.7 4.6 13.6 9.4 2.5 7.6-7.3 10.7-4 16.7 2.9 5.5 14.1 2.7 17.3 8.3 4.8 9.2-14.1 15.8-9.1 25.8 6.6 13.2 30.6 6.3 45.1 10.6v-.1L98 3596.5c-.1.1-.1.2-.1.4z"/><path id="t" d="M215.9 3682.2h-70.2c-1.5-1.8-2.7-3.6-1.6-5.5 1.5-1.5 2.6-.8 3.8 0-2.2-7.7-9.2-10.5-8.4-13.5 1.5-3.9 8.1.9 13.5 3.8-1.7-6.9-9.5-9.5-7.4-12.9 1.4-1.8 9.2 2.6 14.7 5.9-7.9-14.6-23.5-30.5-19.5-34.6 4.2-3.4 15.6 9.6 23.5 18.6-7.3-24.9-28.5-55.3-21.7-58.7 11.4-5.2 31.1 33.4 44.5 63.1-5-15.8-11.1-36.9-3.2-39.3 8-2.7 19.4 31.7 23.8 53.7 2.8-7.7 6.1-16.1 12-14.6 5.8 1.7-.1 20.6-3.8 34z"/><path id="u" d="M410.2 3312.9c34.6-6 54.3 31 66.3 30 7.4-1.1 10.7-5.9 17.9-5.9 13.7 0 19.4 18 34.9 22.3 7.2 1.1 13.5-4.3 19.9-2 5.6 1.6 9.4 5.4 13 11.3H342.6c28.4-12.6 31.5-47.5 67.6-55.7z"/><path id="v" d="M588.6 3467.7c3.2 6.4 3.3 15.9-3.7 19.4-12.1 5-27.5-1.2-31.3-13.6-2.5-12.8 9.3-20.3 23.4-15.2 4.4 1.7 8.7 5 11.6 9.4z"/><path id="w" d="M550.2 3418.2c.2 5-3.6 9-8.5 8.9-4.9-.1-9.1-4.3-9.3-9.3-.2-5 3.6-9 8.5-8.9 5 .1 9.1 4.3 9.3 9.3z"/><path id="y" d="M159.4 3344.5a45.6 45.6 0 1 1 91.2 0 45.6 45.6 0 0 1-91.2 0z"/><path id="A" d="M169.6 3344.5a35.4 35.4 0 1 1 70.8 0 35.4 35.4 0 0 1-70.8 0z"/><path id="B" d="M188.62 3360.81a23.1 23.1 0 1 1 32.67-32.66 23.1 23.1 0 0 1-32.67 32.66z"/><path id="C" d="M209 3344.5c0 2.2-1.8 4.1-4.1 4.1-2.2 0-4.1-1.8-4.1-4.1 0-2.2 1.8-4.1 4.1-4.1 2.3.1 4.1 1.9 4.1 4.1z"/><path id="D" d="M222.3 3318.9l-17.3 25.6"/><path id="E" d="M227.7 3344.5h-21.4"/><path id="G" d="M469 3571h13.7c.7 0 1.2-.7.9-1.4l-6.7-17.1c-.1-.2-.1-.3-.2-.5-.3-.9-1.5-.9-1.9 0-.1.2-.1.3-.2.5l-6.6 17.1c-.2.7.3 1.4 1 1.4zm-19.6 17.4l20.2-49.4c.2-.4.5-.6.9-.6H481c.4 0 .8.2.9.6l20.1 49.4c.3.7-.2 1.4-.9 1.4H492c-.4 0-.8-.3-.9-.6l-3.2-8.3c-.2-.4-.5-.6-.9-.6h-22.1c-.4 0-.8.3-.9.6l-3.3 8.4c-.2.4-.5.6-.9.6h-9.2c-1-.1-1.5-.9-1.2-1.5z"/><path id="H" d="M490.6 3560l11.6 28.4c.3.7-.2 1.4-.9 1.4H492c-.4 0-.8-.3-.9-.6l-3.2-8.3c-.2-.4-.5-.6-.9-.6h-22.1c-.4 0-.8.3-.9.6l-3.3 8.4c-.2.4-.5.6-.9.6h-9.2c-.7 0-1.2-.7-.9-1.4l6-14.7c17.1 9.7 35.9 2.7 34.9-13.8z"/><path id="I" d="M503.8 3669.8H200.4v-178.7c0-7.7 6.3-14 14-14h275.4c7.7 0 14 6.3 14 14z"/><path id="J" d="M516.8 3683.4H187.4c-7.7 0-13.9-6.2-13.9-13.9v-4.9h357.3v4.9c0 7.7-6.3 13.9-14 13.9z"/><path id="K" d="M214.4 3656.8v-162.4h275.4v162.4z"/><path id="L" d="M372 3671.2h-39.8a3 3 0 0 1-3-3v-3.7H375v3.7c0 1.7-1.3 3-3 3z"/><path id="M" d="M214.4 3508.2v-17.9h275.4v17.9z"/><path id="N" d="M112.6 3424.2l184.8-.3c-1.5-2.6-3.1-5-6.5-6.2-3.5-1.3-6.3 1-10.2-1.1-2.7-1.6-3.5-4.7-6.1-5.9-3.9-1.7-7.3.7-11.3-.9-3.1-2.3-3.2-5.3-4.1-8.1-1.2-4.1-3.1-7.9-10.2-10.3-21-5.8-48 25.7-62.9 26.5-8.9 0-22.7-11.3-33.9-11.3-13-.1-24.8 11.5-39.6 17.6z"/><path id="O" d="M441.6 3532.7h7.7"/><path id="P" d="M353.5 3532.7h77"/><path id="Q" d="M429.3 3541h20"/><path id="R" d="M353.5 3541h66.1"/><path id="S" d="M392.9 3549.2h56.4"/><path id="T" d="M353.5 3549.2h10.3"/><path id="U" d="M434 3557.5h15.3"/><path id="V" d="M353.5 3557.5h67.7"/><path id="W" d="M353.5 3565.7h82.7"/><path id="X" d="M438.7 3574.2h10.6"/><path id="Y" d="M423.5 3574.2h9.8"/><path id="Z" d="M353.5 3574.2H418"/><path id="aa" d="M353.5 3583.6h95.8"/><path id="ab" d="M353.5 3593h75.8"/><path id="ac" d="M428.4 3602.3h20.9"/><path id="ad" d="M386.4 3602.3h33.9"/><path id="ae" d="M353.5 3602.3h18"/><path id="af" d="M430.5 3611.7h18.8"/><path id="ag" d="M391.4 3611.7h32.1"/><path id="ah" d="M353.5 3611.7h26.3"/><path id="ai" d="M464.6 3546.4v11.9h-39.5l-.1-11.9z"/><path id="aj" d="M386 3581.1l56.7 4.7c11.8 1 21.9-8.4 21.9-20.2v-10.2h-88.4z"/><path id="ak" d="M478.3 3500.4c10.9-3.4 9.9-22.3-5.7-27.7 2.9-8.8-2-14.6-12.3-18.2 1-4.4-1.5-6.4-4.9-7.9v2.7l-7.6-4.7-24.7-9.8c-6.8 8.5-5.5 16.5-2 20.2-7.8 4.7-8 14.6-1.3 16.3-18.7 25.6-8.4 43.9 25.3 54.2 7.3 1.2 14.8.3 20.9-3.2 4.6-2.6 7.2-6.7 8.6-12.3 4.3 0 9-5.2 3.7-9.6z"/><path id="al" d="M456.6 3528.2c0-5.3 4.12-9.6 9.2-9.6 5.08 0 9.2 4.3 9.2 9.6s-4.12 9.6-9.2 9.6c-5.08 0-9.2-4.3-9.2-9.6z"/><path id="am" d="M424.4 3442.5c5.5 5.8 13.5 5.8 23.2 6.5l8.6.8c3.1-14.7-5.1-23.2-18.3-23.1-12.4.6-22.2 11.9-15 26.8z"/><path id="ao" d="M431.7 3482.9c1.4 4.3-1.6 9.2-5.5 11.7-8.6 5.7-29.9 14.1-41.6 18.5a7 7 0 0 1-9.4-5.5l-1.2-8.1s1.1 0 4.9-1.6c16.1-5.9 30.9-12.2 43.3-19.3 5.5-2.6 8.6 1.5 9.5 4.3z"/><path id="ap" d="M370.4 3456.5c-2.6.5-4.5 3.3-4 6 1 .9 1.7 2.2 2 3.6l6.3 39.8c1.3 7.5 5.4 8.4 8.9 7.7 3.1-.8 5.2-4.9 3.6-10.9l-11.9-42.9v-1.5c-.6-2.7-2.3-2.3-4.9-1.8z"/><path id="aq" d="M411.7 3484.1c3.4-3.1 29.4-15.1 49.8-6 3.9 1.7 6.4 5.6 6.2 9.9-.6 17.5-3.2 42.5-3.3 58.6l-39.4-.2c-3-27.5-14-35.8-13.3-62.3z"/><path id="ar" d="M464.6 3546.6l-39.6 1.8-.5-6.1 40.1-3.4z"/><path id="as" d="M423.6 3442.3c-1.6 6.5-1.3 14.9 1.7 21.2 1.4 3 5.7 2.9 5.7 2.9l-.4 10.9s.2 1.6.8 2.1c5.1 3.7 11.2 5 16.1.3.4-.4 1.4-3.1 1.4-3.1l-3-18.9s1-1.5 1.3-1.5c5.2-.6 4.3-7-.2-7.2-.3 0-.5-.2-.5-.4-1.5-5.3-12.6-2.5-22.9-6.3z"/><path id="at" d="M446.7 3456.9c-5.2 5.8-8.6 8.5-15.6 9.4l-.3 8.2c6.6-1.3 12.8-8.8 15.9-17.6z"/><path id="au" d="M441.6 3462.2c-3.1 2.1-6.5 3.4-10.3 4"/><path id="av" d="M368.3 3555.3h13.3l18.1 91.7h-14.5l-24.2-82.1a7.52 7.52 0 0 1 7.3-9.6z"/><path id="aw" d="M382.8 3638.8h15.3l5.4 23.9c.1.6-.3 1.2-1 1.2h-29.7c-1 0-1.2-1.3-.4-1.7l15.3-6.4z"/><path id="ax" d="M464.8 3551h-13.6c-7.6 0-13.9 5.9-14.3 13.5l27.5 143.3 13.9 1.9z"/><path id="ay" d="M462.2 3699.9H477l4.1 23.5c.1.4-.2.8-.7.8H453c-.7 0-.9-.9-.3-1.3l12.7-6.8z"/><path id="az" d="M402.16 3443.92v11.6h-39v-11.6z"/><path id="aA" d="M369.2 3458.2l-66.5 3.1V3438l66.5 3.1z"/><path id="aB" d="M423.72 3446.82v5.7h-31.6v-5.7z"/><path id="aC" d="M300.8 3449.7c0 6.1-.9 11.4.8 12.6h2.9c2 0 3.7-5.6 3.7-12.6 0-6.9-1.6-12.6-3.7-12.6h-3c-1.6 1.4-.7 6.7-.7 12.6z"/><path id="aD" d="M298 3449.7c0 6.9 1.6 12.6 3.7 12.6 2 0 3.7-5.6 3.7-12.6 0-6.9-1.6-12.6-3.7-12.6s-3.7 5.7-3.7 12.6z"/><path id="aE" d="M366.8 3449.7c0 4.1-.6 7.7.5 8.5h2c1.4 0 2.5-3.8 2.5-8.5s-1.1-8.5-2.5-8.5h-2c-1.1.9-.5 4.5-.5 8.5z"/><path id="aF" d="M400.5 3449.7c0 2.8-.4 5.3.4 5.8h1.3c.9 0 1.7-2.6 1.7-5.8 0-3.2-.8-5.8-1.7-5.8h-1.4c-.7.6-.3 3.1-.3 5.8z"/><path id="aG" d="M423.3 3449.7c0 1.4-.2 2.6.2 2.9h.7c.5 0 .9-1.3.9-2.9 0-1.6-.4-2.9-.9-2.9h-.7c-.4.4-.2 1.6-.2 2.9z"/><path id="aI" d="M467.3 3488.1c1 5.8-3.9 6.8-8.4 9.7-14.4 9.3-47.9 21.4-56.1 18.3-2.4-.9-2.5-7-2.3-9.6a7.1 7.1 0 0 1 4.2-5.6c18.9-6.8 36.2-14.1 50.8-22.3 4.2-2.2 9.2 1.3 10.1 4 .7 1.9 1.4 3.7 1.7 5.5z"/><path id="aJ" d="M401.5 3458.6l.2-3.5c0-.3-.1-.6-.2-.9l-1-2.8c-.1-.2-.2-.3-.4-.3h-.2c-.5 0-.8.4-.8.9l.2 2.2v.4l-1.1 3z"/><path id="aK" d="M396.8 3456.4c-2.6.3-4.7 3-4.4 5.7 1 1 1.6 2.3 1.7 3.7l3.7 41.7c.3 4.8 4.7 7.2 8.2 6.8 3.1-.5 5.6-3.7 4.9-8l-9.5-46.2.1-1.5c-.3-2.8-2.1-2.5-4.7-2.2z"/><path id="aL" d="M399 3463.4c1.1-3.1.9-6.3-1.6-9.9l-5.1-6.7c-.7-.9-2.1-.5-2.4.6l-1.7 6.6c-.4 1.4-.1 2.9.9 4l4.6 5.5z"/><path id="aM" d="M302.1 3609.5v-64.1H315v64.1z"/><path id="aO" d="M302.1 3609.5v-39.8H315v39.8z"/><path id="aP" d="M302.1 3609.5v-23.3H315v23.3z"/><path id="aQ" d="M253.8 3609.5v-79.7h12.9v79.7z"/><path id="aR" d="M253.8 3539.2v-9.4h12.9v9.4z"/><path id="aT" d="M253.8 3609.5v-33.1h12.9v33.1z"/><path id="aU" d="M278 3609.5V3563h12.9v46.5z"/><path id="aV" d="M278 3590v-27h12.9v27z"/><path id="aX" d="M278 3589.9v-11.6h12.9v11.6z"/><path id="aZ" d="M229.7 3609.5v-62h12.9v62z"/><path id="ba" d="M229.7 3609.5V3593h12.9v16.5z"/><path id="bb" d="M326.2 3609.5v-32.1h12.9v32.1z"/><radialGradient id="l" cx="0" cy="0" r="0" gradientUnits="userSpaceOnUse"><stop offset="0" stop-color="#96b7e1"/><stop offset="1" stop-color="#a1bee4" stop-opacity="0"/></radialGradient><linearGradient id="n" x1="475.73" x2="558.41" y1="3620.17" y2="3620.17" gradientUnits="userSpaceOnUse"><stop offset="0" stop-color="#239b6a"/><stop offset="1" stop-color="#4ccd9b"/></linearGradient><linearGradient id="p" x1="86.11" x2="145.49" y1="3591.41" y2="3591.41" gradientUnits="userSpaceOnUse"><stop offset="0" stop-color="#239b6a"/><stop offset="1" stop-color="#4ccd9b"/></linearGradient><linearGradient id="s" x1="127.14" x2="223.44" y1="3626.77" y2="3661.1" gradientUnits="userSpaceOnUse"><stop offset="0" stop-color="#f2751c"/><stop offset="1" stop-color="#ffc400"/></linearGradient><linearGradient id="x" x1="151.4" x2="242.55" y1="3331.43" y2="3331.43" gradientUnits="userSpaceOnUse"><stop offset="0" stop-color="#f2751c"/><stop offset="1" stop-color="#ffc400"/></linearGradient><linearGradient id="z" x1="169.58" x2="240.33" y1="3344.54" y2="3344.54" gradientUnits="userSpaceOnUse"><stop offset="0" stop-color="#f1b827"/><stop offset="1" stop-color="#fecc4d"/></linearGradient><linearGradient id="F" x1="449.33" x2="502.23" y1="3564.05" y2="3564.05" gradientUnits="userSpaceOnUse"><stop offset="0" stop-color="#f2751c"/><stop offset="1" stop-color="#ffc400"/></linearGradient><linearGradient id="an" x1="565.27" x2="569.17" y1="4364.17" y2="4321.26" gradientUnits="userSpaceOnUse"><stop offset="0" stop-color="#f1b827"/><stop offset="1" stop-color="#fecc4d"/></linearGradient><linearGradient id="aH" x1="-670.77" x2="-663.73" y1="4102.87" y2="4042.08" gradientUnits="userSpaceOnUse"><stop offset="0" stop-color="#f1b827"/><stop offset="1" stop-color="#fecc4d"/></linearGradient><linearGradient id="aN" x1="196.66" x2="209.57" y1="3589.58" y2="3589.58" gradientUnits="userSpaceOnUse"><stop offset="0" stop-color="#f2751c"/><stop offset="1" stop-color="#ffc400"/></linearGradient><linearGradient id="aS" x1="154.87" x2="154.87" y1="3609.49" y2="3576.43" gradientUnits="userSpaceOnUse"><stop offset="0" stop-color="#f2751c"/><stop offset="1" stop-color="#ffc400"/></linearGradient><linearGradient id="aW" x1="172.54" x2="185.44" y1="3584.09" y2="3584.09" gradientUnits="userSpaceOnUse"><stop offset="0" stop-color="#4263eb"/><stop offset="1" stop-color="#1f46e7"/></linearGradient><linearGradient id="aY" x1="124.22" x2="137.13" y1="3578.48" y2="3578.48" gradientUnits="userSpaceOnUse"><stop offset="0" stop-color="#239b6a"/><stop offset="1" stop-color="#4ccd9b"/></linearGradient></defs><use fill="#d9edf6" xlink:href="#a" transform="translate(-79 -3299)"/><use fill="#fff" fill-opacity="0" stroke="#4263eb" stroke-dasharray="176.12 15.9" stroke-linecap="round" stroke-miterlimit="50" stroke-width="2.15" xlink:href="#b" transform="translate(-79 -3299)"/><use fill="#fff" fill-opacity="0" stroke="#4263eb" stroke-dasharray="176.12 15.9" stroke-linecap="round" stroke-miterlimit="50" stroke-width="2.15" xlink:href="#c" transform="translate(-79 -3299)"/><use fill="#fff" fill-opacity="0" stroke="#4263eb" stroke-dasharray="176.12 15.9" stroke-linecap="round" stroke-miterlimit="50" stroke-width="2.15" xlink:href="#d" transform="translate(-79 -3299)"/><use fill="#fff" fill-opacity="0" stroke="#4263eb" stroke-linecap="round" stroke-miterlimit="50" stroke-width="2.15" xlink:href="#e" transform="translate(-79 -3299)"/><use fill="#4263eb" xlink:href="#f" transform="translate(-79 -3299)"/><use fill="#4263eb" xlink:href="#g" transform="translate(-79 -3299)"/><use fill="#fff" fill-opacity="0" stroke="#fff" stroke-linecap="round" stroke-miterlimit="50" stroke-width="2.15" xlink:href="#h" transform="translate(-79 -3299)"/><use fill="#fff" fill-opacity="0" stroke="#fff" stroke-dasharray="161.6 14.59" stroke-linecap="round" stroke-miterlimit="50" stroke-width="2.15" xlink:href="#i" transform="translate(-79 -3299)"/><use fill="#fff" fill-opacity="0" stroke="#fff" stroke-dasharray="161.6 14.59" stroke-linecap="round" stroke-miterlimit="50" stroke-width="2.15" xlink:href="#j" transform="translate(-79 -3299)"/><use fill="#fff" xlink:href="#k" transform="translate(-79 -3299)"/><use fill="url(#l)" xlink:href="#m" transform="translate(-79 -3299)"/><use fill="url(#n)" xlink:href="#o" transform="translate(-79 -3299)"/><use fill="url(#p)" xlink:href="#q" transform="translate(-79 -3299)"/><use fill="#239b6a" xlink:href="#r" transform="translate(-79 -3299)"/><use fill="url(#s)" xlink:href="#t" transform="translate(-79 -3299)"/><use fill="#d9edf6" xlink:href="#u" transform="translate(-79 -3299)"/><use fill="#d9edf6" xlink:href="#v" transform="translate(-79 -3299)"/><use fill="#d9edf6" xlink:href="#w" transform="translate(-79 -3299)"/><use fill="url(#x)" xlink:href="#y" transform="translate(-79 -3299)"/><use fill="url(#z)" xlink:href="#A" transform="translate(-79 -3299)"/><use fill="#fff" fill-opacity="0" stroke="#fff" stroke-linecap="round" stroke-miterlimit="50" stroke-width="1.44" xlink:href="#B" transform="translate(-79 -3299)"/><use fill="#f8f9fb" xlink:href="#C" transform="translate(-79 -3299)"/><use fill="#fff" fill-opacity="0" stroke="#fff" stroke-linecap="round" stroke-miterlimit="50" stroke-width="1.44" xlink:href="#D" transform="translate(-79 -3299)"/><use fill="#fff" fill-opacity="0" stroke="#fff" stroke-linecap="round" stroke-miterlimit="50" stroke-width="1.73" xlink:href="#E" transform="translate(-79 -3299)"/><g transform="translate(-79 -3299)"><use fill="url(#F)" xlink:href="#G"/><use fill="#f2751c" xlink:href="#H"/></g><use fill="#96b7e2" xlink:href="#I" transform="translate(-79 -3299)"/><use fill="#1f46e7" xlink:href="#J" transform="translate(-79 -3299)"/><use fill="#f8f9fb" xlink:href="#K" transform="translate(-79 -3299)"/><use fill="#fff" xlink:href="#L" transform="translate(-79 -3299)"/><use fill="#d9edf6" xlink:href="#M" transform="translate(-79 -3299)"/><use fill="#f5f7f8" xlink:href="#N" transform="translate(-79 -3299)"/><g fill="#fff" fill-opacity="0" stroke="#c8cbac" stroke-linecap="round" stroke-miterlimit="50" stroke-width="2" transform="translate(-79 -3299)"><use xlink:href="#O"/><use xlink:href="#P"/><use xlink:href="#Q"/><use xlink:href="#R"/><use xlink:href="#S"/><use xlink:href="#T"/><use xlink:href="#U"/><use xlink:href="#V"/><use xlink:href="#W"/><use xlink:href="#X"/><use xlink:href="#Y"/><use xlink:href="#Z"/><use xlink:href="#aa"/><use xlink:href="#ab"/><use xlink:href="#ac"/><use xlink:href="#ad"/><use xlink:href="#ae"/><use xlink:href="#af"/><use xlink:href="#ag"/><use xlink:href="#ah"/></g><g transform="translate(-79 -3299)"><use fill="#4263eb" xlink:href="#ai"/><use fill="#4263eb" xlink:href="#aj"/><use fill="#f2751c" xlink:href="#ak"/><use fill="#f2751c" xlink:href="#al"/><use fill="#f2751c" xlink:href="#am"/><use fill="url(#an)" xlink:href="#ao"/><use fill="#fff" xlink:href="#ap"/><use fill="#fecc4d" xlink:href="#aq"/><use fill="#1f46e7" xlink:href="#ar"/><use fill="#fff" xlink:href="#as"/><use fill="#eaeacd" xlink:href="#at"/><use fill="#fff" fill-opacity="0" stroke="#c8cbac" stroke-linecap="round" stroke-miterlimit="50" stroke-width=".45" xlink:href="#au"/><use fill="#4263eb" xlink:href="#av"/><use fill="#f8631a" xlink:href="#aw"/><use fill="#4263eb" xlink:href="#ax"/><use fill="#f8631a" xlink:href="#ay"/><use fill="#1f46e7" xlink:href="#az"/><use fill="#1f46e7" xlink:href="#aA"/><use fill="#1f46e7" xlink:href="#aB"/><use fill="#1f46e7" xlink:href="#aC"/><use fill="#fecc4d" xlink:href="#aD"/><use fill="#1f46e7" xlink:href="#aE"/><use fill="#1f46e7" xlink:href="#aF"/><use fill="#1f46e7" xlink:href="#aG"/><use fill="url(#aH)" xlink:href="#aI"/><use fill="#fff" xlink:href="#aJ"/><use fill="#fff" xlink:href="#aK"/><use fill="#fff" xlink:href="#aL"/></g><g transform="translate(-79 -3299)"><use fill="#f2751c" xlink:href="#aM"/><use fill="url(#aN)" xlink:href="#aO"/><use fill="#ffc400" xlink:href="#aP"/><use fill="#f2751c" xlink:href="#aQ"/><use fill="#ffc400" xlink:href="#aR"/><use fill="url(#aS)" xlink:href="#aT"/><use fill="#96b7e1" xlink:href="#aU"/><use fill="#1f46e7" xlink:href="#aV"/><use fill="url(#aW)" xlink:href="#aX"/><use fill="url(#aY)" xlink:href="#aZ"/><use fill="#239b6a" xlink:href="#ba"/><use fill="#1f46e7" xlink:href="#bb"/></g></svg>