<svg xmlns="http://www.w3.org/2000/svg" xmlns:xlink="http://www.w3.org/1999/xlink" viewBox="0 0 1028.873 272.39"><defs><style>.a{fill:url(#a)}.b{fill:#239b6a}.c{fill:url(#b)}.d{fill:#4263eb}.e{fill:#c9e5f2}.f{fill:#d9edf6}.g{fill:url(#c)}.h{fill:url(#d)}.i{fill:url(#e)}.j{fill:#fff}.k{fill:#4ccd9b}.l{fill:#1f46e7}.m{fill:#b9ddee}.n{fill:url(#f)}.o{fill:#3054e9}.p{fill:none;stroke:#c8cbac;stroke-linecap:round;stroke-miterlimit:10;stroke-width:.38px}.q{fill:#f2751c}.r{fill:url(#g)}.s{fill:url(#h)}.t{fill:#fecc4d}.u{fill:#eaeacd}.v{fill:url(#i)}.w{fill:#f8631a}</style><linearGradient id="a" x1=".158" y1=".515" x2=".978" y2=".515" gradientUnits="objectBoundingBox"><stop offset="0" stop-color="#239b6a"/><stop offset="1" stop-color="#4ccd9b"/></linearGradient><linearGradient id="b" x1="-.149" y1=".432" x2="1.016" y2=".784" gradientUnits="objectBoundingBox"><stop offset="0" stop-color="#f2751c"/><stop offset="1" stop-color="#ffc400"/></linearGradient><linearGradient id="c" x1="0" y1=".5" x2="1.001" y2=".5" xlink:href="#a"/><linearGradient id="d" x1="0" y1=".5" x2="1" y2=".5" xlink:href="#b"/><linearGradient id="e" x1=".208" y1="1.199" x2=".644" y2=".285" xlink:href="#a"/><linearGradient id="f" x1="4.649" y1="1.274" x2="5.294" y2=".457" xlink:href="#a"/><linearGradient id="g" x1="1.858" y1=".888" x2="1.99" y2=".184" gradientUnits="objectBoundingBox"><stop offset="0" stop-color="#f1b827"/><stop offset="1" stop-color="#fecc4d"/></linearGradient><linearGradient id="h" x1=".501" y1="1.001" x2=".501" y2="0" xlink:href="#a"/><linearGradient id="i" x1="3.362" y1="1.163" x2="3.535" y2=".258" xlink:href="#g"/></defs><path class="a" d="M470.197 139.105c-4.855-5.479 2.212-16.471-2.62-21.632-5.229-5.672-12.081 3.664-19.386-1.792-4.4-3.777.964-9.483-5.139-18.047-3.687-5.388-10.13-.318-16.289-3.573a.624.624 0 0 0-.9.658c1.134 6.806-5.116 10.878-1.134 16.1 6.148 8.53 13.283 5.275 15.438 10.651 2.824 8.666-8.247 12.16-4.537 18.944 3.346 6.228 16.017 3.063 19.647 9.415 5.4 10.447-15.96 17.968-10.277 29.289 7.509 14.939 34.722 7.146 51.193 11.979.715-17.151 16.811-40.428 5.07-52.327-8.92-9.012-22.899 8.797-31.066.335z"/><path class="b" d="M425.866 94.717c1.134 6.806-5.116 10.878-1.134 16.1 6.148 8.53 13.283 5.275 15.438 10.651 2.824 8.666-8.247 12.16-4.537 18.944 3.346 6.228 16.017 3.063 19.647 9.415 5.4 10.447-15.96 17.968-10.277 29.289 7.509 14.939 34.722 7.146 51.193 11.979v-.1l-70.2-96.714a.545.545 0 0 0-.125.442z"/><path class="c" d="M559.73 188.512h-79.665c-1.736-2.019-3.063-4.072-1.758-6.273 1.713-1.69 2.995-.862 4.276 0-2.484-8.768-10.493-11.877-9.551-15.336 1.7-4.458 9.211 1.044 15.325 4.276-1.94-7.793-10.822-10.731-8.337-14.746 1.588-2.053 10.459 2.927 16.629 6.647-8.916-16.516-26.634-34.609-22.108-39.2 4.708-3.891 17.7 10.856 26.634 21.11-8.292-28.268-32.283-62.7-24.627-66.586 12.943-5.91 35.233 37.842 50.512 71.611-5.672-17.945-12.569-41.835-3.664-44.625 9.075-3.119 22.018 35.97 27.031 60.96 3.222-8.678 6.908-18.218 13.612-16.584 6.49 2.191-.135 23.539-4.309 38.746z"/><path class="d" d="M743.562 195.935h79.654c1.747-2.03 3.063-4.084 1.758-6.284-1.713-1.679-2.995-.851-4.276 0 2.484-8.757 10.493-11.865 9.551-15.325-1.69-4.458-9.211 1.044-15.325 4.276 1.951-7.793 10.822-10.731 8.337-14.69-1.588-2.053-10.459 2.927-16.629 6.647 8.916-16.527 26.634-34.62 22.108-39.2-4.707-3.868-17.684 10.878-26.634 21.087 8.292-28.268 32.295-62.7 24.627-66.6-12.943-5.9-35.165 37.853-50.5 71.622 5.672-17.945 12.557-41.846 3.653-44.636-9.075-3.108-22.006 35.97-27.031 60.971-3.21-8.689-6.908-18.218-13.612-16.584-6.492 2.156.144 23.504 4.319 38.716z"/><path class="e" d="M403.645 211.022l526.26-1.134c-6.466-11.105-13.351-21.711-28-27.054-15.359-5.672-27.224 4.288-44.307-4.537-11.616-6.863-15-20.486-26.4-25.557-16.777-7.248-31.694 3.165-49.117-3.8-13.612-9.88-14.077-22.936-17.753-35.165-5.3-17.628-13.374-34.4-44.047-44.682-91.253-25.386-227.329 128-316.636 141.929z"/><path class="f" d="M299.353 37.876l-124.97-.295c1.531-2.632 3.165-5.15 6.647-6.42s6.454 1.021 10.515-1.134c2.756-1.633 3.562-4.866 6.273-6.069 3.982-1.724 7.521.749 11.661-.907 3.233-2.337 3.335-5.445 4.208-8.349 1.259-4.186 3.188-8.167 10.459-10.606 21.678-5.922 53.984 30.445 75.207 33.78zM490.734 58.728l209.62-.284c-1.69-2.9-3.494-5.672-7.328-7.078-4.016-1.475-7.112 1.134-11.582-1.2-3.04-1.792-3.925-5.354-6.908-6.681-4.379-1.894-8.281.828-12.841-1-3.573-2.575-3.687-5.989-4.639-9.2-1.384-4.605-3.505-9-11.525-11.684-23.821-6.625-54.449 29.2-71.339 30.071-10.05 0-25.727-12.829-38.432-12.829-14.806-.114-28.181 12.965-45.026 19.885zM121.432 257.61H609.2c-16.074-5.1-18.717-18.717-34.79-29.493-15.075-9.96-39.055.624-60.279-10.209-34.926-17.015-82.433-104.36-157.322-106.1-55.583 0-65.61 51.805-86.4 55.776-30.253 4.537-42.538-18.91-76.375-1.52-41.6 23.576-27.795 75.098-72.602 91.546z"/><path class="g" d="M208.87 230.29h-69.511c-1.485-1.674-2.673-3.348-1.584-5.115 1.485-1.395 2.575-.744 3.763 0-2.178-7.161-9.11-9.765-8.318-12.554 1.485-3.627 8.02.837 13.367 3.534-1.683-6.417-9.407-8.835-7.327-12 1.386-1.674 9.11 2.418 14.556 5.487-7.823-13.67-23.269-28.55-19.309-32.27 4.159-3.162 15.447 8.928 23.269 17.3-7.228-23.156-28.22-51.427-21.487-54.589 11.288-4.836 30.795 31.061 44.063 58.681-4.951-14.693-10.991-34.316-3.169-36.548 7.921-2.511 19.21 29.48 23.566 49.939 2.773-7.161 6.04-14.972 11.882-13.577 5.645 1.767-.098 19.251-3.761 31.712z"/><g transform="translate(375.615)"><circle class="h" cx="20.123" cy="20.123" r="20.123"/></g><g transform="translate(589.684 39.173)"><path class="i" d="M79.34 61.858c.125-.522-6.364-2.2-6.738-2.6l-1.27-13.487c-.862-.93-4.39-4.458-5.74-3.324-5.762 9.835-11.343 27.962-14.746 32.442l-1.838-.284-29.175-4.537a4.991 4.991 0 0 0-6.341 3.9c-.658 2.915 7.112 7.09 9.982 7.94l31.172 9.8c.374.159 2.042.6 2.065.59a8.53 8.53 0 0 0 8.553-3.947c5.126-5.9 14.904-13.84 14.076-26.493z"/><path class="j" d="M18.472 79.595c-2.2.465-5.468-1.974-7.362-3.607a5.535 5.535 0 0 0-3.528-1.4c-.93 0-2.5-.136-3.743-.25a4.05 4.05 0 0 1-3.006-1.917l-.635-1a1.134 1.134 0 0 1 .647-1.736l11.7-1.792a11.151 11.151 0 0 1 6.806 1.8c.34.227.681.454 1.01.692a5.161 5.161 0 0 1-1.7 9.165z"/><path class="k" d="M74.928 36.203l19.533-.079a21.337 21.337 0 0 1 20.645 15.688l14.554 53.133H80.191L65.297 48.727a9.971 9.971 0 0 1 9.631-12.523z"/><path class="l" d="M34.091 104.945l17.594 21.2h44.8a9.2 9.2 0 0 0 9.075-11.014l-2.042-10.209z"/><circle class="l" cx="10.924" cy="10.924" r="10.924" transform="translate(23.565 104.945)"/><path class="d" d="M60.181 104.945l17.594 21.2h44.863a9.2 9.2 0 0 0 9.075-11.015l-2.053-10.209z"/><path class="m" d="M159.561 93.749c63.671-8.462 99.89 43.695 122 42.22 13.612-1.5 19.67-8.247 32.953-8.36 25.228 0 35.619 25.364 64.113 31.444 13.215 1.475 24.785-6.023 36.662-2.756 10.209 2.269 17.287 7.6 23.9 15.96H35.282c52.123-17.923 57.92-66.926 124.279-78.508z"/><path class="l" d="M61.078 190.214l1.486 6.159a4.288 4.288 0 0 1-4.174 5.3H25.573a1.622 1.622 0 0 1-.9-2.961l15.881-8.5z"/><path class="l" d="M23.95 118.773l16.788 71.441H61.27l-9.619-64.068-6.568-12.943z"/><circle class="d" cx="10.924" cy="10.924" r="10.924" transform="translate(49.7 104.945)"/><path class="d" d="M50.097 118.773l16.709 71.441h20.611l-9.63-64.068-6.568-12.943z"/><path class="l" d="M87.294 190.214l1.486 6.159a4.3 4.3 0 0 1-4.174 5.3H51.775a1.611 1.611 0 0 1-.885-2.961l15.881-8.5z"/><path class="n" d="M79.601 95.122l29.357-3.1a303.185 303.185 0 0 0-14.463-42.277c-2.269-6.613 3.2-9.857 6.5-10.64 5.07-1.066 10.028 3.131 12.478 7.94 6.42 12.4 14.905 38.329 15.121 51.613a8.542 8.542 0 0 1-7.611 8.485h-2.145l-32.692-1.463c-2.995-.091-11.57-2.11-11.7-5.093a4.991 4.991 0 0 1 5.15-5.468z"/><path class="j" d="M80.792 104.718c-2.008 1.01-5.8-.5-8.042-1.588a5.5 5.5 0 0 0-3.777-.431c-.907.227-2.45.5-3.675.715a4.038 4.038 0 0 1-3.4-1.066l-.873-.794a1.134 1.134 0 0 1 .181-1.86l10.788-4.73a11.185 11.185 0 0 1 7 0l1.134.4a5.173 5.173 0 0 1 .726 9.3z"/><path class="l" d="M83.084 105.365H55.311v-5.037h32.9a5.082 5.082 0 0 1-5.127 5.037z"/><path class="d" d="M18.21 105.331h45.823l-6.915-33.029a2.269 2.269 0 0 0-2.382-1.826H11.404c-3.256 0-3.4 1.134-2.938 3.324l5.955 28.415a3.925 3.925 0 0 0 3.789 3.119z"/><path class="o" d="M18.211 105.33a3.925 3.925 0 0 1-3.845-3.119L9.601 79.456c15.28 18.308 43.661 4.322 52.282 25.874z"/><ellipse class="j" cx="3.04" cy="3.993" rx="3.04" ry="3.993" transform="rotate(-38.4 141.057 1.756)"/><path class="j" d="M58.933 11.804c-.091 10.084 1 16.7 4.639 23.617a5.434 5.434 0 0 0 5.263 2.859h.057a3.074 3.074 0 0 1 2.881 1.441l.34 5.672a3.267 3.267 0 0 0 .352 1.27c4.481 8.678 16.346 2.768 18.9-4.22a4.663 4.663 0 0 0-.057-3.233l-5.49-9.075-6.954-24.332z"/><ellipse class="j" cx="4.878" cy="3.539" rx="4.878" ry="3.539" transform="rotate(-88.8 52.917 -26.552)"/><path class="d" d="M60.589 7.21L73.895.88c7.022-1.577 12.614 2.6 14.1 9.6a45.839 45.839 0 0 1-.408 21.19 1.066 1.066 0 0 1-1.758.51l-2.133-5.785a5.4 5.4 0 0 0 1.872-4.2c.057-2.7-1.475-4.912-3.4-4.957a3.4 3.4 0 0 0-2.768 1.724c-.284.42-.544.579-.6-.125l-.272-1.747a7.044 7.044 0 0 0-8.987-5.669l-10.606 1.894c-5.855-1.681-5.719-4.528 1.654-6.105z"/><path class="p" d="M78.558 33.323c-1.441 2.654-3.9 4.639-8.871 4.98"/><path class="d" d="M79.998 10.806c-3.562 2.666-3.925-.261-6.681 0-5.865 1.055-7.668 3.857-14.588 5.456a5.218 5.218 0 0 1-6.228-5.955 4.072 4.072 0 0 1 5.842-3.074A13.317 13.317 0 0 1 67.52.211a18.252 18.252 0 0 1 17.015 6.636z"/></g><g transform="translate(0 56.955)"><path class="d" d="M362.287 63.728h28.154c-.17-1.134-1.906-2.4-7.94-2.53-5.672-.295-5.241-5.331-11.343-5.116-5.218-.011-8.429 5.582-8.871 7.646z"/><path class="l" d="M316.493 112.323l26.748 19.692 5.944-4.016-.885-15.677z"/><path class="l" d="M366.756 112.323h-27.6l-.42 21.382 31.58-1.69z"/><path class="d" d="M274.103 102.182v10.141h42.39l-8.825-10.141z"/><path class="d" d="M340.746 134.148l-48.028 3.97a17.185 17.185 0 0 1-18.592-17.129v-8.677h74.867z"/><path class="m" d="M279.559 122.476c-63.671-8.462-99.89 43.695-122 42.209-13.612-1.5-19.67-8.247-32.9-8.36-25.228 0-35.618 25.364-64.113 31.444-13.2 1.475-24.785-6.023-36.662-2.756-10.209 2.269-17.287 7.6-23.889 15.96h403.854c-52.157-17.912-57.931-66.915-124.29-78.497z"/><path class="q" d="M252.29 63.581c-9.744-4.923-5.876-22.562 9.665-25.182-1.384-8.757 4.14-13.419 14.429-15.246-.227-4.311 2.45-5.819 5.842-6.659l-.431 2.507 7.94-3.244 24.785-5.343c5.1 9.075 2.564 16.414-1.225 19.284 6.625 5.6 5.309 15.007-1.293 15.541 13.612 27.02 1.134 42.708-32.34 47.143a30.468 30.468 0 0 1-19.182-6.262c-3.9-3.187-5.74-7.43-6.16-12.977-4.095-.612-7.68-6.193-2.03-9.562z"/><ellipse class="q" cx="7.759" cy="8.099" rx="7.759" ry="8.099" transform="translate(265.334 78.69)"/><path class="q" d="M312.104 17.47c-6.08 4.639-13.612 3.312-22.914 2.473l-8.281-.579c-.6-14.361 8.417-21.11 20.827-18.978 11.593 2.473 19.091 14.746 9.982 27.576z"/><path class="r" d="M312.761 48.743c-3.516 1.4-5.127 6-4.708 9.9.942 8.7 6.9 27.122 10.311 37.2a5.944 5.944 0 0 0 8.678 3.188l5.978-3.573a15.553 15.553 0 0 1-1.588-4.084c-4.844-13.7-8.655-26.759-10.72-38.738-1.281-4.948-5.625-4.789-7.951-3.893z"/><path class="j" d="M363.047 74.663a4.537 4.537 0 0 1-1.77 5.865 5.036 5.036 0 0 0-3.4.635l-29.492 17.31c-5.672 3.165-8.44.976-9.823-1.656-1.134-2.416.363-6.046 5.207-8.224l34.575-15.314.987-.771c1.969-1.123 2.627.204 3.716 2.155z"/><path class="j" d="M357.114 76.603a8.734 8.734 0 0 1 7.634-3.743l7.112.227a1.2 1.2 0 0 1 .783 1.974l-3.675 4.413a3.743 3.743 0 0 1-3.153 1.373l-6.046-.488z"/><path class="s" d="M361.742 65.997h10.323v13.374a2.4 2.4 0 0 1-2.4 2.4h-5.5a2.4 2.4 0 0 1-2.4-2.4V65.997z"/><path class="j" d="M359.269 72.508l2.337-1.826a2.732 2.732 0 0 1 .669-.295l2.439-.681a.363.363 0 0 1 .408.147l.079.113a.692.692 0 0 1-.238.976l-1.611.885a1 1 0 0 0-.272.216l-1.554 2.269z"/><path class="t" d="M318.94 49.469c-3.2-2.938-29.867-15.041-47.563-2 0 14.678 2.745 39.611 2.87 54.914l33.418-.2c2.521-23.255 11.868-30.333 11.275-52.714z"/><path class="l" d="M274.114 106.765l34.96-2.961-1.41-1.625.42-3.4-33.974 1.509z"/><path class="j" d="M312.897 17.322c.465 6.386-1.134 14.225-4.934 19.67-1.826 2.575-5.127 1.94-5.853 1.792l2.427 7.419a2.03 2.03 0 0 1-1.134 1.883c-5.354 2.711-13.158 2.666-17.015-2.53a2.269 2.269 0 0 1-.613-1.611c.59-3.959 1.554-9.2 2.462-16.255a.5.5 0 0 0-.17-.544c-4.537-2.813-2.654-7.77 1.611-7.282a.59.59 0 0 0 .579-.318c2.349-4.595 12.34-.182 22.64-2.224z"/><path class="u" d="M288.305 27.429c4 6.239 7.407 9.415 13.8 11.343l2.427 7.419c-11.987-.386-12.722-9.755-16.227-18.762z"/><path class="p" d="M292.854 33.339a24.173 24.173 0 0 0 9.075 5.377"/><path class="l" d="M333.872 71.668h-25.319a1.656 1.656 0 0 1-1.622-2l3.766-17.787a1.373 1.373 0 0 1 1.418-1.134h25.908c1.94 0 2.008.7 1.758 1.985l-3.562 17.015a2.359 2.359 0 0 1-2.348 1.917z"/><path class="d" d="M335.278 71.668h-25.319a1.656 1.656 0 0 1-1.622-2l3.721-17.741a1.373 1.373 0 0 1 1.418-1.134h25.908c1.94 0 2.008.7 1.758 1.985l-3.561 17.018a2.359 2.359 0 0 1-2.303 1.872z"/><path class="o" d="M335.278 71.669h-25.319a1.656 1.656 0 0 1-1.622-2l2.847-13.612c10.129 2.476 19.851 6.616 24.094 15.612z"/><path class="v" d="M267.285 49.946c-3.789 3.256-3.4 7.94-2.11 12.308 4.242 13.873 19.375 39.974 26.43 42.436 2.03.715 5.468-3.153 6.738-4.934a6.137 6.137 0 0 0 .329-5.967c-8.587-14.746-15.881-28.88-20.838-42.2-1.543-3.687-4.39-5.524-6.466-4.345a27.1 27.1 0 0 0-4.083 2.702z"/><path class="j" d="M317.333 65.997l1.429-2.586a2.9 2.9 0 0 1 .51-.544l1.974-1.577a.374.374 0 0 1 .442 0l.113.079a.681.681 0 0 1 .159.987l-1.134 1.441a1.329 1.329 0 0 0-.17.306l-.556 2.688z"/><path class="j" d="M321.643 66.507a4.537 4.537 0 0 1 .658 6.091 5.059 5.059 0 0 0-2.87 1.906l-21.158 28.474a6.16 6.16 0 0 1-8.9 1.259c-2.019-1.781-2.427-5.127 0-7.94l27.36-29.164.6-1.134c1.429-1.828 2.552-.864 4.31.508z"/><path class="j" d="M316.936 70.614a8.734 8.734 0 0 1 5.581-6.42l6.636-2.575a1.191 1.191 0 0 1 1.486 1.509l-1.656 5.49a3.721 3.721 0 0 1-2.382 2.5l-5.694 1.917z"/><path class="d" d="M349.877 112.312H338.59l-17.4 88.354h12.308l22.573-80.221a6.409 6.409 0 0 0-6.194-8.133z"/><path class="w" d="M335.437 193.746h-12.954l-4.537 20.28a.817.817 0 0 0 .805 1.01h25.194a.749.749 0 0 0 .295-1.441l-12.932-5.445z"/><path class="l" d="M355.22 112.312h11.536a12.137 12.137 0 0 1 12.114 11.47l4.333 76.988-11.8 1.633z"/><path class="w" d="M382.853 194.835h-12.535l2.7 19.681a1.134 1.134 0 0 0 1.055.919h20.656a1.01 1.01 0 0 0 .42-1.917l-9.676-4.469a1.781 1.781 0 0 1-1.044-1.441z"/><path class="j" d="M133.739 200.655h54.449v14.781h-54.449z"/></g></svg>