<svg viewBox="0 0 385 401" xmlns="http://www.w3.org/2000/svg" xmlns:serif="http://www.serif.com/" fill-rule="evenodd" clip-rule="evenodd" stroke-linejoin="round" stroke-miterlimit="1.414"><g serif:id="Слой 1"><path d="M15.1 214.462C6.849 200.117-42.107 94.936 96.358 54.441c85.311-24.949 45.548 66.198 94.531 91.089 48.982 24.892 120.207 52.176 107.8 113.722-12.407 61.547-153.967 180.558-283.589-44.79" fill="#d9edf6" fill-rule="nonzero"/><path d="M151.338 39.386s13.045 5.019 16.279 30.829c3.234 25.809 2.721 46.6 24.552 61.656 21.83 15.056 79.64 27.1 97.832 59.792C308.193 224.356 256.804 31.5 151.338 39.386" fill="#d9edf6" fill-rule="nonzero"/><path d="M175.432 222.85s2.939 60.868 9.607 63.234c6.668 2.366 44.092-12.474 62.158-7.743 18.068 4.732-5.162 20.648-4.302 21.078.861.43-49.124 20.484-70.115 19.358-44.092-2.366-22.799-45.167-22.799-45.167l25.451-50.76z" fill="#4ccd9b" fill-rule="nonzero"/><path d="M170.772 221.345l-23.802 98.937 16.92-.143 10.61-97.217" fill="#239b6a" fill-rule="nonzero"/><path d="M367.134 278.507v-88.828a10.514 10.514 0 0 0-3.119-7.472l-24.413-24.413a9.031 9.031 0 0 1-2.692-6.432v-26.751a.726.726 0 1 0-1.453 0v26.753a10.478 10.478 0 0 0 3.119 7.459l24.413 24.412a9.08 9.08 0 0 1 2.693 6.447v88.825a.725.725 0 1 0 1.452 0M336.955 71.351V34.067a.726.726 0 0 0-1.453 0v37.284a.726.726 0 1 0 1.453 0" fill="#96b7e1" fill-rule="nonzero"/><path d="M313.417 106.943a24.524 24.524 0 0 0 5.352 8.009 24.568 24.568 0 0 0 8.01 5.353 24.581 24.581 0 0 0 9.45 1.88 24.57 24.57 0 0 0 9.447-1.88 24.534 24.534 0 0 0 8.012-5.353 24.608 24.608 0 0 0 5.352-8.009 24.806 24.806 0 0 0 0-18.898 24.642 24.642 0 0 0-5.352-8.012 24.57 24.57 0 0 0-8.012-5.351 24.57 24.57 0 0 0-9.447-1.88c-3.258 0-6.439.633-9.45 1.88a24.578 24.578 0 0 0-8.01 5.351 24.547 24.547 0 0 0-5.352 8.012 24.547 24.547 0 0 0-1.88 9.449c0 3.261.633 6.439 1.88 9.449m48.307 1.112a27.476 27.476 0 0 1-5.983 8.951 27.432 27.432 0 0 1-8.953 5.983 27.457 27.457 0 0 1-10.559 2.1c-3.643 0-7.196-.706-10.562-2.1a27.433 27.433 0 0 1-8.952-5.983 27.447 27.447 0 0 1-5.982-8.951 27.718 27.718 0 0 1 0-21.123 27.44 27.44 0 0 1 5.982-8.952 27.451 27.451 0 0 1 8.952-5.982 27.464 27.464 0 0 1 10.562-2.1c3.64 0 7.194.706 10.559 2.1a27.434 27.434 0 0 1 8.953 5.982 27.512 27.512 0 0 1 5.983 8.952 27.464 27.464 0 0 1 2.1 10.562c0 3.64-.706 7.194-2.1 10.561" fill="#96b7e1" fill-rule="nonzero"/><path d="M324.93 108.792c3.105 3.104 6.906 4.679 11.298 4.679 4.39 0 8.191-1.575 11.297-4.679 3.105-3.106 4.679-6.908 4.679-11.297 0-4.392-1.574-8.193-4.679-11.298-3.106-3.105-6.907-4.679-11.297-4.679-4.392 0-8.193 1.574-11.298 4.679-3.104 3.103-4.679 6.905-4.679 11.298 0 4.391 1.575 8.192 4.679 11.297m23.622 1.027c-3.389 3.387-7.536 5.104-12.324 5.104-4.791 0-8.938-1.717-12.324-5.104-3.388-3.387-5.105-7.533-5.105-12.324 0-4.793 1.717-8.939 5.105-12.325 3.386-3.387 7.533-5.105 12.324-5.105 4.788 0 8.935 1.718 12.324 5.105 3.387 3.387 5.105 7.533 5.105 12.325 0 4.788-1.718 8.935-5.105 12.324M336.227 37.277c3.39 0 5.084-1.695 5.084-5.083 0-3.39-1.694-5.084-5.084-5.084-3.389 0-5.083 1.694-5.083 5.084 0 3.388 1.694 5.083 5.083 5.083M359.205 211.872v-18.577a13.592 13.592 0 0 0-3.96-9.547l-22.746-22.745a11.98 11.98 0 0 1-3.532-8.522v-18.677a.726.726 0 0 0-1.453 0v18.677a13.418 13.418 0 0 0 3.959 9.549l22.745 22.745a12.127 12.127 0 0 1 3.534 8.52v18.577a.727.727 0 1 0 1.453 0M338.684 291.81V180.761a10.23 10.23 0 0 0-3-7.267l-6.754-6.754a.725.725 0 1 0-1.027 1.027l6.753 6.753a8.786 8.786 0 0 1 2.576 6.241V291.81a.726.726 0 1 0 1.452 0M346.659 297.562v-99.431a.726.726 0 0 0-1.453 0v99.431a.727.727 0 1 0 1.453 0M308.775 301.562V133.256a.726.726 0 1 1 1.452 0v168.306a.726.726 0 1 1-1.452 0" fill="#96b7e1" fill-rule="nonzero"/><path d="M309.502 135.202c-3.389 0-5.083-1.694-5.083-5.083 0-3.389 1.694-5.084 5.083-5.084 3.39 0 5.084 1.695 5.084 5.084 0 3.389-1.694 5.083-5.084 5.083M320.192 243.567v-48.293a.726.726 0 1 1 1.452 0v48.293a.726.726 0 1 1-1.452 0M281.964 150.249a.726.726 0 0 1 1.452 0v40.754a5.47 5.47 0 0 0 1.619 3.844l12.795 12.797a4.63 4.63 0 0 1 1.361 3.291v76.307a.726.726 0 0 1-1.454 0v-76.305a3.19 3.19 0 0 0-.935-2.268l-12.794-12.795a6.918 6.918 0 0 1-2.044-4.865v-40.76z" fill="#96b7e1" fill-rule="nonzero"/><path d="M273.351 150.249a.726.726 0 0 1 1.452 0v42.121a5.479 5.479 0 0 0 1.617 3.843l22.558 22.703a.724.724 0 0 1-.003 1.026.722.722 0 0 1-1.026-.003l-22.557-22.7a6.919 6.919 0 0 1-2.041-4.864v-42.126zM282.763 153.343c-1.937 0-2.905-.968-2.905-2.905 0-1.936.968-2.905 2.905-2.905 1.937 0 2.904.969 2.904 2.905 0 1.937-.967 2.905-2.904 2.905" fill="#96b7e1" fill-rule="nonzero"/><path d="M274.078 151.527c-1.937 0-2.905-.969-2.905-2.905 0-1.937.968-2.905 2.905-2.905 1.937 0 2.904.968 2.904 2.905 0 1.936-.967 2.905-2.904 2.905M221.152 126.31v-23.966a.726.726 0 1 0-1.453 0v23.965a1.932 1.932 0 0 1-.571 1.373l-5.331 5.316a.728.728 0 0 0 1.028 1.03l5.33-5.317a3.383 3.383 0 0 0 .997-2.401" fill="#96b7e1" fill-rule="nonzero"/><path d="M214.819 133.57V87.921a3.996 3.996 0 0 0 0-7.8h-1.612a3.994 3.994 0 0 0 0 7.8v64.647l-12.651 22.207h26.9l-12.637-22.193v-16.703m6.405-30.98a2.614 2.614 0 1 0-1.612 0m-16.252 68.192l10.646-18.621 10.661 18.693-21.307-.072zM256.359 124.47V50.564a.726.726 0 1 0-1.453 0v73.87c.042.968-.389 1.947-1.089 2.633l-8.937 8.939a5.218 5.218 0 0 0-1.521 3.669v70.452a.726.726 0 1 0 1.453 0V139.677c0-.986.399-1.95 1.095-2.644l8.931-8.934a5.106 5.106 0 0 0 1.521-3.629M268.283 128.063V72.874a.726.726 0 1 0-1.452 0v55.182c0 .976-.396 1.919-1.09 2.598l-9.024 9.025a5.212 5.212 0 0 0-1.52 3.663v68.687a.726.726 0 1 0 1.452 0v-68.685a3.763 3.763 0 0 1 1.097-2.64l9.016-9.017a5.102 5.102 0 0 0 1.521-3.624" fill="#96b7e1" fill-rule="nonzero"/><path d="M255.632 53.092c3.389 0 5.083-1.695 5.083-5.083 0-3.39-1.694-5.084-5.083-5.084-3.389 0-5.084 1.694-5.084 5.084 0 3.388 1.695 5.083 5.084 5.083M30.175 80.36a66.93 66.93 0 0 0 3.024 19.852c.12.387.532.604.919.483a.726.726 0 0 0 .484-.919c-9.938-32.034 5.859-66.058 36.733-79.147a.735.735 0 0 0-.574-1.352C45.552 29.967 30.175 54.31 30.175 80.36M133.843 45.851a.734.734 0 0 0 1.254.519l33.843-33.843a.735.735 0 0 0-1.038-1.039l-33.844 33.843a.736.736 0 0 0-.215.52M34.767 143.283v72.04a.734.734 0 1 0 1.469 0v-72.04a11.659 11.659 0 0 1 3.442-8.294l19.463-19.435a.733.733 0 1 0-1.039-1.038L38.64 133.95a13.108 13.108 0 0 0-3.873 9.333" fill="#96b7e1" fill-rule="nonzero"/><path d="M26.423 146.751v72.712a.734.734 0 0 0 1.469 0v-72.712a11.05 11.05 0 0 1 3.266-7.868l22.738-22.737a.735.735 0 0 0-1.038-1.039L30.12 137.844a12.502 12.502 0 0 0-3.697 8.907M133.843 115.035v108.316a.735.735 0 1 0 1.469 0V115.035a.733.733 0 1 0-1.469 0M33.9 97.012c-1.958 0-2.938.979-2.938 2.938 0 1.958.98 2.937 2.938 2.937 1.958 0 2.938-.979 2.938-2.937 0-1.959-.98-2.938-2.938-2.938M71.048 17.016c-1.958 0-2.938.979-2.938 2.938 0 1.958.98 2.937 2.938 2.937 1.958 0 2.938-.979 2.938-2.937 0-1.959-.98-2.938-2.938-2.938M168.421 6.866c-3.427 0-5.141 1.714-5.141 5.141 0 3.428 1.714 5.141 5.141 5.141 3.428 0 5.141-1.713 5.141-5.141 0-3.427-1.713-5.141-5.141-5.141" fill="#96b7e1" fill-rule="nonzero"/><path fill="#96b7e1" d="M272.864 256.044h109.953v82.002H272.864z"/><path d="M383.169 298.955h-73.303a.86.86 0 0 1 0-1.721h73.303a.86.86 0 0 1 0 1.721M382.817 306.817h-41.218a.86.86 0 1 1 0-1.721h41.218a.86.86 0 1 1 0 1.721M374.035 322.67h-65.223a.86.86 0 0 1 0-1.72h65.223a.86.86 0 1 1 0 1.72M338.204 266.675h-65.223a.86.86 0 1 1 0-1.721h65.223a.86.86 0 0 1 0 1.721" fill="#fff" fill-rule="nonzero"/><path d="M81.011 221.345l-41.184 82.167c-8.084 16.129 3.642 35.123 21.684 35.123H166.47l5.967-20.756a2.255 2.255 0 0 0-1.573-2.805c-9.292-2.52-46.037-11.582-72.646-5.116-30.686 7.456-17.207-88.613-17.207-88.613" fill="#4ccd9b" fill-rule="nonzero"/><path d="M237.686 300.981c4.34.917 10.783-3.893 14.519-7.114a10.915 10.915 0 0 1 6.958-2.752c1.835 0 4.921-.269 7.382-.492a7.988 7.988 0 0 0 5.929-3.781l1.253-1.968a2.237 2.237 0 0 0-1.275-3.423l-23.066-3.535a21.995 21.995 0 0 0-13.423 3.557c-.672.447-1.342.895-1.991 1.364a10.178 10.178 0 0 0 3.356 18.077l.358.067z" fill="#fff" fill-rule="nonzero"/><path d="M155.879 201.357l-38.524-.157c-19.002-.062-35.687 12.617-40.717 30.941L57.712 338.134l87.787-1.203 29.374-110.875a19.667 19.667 0 0 0-18.994-24.699" fill="#4ccd9b" fill-rule="nonzero"/><path d="M159.224 336.483c3.96 1.991 11.432-.984 15.862-3.132a10.848 10.848 0 0 1 7.45-.85c1.79.447 4.832.984 7.248 1.41a7.969 7.969 0 0 0 6.712-2.104l1.723-1.566a2.235 2.235 0 0 0-.359-3.669l-21.275-9.329a22.056 22.056 0 0 0-13.804 0l-2.237.783a10.202 10.202 0 0 0-1.432 18.346l.112.111z" fill="#fff" fill-rule="nonzero"/><path d="M154.705 337.759h54.767v-9.934h-64.879c.049 5.537 4.577 9.984 10.112 9.934" fill="#1f46e7" fill-rule="nonzero"/><path d="M282.65 337.691h-90.382l13.647-65.146a4.474 4.474 0 0 1 4.698-3.603h85.461c6.421 0 6.711 2.237 5.794 6.555l-11.745 56.042a7.741 7.741 0 0 1-7.473 6.152" fill="#4263eb" fill-rule="nonzero"/><path d="M282.65 337.691a7.74 7.74 0 0 0 7.584-6.152l9.396-44.878c-30.135 36.108-86.11 8.523-103.112 51.03h86.132z" fill="#3054e9" fill-rule="nonzero"/><path fill="#d9edf6" d="M2.099 338.031h360.812v13.766H2.099zM133.567 362.25h228.82v13.766h-228.82zM133.778 386.468h249.391v13.766H133.778z"/><path d="M177.479 155.005c.154 17.175-1.7 28.438-7.902 40.223a9.255 9.255 0 0 1-8.964 4.869h-.097a5.234 5.234 0 0 0-4.907 2.453l-2.864 8.3c-.051.754 1.18 4.156.836 4.829-7.631 14.78-26.99 3.409-31.337-8.492a7.944 7.944 0 0 1 .097-5.506l9.35-15.456 11.843-41.44 33.945 10.22z" fill="#fff" fill-rule="nonzero"/><path d="M138.026 164.248c-1.664.035-3.067.875-4.21 2.522-1.143 1.646-1.69 3.616-1.643 5.91.049 2.294.678 4.239 1.889 5.836 1.211 1.597 2.648 2.378 4.312 2.343 1.664-.035 3.068-.875 4.21-2.522 1.143-1.646 1.691-3.616 1.642-5.909-.048-2.294-.677-4.24-1.888-5.837-1.21-1.596-2.648-2.378-4.312-2.343" fill="#fff" fill-rule="nonzero"/><path d="M174.657 147.181l-22.662-10.78c-11.959-2.686-21.483 4.424-24.014 16.344a78.074 78.074 0 0 0 .696 36.089 1.816 1.816 0 0 0 2.994.869l3.632-9.853a9.196 9.196 0 0 1-3.188-7.148c-.096-4.598 2.512-8.365 5.796-8.442a5.793 5.793 0 0 1 4.714 2.936c.483.715.928.985 1.024-.212l.464-2.975a11.997 11.997 0 0 1 15.301-9.661l18.064 3.227c9.969-2.859 9.737-7.708-2.821-10.394" fill="#4263eb" fill-rule="nonzero"/><path d="M141.603 153.305c6.066 4.54 6.684-.444 11.379 0 9.988 1.796 13.06 6.568 24.845 9.292a8.886 8.886 0 0 0 10.606-10.142 6.934 6.934 0 0 0-9.949-5.236 22.68 22.68 0 0 0-15.63-11.958 31.085 31.085 0 0 0-28.979 11.301l7.728 6.743z" fill="#4263eb" fill-rule="nonzero"/><path d="M160.011 200.166s-8.448 1.803-19.086-11.03c0 0 5.287 38.433 11.959 27.798 3.204-5.108 1.049-7.432 3.606-15.302.294-.907 3.521-1.466 3.521-1.466" fill="#eaeacd" fill-rule="nonzero"/><path d="M99.651 263.5l-17.636 36.707s34.412 1.577 70.331 10.611c0 0-34.628-13.12-48.823-17.422-7.002-2.122-3.872-29.896-3.872-29.896" fill="#239b6a" fill-rule="nonzero"/><path d="M257.051 306.335a5.698 5.698 0 0 1-4.787-6.485 5.664 5.664 0 0 1 1.209-2.733c-.135-.028-.267-.061-.404-.082a8.013 8.013 0 1 0 6.728 9.115c.004-.026.004-.053.008-.08a5.668 5.668 0 0 1-2.754.265" fill="#fff" fill-rule="nonzero"/><path d="M26.964 239.297a634.672 634.672 0 0 0 1.012 1.564c.127.196.081.556-.094.715l-1.626 1.484c-.169.153-.542.166-.722.026l-1.464-1.15c-1.119-.88-2.414-1.083-3.467-.56-.865.43-1.475 1.295-1.72 2.436l-.389 1.818c-.05.23-.338.453-.572.441l-2.2-.1c-.219-.008-.503-.27-.53-.49l-.223-1.847c-.152-1.283-.795-2.278-1.764-2.733-.969-.454-2.145-.312-3.227.389l-1.563 1.012c-.186.121-.567.07-.716-.094l-1.485-1.628c-.158-.172-.171-.536-.026-.721l1.151-1.462c.721-.917.996-1.942.772-2.881-.272-1.145-1.251-2.01-2.647-2.311l-1.821-.387c-.219-.047-.451-.343-.44-.571l.103-2.2c.01-.234.259-.502.491-.529l1.848-.221c1.281-.154 2.276-.798 2.731-1.767.454-.969.313-2.145-.388-3.23l-1.013-1.56c-.127-.195-.08-.557.093-.715l1.627-1.486c.168-.153.539-.169.722-.025l1.464 1.15c1.12.88 2.414 1.081 3.467.559.866-.431 1.476-1.295 1.72-2.435l.391-1.82c.049-.23.337-.451.571-.442l2.2.101c.22.011.502.272.529.491l.222 1.85c.153 1.28.797 2.274 1.765 2.728.968.455 2.144.314 3.227-.386 1.48-.957 1.564-1.012 1.564-1.013.186-.12.566-.069.716.093l1.484 1.628c.158.172.171.537.026.72l-1.15 1.464c-.721.916-.996 1.939-.773 2.879.271 1.145 1.254 2.011 2.647 2.31l1.821.39c.22.048.45.344.44.572l-.101 2.2c-.012.233-.259.501-.491.528l-1.848.22c-1.28.155-2.275.799-2.729 1.767-.456.968-.315 2.145.385 3.229m2.621-2.666l1.847-.22c1.372-.162 2.495-1.371 2.56-2.75l.101-2.201c.053-1.139-.648-2.28-1.703-2.775a2.82 2.82 0 0 0-.591-.2l-1.82-.389a1.981 1.981 0 0 1-.431-.142c-.167-.078-.376-.214-.424-.414-.053-.223.071-.554.333-.887l1.151-1.464c.853-1.085.793-2.734-.138-3.754l-1.485-1.627a2.795 2.795 0 0 0-.88-.646c-.928-.434-2.018-.372-2.847.165l-1.562 1.01c-.382.248-.74.335-.956.233-.215-.101-.377-.431-.431-.882l-.222-1.849c-.117-.979-.766-1.858-1.693-2.293a2.793 2.793 0 0 0-1.058-.265l-2.201-.1c-1.379-.064-2.685.944-2.974 2.294l-.391 1.82c-.089.415-.264.723-.469.824-.185.092-.422.017-.589-.06a2.066 2.066 0 0 1-.383-.242l-1.463-1.151a2.799 2.799 0 0 0-.53-.325c-1.056-.495-2.382-.305-3.225.464l-1.626 1.485c-1.02.93-1.231 2.566-.482 3.723l1.013 1.563c.248.382.334.741.233.957-.102.217-.432.378-.884.433l-1.848.221c-1.37.163-2.494 1.372-2.558 2.752l-.101 2.2c-.053 1.137.648 2.279 1.704 2.774.19.089.389.155.583.197 0 0 .023.006 1.827.391a2 2 0 0 1 .431.141c.167.078.376.214.424.415.053.222-.072.554-.333.886l-1.149 1.463c-.854 1.086-.794 2.736.138 3.755l1.484 1.628c.245.269.541.486.881.645.928.435 2.016.374 2.843-.16l1.564-1.014c.382-.248.739-.335.954-.234.216.101.377.432.43.886l.223 1.849c.118.978.767 1.855 1.694 2.29.34.159.696.25 1.059.265l2.201.1c1.377.064 2.684-.943 2.974-2.292l.391-1.822c.088-.413.263-.722.468-.823.185-.093.422-.019.589.059.124.059.253.141.383.242l1.462 1.151c.163.128.342.239.531.328 1.056.495 2.382.304 3.223-.465l1.627-1.484c1.021-.932 1.231-2.567.479-3.727l-1.009-1.56c-.248-.384-.335-.743-.234-.958.103-.218.434-.379.885-.434" fill="#96b7e1" fill-rule="nonzero"/><path d="M15.668 235.649a4.257 4.257 0 0 1 .361-7.854 4.232 4.232 0 0 1 3.253.152 4.224 4.224 0 0 1 2.196 2.405 4.23 4.23 0 0 1-.149 3.253 4.262 4.262 0 0 1-5.661 2.044m4.61-9.828a6.56 6.56 0 0 0-5.048-.232 6.557 6.557 0 0 0-3.732 3.406 6.609 6.609 0 0 0 3.173 8.78c3.295 1.546 7.235.121 8.783-3.173a6.551 6.551 0 0 0 .23-5.046 6.556 6.556 0 0 0-3.406-3.735M49.004 248c-.873-.244-1.701-.085-2.27.435-.57.522-.804 1.332-.638 2.223.165.899.2 1.086.213 1.112l-1.262.469-.562-1.001c-.286-.509-.679-.891-1.136-1.106-.991-.465-2.09-.102-2.8.925l-.629.942-1.226-.575.307-1.094c.338-1.199-.086-2.277-1.079-2.743-.457-.215-1.002-.271-1.573-.166-.911.167-1.092.2-1.115.213l-.471-1.261 1-.561c.79-.444 1.264-1.14 1.301-1.914.036-.769-.371-1.507-1.118-2.024l-.942-.627.563-1.232 1.106.311c.872.246 1.7.087 2.27-.434.572-.522.804-1.331.638-2.22l-.217-1.112 1.267-.475.562 1.002c.285.511.679.892 1.136 1.105.993.466 2.09.104 2.798-.922l.631-.942 1.23.561-.312 1.107c-.335 1.201.09 2.277 1.083 2.743.457.215 1.002.271 1.572.165l1.112-.218.473 1.269-.998.561c-.79.441-1.265 1.137-1.302 1.91-.037.772.371 1.51 1.119 2.027l.941.628-.561 1.231-1.111-.312zm2.874-2.637l-.947-.651c-.137-.095-.186-.168-.203-.176a.628.628 0 0 1 .221-.177l1.001-.563c.868-.488 1.282-1.604.944-2.539l-.466-1.29c-.329-.911-1.402-1.522-2.347-1.347l-1.134.207c-.167.031-.265.012-.263.033.001-.001-.032-.087.026-.294l.31-1.105c.269-.958-.225-2.042-1.126-2.464l-1.24-.582c-.902-.423-2.051-.111-2.613.705l-.655.95c-.094.138-.168.186-.174.202a.641.641 0 0 1-.177-.219l-.563-1.004c-.473-.846-1.628-1.272-2.539-.944l-1.288.466c-.937.338-1.529 1.37-1.352 2.341l.208 1.143c.031.165.013.251.02.266a.595.595 0 0 1-.28-.029l-1.107-.312c-.958-.267-2.04.228-2.463 1.127l-.582 1.242c-.425.902-.113 2.051.701 2.609l.952.657c.137.094.187.166.204.175h.001a.626.626 0 0 1-.222.181l-1 .562c-.867.488-1.283 1.603-.945 2.537l.468 1.29c.328.911 1.4 1.523 2.35 1.345l1.129-.206c.167-.03.267-.013.263-.033.001 0 .033.085-.026.291l-.311 1.109c-.27.958.225 2.04 1.126 2.463l1.242.582c.901.422 2.049.11 2.616-.712l.649-.943c.096-.139.169-.187.176-.203.035.022.105.09.179.22l.562 1.001c.475.847 1.629 1.275 2.54.946l1.288-.466c.937-.338 1.53-1.371 1.348-2.353l-.208-1.125c-.031-.167-.013-.254-.021-.27a.624.624 0 0 1 .28.029l1.108.311c.96.269 2.044-.226 2.466-1.127l.582-1.24c.423-.902.111-2.05-.708-2.616" fill="#96b7e1" fill-rule="nonzero"/><path d="M43.53 246.076c-1.023.368-2.237-.201-2.605-1.221a2.015 2.015 0 0 1 .073-1.554c.23-.492.639-.866 1.15-1.05a2.013 2.013 0 0 1 1.553.072c.492.231.864.639 1.049 1.149a2.017 2.017 0 0 1-.071 1.553c-.231.493-.64.866-1.149 1.051m1.069-5.666a4.112 4.112 0 0 0-3.169-.146 4.114 4.114 0 0 0-2.346 2.137 4.121 4.121 0 0 0-.145 3.173 4.12 4.12 0 0 0 2.138 2.343 4.124 4.124 0 0 0 3.171.146 4.125 4.125 0 0 0 2.344-2.14 4.114 4.114 0 0 0 .145-3.17 4.117 4.117 0 0 0-2.138-2.343M38.981 224.461l-1.679.308c-.034.004-.219-.089-.235-.134l-.711-1.966c-.024-.068.034-.222.097-.257l1.486-.837c1.02-.574 1.63-1.468 1.673-2.448.043-.979-.485-1.921-1.447-2.58l-1.4-.967c-.06-.043-.103-.203-.073-.268l.889-1.894c.03-.065.179-.133.248-.114l1.641.461c1.125.316 2.187.119 2.911-.54.725-.66 1.02-1.699.811-2.855-.282-1.512-.308-1.663-.31-1.668-.013-.073.069-.219.139-.243l1.966-.711a.261.261 0 0 1 .167.026c.056.027.084.057.091.071l.834 1.484c.373.663.878 1.157 1.465 1.433 1.257.59 2.657.116 3.562-1.201l.97-1.403c.042-.058.2-.1.264-.07l1.893.887c.065.03.132.179.115.248l-.458 1.638c-.436 1.544.095 2.924 1.353 3.514.584.274 1.289.347 2.04.211l1.673-.312c.033-.004.222.091.238.139l.71 1.965c.025.068-.033.222-.097.257l-1.486.835c-1.021.574-1.632 1.466-1.676 2.446-.044.981.484 1.923 1.448 2.586l1.404.969c.058.04.101.196.07.261l-.889 1.895c-.03.065-.18.134-.251.114l-1.638-.46c-1.124-.317-2.187-.121-2.912.538-.726.661-1.022 1.7-.812 2.856l.309 1.675c.013.07-.069.213-.137.238l-1.965.711c-.046.016-.239-.066-.256-.095l-.834-1.488c-.373-.661-.879-1.156-1.464-1.431-1.258-.59-2.659-.119-3.565 1.198l-.972 1.407c-.041.058-.197.101-.261.071l-1.893-.889c-.065-.03-.134-.178-.115-.248l.46-1.64c.432-1.543-.099-2.921-1.355-3.51-.584-.275-1.287-.348-2.036-.213m1.132 3.09l-.459 1.639c-.33 1.171.276 2.492 1.377 3.008l1.893.889c1.102.517 2.504.136 3.192-.866l.969-1.405c.087-.124.387-.523.637-.406.064.03.233.136.413.457l.834 1.487c.579 1.031 1.993 1.553 3.102 1.154l1.965-.711c1.144-.413 1.867-1.675 1.649-2.867l-.31-1.677c-.067-.369-.007-.614.082-.695.082-.076.313-.124.697-.016l1.64.46c1.171.329 2.491-.276 3.008-1.377l.89-1.893c.518-1.102.138-2.505-.864-3.194l-1.404-.968c-.327-.226-.439-.437-.433-.547.006-.12.157-.323.481-.506l1.487-.835c1.06-.595 1.567-1.958 1.154-3.102l-.71-1.965c-.402-1.108-1.712-1.861-2.865-1.65l-1.681.312c-.364.067-.553.003-.617-.027-.248-.116-.133-.602-.091-.753l.458-1.641c.327-1.171-.279-2.491-1.379-3.007l-1.894-.888c-1.101-.515-2.503-.136-3.192.866l-.97 1.401c-.086.126-.385.524-.633.408-.064-.029-.234-.135-.414-.458l-.835-1.484c-.579-1.032-1.993-1.554-3.101-1.153l-1.967.711c-1.142.413-1.866 1.672-1.651 2.866l.311 1.677c.067.367.007.614-.081.694-.083.076-.314.123-.696.018l-1.641-.461c-1.17-.329-2.492.275-3.008 1.376l-.888 1.893c-.515 1.099-.138 2.501.863 3.196l1.404.97c.327.224.437.432.431.543-.005.111-.134.31-.479.506l-1.486.835c-1.059.596-1.566 1.959-1.153 3.103l.71 1.966c.401 1.109 1.706 1.86 2.874 1.643.011-.002.173-.033 1.669-.305.365-.067.554-.003.618.027.25.117.135.605.094.752" fill="#96b7e1" fill-rule="nonzero"/><path d="M47.033 216.488a3.206 3.206 0 0 1 2.469.113 3.23 3.23 0 0 1 1.55 4.29 3.232 3.232 0 0 1-4.292 1.553 3.202 3.202 0 0 1-1.664-1.825 3.208 3.208 0 0 1 .114-2.468 3.204 3.204 0 0 1 1.823-1.663m-1.271 8.083a5.583 5.583 0 0 0 7.415-2.681 5.582 5.582 0 0 0-2.681-7.415 5.53 5.53 0 0 0-4.26-.194 5.543 5.543 0 0 0-3.15 2.875 5.533 5.533 0 0 0-.197 4.261 5.524 5.524 0 0 0 2.873 3.154" fill="#96b7e1" fill-rule="nonzero"/><path d="M13.459 359.427a3.388 3.388 0 0 0-3.388 3.387v21.827l-7.654 7.334c-.759.726-.244 2.008.806 2.008h16.885l-.024-.036h34.67a3.387 3.387 0 0 0 3.388-3.387v-27.746a3.388 3.388 0 0 0-3.388-3.387H13.459z" fill="url(#_Linear1)" fill-rule="nonzero"/><path d="M71.072 359.771h-.01a2.864 2.864 0 0 0-2.863 2.865v28.468a2.873 2.873 0 0 0 2.873 2.873h37.175l5.928 5.92a1.032 1.032 0 0 0 1.72-.732v-36.529a2.864 2.864 0 0 0-2.838-2.865H71.072z" fill="url(#_Linear2)" fill-rule="nonzero"/><path d="M109.734 369.208h-2.779a.387.387 0 0 1 0-.774h2.779a.388.388 0 1 1 0 .774M102.973 369.208H75.322a.388.388 0 0 1 0-.774h27.651a.387.387 0 1 1 0 .774M109.735 373.261h-7.184a.387.387 0 0 1 0-.774h7.184a.386.386 0 1 1 0 .774M99.049 373.261H75.321a.387.387 0 0 1 0-.774h23.728a.386.386 0 1 1 0 .774M109.734 377.305H89.457a.388.388 0 0 1 0-.775h20.277a.388.388 0 1 1 0 .775M79.004 377.305h-3.682a.388.388 0 0 1 0-.775h3.682a.388.388 0 1 1 0 .775M109.734 381.356h-5.506a.388.388 0 0 1 0-.774h5.506a.387.387 0 1 1 0 .774M99.609 381.356H75.322a.387.387 0 0 1 0-.774h24.287a.386.386 0 1 1 0 .774M105.011 385.408H75.322a.388.388 0 0 1 0-.774h29.689a.387.387 0 1 1 0 .774M51.292 367.65h-3.828a.387.387 0 0 1 0-.774h3.828a.388.388 0 1 1 0 .774M45.528 367.65h-3.519a.388.388 0 0 1 0-.774h3.519a.387.387 0 1 1 0 .774M40.039 367.65h-23.16a.387.387 0 0 1 0-.774h23.16a.387.387 0 1 1 0 .774M51.292 372.039H16.879a.387.387 0 0 1 0-.774h34.413a.387.387 0 1 1 0 .774M44.109 376.427H16.88a.388.388 0 0 1 0-.775h27.229a.387.387 0 1 1 0 .775M51.292 380.814h-7.528a.387.387 0 0 1 0-.774h7.528a.387.387 0 1 1 0 .774M40.857 380.814H28.684a.387.387 0 0 1 0-.774h12.173a.386.386 0 1 1 0 .774M23.34 380.814h-6.461a.388.388 0 0 1 0-.774h6.461a.387.387 0 0 1 0 .774M51.292 385.193H44.53a.388.388 0 0 1 0-.774h6.762a.387.387 0 1 1 0 .774M42.009 385.193H30.498a.388.388 0 0 1 0-.774h11.511a.386.386 0 1 1 0 .774M26.326 385.193H16.88a.388.388 0 0 1 0-.774h9.446a.386.386 0 1 1 0 .774" fill="#fff" fill-rule="nonzero"/><path d="M217.264 207.396a2.685 2.685 0 0 0-2.684 2.685v26.681a2.684 2.684 0 0 0 2.684 2.684h34.839l5.546 5.546a.97.97 0 0 0 1.02.172.97.97 0 0 0 .592-.85v-34.233a2.685 2.685 0 0 0-2.684-2.685h-39.313z" fill="url(#_Linear3)" fill-rule="nonzero"/><path d="M253.497 216.264h-2.612a.388.388 0 0 1 0-.775h2.612a.387.387 0 1 1 0 .775M247.153 216.264h-25.899a.388.388 0 0 1 0-.775h25.899a.388.388 0 1 1 0 .775M253.497 220.06h-6.739a.387.387 0 0 1 0-.774h6.739a.387.387 0 1 1 0 .774M243.477 220.06h-22.224a.387.387 0 0 1 0-.774h22.224a.388.388 0 1 1 0 .774M253.497 223.856h-19a.388.388 0 0 1 0-.774h19a.387.387 0 1 1 0 .774M224.695 223.856h-3.441a.387.387 0 0 1 0-.774h3.441a.388.388 0 1 1 0 .774M253.497 227.645h-5.167a.388.388 0 0 1 0-.774h5.167a.387.387 0 1 1 0 .774M244.009 227.645h-22.756a.387.387 0 0 1 0-.774h22.756a.387.387 0 1 1 0 .774M249.071 231.441h-27.817a.387.387 0 0 1 0-.774h27.817a.388.388 0 1 1 0 .774" fill="#fff" fill-rule="nonzero"/><path d="M194.36 180.913a.967.967 0 0 0-.601.889v34.234a2.693 2.693 0 0 0 2.709 2.645h39.344a2.685 2.685 0 0 0 2.685-2.685v-26.641a2.685 2.685 0 0 0-2.685-2.684h-34.855l-5.546-5.546a.97.97 0 0 0-1.051-.212z" fill="url(#_Linear4)" fill-rule="nonzero"/><path d="M232.168 195.411h-32.242a.388.388 0 0 1 0-.775h32.242a.388.388 0 0 1 0 .775M232.168 199.513h-2.942a.388.388 0 0 1 0-.775h2.942a.387.387 0 0 1 0 .775M226.421 199.513h-26.495a.388.388 0 0 1 0-.775h26.495a.388.388 0 0 1 0 .775M230 203.616h-18.04a.388.388 0 0 1 0-.774H230a.387.387 0 1 1 0 .774M205.535 203.616h-5.609a.388.388 0 0 1 0-.774h5.609a.388.388 0 1 1 0 .774M232.168 207.711h-6.73a.387.387 0 0 1 0-.775h6.73a.388.388 0 0 1 0 .775M222.39 207.711h-22.465a.388.388 0 0 1 0-.775h22.465a.388.388 0 0 1 0 .775M225.833 211.814h-25.907a.388.388 0 0 1 0-.774h25.907a.387.387 0 0 1 0 .774" fill="#fff" fill-rule="nonzero"/><path fill="#96b7e1" d="M2.148 266.619h106.107v71.407H2.148z"/><path d="M58.478 326.269H2.882a.86.86 0 1 1 0-1.721h55.596a.86.86 0 0 1 0 1.721M108.029 285.762H68.253a.86.86 0 1 1 0-1.721h39.776a.86.86 0 0 1 0 1.721M99.554 303.542H36.613a.86.86 0 1 1 0-1.721h62.941a.86.86 0 0 1 0 1.721" fill="#fff" fill-rule="nonzero"/><path d="M108.255 266.565H2.184v71.407" fill="#d9edf6" fill-rule="nonzero" opacity=".33"/><path d="M76.628 174.994H24.217a3.666 3.666 0 0 1-3.666-3.667v-33.138a3.666 3.666 0 0 1 3.666-3.667h52.411a3.667 3.667 0 0 1 3.667 3.667v33.138a3.667 3.667 0 0 1-3.667 3.667" fill="#4263eb" fill-rule="nonzero"/><path d="M60.765 132.337h14.647a2.827 2.827 0 0 1 2.827 2.827v34.819a2.827 2.827 0 0 1-2.827 2.826H21.321a2.827 2.827 0 0 1-2.827-2.826v-34.819a2.827 2.827 0 0 1 2.827-2.827" fill="#fff" fill-rule="nonzero"/><path d="M18.495 153.357a.43.43 0 0 1-.43-.43v-17.634a3.26 3.26 0 0 1 3.257-3.257h32.506a.43.43 0 1 1 0 .86H21.322a2.4 2.4 0 0 0-2.397 2.397v17.634a.43.43 0 0 1-.43.43M18.495 162.223a.43.43 0 0 1-.43-.43v-3.469a.43.43 0 1 1 .86 0v3.469a.43.43 0 0 1-.43.43M75.412 173.368H21.321a3.26 3.26 0 0 1-3.257-3.256.431.431 0 0 1 .861 0 2.398 2.398 0 0 0 2.396 2.396h54.091a2.399 2.399 0 0 0 2.396-2.396v-34.819a2.4 2.4 0 0 0-2.396-2.397H61.038a.43.43 0 1 1 0-.861h14.374a3.26 3.26 0 0 1 3.257 3.258v34.819a3.26 3.26 0 0 1-3.257 3.256" fill="#4263eb" fill-rule="nonzero"/><path d="M48.302 153.582a.434.434 0 0 1-.246-.077l-28.189-19.684a.43.43 0 1 1 .493-.705l27.942 19.511 28.593-19.878a.43.43 0 1 1 .491.705l-28.838 20.051a.436.436 0 0 1-.246.077M332.433 111.115h-37.652a3.667 3.667 0 0 1-3.667-3.667v-23.14a3.666 3.666 0 0 1 3.667-3.667h37.652a3.666 3.666 0 0 1 3.666 3.667v23.14a3.667 3.667 0 0 1-3.666 3.667" fill="#4263eb" fill-rule="nonzero"/><path d="M321.394 78.997h11.029c1.175 0 2.128.953 2.128 2.128v26.218a2.128 2.128 0 0 1-2.128 2.128h-40.729a2.128 2.128 0 0 1-2.128-2.128V81.125c0-1.175.953-2.128 2.128-2.128" fill="#fff" fill-rule="nonzero"/><path d="M289.566 94.93a.43.43 0 0 1-.431-.43V81.222a2.563 2.563 0 0 1 2.559-2.559h24.476a.43.43 0 0 1 0 .861h-24.476a1.7 1.7 0 0 0-1.698 1.698V94.5a.43.43 0 0 1-.43.43M289.566 101.605a.43.43 0 0 1-.431-.43v-2.612a.43.43 0 0 1 .861 0v2.612a.43.43 0 0 1-.43.43M332.423 109.998h-40.729a2.562 2.562 0 0 1-2.559-2.559.43.43 0 0 1 .86 0c0 .936.763 1.699 1.699 1.699h40.729a1.7 1.7 0 0 0 1.698-1.699V81.222a1.7 1.7 0 0 0-1.698-1.698H321.6a.43.43 0 1 1 0-.86h10.823a2.561 2.561 0 0 1 2.559 2.558v26.217a2.562 2.562 0 0 1-2.559 2.559" fill="#4263eb" fill-rule="nonzero"/><path d="M312.01 95.1a.434.434 0 0 1-.246-.077l-21.226-14.822a.431.431 0 0 1 .493-.705l20.979 14.649 21.469-14.926a.43.43 0 1 1 .491.706l-21.714 15.098a.434.434 0 0 1-.246.077" fill="#4263eb" fill-rule="nonzero"/><path d="M317.527 156.939v3.054a.43.43 0 1 0 .86 0v-3.054a.43.43 0 1 0-.86 0z" fill="url(#_Linear5)" fill-rule="nonzero"/><path d="M323.528 162.745a3.666 3.666 0 0 0-3.667 3.666v29.795a3.666 3.666 0 0 0 3.667 3.666h47.474a3.666 3.666 0 0 0 3.667-3.666v-29.795a3.666 3.666 0 0 0-3.667-3.666h-47.474z" fill="url(#_Linear6)" fill-rule="nonzero"/><path d="M356.753 160.741h13.437a2.593 2.593 0 0 1 2.593 2.593v31.942a2.593 2.593 0 0 1-2.593 2.593h-49.622a2.593 2.593 0 0 1-2.593-2.593v-31.942a2.593 2.593 0 0 1 2.593-2.593" fill="#fff" fill-rule="nonzero"/><path d="M320.569 160.411a3.044 3.044 0 0 0-3.042 3.04v16.178a.447.447 0 1 0 .896 0v-16.178c0-1.182.963-2.144 2.146-2.144h29.818a.447.447 0 1 0 0-.896h-29.818z" fill="url(#_Linear7)" fill-rule="nonzero"/><path d="M357.004 160.411a.447.447 0 1 0 0 .896h13.185c1.183 0 2.145.962 2.145 2.144v31.942a2.147 2.147 0 0 1-2.145 2.145h-49.62a2.148 2.148 0 0 1-2.146-2.145.449.449 0 0 0-.896 0 3.044 3.044 0 0 0 3.042 3.041h49.62a3.042 3.042 0 0 0 3.041-3.041v-31.942a3.042 3.042 0 0 0-3.041-3.04h-13.185z" fill="url(#_Linear8)" fill-rule="nonzero"/><path d="M371.52 161.072l-26.199 18.217-25.604-17.879a.45.45 0 0 0-.514.735l25.861 18.058a.442.442 0 0 0 .511 0l26.456-18.394a.45.45 0 0 0-.511-.737z" fill="url(#_Linear9)" fill-rule="nonzero"/><path d="M96.705 44.874a7.938 7.938 0 0 1-.269 8.746 7.89 7.89 0 0 1-10.996 1.904 7.891 7.891 0 1 1 9.091-12.9c.891.627 1.632 1.38 2.174 2.25m5.538-3.962c-.097-.211-.375-.29-.586-.192l-2.46 1.133a11.61 11.61 0 0 0-2.456-2.332A11.764 11.764 0 0 0 93.698 38l.242-2.715c.021-.231-.139-.455-.371-.475l-4.5-.39c-.232-.021-.455.14-.476.371l-.242 2.715a11.625 11.625 0 0 0-6.083 2.831l-2.249-1.561c-.19-.133-.45-.11-.584.079l-2.619 3.702c-.134.19-.058.459.132.593l2.218 1.582c-.869 2.159-1.034 4.479-.584 6.684l-2.491 1.154a.42.42 0 0 0-.213.555l1.902 4.121c.097.211.323.279.534.182l2.491-1.154a11.91 11.91 0 0 0 2.478 2.362 11.696 11.696 0 0 0 3.042 1.521l-.272 2.737c-.021.23.149.402.38.423l4.522.42c.231.021.434-.17.454-.402l.242-2.715c2.227-.318 4.364-1.255 6.104-2.8l2.218 1.582c.19.134.46.058.593-.132l2.62-3.7c.134-.19.08-.429-.11-.563l-2.219-1.582a11.62 11.62 0 0 0 .584-6.683l2.492-1.154a.42.42 0 0 0 .212-.555l-1.902-4.121zm21.468 13.035a8.269 8.269 0 0 0 1.881 4.09l-6.4 9.105a19.231 19.231 0 0 1-6.603-14.21l11.122 1.015zm9.63 6.77l4.692 10.141a19.207 19.207 0 0 1-15.592-1.425l6.431-9.126a8.238 8.238 0 0 0 4.469.41m-11.359-24.581l4.691 10.142a8.107 8.107 0 0 0-1.557 1.655 8.148 8.148 0 0 0-1.032 2.024l-11.122-1.015a19.054 19.054 0 0 1 3.144-7.338 19.265 19.265 0 0 1 5.876-5.468m13.437 14.281a4.203 4.203 0 0 1-.126 4.686c-1.365 1.938-3.996 2.411-5.935 1.046-1.938-1.366-2.359-3.987-.993-5.925a4.197 4.197 0 0 1 5.904-1.025c.484.342.856.751 1.15 1.218m15.277 5.968c-.505 2.57-1.569 5.079-3.175 7.358-1.606 2.28-3.595 4.107-5.845 5.447l-4.691-10.141a8.133 8.133 0 0 0 1.557-1.655 8.12 8.12 0 0 0 1.032-2.025l11.122 1.016zM120.14 9.887a7.88 7.88 0 0 1 .186 9.345 7.892 7.892 0 1 1-.186-9.345m21.056 25.976l-6.431 9.126a8.14 8.14 0 0 0-4.448-.379l-4.722-10.12c5.032-1.715 10.715-1.365 15.601 1.373m6.057 5.338c2.425 3.269 3.757 7.207 3.816 11.194l-11.153-.994a8.269 8.269 0 0 0-1.881-4.09l6.431-9.126a18.948 18.948 0 0 1 2.787 3.016M125.996 6.39a.402.402 0 0 0-.449-.058l-2.46 1.133a11.884 11.884 0 0 0-2.478-2.362 11.727 11.727 0 0 0-3.042-1.521l.242-2.715c.021-.231-.118-.424-.35-.445l-4.522-.42c-.231-.021-.433.17-.454.401l-.242 2.716c-2.228.318-4.364 1.255-6.103 2.8l-2.25-1.561c-.19-.134-.429-.08-.562.11l-2.62 3.701c-.134.19-.08.429.11.562l2.219 1.583a11.62 11.62 0 0 0-.584 6.683l-2.492 1.154a.421.421 0 0 0-.212.556l1.902 4.121c.098.21.344.31.555.213l2.491-1.154a11.609 11.609 0 0 0 2.457 2.33c.954.673 1.988 1.17 3.042 1.522l-.273 2.736c-.021.231.17.434.402.455l4.522.42c.231.021.433-.171.454-.402l.242-2.715a11.633 11.633 0 0 0 6.082-2.831l2.219 1.582c.19.134.481.089.614-.101l2.589-3.679a.455.455 0 0 0-.1-.615l-2.219-1.582c.869-2.159 1.034-4.479.584-6.684l2.491-1.154a.42.42 0 0 0 .213-.555l-1.912-4.069a.527.527 0 0 0-.106-.155m31.177 31.729c-.085-.183-.268-.278-.451-.193l-3.529 1.635a24.882 24.882 0 0 0-4.662-5.562l2.25-3.176c.116-.165.045-.393-.12-.51l-4.154-2.948c-.165-.116-.393-.045-.51.12l-2.218 3.154a24.869 24.869 0 0 0-6.809-2.502l.322-3.864c.019-.201-.105-.364-.306-.382l-5.086-.446c-.201-.018-.364.106-.382.307l-.375 3.854a24.957 24.957 0 0 0-7.112 1.257l-1.635-3.53a.359.359 0 0 0-.482-.171l-4.65 2.127a.358.358 0 0 0-.173.481l1.635 3.53a24.922 24.922 0 0 0-5.562 4.661l-3.175-2.25a.392.392 0 0 0-.531.09l-2.928 4.184c-.116.165-.066.363.1.479l3.175 2.25a24.862 24.862 0 0 0-2.502 6.808l-3.885-.353c-.201-.019-.344.136-.362.337l-.497 5.076c-.018.202.158.375.359.393l3.854.375c.066 2.428.47 4.824 1.225 7.133l-3.498 1.614a.36.36 0 0 0-.172.482l2.128 4.65a.357.357 0 0 0 .481.172l3.529-1.635a24.863 24.863 0 0 0 4.631 5.583l-2.219 3.154c-.116.165-.097.384.068.5l4.184 2.928c.166.116.384.097.501-.068l2.25-3.176a24.865 24.865 0 0 0 6.808 2.503l-.354 3.885c-.018.201.137.343.338.361l5.055.466c.201.018.395-.126.414-.328l.322-3.863a25.328 25.328 0 0 0 7.164-1.247l1.635 3.529a.36.36 0 0 0 .482.172l4.651-2.127a.36.36 0 0 0 .172-.482l-1.635-3.529a24.878 24.878 0 0 0 5.562-4.662l3.175 2.25c.165.116.384.097.5-.068l2.928-4.184c.116-.165.097-.384-.068-.5l-3.176-2.25a24.869 24.869 0 0 0 2.502-6.809l3.854.375c.202.018.374-.158.393-.359l.466-5.054c.018-.202-.127-.396-.328-.414l-3.885-.354a25.063 25.063 0 0 0-1.226-7.133l3.53-1.635a.36.36 0 0 0 .172-.481l-2.158-4.63zM190.34 49.68c2.523 4.053 2.528 9.42-.394 13.567-3.896 5.531-11.536 6.848-17.067 2.952-5.53-3.896-6.847-11.537-2.951-17.067 3.895-5.53 11.536-6.847 17.067-2.952 1.382.974 2.504 2.15 3.345 3.5m8.602-6.145c-.151-.327-.563-.454-.889-.303l-3.852 1.764a18.05 18.05 0 0 0-3.806-3.642 18.233 18.233 0 0 0-4.721-2.379l.392-4.229c.032-.359-.243-.65-.602-.683l-6.997-.643a.633.633 0 0 0-.703.572l-.371 4.26a18.165 18.165 0 0 0-9.488 4.381l-3.459-2.466a.638.638 0 0 0-.896.156l-4.036 5.762a.634.634 0 0 0 .155.895l3.438 2.435c-1.348 3.351-1.607 6.99-.908 10.412l-3.851 1.763a.648.648 0 0 0-.325.859l2.939 6.374a.647.647 0 0 0 .859.324l3.852-1.763a18.167 18.167 0 0 0 3.837 3.619 18.23 18.23 0 0 0 4.72 2.38l-.391 4.229a.631.631 0 0 0 .571.703l6.997.643c.359.033.702-.233.734-.592l.371-4.26a18.054 18.054 0 0 0 9.457-4.36l3.49 2.444a.635.635 0 0 0 .895-.155l4.038-5.762a.637.637 0 0 0-.157-.896l-3.468-2.413a18.267 18.267 0 0 0 .938-10.433l3.852-1.763a.647.647 0 0 0 .324-.859l-2.939-6.374z" fill="#96b7e1" fill-rule="nonzero"/><path d="M190.339 49.675c2.523 4.052 2.528 9.419-.394 13.567-3.896 5.53-11.537 6.847-17.067 2.952-5.53-3.896-6.847-11.537-2.952-17.068 3.896-5.53 11.537-6.847 17.067-2.951 1.383.974 2.505 2.149 3.346 3.5m8.602-6.146c-.151-.327-.562-.454-.89-.303L194.2 44.99a18.07 18.07 0 0 0-3.806-3.641 18.217 18.217 0 0 0-4.721-2.379l.392-4.23c.032-.359-.244-.649-.602-.682l-6.997-.643a.633.633 0 0 0-.704.571l-.37 4.261a18.164 18.164 0 0 0-9.488 4.381l-3.459-2.466a.636.636 0 0 0-.896.156l-4.037 5.761a.638.638 0 0 0 .156.896l3.439 2.435c-1.35 3.35-1.608 6.989-.909 10.411l-3.851 1.764a.646.646 0 0 0-.324.859l2.938 6.374a.648.648 0 0 0 .859.324l3.852-1.764a18.147 18.147 0 0 0 3.837 3.62 18.217 18.217 0 0 0 4.721 2.379l-.392 4.23a.631.631 0 0 0 .571.703l6.997.643c.359.033.702-.233.734-.592l.371-4.261a18.047 18.047 0 0 0 9.456-4.36l3.491 2.445a.636.636 0 0 0 .895-.156l4.037-5.761a.637.637 0 0 0-.156-.896l-3.469-2.414a18.263 18.263 0 0 0 .94-10.432l3.85-1.764a.648.648 0 0 0 .326-.859l-2.94-6.374zM103.588 76.419a7.939 7.939 0 0 1-.27 8.746 7.891 7.891 0 1 1-1.904-10.997c.891.627 1.632 1.38 2.174 2.251m5.538-3.963c-.098-.21-.375-.289-.586-.192l-2.46 1.134a11.592 11.592 0 0 0-2.457-2.332 11.711 11.711 0 0 0-3.042-1.521l.241-2.715c.021-.231-.139-.455-.37-.476l-4.501-.389c-.231-.021-.454.14-.475.371l-.242 2.715a11.625 11.625 0 0 0-6.083 2.831l-2.25-1.561c-.189-.134-.449-.11-.583.079l-2.62 3.702c-.133.189-.058.459.132.593l2.219 1.582a11.623 11.623 0 0 0-.584 6.684l-2.491 1.153a.422.422 0 0 0-.214.556l1.903 4.121c.097.211.323.279.534.182l2.491-1.155c.686.874 1.523 1.69 2.478 2.363a11.727 11.727 0 0 0 3.042 1.521l-.273 2.736c-.021.231.149.403.381.424l4.522.42c.23.021.433-.171.454-.402l.242-2.715c2.227-.318 4.364-1.255 6.103-2.8l2.219 1.582c.19.134.46.058.593-.132l2.62-3.701c.134-.189.08-.428-.11-.562l-2.219-1.582a11.62 11.62 0 0 0 .584-6.683l2.491-1.155a.42.42 0 0 0 .213-.555l-1.902-4.121z" fill="#96b7e1" fill-rule="nonzero"/><path d="M145.911 69.023a50.453 50.453 0 0 1 1.315 11.42c0 6.682-1.297 13.2-3.855 19.375a50.366 50.366 0 0 1-10.976 16.428 50.392 50.392 0 0 1-16.426 10.975 50.37 50.37 0 0 1-19.377 3.854 50.364 50.364 0 0 1-19.375-3.854 50.381 50.381 0 0 1-16.426-10.975 50.37 50.37 0 0 1-10.977-16.428 50.39 50.39 0 0 1-3.854-19.375 50.404 50.404 0 0 1 3.854-19.377A50.377 50.377 0 0 1 60.791 44.64a50.345 50.345 0 0 1 16.426-10.975 50.346 50.346 0 0 1 19.375-3.854 50.352 50.352 0 0 1 21.783 4.927l1.474-.903a52.773 52.773 0 0 0-3.318-1.527 51.816 51.816 0 0 0-19.939-3.966 51.813 51.813 0 0 0-19.937 3.966 51.777 51.777 0 0 0-16.903 11.294 51.839 51.839 0 0 0-11.295 16.902 51.845 51.845 0 0 0-3.966 19.939 51.848 51.848 0 0 0 3.966 19.938 51.853 51.853 0 0 0 11.295 16.903 51.793 51.793 0 0 0 16.903 11.294 51.813 51.813 0 0 0 19.937 3.966c6.88 0 13.589-1.334 19.939-3.966a51.788 51.788 0 0 0 16.902-11.294 51.822 51.822 0 0 0 11.295-16.903 51.83 51.83 0 0 0 3.967-19.938c0-4.408-.555-8.744-1.642-12.964l-1.142 1.544z" fill="#96b7e1" fill-rule="nonzero"/></g><defs><linearGradient id="_Linear1" x1="0" y1="0" x2="1" y2="0" gradientUnits="userSpaceOnUse" gradientTransform="translate(2.054 376.705) scale(56.0866)"><stop offset="0" stop-color="#fcb306"/><stop offset="1" stop-color="#f3791b"/></linearGradient><linearGradient id="_Linear2" x1="0" y1="0" x2="1" y2="0" gradientUnits="userSpaceOnUse" gradientTransform="translate(68.199 379.98) scale(47.7308)"><stop offset="0" stop-color="#4263eb"/><stop offset="1" stop-color="#1f46e7"/></linearGradient><linearGradient id="_Linear3" x1="0" y1="0" x2="1" y2="0" gradientUnits="userSpaceOnUse" gradientTransform="translate(214.58 226.339) scale(44.7132)"><stop offset="0" stop-color="#4263eb"/><stop offset="1" stop-color="#1f46e7"/></linearGradient><linearGradient id="_Linear4" x1="0" y1="0" x2="1" y2="0" gradientUnits="userSpaceOnUse" gradientTransform="rotate(-90 217.408 1.273) scale(37.8857)"><stop offset="0" stop-color="#f2751c"/><stop offset="1" stop-color="#ffc400"/></linearGradient><linearGradient id="_Linear5" x1="0" y1="0" x2="1" y2="0" gradientUnits="userSpaceOnUse" gradientTransform="matrix(.86032 0 0 .86032 317.526 158.466)"><stop offset="0" stop-color="#fcb306"/><stop offset="1" stop-color="#f3791b"/></linearGradient><linearGradient id="_Linear6" x1="0" y1="0" x2="1" y2="0" gradientUnits="userSpaceOnUse" gradientTransform="translate(319.86 181.308) scale(54.8079)"><stop offset="0" stop-color="#fcb306"/><stop offset="1" stop-color="#f3791b"/></linearGradient><linearGradient id="_Linear7" x1="0" y1="0" x2="1" y2="0" gradientUnits="userSpaceOnUse" gradientTransform="translate(317.526 170.244) scale(33.3096)"><stop offset="0" stop-color="#fcb306"/><stop offset="1" stop-color="#f3791b"/></linearGradient><linearGradient id="_Linear8" x1="0" y1="0" x2="1" y2="0" gradientUnits="userSpaceOnUse" gradientTransform="translate(317.526 179.423) scale(55.7042)"><stop offset="0" stop-color="#fcb306"/><stop offset="1" stop-color="#f3791b"/></linearGradient><linearGradient id="_Linear9" x1="0" y1="0" x2="1" y2="0" gradientUnits="userSpaceOnUse" gradientTransform="translate(319.011 170.638) scale(53.2124)"><stop offset="0" stop-color="#fcb306"/><stop offset="1" stop-color="#f3791b"/></linearGradient></defs></svg>