<svg xmlns="http://www.w3.org/2000/svg" xmlns:xlink="http://www.w3.org/1999/xlink" viewBox="0 0 345 205.861"><defs><style>.a{fill:#e8f0f3}.b{fill:#d9edf6}.c{fill:#4263eb}.d{fill:#239b6a}.e{fill:#f8f9fa}.af,.ah,.aj,.al,.f,.i,.k,.s,.t,.u{fill:none;stroke-miterlimit:10}.f,.i{stroke:#eaeacd;stroke-width:.75px}.g{fill:#4ccd9b}.h{fill:url(#a)}.af,.ah,.aj,.al,.i,.k,.s,.t,.u{stroke-linecap:round}.j{fill:#eaeacd}.k{stroke:#c8cbac}.ah,.k{stroke-width:.61px}.l{fill:#1f46e7}.m{fill:#3054e9}.n{fill:url(#b)}.o{fill:url(#c)}.p{fill:#c8cbac}.q{fill:#d8d7bf}.r{fill:url(#d)}.s{stroke:#4ccd9b}.al,.s,.t{stroke-width:.63px}.t,.u{stroke:#239b6a}.u{stroke-width:.76px}.v{fill:#f2751c}.w{fill:url(#e)}.x{fill:#fecc4d}.y{fill:url(#f)}.z{fill:url(#g)}.aa{fill:url(#h)}.ab{fill:url(#i)}.ac{fill:url(#j)}.ad{fill:url(#k)}.ae,.ag,.ai,.ak{fill-rule:evenodd}.ae{fill:url(#l)}.af,.ah,.aj,.al{stroke:#fff}.af{stroke-width:.53px}.ag{fill:url(#m)}.ai{fill:url(#n)}.aj{stroke-width:.47px}.ak{fill:url(#o)}</style><linearGradient id="a" x1=".5" y1=".776" x2=".269" y2=".097" gradientUnits="objectBoundingBox"><stop offset="0" stop-color="#239b6a"/><stop offset="1" stop-color="#4ccd9b"/></linearGradient><linearGradient id="b" x1=".383" y1=".922" x2=".535" y2=".173" xlink:href="#a"/><linearGradient id="c" y1=".5" x2="1" y2=".5" gradientUnits="objectBoundingBox"><stop offset="0" stop-color="#4263eb"/><stop offset="1" stop-color="#1f46e7"/></linearGradient><linearGradient id="d" x1="-.177" y1=".217" x2=".823" y2=".217" xlink:href="#a"/><linearGradient id="e" x1=".335" y1=".401" x2=".335" y2="-.515" gradientUnits="objectBoundingBox"><stop offset="0" stop-color="#f2751c"/><stop offset="1" stop-color="#ffc400"/></linearGradient><linearGradient id="f" x1="-.001" y1=".498" x2="1" y2=".498" xlink:href="#c"/><linearGradient id="g" x1="-6.158" y1="-12.484" x2="-4.817" y2="-12.484" xlink:href="#c"/><linearGradient id="h" x1="-.989" y1="19.597" x2=".496" y2="19.597" xlink:href="#c"/><linearGradient id="i" x1="-34.546" y1="27.412" x2="-32.722" y2="27.412" xlink:href="#c"/><linearGradient id="j" x1="-43.704" y1="12.448" x2="-42.419" y2="12.448" xlink:href="#c"/><linearGradient id="k" x1="-67.327" y1="-15.194" x2="-64.671" y2="-15.194" xlink:href="#c"/><linearGradient id="l" x1="-15.055" y1=".5" x2="-14.055" y2=".5" xlink:href="#a"/><linearGradient id="m" x1="0" y1=".5" x2="1" y2=".5" xlink:href="#c"/><linearGradient id="n" x1=".5" y1="1" x2=".5" y2="-.002" xlink:href="#e"/><linearGradient id="o" x1="3.343" y1="11.317" x2="3.343" y2="10.316" xlink:href="#e"/></defs><path class="a" d="M182.8.36c18.582-3.257 29.118 16.666 35.631 16.091 4.023-.575 5.747-3.065 9.578-3.257 7.279 0 10.344 9.578 18.773 12.069 3.831.575 7.279-2.3 10.728-.958 3.065.958 4.981 2.873 6.9 6.13H146.594C161.919 23.539 163.452 4.766 182.8.36z"/><path class="b" d="M0 168.834h345c-11.366-3.6-13.235-13.235-24.6-20.853-10.666-7.053-20.815-2.444-28.75-9.583-10.417-10.935-6.124-31.913-26.191-36.723-20.359-3.777-23.959 7.771-41.151 4.091-28.28-8.759-27.121-40.03-57.835-40.03-39.292 0-46.4 36.637-61.113 39.445-21.39 3.21-30.082-13.417-54.021-1.064C21.927 120.754 31.692 157.171 0 168.834z"/><g transform="translate(111.06 24.028)"><path class="c" d="M57.511 19.1C51.138 5.564 34.094 7.15 24.494 11.673s-11.03 16.052-1.735 23.719c2.5 2.089 3.086 5.606 5 7.906l30.535-22.463c-.247-.556-.505-1.16-.783-1.735z"/><path class="d" d="M31.137 68.933c-5.865-.125-10.944 5.463-12.7 11.289-5.539 18.41-8.021 59.522-2.06 67.409 1.715 2.281 8.2.776 10.906-.249a8.155 8.155 0 0 0 4.792-6.325c1.351-22.492 3.833-43.432 8.088-61.774 1.151-7.782-5.184-10.139-9.026-10.35z"/><path class="d" d="M73.984 167.708L18.602 149.04c-3.431-1.073-4.792-6.919-3.325-11.28 1.485-3.891 5.75-6.335 9.19-5.252l56.839 21c2.252 1.033-2.54 15.858-7.322 14.2z"/><path class="e" d="M87.592 164.067c-1.035 3.306-5.51 3.642-5.51 3.642-2.29-.316-5.52-1.993-7.283-2.5l-56.2-16.167c-3.431-1.073-4.792-6.919-3.325-11.28 1.485-3.891 5.75-6.335 9.19-5.252l55.334 23.316s8.829 4.925 7.794 8.241z"/><path class="e" d="M79.485 163.904c.642 2.789 4.792 5.453 7.475 6.89a7.341 7.341 0 0 1 3.239 3.469c.5 1.083 1.418 2.875 2.166 4.255a5.108 5.108 0 0 0 3.517 2.607l1.342.268a1.265 1.265 0 0 0 1.476-1.591l-4.61-13.982a15.42 15.42 0 0 0-5.309-7.053c-2.875-2.08-5.5-4.255-8.98-5.587a49.775 49.775 0 0 0-.316 10.724z"/><path class="f" d="M77.29 163.669c.632 2.789 4.792 5.453 7.475 6.89a7.436 7.436 0 0 1 3.239 3.469c.489 1.083 1.418 2.875 2.166 4.255a5.108 5.108 0 0 0 3.508 2.607l1.351.268h.853l1.342.268a1.265 1.265 0 0 0 1.476-1.591l-4.61-13.982a15.42 15.42 0 0 0-5.309-7.053c-2.875-2.08-5.5-4.255-8.98-5.587"/><path class="g" d="M26.604 70.035a87.8 87.8 0 0 1 15.736-11.7c8.625-4.926 17.93-7.667 27.677-7.015 7.245.5 13.81 2.635 23.1 6.622 21.994 16.023 10.628 52.2 7.14 86.863H38.535c-10.13-30.984-12.851-40.078-11.931-74.77z"/><path class="h" d="M81.306 153.506l-48.875-18.064c1.418-20.345 3.785-39.292 7.715-56.12 1.16-7.82-5.156-10.177-9-10.35-5.865-.125-10.944 5.463-12.7 11.289-5.539 18.41-8.155 59.752-2.195 67.639a6.431 6.431 0 0 0 2.358 1.14l55.382 18.668c4.775 1.659 9.567-13.167 7.315-14.202z"/><path class="e" d="M43.49 53.188l-.47 12.085a3.1 3.1 0 0 0 2.453 2.338c9.133 1.773 20.748-1.629 24.246-10.992a3.517 3.517 0 0 0 .24-2.664c-3.412-7.235-6.641-15.4-10.542-23.182a.728.728 0 0 1 0-.882z"/><path class="i" d="M69.961 53.955c-3.412-7.235-2.808-7.331-6.708-15.113"/><path class="j" d="M59.225 30.389c-3.316 10.983-7.034 17.164-15.736 22.8l-.47 12.085c17.654-5.675 14.826-19.965 16.206-34.885z"/><path class="k" d="M54.97 41.142a37.6 37.6 0 0 1-11.193 11.855"/><path class="l" d="M11.366 99.197H50.61a2.568 2.568 0 0 0 2.511-3.1l-5.75-27.495a2.137 2.137 0 0 0-2.2-1.7H5.013c-3.009 0-3.115 1.092-2.712 3.086l5.472 26.3a3.642 3.642 0 0 0 3.594 2.9z"/><path class="c" d="M9.191 99.197h39.292a2.568 2.568 0 0 0 2.511-3.1l-5.75-27.495a2.147 2.147 0 0 0-2.2-1.7H2.886c-3.009 0-3.115 1.093-2.722 3.086l5.51 26.3a3.651 3.651 0 0 0 3.517 2.9z"/><path class="m" d="M9.191 99.197h39.292a2.568 2.568 0 0 0 2.511-3.1l-4.409-21.021C30.83 78.919 15.775 85.33 9.191 99.197z"/><ellipse class="e" cx="19.205" cy="27.073" rx="19.205" ry="27.073" transform="rotate(-6.52 55.762 -180.558)"/><path class="i" d="M46.106 56.791c-10.537 1.208-20.451-9.861-22.147-24.725"/><path class="c" d="M23.787 3.307L37.482.537c11.835-2.386 23 3.4 24.917 12.918l2.4 11.883c.613 3.019-1.917 6.076-5.692 6.833-3.21.642-6.239-.958-6.708-3.507l-.556-2.779c-.3-1.437-2.022-2.262-3.833-1.83-15.237 3.709-26.968 2.051-31.884-10.063-1.808-4.475 1.843-9.516 7.661-10.685z"/><ellipse class="e" cx="6.843" cy="4.849" rx="6.843" ry="4.849" transform="rotate(-89.46 45.44 -11.074)"/><path class="i" d="M63.136 38.678l-2.185-4.159c2.674 0 4.878-3.019 4.916-6.795a8.385 8.385 0 0 0-1.629-5.185"/><path class="d" d="M100.146 60.787c6.766 3.766 7.667 10.925 7.005 18.026-2.166 22.4-17.1 66.71-27.054 72.613-2.875 1.706-9.277-3.1-11.749-5.415a9.583 9.583 0 0 1-2.358-8.96c8.51-24.965 15.142-48.741 18.64-70.514 1.2-6.085 4.955-9.756 8.481-8.625a40.413 40.413 0 0 1 7.034 2.875z"/><path class="e" d="M39.637 88.934l-2.3-4.13a4 4 0 0 0-.8-.862l-3.148-2.545a.594.594 0 0 0-.7 0l-.182.125a1.073 1.073 0 0 0-.249 1.562l1.8 2.3a1.514 1.514 0 0 1 .268.489l.882 4.274z"/><path class="e" d="M51.339 102.12L40.644 90.697l-.958-1.744c-2.271-2.875-4.063-1.38-6.871.815a7.14 7.14 0 0 0-1.054 9.689 8.127 8.127 0 0 1 4.571 3.019l9.133 12.3z"/><path class="e" d="M39.302 96.102c-.9-4.274-3.46-7.858-8.874-10.225l-10.542-4.092a1.917 1.917 0 0 0-2.386 2.4l2.655 8.759a5.932 5.932 0 0 0 3.833 3.977l9.162 3.048z"/><path class="d" d="M35.814 103.846l34.883 46.958c2.214 2.875 8.155 2.07 11.72-.843 3.134-2.76 3.91-7.667 1.7-10.455L44.592 93.283c-2.204-1.685-10.944 8.234-8.778 10.563z"/><path class="n" d="M100.146 60.788a40.411 40.411 0 0 0-7.034-2.875c-3.527-1.16-7.283 2.511-8.481 8.625-2.875 17.8-7.81 36.934-14.174 56.973L44.582 93.256c-2.2-1.658-10.973 8.28-8.778 10.59l34.883 46.958c1.648 2.118 5.386 2.223 8.625.958a2.5 2.5 0 0 0 .747-.278c.086-.048.172-.125.259-.182a10.907 10.907 0 0 0 2.06-1.313 8.855 8.855 0 0 0 2.386-3.488c9.4-13.618 20.5-48.559 22.348-67.63.73-7.158-.2-14.317-6.966-18.083z"/></g><g transform="translate(27.015 19.764)"><circle class="o" cx="21.975" cy="21.975" r="21.975" transform="translate(217.513 118.421)"/><path class="j" d="M227.957 149.14l13.52 5.605a2.5 2.5 0 0 1 1.353 3.267l-.51 1.232-18.134-7.516.514-1.24a2.5 2.5 0 0 1 3.257-1.348z"/><path class="p" d="M224.841 150.108l18.1 7.502-.658 1.585-18.099-7.502z"/><path class="q" d="M229.451 147.866l11.822 4.9a.958.958 0 0 1 .518 1.252l-.279.673-13.619-5.645.279-.672a.958.958 0 0 1 1.279-.508z"/><path class="j" d="M241.174 152.74l-11.586-4.792a45.587 45.587 0 0 0 8.175-10.743l5.242 2.175a35.172 35.172 0 0 0-1.831 13.36z"/><rect class="q" width="7.37" height="1.15" rx=".52" transform="rotate(22.48 -222.737 664.06)"/><rect class="j" width="7.37" height="1.15" rx=".52" transform="rotate(22.48 -210.087 666.602)"/><path class="p" d="M239.943 132.623l4.72 1.956-1.046 2.524-4.72-1.957z"/><circle class="p" cx="1.466" cy="1.466" r="1.466" transform="translate(244.825 122.542)"/><circle class="p" cx="3.392" cy="3.392" r="3.392" transform="translate(241.299 124.488)"/><path class="q" d="M245.152 133.506l-4.725-1.917.259-6.9a1.917 1.917 0 0 1 1.342 1.533c2.607-.757 4.59.153 6.037 2.482.422-.5 1.045-.5 1.783-.211z"/><rect class="j" width="7.37" height="1.15" rx=".52" transform="rotate(22.48 -219.847 664.64)"/><circle class="r" cx="21.975" cy="21.975" r="21.975" transform="translate(250.71)"/><circle class="j" cx="17.058" cy="17.058" r="17.058" transform="translate(255.626 4.916)"/><circle class="s" cx="11.155" cy="11.155" r="11.155" transform="translate(261.529 10.82)"/><circle class="d" cx="1.955" cy="1.955" r="1.955" transform="translate(270.729 20.02)"/><path class="t" d="M281.069 9.603l-8.385 12.372"/><path class="u" d="M283.657 21.975h-10.321"/><g transform="translate(23.505 124.069)"><circle class="v" cx="21.975" cy="21.975" r="21.975" transform="translate(.625 .39)"/><path class="w" d="M33.947 3.562A21.963 21.963 0 1 0 9.983 40.376z"/><circle class="x" cx="16.033" cy="16.033" r="16.033" transform="translate(6.567 6.331)"/></g><path class="v" d="M52.967 146.664c.125.144.249.278 0 0s-.134-.144 0 0a5.357 5.357 0 0 0-3.22-1.591 16.839 16.839 0 0 0-2.405-.192l-1.054-5a4.313 4.313 0 0 1 1.965.316 2.76 2.76 0 0 1 .757.527 2.271 2.271 0 0 1 .307.374c.086.125.144.278.23.412a1.351 1.351 0 0 0 2.453-.431 1.418 1.418 0 0 0 0-.776 2.492 2.492 0 0 0-.23-.45 4.34 4.34 0 0 0-.287-.441 5.224 5.224 0 0 0-1.38-1.294 6.6 6.6 0 0 0-3.833-.958 4.859 4.859 0 0 0-.527 0l-.316-1.457a1.348 1.348 0 1 0-2.635.565l.307 1.457a6.814 6.814 0 0 0-3.23 2.338 4.629 4.629 0 0 0-.767 1.715 4.514 4.514 0 0 0 0 1.993 4.619 4.619 0 0 0 .8 1.811 4.159 4.159 0 0 0 1.476 1.16 9.583 9.583 0 0 0 3.776.757l1.112 5.232a4.053 4.053 0 0 1-1.917-.565 3.441 3.441 0 0 1-.738-.613 3.837 3.837 0 0 1-.3-.393c-.086-.144-.153-.288-.24-.431a1.358 1.358 0 0 0-2.463 1.093 2.819 2.819 0 0 0 .192.422c.086.153.173.307.268.45a6.172 6.172 0 0 0 1.347 1.433 6.708 6.708 0 0 0 3.661 1.3h.709l.33 1.539a1.351 1.351 0 0 0 2.645-.556l-.3-1.409a7.14 7.14 0 0 0 3.45-2.108 4.868 4.868 0 0 0 0-6.3zm-7.925-1.917a6.539 6.539 0 0 1-.958-.115 4.725 4.725 0 0 1-.958-.259 1.62 1.62 0 0 1-.719-.517 2.176 2.176 0 0 1-.3-.91 1.735 1.735 0 0 1 .134-.958 3.393 3.393 0 0 1 1.821-1.639zm6.708 5.625a3.469 3.469 0 0 1-2.386 1.984l-1.016-4.792a8.861 8.861 0 0 1 1.917.249 2.617 2.617 0 0 1 .834.374 1.553 1.553 0 0 1 .508.652 2.195 2.195 0 0 1 .192 1.5z"/><circle class="j" cx="21.975" cy="21.975" r="21.975" transform="translate(0 2.473)"/><path class="p" d="M33.858 42.933A21.975 21.975 0 0 1 0 24.447c10.695 0 26.785 6.584 33.858 18.486z"/><path class="y" d="M16.876 30.379l-2.52-7.743a1.083 1.083 0 0 1 .393-1.188l6.593-4.792a1.083 1.083 0 0 1 1.275 0l6.584 4.792a1.083 1.083 0 0 1 .392 1.217l-2.511 7.743a1.1 1.1 0 0 1-1.035.747h-8.145a1.083 1.083 0 0 1-1.026-.776z"/><path class="z" d="M34.318 11.146l2.722-2.75a22.224 22.224 0 0 0-11.131-5.578l-.585 3.833a.652.652 0 0 0 .355.7l7.82 3.939a.671.671 0 0 0 .815-.144z"/><path class="aa" d="M13.119 8.635l-1.802-3.431a21.908 21.908 0 0 0-8.73 8.817l3.45 1.733a.671.671 0 0 0 .767-.125L12.966 9.4a.652.652 0 0 0 .153-.765z"/><path class="ab" d="M4.194 27.974l-3.833.623a22.042 22.042 0 0 0 5.712 11.059l2.721-2.751a.652.652 0 0 0 .115-.767l-4.015-7.81a.661.661 0 0 0-.7-.355z"/><path class="ac" d="M19.838 42.435l-.585 3.833a22.042 22.042 0 0 0 12.238-2.012l-1.763-3.421a.661.661 0 0 0-.7-.355l-8.625 1.408a.68.68 0 0 0-.565.546z"/><path class="ad" d="M39.397 22.684l-1.332 8.625a.68.68 0 0 0 .364.7l3.44 1.735a21.821 21.821 0 0 0 1.917-12.268l-3.833.623a.661.661 0 0 0-.556.585z"/></g><path class="ae" d="M282.709 121.338h31.845a2.175 2.175 0 0 1 2.175 2.175v21.591a2.175 2.175 0 0 1-2.175 2.175h-28.165l-4.495 4.485a.776.776 0 0 1-1.332-.546v-27.705a2.175 2.175 0 0 1 2.147-2.175z"/><path class="af" d="M287.365 128.209h-2.108m26.096 0h-20.959m.316 3.067h-5.453m26.096 0h-17.988m7.264 3.076h-15.372m26.096 0h-2.789m-19.129 3.067h-4.178m26.096 0h-18.419m18.419 3.066h-22.511"/><path class="ag" d="M48.472 111.764H12.315a2.473 2.473 0 0 0-2.473 2.463v24.517a2.473 2.473 0 0 0 2.472 2.472h32.018l5.1 5.1a.891.891 0 0 0 1.514-.623v-31.466a2.473 2.473 0 0 0-2.474-2.463z"/><path class="ah" d="M43.221 119.555h2.386m-29.632 0H39.78m-.354 3.489h6.181m-29.632 0h20.432m-8.251 3.488h17.451m-29.632 0h3.172m21.726 3.488h4.734m-29.632 0h20.92m-20.92 3.479h25.568"/><path class="ai" d="M67.783 77.571h28.052a1.917 1.917 0 0 0 1.917-1.917V56.622a1.917 1.917 0 0 0-1.917-1.918H71.003l-3.92-3.91a.69.69 0 0 0-1.179.479v24.381a1.917 1.917 0 0 0 1.879 1.917z"/><path class="aj" d="M70.255 60.695h23m-2.098 2.923h2.099m-23.001 0h18.898M78.832 66.54h12.87m-21.447 0h3.996m14.203 2.923h4.801m-23 0h16.023m-16.023 2.933h18.477"/><path class="ak" d="M282.986 80.043h-37.471a2.549 2.549 0 0 1-2.549-2.554v-25.4a2.549 2.549 0 0 1 2.549-2.559h33.177l5.28-5.28a.958.958 0 0 1 1.572.642v32.583a2.559 2.559 0 0 1-2.559 2.568z"/><path class="al" d="M279.69 57.523h-30.705m2.808 3.9h-2.808m30.705 0h-25.233m13.771 3.91h-17.173m28.634 0h-5.347m-18.946 3.9h-6.411m30.704 0h-21.39m21.39 3.901h-24.667"/></svg>