<svg xmlns="http://www.w3.org/2000/svg" xmlns:xlink="http://www.w3.org/1999/xlink" viewBox="0 0 520 560"><defs><style>.cls-1{fill:#d9edf6}.cls-13,.cls-15,.cls-2,.cls-3,.cls-32,.cls-34,.cls-37,.cls-4,.cls-5{fill:none}.cls-2,.cls-3{stroke:#4263eb;stroke-width:2.15px}.cls-13,.cls-15,.cls-2,.cls-3,.cls-32,.cls-34,.cls-37{stroke-linecap:round}.cls-13,.cls-15,.cls-2,.cls-3,.cls-32,.cls-34,.cls-37,.cls-4,.cls-5,.cls-9{stroke-miterlimit:10}.cls-3{stroke-dasharray:336.26 13.45}.cls-4,.cls-5{stroke:#239b6a;stroke-width:2px}.cls-5{stroke-dasharray:5.03 5.03}.cls-6{fill:#4263eb}.cls-7{fill:#239b6a}.cls-8{fill:#f2751c}.cls-14,.cls-9{fill:#fff}.cls-9{stroke:#1f46e7;stroke-width:1.1px}.cls-10{fill:#1f46e7}.cls-11{fill:#c8cbac}.cls-12{fill:#96b7e1}.cls-13,.cls-32,.cls-34,.cls-37{stroke:#fff}.cls-13{stroke-width:.94px}.cls-15{stroke:#c8cbac;stroke-width:.91px}.cls-16{fill:#4ccd9b}.cls-17{fill:url(#linear-gradient)}.cls-18{fill:url(#linear-gradient-2)}.cls-19{fill:#ffc400}.cls-20{fill:url(#linear-gradient-3)}.cls-21{fill:url(#linear-gradient-4)}.cls-22{fill:url(#linear-gradient-5)}.cls-23{fill:url(#linear-gradient-6)}.cls-24{fill:url(#linear-gradient-7)}.cls-25{fill:url(#linear-gradient-8)}.cls-26{fill:url(#linear-gradient-9)}.cls-27{fill:url(#linear-gradient-10)}.cls-28{fill:url(#linear-gradient-11)}.cls-29{fill:url(#linear-gradient-12)}.cls-30{fill:url(#linear-gradient-13)}.cls-31,.cls-33,.cls-35,.cls-36{fill-rule:evenodd}.cls-31{fill:url(#linear-gradient-14)}.cls-32{stroke-width:1.11px}.cls-33{fill:url(#linear-gradient-15)}.cls-34{stroke-width:.9px}.cls-35{fill:url(#linear-gradient-16)}.cls-36{fill:url(#linear-gradient-17)}.cls-37{stroke-width:1.09px}</style><linearGradient id="linear-gradient" x1="490.97" y1="939.76" x2="490.97" y2="915.91" gradientTransform="rotate(178.6 298.214 688.876)" gradientUnits="userSpaceOnUse"><stop offset="0" stop-color="#4ccd9b"/><stop offset="1" stop-color="#239b6a"/></linearGradient><linearGradient id="linear-gradient-2" x1="379.2" y1="429.01" x2="393.37" y2="429.01" gradientTransform="translate(25.38 14.86)" gradientUnits="userSpaceOnUse"><stop offset="0" stop-color="#f2751c"/><stop offset="1" stop-color="#ffc400"/></linearGradient><linearGradient id="linear-gradient-3" x1="333.3" y1="503.12" x2="333.3" y2="458.62" gradientTransform="translate(26.51 -89.98)" xlink:href="#linear-gradient-2"/><linearGradient id="linear-gradient-4" x1="352.71" y1="454.95" x2="366.88" y2="454.95" gradientTransform="translate(25.94 -37.57)" gradientUnits="userSpaceOnUse"><stop offset="0" stop-color="#4263eb"/><stop offset="1" stop-color="#1f46e7"/></linearGradient><linearGradient id="linear-gradient-5" x1="406.11" y1="398.87" x2="420.28" y2="398.87" gradientTransform="translate(28.62 71.91)" gradientUnits="userSpaceOnUse"><stop offset="0" stop-color="#239b6a"/><stop offset="1" stop-color="#4ccd9b"/></linearGradient><linearGradient id="linear-gradient-6" x1="425.08" y1="230.83" x2="492.87" y2="230.83" gradientUnits="userSpaceOnUse"><stop offset="0" stop-color="#ff9a01"/><stop offset="1" stop-color="#ffc400"/></linearGradient><linearGradient id="linear-gradient-7" x1="425.08" y1="264.73" x2="492.87" y2="264.73" xlink:href="#linear-gradient-6"/><linearGradient id="linear-gradient-8" x1="355.71" y1="264.73" x2="458.98" y2="264.73" xlink:href="#linear-gradient-6"/><linearGradient id="linear-gradient-9" x1="398.2" y1="264.73" x2="458.98" y2="264.73" xlink:href="#linear-gradient-2"/><linearGradient id="linear-gradient-10" x1="147.1" y1="131.18" x2="161.27" y2="131.18" xlink:href="#linear-gradient-2"/><linearGradient id="linear-gradient-11" x1="101.2" y1="147.7" x2="101.2" y2="120.28" xlink:href="#linear-gradient-2"/><linearGradient id="linear-gradient-12" x1="120.6" y1="126.64" x2="134.78" y2="126.64" xlink:href="#linear-gradient-4"/><linearGradient id="linear-gradient-13" x1="67.55" y1="121.98" x2="81.72" y2="121.98" xlink:href="#linear-gradient-5"/><linearGradient id="linear-gradient-14" x1="52.83" y1="266.73" x2="121.43" y2="266.73" xlink:href="#linear-gradient-2"/><linearGradient id="linear-gradient-15" x1="352.28" y1="129.14" x2="407.62" y2="129.14" xlink:href="#linear-gradient-4"/><linearGradient id="linear-gradient-16" x1="354.21" y1="119.66" x2="354.21" y2="72.78" xlink:href="#linear-gradient-2"/><linearGradient id="linear-gradient-17" x1="239.43" y1="483.97" x2="318.57" y2="483.97" xlink:href="#linear-gradient-4"/></defs><g id="cloud"><path class="cls-1" d="M38.67 376.11c-23.47 150 211.67 212 273.45 75.64 30.38-67.06-28.77-136.47 54.09-177.84 60.92-30.41 111.42-47.66 107-129.51-3.52-66.51-59.72-107.82-124.48-106.78-75.47 1.22-114.84 57.9-116.61 127.45-1.94 75.81-24.91 73-88.56 92C86.15 274.11 44.8 315 38.67 376.11c-2.39 15.31.88-8.71 0 0z"/><path class="cls-1" d="M357.43 352.63c-12.18-7.86-10.82-19.16-7.2-30a18.35 18.35 0 0 1 23.5-9.95c9.94 3.62 12.65 13.56 10.85 22.6-1.81 7.23-12.66 23.72-27.15 17.35zm-165.08-142.8c-11.87-8.17-14.5-21-6.31-34.1 3.68-5.88 10.52-9 17.82-8.89 13.13 2.06 16.91 17.1 13.84 27.89s-17.95 20.17-25.35 15.1zm-25.15 15.51c0-3 3.88-5.83 6.69-7 4.46-1.82 13-2.09 13.7 1.09.78 3.53-1 8.05-10 11.19-5.34 1.86-10.33-2.25-10.39-5.28z"/></g><g id="graphs"><path class="cls-2" d="M461.38 80c-32.43 35-79.67-8.78-112.1 26.22-15.95 17.21-12.63 36.54-9 55.91"/><path class="cls-3" d="M342.61 175.41c2.25 15.53 1.9 30.76-10.94 44.62-32.43 35-79.68-8.78-112.11 26.22S234.38 325 202 360c-14.67 15.83-32.37 15.54-50.37 13.72"/><path class="cls-2" d="M144.9 373c-19.59-2.15-39.12-4-55.06 13.23C57.41 421.26 104.65 465 72.22 500"/><path class="cls-4" d="M250.12 27.63l1.03 2.28"/><path class="cls-5" d="M253.22 34.49l23.1 51.19a30.81 30.81 0 0 1-1.45 28.18L236 180.66a30.84 30.84 0 0 0-3.49 22l23.36 108a30.8 30.8 0 0 1-6.8 26.66l-56 64.82a30.83 30.83 0 0 0-6.53 27.79l22.59 88.2"/><path class="cls-4" d="M209.78 520.55l.62 2.43"/><path class="cls-6" d="M94.89 375.39a5.94 5.94 0 1 0 5.94 5.94 5.94 5.94 0 0 0-5.94-5.94zm0 9a3.07 3.07 0 1 1 3.11-3.06 3.06 3.06 0 0 1-3.11 3.06zM339.91 202a5.94 5.94 0 1 0 5.94 5.93 5.93 5.93 0 0 0-5.94-5.93zm0 9a3.07 3.07 0 1 1 3.09-3 3.06 3.06 0 0 1-3.09 3z"/><path class="cls-7" d="M185.6 408a5.94 5.94 0 1 0 5.93 5.94 5.94 5.94 0 0 0-5.93-5.94zm0 9a3.07 3.07 0 1 1 3.06-3.06 3.06 3.06 0 0 1-3.06 3.06z"/></g><g id="points"><path class="cls-8" d="M354.28 485a5.94 5.94 0 1 0 5.94 5.93 5.92 5.92 0 0 0-5.94-5.93zm0 9a3.07 3.07 0 1 1 3.07-3.07 3.07 3.07 0 0 1-3.07 3.07z"/><path class="cls-7" d="M279 90.33a5.94 5.94 0 1 0 5.94 5.93 5.92 5.92 0 0 0-5.94-5.93zm0 9a3.07 3.07 0 1 1 3.07-3.07 3.06 3.06 0 0 1-3.07 3.07zM47.38 205.69a5.94 5.94 0 1 0 5.94 5.94 5.94 5.94 0 0 0-5.94-5.94zm0 9a3.06 3.06 0 1 1 3.06-3.06 3.06 3.06 0 0 1-3.06 3.06z"/><path class="cls-8" d="M200 52.21a5.94 5.94 0 1 0 5.94 5.94 5.93 5.93 0 0 0-5.94-5.94zm0 9a3.07 3.07 0 1 1 3.07-3.06 3.06 3.06 0 0 1-3.07 3.06zM82.75 307.66a5.94 5.94 0 1 0 5.94 5.94 5.94 5.94 0 0 0-5.94-5.94zm0 9a3.06 3.06 0 1 1 3.06-3.06 3.06 3.06 0 0 1-3.06 3.06z"/><path class="cls-6" d="M439.76 377.39a5.94 5.94 0 1 0 5.94 5.94 5.94 5.94 0 0 0-5.94-5.94zm0 9a3.07 3.07 0 1 1 3.06-3.06 3.06 3.06 0 0 1-3.06 3.06z"/></g><g id="papers"><path class="cls-9" d="M164.7 182.63l22.12 141.6a1.67 1.67 0 0 0 1.91 1.4l99.15-15.49a1.68 1.68 0 0 0 1.4-1.91l-18.11-115.88-4-25.74a1.66 1.66 0 0 0-1.91-1.39l-99.13 15.5a1.67 1.67 0 0 0-1.43 1.91z"/><path class="cls-10" d="M174.14 233.37L154.4 374.81A1.92 1.92 0 0 0 156 377l98.89 13.8a1.92 1.92 0 0 0 2.18-1.64l16.17-115.9 3.55-25.56a1.93 1.93 0 0 0-1.64-2.17l-98.88-13.78a1.93 1.93 0 0 0-2.13 1.62z"/><path class="cls-11" d="M216.21 246l50.19 134.24a1.67 1.67 0 0 0 2.15 1l94-35.14a1.68 1.68 0 0 0 1-2.16l-41.09-109.87-9.14-24.4a1.67 1.67 0 0 0-2.15-1l-94 35.15a1.66 1.66 0 0 0-.96 2.18z"/><path class="cls-12" d="M152.39 224.59l24.25 141.16a1.72 1.72 0 0 0 2 1.41l98.82-17a1.71 1.71 0 0 0 1.4-2L259 232.65 227 210l-73.17 12.57a1.71 1.71 0 0 0-1.44 2.02z"/><path class="cls-13" d="M164.48 239.22l84.11-15.28m-6.54 7.49l7.64-1.38m-84.11 15.29l69.21-12.59m-68.11 18.7l78.48-14.26m-10.7 8.24l17.44-3.15m-84.11 15.28l58.77-10.7m-57.67 16.81l67.69-12.31m10.78 4.36l6.75-1.22M170 269.79l67.68-12.32m.09 6.3l17.44-3.15M171.1 275.9l58.17-10.6m-57.07 16.71l84.12-15.28m-12.27 8.53l13.37-2.42m-84.11 15.28l59.53-10.84m-58.43 16.96l72.66-13.22m3.26 5.73l9.3-1.68m-22.54 4.07l8.53-1.54m-70.1 12.75L232.31 290m-55.69 16.46l84.11-15.28m-82.44 21.2l66.1-11.94m.28 6.26l18.27-3.3m-54.88 9.92l29.54-5.34m-58.21 10.51l15.68-2.83m52.55-3.18l16.43-2.96m-50.5 9.12l27.96-5.05m-61.01 11.02l22.93-4.15m1.49 6.05l32.34-5.84m-55.66 10.05l13.51-2.44"/><path class="cls-10" d="M259 232.65L227 210l4.4 25.61a1.71 1.71 0 0 0 2 1.4z"/><path class="cls-14" d="M254.17 186.52l-47.48 135.14a1.71 1.71 0 0 0 1.05 2.18l94.6 33.24a1.73 1.73 0 0 0 2.19-1.05l38.86-110.61-17-35.34-70-24.61a1.71 1.71 0 0 0-2.22 1.05z"/><path class="cls-15" d="M285.29 351.09l17 6a1.73 1.73 0 0 0 2.19-1.05l24.64-70.15M266.51 189l-10.16-3.57a1.71 1.71 0 0 0-2.18 1.05l-9.63 27.41m56.1 9.16l36.48 13.29m-9.42 3.18l7.3 2.65m-36.48-13.28l22.25 8.1m-24.38-2.27l31.1 11.33m-13.4 1.73l16.65 6.06m-36.47-13.28l12.28 4.47m-14.41 1.37l20.79 7.57m7.12 9.2l6.44 2.35m-36.47-13.29l20.79 7.57m-3.1 5.49l16.66 6.06m-36.48-13.28l11.7 4.26m-13.83 1.57l36.48 13.29m-14.89 1.19l12.77 4.65m-36.48-13.29l13.01 4.74m-15.14 1.1l25.54 9.3m-.06 6.59l8.87 3.23m-21.52-7.84l8.15 2.97m-23.1-8.42l10.39 3.79m-12.52 2.05l36.48 13.29m-81.9-23.22l63.11 22.98m-2.91 5.55l17.45 6.36m-52.41-19.09l28.21 10.27m-55.58-20.24l14.97 5.45m47 23.73l15.68 5.71m-48.21-17.56l26.69 9.73m-58.25-21.22l21.89 7.97m-1.76 5.97l30.89 11.25m-53.15-19.35l12.9 4.69"/><path class="cls-12" d="M257.75 223.55l-12.48 36.61a.47.47 0 0 0 .29.59l25.63 8.74a.47.47 0 0 0 .59-.29l10.21-30-4.67-9.5-19-6.47a.47.47 0 0 0-.57.32z"/><path class="cls-10" d="M282 239.23l-4.68-9.5-2.26 6.65a.46.46 0 0 0 .29.59zm61.4 6.19l-17-35.33-8.62 24.52a1.73 1.73 0 0 0 1.05 2.19z"/></g><g id="diagrams"><path class="cls-16" d="M89.83 427.3l8.17-8.59a33.9 33.9 0 0 0-47.92 1.17l8.59 8.18a22 22 0 0 1 31.16-.76z"/><path class="cls-7" d="M58.85 459.84l-7 7.33a.87.87 0 0 0 .05 1.25 33.79 33.79 0 0 0 23.44 8.73l-.29-11.86a22 22 0 0 1-15-5.5.87.87 0 0 0-1.2.05zM98 418.71l-8.18 8.59a22 22 0 0 1 6.84 15.54l11.86-.29A33.85 33.85 0 0 0 98 418.71z"/><path class="cls-16" d="M90.6 458.46a22 22 0 0 1-15.53 6.83l.29 11.86a33.81 33.81 0 0 0 23.82-10.51l-8.58-8.18z"/><path class="cls-7" d="M58.68 428.06a22 22 0 0 0-6.08 15.18.68.68 0 0 1-.66.68l-10.51.26a.67.67 0 0 1-.69-.67 33.83 33.83 0 0 1 9.35-23.63l8.59 8.18z"/><path class="cls-17" d="M96.67 442.84a22 22 0 0 1-6.07 15.62l8.58 8.18a33.79 33.79 0 0 0 9.35-24.09z"/><path class="cls-8" transform="rotate(90 416.1 443.87)" d="M409.01 417.3h14.17v53.15h-14.17z"/><path class="cls-18" transform="rotate(90 411.67 443.87)" d="M404.59 421.72h14.17v44.29h-14.17z"/><path class="cls-19" transform="rotate(90 399.17 443.87)" d="M392.09 434.22h14.17v19.29h-14.17z"/><path class="cls-8" transform="rotate(90 370.59 390.89)" d="M363.5 357.86h14.17v66.05H363.5z"/><path class="cls-19" transform="rotate(90 399.725 390.885)" d="M392.64 387h14.17v7.77h-14.17z"/><path class="cls-20" transform="rotate(90 359.815 390.885)" d="M352.73 368.64h14.17v44.5h-14.17z"/><path class="cls-12" transform="rotate(90 389.605 417.375)" d="M382.52 398.08h14.17v38.59h-14.17z"/><path class="cls-10" transform="rotate(90 397.72 417.38)" d="M390.64 406.2h14.17v22.35h-14.17z"/><path class="cls-21" transform="rotate(90 385.735 417.375)" d="M378.65 409.53h14.17v15.7h-14.17z"/><path class="cls-22" transform="rotate(90 441.81 470.78)" d="M434.73 445.06h14.17v51.43h-14.17z"/><path class="cls-16" transform="rotate(90 463.25 470.78)" d="M456.17 466.5h14.17v8.55h-14.17z"/><path class="cls-7" transform="rotate(90 428.96 470.78)" d="M421.87 457.92h14.17v25.72h-14.17z"/><path class="cls-8" d="M459 213.88v11.44a22.46 22.46 0 0 1 0 44.91v11.45a33.9 33.9 0 0 0 0-67.8z"/><path class="cls-23" d="M459 225.32v-11.44a33.9 33.9 0 0 0-33.9 33.9h11.44A22.46 22.46 0 0 1 459 225.32z"/><path class="cls-19" d="M459 225.32v-11.44a33.9 33.9 0 0 0-33.9 33.9h11.44A22.46 22.46 0 0 1 459 225.32z"/><path class="cls-24" d="M459 281.68v-11.45a22.45 22.45 0 0 1-22.46-22.45h-11.46a33.9 33.9 0 0 0 33.92 33.9z"/><path class="cls-25" d="M459 281.68v-11.45a22.45 22.45 0 0 1-22.46-22.45h-11.46a33.9 33.9 0 0 0 33.92 33.9z"/><path class="cls-26" d="M459 281.68v-11.45a22.45 22.45 0 0 1-22.46-22.45h-11.46a33.9 33.9 0 0 0 33.92 33.9z"/><path class="cls-8" d="M147.1 94.55h14.17v53.15H147.1z"/><path class="cls-27" d="M147.1 114.67h14.17v33.02H147.1z"/><path class="cls-19" d="M147.1 128.4h14.17v19.29H147.1z"/><path class="cls-8" d="M94.11 81.65h14.17v66.05H94.11z"/><path class="cls-19" d="M94.11 81.65h14.17v7.77H94.11z"/><path class="cls-28" d="M94.11 120.28h14.17v27.41H94.11z"/><path class="cls-12" d="M120.6 109.11h14.17v38.59H120.6z"/><path class="cls-10" d="M120.6 109.11h14.17v22.35H120.6z"/><path class="cls-29" d="M120.6 121.81h14.17v9.65H120.6z"/><path class="cls-30" d="M67.55 96.26h14.17v51.43H67.55z"/><path class="cls-7" d="M67.55 133.99h14.17v13.71H67.55z"/><path class="cls-10" d="M173.59 121.12h14.17v26.57h-14.17z"/></g><g id="helps"><path class="cls-31" d="M117.31 237.67H57a4.12 4.12 0 0 0-4.12 4.12v40.93a4.12 4.12 0 0 0 4.12 4.12h53.44l8.51 8.51a1.48 1.48 0 0 0 2.53-1.05v-52.51a4.13 4.13 0 0 0-4.17-4.12z"/><path class="cls-32" d="M108.53 250.69h4m-49.47 0h39.74m-.6 5.82h10.33m-49.47 0h34.11m-13.78 5.82h29.14m-49.47 0h5.29m36.26 5.82h7.92m-49.47 0h34.92m-34.92 5.82h42.68"/><path class="cls-33" d="M404.3 105.7h-48.69a3.33 3.33 0 0 0-3.33 3.32v33a3.33 3.33 0 0 0 3.33 3.32h43.11l6.87 6.87a1.19 1.19 0 0 0 2-.85V109a3.32 3.32 0 0 0-3.29-3.3z"/><path class="cls-34" d="M397.22 116.2h3.22m-39.9 0h32.06m-.49 4.69h8.33m-39.9 0h27.51m-11.12 4.7h23.51m-39.9 0h4.27m29.25 4.69h6.38m-39.9 0h28.16m-28.16 4.7h34.43"/><path class="cls-35" d="M329.87 119.66h48.69a3.32 3.32 0 0 0 3.32-3.32v-33a3.33 3.33 0 0 0-3.32-3.34h-43.12l-6.86-6.86a1.19 1.19 0 0 0-2 .84v42.36a3.32 3.32 0 0 0 3.29 3.32z"/><path class="cls-34" d="M334.15 90.39h39.91m-3.65 5.07h3.65m-39.91 0h32.79m-17.9 5.08h22.32m-37.21 0h6.95m24.62 5.07h8.34m-39.91 0h27.8m-27.8 5.08h32.06"/><path class="cls-36" d="M240.81 508.05h73.73a4 4 0 0 0 4-4v-40.13a4 4 0 0 0-4-4h-59.15a4 4 0 0 0-4 4v31l-11.49 10.79a1.37 1.37 0 0 0 .91 2.34z"/><path class="cls-37" d="M303.38 470.42h5.38m-13.05 0h4.94m-40.28 0h32.57m-32.57 6.17h48.39m-48.39 6.17h38.29m-.48 6.16h10.58m-31.79 0h17.11m-33.71 0h9.08m29.8 6.17h9.51m-29.25 0h16.2m-35.34 0h13.28"/></g></svg>