<svg xmlns="http://www.w3.org/2000/svg" xmlns:xlink="http://www.w3.org/1999/xlink" viewBox="0 0 345 205.861"><defs><style>.a{fill:#e8f0f3;}.b{fill:#d9edf6;}.c{fill:#4263eb;}.d{fill:#239b6a;}.e{fill:#f8f9fa;}.af,.ah,.aj,.al,.f,.i,.k,.s,.t,.u{fill:none;stroke-miterlimit:10;}.f,.i{stroke:#eaeacd;stroke-width:0.75px;}.g{fill:#4ccd9b;}.h{fill:url(#a);}.af,.ah,.aj,.al,.i,.k,.s,.t,.u{stroke-linecap:round;}.j{fill:#eaeacd;}.k{stroke:#c8cbac;}.ah,.k{stroke-width:0.61px;}.l{fill:#1f46e7;}.m{fill:#3054e9;}.n{fill:url(#b);}.o{fill:url(#c);}.p{fill:#c8cbac;}.q{fill:#d8d7bf;}.r{fill:url(#d);}.s{stroke:#4ccd9b;}.al,.s,.t{stroke-width:0.63px;}.t,.u{stroke:#239b6a;}.u{stroke-width:0.76px;}.v{fill:#f2751c;}.w{fill:url(#e);}.x{fill:#fecc4d;}.y{fill:url(#f);}.z{fill:url(#g);}.aa{fill:url(#h);}.ab{fill:url(#i);}.ac{fill:url(#j);}.ad{fill:url(#k);}.ae,.ag,.ai,.ak{fill-rule:evenodd;}.ae{fill:url(#l);}.af,.ah,.aj,.al{stroke:#fff;}.af{stroke-width:0.53px;}.ag{fill:url(#m);}.ai{fill:url(#n);}.aj{stroke-width:0.47px;}.ak{fill:url(#o);}</style><linearGradient id="a" x1="0.5" y1="0.776" x2="0.269" y2="0.097" gradientUnits="objectBoundingBox"><stop offset="0" stop-color="#239b6a"/><stop offset="1" stop-color="#4ccd9b"/></linearGradient><linearGradient id="b" x1="0.383" y1="0.922" x2="0.535" y2="0.173" xlink:href="#a"/><linearGradient id="c" y1="0.5" x2="1" y2="0.5" gradientUnits="objectBoundingBox"><stop offset="0" stop-color="#4263eb"/><stop offset="1" stop-color="#1f46e7"/></linearGradient><linearGradient id="d" x1="-0.177" y1="0.217" x2="0.823" y2="0.217" xlink:href="#a"/><linearGradient id="e" x1="0.335" y1="0.401" x2="0.335" y2="-0.515" gradientUnits="objectBoundingBox"><stop offset="0" stop-color="#f2751c"/><stop offset="1" stop-color="#ffc400"/></linearGradient><linearGradient id="f" x1="-0.001" y1="0.498" x2="1" y2="0.498" xlink:href="#c"/><linearGradient id="g" x1="-6.158" y1="-12.484" x2="-4.817" y2="-12.484" xlink:href="#c"/><linearGradient id="h" x1="-0.989" y1="19.597" x2="0.496" y2="19.597" xlink:href="#c"/><linearGradient id="i" x1="-34.546" y1="27.412" x2="-32.722" y2="27.412" xlink:href="#c"/><linearGradient id="j" x1="-43.704" y1="12.448" x2="-42.419" y2="12.448" xlink:href="#c"/><linearGradient id="k" x1="-67.327" y1="-15.194" x2="-64.671" y2="-15.194" xlink:href="#c"/><linearGradient id="l" x1="-15.055" y1="0.5" x2="-14.055" y2="0.5" xlink:href="#a"/><linearGradient id="m" x1="0" y1="0.5" x2="1" y2="0.5" xlink:href="#c"/><linearGradient id="n" x1="0.5" y1="1" x2="0.5" y2="-0.002" xlink:href="#e"/><linearGradient id="o" x1="3.343" y1="11.317" x2="3.343" y2="10.316" xlink:href="#e"/></defs><g transform="translate(0 15.307)"><path class="a" d="M46.006,68.472c18.582-3.257,29.118,16.666,35.631,16.091,4.023-.575,5.747-3.065,9.578-3.257,7.279,0,10.344,9.578,18.773,12.069,3.831.575,7.279-2.3,10.728-.958,3.065.958,4.981,2.873,6.9,6.13H9.8C25.125,91.651,26.658,72.878,46.006,68.472Z" transform="translate(136.794 -83.419)"/><g transform="translate(0 50.429)"><path class="b" d="M0,154.688H345c-11.366-3.6-13.235-13.235-24.6-20.853-10.666-7.053-20.815-2.444-28.75-9.583-10.417-10.935-6.124-31.913-26.191-36.723C245.1,83.752,241.5,95.3,224.308,91.62c-28.28-8.759-27.121-40.03-57.835-40.03-39.292,0-46.4,36.637-61.113,39.445-21.39,3.21-30.082-13.417-54.021-1.064C21.927,106.608,31.692,143.025,0,154.688Z" transform="translate(0 -51.59)"/></g><g transform="translate(111.06 8.721)"><path class="c" d="M174.117,27.536C167.744,14,150.7,15.586,141.1,20.109s-11.03,16.052-1.735,23.719c2.5,2.089,3.086,5.606,5,7.906L174.9,29.271C174.653,28.715,174.395,28.111,174.117,27.536Z" transform="translate(-116.606 -8.436)"/><path class="d" d="M147.589,80c-5.865-.125-10.944,5.463-12.7,11.289-5.539,18.41-8.021,59.522-2.06,67.409,1.715,2.281,8.2.776,10.906-.249h0a8.155,8.155,0,0,0,4.792-6.325c1.351-22.492,3.833-43.432,8.088-61.774C157.766,82.568,151.431,80.211,147.589,80Z" transform="translate(-116.452 -11.067)"/><path class="d" d="M190.512,181.528,135.13,162.86c-3.431-1.073-4.792-6.919-3.325-11.28h0c1.485-3.891,5.75-6.335,9.19-5.252l56.839,21C200.086,168.361,195.294,183.186,190.512,181.528Z" transform="translate(-116.528 -13.82)"/><path class="e" d="M204.12,177.887h0c-1.035,3.306-5.51,3.642-5.51,3.642-2.29-.316-5.52-1.993-7.283-2.5l-56.2-16.167c-3.431-1.073-4.792-6.919-3.325-11.28h0c1.485-3.891,5.75-6.335,9.19-5.252l55.334,23.316S205.155,174.571,204.12,177.887Z" transform="translate(-116.528 -13.82)"/><path class="e" d="M198.823,178.634c.642,2.789,4.792,5.453,7.475,6.89a7.341,7.341,0,0,1,3.239,3.469c.5,1.083,1.418,2.875,2.166,4.255a5.108,5.108,0,0,0,3.517,2.607l1.342.268a1.265,1.265,0,0,0,1.476-1.591l-4.61-13.982a15.42,15.42,0,0,0-5.309-7.053c-2.875-2.08-5.5-4.255-8.98-5.587a49.775,49.775,0,0,0-.316,10.724Z" transform="translate(-119.338 -14.73)"/><path class="f" d="M196.54,178.4c.632,2.789,4.792,5.453,7.475,6.89a7.436,7.436,0,0,1,3.239,3.469c.489,1.083,1.418,2.875,2.166,4.255a5.108,5.108,0,0,0,3.508,2.607l1.351.268h.853l1.342.268a1.265,1.265,0,0,0,1.476-1.591l-4.61-13.982a15.42,15.42,0,0,0-5.309-7.053c-2.875-2.08-5.5-4.255-8.98-5.587" transform="translate(-119.25 -14.731)"/><path class="g" d="M143.643,80.332a87.8,87.8,0,0,1,15.736-11.7c8.625-4.926,17.93-7.667,27.677-7.015,7.245.5,13.81,2.635,23.1,6.622,21.994,16.023,10.628,52.2,7.14,86.863H155.574C145.444,124.118,142.723,115.024,143.643,80.332Z" transform="translate(-117.039 -10.297)"/><path class="h" d="M197.754,164.574,148.879,146.51c1.418-20.345,3.785-39.292,7.715-56.12,1.16-7.82-5.156-10.177-9-10.35-5.865-.125-10.944,5.463-12.7,11.289-5.539,18.41-8.155,59.752-2.195,67.639a6.431,6.431,0,0,0,2.358,1.14l55.382,18.668C195.214,180.435,200.006,165.609,197.754,164.574Z" transform="translate(-116.448 -11.068)"/><path class="e" d="M161.25,62.557l-.47,12.085a3.1,3.1,0,0,0,2.453,2.338c9.133,1.773,20.748-1.629,24.246-10.992a3.517,3.517,0,0,0,.24-2.664c-3.412-7.235-6.641-15.4-10.542-23.182a.728.728,0,0,1,0-.882Z" transform="translate(-117.76 -9.369)"/><path class="i" d="M188.6,63.713c-3.412-7.235-2.808-7.331-6.708-15.113" transform="translate(-118.639 -9.758)"/><path class="j" d="M176.985,39.78c-3.316,10.983-7.034,17.164-15.736,22.8l-.47,12.085C178.433,68.99,175.605,54.7,176.985,39.78Z" transform="translate(-117.76 -9.391)"/><path class="k" d="M172.763,51A37.6,37.6,0,0,1,161.57,62.855" transform="translate(-117.793 -9.858)"/><path class="l" d="M127.348,110.176h39.244a2.568,2.568,0,0,0,2.511-3.1l-5.75-27.495a2.137,2.137,0,0,0-2.2-1.7H120.995c-3.009,0-3.115,1.092-2.712,3.086l5.472,26.3a3.642,3.642,0,0,0,3.594,2.9Z" transform="translate(-115.982 -10.979)"/><path class="c" d="M125.08,110.176h39.292a2.568,2.568,0,0,0,2.511-3.1l-5.75-27.495a2.147,2.147,0,0,0-2.2-1.7H118.775c-3.009,0-3.115,1.093-2.722,3.086l5.51,26.3a3.651,3.651,0,0,0,3.517,2.9Z" transform="translate(-115.889 -10.979)"/><path class="m" d="M125.48,110.531h39.292a2.568,2.568,0,0,0,2.511-3.1L162.874,86.41C147.119,90.253,132.064,96.664,125.48,110.531Z" transform="translate(-116.289 -11.334)"/><ellipse class="e" cx="19.205" cy="27.073" rx="19.205" ry="27.073" transform="translate(20.863 5.164) rotate(-6.52)"/><path class="i" d="M163.037,66.255C152.5,67.463,142.586,56.394,140.89,41.53" transform="translate(-116.931 -9.464)"/><path class="c" d="M140.357,11.376l13.695-2.77c11.835-2.386,23,3.4,24.917,12.918l2.4,11.883c.613,3.019-1.917,6.076-5.692,6.833h0c-3.21.642-6.239-.958-6.708-3.507l-.556-2.779c-.3-1.437-2.022-2.262-3.833-1.83-15.237,3.709-26.968,2.051-31.884-10.063C130.888,17.586,134.539,12.545,140.357,11.376Z" transform="translate(-116.57 -8.069)"/><ellipse class="e" cx="6.843" cy="4.849" rx="6.843" ry="4.849" transform="translate(56.085 34.469) rotate(-89.46)"/><path class="i" d="M181.675,47.728l-2.185-4.159c2.674,0,4.878-3.019,4.916-6.795a8.385,8.385,0,0,0-1.629-5.185" transform="translate(-118.539 -9.05)"/><path class="d" d="M218.892,71.366c6.766,3.766,7.667,10.925,7.005,18.026-2.166,22.4-17.1,66.71-27.054,72.613-2.875,1.706-9.277-3.1-11.749-5.415h0a9.583,9.583,0,0,1-2.358-8.96c8.51-24.965,15.142-48.741,18.64-70.514,1.2-6.085,4.955-9.756,8.481-8.625a40.413,40.413,0,0,1,7.034,2.875Z" transform="translate(-118.746 -10.579)"/><path class="e" d="M156.919,100.537l-2.3-4.13a4,4,0,0,0-.8-.862L150.671,93a.594.594,0,0,0-.7,0l-.182.125a1.073,1.073,0,0,0-.249,1.562l1.8,2.3a1.514,1.514,0,0,1,.268.489l.882,4.274Z" transform="translate(-117.282 -11.603)"/><path class="e" d="M168.547,113.988l-10.695-11.423-.958-1.744c-2.271-2.875-4.063-1.38-6.871.815h0a7.14,7.14,0,0,0-1.054,9.689h0a8.127,8.127,0,0,1,4.571,3.019l9.133,12.3Z" transform="translate(-117.208 -11.868)"/><path class="e" d="M155.948,107.724c-.9-4.274-3.46-7.858-8.874-10.225l-10.542-4.092a1.917,1.917,0,0,0-2.386,2.4l2.655,8.759a5.932,5.932,0,0,0,3.833,3.977l9.162,3.048Z" transform="translate(-116.646 -11.622)"/><path class="d" d="M153.245,115.963l34.883,46.958c2.214,2.875,8.155,2.07,11.72-.843h0c3.134-2.76,3.91-7.667,1.7-10.455L162.023,105.4C159.819,103.715,151.079,113.634,153.245,115.963Z" transform="translate(-117.431 -12.117)"/><path class="n" d="M217.577,71.366a40.411,40.411,0,0,0-7.034-2.875c-3.527-1.16-7.283,2.511-8.481,8.625-2.875,17.8-7.81,36.934-14.174,56.973l-25.875-30.255c-2.2-1.658-10.973,8.28-8.778,10.59l34.883,46.958c1.648,2.118,5.386,2.223,8.625.958a2.5,2.5,0,0,0,.747-.278c.086-.048.172-.125.259-.182a10.907,10.907,0,0,0,2.06-1.313,8.855,8.855,0,0,0,2.386-3.488c9.4-13.618,20.5-48.559,22.348-67.63C225.273,82.291,224.343,75.132,217.577,71.366Z" transform="translate(-117.431 -10.578)"/></g><g transform="translate(27.015 4.457)"><circle class="o" cx="21.975" cy="21.975" r="21.975" transform="translate(217.513 118.421)"/><path class="j" d="M2.492,0H17.125a2.5,2.5,0,0,1,2.5,2.5V3.833H0V2.492A2.5,2.5,0,0,1,2.492,0Z" transform="matrix(0.924, 0.383, -0.383, 0.924, 225.654, 148.186)"/><rect class="p" width="19.588" height="1.715" transform="matrix(0.924, 0.383, -0.383, 0.924, 224.841, 150.108)"/><path class="q" d="M.987,0H13.781a.958.958,0,0,1,.958.958v.728H0V.959A.958.958,0,0,1,.987,0Z" transform="matrix(0.924, 0.383, -0.383, 0.924, 228.539, 147.488)"/><path class="j" d="M279.346,162.325l-11.586-4.792a45.587,45.587,0,0,0,8.175-10.743l5.242,2.175A35.172,35.172,0,0,0,279.346,162.325Z" transform="translate(-38.172 -9.585)"/><rect class="q" width="7.37" height="1.15" rx="0.52" transform="matrix(0.924, 0.383, -0.383, 0.924, 237.407, 135.777)"/><rect class="j" width="7.37" height="1.15" rx="0.52" transform="matrix(0.924, 0.383, -0.383, 0.924, 239.342, 131.125)"/><rect class="p" width="5.108" height="2.731" transform="matrix(0.924, 0.383, -0.383, 0.924, 239.943, 132.623)"/><circle class="p" cx="1.466" cy="1.466" r="1.466" transform="translate(244.825 122.542)"/><circle class="p" cx="3.392" cy="3.392" r="3.392" transform="translate(241.299 124.488)"/><path class="q" d="M283.795,142.547l-4.725-1.917.259-6.9a1.917,1.917,0,0,1,1.342,1.533c2.607-.757,4.59.153,6.037,2.482.422-.5,1.045-.5,1.783-.211Z" transform="translate(-38.643 -9.041)"/><rect class="j" width="7.37" height="1.15" rx="0.52" transform="matrix(0.924, 0.383, -0.383, 0.924, 237.849, 134.714)"/><circle class="r" cx="21.975" cy="21.975" r="21.975" transform="translate(250.71)"/><circle class="j" cx="17.058" cy="17.058" r="17.058" transform="translate(255.626 4.916)"/><circle class="s" cx="11.155" cy="11.155" r="11.155" transform="translate(261.529 10.82)"/><circle class="d" cx="1.955" cy="1.955" r="1.955" transform="translate(270.729 20.02)"/><line class="t" x1="8.385" y2="12.372" transform="translate(272.684 9.603)"/><line class="u" x1="10.321" transform="translate(273.336 21.975)"/><g transform="translate(23.505 124.069)"><circle class="v" cx="21.975" cy="21.975" r="21.975" transform="translate(0.625 0.39)"/><path class="w" d="M86.664,136.645A21.962,21.962,0,1,0,62.7,173.459Z" transform="translate(-52.717 -133.083)"/><g transform="translate(6.567 6.331)"><circle class="x" cx="16.033" cy="16.033" r="16.033"/></g></g><path class="v" d="M82.852,156.137c.125.144.249.278,0,0s-.134-.144,0,0a5.357,5.357,0,0,0-3.22-1.591,16.839,16.839,0,0,0-2.405-.192l-1.054-5a4.313,4.313,0,0,1,1.965.316,2.76,2.76,0,0,1,.757.527,2.271,2.271,0,0,1,.307.374c.086.125.144.278.23.412a1.351,1.351,0,0,0,2.453-.431,1.418,1.418,0,0,0,0-.776,2.492,2.492,0,0,0-.23-.45,4.34,4.34,0,0,0-.287-.441,5.224,5.224,0,0,0-1.38-1.294,6.6,6.6,0,0,0-3.833-.958,4.859,4.859,0,0,0-.527,0l-.316-1.457a1.348,1.348,0,1,0-2.635.565l.307,1.457a6.814,6.814,0,0,0-3.23,2.338,4.629,4.629,0,0,0-.767,1.715,4.514,4.514,0,0,0,0,1.993,4.619,4.619,0,0,0,.8,1.811,4.159,4.159,0,0,0,1.476,1.16,9.583,9.583,0,0,0,3.776.757l1.112,5.232a4.053,4.053,0,0,1-1.917-.565,3.441,3.441,0,0,1-.738-.613,3.837,3.837,0,0,1-.3-.393c-.086-.144-.153-.288-.24-.431a1.358,1.358,0,0,0-2.463,1.093,2.819,2.819,0,0,0,.192.422c.086.153.173.307.268.45A6.172,6.172,0,0,0,72.3,163.6a6.708,6.708,0,0,0,3.661,1.3h.709L77,166.439a1.351,1.351,0,0,0,2.645-.556l-.3-1.409a7.14,7.14,0,0,0,3.45-2.108,4.868,4.868,0,0,0,0-6.3Zm-7.925-1.917a6.539,6.539,0,0,1-.958-.115,4.725,4.725,0,0,1-.958-.259,1.62,1.62,0,0,1-.719-.517,2.176,2.176,0,0,1-.3-.91,1.735,1.735,0,0,1,.134-.958,3.393,3.393,0,0,1,1.821-1.639Zm6.708,5.625a3.469,3.469,0,0,1-2.386,1.984l-1.016-4.792a8.861,8.861,0,0,1,1.917.249,2.617,2.617,0,0,1,.834.374,1.553,1.553,0,0,1,.508.652,2.195,2.195,0,0,1,.192,1.5Z" transform="translate(-29.885 -9.473)"/><circle class="j" cx="21.975" cy="21.975" r="21.975" transform="translate(0 2.473)"/><path class="p" d="M62.048,47.616A21.975,21.975,0,0,1,28.19,29.13C38.885,29.13,54.975,35.714,62.048,47.616Z" transform="translate(-28.19 -4.683)"/><path class="y" d="M45.688,34.714l-2.52-7.743a1.083,1.083,0,0,1,.393-1.188l6.593-4.792a1.083,1.083,0,0,1,1.275,0l6.584,4.792A1.083,1.083,0,0,1,58.405,27l-2.511,7.743a1.1,1.1,0,0,1-1.035.747H46.714A1.083,1.083,0,0,1,45.688,34.714Z" transform="translate(-28.812 -4.335)"/><path class="z" d="M63.609,14.888l2.722-2.75A22.224,22.224,0,0,0,55.2,6.56l-.585,3.833a.652.652,0,0,0,.355.7l7.82,3.939a.671.671,0,0,0,.815-.144Z" transform="translate(-29.291 -3.742)"/><path class="aa" d="M41.422,12.481,39.62,9.05a21.908,21.908,0,0,0-8.73,8.817L34.34,19.6a.671.671,0,0,0,.767-.125l6.162-6.229A.652.652,0,0,0,41.422,12.481Z" transform="translate(-28.303 -3.846)"/><path class="ab" d="M32.4,32.81l-3.833.623a22.042,22.042,0,0,0,5.712,11.059L37,41.741a.652.652,0,0,0,.115-.767L33.1,33.164a.661.661,0,0,0-.7-.355Z" transform="translate(-28.206 -4.836)"/><path class="ac" d="M48.865,47.815l-.585,3.833a22.042,22.042,0,0,0,12.238-2.012l-1.763-3.421a.661.661,0,0,0-.7-.355L49.43,47.268a.68.68,0,0,0-.565.546Z" transform="translate(-29.027 -5.38)"/><path class="ad" d="M69.242,27.238,67.91,35.863a.68.68,0,0,0,.364.7l3.44,1.735A21.821,21.821,0,0,0,73.631,26.03l-3.833.623A.661.661,0,0,0,69.242,27.238Z" transform="translate(-29.845 -4.554)"/></g><g transform="translate(9.842 28.717)"><path class="ae" d="M294.907,109.61h31.845a2.175,2.175,0,0,1,2.175,2.175v21.591a2.175,2.175,0,0,1-2.175,2.175H298.587l-4.495,4.485a.776.776,0,0,1-1.332-.546V111.785a2.175,2.175,0,0,1,2.147-2.175Z" transform="translate(-22.04 -32.296)"/><line class="af" x1="2.108" transform="translate(275.415 84.185)"/><line class="af" x1="20.959" transform="translate(280.552 84.185)"/><line class="af" x1="5.453" transform="translate(275.415 87.252)"/><line class="af" x1="17.988" transform="translate(283.523 87.252)"/><line class="af" x1="15.372" transform="translate(275.415 90.328)"/><line class="af" x1="2.789" transform="translate(298.722 90.328)"/><line class="af" x1="4.178" transform="translate(275.415 93.395)"/><line class="af" x1="18.419" transform="translate(283.092 93.395)"/><line class="af" x1="22.511" transform="translate(279 96.461)"/><path class="ag" d="M48.9,99.62H12.743a2.473,2.473,0,0,0-2.473,2.463V126.6a2.473,2.473,0,0,0,2.472,2.472H44.76l5.1,5.1a.891.891,0,0,0,1.514-.623V102.083A2.473,2.473,0,0,0,48.9,99.62Z" transform="translate(-10.27 -31.88)"/><line class="ah" x2="2.386" transform="translate(33.379 75.531)"/><line class="ah" x2="23.805" transform="translate(6.133 75.531)"/><line class="ah" x2="6.181" transform="translate(29.584 79.02)"/><line class="ah" x2="20.432" transform="translate(6.133 79.02)"/><line class="ah" x2="17.451" transform="translate(18.314 82.508)"/><line class="ah" x2="3.172" transform="translate(6.133 82.508)"/><line class="ah" x2="4.734" transform="translate(31.031 85.996)"/><line class="ah" x2="20.92" transform="translate(6.133 85.996)"/><line class="ah" x2="25.568" transform="translate(6.133 89.475)"/><path class="ai" d="M70.648,62.767H98.7a1.917,1.917,0,0,0,1.917-1.917V41.818A1.917,1.917,0,0,0,98.7,39.9H73.868l-3.92-3.91a.69.69,0,0,0-1.179.479V60.85a1.917,1.917,0,0,0,1.879,1.917Z" transform="translate(-12.707 -29.22)"/><line class="aj" x2="23" transform="translate(60.413 16.671)"/><line class="aj" x2="2.099" transform="translate(81.315 19.594)"/><line class="aj" x2="18.898" transform="translate(60.413 19.594)"/><line class="aj" x2="12.87" transform="translate(68.99 22.516)"/><line class="aj" x2="3.996" transform="translate(60.413 22.516)"/><line class="aj" x2="4.801" transform="translate(78.612 25.439)"/><line class="aj" x2="16.023" transform="translate(60.413 25.439)"/><line class="aj" x2="18.477" transform="translate(60.413 28.372)"/><path class="ak" d="M293.55,64.954H256.079A2.549,2.549,0,0,1,253.53,62.4V37a2.549,2.549,0,0,1,2.549-2.559h33.177l5.28-5.28a.958.958,0,0,1,1.572.642V62.386a2.559,2.559,0,0,1-2.559,2.568Z" transform="translate(-20.406 -28.935)"/><line class="al" x1="30.705" transform="translate(239.143 13.499)"/><line class="al" x1="2.808" transform="translate(239.143 17.399)"/><line class="al" x1="25.233" transform="translate(244.615 17.399)"/><line class="al" x1="17.173" transform="translate(241.213 21.309)"/><line class="al" x1="5.347" transform="translate(264.5 21.309)"/><line class="al" x1="6.411" transform="translate(239.143 25.209)"/><line class="al" x1="21.39" transform="translate(248.457 25.209)"/><line class="al" x1="24.667" transform="translate(245.18 29.11)"/></g></g></svg>