<svg width="455" height="260" viewBox="0 0 455 260" fill="none" xmlns="http://www.w3.org/2000/svg"><g clip-path="url(#clip0)"><path d="M300.062 32.553c-5.106 1.985-1.135 7.6-5.673 6.692-9.758-3.743-24.736-21.324-33.019-18.035-4.198 1.702-.738 5.615-5.446 6.522-7.603.908-32.735-25.577-54.578-20.416-22.75 7.089-5.219 31.759-23.09 42.76l148.13-1.644c-9.701-1.815-21.218-17.864-26.324-15.88zM455 228.097l-455-.794c22.693-8.167 7.375-67.431 26.38-80.418 14.128-7.089 25.304 3.97 33.474-2.269 15.601-11.909-7.262-80.758 50.776-92.838 85.61-17.75 136.103 113.085 175.873 115.75 23.657 0 25.302-43.895 55.201-43.895 34.834-.34 73.64 82.913 113.296 104.464z" fill="#D9EDF6"/><path d="M383.119 76.222c17.014 0 30.806-13.788 30.806-30.795 0-17.008-13.792-30.795-30.806-30.795-17.014 0-30.806 13.787-30.806 30.795 0 17.007 13.792 30.795 30.806 30.795z" fill="url(#paint0_linear)"/><mask id="a" maskUnits="userSpaceOnUse" x="352" y="14" width="62" height="63"><path d="M383.119 76.222c17.014 0 30.806-13.788 30.806-30.795 0-17.008-13.792-30.795-30.806-30.795-17.014 0-30.806 13.787-30.806 30.795 0 17.007 13.792 30.795 30.806 30.795z" fill="url(#paint1_linear)"/></mask><g mask="url(#a)"><path d="M362.922 61.59c17.014 0 30.806-13.788 30.806-30.795C393.728 13.787 379.936 0 362.922 0c-17.013 0-30.806 13.787-30.806 30.795 0 17.007 13.793 30.795 30.806 30.795z" fill="#E7EDF8"/></g><path opacity=".38" d="M363.077 58.01c2.39-.332 3.994-2.991 3.583-5.938-.41-2.947-2.68-5.066-5.069-4.734-2.39.333-3.994 2.991-3.584 5.938.411 2.947 2.681 5.067 5.07 4.734zM388.782 38.715a6.295 6.295 0 0 0-5.654-6.878 6.295 6.295 0 0 0-1.226 12.53 6.296 6.296 0 0 0 6.88-5.652zM370.752 33.77c1.933-.967 2.829-3.091 2.001-4.743-.828-1.653-3.066-2.207-4.999-1.24-1.933.968-2.829 3.092-2.001 4.744.828 1.653 3.066 2.207 4.999 1.24zM401.861 50.478c1.768-.541 2.688-2.655 2.055-4.722-.633-2.066-2.58-3.303-4.347-2.762-1.768.541-2.688 2.655-2.055 4.722.633 2.066 2.58 3.303 4.347 2.762zM395.423 25.326c.599-1.206-.348-2.896-2.116-3.773-1.768-.878-3.687-.611-4.287.595-.599 1.206.348 2.896 2.116 3.774 1.768.877 3.687.61 4.287-.596zM383.17 70.835c1.973-.03 3.553-1.424 3.528-3.116-.026-1.69-1.646-3.038-3.62-3.009-1.974.03-3.553 1.425-3.528 3.116.025 1.691 1.646 3.038 3.62 3.009zM405.888 36.894c.801-.274 1.121-1.457.715-2.642-.406-1.186-1.384-1.925-2.184-1.652-.801.274-1.121 1.457-.715 2.643.406 1.185 1.384 1.925 2.184 1.651z" fill="#96B7E1"/><path d="M340.967 153.748H211.161c-2.269 0-4.141-1.872-4.141-4.14V50.872c0-2.269 1.872-4.14 4.141-4.14h129.806c2.269 0 4.141 1.871 4.141 4.14v98.793c0 2.268-1.872 4.083-4.141 4.083z" fill="#4263EB"/><path d="M338.413 151.025H208.664c-2.269 0-4.141-1.872-4.141-4.14V48.092c0-2.268 1.872-4.14 4.141-4.14H338.47c2.269 0 4.142 1.872 4.142 4.14v98.793c-.057 2.325-1.929 4.14-4.199 4.14z" fill="#fff"/><path d="M40.734 202.293c-3.177-3.573 1.418-10.776-1.702-14.178-3.404-3.743-7.886 2.382-12.708-1.191-2.894-2.496.624-6.182-3.348-11.796-2.44-3.517-6.637-.227-10.666-2.326-.283-.17-.624.114-.567.454.738 4.48-3.347 7.146-.794 10.548 4.028 5.558 8.68 3.46 10.098 6.976 1.872 5.671-5.39 7.94-2.95 12.363 2.213 4.084 10.496 1.985 12.879 6.182 3.517 6.862-10.44 11.739-6.752 19.169 4.936 9.754 29.899 5.217 33.984 6.352.453-11.229 10.552-24.954 2.836-32.723-5.843-5.955-14.977 5.671-20.31.17z" fill="#4263EB"/><path d="M11.687 173.2c.738 4.48-3.347 7.145-.794 10.548 4.028 5.558 8.68 3.46 10.098 6.976 1.872 5.671-5.39 7.939-2.95 12.363 2.213 4.083 10.496 1.985 12.878 6.182 3.518 6.862-10.438 11.739-6.75 19.168 4.935 9.755 28.196 5.445 33.982 6.352v-.057l-46.407-61.816c-.057.113-.057.227-.057.284z" fill="url(#paint2_linear)"/><path d="M111.537 234.789H47.202c-1.305-1.531-2.27-3.006-1.305-4.65 1.248-1.248 2.213-.624 3.177 0-1.815-6.522-7.772-8.791-7.091-11.4 1.248-3.289 6.808.794 11.403 3.176-1.418-5.784-8.056-7.94-6.184-10.889 1.192-1.531 7.773 2.156 12.368 4.934-6.638-12.249-19.743-25.69-16.396-29.093 3.517-2.892 13.105 8.053 19.743 15.653-6.127-20.984-23.941-46.504-18.268-49.397 9.588-4.367 26.154 28.073 37.5 53.14-4.198-13.328-9.303-31.022-2.722-33.12 6.75-2.326 16.339 26.711 20.083 45.256 2.383-6.465 5.106-13.497 10.099-12.307 4.765 1.532 5.049 17.411 1.928 28.697z" fill="url(#paint3_linear)"/><path d="M122.997 220.214c4.936-1.021 6.184-2.212 9.191-5.841 2.44-12.987 17.02-59.321 20.424-71.458 2.213-11.286-7.432-15.312-12.992-15.823-4.595-.283-9.304 2.042-13.162 5.615l-.113.113c-.171.114-.284.284-.454.397a24.155 24.155 0 0 0-2.78 3.12 26.029 26.029 0 0 0-3.858 7.032c-1.816 5.217-3.688 11.796-5.39 18.998-4.141 17.241-7.375 38.281-7.318 53.65 3.46 4.14 9.417 5.728 16.452 4.197z" fill="url(#paint4_linear)"/><path d="M128.784 258.268s3.234-43.045 3.404-43.895c-3.006 3.629-4.255 4.82-9.19 5.841-7.035 1.531-12.992 0-16.51-4.14 0 3.346.17 6.465.511 9.187.964 6.692 6.07 33.29 10.893 33.517 0 0 10.382 3.063 10.892-.51z" fill="#fff"/><path d="M123.111 238.362c-3.234 11.626-7.149 21.607-7.149 21.607l78.179-.737-3.972-17.07c-.851.397-1.758.68-2.836.85-20.424 5.048-47.089 9.074-64.222-4.65z" fill="#254BE8"/><path d="M195.049 144.73c2.212-19.963-19.119-20.587-43.798-20.587-23.034.057-36.026 10.152-35.742 23.933 0 0 10.779 48.319 11.574 65.049.34 7.089-1.646 16.673-4.029 25.294 17.134 13.724 43.798 9.641 64.279 4.65 1.021-.17 1.986-.454 2.837-.851l-5.276-22.741 10.155-74.747z" fill="#4CCD9B"/><path d="M222.678 211.083c3.006-4.083 3.12-5.784 2.95-10.435-6.865-11.342-26.892-55.521-32.452-66.864-5.9-9.868-15.772-6.408-20.253-3.119-3.631 2.836-5.56 7.77-6.071 12.987v.17c0 .171-.057.397-.057.568a20.85 20.85 0 0 0 .057 4.196c.227 2.779.851 5.445 1.816 7.827 2.099 5.104 5.106 11.229 8.68 17.751 8.453 15.652 20.083 33.46 30.352 44.859 5.333.737 10.779-2.098 14.978-7.94z" fill="url(#paint5_linear)"/><path d="M252.406 235.64s-26.325-34.255-26.779-34.992c.171 4.707.057 6.409-2.95 10.435-4.198 5.785-9.701 8.621-15.034 7.94 2.269 2.495 4.425 4.707 6.524 6.465 5.22 4.367 26.722 20.757 30.466 17.751 0 0 9.758-4.65 7.773-7.599z" fill="#fff"/><path d="M177.348 81.836c-4.992 10.095-19.97 6.068-33.699 7.032l-17.19 2.609c-8.51-26.938 14.977-39.415 29.047-37.77 17.417.794 30.409 10.832 21.842 28.129z" fill="#254BE8"/><path d="M180.184 72.819c2.61 9.074 3.915 27.108.114 36.125-1.816 4.254-7.886 4.367-7.886 4.367l1.305 15.313s-.114 2.325-1.022 3.062c-6.864 5.558-15.488 7.77-22.579 1.475-.624-.568-2.213-4.197-2.213-4.197l2.95-26.768s-1.588-2.042-1.872-2.099c-7.319-.51-6.524-9.584-.227-10.151a.927.927 0 0 0 .738-.624c1.872-7.26 23.884 10.095 30.692-16.503z" fill="#fff"/><path d="M149.889 101.231c7.659 7.713 12.708 11.286 22.523 12.137l.965 11.456c-9.305-1.305-18.552-11.513-23.488-23.593z" fill="#EAEACD"/><path d="M157.377 108.377c4.482 2.666 9.361 4.367 14.694 4.934" stroke="#C8CBAC" stroke-width=".284" stroke-miterlimit="10" stroke-linecap="round"/><path d="M92.305 165.09c-15.318-4.821-13.957-31.362 7.999-38.905-4.141-12.42 2.78-20.473 17.304-25.634-1.362-6.182 2.156-9.017 6.864-11.059l13.957-5.388 31.487-11.285c2.439 5.784 6.694 17.977-.681 19.792 19.176 15.766-1.929 37.997-1.929 37.997s20.878 55.692-28.367 69.643c-10.268 1.702-20.877.34-29.387-4.48-6.468-3.686-10.099-9.414-12.085-17.354-6.013.17-12.594-7.032-5.162-13.327z" fill="#254BE8"/><path d="M168.497 148.813c8.899 0 16.113-7.211 16.113-16.106 0-8.895-7.214-16.106-16.113-16.106-8.898 0-16.112 7.211-16.112 16.106 0 8.895 7.214 16.106 16.112 16.106z" fill="#254BE8"/><path d="M172.412 95.787a5.899 5.899 0 1 0 0-11.796 5.899 5.899 0 1 0 0 11.796z" fill="#fff"/><path d="M164.753 174.447c8.898 0 16.112-7.211 16.112-16.106 0-8.896-7.214-16.107-16.112-16.107-8.899 0-16.112 7.211-16.112 16.107 0 8.895 7.213 16.106 16.112 16.106z" fill="#254BE8"/><path d="M382.268 207.794c18.079 0 32.735-14.651 32.735-32.723 0-18.073-14.656-32.723-32.735-32.723s-32.735 14.65-32.735 32.723c0 18.072 14.656 32.723 32.735 32.723z" fill="url(#paint6_linear)"/><path d="M407.36 178.804c2.07-13.847-7.481-26.749-21.333-28.818-13.851-2.07-26.759 7.478-28.829 21.324-2.07 13.847 7.481 26.749 21.333 28.819 13.852 2.069 26.759-7.479 28.829-21.325z" fill="#EAEACD"/><path d="M398.719 177.513c1.357-9.076-4.903-17.533-13.983-18.89-9.08-1.356-17.54 4.902-18.897 13.978-1.357 9.076 4.904 17.534 13.983 18.89 9.08 1.356 17.54-4.902 18.897-13.978z" stroke="#4CCD9B" stroke-width="1.575" stroke-miterlimit="10" stroke-linecap="round"/><path d="M385.141 175.485a2.893 2.893 0 1 0-5.722-.854 2.893 2.893 0 0 0 5.722.854z" fill="#239B6A"/><path d="M397.302 158.681l-15.034 16.39" stroke="#239B6A" stroke-width="1.575" stroke-miterlimit="10" stroke-linecap="round"/><path d="M398.38 177.453l-15.148-2.269" stroke="#239B6A" stroke-width="1.89" stroke-miterlimit="10" stroke-linecap="round"/><path d="M341.748 223.194c3.465-12.983-4.254-26.316-17.242-29.78-12.987-3.464-26.325 4.253-29.79 17.235-3.465 12.983 4.254 26.316 17.241 29.78 12.988 3.464 26.325-4.253 29.791-17.235z" fill="#F2751C"/><path d="M338.868 204.051c-3.177-5.047-8.17-8.96-14.354-10.605-12.992-3.46-26.324 4.253-29.785 17.24-1.645 6.182-.737 12.477 2.043 17.751l42.096-24.386z" fill="url(#paint7_linear)"/><path d="M335.389 221.498c2.528-9.472-3.104-19.2-12.579-21.727-9.476-2.528-19.207 3.102-21.736 12.574-2.528 9.473 3.104 19.2 12.58 21.728 9.476 2.527 19.207-3.103 21.735-12.575z" fill="#FECC4D"/><path d="M324.911 220.554c.057.227.114.397 0 0-.113-.397-.057-.226 0 0-.34-1.361-1.305-2.381-2.383-3.175a30.072 30.072 0 0 0-2.269-1.418l1.475-5.445a4.479 4.479 0 0 1 1.759 1.305c.227.283.397.567.51.907.057.17.114.34.114.511v.51a1.462 1.462 0 0 0 1.021 1.248c.567.17 1.192 0 1.589-.454.17-.227.283-.51.34-.794v-.567c0-.17-.057-.397-.057-.567a5.276 5.276 0 0 0-.737-1.985c-.738-1.248-1.986-2.212-3.291-2.836-.17-.056-.34-.17-.567-.227l.397-1.588a1.433 1.433 0 0 0-.511-1.531c-.453-.397-1.077-.454-1.645-.17-.397.17-.681.567-.794.964l-.454 1.588c-1.475-.17-3.007 0-4.368.681a6.2 6.2 0 0 0-1.646 1.304 4.984 4.984 0 0 0-.964 1.985c-.17.737-.227 1.474-.114 2.212.114.68.454 1.304.851 1.871.851 1.134 2.1 1.928 3.348 2.666l-1.532 5.728c-.624-.397-1.192-.851-1.589-1.475-.17-.283-.34-.624-.397-.964-.057-.17-.057-.34-.113-.51v-.567c-.057-.568-.454-1.135-.965-1.305a1.404 1.404 0 0 0-1.588.397c-.17.227-.341.511-.397.794v.51c0 .171 0 .397.056.568.057.737.284 1.417.624 2.098.624 1.304 1.702 2.382 2.951 3.119l.68.34-.454 1.702c-.17.567.057 1.191.511 1.531.454.397 1.078.454 1.645.17.397-.17.681-.567.795-.964l.397-1.531c1.475.283 3.063.227 4.482-.34a5.764 5.764 0 0 0 2.95-2.949c.454-1.135.624-2.269.34-3.347zm-6.865-5.898c-.283-.17-.567-.397-.851-.567-.283-.227-.567-.453-.794-.737a1.56 1.56 0 0 1-.454-.851c-.056-.34.057-.737.171-1.077.113-.34.34-.624.567-.851.681-.624 1.702-.737 2.61-.68l-1.249 4.763zm3.858 8.961c-.851.851-2.212.907-3.347.794l1.418-5.274c.624.34 1.249.737 1.816 1.247.227.227.454.454.624.794.17.284.17.567.17.908a2.865 2.865 0 0 1-.681 1.531z" fill="#F2751C"/><path d="M218.65 67.771h101.949M218.65 79.454h101.949M218.65 91.137h101.949M218.65 102.819h101.949M218.65 114.502h101.949M218.65 126.185h101.949M218.65 137.868h101.949" stroke="#DCE6F4" stroke-width="1.304" stroke-miterlimit="10" stroke-dasharray="8 8"/><path d="M218.65 130.948v6.693M226.366 123.406v14.235M234.081 130.722v6.919M241.797 122.385v15.256M249.513 114.502v23.139M257.229 107.526v30.115M264.944 116.203v21.438M272.66 124.2v13.441M280.375 121.137v16.504M288.091 109.228v28.413M295.807 116.203v21.438M303.523 120.4v17.24M311.238 123.859v13.781" stroke="#96B7E1" stroke-width="1.956" stroke-miterlimit="10" stroke-linecap="round"/><path d="M305.281 72.252c-17.417.397-26.38 26.485-32.848 25.918-5.446-.284-8.453-9.358-14.183-9.415-8.283 0-11.46 20.7-20.878 24.67-4.369.964-6.411-4.31-10.326-2.211-3.347 1.474-6.24 7.429-8.396 12.873" stroke="#F2751C" stroke-width="1.956" stroke-miterlimit="10" stroke-linecap="round" stroke-linejoin="round"/><path d="M305.281 74.408a2.156 2.156 0 1 0 0-4.311 2.156 2.156 0 0 0 0 4.31z" fill="#fff"/><path d="M305.281 70.607c.908 0 1.646.737 1.646 1.644a1.647 1.647 0 0 1-3.291 0c0-.907.738-1.644 1.645-1.644zm0-1.078a2.723 2.723 0 0 0-2.723 2.722c0 1.475 1.248 2.723 2.723 2.723 1.475 0 2.724-1.248 2.724-2.723a2.724 2.724 0 0 0-2.724-2.722z" fill="#F2751C"/><path d="M218.65 137.868h114.828" stroke="#96B7E1" stroke-width="1.304" stroke-miterlimit="10" stroke-linecap="round"/><path d="M326.102 67.715h7.375M326.102 79.397h7.375M326.102 91.08h7.375M326.102 102.706h7.375M326.102 114.389h7.375M326.102 126.072h7.375" stroke="#4263EB" stroke-width="1.956" stroke-miterlimit="10" stroke-linecap="round" stroke-linejoin="round"/><path d="M271.071 57.734h-52.365a1.585 1.585 0 0 1-1.588-1.589c0-.907.737-1.588 1.588-1.588h52.365c.908 0 1.588.737 1.588 1.588 0 .851-.68 1.589-1.588 1.589z" fill="#4565E8"/><path d="M18.665 87.11h-3.858v-3.856h-2.553v3.856H8.396v2.552h3.858v3.857h2.553v-3.857h3.858V87.11z" fill="url(#paint8_linear)"/><path d="M72.221 64.368h-6.24V58.13h-4.085v6.238h-6.298v4.084h6.297v6.295h4.085v-6.295h6.241v-4.084z" fill="url(#paint9_linear)"/><path d="M278.333 196.225h-6.24v-6.239h-4.085v6.239h-6.298v4.083h6.298v6.295h4.085v-6.295h6.24v-4.083z" fill="url(#paint10_linear)"/><path d="M382.268 96.751h-6.297v-6.295h-4.085v6.295h-6.298v4.084h6.298v6.295h4.085v-6.295h6.297v-4.084z" fill="url(#paint11_linear)"/><path d="M53.726 94.993h-3.858v-3.856h-2.496v3.856h-3.914v2.496h3.914v3.856h2.496v-3.856h3.858v-2.496z" fill="url(#paint12_linear)"/><path d="M305.622 177.793h-3.858v-3.856h-2.553v3.856h-3.858v2.552h3.858v3.857h2.553v-3.857h3.858v-2.552z" fill="url(#paint13_linear)"/><path d="M401.728 118.245h-3.858v-3.856h-2.496v3.856h-3.858v2.495h3.858v3.914h2.496v-3.914h3.858v-2.495z" fill="url(#paint14_linear)"/><path d="M93.553 47.752l-5.957 5.955c9.417 9.414 24.622 9.414 34.04 0l-5.957-5.955c-6.128 6.068-16 6.068-22.126 0z" fill="#4CCD9B"/><path d="M116.132 25.18l5.05-5.047c.227-.227.227-.624 0-.908a23.937 23.937 0 0 0-16.51-6.578v8.393c3.801 0 7.603 1.418 10.553 4.14.283.227.681.227.907 0zM87.596 53.706l5.957-5.954c-3.064-3.063-4.596-7.09-4.596-11.173h-8.396c0 6.182 2.326 12.364 7.035 17.127z" fill="#239B6A"/><path d="M93.553 25.634a15.68 15.68 0 0 1 11.119-4.594v-8.45c-6.183 0-12.367 2.325-17.076 7.032l5.957 6.012z" fill="#4CCD9B"/><path d="M115.679 47.752a15.67 15.67 0 0 0 4.595-11.116h8.397c0 6.182-2.326 12.363-7.035 17.07l-5.957-5.954z" fill="url(#paint15_linear)"/><path d="M88.957 36.58c0-3.97 1.532-7.94 4.596-11.003l-5.957-5.954c-4.652 4.65-7.035 10.775-7.035 16.9h8.396v.056z" fill="url(#paint16_linear)"/><path d="M88.957 36.693h-8.396c0 13.27 10.78 24.046 24.055 24.046v-8.393c-8.623-.057-15.659-7.033-15.659-15.653z" fill="#4FCD9C"/><path d="M120.274 36.693h8.397c0-6.635-2.667-12.59-6.979-16.957l-5.957 5.955a15.556 15.556 0 0 1 4.539 11.002zM80.561 36.693h8.397c0-4.367 1.758-8.28 4.652-11.116l-5.957-5.955c-4.369 4.31-7.092 10.379-7.092 17.07z" fill="#239B6A"/><path d="M104.616 21.04c4.368 0 8.283 1.758 11.119 4.65l5.957-5.954c-4.368-4.367-10.382-7.09-17.076-7.09v8.394z" fill="#4FCD9C"/><path d="M104.616 52.289c4.198 0 7.999-1.645 10.779-4.31.17-.17.511-.17.681 0l5.276 5.274c.17.17.17.51 0 .68-4.312 4.197-10.212 6.75-16.736 6.75v-8.394z" fill="#239B6A"/><path d="M93.61 25.577c2.836-2.779 6.694-4.537 11.006-4.537v-8.393c-6.638 0-12.595 2.665-16.964 6.975l5.957 5.955z" fill="url(#paint17_linear)"/></g><defs><linearGradient id="paint0_linear" x1="407.278" y1="70.538" x2="348.676" y2="9.646" gradientUnits="userSpaceOnUse"><stop stop-color="#B4CAE8"/><stop offset="1" stop-color="#FBFBFE"/></linearGradient><linearGradient id="paint1_linear" x1="407.278" y1="70.538" x2="348.676" y2="9.646" gradientUnits="userSpaceOnUse"><stop stop-color="#B4CAE8"/><stop offset="1" stop-color="#FBFBFE"/></linearGradient><linearGradient id="paint2_linear" x1="10.054" y1="203.974" x2="58.178" y2="203.974" gradientUnits="userSpaceOnUse"><stop stop-color="#1F46E7"/><stop offset="1" stop-color="#4263EB"/></linearGradient><linearGradient id="paint3_linear" x1="31.575" y1="188.137" x2="117.268" y2="218.693" gradientUnits="userSpaceOnUse"><stop stop-color="#F2751C"/><stop offset="1" stop-color="#FFC400"/></linearGradient><linearGradient id="paint4_linear" x1="125.378" y1="191.659" x2="137.25" y2="131.554" gradientUnits="userSpaceOnUse"><stop stop-color="#239B6A"/><stop offset=".287" stop-color="#32AE7C"/><stop offset=".724" stop-color="#45C593"/><stop offset="1" stop-color="#4CCD9B"/></linearGradient><linearGradient id="paint5_linear" x1="205.45" y1="188.252" x2="174.212" y2="135.538" gradientUnits="userSpaceOnUse"><stop stop-color="#239B6A"/><stop offset=".287" stop-color="#32AE7C"/><stop offset=".724" stop-color="#45C593"/><stop offset="1" stop-color="#4CCD9B"/></linearGradient><linearGradient id="paint6_linear" x1="349.883" y1="170.242" x2="414.577" y2="179.914" gradientUnits="userSpaceOnUse"><stop stop-color="#239B6A"/><stop offset="1" stop-color="#4CCD9B"/></linearGradient><linearGradient id="paint7_linear" x1="310.238" y1="231.943" x2="320.78" y2="192.42" gradientUnits="userSpaceOnUse"><stop stop-color="#F2751C"/><stop offset="1" stop-color="#FFC400"/></linearGradient><linearGradient id="paint8_linear" x1="8.414" y1="88.386" x2="18.662" y2="88.386" gradientUnits="userSpaceOnUse"><stop stop-color="#F2751C"/><stop offset="1" stop-color="#FFC400"/></linearGradient><linearGradient id="paint9_linear" x1="55.583" y1="66.436" x2="72.24" y2="66.436" gradientUnits="userSpaceOnUse"><stop stop-color="#F2751C"/><stop offset="1" stop-color="#FFC400"/></linearGradient><linearGradient id="paint10_linear" x1="261.695" y1="198.291" x2="278.352" y2="198.291" gradientUnits="userSpaceOnUse"><stop stop-color="#F2751C"/><stop offset="1" stop-color="#FFC400"/></linearGradient><linearGradient id="paint11_linear" x1="365.59" y1="98.79" x2="382.247" y2="98.79" gradientUnits="userSpaceOnUse"><stop stop-color="#F2751C"/><stop offset="1" stop-color="#FFC400"/></linearGradient><linearGradient id="paint12_linear" x1="43.477" y1="96.243" x2="53.725" y2="96.243" gradientUnits="userSpaceOnUse"><stop stop-color="#F2751C"/><stop offset="1" stop-color="#FFC400"/></linearGradient><linearGradient id="paint13_linear" x1="295.37" y1="179.068" x2="305.618" y2="179.068" gradientUnits="userSpaceOnUse"><stop stop-color="#F2751C"/><stop offset="1" stop-color="#FFC400"/></linearGradient><linearGradient id="paint14_linear" x1="391.508" y1="119.509" x2="401.756" y2="119.509" gradientUnits="userSpaceOnUse"><stop stop-color="#F2751C"/><stop offset="1" stop-color="#FFC400"/></linearGradient><linearGradient id="paint15_linear" x1="115.689" y1="45.138" x2="128.69" y2="45.138" gradientUnits="userSpaceOnUse"><stop stop-color="#4ACA99"/><stop offset="1" stop-color="#29A271"/></linearGradient><linearGradient id="paint16_linear" x1="87.062" y1="36.585" x2="87.062" y2="19.659" gradientUnits="userSpaceOnUse"><stop stop-color="#4CCD9B"/><stop offset="1" stop-color="#239B6A"/></linearGradient><linearGradient id="paint17_linear" x1="92.259" y1="24.198" x2="104.227" y2="12.225" gradientUnits="userSpaceOnUse"><stop stop-color="#4ACA99"/><stop offset="1" stop-color="#29A271"/></linearGradient><clipPath id="clip0"><path fill="#fff" d="M0 0h455v260H0z"/></clipPath></defs></svg>