<svg width="455" height="277" viewBox="0 0 455 277" fill="none" xmlns="http://www.w3.org/2000/svg"><g clip-path="url(#clip0)"><path d="M33.503 266.135l406.501.32c-47.096-22.119-22.527-97.619-62.986-126.515-32.481-24.868-35.289 15.151-71.664-7.48-38.033-25.571-23.037-81.38-89.022-81.38-63.176 0-62.091 65.015-93.297 83.874-31.971 18.475-48.69 8.886-71.026 24.868C17.166 185.969 18.506 243.121 0 266.199h33.503v-.064z" fill="url(#paint0_linear)"/><path d="M16.528 115.711c3.51-1.406 6.892 1.79 10.785 1.151 8.36-2.557 11.423-13.297 18.889-13.297 3.893.064 5.68 2.876 9.7 3.516 6.509.639 17.166-21.416 35.927-17.836 19.528 4.858 21.251 25.571 36.566 33.179H9.508c1.979-3.516 4.02-5.754 7.02-6.713zM441.407 80.87l-141.924-.32c1.149-3.132 2.361-6.137 4.977-7.608 2.745-1.598 4.787 1.215 7.85-1.278 2.042-1.918 2.68-5.754 4.658-7.224 2.999-2.046 5.616.895 8.679-1.087 2.425-2.749 2.489-6.457 3.127-9.909.957-4.986 2.361-9.653 7.785-12.594 16.146-7.16 36.885 31.453 48.308 32.348 6.828 0 10.147-13.808 18.698-13.808 10.083 0 26.419 14.064 37.842 21.48z" fill="#E7EDF8"/><path d="M402.672 150.552h-25.973c-7.785 0-14.167 6.329-14.167 14.192 0 11.06-8.998 20.074-20.038 20.074h-18.187c-7.466 0-14.103-4.795-16.528-11.891l-6.637-19.754c-2.999-8.822-15.379-9.205-18.825-.511l-5.871 14.703c-2.744 6.969-9.508 11.508-16.975 11.508h-39.565c-8.743 0-16.847-4.667-21.187-12.275l-11.04-19.242c-2.935-5.114-10.274-5.434-13.592-.512L171.279 151c-3.637 5.306-11.678 4.667-14.358-1.151l-5.808-22.695c-2.616-5.625-10.465-5.945-13.592-.639l-2.616 4.475c-2.298 3.9-6.51 6.329-11.04 6.329-4.404 0-8.296-2.941-9.509-7.224L95.914 63.801c-1.915-6.904-11.742-6.84-13.593.064l-4.53 17.005c-1.468 5.434-8.36 7.032-12.062 2.813l-8.36-9.59c-1.34-1.534-3.254-2.429-5.296-2.429H13.656" stroke="#239B6A" stroke-width="1.52" stroke-miterlimit="10" stroke-linecap="round"/><path d="M330.944 189.421a4.599 4.599 0 0 0 4.594-4.603 4.599 4.599 0 0 0-4.594-4.603 4.599 4.599 0 0 0-4.595 4.603 4.599 4.599 0 0 0 4.595 4.603z" fill="#239B6A"/><path d="M330.944 187.183a2.363 2.363 0 0 0 2.361-2.365 2.363 2.363 0 0 0-2.361-2.365 2.363 2.363 0 0 0-2.361 2.365 2.363 2.363 0 0 0 2.361 2.365z" fill="#fff"/><path d="M34.97 75.628a4.599 4.599 0 0 0 4.595-4.603 4.599 4.599 0 0 0-4.595-4.603 4.599 4.599 0 0 0-4.595 4.603 4.599 4.599 0 0 0 4.595 4.603z" fill="#239B6A"/><path d="M34.97 73.39a2.363 2.363 0 0 0 2.361-2.365 2.363 2.363 0 0 0-2.361-2.366 2.363 2.363 0 0 0-2.361 2.366 2.363 2.363 0 0 0 2.361 2.365z" fill="#fff"/><path d="M130.948 61.819h36.821c4.595 0 8.552-3.26 9.445-7.8l8.615-44.238c1.34-7.032 11.423-6.904 12.572.192l7.274 43.6c.958 5.753 9.254 5.753 10.147 0l4.148-25.38c.957-5.818 9.317-5.818 10.274 0l17.358 66.933c1.787 10.868 11.167 18.859 22.144 18.859h62.921" stroke="#F2751C" stroke-width="1.5" stroke-miterlimit="10" stroke-linecap="round" stroke-dasharray="1 1"/><path d="M191.828 9.206a4.599 4.599 0 0 0 4.594-4.603A4.599 4.599 0 0 0 191.828 0a4.599 4.599 0 0 0-4.595 4.603 4.599 4.599 0 0 0 4.595 4.603z" fill="#F2751C"/><path d="M191.827 6.968a2.363 2.363 0 0 0 2.362-2.365 2.363 2.363 0 0 0-2.362-2.365 2.363 2.363 0 0 0-2.361 2.365 2.363 2.363 0 0 0 2.361 2.365z" fill="#fff"/><path d="M160.558 171.073h-47.733a18.052 18.052 0 0 0-12.763 5.306l-6.063 6.074a18.052 18.052 0 0 1-12.762 5.306H2.744" stroke="#4263EB" stroke-width="1.5" stroke-miterlimit="10" stroke-linecap="round" stroke-dasharray="5 5"/><path d="M122.971 175.676a4.599 4.599 0 0 0 4.595-4.603 4.599 4.599 0 0 0-4.595-4.603 4.6 4.6 0 0 0-4.595 4.603 4.6 4.6 0 0 0 4.595 4.603z" fill="#4263EB"/><path d="M122.971 173.439a2.363 2.363 0 0 0 2.361-2.366 2.363 2.363 0 0 0-2.361-2.365 2.363 2.363 0 0 0-2.361 2.365 2.363 2.363 0 0 0 2.361 2.366z" fill="#fff"/><path d="M30.887 191.658a4.598 4.598 0 0 0 4.594-4.603 4.598 4.598 0 0 0-4.594-4.602 4.598 4.598 0 0 0-4.595 4.602 4.598 4.598 0 0 0 4.595 4.603z" fill="#4263EB"/><path d="M30.887 189.421a2.363 2.363 0 0 0 2.36-2.365 2.363 2.363 0 0 0-2.36-2.366 2.363 2.363 0 0 0-2.362 2.366 2.363 2.363 0 0 0 2.362 2.365z" fill="#fff"/><path d="M224.118 168.708s10.083 66.23 37.842 78.696c27.76 12.466 49.967 18.604 49.967 18.604s-79.13 11.059-87.426.958c-31.397-38.165-.383-98.258-.383-98.258z" fill="url(#paint1_linear)"/><path d="M216.524 158.735c-19.847-15.087-49.074-16.749-73.834-1.151-20.421 20.969 12.954 80.678 7.083 111.364l83.023 1.598c-11.486-32.284-5.424-68.467-8.678-101.774-.319-3.836-4.595-7.799-7.594-10.037z" fill="#FECC4D"/><path d="M148.689 239.477s22.143-61.563 14.486-71.6c-7.658-10.037-18.124-14.128-22.782-8.567-4.276 5.115-40.906 80.231-25.462 104.78 7.466 11.826 74.28 2.045 74.28 2.045l17.932-15.534s-56.412-11.572-58.454-11.124z" fill="url(#paint2_linear)"/><path d="M229.159 101.071s6.063 9.973-7.721 24.165c-13.784 14.193-1.468-23.27-1.468-23.27l9.189-.895z" fill="#4263EB"/><path d="M225.011 98.706c.638 17.964-1.021 29.791-7.211 42.257-1.723 3.452-5.552 5.817-9.444 5.626h-.383c-2.042-.128-3.51.639-4.595 2.429l-.383 10.101c0 .767-.191 1.598-.574 2.301-7.594 15.663-28.908 5.69-33.758-6.649-.702-1.854-.702-3.899-.064-5.753l9.381-16.494 11.231-43.6 35.8 9.782z" fill="#fff"/><path d="M225.139 108.04c-6.126 5.242-21.952-6.841-29.866-3.644-4.084 1.662-.319 6.584-4.722 9.525-2.552 1.662-1.021-.767-1.531-1.47-1.341-1.854-7.786 7.735-5.808 9.141l-4.722 12.786a1.86 1.86 0 0 1-3.127-.831c-3.573-12.53-2.871-22.119-.51-34.777 2.297-12.53 15.379-21.288 31.078-16.813 12.826-3.005 43.649 5.37 19.208 26.083z" fill="#4263EB"/><path d="M208.994 146.525s-7.85 1.086-14.805-5.051c-2.553-2.237-4.659-5.178-5.552-10.484 0 0 .893 44.878 11.231 34.649 8.424-8.31.957-9.205 4.978-17.9.51-1.023 4.148-1.214 4.148-1.214z" fill="#EAEACD"/><path d="M186.692 124.259c3.268-.264 5.649-3.788 5.32-7.87-.329-4.083-3.244-7.178-6.511-6.914-3.267.265-5.649 3.788-5.32 7.871.329 4.082 3.244 7.178 6.511 6.913zM201.336 266.135h-12.125c-.446-3.26 4.595-16.749 7.85-18.667.574-.32 1.212-.703 1.786-1.023a18.564 18.564 0 0 1 11.615-2.045l19.272 4.73c1.212.32 1.659 1.918.829 3.005l-1.148 1.534c-1.34 1.726-3.319 2.749-5.361 2.813-2.106 0-4.722 0-6.317-.128-2.17-.128-4.659-.383-6.318 1.151 0-.064-1.468 8.694-10.083 8.63z" fill="#fff"/><path d="M450.406 266.135H11.678v10.229h438.728v-10.229z" fill="#fff"/><path d="M70.707 224.709H1.787v41.554h68.92v-41.554z" fill="#96B7E1"/><path d="M90.553 260.893l-19.846 5.37v-41.554l19.846 2.685v33.499z" fill="#4263EB"/><path d="M78.939 239.861h-54.88v37.078h54.88v-37.078z" fill="#D9EDF6"/><path d="M78.939 239.861l18.06 2.685v29.087l-18.06 5.306v-37.078z" fill="#96B7E1"/><path d="M33.12 245.422h46.074M52.966 249.386h26.228M24.058 260.701h34.205M24.058 264.985h13.657" stroke="#96B7E1" stroke-width="1.683" stroke-miterlimit="10" stroke-linecap="round"/><path d="M400.095 277h54.881v-37.079h-54.881V277z" fill="#D9EDF6"/><path d="M400.183 239.861l-18.123 2.685v29.087l18.123 5.306v-37.078z" fill="#96B7E1"/><path d="M446.002 264.985h-46.074M426.155 261.021h-26.291M455 249.706h-34.141M455 245.422h-13.593" stroke="#96B7E1" stroke-width="1.683" stroke-miterlimit="10" stroke-linecap="round"/><path d="M277.467 266.2h-53.86c-5.424 0-9.827-4.412-9.827-9.846h63.751v9.846h-.064z" fill="#1F46E7"/><path d="M349.45 266.2h-88.894l13.465-64.249c.447-2.173 2.234-3.58 4.595-3.58h84.172c6.317 0 6.509 2.302 5.679 6.457l-11.55 55.234a7.595 7.595 0 0 1-7.467 6.138z" fill="#4263EB"/><path d="M349.45 266.2c3.638 0 6.765-2.558 7.467-6.074l9.253-44.238c-29.61 35.544-84.683 8.247-101.466 50.312h84.746z" fill="#3054E9"/><path d="M324.626 235.322c-1.148 3.899-4.914 6.904-8.423 6.648-3.51-.255-5.361-3.58-4.212-7.479 1.149-3.9 4.914-6.905 8.423-6.649 3.446.192 5.361 3.58 4.212 7.48z" fill="#fff"/><path d="M376.699 106.569l.064 59.646c0 .383.319.703.702.703l41.671-.064c.383 0 .702-.32.702-.703l-.064-48.842-11.55-11.507-30.823.064c-.383-.064-.702.256-.702.703z" fill="#FFC400"/><path d="M375.423 163.466c-.128 0-.255-.128-.255-.256l-.064-59.645c0-.128.128-.256.255-.256l30.631-.064 11.232 11.251.064 48.65a.275.275 0 0 1-.256.256l-41.607.064z" fill="#fff"/><path d="M405.799 103.884l10.976 10.932.064 48.138-41.161.064-.064-59.07 30.185-.064zm.383-.959l-30.823.064c-.447 0-.766.32-.766.703l.064 59.646c0 .384.319.703.702.703l41.671-.064a.708.708 0 0 0 .702-.703l-.064-48.842-11.486-11.507z" fill="#FFC400"/><path d="M417.221 115.072l-11.55-11.507v10.868c0 .383.319.703.702.703l10.848-.064zM382.531 126.26c.176 0 .32-.013.432-.04a.908.908 0 0 0 .28-.12.416.416 0 0 0 .144-.184.635.635 0 0 0 .04-.232c0-.181-.085-.331-.256-.448-.17-.123-.464-.253-.88-.392a7.877 7.877 0 0 1-.544-.216 2.162 2.162 0 0 1-.488-.312 1.565 1.565 0 0 1-.352-.456c-.09-.181-.136-.4-.136-.656s.048-.485.144-.688c.096-.208.232-.384.408-.528.176-.144.39-.253.64-.328.251-.08.534-.12.848-.12.374 0 .696.04.968.12.272.08.496.168.672.264l-.36.984a3.113 3.113 0 0 0-.52-.208 2.106 2.106 0 0 0-.68-.096c-.298 0-.514.043-.648.128-.128.08-.192.205-.192.376 0 .101.024.187.072.256a.784.784 0 0 0 .2.192c.091.053.192.104.304.152.118.043.246.088.384.136.288.107.539.213.752.32.214.101.39.221.528.36.144.139.251.301.32.488.07.187.104.413.104.68 0 .517-.181.92-.544 1.208-.362.283-.909.424-1.64.424a4.18 4.18 0 0 1-.664-.048 3.396 3.396 0 0 1-.92-.24 3.266 3.266 0 0 1-.272-.136l.352-.992c.166.091.368.173.608.248.246.069.544.104.896.104zm7.1-4.592v1.064h-1.672v4.48h-1.248v-4.48h-1.672v-1.064h4.592zm1.663 2.768c0 .272.032.517.096.736.069.219.165.408.288.568.128.155.283.275.464.36.181.085.389.128.624.128.229 0 .435-.043.616-.128.187-.085.341-.205.464-.36.128-.16.224-.349.288-.568.069-.219.104-.464.104-.736 0-.272-.035-.517-.104-.736a1.546 1.546 0 0 0-.288-.568 1.205 1.205 0 0 0-.464-.368 1.435 1.435 0 0 0-.616-.128 1.37 1.37 0 0 0-1.088.504 1.715 1.715 0 0 0-.288.568 2.587 2.587 0 0 0-.096.728zm4.232 0c0 .475-.072.893-.216 1.256a2.587 2.587 0 0 1-.576.904c-.245.24-.539.421-.88.544a3.142 3.142 0 0 1-1.088.184c-.379 0-.736-.061-1.072-.184a2.5 2.5 0 0 1-.88-.544 2.607 2.607 0 0 1-.592-.904 3.387 3.387 0 0 1-.216-1.256c0-.475.075-.891.224-1.248.149-.363.349-.667.6-.912.256-.245.549-.429.88-.552a3.047 3.047 0 0 1 1.056-.184c.379 0 .736.061 1.072.184.336.123.629.307.88.552.251.245.448.549.592.912.144.357.216.773.216 1.248zm2.664-2.832c.832 0 1.47.149 1.912.448.443.293.664.752.664 1.376 0 .389-.09.707-.272.952-.176.24-.432.429-.768.568.112.139.23.299.352.48.123.176.243.363.36.56a13.229 13.229 0 0 1 .664 1.224h-1.4a59.006 59.006 0 0 0-.312-.552 8.82 8.82 0 0 0-.32-.544 9.498 9.498 0 0 0-.32-.496 4.851 4.851 0 0 0-.32-.432h-.616v2.024h-1.248v-5.464a7.08 7.08 0 0 1 .84-.112c.294-.021.555-.032.784-.032zm.072 1.064c-.09 0-.173.003-.248.008l-.2.016v1.504h.352c.47 0 .806-.059 1.008-.176.203-.117.304-.317.304-.6 0-.272-.104-.464-.312-.576-.202-.117-.504-.176-.904-.176zm5.407 1.28c.224-.379.437-.757.64-1.136.202-.379.389-.76.56-1.144h1.376a36.036 36.036 0 0 1-.944 1.736c-.326.56-.67 1.123-1.032 1.688v2.12h-1.248v-2.104a46.901 46.901 0 0 1-1.04-1.696 37.913 37.913 0 0 1-.944-1.744h1.448c.17.384.354.765.552 1.144.197.379.408.757.632 1.136zm7.091-.824c-.208.272-.43.568-.664.888-.235.32-.432.648-.592.984h1.256v-1.872zm1.168-1.456v3.328h.592v.976h-.592v1.24h-1.168v-1.24h-2.392v-.872c.117-.235.264-.499.44-.792.176-.299.37-.603.584-.912.218-.315.448-.621.688-.92.24-.299.48-.568.72-.808h1.128z" fill="#FFC400"/><path d="M381.358 133.419h29.482M381.358 137.255h29.482M381.358 141.091h29.482M381.358 144.927h29.482M381.358 148.762h29.482M381.358 152.598h29.482" stroke="#FFC400" stroke-width="1.52" stroke-miterlimit="10" stroke-linecap="round"/><path d="M47.35 102.606l.064 59.645c0 .384.32.703.702.703l41.671-.063a.71.71 0 0 0 .703-.704l-.064-48.841-11.55-11.507-30.823.064a.708.708 0 0 0-.702.703z" fill="#4CCD9B"/><path d="M46.074 159.566a.275.275 0 0 1-.255-.255l-.064-59.646c0-.128.128-.256.256-.256l30.63-.064 11.232 11.252.064 48.65a.274.274 0 0 1-.255.255l-41.608.064z" fill="#fff"/><path d="M76.514 99.92l10.976 10.933.064 48.138-41.16.064-.064-59.07 30.184-.064zm.383-.958l-30.823.064c-.446 0-.765.32-.765.703l.063 59.646c0 .383.32.703.702.703l41.672-.064c.382 0 .702-.32.702-.703l-.064-48.842-11.487-11.507z" fill="#4CCD9B"/><path d="M88.448 110.469L76.897 98.962v10.868c0 .383.32.703.702.703l10.849-.064zM53.22 122.341c.175 0 .32-.014.431-.04a.92.92 0 0 0 .28-.12.432.432 0 0 0 .144-.184.647.647 0 0 0 .04-.232c0-.182-.085-.331-.256-.448-.17-.123-.464-.254-.88-.392a7.663 7.663 0 0 1-.544-.216 2.224 2.224 0 0 1-.488-.312 1.558 1.558 0 0 1-.352-.456c-.09-.182-.136-.4-.136-.656s.048-.486.144-.688c.096-.208.232-.384.408-.528.176-.144.39-.254.64-.328.251-.08.534-.12.848-.12.374 0 .696.04.968.12.272.08.496.168.672.264l-.36.984a3.053 3.053 0 0 0-.52-.208 2.11 2.11 0 0 0-.68-.096c-.298 0-.514.042-.648.128-.128.08-.192.205-.192.376 0 .101.024.186.072.256a.778.778 0 0 0 .2.192c.091.053.192.104.304.152l.384.136c.288.106.539.213.752.32.214.101.39.221.528.36.144.138.251.301.32.488.07.186.104.413.104.68 0 .517-.181.92-.544 1.208-.362.282-.909.424-1.64.424a4.17 4.17 0 0 1-.664-.048 3.37 3.37 0 0 1-.92-.24 3.41 3.41 0 0 1-.272-.136l.352-.992c.166.09.368.173.608.248.246.069.544.104.896.104zm7.1-4.592v1.064h-1.673v4.48H57.4v-4.48h-1.672v-1.064h4.592zm1.662 2.768c0 .272.032.517.096.736.07.218.165.408.288.568.128.154.283.274.464.36.181.085.39.128.624.128.23 0 .435-.043.616-.128.187-.086.341-.206.464-.36.128-.16.224-.35.288-.568.07-.219.104-.464.104-.736 0-.272-.035-.518-.104-.736a1.538 1.538 0 0 0-.288-.568 1.204 1.204 0 0 0-.464-.368 1.42 1.42 0 0 0-.616-.128 1.373 1.373 0 0 0-1.088.504 1.72 1.72 0 0 0-.288.568 2.582 2.582 0 0 0-.096.728zm4.232 0c0 .474-.072.893-.216 1.256-.139.357-.33.658-.576.904-.245.24-.539.421-.88.544a3.164 3.164 0 0 1-1.088.184c-.379 0-.736-.062-1.072-.184a2.498 2.498 0 0 1-.88-.544 2.622 2.622 0 0 1-.592-.904 3.39 3.39 0 0 1-.216-1.256c0-.475.075-.891.224-1.248.15-.363.35-.667.6-.912.256-.246.55-.43.88-.552a3.047 3.047 0 0 1 1.056-.184c.379 0 .736.061 1.072.184.336.122.63.306.88.552.25.245.448.549.592.912.144.357.216.773.216 1.248zm2.664-2.832c.832 0 1.47.149 1.912.448.443.293.664.752.664 1.376 0 .389-.09.706-.272.952-.176.24-.432.429-.768.568.112.138.23.298.352.48.123.176.243.362.36.56a13.229 13.229 0 0 1 .664 1.224h-1.4a52.374 52.374 0 0 0-.312-.552 9.027 9.027 0 0 0-.32-.544 9.804 9.804 0 0 0-.32-.496 5.076 5.076 0 0 0-.32-.432h-.616v2.024h-1.248v-5.464a6.88 6.88 0 0 1 .84-.112c.294-.022.555-.032.784-.032zm.072 1.064c-.09 0-.173.002-.248.008l-.2.016v1.504h.352c.47 0 .806-.059 1.008-.176.203-.118.304-.318.304-.6 0-.272-.104-.464-.312-.576-.202-.118-.504-.176-.904-.176zm5.407 1.28c.224-.379.437-.758.64-1.136.202-.379.389-.76.56-1.144h1.376a35.775 35.775 0 0 1-.944 1.736 45.61 45.61 0 0 1-1.032 1.688v2.12h-1.248v-2.104a49.155 49.155 0 0 1-1.04-1.696 39.046 39.046 0 0 1-.944-1.744h1.448c.17.384.354.765.552 1.144.197.378.408.757.632 1.136zm5.099-1.128c.154-.064.314-.136.48-.216.17-.086.335-.176.495-.272a8.25 8.25 0 0 0 .457-.312c.149-.112.282-.23.4-.352h.832v5.544h-1.193v-3.992c-.16.106-.338.205-.536.296-.197.085-.389.16-.576.224l-.36-.92z" fill="#4CCD9B"/><path d="M52.01 129.52h29.546M52.01 133.355h29.546M52.01 137.191h29.546M52.01 141.027h29.546M52.01 144.863h29.546M52.01 148.698h29.546" stroke="#4CCD9B" stroke-width="1.52" stroke-miterlimit="10" stroke-linecap="round"/><path d="M120.482 40.595l.064 59.645a.71.71 0 0 0 .702.704l41.671-.064a.71.71 0 0 0 .702-.704l-.064-48.841-11.55-11.507-30.823.064a.71.71 0 0 0-.702.703z" fill="#96B7E1"/><path d="M119.206 97.555c-.127 0-.255-.128-.255-.255l-.064-59.646c0-.128.128-.256.255-.256l30.632-.064 11.231 11.252.064 48.65c0 .127-.128.255-.255.255l-41.608.064z" fill="#fff"/><path d="M149.582 37.91l10.976 10.932.064 48.138-41.161.064-.063-59.07 30.184-.064zm.383-.96l-30.823.065c-.446 0-.766.32-.766.703l.064 59.646c0 .383.319.703.702.703l41.671-.064c.383 0 .702-.32.702-.703l-.063-48.842-11.487-11.507z" fill="#96B7E1"/><path d="M161.515 48.458l-11.55-11.507v10.868c0 .383.319.703.702.703l10.848-.064z" fill="#96B7E1"/><path d="M126.331 60.312c.176 0 .32-.013.432-.04a.93.93 0 0 0 .28-.12.432.432 0 0 0 .144-.184.657.657 0 0 0 .04-.232c0-.181-.086-.33-.256-.448-.171-.122-.464-.253-.88-.392a7.496 7.496 0 0 1-.544-.216 2.168 2.168 0 0 1-.488-.312 1.548 1.548 0 0 1-.352-.456 1.45 1.45 0 0 1-.136-.656c0-.256.048-.485.144-.688.096-.208.232-.384.408-.528.176-.144.389-.253.64-.328.25-.08.533-.12.848-.12.373 0 .696.04.968.12.272.08.496.168.672.264l-.36.984a3.113 3.113 0 0 0-.52-.208 2.115 2.115 0 0 0-.68-.096c-.299 0-.515.043-.648.128-.128.08-.192.206-.192.376a.44.44 0 0 0 .072.256c.048.07.114.134.2.192.09.053.192.104.304.152.117.043.245.088.384.136.288.107.538.213.752.32.213.102.389.221.528.36.144.139.25.301.32.488.069.187.104.413.104.68 0 .517-.182.92-.544 1.208-.363.283-.91.424-1.64.424-.246 0-.467-.016-.664-.048a3.997 3.997 0 0 1-.528-.104 3.277 3.277 0 0 1-.392-.136 3.088 3.088 0 0 1-.272-.136l.352-.992c.165.09.368.173.608.248.245.07.544.104.896.104zm7.1-4.592v1.064h-1.672v4.48h-1.248v-4.48h-1.672V55.72h4.592zm1.662 2.768c0 .272.032.517.096.736.07.219.166.408.288.568.128.155.283.275.464.36.182.085.39.128.624.128.23 0 .435-.043.616-.128.187-.085.342-.205.464-.36.128-.16.224-.35.288-.568.07-.218.104-.464.104-.736 0-.272-.034-.517-.104-.736a1.542 1.542 0 0 0-.288-.568 1.2 1.2 0 0 0-.464-.368 1.426 1.426 0 0 0-.616-.128 1.38 1.38 0 0 0-.624.136 1.295 1.295 0 0 0-.464.368 1.75 1.75 0 0 0-.288.568 2.586 2.586 0 0 0-.096.728zm4.232 0c0 .475-.072.894-.216 1.256a2.56 2.56 0 0 1-.576.904c-.245.24-.538.421-.88.544a3.148 3.148 0 0 1-1.088.184c-.378 0-.736-.061-1.072-.184a2.497 2.497 0 0 1-.88-.544 2.622 2.622 0 0 1-.592-.904 3.387 3.387 0 0 1-.216-1.256c0-.474.075-.89.224-1.248.15-.363.35-.666.6-.912.256-.245.55-.43.88-.552a3.054 3.054 0 0 1 1.056-.184 3.1 3.1 0 0 1 1.072.184c.336.123.63.307.88.552.251.245.448.55.592.912.144.357.216.773.216 1.248zm2.665-2.832c.832 0 1.469.15 1.912.448.442.294.664.752.664 1.376 0 .39-.091.707-.272.952-.176.24-.432.43-.768.568a9.89 9.89 0 0 1 .712 1.04c.122.192.24.395.352.608.112.208.216.413.312.616h-1.4a145.1 145.1 0 0 0-.312-.552 9.457 9.457 0 0 0-.32-.544 10.788 10.788 0 0 0-.32-.496 5.277 5.277 0 0 0-.32-.432h-.616v2.024h-1.248V55.8a7.06 7.06 0 0 1 .84-.112c.293-.021.554-.032.784-.032zm.072 1.064c-.091 0-.174.003-.248.008l-.2.016v1.504h.352c.469 0 .805-.058 1.008-.176.202-.117.304-.317.304-.6 0-.272-.104-.464-.312-.576-.203-.117-.504-.176-.904-.176zm5.406 1.28c.224-.379.437-.757.64-1.136.203-.378.389-.76.56-1.144h1.376a35.893 35.893 0 0 1-.944 1.736c-.325.56-.669 1.123-1.032 1.688v2.12h-1.248V59.16a48.46 48.46 0 0 1-1.04-1.696 38.957 38.957 0 0 1-.944-1.744h1.448c.171.384.355.766.552 1.144.197.379.408.758.632 1.136zm8.507-.824c0 .203-.04.398-.12.584-.08.187-.184.368-.312.544-.128.17-.272.336-.432.496-.16.16-.317.312-.472.456-.08.075-.168.16-.264.256a8.036 8.036 0 0 0-.496.552.65.65 0 0 0-.12.2h2.384v1h-3.696a1.258 1.258 0 0 1-.016-.224v-.192c0-.256.04-.49.12-.704.085-.213.195-.41.328-.592.133-.187.283-.36.448-.52.171-.16.339-.32.504-.48l.36-.344c.112-.112.211-.218.296-.32.085-.106.152-.21.2-.312a.774.774 0 0 0 .072-.32c0-.234-.067-.4-.2-.496a.827.827 0 0 0-.496-.144c-.144 0-.28.024-.408.072a1.84 1.84 0 0 0-.344.16 1.79 1.79 0 0 0-.264.184 1.852 1.852 0 0 0-.168.144l-.592-.832c.235-.218.507-.397.816-.536a2.396 2.396 0 0 1 1.008-.216c.325 0 .605.038.84.112.235.075.427.181.576.32.155.133.267.299.336.496.075.192.112.41.112.656z" fill="#4263EB"/><path d="M125.141 67.509h29.483M125.141 71.344h29.483M125.141 75.18h29.483M125.141 79.016h29.483M125.141 82.852h29.483M125.141 86.688h29.483" stroke="#96B7E1" stroke-width="1.52" stroke-miterlimit="10" stroke-linecap="round"/><path d="M286.273 59.518l.064 69.235c0 .447.383.831.83.831l48.372-.064a.846.846 0 0 0 .829-.831l-.064-56.705-13.401-13.361-35.8.064c-.447 0-.83.32-.83.83z" fill="#4CCD9B"/><path d="M284.742 125.684c-.191 0-.319-.128-.319-.319l-.128-69.235c0-.192.128-.32.383-.32l35.609-.064 13.082 13.105.064 56.514c0 .191-.128.319-.319.319h-48.372z" fill="#fff"/><path d="M320.095 56.258l12.827 12.785.064 56.13-48.116.064-.064-68.916 35.289-.063zm.447-1.023l-35.8.063c-.51 0-.893.384-.893.832l.063 69.234c0 .448.383.832.83.832l48.372-.064a.846.846 0 0 0 .829-.831l-.064-56.705-13.337-13.361z" fill="#4CCD9B"/><path d="M333.943 68.596l-13.401-13.361v12.594c0 .447.383.83.83.83l12.571-.063zM292.698 82.647c.176 0 .32-.014.432-.04a.919.919 0 0 0 .28-.12.43.43 0 0 0 .144-.184.634.634 0 0 0 .04-.232c0-.182-.085-.331-.256-.448-.171-.123-.464-.254-.88-.392a7.682 7.682 0 0 1-.544-.216 2.183 2.183 0 0 1-.488-.312 1.565 1.565 0 0 1-.352-.456 1.45 1.45 0 0 1-.136-.656c0-.256.048-.486.144-.688.096-.208.232-.384.408-.528.176-.144.389-.254.64-.328.251-.08.533-.12.848-.12.373 0 .696.04.968.12.272.08.496.168.672.264l-.36.984a3.122 3.122 0 0 0-.52-.208 2.11 2.11 0 0 0-.68-.096c-.299 0-.515.042-.648.128-.128.08-.192.205-.192.376 0 .101.024.186.072.256.048.069.115.133.2.192.091.053.192.104.304.152.117.042.245.088.384.136.288.106.539.213.752.32.213.101.389.221.528.36.144.138.251.301.32.488.069.186.104.413.104.68 0 .517-.181.92-.544 1.208-.363.282-.909.424-1.64.424-.245 0-.467-.016-.664-.048a3.322 3.322 0 0 1-.92-.24 3.204 3.204 0 0 1-.272-.136l.352-.992c.165.09.368.173.608.248.245.069.544.104.896.104zm7.1-4.592v1.064h-1.672v4.48h-1.248v-4.48h-1.672v-1.064h4.592zm1.662 2.768c0 .272.032.517.096.736.07.218.166.408.288.568.128.154.283.274.464.36.182.085.39.128.624.128.23 0 .435-.043.616-.128.187-.086.342-.206.464-.36.128-.16.224-.35.288-.568.07-.219.104-.464.104-.736 0-.272-.034-.518-.104-.736a1.543 1.543 0 0 0-.288-.568 1.201 1.201 0 0 0-.464-.368 1.427 1.427 0 0 0-.616-.128c-.234 0-.442.045-.624.136a1.296 1.296 0 0 0-.464.368 1.75 1.75 0 0 0-.288.568 2.587 2.587 0 0 0-.096.728zm4.232 0c0 .474-.072.893-.216 1.256-.138.357-.33.658-.576.904-.245.24-.538.421-.88.544a3.145 3.145 0 0 1-1.088.184c-.378 0-.736-.062-1.072-.184a2.495 2.495 0 0 1-.88-.544 2.62 2.62 0 0 1-.592-.904 3.386 3.386 0 0 1-.216-1.256c0-.475.075-.891.224-1.248.15-.363.35-.667.6-.912.256-.246.55-.43.88-.552a3.057 3.057 0 0 1 1.056-.184c.379 0 .736.061 1.072.184.336.122.63.306.88.552.251.245.448.549.592.912.144.357.216.773.216 1.248zm2.665-2.832c.832 0 1.469.149 1.912.448.442.293.664.752.664 1.376 0 .389-.091.706-.272.952-.176.24-.432.429-.768.568.112.138.229.298.352.48.122.176.242.362.36.56.122.192.24.394.352.608.112.208.216.413.312.616h-1.4l-.312-.552a9.49 9.49 0 0 0-.32-.544 10.843 10.843 0 0 0-.32-.496 5.277 5.277 0 0 0-.32-.432h-.616v2.024h-1.248v-5.464c.272-.054.552-.091.84-.112.293-.022.554-.032.784-.032zm.072 1.064c-.091 0-.174.002-.248.008l-.2.016v1.504h.352c.469 0 .805-.059 1.008-.176.202-.118.304-.318.304-.6 0-.272-.104-.464-.312-.576-.203-.118-.504-.176-.904-.176zm5.406 1.28c.224-.379.437-.758.64-1.136.203-.379.389-.76.56-1.144h1.376a35.846 35.846 0 0 1-.944 1.736c-.325.56-.669 1.122-1.032 1.688v2.12h-1.248v-2.104a48.274 48.274 0 0 1-1.04-1.696 38.847 38.847 0 0 1-.944-1.744h1.448c.171.384.355.765.552 1.144.197.378.408.757.632 1.136zm6.363 3.384c-.144 0-.296-.011-.456-.032a4.203 4.203 0 0 1-.464-.072 5.063 5.063 0 0 1-.408-.104 2.304 2.304 0 0 1-.288-.104l.232-.992c.139.058.315.122.528.192.219.064.488.096.808.096.368 0 .637-.07.808-.208a.683.683 0 0 0 .256-.56.635.635 0 0 0-.096-.36.632.632 0 0 0-.248-.24 1.025 1.025 0 0 0-.384-.128 2.557 2.557 0 0 0-.464-.04h-.464v-.96h.528c.117 0 .229-.011.336-.032a.966.966 0 0 0 .296-.104.577.577 0 0 0 .2-.208.656.656 0 0 0 .08-.336.52.52 0 0 0-.232-.448.616.616 0 0 0-.232-.104.879.879 0 0 0-.264-.04c-.229 0-.443.034-.64.104-.192.069-.368.154-.528.256l-.424-.872a3.162 3.162 0 0 1 .68-.328c.139-.048.285-.088.44-.12.16-.032.328-.048.504-.048.325 0 .605.04.84.12.24.074.437.184.592.328.155.138.269.304.344.496.075.186.112.392.112.616 0 .218-.061.432-.184.64a1.223 1.223 0 0 1-.496.464 1.406 1.406 0 0 1 .904 1.36c0 .256-.043.493-.128.712-.085.213-.219.4-.4.56a1.993 1.993 0 0 1-.696.368 3.39 3.39 0 0 1-.992.128z" fill="#4CCD9B"/><path d="M291.634 90.715h34.268M291.634 95.19h34.268M291.634 99.601h34.268M291.634 104.076h34.268M291.634 108.551h34.268M291.634 112.962h34.268" stroke="#4CCD9B" stroke-width="1.52" stroke-miterlimit="10" stroke-linecap="round"/></g><defs><linearGradient id="paint0_linear" x1="219.987" y1="276.439" x2="219.987" y2="20.249" gradientUnits="userSpaceOnUse"><stop stop-color="#B4CAE8"/><stop offset="1" stop-color="#FBFBFE"/></linearGradient><linearGradient id="paint1_linear" x1="261.185" y1="308.551" x2="261.185" y2="170.253" gradientUnits="userSpaceOnUse"><stop offset=".005" stop-color="#F8980F"/><stop offset="1" stop-color="#FECC4D"/></linearGradient><linearGradient id="paint2_linear" x1="159.146" y1="296.046" x2="159.146" y2="168.986" gradientUnits="userSpaceOnUse"><stop offset=".005" stop-color="#F8980F"/><stop offset="1" stop-color="#FECC4D"/></linearGradient><clipPath id="clip0"><path fill="#fff" d="M0 0h455v277H0z"/></clipPath></defs></svg>