<svg width="455" height="280" viewBox="0 0 455 280" fill="none" xmlns="http://www.w3.org/2000/svg"><path d="M41.992 231.352l408.698.287c-47.391-22.335-22.693-98.435-63.322-127.562-32.663-25.041-34.612-5.009-71.115-27.804C278.031 50.484 291.555 9.21 225.196 9.21c-63.494 0-58.967 72.244-90.37 91.24-32.091 18.651-47.39 7.541-69.797 23.659-35.013 26.365-25.73 86.807-56.675 107.243h33.638z" fill="url(#paint0_linear)"/><path d="M309.893 135.967s-11.977 64.703-38.624 76.676c-26.589 11.974-47.849 17.903-47.849 17.903s75.814 10.649 83.78.921c30.085-36.669 2.693-95.5 2.693-95.5z" fill="url(#paint1_linear)"/><path d="M314.821 127.448c19.025-14.506 44.697-16.521 68.364-1.554 19.541 20.09-10.085 77.942-4.412 107.415l-79.539 1.554c11.002-31.027 5.215-65.796 8.309-97.802.344-3.569 4.413-7.426 7.278-9.613z" fill="#4CCD9B"/><path d="M379.862 205.102s-21.203-59.176-13.868-68.789c7.335-9.614 14.212-14.391 18.682-9.038 4.068 4.893 42.348 77.942 27.563 101.429-7.163 11.34-88.421 7.656-88.421 7.656v-20.666c0 .058 54.038-11.052 56.044-10.592z" fill="url(#paint2_linear)"/><path d="M311.325 72.186c-.573 16.348.917 27.055 6.533 38.453a8.681 8.681 0 0 0 8.366 4.835h.115a4.936 4.936 0 0 1 4.584 2.476l.344 9.21c0 .691.229 1.439.516 2.072 6.876 14.219 26.245 5.181 30.6-6.044.631-1.669.631-3.569.058-5.238l-8.481-14.967-10.201-39.662-32.434 8.865z" fill="#fff"/><path d="M314.19 64.818l21.719-9.671c11.403-2.245 20.228 4.72 22.349 16.118 2.12 11.513 1.719 22.91-1.548 34.308-.344 1.267-1.948 1.67-2.865.749l-4.584-13.355c1.776-1.267 4.469.115 4.584-2.821.229-4.375-2.178-8.002-5.329-8.174-1.777-.058-3.324 1.036-4.527 2.705-.459.634-.917.921-.975-.23l-.343-2.878c-.86-6.908-7.565-11.398-14.269-9.613l-17.192 2.648c-9.283-2.936-8.939-7.541 2.98-9.786z" fill="#F2751C"/><path d="M345.364 71.438c-5.845 4.144-6.304-.576-10.773-.288-9.513 1.496-12.55 5.929-23.782 8.231-6.074.864-10.658-3.856-9.799-9.9.917-5.181 6.189-6.448 9.513-4.721 3.323-5.814 8.71-10.016 15.071-10.995 9.856-1.554 21.489 3.339 27.105 11.456l-7.335 6.216z" fill="#F2751C"/><path d="M325.88 115.532s9.055.806 18.51-13.988c0 0-.802 40.813-10.2 31.487-7.622-7.54-.745-8.519-4.413-16.405-.458-.921-3.897-1.094-3.897-1.094z" fill="#EAEACD"/><path d="M349.776 95.079c3.559-1.023 5.62-4.751 4.602-8.327-1.019-3.576-4.73-5.646-8.29-4.623-3.56 1.023-5.62 4.75-4.602 8.327 1.018 3.576 4.73 5.646 8.29 4.623z" fill="#fff"/><path d="M205.827 230.661h46.818l7.335-25.156h-46.818l-7.335 25.156z" fill="#1F46E7"/><path d="M283.418 132.743h-104.41c-3.495 0-6.017 2.878-5.615 6.332l6.876 63.954c.401 3.512 3.496 6.333 6.991 6.333h104.41c3.495 0 6.017-2.879 5.615-6.333l-6.876-63.954c-.344-3.454-3.496-6.332-6.991-6.332z" fill="#4263EB"/><path d="M179.008 132.686c-3.495.058-6.017 2.878-5.615 6.332l6.876 63.954c.401 3.512 3.496 6.332 6.991 6.332h104.41c6.418-.057 5.615-6.332 5.615-6.332-52.949.921-55.299-71.668-118.277-70.286zM265.596 230.661h-68.078c-.63 0-1.089-.461-1.089-1.094v-2.648c0-.633.459-1.094 1.089-1.094h68.078c.63 0 1.089.461 1.089 1.094v2.648c0 .576-.516 1.094-1.089 1.094z" fill="#1F46E7"/><path d="M231.614 165.958c0 2.591 2.063 4.721 4.585 4.721a4.502 4.502 0 0 0 3.151-1.324c.344.806.516 1.727.516 2.705 0 3.972-3.152 7.253-6.991 7.253-3.897 0-6.991-3.223-6.991-7.253 0-3.626 2.578-6.562 5.902-7.138-.172.346-.172.691-.172 1.036z" fill="#D9EDF6"/><path d="M324.276 230.834c.058-.058 9.799 0 9.799 0-.401-3.166-8.423-14.392-11.976-15.313-.631-.172-1.261-.345-1.891-.46a18.425 18.425 0 0 0-11.289 1.036l-16.619 9.268c-1.031.576-1.089 2.245 0 2.993l1.49 1.152c1.662 1.266 3.782 1.727 5.616 1.208 1.948-.518 4.412-1.208 5.788-1.726 1.948-.691 4.183-.864 6.131.115.058.057 2.866 1.727 12.951 1.727z" fill="#fff"/><path d="M0 240.403h455v-9.621H0v9.621z" fill="#fff"/><path d="M73.109 93.888c-.917-.058-1.777 0-2.636.057.286 1.152.573 2.36.916 3.512l1.72-3.57z" fill="#F2751C"/><path d="M105.773 151.855c5.902-.115 11.002 5.527 12.779 11.398 5.558 18.594 11.804 56.471 5.845 64.415-1.72 2.302-11.92 1.727-14.67.691v.633c-2.407-.921-4.413-1.497-4.871-4.375-1.376-22.68-3.84-43.807-8.138-62.342-1.203-7.887 5.158-10.247 9.055-10.42z" fill="url(#paint3_linear)"/><path d="M110.3 152.949c-4.986-4.605-10.258-8.635-15.817-11.801-8.71-4.95-17.993-7.771-27.792-7.08-7.278.518-14.842 2.936-22.521 7.771-18.91 19.457 5.558 58.083.114 86.52h48.194c3.896-36.381 18.738-40.411 17.822-75.41z" fill="#FECC4D"/><path d="M49.385 225.653c.057 3.512 4.297 5.066 4.297 5.066 1.433-1.151 5.903-.403 7.736-.403h58.738c3.61-.058 6.533-5.354 6.361-10.016-.344-4.203-3.782-7.772-7.393-7.656l-60.112 8.807-5.903-1.036c-3.724.172-3.84 1.784-3.724 5.238z" fill="#fff"/><path d="M141.76 176.838h-39.426a2.557 2.557 0 0 1-2.521-3.108l5.788-27.746c.229-1.036 1.088-1.727 2.234-1.727h40.343c3.037 0 3.152 1.094 2.751 3.108l-5.559 26.538c-.401 1.726-1.891 2.935-3.61 2.935z" fill="#1F46E7"/><path d="M143.938 176.838h-39.426a2.557 2.557 0 0 1-2.521-3.108l5.787-27.746c.23-1.036 1.089-1.727 2.235-1.727h40.343c3.037 0 3.152 1.094 2.75 3.108l-5.558 26.538c-.401 1.726-1.891 2.935-3.61 2.935z" fill="#4263EB"/><path d="M143.938 176.838h-39.426a2.557 2.557 0 0 1-2.521-3.108l4.412-21.241c15.816 3.914 30.945 10.361 37.535 24.349z" fill="#3054E9"/><path d="M39.471 145.063c-5.902 5.066-4.183 12.434-3.667 19.629.687 9.383 6.188 22.566 12.721 34.194 9.112 16.233 22.35 28.206 28.767 30.451 3.152 1.094 8.596-3.569 10.544-6.332 1.777-2.475 1.949-6.332.516-9.325C75 190.711 63.711 168.492 55.917 147.711c-2.406-5.757-6.819-8.635-10.085-6.793-2.35 1.209-4.47 2.533-6.361 4.145z" fill="url(#paint4_linear)"/><path d="M55.459 230.085c-2.292 1.324-6.762.173-9.398-.69a7.212 7.212 0 0 0-4.413 0c-1.031.345-2.808.863-4.24 1.266-1.375.346-2.865.115-4.011-.748l-1.032-.749c-.745-.518-.63-1.611.115-2.014l12.435-5.757c2.578-1.094 5.444-1.439 8.137-.863 3.21.633 6.36 1.036 9.513 2.533-.058-.058-3.897 5.008-7.106 7.022zM115.973 168.089l2.235-4.03c.229-.345.458-.633.802-.863l3.094-2.476c.172-.172.459-.172.688-.057l.172.115c.516.345.63 1.036.229 1.554l-1.776 2.245c-.115.115-.172.288-.287.461l-.802 4.202-4.355-1.151z" fill="#fff"/><path d="M122.735 168.837c2.75 2.13 3.266 6.677 1.031 9.498-1.776.46-3.381 1.497-4.469 2.993 0 0-17.478 27.056-21.031 32.294-3.553 5.238-9.8 12.492-13.983 15.082s-8.194 2.072-11.805-.864c-3.151-2.763-3.151-7.656-1.719-10.534 1.49-2.936 7.163-10.764 13.066-16.578 5.845-5.814 31.231-30.97 31.231-30.97l.917-1.727c2.235-2.821 4.011-1.324 6.762.806z" fill="#fff"/><path d="M115.399 175.284c.86-4.202 3.381-7.714 8.653-10.016l10.315-4.03c1.376-.518 2.751.921 2.35 2.36l-2.579 8.578c-.573 1.899-1.948 3.338-3.725 3.914l-8.939 2.993-6.075-3.799z" fill="#fff"/><path d="M114.254 112.831c6.761-12.808 1.906-28.698-10.845-35.49-12.75-6.791-28.568-1.914-35.329 10.894-6.761 12.808-1.906 28.697 10.845 35.489 12.75 6.792 28.567 1.915 35.329-10.893z" fill="#4263EB"/><path d="M121.15 110.435c5.575-10.562 1.572-23.663-8.942-29.263-10.514-5.6-23.556-1.58-29.131 8.982-5.575 10.561-1.572 23.663 8.942 29.263 10.513 5.6 23.556 1.579 29.131-8.982zM77.239 108.518c.219-7.786-5.887-14.277-13.638-14.497-7.75-.22-14.211 5.913-14.43 13.699-.22 7.786 5.886 14.276 13.636 14.497 7.751.22 14.212-5.913 14.431-13.699z" fill="#4263EB"/><path d="M96.275 121.828c.219-7.786-5.887-14.277-13.638-14.497-7.75-.22-14.211 5.913-14.43 13.699-.22 7.786 5.886 14.276 13.637 14.497 7.75.22 14.211-5.913 14.43-13.699z" fill="#4263EB"/><path d="M123.486 128.649c3.075-7.151-.203-15.451-7.321-18.541-7.118-3.089-15.381.204-18.456 7.354-3.075 7.15.202 15.451 7.32 18.54 7.118 3.089 15.381-.203 18.457-7.353zM77.93 121.68c.155-5.498-4.156-10.081-9.63-10.236-5.472-.156-10.034 4.175-10.19 9.673-.154 5.498 4.157 10.081 9.63 10.236 5.473.156 10.036-4.175 10.19-9.673z" fill="#4263EB"/><path d="M107.702 133.266c2.561-5.954-.168-12.866-6.095-15.438-5.927-2.572-12.808.169-15.368 6.123-2.56 5.954.168 12.865 6.095 15.438 5.927 2.572 12.807-.17 15.368-6.123z" fill="#4263EB"/><path d="M92.879 135.449l.401 10.88c-.23 1.094-1.089 1.9-2.177 2.13-8.138 1.612-18.567-1.439-21.662-9.844-.286-.748-.344-1.612-.229-2.417 1.26-7.254 4.24-14.564 9.455-20.839.172-.23-.63-12.203 4.871-9.958.287.115.688.057.917-.231 4.814-5.18 9.34 30.797 8.424 30.279z" fill="#fff"/><path d="M78.84 115.014c2.98 9.843 6.303 15.427 14.096 20.493l.401 10.88c-15.816-5.181-13.294-18.018-14.498-31.373z" fill="#EAEACD"/><path d="M115.113 94.003s3.553 16.233-5.157 32.351c-5.043 9.383-11.461 11.34-16.905 9.038-6.877-2.878-10.086-9.614-12.149-16.752-2.12-7.368-5.616-15.657-2.177-20.262 5.673-7.541 36.388-4.375 36.388-4.375z" fill="#fff"/><path d="M82.392 124.224c2.522 4.203 5.444 8.98 10.487 11.225" stroke="#C8CBAC" stroke-miterlimit="10" stroke-linecap="round"/><path d="M76.604 110.985l12.55 2.36s-2.12-12.837 7.22-12.377c9.341.403 18.739 4.49 19.942-3.454 1.204-8.001-21.546-15.081-31.69-9.9-10.142 5.18-8.022 23.371-8.022 23.371z" fill="#4263EB"/><path d="M88.849 115.415c1.497-2.837.422-6.357-2.402-7.861a5.775 5.775 0 0 0-7.825 2.413c-1.498 2.837-.422 6.356 2.402 7.86a5.775 5.775 0 0 0 7.825-2.412z" fill="#fff"/><path d="M103.594 54.53c10.548-2.29 17.252-12.735 14.972-23.331-2.279-10.596-12.678-17.33-23.226-15.04-10.548 2.29-17.252 12.735-14.972 23.331 2.28 10.596 12.678 17.33 23.226 15.04z" fill="#F2751C"/><path d="M109.497 18.478c-4.126-2.475-9.111-3.454-14.154-2.36-10.544 2.303-17.249 12.722-14.957 23.314 1.09 5.065 4.012 9.267 7.966 11.973l21.145-32.927z" fill="url(#paint5_linear)"/><path d="M102.48 49.355c7.703-1.672 12.598-9.3 10.933-17.037-1.664-7.738-9.257-12.655-16.96-10.983-7.702 1.672-12.597 9.3-10.933 17.037 1.665 7.737 9.258 12.654 16.96 10.983z" fill="#FECC4D"/><path d="M105.543 35.517c.115.115.23.23 0 0-.229-.288-.114-.173 0 0-.745-.806-1.776-1.209-2.865-1.381a13.156 13.156 0 0 0-2.12-.173l-.974-4.49c.573 0 1.203.058 1.719.288.229.115.458.288.687.46.115.115.172.23.287.346.057.115.115.23.229.345.287.403.745.633 1.204.518.458-.057.859-.46.974-.92a.971.971 0 0 0-.057-.692c-.058-.115-.115-.288-.23-.403a1.756 1.756 0 0 0-.286-.403c-.344-.46-.745-.863-1.204-1.15-1.031-.634-2.235-.864-3.38-.807-.172 0-.344 0-.46.058l-.286-1.324a1.246 1.246 0 0 0-.916-.921c-.459-.115-.975.057-1.204.46-.23.288-.286.634-.23.979l.287 1.324c-1.088.403-2.177 1.094-2.865 2.072-.344.46-.573.979-.688 1.554a4.674 4.674 0 0 0 0 1.785c.115.576.344 1.151.745 1.612.344.46.803.806 1.319 1.036 1.031.518 2.234.633 3.38.69l1.032 4.663c-.573-.057-1.146-.172-1.662-.518-.23-.172-.458-.345-.63-.575-.115-.115-.172-.23-.287-.346-.057-.115-.114-.23-.229-.403-.23-.403-.688-.633-1.203-.575-.459.057-.86.403-1.032.863a1.41 1.41 0 0 0 0 .69c.058.116.115.231.172.404.057.115.172.288.23.403.343.518.744.92 1.203 1.266.917.691 2.063 1.094 3.266 1.152h.63l.287 1.381c.115.46.458.806.917.921.458.115.974-.057 1.203-.46.229-.288.287-.634.229-.979l-.286-1.266c1.146-.346 2.292-.979 3.037-1.9.745-.921 1.146-2.072 1.032-3.224-.058-.863-.344-1.727-.975-2.36zm-7.048-1.727c-.287 0-.573-.057-.802-.115a4.762 4.762 0 0 1-.86-.23c-.23-.115-.516-.23-.63-.46-.172-.23-.23-.519-.287-.806-.057-.288 0-.576.115-.806.286-.691.974-1.152 1.604-1.44l.86 3.857zm6.074 5.008c-.286.921-1.26 1.497-2.12 1.785l-.917-4.317a5.89 5.89 0 0 1 1.719.23c.287.057.516.172.745.345.229.173.344.346.459.576.172.403.229.92.114 1.381z" fill="#F2751C"/><path d="M166.458 101.026c15.445 0 27.965-12.577 27.965-28.092 0-15.514-12.52-28.091-27.965-28.091-15.444 0-27.964 12.577-27.964 28.091 0 15.515 12.52 28.092 27.964 28.092z" fill="url(#paint6_linear)"/><path d="M169.016 94.595c11.912-1.415 20.427-12.262 19.019-24.228-1.408-11.966-12.207-20.52-24.119-19.105-11.912 1.415-20.427 12.262-19.019 24.228 1.409 11.966 12.207 20.52 24.119 19.105z" fill="#EAEACD"/><path d="M168.135 87.106c7.795-.926 13.367-8.024 12.445-15.854-.921-7.83-7.987-13.427-15.782-12.501-7.795.925-13.366 8.023-12.445 15.853.921 7.83 7.987 13.427 15.782 12.502z" stroke="#4CCD9B" stroke-width="2.386" stroke-miterlimit="10" stroke-linecap="round"/><path d="M166.755 75.387a2.473 2.473 0 0 0 2.158-2.749 2.467 2.467 0 0 0-2.736-2.167 2.472 2.472 0 0 0-2.158 2.749 2.467 2.467 0 0 0 2.736 2.167z" fill="#239B6A"/><path d="M175.226 55.953l-8.768 16.981M180.326 71.265l-13.008 1.554" stroke="#239B6A" stroke-width="1.789" stroke-miterlimit="10" stroke-linecap="round"/><path d="M345.118 36.256c8.892-1.861 14.599-10.611 12.746-19.544-1.853-8.933-10.564-14.665-19.456-12.804-8.893 1.861-14.599 10.612-12.746 19.544 1.853 8.933 10.564 14.665 19.456 12.804z" fill="#EAEACD"/><path d="M353.271 31.89c-2.177 2.13-4.985 3.742-8.194 4.376-8.882 1.842-17.593-3.857-19.484-12.78 7.851-1.669 20.687.749 27.678 8.405z" fill="#C8CBAC"/><path d="M338.888 25.213l-3.037-5.296c-.172-.288-.115-.69.115-.978l4.126-4.548a.712.712 0 0 1 .916-.172l5.559 2.532c.344.173.516.46.458.806l-.687 6.102c-.058.345-.287.633-.631.69l-5.959 1.267c-.344.115-.688-.057-.86-.403z" fill="url(#paint7_linear)"/><path d="M348.688 8.404l1.547-2.417a15.91 15.91 0 0 0-4.298-1.843 18.632 18.632 0 0 0-4.642-.575l.172 2.878c0 .23.172.403.344.46l6.304 1.67c.286.115.458 0 .573-.173z" fill="url(#paint8_linear)"/><path d="M332.814 9.786L330.98 7.54a16.15 16.15 0 0 0-5.042 7.829l2.807.748c.23.057.402-.058.516-.23l3.553-5.527c.172-.172.172-.403 0-.575z" fill="url(#paint9_linear)"/><path d="M329.261 25.443l-2.693 1.037a16.71 16.71 0 0 0 5.845 7.253l1.547-2.418a.444.444 0 0 0-.057-.576l-4.126-5.123c-.115-.23-.344-.288-.516-.173z" fill="url(#paint10_linear)"/><path d="M342.9 33.675l.172 2.878c3.152-.287 6.189-1.439 8.653-3.338l-1.834-2.245c-.115-.173-.344-.23-.573-.173l-6.132 2.36a.607.607 0 0 0-.286.518z" fill="url(#paint11_linear)"/><path d="M354.246 16.118l.343 6.562c0 .23.172.403.344.46l2.808.75c.745-3.224.516-6.39-.516-9.326l-2.693 1.036c-.172.115-.344.288-.286.518z" fill="url(#paint12_linear)"/><path d="M259.98 63.206c17.375 0 31.46-14.15 31.46-31.603C291.44 14.149 277.355 0 259.98 0s-31.46 14.15-31.46 31.603c0 17.454 14.085 31.603 31.46 31.603z" fill="url(#paint13_linear)"/><path d="M276.885 48.527l-23.839 5.986-.631-2.475c-.286-1.209.459-2.475 1.662-2.763l19.427-4.893c1.203-.288 2.464.46 2.75 1.67l.631 2.475z" fill="#EAEACD"/><path d="M276.314 46.425l-23.852 5.981.528 2.123 23.851-5.982-.527-2.122z" fill="#C8CBAC"/><path d="M272.759 44.555l-17.994 4.49-.286-1.209c-.115-.46.172-.978.63-1.094l16.217-4.087c.459-.115.975.173 1.089.633l.344 1.267z" fill="#D8D7BF"/><path d="M270.868 42.77l-15.301 3.857c.917-5.872.975-11.57.23-17.039l6.933-1.727c1.834 5.699 4.585 10.65 8.138 14.91z" fill="#EAEACD"/><path d="M263.304 27.689l-8.08 2.014c-.23.058-.516-.115-.573-.345l-.115-.518c-.057-.23.115-.518.344-.576l8.08-2.015c.229-.057.516.116.573.346l.114.518a.478.478 0 0 1-.343.576z" fill="#D8D7BF"/><path d="M261.756 21.53l-8.08 2.014c-.229.058-.515-.115-.573-.346l-.114-.518c-.058-.23.114-.518.343-.575l8.08-2.015c.23-.058.516.115.574.345l.114.518c.057.288-.057.519-.344.576z" fill="#EAEACD"/><path d="M260.837 21.776l-6.227 1.561.833 3.351 6.227-1.561-.833-3.351zM255.025 11.618a1.842 1.842 0 0 0 1.335-2.234 1.833 1.833 0 0 0-2.223-1.34 1.843 1.843 0 0 0 .888 3.574z" fill="#C8CBAC"/><path d="M256.868 19.087c2.273-.57 3.655-2.882 3.088-5.165a4.24 4.24 0 0 0-5.142-3.1c-2.272.569-3.654 2.881-3.087 5.164a4.239 4.239 0 0 0 5.141 3.1z" fill="#C8CBAC"/><path d="M260.495 20.378l-6.246 1.554-4.871-7.195c.975-.288 1.777-.116 2.522.518 2.063-2.706 4.756-3.282 7.965-2.015.057-.806.688-1.267 1.662-1.555l-1.032 8.693z" fill="#D8D7BF"/><path d="M262.959 26.307l-8.08 2.015c-.229.057-.515-.115-.573-.346l-.114-.518c-.058-.23.114-.518.344-.575l8.08-2.015c.229-.058.515.115.573.345l.114.518c.058.23-.114.518-.344.576z" fill="#EAEACD"/><defs><linearGradient id="paint0_linear" x1="229.515" y1="242.003" x2="229.515" y2="-22.559" gradientUnits="userSpaceOnUse"><stop stop-color="#B4CAE8"/><stop offset="1" stop-color="#FBFBFE"/></linearGradient><linearGradient id="paint1_linear" x1="272.37" y1="271.824" x2="272.37" y2="137.509" gradientUnits="userSpaceOnUse"><stop stop-color="#239B6A"/><stop offset=".127" stop-color="#2CA675"/><stop offset=".431" stop-color="#3EBC8A"/><stop offset=".726" stop-color="#48C997"/><stop offset="1" stop-color="#4CCD9B"/></linearGradient><linearGradient id="paint2_linear" x1="369.697" y1="262.816" x2="369.697" y2="137.062" gradientUnits="userSpaceOnUse"><stop stop-color="#239B6A"/><stop offset=".287" stop-color="#32AE7C"/><stop offset=".724" stop-color="#45C593"/><stop offset="1" stop-color="#4CCD9B"/></linearGradient><linearGradient id="paint3_linear" x1="114.96" y1="221.802" x2="109.992" y2="167.464" gradientUnits="userSpaceOnUse"><stop stop-color="#F1B827"/><stop offset="1" stop-color="#FECC4D"/></linearGradient><linearGradient id="paint4_linear" x1="65.61" y1="217.89" x2="58.772" y2="159.083" gradientUnits="userSpaceOnUse"><stop offset=".005" stop-color="#F8980F"/><stop offset="1" stop-color="#FECC4D"/></linearGradient><linearGradient id="paint5_linear" x1="99.252" y1="49.076" x2="92.247" y2="16.803" gradientUnits="userSpaceOnUse"><stop stop-color="#F2751C"/><stop offset="1" stop-color="#FFC400"/></linearGradient><linearGradient id="paint6_linear" x1="138.714" y1="76.221" x2="194.229" y2="69.688" gradientUnits="userSpaceOnUse"><stop stop-color="#239B6A"/><stop offset="1" stop-color="#4CCD9B"/></linearGradient><linearGradient id="paint7_linear" x1="336.016" y1="20.771" x2="347.267" y2="18.437" gradientUnits="userSpaceOnUse"><stop stop-color="#4263EB"/><stop offset="1" stop-color="#1F46E7"/></linearGradient><linearGradient id="paint8_linear" x1="339.778" y1="4.425" x2="351.16" y2="7.449" gradientUnits="userSpaceOnUse"><stop stop-color="#4263EB"/><stop offset="1" stop-color="#1F46E7"/></linearGradient><linearGradient id="paint9_linear" x1="326.305" y1="17.121" x2="332.749" y2="7.222" gradientUnits="userSpaceOnUse"><stop stop-color="#4263EB"/><stop offset="1" stop-color="#1F46E7"/></linearGradient><linearGradient id="paint10_linear" x1="334.07" y1="33.92" x2="326.612" y2="24.769" gradientUnits="userSpaceOnUse"><stop stop-color="#4263EB"/><stop offset="1" stop-color="#1F46E7"/></linearGradient><linearGradient id="paint11_linear" x1="352.384" y1="31.632" x2="341.384" y2="35.847" gradientUnits="userSpaceOnUse"><stop stop-color="#4263EB"/><stop offset="1" stop-color="#1F46E7"/></linearGradient><linearGradient id="paint12_linear" x1="355.946" y1="13.415" x2="356.58" y2="25.224" gradientUnits="userSpaceOnUse"><stop stop-color="#4263EB"/><stop offset="1" stop-color="#1F46E7"/></linearGradient><linearGradient id="paint13_linear" x1="229.471" y1="39.237" x2="290.512" y2="24.067" gradientUnits="userSpaceOnUse"><stop stop-color="#4263EB"/><stop offset="1" stop-color="#1F46E7"/></linearGradient></defs></svg>