<svg width="550" height="263" xmlns="http://www.w3.org/2000/svg" xmlns:xlink="http://www.w3.org/1999/xlink" viewBox="0 0 550 261.989"><defs><style>.a{fill:#d9edf6}.b{fill:url(#a)}.c{fill:#96b7e2}.d{clip-path:url(#b)}.e{fill:url(#c)}.f{fill:#239b6a}.g{fill:url(#e)}.ah,.al,.h,.n,.p,.q,.r,.v,.w{fill:none;stroke-linecap:round;stroke-linejoin:round;stroke-miterlimit:10}.h,.q{stroke:#239b6a}.ah,.h,.v{stroke-width:1.5px}.i{fill:url(#f)}.j{fill:url(#g)}.k{fill:#567bef}.l{fill:url(#h)}.m{fill:#fff}.n{stroke:#d9edf6}.o{fill:#4263eb}.p,.w{stroke:#f2751c}.p{stroke-dasharray:3 5}.r{stroke:#4263eb}.s{fill:#f2751c}.t{fill:#4ccd9b}.u{fill:#96b7e1}.v{stroke:#1f46e7}.x{fill:url(#i)}.y{fill:#3054e9}.z{fill:#1f46e7}.aa{fill:url(#j)}.ab{fill:url(#k)}.ac{fill:#ffc400}.ad{fill:url(#l)}.ae{fill:url(#m)}.af{fill:url(#n)}.ag{fill:url(#o)}.ah{stroke:#fff}.ai{fill:url(#p)}.aj{fill:url(#q)}.ak{fill:url(#r)}.al{stroke:#c8cbac;stroke-width:.382px}</style><linearGradient id="a" x1="-.006" y1=".486" x2=".99" y2=".486" gradientUnits="objectBoundingBox"><stop offset="0" stop-color="#f2751c"/><stop offset="1" stop-color="#ffc400"/></linearGradient><clipPath id="b"><path d="M0 0h68.403v64.85H0z"/></clipPath><linearGradient id="c" x1="22.2" y1="-50.986" x2="22.828" y2="-50.986" gradientUnits="objectBoundingBox"><stop offset="0" stop-color="#239b6a"/><stop offset="1" stop-color="#4ccd9b"/></linearGradient><linearGradient id="e" x1="23.587" y1="-25.831" x2="24.622" y2="-25.831" xlink:href="#c"/><linearGradient id="f" x1="15.284" y1="-25.19" x2="16.272" y2="-25.19" xlink:href="#c"/><linearGradient id="g" x1="3.077" y1=".431" x2="4.241" y2=".783" xlink:href="#a"/><linearGradient id="h" y1=".5" x2="1" y2=".5" gradientUnits="objectBoundingBox"><stop offset="0" stop-color="#1f46e7"/><stop offset="1" stop-color="#4263eb"/></linearGradient><linearGradient id="i" x1="0" y1=".495" x2="1" y2=".495" xlink:href="#h"/><linearGradient id="j" x1="-11.219" y1=".5" x2="-10.216" y2=".5" xlink:href="#c"/><linearGradient id="k" x1="-6.645" y1=".5" x2="-5.646" y2=".5" xlink:href="#h"/><linearGradient id="l" x1="-7.015" y1=".999" x2="-7.015" y2=".001" xlink:href="#a"/><linearGradient id="m" x1="-3.78" y1=".499" x2="-2.78" y2=".499" gradientUnits="objectBoundingBox"><stop offset="0" stop-color="#4263eb"/><stop offset="1" stop-color="#1f46e7"/></linearGradient><linearGradient id="n" x1="-11.269" y1=".499" x2="-10.269" y2=".499" xlink:href="#c"/><linearGradient id="o" x1="0" y1=".5" x2=".999" y2=".5" xlink:href="#a"/><linearGradient id="p" x1=".19" y1="1.202" x2=".625" y2=".286" xlink:href="#c"/><linearGradient id="q" x1="338.653" y1="1.277" x2="339.294" y2=".459" xlink:href="#c"/><linearGradient id="r" x1=".001" y1=".504" x2=".999" y2=".504" xlink:href="#a"/></defs><path class="a" d="M34.672 22.762c17.794-3.119 27.884 15.96 34.121 15.41 3.852-.55 5.5-2.935 9.172-3.119 6.971 0 9.906 9.172 17.978 11.557 3.669.55 6.971-2.2 10.273-.917 2.935.917 4.77 2.752 6.6 5.87H0c14.676-6.604 16.143-24.582 34.672-28.801zM240.3 201.36c-38.089-21.428-52.525-53.19-84.839-82.728-19.211 26.428-55.411 69.18-65.183 67.4-10.1-3-8.661-13.214-23.985-13.214-17.434.003-29.649 63.414-66.293 88.727h273.5c-14.546-13.658-24.207-36.089-33.2-60.185z"/><path class="b" d="M131.365 209.244a50.559 50.559 0 0 0 1.11-7.329 56.018 56.018 0 0 0 0-6.107l10.327-3.664-2.891-11.55-10.771 1.777a45.431 45.431 0 0 0-6.885-11.1l6.774-9.883-8.884-7.662-8.434 8.768a42.186 42.186 0 0 0-11.438-4.442l-.222-12.992-11.66-.777-1.888 13.1a40.263 40.263 0 0 0-11.992 3.446l-7.329-9.772-9.771 6.44 5.774 11.215a40.265 40.265 0 0 0-7.107 9.106l-11.66-3.775-4.442 11.1 10.993 5.774a48.206 48.206 0 0 0-.777 5.774 54.01 54.01 0 0 0 0 6l-12.881 4.554 2.776 11.549 13.436-2.221a41.608 41.608 0 0 0 5.885 9.772l-7.329 10.66 8.884 7.662 8.772-9.106a44.049 44.049 0 0 0 11.215 4.886l.222 12.1 11.66.777 1.779-11.767a38.049 38.049 0 0 0 11.882-2.887l7.551 10.1 9.883-6.441-5.663-10.993a42.183 42.183 0 0 0 7.551-8.995l11.771 3.775 4.442-11.1zm-39.42 13.547a24.14 24.14 0 1 1 22.431-19.877 24.187 24.187 0 0 1-22.431 19.877z"/><path class="c" d="M148.036 141.51a17.847 17.847 0 0 0 2-9.883l5.33-2.443-2.554-7.107-5.776 1.108a17.27 17.27 0 0 0-7.662-6.441l.333-6.329-7.441-1.33-1.555 6.218a21 21 0 0 0-4.442.888 15.4 15.4 0 0 0-4.442 2.332l-5.33-3.664-4.886 5.663 4.553 4.775a17.875 17.875 0 0 0-1.555 9.328l-5.773 2.776 2.554 7.107 6.33-1.444a17.948 17.948 0 0 0 7.328 6.221l-.333 6.552 7.44 1.333 1.666-6.218a15.911 15.911 0 0 0 4.553-1 17.15 17.15 0 0 0 3.776-1.888l5.219 3.664 4.886-5.663zm-8.106-3.331a9.222 9.222 0 1 1-3.553-12.548 9.28 9.28 0 0 1 3.551 12.547z"/><g class="d"><path class="e" d="M99.939 247.776c-1.888-2-6.218.333-7.884-1.666-2-2.11 1.777-4.331 0-7.218-1.221-1.777-3.553 0-6.552-2.443-1.888-1.555.222-3.775-.777-6.107-.111-.222.111-.333.222-.333 2.443.666 4.22-1.555 6 .111 3 2.554 1.555 5.108 3.442 6.107 3.109 1.333 4.775-2.665 7.218-1 2.221 1.444.555 6 2.887 7.551 3.664 2.332 7.218-5.33 11.215-2.887 5.33 3.22 7.662 15.1 8.883 21.431-6.329-.333-21.654 2.887-25.651-1.888-3.22-3.777 3.88-8.438.997-11.658z"/><path class="f" d="M84.948 229.898c2.443.666 4.22-1.555 6 .111 3 2.554 1.555 5.108 3.442 6.107 3.109 1.333 4.775-2.665 7.218-1 2.221 1.444.555 6 2.887 7.551 3.664 2.332 7.218-5.33 11.215-2.887 5.33 3.22 7.662 15.1 8.883 21.431l-.555-.111-39.201-31.091c0-.222 0-.222.111-.111z"/></g><g class="d"><path class="g" d="M112.931 234.784c-.777-3.887-6.441-5.33-7.107-9.106-.777-4.109 3.331-3.553 3.331-8.439-.222-3.109-2.665-1.555-4.331-6.885-1.11-3.331 3.442-6.107 4-9.772 0-.222.333-.333.555-.222 2.554 2.665 7.551 2 8.55 5.441 1.666 5.33-1.666 5.663 0 8.328 2.776 4 6.218 1.333 8 5.108 1.666 3.442-1.888 7.884-.333 11.549 2.776 5.663 10.993-1.222 13.992 4.886 4 8-3.664 24.208-11.1 26.873-7.329 1.221-21.1-3.331-22.431-12.215-1.121-6.774 7.985-9.328 6.874-15.546z"/><path class="f" d="M109.378 200.582c2.554 2.665 7.551 2 8.55 5.441 1.666 5.33-1.221 6.218.444 8.884 2.665 3.664 5.663.333 7.551 4.553 1.555 3.442-1.888 7.884-.333 11.549 2.776 5.663 10.993-1.221 13.992 4.886 4 8 4.553 26.873-11.1 26.873l-.111-1-19.215-61.075c.111-.218.111-.218.222-.111z"/></g><path class="h" d="M16.702 98.093a3.84 3.84 0 0 0-3.887 3.775v4.664a3.888 3.888 0 0 0 7.773 0v-4.664a3.912 3.912 0 0 0-3.886-3.775zm11.548-.111v12.437m11.438-12.326a3.84 3.84 0 0 0-3.887 3.775v4.664a3.888 3.888 0 0 0 7.773 0v-4.664a3.912 3.912 0 0 0-3.886-3.775zm11.548-.111v12.437m8.773-12.326v12.326m11.215-12.215a3.722 3.722 0 0 0-3.775 3.664v4.664a3.777 3.777 0 0 0 7.551 0v-4.664a3.722 3.722 0 0 0-3.776-3.664z"/><path class="a" d="M263.84 56.448c65.183-22.1 96.608 103.937 118.706 101.494 16.99-1 26.317-37.644 44.2-37.755 25.873 0 35.756 83.061 64.961 98.94 13.547 3.887 19.988-17.323 32.2-8.772 10.438 6 19.433 29.76 26.1 51.635H136.584c53.412-46.972 59.3-175.449 127.256-205.542z"/><path class="i" d="M416.193 226.123c.555-3.664 7.218-4.442 7.662-8 .555-3.887-5.33-3.553-5.552-8.217.111-3 4.109-2.665 5.441-7.884 1-3.22-3.109-4.109-3.887-7.551 0-.222-.333-.333-.555-.111-2.332 2.665-6 1.444-6.774 4.664-1.444 5.219 2.221 7 .777 9.55-2.554 3.887-7.44.666-8.995 4.331-1.443 3.331 4 7.329 2.554 10.771-2.443 5.552-12.215-.555-14.88 5.33-3.442 7.773 8.328 15.99 11.771 24.1 7-5.219 21.431-6.329 22.32-14.88.889-6.44-10.66-6.218-9.882-12.103z"/><path class="f" d="M419.413 194.253c-2.332 2.665-6 1.444-6.774 4.664-1.443 5.219 2.221 7 .777 9.55-2.554 3.887-7.44.666-8.995 4.331-1.444 3.331 4 7.329 2.554 10.771-2.443 5.552-12.215-.555-14.88 5.33-3.442 7.773 8.328 15.99 11.771 24.1l15.658-58.968c0 .111 0 .111-.111.222z"/><path class="j" d="M411.751 253.661h38.2c.888-1 1.444-2 .888-3a1.314 1.314 0 0 0-2 0c1.221-4.22 5-5.663 4.553-7.329-.777-2.11-4.442.555-7.329 2 .888-3.775 5.219-5.108 4-7-.777-1-5 1.444-8 3.22 4.331-7.884 12.77-16.657 10.66-18.766-2.221-1.888-8.439 5.219-12.77 10.1 4-13.547 15.546-30.093 11.771-31.981-6.219-2.887-16.879 18.211-24.208 34.424 2.776-8.661 6-20.1 1.777-21.431-4.331-1.444-10.549 17.212-12.992 29.2-1.555-4.22-3.331-8.772-6.552-8-3.217 1.018.003 11.234 2.002 18.563z"/><path class="k" d="M127.59 144.062h-2.443a4.172 4.172 0 0 1-4.109-4.109v-18.544a4.172 4.172 0 0 1 4.109-4.109h2.443a4.172 4.172 0 0 1 4.109 4.109v18.655a4.007 4.007 0 0 1-4.109 3.998z"/><path class="l" d="M230.972 261.545h-95.72a10.379 10.379 0 0 1-10.327-10.327V106.084a10.379 10.379 0 0 1 10.327-10.327h95.72a10.379 10.379 0 0 1 10.327 10.327v145.134a10.379 10.379 0 0 1-10.327 10.327z"/><path class="c" d="M182.889 100.865a1.666 1.666 0 1 1 1.666 1.666 1.635 1.635 0 0 1-1.666-1.666zm-3.886 151.575a4.775 4.775 0 1 1 4.775 4.775 4.74 4.74 0 0 1-4.775-4.775z"/><path class="m" d="M132.253 105.085h100.828v140.359H132.253z"/><path class="n" d="M151.242 106.306v138.027m20.876-138.027v138.027m20.21-138.027v138.027m20.988-138.027v138.027m18.877-116.929h-99.051m99.051 20.21h-99.051m99.051 19.433h-99.051m99.051 20.21h-99.051m99.051 21.542h-99.051m99.051 20.099h-99.051"/><path class="o" d="M196.992 213.575a5.072 5.072 0 0 0 5 5.108 5 5 0 0 0 5-5.108 5 5 0 1 0-9.994 0z"/><path class="p" d="M132.253 215.795l17.434-36.978a11.2 11.2 0 0 1 10.327-6.663h4.886a11.4 11.4 0 0 0 10.993-8.55l5.552-21.765a11.362 11.362 0 0 1 15.879-7.44 11.162 11.162 0 0 0 13.769-3.22l13.993-17.877"/><path class="q" d="M131.698 225.678l30.648-30.426a8.42 8.42 0 0 1 9.217-.444l7.662 4.553a8.243 8.243 0 0 0 10.66-1.888l43.2-52.857"/><path class="r" d="M131.698 240.669l23.985-20.321a7.643 7.643 0 0 1 10.66 0l7.884 7.884a7.643 7.643 0 0 0 10.66 0l12.437-12.437a7.643 7.643 0 0 1 10.66 0l25.1 24.874"/><path class="s" d="M183 133.512a5.072 5.072 0 0 0 5 5.108 5.109 5.109 0 1 0-5-5.108z"/><path class="t" d="M162.124 191.144a5.2 5.2 0 0 0 .333 7.218 5.031 5.031 0 0 0 6.774-7.44 4.871 4.871 0 0 0-7.107.222z"/><path class="c" d="M238.189 261.545h167.454L390.986 140.73c-.444-4.109-3.664-6.663-8.106-6.663H224.201c-11.882 0-12.659 4.331-11.771 12.1l12.659 103.937a12.931 12.931 0 0 0 13.1 11.441z"/><path class="m" d="M395.094 251.218l-12.992-106.824H223.531l13.1 107.379z"/><path class="u" d="M303.483 137.51a1.555 1.555 0 1 1 1.555 1.555 1.588 1.588 0 0 1-1.555-1.555z"/><path class="q" d="M455.28 121.519a1.733 1.733 0 0 0-1.777 1.666v2.11a1.78 1.78 0 0 0 3.553 0v-2.11a1.733 1.733 0 0 0-1.776-1.666zm5.219 0v5.663m5.219-5.663a1.733 1.733 0 0 0-1.777 1.666v2.11a1.78 1.78 0 0 0 3.553 0v-2.11a1.9 1.9 0 0 0-1.776-1.666zm5.219 0v5.663m3.886-5.663v5.552m5.108-5.441a1.635 1.635 0 0 0-1.666 1.666v2.11a1.708 1.708 0 0 0 1.666 1.666 1.635 1.635 0 0 0 1.666-1.666v-2.11a1.635 1.635 0 0 0-1.666-1.666z"/><path class="v" d="M429.406 84.098a3.485 3.485 0 0 0-3.553 3.442v4.331a3.555 3.555 0 0 0 7.107 0V87.54a3.485 3.485 0 0 0-3.554-3.442zm10.772-.111v11.549m10.548-11.438a3.485 3.485 0 0 0-3.553 3.442v4.331a3.555 3.555 0 0 0 7.107 0V87.54a3.485 3.485 0 0 0-3.554-3.442zm10.772-.111v11.549m8.106-11.438v11.438m10.438-11.327a3.485 3.485 0 0 0-3.553 3.442v4.331a3.555 3.555 0 0 0 7.107 0v-4.331a3.633 3.633 0 0 0-3.554-3.442zm-115.93-.111a3.485 3.485 0 0 0-3.553 3.442v4.331a3.555 3.555 0 0 0 7.107 0V87.54a3.485 3.485 0 0 0-3.554-3.442zm10.772-.222v11.66m10.548-11.438a3.485 3.485 0 0 0-3.553 3.442v4.331a3.555 3.555 0 0 0 7.107 0V87.54a3.485 3.485 0 0 0-3.554-3.442zm10.772-.222v11.66m8.106-11.549v11.438m10.438-11.216a3.485 3.485 0 0 0-3.553 3.442v4.331a3.555 3.555 0 0 0 7.107 0v-4.331a3.483 3.483 0 0 0-3.554-3.442z"/><path class="w" d="M111.155 75.436a2.608 2.608 0 0 0-2.665 2.554v3.22a2.667 2.667 0 0 0 5.33 0v-3.22a2.68 2.68 0 0 0-2.665-2.554zm7.884-.111v8.55m7.773-8.439a2.608 2.608 0 0 0-2.665 2.554v3.22a2.667 2.667 0 0 0 5.33 0v-3.22a2.541 2.541 0 0 0-2.665-2.554zm7.995-.111v8.55m5.997-8.55v8.55m7.662-8.439a2.608 2.608 0 0 0-2.665 2.554v3.22a2.667 2.667 0 0 0 5.33 0v-3.22a2.683 2.683 0 0 0-2.665-2.554zm365.001 27.983a2.108 2.108 0 0 1 2.11 2.11v2.554a2.184 2.184 0 0 1-2.11 2.11 2.108 2.108 0 0 1-2.11-2.11v-2.554a2.042 2.042 0 0 1 2.11-2.11zm-6.33-.111v6.885m-6.329-6.774a2.108 2.108 0 0 1 2.11 2.11v2.554a2.184 2.184 0 0 1-2.11 2.11 2.108 2.108 0 0 1-2.11-2.11v-2.554a2.108 2.108 0 0 1 2.11-2.11zm-6.33-.111v6.885m-4.775-6.774v6.774m-6.218-6.774a2.088 2.088 0 0 1 2.11 2v2.554a2.018 2.018 0 0 1-2.11 2 2.088 2.088 0 0 1-2.11-2v-2.554a2.257 2.257 0 0 1 2.11-2z"/><path class="k" d="M224.531 246.444l.777 5.774c.777 5.441 5.885 9.328 12.215 9.328h226.974c9.55 0 17.323-6.774 17.323-15.213H224.531z"/><path class="x" d="M365.779 246.444c0 8.328-7.773 15.213-17.323 15.213H463.83c9.55 0 17.323-6.774 17.323-15.213z"/><path class="k" d="M441.066 250.886h-21.873a3.981 3.981 0 0 1-4-4v-.553h29.871v.555a3.981 3.981 0 0 1-3.998 3.998z"/><path class="y" d="M422.135 163.048l4.278-4.043 13.275 14.047-4.279 4.043z"/><path class="z" d="M422.228 163.086l4.278-4.043 3.586 3.794-4.279 4.043z"/><path class="aa" d="M466.717 196.919a3.286 3.286 0 0 1-.111 4.553l-4.442 4.22a3.286 3.286 0 0 1-4.553-.111l-28.649-30.315a3.286 3.286 0 0 1 .111-4.553l4.442-4.22a3.286 3.286 0 0 1 4.553.111z"/><path class="ab" d="M401.201 171.156a32.841 32.841 0 0 1-24.212-10.438 33.313 33.313 0 0 1 24.212-56.188 33.219 33.219 0 0 1 22.875 57.41 32.72 32.72 0 0 1-22.875 9.216zm0-60.519a27.287 27.287 0 1 0 19.655 8.55 26.8 26.8 0 0 0-19.655-8.55z"/><path class="m" d="M422.522 117.744a29.22 29.22 0 1 1-41.308-1.11 29.264 29.264 0 0 1 41.308 1.11z"/><path class="s" d="M404.187 157.725h-7.44v-45.861h7.44z"/><path class="ac" d="M404.187 117.21h-7.44v-5.441h7.44z"/><path class="ad" d="M396.759 157.721h7.44v-19.1h-7.44z"/><path class="u" d="M390.256 157.714h-7.44v-26.873h7.44z"/><path class="z" d="M390.256 146.427h-7.44v-15.546h7.44z"/><path class="ae" d="M382.878 146.394h7.44v-6.663h-7.44z"/><path class="af" d="M410.75 157.72h7.44v-35.756h-7.44z"/><path class="f" d="M418.081 157.69h-7.44v-9.55h7.44z"/><path class="ag" d="M370.22 178.263H252.513a.294.294 0 0 1-.333-.333v-17.545a.294.294 0 0 1 .333-.333H370.22a.294.294 0 0 1 .333.333v17.434c-.111.222-.222.444-.333.444z"/><path class="m" d="M357.227 169.38a2.443 2.443 0 1 1-2.443-2.443 2.465 2.465 0 0 1 2.443 2.443zm8.551 0a2.443 2.443 0 1 1-2.443-2.443 2.4 2.4 0 0 1 2.443 2.443zm-16.879 0a2.443 2.443 0 1 1-2.443-2.443 2.465 2.465 0 0 1 2.443 2.443z"/><path class="ac" d="M252.18 178.263h118.262v53.412H252.18z"/><path class="ah" d="M262.063 215.13h57.632m-29.649-17.767h43.307m-71.29 0h18.766m-18.766 8.883h37.644m-37.644-17.878h37.644m-33.643-13.991l-5-5 5-5m13.322.006l5 5-5 5m-11.659-5.225h11.66m51.412 51.747l-5.774-5.774 5.774-5.663m19.544-.001l5.774 5.663-5.774 5.774m-3.109-8.772l-4.109 6.663m-11.659-4.109h9.994"/><g transform="translate(272.062 59.411)"><path class="ai" d="M31.085 36.79c-.111-.333 3.776-1.333 4-1.555l.777-8c.555-.555 2.554-2.665 3.442-2 3.442 5.885 6.774 16.546 8.773 19.211.333-.111.666-.111 1.11-.222l17.323-2.665a2.99 2.99 0 0 1 3.776 2.332c.444 1.777-4.22 4.22-5.885 4.664L45.857 54.44a10.758 10.758 0 0 1-1.221.333 5.215 5.215 0 0 1-5.108-2.332c-3.111-3.436-8.885-8.212-8.443-15.651z"/><path class="m" d="M67.287 47.339c1.333.222 3.22-1.221 4.331-2.11a2.931 2.931 0 0 1 2.11-.777c.555 0 1.444-.111 2.221-.111a2.593 2.593 0 0 0 1.777-1.11l.333-.555c.222-.444 0-1-.333-1l-6.885-1.11a6.44 6.44 0 0 0-4 1.11 1.109 1.109 0 0 0-.555.444c-2.221 1.221-1.555 4.553 1 5.219z"/><path class="t" d="M33.753 21.578H22.204a12.5 12.5 0 0 0-12.215 9.328L1.328 62.442h29.316l8.884-33.424a6 6 0 0 0-5.775-7.44z"/><path class="z" d="M57.96 62.331L47.522 74.879h-26.65a5.441 5.441 0 0 1-5.33-6.552l1.221-6z"/><circle class="z" cx="6.441" cy="6.441" r="6.441" transform="translate(51.297 62.442)"/><path class="o" d="M42.525 62.331L32.087 74.879H5.437a5.441 5.441 0 0 1-5.33-6.552l1.221-6z"/><path class="z" d="M41.969 112.967l-.888 3.664a2.533 2.533 0 0 0 2.443 3.109h19.433a.969.969 0 0 0 .555-1.777l-9.439-5z"/><path class="z" d="M63.958 70.548l-9.883 42.419H41.858l5.663-37.977 4-7.773z"/><circle class="o" cx="6.441" cy="6.441" r="6.441" transform="translate(35.751 62.442)"/><path class="o" d="M48.521 70.548l-9.994 42.419H26.312l5.774-37.977 3.887-7.773z"/><path class="z" d="M26.423 112.967l-.888 3.664a2.533 2.533 0 0 0 2.443 3.109h19.433a.969.969 0 0 0 .555-1.777l-9.439-5z"/><path class="aj" d="M30.972 56.556l-17.434-1.888a194.562 194.562 0 0 1 8.55-25.1c1.333-3.887-1.888-5.885-3.887-6.329-3-.666-6 1.888-7.44 4.664-3.77 7.329-8.878 22.767-8.989 30.652a4.973 4.973 0 0 0 4.553 5h1.222l19.433-.888c1.777 0 6.885-1.221 7-3a2.885 2.885 0 0 0-3.008-3.111z"/><path class="m" d="M30.31 62.223c1.221.555 3.442-.333 4.775-.888a3.108 3.108 0 0 1 2.221-.222c.555.111 1.444.333 2.221.444a2.34 2.34 0 0 0 2-.666l.555-.444a.676.676 0 0 0-.111-1.11l-6.441-2.776a6.5 6.5 0 0 0-4.109 0c-.222.111-.444.111-.666.222a2.943 2.943 0 0 0-.444 5.441z"/><path class="z" d="M45.412 62.555H28.868a2.986 2.986 0 0 1-3-3h19.544z"/><path class="ak" d="M67.399 62.553H40.193l4.109-19.655a1.356 1.356 0 0 1 1.444-1.11h25.762c1.888 0 2 .666 1.777 2l-3.553 16.879a2.377 2.377 0 0 1-2.333 1.886z"/><path class="s" d="M67.398 62.553a2.377 2.377 0 0 0 2.332-1.888l2.776-13.547C63.4 58 46.633 49.672 41.525 62.442h25.873z"/><path class="m" d="M59.852 53.226a2.666 2.666 0 0 1-2.554 2 1.722 1.722 0 0 1-1.333-2.332 2.666 2.666 0 0 1 2.554-2c1.106.111 1.661 1.11 1.333 2.332z"/><g transform="translate(23.814)"><path class="m" d="M19.377 7.03c0 6-.555 9.883-2.776 13.992a3.242 3.242 0 0 1-3.109 1.666 1.567 1.567 0 0 0-1.666.888l-.222 3.331a2.059 2.059 0 0 1-.222.777C8.717 32.792 1.721 29.35.167 25.13a2.752 2.752 0 0 1 0-1.888l3.22-5.441L7.495 3.366z"/><ellipse class="m" cx="2.11" cy="2.887" rx="2.11" ry="2.887" transform="rotate(-1.204 491.771 -163.973)"/><path class="o" d="M18.489 4.366L10.605.591c-4.22-.888-7.44 1.555-8.328 5.663a26.619 26.619 0 0 0 .222 12.548.609.609 0 0 0 1 .333l1.222-3.442a3.016 3.016 0 0 1-1.11-2.443c0-1.555.888-2.887 2-2.887a2.239 2.239 0 0 1 1.666 1c.222.222.333.333.333-.111l.111-1a4.079 4.079 0 0 1 5.33-3.331l6.33 1.11c3.55-1.111 3.439-2.777-.892-3.665z"/><path class="al" d="M7.829 19.801c.888 1.555 2.332 2.776 5.219 3"/><path class="o" d="M6.94 6.476c2.11 1.555 2.332-.111 4 0 3.442.666 4.553 2.332 8.661 3.22a3.082 3.082 0 0 0 3.664-3.553 2.365 2.365 0 0 0-3.442-1.777 7.744 7.744 0 0 0-5.441-4.22A10.809 10.809 0 0 0 4.275 4.032z"/></g></g><path class="m" d="M190.218 133.512a2.221 2.221 0 1 1-2.221-2.221 2.227 2.227 0 0 1 2.221 2.221zm-22.097 60.963a2.221 2.221 0 1 1-2.221-2.221 2.3 2.3 0 0 1 2.221 2.221zm31.757 19.766a2.2 2.2 0 0 1 1.444-2.776 2.213 2.213 0 0 1 1.333 4.22 2.25 2.25 0 0 1-2.777-1.444z"/><path class="a" d="M502.365 160.051c8.772-1.555 13.769 7.884 16.768 7.551 1.888-.222 2.665-1.444 4.553-1.555 3.442 0 4.886 4.553 8.772 5.663 1.777.222 3.442-1.11 5-.444a5.921 5.921 0 0 1 3.331 2.887h-55.524c7.218-3.219 8-11.992 17.1-14.102zM482.192.656c-19.908-5.9-31.248 29.908-38.052 28.644-4.284-.842-6.048-5.476-10.332-5.9-7.812 0-11.088 17.271-19.908 21.483-4.032.842-7.812-4.212-11.34-1.685-3.276 1.685-5.292 5.055-7.56 10.952h126C504.62 41.938 502.856 8.656 482.192.656z"/></svg>