<svg xmlns="http://www.w3.org/2000/svg" xmlns:xlink="http://www.w3.org/1999/xlink" viewBox="0 0 495.3 187.442"><defs><style>.a{fill:#d9edf6;}.b{fill:url(#a);}.c{fill:#96b7e2;}.d{clip-path:url(#b);}.e{fill:url(#c);}.f{fill:#239b6a;}.g{fill:url(#e);}.ah,.al,.h,.n,.p,.q,.r,.v,.w{fill:none;stroke-linecap:round;stroke-linejoin:round;stroke-miterlimit:10;}.h,.q{stroke:#239b6a;}.ah,.h,.v{stroke-width:1.5px;}.i{fill:url(#f);}.j{fill:url(#g);}.k{fill:#567bef;}.l{fill:url(#h);}.m{fill:#fff;}.n{stroke:#d9edf6;}.o{fill:#4263eb;}.p,.w{stroke:#f2751c;}.p{stroke-dasharray:3 5;}.r{stroke:#4263eb;}.s{fill:#f2751c;}.t{fill:#4ccd9b;}.u{fill:#96b7e1;}.v{stroke:#1f46e7;}.x{fill:url(#i);}.y{fill:#3054e9;}.z{fill:#1f46e7;}.aa{fill:url(#j);}.ab{fill:url(#k);}.ac{fill:#ffc400;}.ad{fill:url(#l);}.ae{fill:url(#m);}.af{fill:url(#n);}.ag{fill:url(#o);}.ah{stroke:#fff;}.ai{fill:url(#p);}.aj{fill:url(#q);}.ak{fill:url(#r);}.al{stroke:#c8cbac;stroke-width:0.382px;}</style><linearGradient id="a" x1="-0.006" y1="0.486" x2="0.99" y2="0.486" gradientUnits="objectBoundingBox"><stop offset="0" stop-color="#f2751c"/><stop offset="1" stop-color="#ffc400"/></linearGradient><clipPath id="b"><rect width="61.6" height="58.4" transform="translate(70.8 128.7)"/></clipPath><linearGradient id="c" x1="22.2" y1="-50.986" x2="22.828" y2="-50.986" gradientUnits="objectBoundingBox"><stop offset="0" stop-color="#239b6a"/><stop offset="1" stop-color="#4ccd9b"/></linearGradient><linearGradient id="e" x1="23.587" y1="-25.831" x2="24.622" y2="-25.831" xlink:href="#c"/><linearGradient id="f" x1="15.284" y1="-25.19" x2="16.272" y2="-25.19" xlink:href="#c"/><linearGradient id="g" x1="3.077" y1="0.431" x2="4.241" y2="0.783" xlink:href="#a"/><linearGradient id="h" y1="0.5" x2="1" y2="0.5" gradientUnits="objectBoundingBox"><stop offset="0" stop-color="#1f46e7"/><stop offset="1" stop-color="#4263eb"/></linearGradient><linearGradient id="i" x1="0" y1="0.495" x2="1" y2="0.495" xlink:href="#h"/><linearGradient id="j" x1="-11.219" y1="0.5" x2="-10.216" y2="0.5" xlink:href="#c"/><linearGradient id="k" x1="-6.645" y1="0.5" x2="-5.646" y2="0.5" xlink:href="#h"/><linearGradient id="l" x1="-7.015" y1="0.999" x2="-7.015" y2="0.001" xlink:href="#a"/><linearGradient id="m" x1="-3.78" y1="0.499" x2="-2.78" y2="0.499" gradientUnits="objectBoundingBox"><stop offset="0" stop-color="#4263eb"/><stop offset="1" stop-color="#1f46e7"/></linearGradient><linearGradient id="n" x1="-11.269" y1="0.499" x2="-10.269" y2="0.499" xlink:href="#c"/><linearGradient id="o" x1="0" y1="0.5" x2="0.999" y2="0.5" xlink:href="#a"/><linearGradient id="p" x1="0.19" y1="1.202" x2="0.625" y2="0.286" xlink:href="#c"/><linearGradient id="q" x1="338.653" y1="1.277" x2="339.294" y2="0.459" xlink:href="#c"/><linearGradient id="r" x1="0.001" y1="0.504" x2="0.999" y2="0.504" xlink:href="#a"/></defs><g transform="translate(0 -0.058)"><path class="a" d="M28.7,68.3c9.7-1.7,15.2,8.7,18.6,8.4,2.1-.3,3-1.6,5-1.7,3.8,0,5.4,5,9.8,6.3,2,.3,3.8-1.2,5.6-.5A6.2,6.2,0,0,1,71.3,84H9.8C17.8,80.4,18.6,70.6,28.7,68.3Z"/><path class="a" d="M216.4,132.9C182.1,113.6,169.1,85,140,58.4c-17.3,23.8-49.9,62.3-58.7,60.7-9.1-2.7-7.8-11.9-21.6-11.9C44,107.2,33,164.3,0,187.1H246.3C233.2,174.8,224.5,154.6,216.4,132.9Z"/><path class="b" d="M118.3,140a45.53,45.53,0,0,0,1-6.6,50.446,50.446,0,0,0,0-5.5l9.3-3.3L126,114.2l-9.7,1.6a40.912,40.912,0,0,0-6.2-10l6.1-8.9-8-6.9-7.6,7.9a37.99,37.99,0,0,0-10.3-4l-.2-11.7-10.5-.7L77.9,93.3a36.259,36.259,0,0,0-10.8,3.1l-6.6-8.8-8.8,5.8,5.2,10.1a36.261,36.261,0,0,0-6.4,8.2L40,108.3l-4,10,9.9,5.2a43.413,43.413,0,0,0-.7,5.2,48.638,48.638,0,0,0,0,5.4l-11.6,4.1,2.5,10.4,12.1-2a37.469,37.469,0,0,0,5.3,8.8L46.9,165l8,6.9,7.9-8.2a39.668,39.668,0,0,0,10.1,4.4l.2,10.9,10.5.7,1.6-10.6a34.265,34.265,0,0,0,10.7-2.6l6.8,9.1,8.9-5.8-5.1-9.9a37.989,37.989,0,0,0,6.8-8.1l10.6,3.4,4-10ZM82.8,152.2A21.739,21.739,0,1,1,103,134.3,21.781,21.781,0,0,1,82.8,152.2Z"/><path class="c" d="M113.5,75.4a16.072,16.072,0,0,0,1.8-8.9l4.8-2.2-2.3-6.4-5.2,1a15.553,15.553,0,0,0-6.9-5.8l.3-5.7-6.7-1.2-1.4,5.6a18.908,18.908,0,0,0-4,.8,13.873,13.873,0,0,0-4,2.1l-4.8-3.3-4.4,5.1,4.1,4.3a16.1,16.1,0,0,0-1.4,8.4l-5.2,2.5,2.3,6.4,5.7-1.3a16.163,16.163,0,0,0,6.6,5.6l-.3,5.9,6.7,1.2,1.5-5.6a14.328,14.328,0,0,0,4.1-.9,15.444,15.444,0,0,0,3.4-1.7l4.7,3.3,4.4-5.1Zm-7.3-3A8.3,8.3,0,1,1,103,61.1,8.357,8.357,0,0,1,106.2,72.4Z"/><g class="d"><path class="e" d="M90,174.7c-1.7-1.8-5.6.3-7.1-1.5-1.8-1.9,1.6-3.9,0-6.5-1.1-1.6-3.2,0-5.9-2.2-1.7-1.4.2-3.4-.7-5.5-.1-.2.1-.3.2-.3,2.2.6,3.8-1.4,5.4.1,2.7,2.3,1.4,4.6,3.1,5.5,2.8,1.2,4.3-2.4,6.5-.9,2,1.3.5,5.4,2.6,6.8,3.3,2.1,6.5-4.8,10.1-2.6,4.8,2.9,6.9,13.6,8,19.3-5.7-.3-19.5,2.6-23.1-1.7C86.2,181.8,92.6,177.6,90,174.7Z"/><path class="f" d="M76.5,158.6c2.2.6,3.8-1.4,5.4.1,2.7,2.3,1.4,4.6,3.1,5.5,2.8,1.2,4.3-2.4,6.5-.9,2,1.3.5,5.4,2.6,6.8,3.3,2.1,6.5-4.8,10.1-2.6,4.8,2.9,6.9,13.6,8,19.3l-.5-.1-35.3-28C76.4,158.5,76.4,158.5,76.5,158.6Z"/></g><g class="d"><path class="g" d="M101.7,163c-.7-3.5-5.8-4.8-6.4-8.2-.7-3.7,3-3.2,3-7.6-.2-2.8-2.4-1.4-3.9-6.2-1-3,3.1-5.5,3.6-8.8,0-.2.3-.3.5-.2,2.3,2.4,6.8,1.8,7.7,4.9,1.5,4.8-1.5,5.1,0,7.5,2.5,3.6,5.6,1.2,7.2,4.6,1.5,3.1-1.7,7.1-.3,10.4,2.5,5.1,9.9-1.1,12.6,4.4,3.6,7.2-3.3,21.8-10,24.2-6.6,1.1-19-3-20.2-11C94.5,170.9,102.7,168.6,101.7,163Z"/><path class="f" d="M98.5,132.2c2.3,2.4,6.8,1.8,7.7,4.9,1.5,4.8-1.1,5.6.4,8,2.4,3.3,5.1.3,6.8,4.1,1.4,3.1-1.7,7.1-.3,10.4,2.5,5.1,9.9-1.1,12.6,4.4,3.6,7.2,4.1,24.2-10,24.2l-.1-.9-17.3-55C98.4,132.1,98.4,132.1,98.5,132.2Z"/></g><path class="h" d="M31.5,34.5A3.458,3.458,0,0,0,28,37.9v4.2a3.5,3.5,0,0,0,7,0V37.9A3.523,3.523,0,0,0,31.5,34.5Z"/><line class="h" y2="11.2" transform="translate(41.9 34.4)"/><path class="h" d="M52.2,34.5a3.458,3.458,0,0,0-3.5,3.4v4.2a3.5,3.5,0,0,0,7,0V37.9A3.523,3.523,0,0,0,52.2,34.5Z"/><line class="h" y2="11.2" transform="translate(62.6 34.4)"/><line class="h" y2="11.1" transform="translate(70.5 34.5)"/><path class="h" d="M80.6,34.6a3.351,3.351,0,0,0-3.4,3.3v4.2a3.4,3.4,0,0,0,6.8,0V37.9A3.351,3.351,0,0,0,80.6,34.6Z"/><path class="a" d="M237.6,2.4c58.7-19.9,87,93.6,106.9,91.4,15.3-.9,23.7-33.9,39.8-34,23.3,0,32.2,74.8,58.5,89.1,12.2,3.5,18-15.6,29-7.9,9.4,5.4,17.5,26.8,23.5,46.5H123C171.1,145.2,176.4,29.5,237.6,2.4Z"/><path class="i" d="M374.8,155.2c.5-3.3,6.5-4,6.9-7.2.5-3.5-4.8-3.2-5-7.4.1-2.7,3.7-2.4,4.9-7.1.9-2.9-2.8-3.7-3.5-6.8,0-.2-.3-.3-.5-.1-2.1,2.4-5.4,1.3-6.1,4.2-1.3,4.7,2,6.3.7,8.6-2.3,3.5-6.7.6-8.1,3.9-1.3,3,3.6,6.6,2.3,9.7-2.2,5-11-.5-13.4,4.8-3.1,7,7.5,14.4,10.6,21.7,6.3-4.7,19.3-5.7,20.1-13.4C384.5,160.3,374.1,160.5,374.8,155.2Z"/><path class="f" d="M377.7,126.5c-2.1,2.4-5.4,1.3-6.1,4.2-1.3,4.7,2,6.3.7,8.6-2.3,3.5-6.7.6-8.1,3.9-1.3,3,3.6,6.6,2.3,9.7-2.2,5-11-.5-13.4,4.8-3.1,7,7.5,14.4,10.6,21.7h0l14.1-53.1C377.8,126.4,377.8,126.4,377.7,126.5Z"/><path class="j" d="M370.8,180h34.4c.8-.9,1.3-1.8.8-2.7a1.184,1.184,0,0,0-1.8,0c1.1-3.8,4.5-5.1,4.1-6.6-.7-1.9-4,.5-6.6,1.8.8-3.4,4.7-4.6,3.6-6.3-.7-.9-4.5,1.3-7.2,2.9,3.9-7.1,11.5-15,9.6-16.9-2-1.7-7.6,4.7-11.5,9.1,3.6-12.2,14-27.1,10.6-28.8-5.6-2.6-15.2,16.4-21.8,31,2.5-7.8,5.4-18.1,1.6-19.3-3.9-1.3-9.5,15.5-11.7,26.3-1.4-3.8-3-7.9-5.9-7.2C366.1,164.2,369,173.4,370.8,180Z"/><path class="k" d="M114.9,81.3h-2.2a3.757,3.757,0,0,1-3.7-3.7V60.9a3.757,3.757,0,0,1,3.7-3.7h2.2a3.757,3.757,0,0,1,3.7,3.7V77.7A3.608,3.608,0,0,1,114.9,81.3Z"/><path class="l" d="M208,187.1H121.8a9.347,9.347,0,0,1-9.3-9.3V47.1a9.347,9.347,0,0,1,9.3-9.3H208a9.347,9.347,0,0,1,9.3,9.3V177.8A9.347,9.347,0,0,1,208,187.1Z"/><path class="c" d="M164.7,42.4a1.5,1.5,0,1,1,1.5,1.5A1.473,1.473,0,0,1,164.7,42.4Z"/><path class="c" d="M161.2,178.9a4.3,4.3,0,1,1,4.3,4.3A4.268,4.268,0,0,1,161.2,178.9Z"/><rect class="m" width="90.8" height="126.4" transform="translate(119.1 46.2)"/><line class="n" y2="124.3" transform="translate(136.2 47.3)"/><line class="n" y2="124.3" transform="translate(155 47.3)"/><line class="n" y2="124.3" transform="translate(173.2 47.3)"/><line class="n" y2="124.3" transform="translate(192.1 47.3)"/><line class="n" x1="89.2" transform="translate(119.9 66.3)"/><line class="n" x1="89.2" transform="translate(119.9 84.5)"/><line class="n" x1="89.2" transform="translate(119.9 102)"/><line class="n" x1="89.2" transform="translate(119.9 120.2)"/><line class="n" x1="89.2" transform="translate(119.9 139.6)"/><line class="n" x1="89.2" transform="translate(119.9 157.7)"/><path class="o" d="M177.4,143.9a4.567,4.567,0,0,0,4.5,4.6,4.5,4.5,0,0,0,4.5-4.6,4.5,4.5,0,1,0-9,0Z"/><path class="p" d="M119.1,145.9l15.7-33.3a10.085,10.085,0,0,1,9.3-6h4.4a10.266,10.266,0,0,0,9.9-7.7l5-19.6a10.232,10.232,0,0,1,14.3-6.7h0a10.052,10.052,0,0,0,12.4-2.9l12.6-16.1"/><path class="q" d="M118.6,154.8l27.6-27.4a7.582,7.582,0,0,1,8.3-.4l6.9,4.1a7.424,7.424,0,0,0,9.6-1.7l38.9-47.6"/><path class="r" d="M118.6,168.3,140.2,150a6.882,6.882,0,0,1,9.6,0l7.1,7.1a6.882,6.882,0,0,0,9.6,0l11.2-11.2a6.882,6.882,0,0,1,9.6,0l22.6,22.4"/><path class="s" d="M164.8,71.8a4.567,4.567,0,0,0,4.5,4.6,4.6,4.6,0,1,0-4.5-4.6Z"/><path class="t" d="M146,123.7a4.683,4.683,0,0,0,.3,6.5,4.53,4.53,0,0,0,6.1-6.7A4.386,4.386,0,0,0,146,123.7Z"/><path class="c" d="M214.5,187.1H365.3L352.1,78.3c-.4-3.7-3.3-6-7.3-6H201.9c-10.7,0-11.4,3.9-10.6,10.9l11.4,93.6A11.645,11.645,0,0,0,214.5,187.1Z"/><path class="m" d="M355.8,177.8,344.1,81.6H201.3l11.8,96.7Z"/><path class="u" d="M273.3,75.4a1.4,1.4,0,1,1,1.4,1.4A1.43,1.43,0,0,1,273.3,75.4Z"/><path class="q" d="M410,61a1.561,1.561,0,0,0-1.6,1.5v1.9a1.6,1.6,0,0,0,3.2,0V62.5A1.561,1.561,0,0,0,410,61Z"/><line class="q" y2="5.1" transform="translate(414.7 61)"/><path class="q" d="M419.4,61a1.561,1.561,0,0,0-1.6,1.5v1.9a1.6,1.6,0,0,0,3.2,0V62.5A1.708,1.708,0,0,0,419.4,61Z"/><line class="q" y2="5.1" transform="translate(424.1 61)"/><line class="q" y2="5" transform="translate(427.6 61)"/><path class="q" d="M432.2,61.1a1.473,1.473,0,0,0-1.5,1.5v1.9a1.538,1.538,0,0,0,1.5,1.5,1.473,1.473,0,0,0,1.5-1.5V62.6A1.473,1.473,0,0,0,432.2,61.1Z"/><path class="v" d="M386.7,27.3a3.138,3.138,0,0,0-3.2,3.1v3.9a3.2,3.2,0,0,0,6.4,0V30.4A3.138,3.138,0,0,0,386.7,27.3Z"/><line class="v" y2="10.4" transform="translate(396.4 27.2)"/><path class="v" d="M405.9,27.3a3.138,3.138,0,0,0-3.2,3.1v3.9a3.2,3.2,0,0,0,6.4,0V30.4A3.138,3.138,0,0,0,405.9,27.3Z"/><line class="v" y2="10.4" transform="translate(415.6 27.2)"/><line class="v" y2="10.3" transform="translate(422.9 27.3)"/><path class="v" d="M432.3,27.4a3.138,3.138,0,0,0-3.2,3.1v3.9a3.2,3.2,0,0,0,6.4,0V30.5A3.272,3.272,0,0,0,432.3,27.4Z"/><path class="v" d="M327.9,27.3a3.138,3.138,0,0,0-3.2,3.1v3.9a3.2,3.2,0,0,0,6.4,0V30.4A3.138,3.138,0,0,0,327.9,27.3Z"/><line class="v" y2="10.5" transform="translate(337.6 27.1)"/><path class="v" d="M347.1,27.3a3.138,3.138,0,0,0-3.2,3.1v3.9a3.2,3.2,0,0,0,6.4,0V30.4A3.138,3.138,0,0,0,347.1,27.3Z"/><line class="v" y2="10.5" transform="translate(356.8 27.1)"/><line class="v" y2="10.3" transform="translate(364.1 27.2)"/><path class="v" d="M373.5,27.4a3.138,3.138,0,0,0-3.2,3.1v3.9a3.2,3.2,0,0,0,6.4,0V30.5A3.137,3.137,0,0,0,373.5,27.4Z"/><path class="w" d="M100.1,19.5a2.348,2.348,0,0,0-2.4,2.3v2.9a2.4,2.4,0,0,0,4.8,0V21.8A2.414,2.414,0,0,0,100.1,19.5Z"/><line class="w" y2="7.7" transform="translate(107.2 19.4)"/><path class="w" d="M114.2,19.5a2.348,2.348,0,0,0-2.4,2.3v2.9a2.4,2.4,0,0,0,4.8,0V21.8A2.288,2.288,0,0,0,114.2,19.5Z"/><line class="w" y2="7.7" transform="translate(121.4 19.4)"/><line class="w" y2="7.7" transform="translate(126.8 19.4)"/><path class="w" d="M133.7,19.5a2.348,2.348,0,0,0-2.4,2.3v2.9a2.4,2.4,0,0,0,4.8,0V21.8A2.416,2.416,0,0,0,133.7,19.5Z"/><path class="w" d="M462.4,44.7a1.9,1.9,0,0,1,1.9,1.9v2.3a1.967,1.967,0,0,1-1.9,1.9,1.9,1.9,0,0,1-1.9-1.9V46.6A1.839,1.839,0,0,1,462.4,44.7Z"/><line class="w" y2="6.2" transform="translate(456.7 44.6)"/><path class="w" d="M451,44.7a1.9,1.9,0,0,1,1.9,1.9v2.3a1.967,1.967,0,0,1-1.9,1.9,1.9,1.9,0,0,1-1.9-1.9V46.6A1.9,1.9,0,0,1,451,44.7Z"/><line class="w" y2="6.2" transform="translate(445.3 44.6)"/><line class="w" y2="6.1" transform="translate(441 44.7)"/><path class="w" d="M435.4,44.7a1.88,1.88,0,0,1,1.9,1.8v2.3a1.817,1.817,0,0,1-1.9,1.8,1.88,1.88,0,0,1-1.9-1.8V46.5A2.033,2.033,0,0,1,435.4,44.7Z"/><path class="k" d="M202.2,173.5l.7,5.2c.7,4.9,5.3,8.4,11,8.4H418.3c8.6,0,15.6-6.1,15.6-13.7H202.2Z"/><path class="x" d="M329.4,173.5c0,7.5-7,13.7-15.6,13.7H417.7c8.6,0,15.6-6.1,15.6-13.7Z"/><path class="k" d="M397.2,177.5H377.5a3.585,3.585,0,0,1-3.6-3.6v-.5h26.9v.5A3.585,3.585,0,0,1,397.2,177.5Z"/><rect class="y" width="5.3" height="17.4" transform="matrix(0.727, -0.687, 0.687, 0.727, 380.152, 98.398)"/><rect class="z" width="5.3" height="4.7" transform="matrix(0.727, -0.687, 0.687, 0.727, 380.235, 98.432)"/><path class="aa" d="M420.3,128.9a2.959,2.959,0,0,1-.1,4.1l-4,3.8a2.959,2.959,0,0,1-4.1-.1l-25.8-27.3a2.959,2.959,0,0,1,.1-4.1l4-3.8a2.959,2.959,0,0,1,4.1.1Z"/><path class="ab" d="M361.3,105.7a29.575,29.575,0,0,1-21.8-9.4,30,30,0,0,1,21.8-50.6,29.915,29.915,0,0,1,20.6,51.7A29.466,29.466,0,0,1,361.3,105.7Zm0-54.5A24.573,24.573,0,1,0,379,58.9,24.13,24.13,0,0,0,361.3,51.2Z"/><path class="m" d="M380.5,57.6a26.314,26.314,0,1,1-37.2-1A26.354,26.354,0,0,1,380.5,57.6Z"/><rect class="s" width="6.7" height="41.3" transform="translate(363.99 93.604) rotate(180)"/><rect class="ac" width="6.7" height="4.9" transform="translate(363.99 57.119) rotate(180)"/><path class="ad" d="M357.3,93.6H364V76.4h-6.7Z"/><rect class="u" width="6.7" height="24.2" transform="translate(351.444 93.595) rotate(180)"/><rect class="z" width="6.7" height="14" transform="translate(351.444 83.43) rotate(180)"/><path class="ae" d="M344.8,83.4h6.7v-6h-6.7Z"/><path class="af" d="M369.9,93.6h6.7V61.4h-6.7Z"/><rect class="f" width="6.7" height="8.6" transform="translate(376.502 93.573) rotate(180)"/><path class="ag" d="M333.4,112.1h-106a.265.265,0,0,1-.3-.3V96a.265.265,0,0,1,.3-.3h106a.265.265,0,0,1,.3.3v15.7C333.6,111.9,333.5,112.1,333.4,112.1Z"/><path class="m" d="M321.7,104.1a2.2,2.2,0,1,1-2.2-2.2A2.22,2.22,0,0,1,321.7,104.1Z"/><path class="m" d="M329.4,104.1a2.2,2.2,0,1,1-2.2-2.2A2.156,2.156,0,0,1,329.4,104.1Z"/><path class="m" d="M314.2,104.1a2.2,2.2,0,1,1-2.2-2.2A2.22,2.22,0,0,1,314.2,104.1Z"/><rect class="ac" width="106.5" height="48.1" transform="translate(227.1 112.1)"/><line class="ah" x2="51.9" transform="translate(236 145.3)"/><line class="ah" x2="39" transform="translate(261.2 129.3)"/><line class="ah" x2="16.9" transform="translate(236 129.3)"/><line class="ah" x2="33.9" transform="translate(236 137.3)"/><line class="ah" x2="33.9" transform="translate(236 121.2)"/><path class="ah" d="M239.6,108.6l-4.5-4.5,4.5-4.5"/><path class="ah" d="M251.6,99.6l4.5,4.5-4.5,4.5"/><line class="ah" x2="10.5" transform="translate(241.1 103.9)"/><path class="ah" d="M297.9,150.5l-5.2-5.2,5.2-5.1"/><path class="ah" d="M315.5,140.2l5.2,5.1-5.2,5.2"/><line class="ah" x1="3.7" y2="6" transform="translate(309 142.6)"/><line class="ah" x2="9" transform="translate(298.5 144.9)"/><path class="ai" d="M273,38.2c-.1-.3,3.4-1.2,3.6-1.4l.7-7.2c.5-.5,2.3-2.4,3.1-1.8,3.1,5.3,6.1,14.9,7.9,17.3.3-.1.6-.1,1-.2l15.6-2.4a2.693,2.693,0,0,1,3.4,2.1h0c.4,1.6-3.8,3.8-5.3,4.2l-16.7,5.3a9.686,9.686,0,0,1-1.1.3,4.7,4.7,0,0,1-4.6-2.1C277.8,49.2,272.6,44.9,273,38.2Z"/><path class="m" d="M305.6,47.7c1.2.2,2.9-1.1,3.9-1.9a2.64,2.64,0,0,1,1.9-.7c.5,0,1.3-.1,2-.1a2.335,2.335,0,0,0,1.6-1l.3-.5c.2-.4,0-.9-.3-.9l-6.2-1a5.8,5.8,0,0,0-3.6,1,1,1,0,0,0-.5.4c-2,1.1-1.4,4.1.9,4.7Z"/><path class="t" d="M275.4,24.5H265a11.259,11.259,0,0,0-11,8.4l-7.8,28.4h26.4l8-30.1A5.4,5.4,0,0,0,275.4,24.5Z"/><path class="z" d="M297.2,61.2l-9.4,11.3h-24a4.9,4.9,0,0,1-4.8-5.9l1.1-5.4h37.1Z"/><circle class="z" cx="5.8" cy="5.8" r="5.8" transform="translate(291.2 61.3)"/><path class="o" d="M283.3,61.2l-9.4,11.3h-24a4.9,4.9,0,0,1-4.8-5.9l1.1-5.4h37.1Z"/><path class="z" d="M282.8,106.8l-.8,3.3a2.281,2.281,0,0,0,2.2,2.8h17.5a.873.873,0,0,0,.5-1.6l-8.5-4.5H282.8Z"/><path class="z" d="M302.6,68.6l-8.9,38.2h-11l5.1-34.2,3.6-7Z"/><circle class="o" cx="5.8" cy="5.8" r="5.8" transform="translate(277.2 61.3)"/><path class="o" d="M288.7,68.6l-9,38.2h-11l5.2-34.2,3.5-7Z"/><path class="z" d="M268.8,106.8l-.8,3.3a2.281,2.281,0,0,0,2.2,2.8h17.5a.873.873,0,0,0,.5-1.6l-8.5-4.5H268.8Z"/><path class="aj" d="M272.9,56l-15.7-1.7a175.2,175.2,0,0,1,7.7-22.6c1.2-3.5-1.7-5.3-3.5-5.7-2.7-.6-5.4,1.7-6.7,4.2-3.4,6.6-8,20.5-8.1,27.6a4.479,4.479,0,0,0,4.1,4.5h1.1l17.5-.8c1.6,0,6.2-1.1,6.3-2.7h0A2.6,2.6,0,0,0,272.9,56Z"/><path class="m" d="M272.3,61.1c1.1.5,3.1-.3,4.3-.8a2.8,2.8,0,0,1,2-.2c.5.1,1.3.3,2,.4a2.107,2.107,0,0,0,1.8-.6l.5-.4a.609.609,0,0,0-.1-1L277,56a5.854,5.854,0,0,0-3.7,0c-.2.1-.4.1-.6.2a2.65,2.65,0,0,0-.4,4.9Z"/><path class="z" d="M285.9,61.4H271a2.689,2.689,0,0,1-2.7-2.7h17.6Z"/><path class="ak" d="M305.7,61.4H281.2l3.7-17.7a1.221,1.221,0,0,1,1.3-1h23.2c1.7,0,1.8.6,1.6,1.8l-3.2,15.2A2.14,2.14,0,0,1,305.7,61.4Z"/><path class="s" d="M305.7,61.4a2.14,2.14,0,0,0,2.1-1.7l2.5-12.2c-8.2,9.8-23.3,2.3-27.9,13.8h23.3Z"/><path class="m" d="M298.9,53a2.4,2.4,0,0,1-2.3,1.8,1.551,1.551,0,0,1-1.2-2.1,2.4,2.4,0,0,1,2.3-1.8C298.7,51,299.2,51.9,298.9,53Z"/><path class="m" d="M283.9,11.4c0,5.4-.5,8.9-2.5,12.6a2.919,2.919,0,0,1-2.8,1.5h0a1.411,1.411,0,0,0-1.5.8l-.2,3a1.854,1.854,0,0,1-.2.7c-2.4,4.6-8.7,1.5-10.1-2.3a2.479,2.479,0,0,1,0-1.7l2.9-4.9,3.7-13Z"/><ellipse class="m" cx="1.9" cy="2.6" rx="1.9" ry="2.6" transform="translate(269.651 14.341) rotate(-1.204)"/><path class="o" d="M283.1,9,276,5.6c-3.8-.8-6.7,1.4-7.5,5.1a23.972,23.972,0,0,0,.2,11.3.549.549,0,0,0,.9.3l1.1-3.1a2.716,2.716,0,0,1-1-2.2c0-1.4.8-2.6,1.8-2.6a2.016,2.016,0,0,1,1.5.9c.2.2.3.3.3-.1l.1-.9a3.673,3.673,0,0,1,4.8-3l5.7,1C287.1,11.3,287,9.8,283.1,9Z"/><path class="al" d="M273.5,22.9a5.341,5.341,0,0,0,4.7,2.7"/><path class="o" d="M272.7,10.9c1.9,1.4,2.1-.1,3.6,0,3.1.6,4.1,2.1,7.8,2.9a2.775,2.775,0,0,0,3.3-3.2A2.129,2.129,0,0,0,284.3,9a6.974,6.974,0,0,0-4.9-3.8,9.734,9.734,0,0,0-9.1,3.5Z"/><path class="m" d="M171.3,71.8a2,2,0,1,1-2-2A2.006,2.006,0,0,1,171.3,71.8Z"/><path class="m" d="M151.4,126.7a2,2,0,1,1-2-2A2.074,2.074,0,0,1,151.4,126.7Z"/><path class="m" d="M180,144.5a1.984,1.984,0,0,1,1.3-2.5,1.992,1.992,0,0,1,1.2,3.8A2.026,2.026,0,0,1,180,144.5Z"/><path class="a" d="M447,96.6c7.9-1.4,12.4,7.1,15.1,6.8,1.7-.2,2.4-1.3,4.1-1.4,3.1,0,4.4,4.1,7.9,5.1,1.6.2,3.1-1,4.5-.4a5.332,5.332,0,0,1,3,2.6h-50C438.1,106.4,438.8,98.5,447,96.6Z"/></g></svg>