<svg xmlns="http://www.w3.org/2000/svg" xmlns:xlink="http://www.w3.org/1999/xlink" width="297" height="97" viewBox="0 0 297 97"><defs><path id="a" d="M736.7 2380.5c-26.8-6.22-39.73 29.3-48.82 28.61-6.99-.28-10.83-10.6-18.18-10.64-10.64 0-14.7 23.41-26.72 27.89-5.57 1.1-8.22-4.88-13.25-2.47-4.29 1.69-7.99 8.39-10.73 14.55h170.05c-21.97-13.24-24.39-49.45-52.34-57.94z"/><path id="b" d="M544.24 2344.74c26.63-4.61 41.79 23.85 51.02 23.09 5.7-.85 8.23-4.54 13.77-4.54 10.54 0 14.93 13.85 26.86 17.15 5.54.85 10.38-3.3 15.3-1.53 4.32 1.23 7.24 4.15 10.01 8.69H492.23c21.85-9.7 24.24-36.55 52.01-42.86z"/><path id="d" d="M582.16 2403.51a13.4 13.4 0 1 1 26.81 0 13.4 13.4 0 0 1-26.8 0z"/><path id="e" d="M601.31 2413.57l-11.97-.28v-1.23c0-.61.55-1.1 1.17-1.1l9.7.21c.62 0 1.1.55 1.1 1.17z"/><path id="f" d="M589.33 2413.29l.03-1.03 11.96.28-.02 1.02z"/><path id="g" d="M599.95 2411.24l-9.03-.2v-.62c0-.27.2-.41.48-.41l8.14.2c.27 0 .4.21.4.48z"/><path id="h" d="M599.26 2410.15l-7.66-.2a28.87 28.87 0 0 0 2.26-7.94l3.49.07c.13 2.94.75 5.6 1.91 8.07z"/><path id="i" d="M597.62 2402.14l-4.04-.06c-.13 0-.2-.14-.2-.2v-.28c0-.14.14-.2.2-.2l4.04.06c.14 0 .2.14.2.2v.28c.07.07-.06.2-.2.2z"/><path id="j" d="M597.69 2399.07l-4.04-.07c-.13 0-.2-.14-.2-.2v-.28c0-.14.13-.2.2-.2l4.04.06c.14 0 .2.14.2.2v.28c.07.07-.06.2-.2.2z"/><path id="k" d="M594.11 2400.6l.04-1.64 3.14.07-.03 1.64z"/><path id="l" d="M596.73 2392.7a.9.9 0 0 1-.89.9.9.9 0 0 1-.89-.9.9.9 0 0 1 .9-.88c.47-.07.88.34.88.89z"/><path id="m" d="M597.83 2395.3c0 1.17-.96 2.06-2.12 2.06a2.07 2.07 0 0 1-2.06-2.12c0-1.17.96-2.06 2.12-2.06 1.17 0 2.12.96 2.06 2.12z"/><path id="n" d="M597.28 2398.31l-3.15-.06-1.37-3.97c.48 0 .9.14 1.1.55 1.3-1.03 2.67-.96 3.97.06.13-.4.47-.54.95-.54z"/><path id="o" d="M597.69 2401.46l-4.04-.07c-.13 0-.2-.13-.2-.2v-.28c0-.13.13-.2.2-.2l4.04.07c.14 0 .2.13.2.2v.28c0 .06-.13.2-.2.2z"/><path id="p" d="M539.6 2416.04h36.33c.4 0 .89.2 1.16.55l9.58 10.53c.54.62.54 1.5 0 2.12l-9.58 10.47c-.27.34-.75.54-1.16.54H539.6c-.9 0-1.57-.68-1.57-1.57v-21.07c0-.88.68-1.57 1.57-1.57z"/><path id="r" d="M535.57 2413.58h36.32c.41 0 .9.2 1.16.55l9.58 10.53c.55.62.55 1.5 0 2.12l-9.58 10.53c-.27.34-.75.55-1.16.55h-36.32a1.7 1.7 0 0 1-1.57-1.64v-21.07c0-.89.68-1.57 1.57-1.57z"/><path id="s" d="M562.04 2420.15l5.54 5.54-5.54 5.54"/><path id="t" d="M545.7 2431.23l-5.54-5.54 5.54-5.54"/><path id="u" d="M573.2 2425.69a2.46 2.46 0 1 1 4.92 0 2.46 2.46 0 0 1-4.93 0z"/><path id="v" d="M546.93 2425.28h14.36"/><path id="w" d="M644.94 2418.65a14.8 14.8 0 1 1 29.54-1.82 14.8 14.8 0 0 1-29.54 1.82z"/><path id="y" d="M667.31 2404.94c-3.1-1.9-6.9-2.6-10.7-1.8-8 1.7-13.1 9.6-11.4 17.6.8 3.8 3.1 7 6.1 9.1z"/><path id="z" d="M649.11 2420.04a10.86 10.86 0 0 0 21.2-4.6 10.86 10.86 0 0 0-21.2 4.6z"/><path id="A" d="M663.51 2420.34c-.2.7-.9 1.1-1.6 1.3l-.7-3.2c.4 0 .9.1 1.3.2.2.1.4.1.6.2.2.1.3.3.3.4.2.4.2.7.1 1.1zm-4.5-3.8c-.2 0-.4 0-.6-.1-.2 0-.4-.1-.6-.2-.2-.1-.4-.2-.5-.3-.1-.2-.2-.4-.2-.6 0-.2 0-.4.1-.6.2-.5.7-.9 1.2-1.1zm5.3 1.3c.1.1.2.2 0 0s-.1-.1 0 0c-.6-.6-1.4-.9-2.2-1.1-.5-.1-1.1-.1-1.6-.1l-.7-3.4c.4 0 .9 0 1.3.2.2.1.4.2.5.4.1.1.1.2.2.2.1.1.1.2.2.3.2.3.6.5.9.4.4-.1.7-.3.7-.7v-.5c0-.1-.1-.2-.2-.3-.1-.1-.1-.2-.2-.3l-.9-.9c-.8-.5-1.7-.7-2.6-.6h-.4l-.2-1c-.1-.3-.3-.6-.7-.7-.3-.1-.7.1-.9.4-.2.2-.2.5-.2.7l.2 1c-.8.3-1.6.8-2.2 1.6-.2.3-.4.7-.5 1.2-.1.4-.1.9 0 1.4.1.4.3.9.6 1.2.3.3.6.6 1 .8.8.4 1.7.5 2.6.5l.8 3.5c-.4 0-.9-.1-1.3-.4-.2-.1-.4-.3-.5-.4-.1-.1-.1-.2-.2-.3-.1-.1-.1-.2-.2-.3-.2-.3-.5-.5-.9-.4-.4 0-.7.3-.8.7v.5c0 .1.1.2.1.3.1.1.1.2.2.3.2.4.6.7.9 1 .7.5 1.6.8 2.5.9h.5l.2 1c.1.3.3.6.7.7.3.1.7-.1.9-.4.2-.2.2-.5.2-.7l-.2-.9c.9-.3 1.7-.7 2.3-1.4.6-.7.9-1.5.8-2.4 0-.8-.2-1.5-.7-2z"/><path id="C" d="M601.23 2426.92c0 1.92-1.5 3.42-3.42 3.42a3.39 3.39 0 0 1-3.42-3.42c0-1.91 1.5-3.42 3.42-3.42a3.43 3.43 0 0 1 3.42 3.42z"/><path id="E" d="M621.06 2376.6a14.5 14.5 0 1 1 29.01 0 14.5 14.5 0 0 1-29.01 0z"/><path id="F" d="M625.04 2380.76a11.3 11.3 0 1 1 21.02-8.33 11.3 11.3 0 0 1-21.02 8.33z"/><path id="G" d="M634.24 2383.9a7.4 7.4 0 1 1 2.56-14.58 7.4 7.4 0 0 1-2.56 14.57z"/><path id="H" d="M636.84 2376.46a1.28 1.28 0 1 1-2.56.28 1.28 1.28 0 0 1 1.14-1.42c.71-.07 1.35.43 1.42 1.14z"/><path id="I" d="M640.12 2367.85l-4.56 8.75"/><path id="J" d="M642.75 2375.75l-6.76.85"/><path id="K" d="M613.59 2370.7a2.28 2.28 0 0 1-2.35 2.13 2.28 2.28 0 0 1-2.13-2.35 2.28 2.28 0 0 1 2.35-2.13 2.33 2.33 0 0 1 2.13 2.35z"/><path id="L" d="M687.11 2398.94c1.2.8 1.5 2.4.7 3.5-.8 1.2-2.4 1.5-3.5.7-1.2-.8-1.5-2.4-.7-3.5.7-1.1 2.3-1.5 3.5-.7z"/><path id="M" d="M704.16 2371.05h-35.77c-.43 0-.86-.22-1.14-.5l-9.46-10.38a1.46 1.46 0 0 1 0-2.07l9.46-10.38c.28-.35.7-.5 1.14-.5h35.77c.85 0 1.56.71 1.56 1.57v20.7c-.07.85-.71 1.56-1.56 1.56z"/><path id="O" d="M701.74 2368.63h-35.7c-.43 0-.85-.21-1.14-.5l-9.46-10.38a1.46 1.46 0 0 1 0-2.06l9.46-10.39c.29-.35.71-.5 1.14-.5h35.77c.85 0 1.56.72 1.56 1.57v20.7a1.7 1.7 0 0 1-1.63 1.56z"/><path id="P" d="M677.92 2362.16l-5.48-5.48 5.48-5.4"/><path id="Q" d="M686.38 2351.28l5.4 5.4-5.4 5.48"/><path id="R" d="M664.69 2356.68a2.4 2.4 0 0 1-2.42 2.42 2.4 2.4 0 0 1-2.42-2.42 2.4 2.4 0 0 1 2.42-2.42 2.5 2.5 0 0 1 2.42 2.42z"/><path id="S" d="M735.16 2435.05h-35.77c-.43 0-.86-.22-1.14-.5l-9.46-10.38a1.46 1.46 0 0 1 0-2.07l9.46-10.38c.28-.35.7-.5 1.14-.5h35.77c.85 0 1.56.71 1.56 1.57v20.7c-.07.85-.71 1.56-1.56 1.56z"/><path id="U" d="M732.74 2432.63h-35.7c-.43 0-.85-.21-1.14-.5l-9.46-10.38a1.46 1.46 0 0 1 0-2.06l9.46-10.39c.29-.35.71-.5 1.14-.5h35.77c.85 0 1.56.72 1.56 1.57v20.7a1.7 1.7 0 0 1-1.63 1.56z"/><path id="V" d="M706.92 2426.38l-5.48-5.48 5.48-5.4"/><path id="W" d="M723.38 2415.5l5.4 5.4-5.4 5.48"/><path id="X" d="M695.69 2420.68a2.4 2.4 0 0 1-2.42 2.42 2.4 2.4 0 0 1-2.42-2.42 2.4 2.4 0 0 1 2.42-2.42 2.5 2.5 0 0 1 2.42 2.42z"/><path id="Y" d="M709.93 2420.5h.57"/><path id="Z" d="M714.93 2420.5h.57"/><path id="aa" d="M719.93 2420.5h.57"/><linearGradient id="c" x1="358.05" x2="384.92" y1="3021.28" y2="3021.28" gradientUnits="userSpaceOnUse"><stop offset="0" stop-color="#4263eb"/><stop offset="1" stop-color="#1f46e7"/></linearGradient><linearGradient id="q" x1="628.89" x2="677.93" y1="2462.8" y2="2462.8" gradientUnits="userSpaceOnUse"><stop offset="0" stop-color="#4263eb"/><stop offset="1" stop-color="#1f46e7"/></linearGradient><linearGradient id="x" x1="1261.62" x2="1261.62" y1="1468.21" y2="1443.23" gradientUnits="userSpaceOnUse"><stop offset="0" stop-color="#f2751c"/><stop offset="1" stop-color="#ffc400"/></linearGradient><linearGradient id="B" x1="595.42" x2="599.17" y1="2430" y2="2425.21" gradientUnits="userSpaceOnUse"><stop offset="0" stop-color="#4263eb"/><stop offset="1" stop-color="#1f46e7"/></linearGradient><linearGradient id="D" x1="837.05" x2="866.13" y1="1975.42" y2="1975.42" gradientUnits="userSpaceOnUse"><stop offset="0" stop-color="#239b6a"/><stop offset="1" stop-color="#4ccd9b"/></linearGradient><linearGradient id="N" x1="655.04" x2="703.32" y1="2356.71" y2="2356.71" gradientUnits="userSpaceOnUse"><stop offset="0" stop-color="#239b6a"/><stop offset="1" stop-color="#4ccd9b"/></linearGradient><linearGradient id="T" x1="686.04" x2="734.32" y1="2420.71" y2="2420.71" gradientUnits="userSpaceOnUse"><stop offset="0" stop-color="#f2751c"/><stop offset="1" stop-color="#f9ad60"/></linearGradient></defs><use fill="#d9edf6" xlink:href="#a" transform="translate(-492 -2344)"/><use fill="#d9edf6" xlink:href="#b" transform="translate(-492 -2344)"/><use fill="url(#c)" xlink:href="#d" transform="translate(-492 -2344)"/><use fill="#eaeacd" xlink:href="#e" transform="translate(-492 -2344)"/><use fill="#c8cbac" xlink:href="#f" transform="translate(-492 -2344)"/><use fill="#d8d7bf" xlink:href="#g" transform="translate(-492 -2344)"/><use fill="#eaeacd" xlink:href="#h" transform="translate(-492 -2344)"/><use fill="#d8d7bf" xlink:href="#i" transform="translate(-492 -2344)"/><use fill="#eaeacd" xlink:href="#j" transform="translate(-492 -2344)"/><use fill="#c8cbac" xlink:href="#k" transform="translate(-492 -2344)"/><use fill="#c8cbac" xlink:href="#l" transform="translate(-492 -2344)"/><use fill="#c8cbac" xlink:href="#m" transform="translate(-492 -2344)"/><use fill="#d8d7bf" xlink:href="#n" transform="translate(-492 -2344)"/><use fill="#eaeacd" xlink:href="#o" transform="translate(-492 -2344)"/><g transform="translate(-492 -2344)"><use fill="#b4b48e" xlink:href="#p" opacity=".5"/><use fill="url(#q)" xlink:href="#r"/><use fill="#fff" fill-opacity="0" stroke="#fff" stroke-linecap="round" stroke-linejoin="round" stroke-miterlimit="50" stroke-width="1.5" xlink:href="#s"/><use fill="#fff" fill-opacity="0" stroke="#fff" stroke-linecap="round" stroke-linejoin="round" stroke-miterlimit="50" stroke-width="1.5" xlink:href="#t"/><use fill="#fff" xlink:href="#u"/><use fill="#fff" fill-opacity="0" stroke="#fff" stroke-linecap="round" stroke-linejoin="round" stroke-miterlimit="50" stroke-width="1.5" xlink:href="#v"/></g><use fill="#f2751c" xlink:href="#w" transform="translate(-492 -2344)"/><use fill="url(#x)" xlink:href="#y" transform="translate(-492 -2344)"/><use fill="#fecc4d" xlink:href="#z" transform="translate(-492 -2344)"/><use fill="#f2751c" xlink:href="#A" transform="translate(-492 -2344)"/><use fill="url(#B)" xlink:href="#C" transform="translate(-492 -2344)"/><g transform="translate(-492 -2344)"><use fill="url(#D)" xlink:href="#E"/><use fill="#eaeacd" xlink:href="#F"/><use fill="#fff" fill-opacity="0" stroke="#4ccd9b" stroke-linecap="round" stroke-miterlimit="50" xlink:href="#G"/><use fill="#239b6a" xlink:href="#H"/><use fill="#fff" fill-opacity="0" stroke="#239b6a" stroke-linecap="round" stroke-miterlimit="50" stroke-width=".75" xlink:href="#I"/><use fill="#fff" fill-opacity="0" stroke="#239b6a" stroke-linecap="round" stroke-miterlimit="50" stroke-width=".75" xlink:href="#J"/></g><use fill="#4ccd9b" xlink:href="#K" transform="translate(-492 -2344)"/><use fill="#f2751c" xlink:href="#L" transform="translate(-492 -2344)"/><g transform="translate(-492 -2344)"><use fill="#b4b48e" xlink:href="#M" opacity=".5"/><use fill="url(#N)" xlink:href="#O"/><use fill="#fff" fill-opacity="0" stroke="#fff" stroke-linecap="round" stroke-linejoin="round" stroke-miterlimit="50" stroke-width="1.5" xlink:href="#P"/><use fill="#fff" fill-opacity="0" stroke="#fff" stroke-linecap="round" stroke-linejoin="round" stroke-miterlimit="50" stroke-width="1.5" xlink:href="#Q"/><use fill="#fff" xlink:href="#R"/></g><g transform="translate(-492 -2344)"><use fill="#b4b48e" xlink:href="#S" opacity=".5"/><use fill="url(#T)" xlink:href="#U"/><use fill="#fff" fill-opacity="0" stroke="#fff" stroke-linecap="round" stroke-linejoin="round" stroke-miterlimit="50" stroke-width="1.5" xlink:href="#V"/><use fill="#fff" fill-opacity="0" stroke="#fff" stroke-linecap="round" stroke-linejoin="round" stroke-miterlimit="50" stroke-width="1.5" xlink:href="#W"/><use fill="#fff" xlink:href="#X"/><use fill="#fff" fill-opacity="0" stroke="#fff" stroke-linecap="round" stroke-linejoin="round" stroke-miterlimit="50" stroke-width="1.5" xlink:href="#Y"/><use fill="#fff" fill-opacity="0" stroke="#fff" stroke-linecap="round" stroke-linejoin="round" stroke-miterlimit="50" stroke-width="1.5" xlink:href="#Z"/><use fill="#fff" fill-opacity="0" stroke="#fff" stroke-linecap="round" stroke-linejoin="round" stroke-miterlimit="50" stroke-width="1.5" xlink:href="#aa"/></g></svg>