<svg xmlns="http://www.w3.org/2000/svg" xmlns:xlink="http://www.w3.org/1999/xlink" width="270" height="99" viewBox="0 0 270 99"><defs><path id="m5sja" d="M260.35 2395.49l-124.97-.3c1.53-2.63 3.17-5.15 6.65-6.42 3.48-1.27 6.45 1.02 10.52-1.13 2.75-1.64 3.56-4.87 6.27-6.07 3.98-1.73 7.52.75 11.66-.91 3.23-2.34 3.33-5.44 4.2-8.35 1.27-4.18 3.2-8.17 10.47-10.6 21.67-5.93 53.98 30.44 75.2 33.78z"/><path id="m5sjb" d="M304.62 2366.37c22.85-6.43 35.86 33.21 43.8 32.1 4.88-1.15 7.05-6.28 11.82-6.36 9.06 0 12.79 19.27 23.02 23.9 4.74 1.12 8.9-4.58 13.16-2.1 3.66 1.72 6.2 5.78 8.58 12.13H260c18.71-13.62 20.8-50.86 44.62-59.67z"/><path id="m5sjc" d="M332.04 2434.91h-144.7v-85.23c0-3.68 3-6.68 6.67-6.68h131.36c3.67 0 6.67 3 6.67 6.68z"/><path id="m5sjd" d="M338.25 2441.4H181.13a6.62 6.62 0 0 1-6.63-6.63v-2.34h170.42v2.34c0 3.67-3 6.63-6.67 6.63z"/><path id="m5sje" d="M194 2428.71v-77.46h131.37v77.46z"/><path id="m5sjf" d="M269.18 2435.58H250.2c-.77 0-1.43-.62-1.43-1.43v-1.76h21.84v1.76a1.4 1.4 0 0 1-1.43 1.43z"/><path id="m5sjg" d="M194 2357.83v-8.53h131.37v8.53z"/><path id="m5sjh" d="M302.38 2369.52h3.67"/><path id="m5sji" d="M260.36 2369.52h36.72"/><path id="m5sjj" d="M296.51 2373.48h9.54"/><path id="m5sjk" d="M260.36 2373.48h31.52"/><path id="m5sjl" d="M279.15 2377.39h26.9"/><path id="m5sjm" d="M260.36 2377.39h4.9"/><path id="m5sjn" d="M298.75 2381.35h7.3"/><path id="m5sjo" d="M260.36 2381.35h32.29"/><path id="m5sjp" d="M260.36 2385.26h39.44"/><path id="m5sjq" d="M301 2389.31h5.05"/><path id="m5sjr" d="M293.74 2389.31h4.68"/><path id="m5sjs" d="M260.36 2389.31h30.76"/><path id="m5sjt" d="M260.36 2393.8h45.69"/><path id="m5sju" d="M260.36 2398.28h36.15"/><path id="m5sjv" d="M296.08 2402.72h9.97"/><path id="m5sjw" d="M276.05 2402.72h16.17"/><path id="m5sjx" d="M260.36 2402.72h8.58"/><path id="m5sjy" d="M297.08 2407.2h8.97"/><path id="m5sjz" d="M278.43 2407.2h15.31"/><path id="m5sjA" d="M260.36 2407.2h12.54"/><path id="m5sjB" d="M235.84 2406.15v-30.57h6.15v30.57z"/><path id="m5sjC" d="M235.84 2406.15v-18.98h6.15v18.98z"/><path id="m5sjE" d="M235.84 2406.15v-11.11h6.15v11.11z"/><path id="m5sjF" d="M212.8 2406.15v-38.01h6.15v38.01z"/><path id="m5sjG" d="M212.8 2372.62v-4.48h6.15v4.48z"/><path id="m5sjH" d="M212.8 2406.15v-15.79h6.15v15.8z"/><path id="m5sjJ" d="M224.34 2406.15v-22.18h6.16v22.18z"/><path id="m5sjK" d="M224.34 2396.85v-12.88h6.16v12.88z"/><path id="m5sjL" d="M224.34 2396.8v-5.53h6.16v5.53z"/><path id="m5sjN" d="M201.3 2406.15v-29.57h6.16v29.57z"/><path id="m5sjP" d="M201.3 2406.15v-7.87h6.16v7.87z"/><path id="m5sjQ" d="M247.33 2406.15v-15.3h6.16v15.3z"/><linearGradient id="m5sjD" x1="185.57" x2="191.73" y1="2396.65" y2="2396.65" gradientUnits="userSpaceOnUse"><stop offset="0" stop-color="#f2751c"/><stop offset="1" stop-color="#ffc400"/></linearGradient><linearGradient id="m5sjI" x1="165.64" x2="165.64" y1="2406.15" y2="2390.38" gradientUnits="userSpaceOnUse"><stop offset="0" stop-color="#f2751c"/><stop offset="1" stop-color="#ffc400"/></linearGradient><linearGradient id="m5sjM" x1="174.07" x2="180.22" y1="2394.04" y2="2394.04" gradientUnits="userSpaceOnUse"><stop offset="0" stop-color="#4263eb"/><stop offset="1" stop-color="#1f46e7"/></linearGradient><linearGradient id="m5sjO" x1="151.03" x2="157.18" y1="2391.35" y2="2391.35" gradientUnits="userSpaceOnUse"><stop offset="0" stop-color="#239b6a"/><stop offset="1" stop-color="#4ccd9b"/></linearGradient></defs><g><g transform="translate(-135 -2343)"><use fill="#d9edf6" xlink:href="#m5sja"/></g><g transform="translate(-135 -2343)"><use fill="#d9edf6" xlink:href="#m5sjb"/></g><g transform="translate(-135 -2343)"><g><use fill="#96b7e2" xlink:href="#m5sjc"/></g><g><use fill="#1f46e7" xlink:href="#m5sjd"/></g><g><use fill="#f8f9fb" xlink:href="#m5sje"/></g><g><use fill="#fff" xlink:href="#m5sjf"/></g><g><use fill="#d9edf6" xlink:href="#m5sjg"/></g><g><g><g><g><g><g><g><use fill="#fff" fill-opacity="0" stroke="#c8cbac" stroke-linecap="round" stroke-miterlimit="50" stroke-width="2" xlink:href="#m5sjh"/></g></g><g><g><use fill="#fff" fill-opacity="0" stroke="#c8cbac" stroke-linecap="round" stroke-miterlimit="50" stroke-width="2" xlink:href="#m5sji"/></g></g><g><g><use fill="#fff" fill-opacity="0" stroke="#c8cbac" stroke-linecap="round" stroke-miterlimit="50" stroke-width="2" xlink:href="#m5sjj"/></g></g><g><g><use fill="#fff" fill-opacity="0" stroke="#c8cbac" stroke-linecap="round" stroke-miterlimit="50" stroke-width="2" xlink:href="#m5sjk"/></g></g><g><g><use fill="#fff" fill-opacity="0" stroke="#c8cbac" stroke-linecap="round" stroke-miterlimit="50" stroke-width="2" xlink:href="#m5sjl"/></g></g><g><g><use fill="#fff" fill-opacity="0" stroke="#c8cbac" stroke-linecap="round" stroke-miterlimit="50" stroke-width="2" xlink:href="#m5sjm"/></g></g><g><g><use fill="#fff" fill-opacity="0" stroke="#c8cbac" stroke-linecap="round" stroke-miterlimit="50" stroke-width="2" xlink:href="#m5sjn"/></g></g><g><g><use fill="#fff" fill-opacity="0" stroke="#c8cbac" stroke-linecap="round" stroke-miterlimit="50" stroke-width="2" xlink:href="#m5sjo"/></g></g><g><g><use fill="#fff" fill-opacity="0" stroke="#c8cbac" stroke-linecap="round" stroke-miterlimit="50" stroke-width="2" xlink:href="#m5sjp"/></g></g></g></g><g><g><g><g><use fill="#fff" fill-opacity="0" stroke="#c8cbac" stroke-linecap="round" stroke-miterlimit="50" stroke-width="2" xlink:href="#m5sjq"/></g></g><g><g><use fill="#fff" fill-opacity="0" stroke="#c8cbac" stroke-linecap="round" stroke-miterlimit="50" stroke-width="2" xlink:href="#m5sjr"/></g></g><g><g><use fill="#fff" fill-opacity="0" stroke="#c8cbac" stroke-linecap="round" stroke-miterlimit="50" stroke-width="2" xlink:href="#m5sjs"/></g></g><g><g><use fill="#fff" fill-opacity="0" stroke="#c8cbac" stroke-linecap="round" stroke-miterlimit="50" stroke-width="2" xlink:href="#m5sjt"/></g></g><g><g><use fill="#fff" fill-opacity="0" stroke="#c8cbac" stroke-linecap="round" stroke-miterlimit="50" stroke-width="2" xlink:href="#m5sju"/></g></g><g><g><use fill="#fff" fill-opacity="0" stroke="#c8cbac" stroke-linecap="round" stroke-miterlimit="50" stroke-width="2" xlink:href="#m5sjv"/></g></g><g><g><use fill="#fff" fill-opacity="0" stroke="#c8cbac" stroke-linecap="round" stroke-miterlimit="50" stroke-width="2" xlink:href="#m5sjw"/></g></g><g><g><use fill="#fff" fill-opacity="0" stroke="#c8cbac" stroke-linecap="round" stroke-miterlimit="50" stroke-width="2" xlink:href="#m5sjx"/></g></g><g><g><use fill="#fff" fill-opacity="0" stroke="#c8cbac" stroke-linecap="round" stroke-miterlimit="50" stroke-width="2" xlink:href="#m5sjy"/></g></g><g><g><use fill="#fff" fill-opacity="0" stroke="#c8cbac" stroke-linecap="round" stroke-miterlimit="50" stroke-width="2" xlink:href="#m5sjz"/></g></g><g><g><use fill="#fff" fill-opacity="0" stroke="#c8cbac" stroke-linecap="round" stroke-miterlimit="50" stroke-width="2" xlink:href="#m5sjA"/></g></g></g></g></g></g></g><g><g><g><use fill="#f2751c" xlink:href="#m5sjB"/></g><g><use fill="url(#m5sjD)" xlink:href="#m5sjC"/></g><g><use fill="#ffc400" xlink:href="#m5sjE"/></g></g><g><use fill="#f2751c" xlink:href="#m5sjF"/></g><g><use fill="#ffc400" xlink:href="#m5sjG"/></g><g><use fill="url(#m5sjI)" xlink:href="#m5sjH"/></g><g><use fill="#96b7e1" xlink:href="#m5sjJ"/></g><g><use fill="#1f46e7" xlink:href="#m5sjK"/></g><g><use fill="url(#m5sjM)" xlink:href="#m5sjL"/></g><g><g><use fill="url(#m5sjO)" xlink:href="#m5sjN"/></g><g><use fill="#239b6a" xlink:href="#m5sjP"/></g></g><g><use fill="#1f46e7" xlink:href="#m5sjQ"/></g></g></g></g></svg>