<svg xmlns="http://www.w3.org/2000/svg" xmlns:xlink="http://www.w3.org/1999/xlink" viewBox="0 0 520 560"><defs><style>.cls-1{fill:#d9edf6;}.cls-13,.cls-15,.cls-2,.cls-3,.cls-32,.cls-34,.cls-37,.cls-4,.cls-5{fill:none;}.cls-2,.cls-3{stroke:#4263eb;stroke-width:2.15px;}.cls-13,.cls-15,.cls-2,.cls-3,.cls-32,.cls-34,.cls-37{stroke-linecap:round;}.cls-13,.cls-15,.cls-2,.cls-3,.cls-32,.cls-34,.cls-37,.cls-4,.cls-5,.cls-9{stroke-miterlimit:10;}.cls-3{stroke-dasharray:336.26 13.45;}.cls-4,.cls-5{stroke:#239b6a;stroke-width:2px;}.cls-5{stroke-dasharray:5.03 5.03;}.cls-6{fill:#4263eb;}.cls-7{fill:#239b6a;}.cls-8{fill:#f2751c;}.cls-14,.cls-9{fill:#fff;}.cls-9{stroke:#1f46e7;stroke-width:1.1px;}.cls-10{fill:#1f46e7;}.cls-11{fill:#c8cbac;}.cls-12{fill:#96b7e1;}.cls-13,.cls-32,.cls-34,.cls-37{stroke:#fff;}.cls-13{stroke-width:0.94px;}.cls-15{stroke:#c8cbac;stroke-width:0.91px;}.cls-16{fill:#4ccd9b;}.cls-17{fill:url(#linear-gradient);}.cls-18{fill:url(#linear-gradient-2);}.cls-19{fill:#ffc400;}.cls-20{fill:url(#linear-gradient-3);}.cls-21{fill:url(#linear-gradient-4);}.cls-22{fill:url(#linear-gradient-5);}.cls-23{fill:url(#linear-gradient-6);}.cls-24{fill:url(#linear-gradient-7);}.cls-25{fill:url(#linear-gradient-8);}.cls-26{fill:url(#linear-gradient-9);}.cls-27{fill:url(#linear-gradient-10);}.cls-28{fill:url(#linear-gradient-11);}.cls-29{fill:url(#linear-gradient-12);}.cls-30{fill:url(#linear-gradient-13);}.cls-31,.cls-33,.cls-35,.cls-36{fill-rule:evenodd;}.cls-31{fill:url(#linear-gradient-14);}.cls-32{stroke-width:1.11px;}.cls-33{fill:url(#linear-gradient-15);}.cls-34{stroke-width:0.9px;}.cls-35{fill:url(#linear-gradient-16);}.cls-36{fill:url(#linear-gradient-17);}.cls-37{stroke-width:1.09px;}</style><linearGradient id="linear-gradient" x1="490.97" y1="939.76" x2="490.97" y2="915.91" gradientTransform="translate(613.17 1370.26) rotate(178.6)" gradientUnits="userSpaceOnUse"><stop offset="0" stop-color="#4ccd9b"/><stop offset="1" stop-color="#239b6a"/></linearGradient><linearGradient id="linear-gradient-2" x1="379.2" y1="429.01" x2="393.37" y2="429.01" gradientTransform="translate(25.38 14.86)" gradientUnits="userSpaceOnUse"><stop offset="0" stop-color="#f2751c"/><stop offset="1" stop-color="#ffc400"/></linearGradient><linearGradient id="linear-gradient-3" x1="333.3" y1="503.12" x2="333.3" y2="458.62" gradientTransform="translate(26.51 -89.98)" xlink:href="#linear-gradient-2"/><linearGradient id="linear-gradient-4" x1="352.71" y1="454.95" x2="366.88" y2="454.95" gradientTransform="translate(25.94 -37.57)" gradientUnits="userSpaceOnUse"><stop offset="0" stop-color="#4263eb"/><stop offset="1" stop-color="#1f46e7"/></linearGradient><linearGradient id="linear-gradient-5" x1="406.11" y1="398.87" x2="420.28" y2="398.87" gradientTransform="translate(28.62 71.91)" gradientUnits="userSpaceOnUse"><stop offset="0" stop-color="#239b6a"/><stop offset="1" stop-color="#4ccd9b"/></linearGradient><linearGradient id="linear-gradient-6" x1="425.08" y1="230.83" x2="492.87" y2="230.83" gradientUnits="userSpaceOnUse"><stop offset="0" stop-color="#ff9a01"/><stop offset="1" stop-color="#ffc400"/></linearGradient><linearGradient id="linear-gradient-7" x1="425.08" y1="264.73" x2="492.87" y2="264.73" xlink:href="#linear-gradient-6"/><linearGradient id="linear-gradient-8" x1="355.71" y1="264.73" x2="458.98" y2="264.73" xlink:href="#linear-gradient-6"/><linearGradient id="linear-gradient-9" x1="398.2" y1="264.73" x2="458.98" y2="264.73" gradientTransform="matrix(1, 0, 0, 1, 0, 0)" xlink:href="#linear-gradient-2"/><linearGradient id="linear-gradient-10" x1="147.1" y1="131.18" x2="161.27" y2="131.18" gradientTransform="matrix(1, 0, 0, 1, 0, 0)" xlink:href="#linear-gradient-2"/><linearGradient id="linear-gradient-11" x1="101.2" y1="147.7" x2="101.2" y2="120.28" gradientTransform="matrix(1, 0, 0, 1, 0, 0)" xlink:href="#linear-gradient-2"/><linearGradient id="linear-gradient-12" x1="120.6" y1="126.64" x2="134.78" y2="126.64" gradientTransform="matrix(1, 0, 0, 1, 0, 0)" xlink:href="#linear-gradient-4"/><linearGradient id="linear-gradient-13" x1="67.55" y1="121.98" x2="81.72" y2="121.98" gradientTransform="matrix(1, 0, 0, 1, 0, 0)" xlink:href="#linear-gradient-5"/><linearGradient id="linear-gradient-14" x1="52.83" y1="266.73" x2="121.43" y2="266.73" gradientTransform="matrix(1, 0, 0, 1, 0, 0)" xlink:href="#linear-gradient-2"/><linearGradient id="linear-gradient-15" x1="352.28" y1="129.14" x2="407.62" y2="129.14" gradientTransform="matrix(1, 0, 0, 1, 0, 0)" xlink:href="#linear-gradient-4"/><linearGradient id="linear-gradient-16" x1="354.21" y1="119.66" x2="354.21" y2="72.78" gradientTransform="matrix(1, 0, 0, 1, 0, 0)" xlink:href="#linear-gradient-2"/><linearGradient id="linear-gradient-17" x1="239.43" y1="483.97" x2="318.57" y2="483.97" gradientTransform="matrix(1, 0, 0, 1, 0, 0)" xlink:href="#linear-gradient-4"/></defs><title>pub-1</title><g id="cloud"><path class="cls-1" d="M38.67,376.11c-23.47,150,211.67,212,273.45,75.64,30.38-67.06-28.77-136.47,54.09-177.84,60.92-30.41,111.42-47.66,107-129.51C469.69,77.89,413.49,36.58,348.73,37.62c-75.47,1.22-114.84,57.9-116.61,127.45-1.94,75.81-24.91,73-88.56,92C86.15,274.11,44.8,315,38.67,376.11,36.28,391.42,39.55,367.4,38.67,376.11Z"/><path class="cls-1" d="M357.43,352.63c-12.18-7.86-10.82-19.16-7.2-30a18.35,18.35,0,0,1,23.5-9.95c9.94,3.62,12.65,13.56,10.85,22.6C382.77,342.51,371.92,359,357.43,352.63Z"/><path class="cls-1" d="M192.35,209.83c-11.87-8.17-14.5-21-6.31-34.1,3.68-5.88,10.52-9,17.82-8.89,13.13,2.06,16.91,17.1,13.84,27.89S199.75,214.9,192.35,209.83Z"/><path class="cls-1" d="M167.2,225.34c0-3,3.88-5.83,6.69-7,4.46-1.82,13-2.09,13.7,1.09.78,3.53-1,8.05-10,11.19C172.25,232.48,167.26,228.37,167.2,225.34Z"/></g><g id="graphs"><path class="cls-2" d="M461.38,80c-32.43,35-79.67-8.78-112.1,26.22-15.95,17.21-12.63,36.54-9,55.91"/><path class="cls-3" d="M342.61,175.41c2.25,15.53,1.9,30.76-10.94,44.62-32.43,35-79.68-8.78-112.11,26.22S234.38,325,202,360c-14.67,15.83-32.37,15.54-50.37,13.72"/><path class="cls-2" d="M144.9,373c-19.59-2.15-39.12-4-55.06,13.23C57.41,421.26,104.65,465,72.22,500"/><line class="cls-4" x1="250.12" y1="27.63" x2="251.15" y2="29.91"/><path class="cls-5" d="M253.22,34.49l23.1,51.19a30.81,30.81,0,0,1-1.45,28.18L236,180.66a30.84,30.84,0,0,0-3.49,22l23.36,108a30.8,30.8,0,0,1-6.8,26.66l-56,64.82a30.83,30.83,0,0,0-6.53,27.79l22.59,88.2"/><line class="cls-4" x1="209.78" y1="520.55" x2="210.4" y2="522.98"/><path class="cls-6" d="M94.89,375.39a5.94,5.94,0,1,0,5.94,5.94A5.94,5.94,0,0,0,94.89,375.39Zm0,9A3.07,3.07,0,1,1,98,381.33,3.06,3.06,0,0,1,94.89,384.39Z"/><path class="cls-6" d="M339.91,202a5.94,5.94,0,1,0,5.94,5.93A5.93,5.93,0,0,0,339.91,202Zm0,9A3.07,3.07,0,1,1,343,208,3.06,3.06,0,0,1,339.91,211Z"/><path class="cls-7" d="M185.6,408a5.94,5.94,0,1,0,5.93,5.94A5.94,5.94,0,0,0,185.6,408Zm0,9a3.07,3.07,0,1,1,3.06-3.06A3.06,3.06,0,0,1,185.6,417Z"/></g><g id="points"><path class="cls-8" d="M354.28,485a5.94,5.94,0,1,0,5.94,5.93A5.92,5.92,0,0,0,354.28,485Zm0,9a3.07,3.07,0,1,1,3.07-3.07A3.07,3.07,0,0,1,354.28,494Z"/><path class="cls-7" d="M279,90.33a5.94,5.94,0,1,0,5.94,5.93A5.92,5.92,0,0,0,279,90.33Zm0,9a3.07,3.07,0,1,1,3.07-3.07A3.06,3.06,0,0,1,279,99.33Z"/><path class="cls-7" d="M47.38,205.69a5.94,5.94,0,1,0,5.94,5.94A5.94,5.94,0,0,0,47.38,205.69Zm0,9a3.06,3.06,0,1,1,3.06-3.06A3.06,3.06,0,0,1,47.38,214.69Z"/><path class="cls-8" d="M200,52.21a5.94,5.94,0,1,0,5.94,5.94A5.93,5.93,0,0,0,200,52.21Zm0,9a3.07,3.07,0,1,1,3.07-3.06A3.06,3.06,0,0,1,200,61.21Z"/><path class="cls-8" d="M82.75,307.66a5.94,5.94,0,1,0,5.94,5.94A5.94,5.94,0,0,0,82.75,307.66Zm0,9a3.06,3.06,0,1,1,3.06-3.06A3.06,3.06,0,0,1,82.75,316.66Z"/><path class="cls-6" d="M439.76,377.39a5.94,5.94,0,1,0,5.94,5.94A5.94,5.94,0,0,0,439.76,377.39Zm0,9a3.07,3.07,0,1,1,3.06-3.06A3.06,3.06,0,0,1,439.76,386.39Z"/></g><g id="papers"><path class="cls-9" d="M164.7,182.63l22.12,141.6a1.67,1.67,0,0,0,1.91,1.4l99.15-15.49a1.68,1.68,0,0,0,1.4-1.91L271.17,192.35l-4-25.74a1.66,1.66,0,0,0-1.91-1.39l-99.13,15.5A1.67,1.67,0,0,0,164.7,182.63Z"/><path class="cls-10" d="M174.14,233.37,154.4,374.81A1.92,1.92,0,0,0,156,377l98.89,13.8a1.92,1.92,0,0,0,2.18-1.64l16.17-115.9,3.55-25.56a1.93,1.93,0,0,0-1.64-2.17l-98.88-13.78A1.93,1.93,0,0,0,174.14,233.37Z"/><path class="cls-11" d="M216.21,246,266.4,380.24a1.67,1.67,0,0,0,2.15,1l94-35.14a1.68,1.68,0,0,0,1-2.16L322.46,234.07l-9.14-24.4a1.67,1.67,0,0,0-2.15-1l-94,35.15A1.66,1.66,0,0,0,216.21,246Z"/><path class="cls-12" d="M152.39,224.59l24.25,141.16a1.72,1.72,0,0,0,2,1.41l98.82-17a1.71,1.71,0,0,0,1.4-2L259,232.65,227,210l-73.17,12.57A1.71,1.71,0,0,0,152.39,224.59Z"/><line class="cls-13" x1="164.48" y1="239.22" x2="248.59" y2="223.94"/><line class="cls-13" x1="242.05" y1="231.43" x2="249.69" y2="230.05"/><line class="cls-13" x1="165.58" y1="245.34" x2="234.79" y2="232.75"/><line class="cls-13" x1="166.68" y1="251.45" x2="245.16" y2="237.19"/><line class="cls-13" x1="234.46" y1="245.43" x2="251.9" y2="242.28"/><line class="cls-13" x1="167.79" y1="257.56" x2="226.56" y2="246.86"/><line class="cls-13" x1="168.89" y1="263.67" x2="236.58" y2="251.36"/><line class="cls-13" x1="247.36" y1="255.72" x2="254.11" y2="254.5"/><line class="cls-13" x1="170" y1="269.79" x2="237.68" y2="257.47"/><line class="cls-13" x1="237.77" y1="263.77" x2="255.21" y2="260.62"/><line class="cls-13" x1="171.1" y1="275.9" x2="229.27" y2="265.3"/><line class="cls-13" x1="172.2" y1="282.01" x2="256.32" y2="266.73"/><line class="cls-13" x1="244.05" y1="275.26" x2="257.42" y2="272.84"/><line class="cls-13" x1="173.31" y1="288.12" x2="232.84" y2="277.28"/><line class="cls-13" x1="174.41" y1="294.24" x2="247.07" y2="281.02"/><line class="cls-13" x1="250.33" y1="286.75" x2="259.63" y2="285.07"/><line class="cls-13" x1="237.09" y1="289.14" x2="245.62" y2="287.6"/><line class="cls-13" x1="175.52" y1="300.35" x2="232.31" y2="290"/><line class="cls-13" x1="176.62" y1="306.46" x2="260.73" y2="291.18"/><line class="cls-13" x1="178.29" y1="312.38" x2="244.39" y2="300.44"/><line class="cls-13" x1="244.67" y1="306.7" x2="262.94" y2="303.4"/><line class="cls-13" x1="208.06" y1="313.32" x2="237.6" y2="307.98"/><line class="cls-13" x1="179.39" y1="318.49" x2="195.07" y2="315.66"/><line class="cls-13" x1="247.62" y1="312.48" x2="264.05" y2="309.52"/><line class="cls-13" x1="213.55" y1="318.64" x2="241.51" y2="313.59"/><line class="cls-13" x1="180.5" y1="324.61" x2="203.43" y2="320.46"/><line class="cls-13" x1="204.92" y1="326.51" x2="237.26" y2="320.67"/><line class="cls-13" x1="181.6" y1="330.72" x2="195.11" y2="328.28"/><path class="cls-10" d="M259,232.65,227,210l4.4,25.61a1.71,1.71,0,0,0,2,1.4Z"/><path class="cls-14" d="M254.17,186.52,206.69,321.66a1.71,1.71,0,0,0,1.05,2.18l94.6,33.24a1.73,1.73,0,0,0,2.19-1.05l38.86-110.61-17-35.34-70-24.61A1.71,1.71,0,0,0,254.17,186.52Z"/><path class="cls-15" d="M285.29,351.09l17,6a1.73,1.73,0,0,0,2.19-1.05l24.64-70.15"/><path class="cls-15" d="M266.51,189l-10.16-3.57a1.71,1.71,0,0,0-2.18,1.05l-9.63,27.41"/><line class="cls-15" x1="300.64" y1="223.05" x2="337.12" y2="236.34"/><line class="cls-15" x1="327.7" y1="239.52" x2="335" y2="242.17"/><line class="cls-15" x1="298.52" y1="228.89" x2="320.77" y2="236.99"/><line class="cls-15" x1="296.39" y1="234.72" x2="327.49" y2="246.05"/><line class="cls-15" x1="314.09" y1="247.78" x2="330.74" y2="253.84"/><line class="cls-15" x1="294.27" y1="240.56" x2="306.55" y2="245.03"/><line class="cls-15" x1="292.14" y1="246.4" x2="312.93" y2="253.97"/><line class="cls-15" x1="320.05" y1="263.17" x2="326.49" y2="265.52"/><line class="cls-15" x1="290.02" y1="252.23" x2="310.81" y2="259.8"/><line class="cls-15" x1="307.71" y1="265.29" x2="324.37" y2="271.35"/><line class="cls-15" x1="287.89" y1="258.07" x2="299.59" y2="262.33"/><line class="cls-15" x1="285.76" y1="263.9" x2="322.24" y2="277.19"/><line class="cls-15" x1="307.35" y1="278.38" x2="320.12" y2="283.03"/><line class="cls-15" x1="283.64" y1="269.74" x2="296.65" y2="274.48"/><line class="cls-15" x1="281.51" y1="275.58" x2="307.05" y2="284.88"/><line class="cls-15" x1="306.99" y1="291.47" x2="315.86" y2="294.7"/><line class="cls-15" x1="294.34" y1="286.86" x2="302.49" y2="289.83"/><line class="cls-15" x1="279.39" y1="281.41" x2="289.78" y2="285.2"/><line class="cls-15" x1="277.26" y1="287.25" x2="313.74" y2="300.54"/><line class="cls-15" x1="231.84" y1="277.32" x2="294.95" y2="300.3"/><line class="cls-15" x1="292.04" y1="305.85" x2="309.49" y2="312.21"/><line class="cls-15" x1="257.08" y1="293.12" x2="285.29" y2="303.39"/><line class="cls-15" x1="229.71" y1="283.15" x2="244.68" y2="288.6"/><line class="cls-15" x1="291.68" y1="312.33" x2="307.36" y2="318.04"/><line class="cls-15" x1="259.15" y1="300.48" x2="285.84" y2="310.21"/><line class="cls-15" x1="227.59" y1="288.99" x2="249.48" y2="296.96"/><line class="cls-15" x1="247.72" y1="302.93" x2="278.61" y2="314.18"/><line class="cls-15" x1="225.46" y1="294.83" x2="238.36" y2="299.52"/><path class="cls-12" d="M257.75,223.55l-12.48,36.61a.47.47,0,0,0,.29.59l25.63,8.74a.47.47,0,0,0,.59-.29l10.21-30-4.67-9.5-19-6.47A.47.47,0,0,0,257.75,223.55Z"/><path class="cls-10" d="M282,239.23l-4.68-9.5-2.26,6.65a.46.46,0,0,0,.29.59Z"/><path class="cls-10" d="M343.4,245.42l-17-35.33-8.62,24.52a1.73,1.73,0,0,0,1.05,2.19Z"/></g><g id="diagrams"><path class="cls-16" d="M89.83,427.3,98,418.71a33.9,33.9,0,0,0-47.92,1.17l8.59,8.18A22,22,0,0,1,89.83,427.3Z"/><path class="cls-7" d="M58.85,459.84l-7,7.33a.87.87,0,0,0,.05,1.25,33.79,33.79,0,0,0,23.44,8.73l-.29-11.86a22,22,0,0,1-15-5.5A.87.87,0,0,0,58.85,459.84Z"/><path class="cls-7" d="M98,418.71l-8.18,8.59a22,22,0,0,1,6.84,15.54l11.86-.29A33.85,33.85,0,0,0,98,418.71Z"/><path class="cls-16" d="M90.6,458.46a22,22,0,0,1-15.53,6.83l.29,11.86a33.81,33.81,0,0,0,23.82-10.51h0l-8.58-8.18Z"/><path class="cls-7" d="M58.68,428.06a22,22,0,0,0-6.08,15.18.68.68,0,0,1-.66.68l-10.51.26a.67.67,0,0,1-.69-.67,33.83,33.83,0,0,1,9.35-23.63h0l8.59,8.18Z"/><path class="cls-17" d="M96.67,442.84a22,22,0,0,1-6.07,15.62l8.58,8.18a33.79,33.79,0,0,0,9.35-24.09Z"/><rect class="cls-8" x="409.01" y="417.3" width="14.17" height="53.15" transform="translate(859.97 27.77) rotate(90)"/><rect class="cls-18" x="404.59" y="421.72" width="14.17" height="44.29" transform="translate(855.54 32.2) rotate(90)"/><rect class="cls-19" x="392.09" y="434.22" width="14.17" height="19.29" transform="translate(843.04 44.7) rotate(90)"/><rect class="cls-8" x="363.5" y="357.86" width="14.17" height="66.05" transform="translate(761.48 20.3) rotate(90)"/><rect class="cls-19" x="392.64" y="387" width="14.17" height="7.77" transform="translate(790.61 -8.84) rotate(90)"/><rect class="cls-20" x="352.73" y="368.64" width="14.17" height="44.5" transform="translate(750.7 31.07) rotate(90)"/><rect class="cls-12" x="382.52" y="398.08" width="14.17" height="38.59" transform="translate(806.98 27.77) rotate(90)"/><rect class="cls-10" x="390.64" y="406.2" width="14.17" height="22.35" transform="translate(815.1 19.66) rotate(90)"/><rect class="cls-21" x="378.65" y="409.53" width="14.17" height="15.7" transform="translate(803.11 31.64) rotate(90)"/><rect class="cls-22" x="434.73" y="445.06" width="14.17" height="51.43" transform="translate(912.59 28.97) rotate(90)"/><rect class="cls-16" x="456.17" y="466.5" width="14.17" height="8.55" transform="translate(934.03 7.53) rotate(90)"/><rect class="cls-7" x="421.87" y="457.92" width="14.17" height="25.72" transform="translate(899.74 41.82) rotate(90)"/><path class="cls-8" d="M459,213.88v11.44a22.46,22.46,0,0,1,0,44.91v11.45a33.9,33.9,0,0,0,0-67.8Z"/><path class="cls-23" d="M459,225.32V213.88a33.9,33.9,0,0,0-33.9,33.9h11.44A22.46,22.46,0,0,1,459,225.32Z"/><path class="cls-19" d="M459,225.32V213.88a33.9,33.9,0,0,0-33.9,33.9h11.44A22.46,22.46,0,0,1,459,225.32Z"/><path class="cls-24" d="M459,281.68V270.23a22.45,22.45,0,0,1-22.46-22.45H425.08A33.9,33.9,0,0,0,459,281.68Z"/><path class="cls-25" d="M459,281.68V270.23a22.45,22.45,0,0,1-22.46-22.45H425.08A33.9,33.9,0,0,0,459,281.68Z"/><path class="cls-26" d="M459,281.68V270.23a22.45,22.45,0,0,1-22.46-22.45H425.08A33.9,33.9,0,0,0,459,281.68Z"/><rect class="cls-8" x="147.1" y="94.55" width="14.17" height="53.15"/><rect class="cls-27" x="147.1" y="114.67" width="14.17" height="33.02"/><rect class="cls-19" x="147.1" y="128.4" width="14.17" height="19.29"/><rect class="cls-8" x="94.11" y="81.65" width="14.17" height="66.05"/><rect class="cls-19" x="94.11" y="81.65" width="14.17" height="7.77"/><rect class="cls-28" x="94.11" y="120.28" width="14.17" height="27.41"/><rect class="cls-12" x="120.6" y="109.11" width="14.17" height="38.59"/><rect class="cls-10" x="120.6" y="109.11" width="14.17" height="22.35"/><rect class="cls-29" x="120.6" y="121.81" width="14.17" height="9.65"/><rect class="cls-30" x="67.55" y="96.26" width="14.17" height="51.43"/><rect class="cls-7" x="67.55" y="133.99" width="14.17" height="13.71"/><rect class="cls-10" x="173.59" y="121.12" width="14.17" height="26.57"/></g><g id="helps"><path class="cls-31" d="M117.31,237.67H57a4.12,4.12,0,0,0-4.12,4.12v40.93A4.12,4.12,0,0,0,57,286.84h53.44l8.51,8.51a1.48,1.48,0,0,0,2.53-1.05V241.79A4.13,4.13,0,0,0,117.31,237.67Z"/><line class="cls-32" x1="108.53" y1="250.69" x2="112.53" y2="250.69"/><line class="cls-32" x1="63.06" y1="250.69" x2="102.8" y2="250.69"/><line class="cls-32" x1="102.2" y1="256.51" x2="112.53" y2="256.51"/><line class="cls-32" x1="63.06" y1="256.51" x2="97.17" y2="256.51"/><line class="cls-32" x1="83.39" y1="262.33" x2="112.53" y2="262.33"/><line class="cls-32" x1="63.06" y1="262.33" x2="68.35" y2="262.33"/><line class="cls-32" x1="104.61" y1="268.15" x2="112.53" y2="268.15"/><line class="cls-32" x1="63.06" y1="268.15" x2="97.98" y2="268.15"/><line class="cls-32" x1="63.06" y1="273.97" x2="105.74" y2="273.97"/><path class="cls-33" d="M404.3,105.7H355.61a3.33,3.33,0,0,0-3.33,3.32v33a3.33,3.33,0,0,0,3.33,3.32h43.11l6.87,6.87a1.19,1.19,0,0,0,2-.85V109A3.32,3.32,0,0,0,404.3,105.7Z"/><line class="cls-34" x1="397.22" y1="116.2" x2="400.44" y2="116.2"/><line class="cls-34" x1="360.54" y1="116.2" x2="392.6" y2="116.2"/><line class="cls-34" x1="392.11" y1="120.89" x2="400.44" y2="120.89"/><line class="cls-34" x1="360.54" y1="120.89" x2="388.05" y2="120.89"/><line class="cls-34" x1="376.93" y1="125.59" x2="400.44" y2="125.59"/><line class="cls-34" x1="360.54" y1="125.59" x2="364.81" y2="125.59"/><line class="cls-34" x1="394.06" y1="130.28" x2="400.44" y2="130.28"/><line class="cls-34" x1="360.54" y1="130.28" x2="388.7" y2="130.28"/><line class="cls-34" x1="360.54" y1="134.98" x2="394.97" y2="134.98"/><path class="cls-35" d="M329.87,119.66h48.69a3.32,3.32,0,0,0,3.32-3.32v-33A3.33,3.33,0,0,0,378.56,80H335.44l-6.86-6.86a1.19,1.19,0,0,0-2,.84v42.36A3.32,3.32,0,0,0,329.87,119.66Z"/><line class="cls-34" x1="334.15" y1="90.39" x2="374.06" y2="90.39"/><line class="cls-34" x1="370.41" y1="95.46" x2="374.06" y2="95.46"/><line class="cls-34" x1="334.15" y1="95.46" x2="366.94" y2="95.46"/><line class="cls-34" x1="349.04" y1="100.54" x2="371.36" y2="100.54"/><line class="cls-34" x1="334.15" y1="100.54" x2="341.1" y2="100.54"/><line class="cls-34" x1="365.72" y1="105.61" x2="374.06" y2="105.61"/><line class="cls-34" x1="334.15" y1="105.61" x2="361.95" y2="105.61"/><line class="cls-34" x1="334.15" y1="110.69" x2="366.21" y2="110.69"/><path class="cls-36" d="M240.81,508.05h73.73a4,4,0,0,0,4-4V463.92a4,4,0,0,0-4-4H255.39a4,4,0,0,0-4,4v31l-11.49,10.79A1.37,1.37,0,0,0,240.81,508.05Z"/><line class="cls-37" x1="303.38" y1="470.42" x2="308.76" y2="470.42"/><line class="cls-37" x1="295.71" y1="470.42" x2="300.65" y2="470.42"/><line class="cls-37" x1="260.37" y1="470.42" x2="292.94" y2="470.42"/><line class="cls-37" x1="260.37" y1="476.59" x2="308.76" y2="476.59"/><line class="cls-37" x1="260.37" y1="482.76" x2="298.66" y2="482.76"/><line class="cls-37" x1="298.18" y1="488.92" x2="308.76" y2="488.92"/><line class="cls-37" x1="276.97" y1="488.92" x2="294.08" y2="488.92"/><line class="cls-37" x1="260.37" y1="488.92" x2="269.45" y2="488.92"/><line class="cls-37" x1="299.25" y1="495.09" x2="308.76" y2="495.09"/><line class="cls-37" x1="279.51" y1="495.09" x2="295.71" y2="495.09"/><line class="cls-37" x1="260.37" y1="495.09" x2="273.65" y2="495.09"/></g></svg>