<?xml version="1.0" encoding="utf-8"?>
<!-- Generator: Adobe Illustrator 16.0.0, SVG Export Plug-In . SVG Version: 6.00 Build 0)  -->
<!DOCTYPE svg PUBLIC "-//W3C//DTD SVG 1.1//EN" "http://www.w3.org/Graphics/SVG/1.1/DTD/svg11.dtd">
<svg version="1.1" id="Слой_1" xmlns="http://www.w3.org/2000/svg" xmlns:xlink="http://www.w3.org/1999/xlink" x="0px" y="0px"
	 width="120px" height="120px" viewBox="0 0 120 120" enable-background="new 0 0 120 120" xml:space="preserve">
<rect x="12.875" y="12.898" fill="#EAEACD" width="90.25" height="102.954"/>
<rect x="16.875" y="8.898" fill="#FFFFFF" width="90.25" height="102.954"/>
<rect x="16.875" y="8.898" fill="none" stroke="#C8CBAC" stroke-width="0.887" stroke-linecap="round" stroke-miterlimit="10" width="90.25" height="102.954"/>
<line fill="none" stroke="#C8CBAC" stroke-width="0.837" stroke-linecap="round" stroke-miterlimit="10" x1="24.797" y1="18.487" x2="100.452" y2="18.487"/>
<line fill="none" stroke="#C8CBAC" stroke-width="0.837" stroke-linecap="round" stroke-miterlimit="10" x1="93.534" y1="24.022" x2="100.453" y2="24.022"/>
<line fill="none" stroke="#C8CBAC" stroke-width="0.837" stroke-linecap="round" stroke-miterlimit="10" x1="24.797" y1="24.022" x2="86.961" y2="24.022"/>
<line fill="none" stroke="#C8CBAC" stroke-width="0.837" stroke-linecap="round" stroke-miterlimit="10" x1="53.024" y1="29.557" x2="95.35" y2="29.557"/>
<line fill="none" stroke="#C8CBAC" stroke-width="0.837" stroke-linecap="round" stroke-miterlimit="10" x1="24.797" y1="29.557" x2="37.96" y2="29.557"/>
<line fill="none" stroke="#C8CBAC" stroke-width="0.837" stroke-linecap="round" stroke-miterlimit="10" x1="84.654" y1="35.092" x2="100.452" y2="35.092"/>
<line fill="none" stroke="#C8CBAC" stroke-width="0.837" stroke-linecap="round" stroke-miterlimit="10" x1="24.797" y1="35.092" x2="77.505" y2="35.092"/>
<line fill="none" stroke="#C8CBAC" stroke-width="0.837" stroke-linecap="round" stroke-miterlimit="10" x1="24.797" y1="40.627" x2="85.576" y2="40.627"/>
<line fill="none" stroke="#C8CBAC" stroke-width="0.837" stroke-linecap="round" stroke-miterlimit="10" x1="94.341" y1="46.163" x2="100.452" y2="46.163"/>
<line fill="none" stroke="#C8CBAC" stroke-width="0.837" stroke-linecap="round" stroke-miterlimit="10" x1="24.797" y1="46.163" x2="85.577" y2="46.163"/>
<line fill="none" stroke="#C8CBAC" stroke-width="0.837" stroke-linecap="round" stroke-miterlimit="10" x1="84.654" y1="51.697" x2="100.453" y2="51.697"/>
<line fill="none" stroke="#C8CBAC" stroke-width="0.837" stroke-linecap="round" stroke-miterlimit="10" x1="24.797" y1="51.697" x2="76.957" y2="51.697"/>
<line fill="none" stroke="#C8CBAC" stroke-width="0.837" stroke-linecap="round" stroke-miterlimit="10" x1="55.879" y1="57.232" x2="100.453" y2="57.232"/>
<line fill="none" stroke="#C8CBAC" stroke-width="0.837" stroke-linecap="round" stroke-miterlimit="10" x1="24.797" y1="57.232" x2="32.884" y2="57.232"/>
<line fill="none" stroke="#C8CBAC" stroke-width="0.837" stroke-linecap="round" stroke-miterlimit="10" x1="88.345" y1="62.768" x2="100.453" y2="62.768"/>
<line fill="none" stroke="#C8CBAC" stroke-width="0.837" stroke-linecap="round" stroke-miterlimit="10" x1="24.797" y1="62.768" x2="78.197" y2="62.768"/>
<line fill="none" stroke="#C8CBAC" stroke-width="0.837" stroke-linecap="round" stroke-miterlimit="10" x1="24.797" y1="68.303" x2="90.074" y2="68.303"/>
<line fill="none" stroke="#C8CBAC" stroke-width="0.837" stroke-linecap="round" stroke-miterlimit="10" x1="92.035" y1="73.838" x2="100.453" y2="73.838"/>
<line fill="none" stroke="#C8CBAC" stroke-width="0.837" stroke-linecap="round" stroke-miterlimit="10" x1="80.042" y1="73.838" x2="87.768" y2="73.838"/>
<line fill="none" stroke="#C8CBAC" stroke-width="0.837" stroke-linecap="round" stroke-miterlimit="10" x1="24.797" y1="73.838" x2="75.718" y2="73.838"/>
<line fill="none" stroke="#C8CBAC" stroke-width="0.837" stroke-linecap="round" stroke-miterlimit="10" x1="24.797" y1="79.373" x2="100.452" y2="79.373"/>
<line fill="none" stroke="#C8CBAC" stroke-width="0.837" stroke-linecap="round" stroke-miterlimit="10" x1="24.797" y1="84.907" x2="84.654" y2="84.907"/>
<line fill="none" stroke="#C8CBAC" stroke-width="0.837" stroke-linecap="round" stroke-miterlimit="10" x1="83.904" y1="90.442" x2="100.453" y2="90.442"/>
<line fill="none" stroke="#C8CBAC" stroke-width="0.837" stroke-linecap="round" stroke-miterlimit="10" x1="50.752" y1="90.442" x2="77.505" y2="90.442"/>
<line fill="none" stroke="#C8CBAC" stroke-width="0.837" stroke-linecap="round" stroke-miterlimit="10" x1="24.797" y1="90.442" x2="38.991" y2="90.442"/>
<line fill="none" stroke="#C8CBAC" stroke-width="0.837" stroke-linecap="round" stroke-miterlimit="10" x1="85.577" y1="95.978" x2="100.452" y2="95.978"/>
<line fill="none" stroke="#C8CBAC" stroke-width="0.837" stroke-linecap="round" stroke-miterlimit="10" x1="54.726" y1="95.978" x2="80.043" y2="95.978"/>
<line fill="none" stroke="#C8CBAC" stroke-width="0.837" stroke-linecap="round" stroke-miterlimit="10" x1="24.797" y1="95.978" x2="45.563" y2="95.978"/>
<line fill="none" stroke="#C8CBAC" stroke-width="0.837" stroke-linecap="round" stroke-miterlimit="10" x1="45.909" y1="101.513" x2="75.199" y2="101.513"/>
<line fill="none" stroke="#C8CBAC" stroke-width="0.837" stroke-linecap="round" stroke-miterlimit="10" x1="24.797" y1="101.513" x2="37.03" y2="101.513"/>
<g>
	<defs>
		<rect id="SVGID_1_" width="120" height="120"/>
	</defs>
	<clipPath id="SVGID_2_">
		<use xlink:href="#SVGID_1_"  overflow="visible"/>
	</clipPath>
	<path clip-path="url(#SVGID_2_)" fill="#EAEACD" d="M107.449,99.778l-22.064-23.33c-0.938-0.991-2.501-1.035-3.492-0.098
		l-2.626-2.775l-1.521-1.608c3.977-4.486,6.236-10.166,6.405-16.231c0.19-6.834-2.292-13.333-6.99-18.3
		c-4.884-5.164-11.489-8.009-18.6-8.009c-6.566,0-12.811,2.486-17.583,7c-10.254,9.698-10.707,25.93-1.009,36.183
		c4.884,5.165,11.49,8.01,18.6,8.01c5.829,0,11.402-1.963,15.919-5.561l4.142,4.378l-0.164,0.154
		c-0.991,0.938-1.034,2.501-0.098,3.492l22.065,23.331c0.938,0.991,2.501,1.035,3.493,0.097l3.426-3.24
		C108.344,102.334,108.388,100.77,107.449,99.778"/>
	
		<rect x="78.707" y="68.157" transform="matrix(0.7265 -0.6872 0.6872 0.7265 -29.787 76.2933)" clip-path="url(#SVGID_2_)" fill="#3054E9" width="4.491" height="14.821"/>
	
		<rect x="75.002" y="69.631" transform="matrix(0.7265 -0.6872 0.6872 0.7265 -28.1086 72.6764)" clip-path="url(#SVGID_2_)" fill="#1F46E7" width="4.491" height="4.038"/>
</g>
<g>
	<defs>
		<path id="SVGID_3_" d="M82.892,74.35l-3.427,3.241c-0.99,0.938-1.034,2.501-0.097,3.492l22.065,23.331
			c0.938,0.991,2.501,1.035,3.492,0.097l3.426-3.239c0.991-0.938,1.035-2.502,0.098-3.492L86.384,74.448
			c-0.485-0.515-1.14-0.773-1.795-0.773C83.98,73.675,83.37,73.899,82.892,74.35"/>
	</defs>
	<clipPath id="SVGID_4_">
		<use xlink:href="#SVGID_3_"  overflow="visible"/>
	</clipPath>
	
		<linearGradient id="SVGID_5_" gradientUnits="userSpaceOnUse" x1="0" y1="119.9961" x2="1" y2="119.9961" gradientTransform="matrix(30.4319 0 0 -30.4319 78.6875 3741.2637)">
		<stop  offset="0" style="stop-color:#4263EB"/>
		<stop  offset="1" style="stop-color:#1F46E7"/>
	</linearGradient>
	<rect x="78.431" y="73.675" clip-path="url(#SVGID_4_)" fill="url(#SVGID_5_)" width="30.956" height="31.774"/>
</g>
<g>
	<defs>
		<rect id="SVGID_6_" width="120" height="120"/>
	</defs>
	<clipPath id="SVGID_7_">
		<use xlink:href="#SVGID_6_"  overflow="visible"/>
	</clipPath>
	<path clip-path="url(#SVGID_7_)" fill="#FFFFFF" d="M75.879,37.595c8.521,9.009,8.124,23.22-0.885,31.741
		c-9.01,8.521-23.22,8.124-31.741-0.885s-8.124-23.22,0.885-31.741C53.147,28.189,67.357,28.586,75.879,37.595"/>
</g>
<g>
	<defs>
		<path id="SVGID_8_" d="M44.391,67.374c-7.913-8.367-7.544-21.612,0.823-29.526c3.895-3.683,8.989-5.711,14.347-5.711
			c5.803,0,11.193,2.321,15.18,6.534c3.833,4.053,5.858,9.357,5.703,14.934s-2.474,10.76-6.526,14.593
			c-3.895,3.684-8.99,5.711-14.348,5.711C53.767,73.909,48.377,71.589,44.391,67.374 M41.978,34.427
			c-10.254,9.698-10.706,25.93-1.008,36.184c4.883,5.165,11.489,8.009,18.6,8.009c6.567,0,12.811-2.486,17.583-6.999
			c4.967-4.698,7.808-11.05,7.999-17.883c0.189-6.835-2.293-13.334-6.991-18.302c-4.883-5.163-11.489-8.008-18.6-8.008
			C52.996,27.427,46.751,29.914,41.978,34.427"/>
	</defs>
	<clipPath id="SVGID_9_">
		<use xlink:href="#SVGID_8_"  overflow="visible"/>
	</clipPath>
	
		<linearGradient id="SVGID_10_" gradientUnits="userSpaceOnUse" x1="0" y1="120.001" x2="1" y2="120.001" gradientTransform="matrix(51.1796 0 0 -51.1796 33.9688 6194.5786)">
		<stop  offset="0" style="stop-color:#1F46E7"/>
		<stop  offset="1" style="stop-color:#4263EB"/>
	</linearGradient>
	<rect x="31.272" y="27.427" clip-path="url(#SVGID_9_)" fill="url(#SVGID_10_)" width="54.07" height="51.192"/>
</g>
<g>
	<defs>
		<path id="SVGID_11_" d="M55.738,53.797l3.264-8.446c0.036-0.084,0.071-0.17,0.106-0.256c0.171-0.43,0.784-0.417,0.937,0.02
			c0.028,0.08,0.056,0.158,0.084,0.236l3.297,8.444c0.127,0.328-0.115,0.682-0.466,0.682h-6.755
			C55.854,54.477,55.612,54.124,55.738,53.797 M56.975,38.299c-0.204,0-0.387,0.122-0.463,0.31l-9.989,24.449
			c-0.135,0.329,0.107,0.689,0.462,0.689h4.552c0.204,0,0.389-0.125,0.464-0.315l1.64-4.132c0.076-0.189,0.26-0.315,0.465-0.315
			h10.952c0.206,0,0.393,0.126,0.468,0.319l1.604,4.125c0.075,0.192,0.26,0.318,0.466,0.318h4.551c0.354,0,0.597-0.359,0.463-0.688
			L62.655,38.61c-0.076-0.188-0.261-0.311-0.463-0.311H56.975z"/>
	</defs>
	<clipPath id="SVGID_12_">
		<use xlink:href="#SVGID_11_"  overflow="visible"/>
	</clipPath>
	
		<linearGradient id="SVGID_13_" gradientUnits="userSpaceOnUse" x1="0" y1="120" x2="1" y2="120" gradientTransform="matrix(26.1615 0 0 -26.1615 46.4844 3190.4011)">
		<stop  offset="0" style="stop-color:#F2751C"/>
		<stop  offset="1" style="stop-color:#FFC400"/>
	</linearGradient>
	<rect x="46.388" y="38.299" clip-path="url(#SVGID_12_)" fill="url(#SVGID_13_)" width="26.355" height="25.448"/>
</g>
<g>
	<defs>
		<rect id="SVGID_14_" width="120" height="120"/>
	</defs>
	<clipPath id="SVGID_15_">
		<use xlink:href="#SVGID_14_"  overflow="visible"/>
	</clipPath>
	<path clip-path="url(#SVGID_15_)" fill="#F2751C" d="M66.896,49.025l5.714,14.034c0.134,0.329-0.107,0.688-0.464,0.688h-4.549
		c-0.206,0-0.392-0.126-0.466-0.317l-1.606-4.125c-0.075-0.193-0.26-0.319-0.466-0.319H54.106c-0.205,0-0.39,0.125-0.465,0.316
		l-1.64,4.131c-0.076,0.189-0.26,0.314-0.465,0.314h-4.551c-0.355,0-0.597-0.36-0.463-0.688l2.978-7.29
		C58.106,60.657,67.401,57.205,66.896,49.025"/>
</g>
</svg>
