<?xml version="1.0" encoding="utf-8"?>
<!-- Generator: Adobe Illustrator 16.0.0, SVG Export Plug-In . SVG Version: 6.00 Build 0)  -->
<!DOCTYPE svg PUBLIC "-//W3C//DTD SVG 1.1//EN" "http://www.w3.org/Graphics/SVG/1.1/DTD/svg11.dtd">
<svg version="1.1" id="Слой_1" xmlns="http://www.w3.org/2000/svg" xmlns:xlink="http://www.w3.org/1999/xlink" x="0px" y="0px"
	 width="340px" height="240px" viewBox="0 0 340 240" enable-background="new 0 0 340 240" xml:space="preserve">
<g>
	<defs>
		<rect id="SVGID_1_" width="340" height="240"/>
	</defs>
	<clipPath id="SVGID_2_">
		<use xlink:href="#SVGID_1_"  overflow="visible"/>
	</clipPath>
	<path clip-path="url(#SVGID_2_)" fill="#D9EDF6" d="M256.467,206.457c32.269-23.682,51.269-64.682,45.269-105.682
		c-3-16-16-26-32-27c-29-2-57,21-84.843,8.931c-7.423-3.597-13.081-9.437-17.975-16.334c-9.787-13.794-16.516-31.819-28.182-44.597
		c-12-12-30-14-45-6c-44,26-71,85-48.427,131.617c3.149,5.688,7.26,10.883,12.427,15.383c11,10,23.5,8.75,36.25,3.875
		c4.25-1.625,8.53-3.655,12.8-5.812c5.975-3.031,11.962-6.548,18.217-9.296c4.366-1.884,9.549-4.075,14.641-4.672
		c5.092-0.596,10.092,0.404,14.092,4.904c10,15,4,33,4,50c0.5,5.5,2.75,10.5,6.125,14.625s7.875,7.375,12.879,9.375
		c5.499,2,11.123,3,16.786,3.208c5.662,0.207,11.363-0.378,17.016-1.548c11.194-2.66,23.194-6.66,33.406-12.732
		C248.2,212.205,252.397,209.442,256.467,206.457"/>
	<path clip-path="url(#SVGID_2_)" fill="#D9EDF6" d="M144.514,187.047c3.278,4.478,3.834,9.833,1.69,14.351
		c-4.289,9.033-13.095,15.923-23.433,13.45c-12.154-3.778-16.06-19.803-8.65-29.347c4.799-5.913,11.972-5.165,19.701-6.441
		C138.274,180.17,142.194,182.929,144.514,187.047"/>
	<path clip-path="url(#SVGID_2_)" fill="#4CCD9B" d="M49.854,201.555l-5.335,5.335c8.422,8.422,22.076,8.422,30.498,0l-5.335-5.335
		C64.208,207.03,55.33,207.03,49.854,201.555"/>
	<path clip-path="url(#SVGID_2_)" fill="#239B6A" d="M70.069,181.341l4.549-4.549c0.221-0.222,0.218-0.582-0.008-0.797
		c-4.139-3.931-9.455-5.902-14.775-5.918v7.545c3.4,0.015,6.796,1.26,9.463,3.734C69.517,181.56,69.858,181.552,70.069,181.341"/>
	<path clip-path="url(#SVGID_2_)" fill="#239B6A" d="M44.52,206.89l5.335-5.335c-2.757-2.757-4.125-6.377-4.106-9.99h-7.544
		C38.185,197.108,40.29,202.66,44.52,206.89"/>
	<path clip-path="url(#SVGID_2_)" fill="#4CCD9B" d="M49.854,181.727c2.755-2.755,6.37-4.123,9.98-4.105v-7.544
		c-5.541-0.018-11.087,2.087-15.315,6.314L49.854,181.727z"/>
	<path clip-path="url(#SVGID_2_)" fill="#239B6A" d="M69.683,201.555c2.648-2.647,4.014-6.091,4.101-9.56
		c0.006-0.233,0.195-0.42,0.429-0.42H80.9c0.24,0,0.433,0.195,0.429,0.436c-0.092,5.396-2.195,10.762-6.312,14.879L69.683,201.555z"
		/>
</g>
<g>
	<defs>
		<path id="SVGID_3_" d="M38.204,191.565h7.545c0.02-3.563,1.388-7.12,4.106-9.839l-5.336-5.334
			C40.328,180.584,38.224,186.071,38.204,191.565"/>
	</defs>
	<clipPath id="SVGID_4_">
		<use xlink:href="#SVGID_3_"  overflow="visible"/>
	</clipPath>
	
		<linearGradient id="SVGID_5_" gradientUnits="userSpaceOnUse" x1="-9.765625e-004" y1="240" x2="0.999" y2="240" gradientTransform="matrix(0 -15.1726 -15.1726 0 3685.4612 191.5625)">
		<stop  offset="0" style="stop-color:#4CCD9B"/>
		<stop  offset="1" style="stop-color:#239B6A"/>
	</linearGradient>
	<rect x="38.204" y="176.393" clip-path="url(#SVGID_4_)" fill="url(#SVGID_5_)" width="11.651" height="15.173"/>
</g>
<g>
	<defs>
		<rect id="SVGID_6_" width="340" height="240"/>
	</defs>
	<clipPath id="SVGID_7_">
		<use xlink:href="#SVGID_6_"  overflow="visible"/>
	</clipPath>
	<path clip-path="url(#SVGID_7_)" fill="#4263EB" d="M244.19,101.583c-1.933,0-3.5,1.567-3.5,3.5s1.567,3.5,3.5,3.5
		c1.934,0,3.5-1.567,3.5-3.5S246.124,101.583,244.19,101.583 M244.19,106.889c-0.997,0-1.805-0.808-1.805-1.805
		s0.808-1.806,1.805-1.806s1.806,0.809,1.806,1.806S245.188,106.889,244.19,106.889"/>
	<path clip-path="url(#SVGID_7_)" fill="#4263EB" d="M79.343,148.245c-1.933,0-3.5,1.567-3.5,3.5c0,1.934,1.567,3.5,3.5,3.5
		c1.933,0,3.5-1.566,3.5-3.5C82.843,149.813,81.275,148.245,79.343,148.245 M79.343,153.551c-0.997,0-1.805-0.809-1.805-1.806
		s0.808-1.806,1.805-1.806c0.997,0,1.805,0.809,1.805,1.806S80.339,153.551,79.343,153.551"/>
	
		<path clip-path="url(#SVGID_7_)" fill="none" stroke="#F2751C" stroke-width="1.362" stroke-linecap="round" stroke-miterlimit="10" stroke-dasharray="0.908,4.539" d="
		M46.485,90h24.54c0.949,0,1.787-0.616,2.071-1.522l6.008-19.218c0.649-2.078,3.612-2.011,4.167,0.094l5.018,19.03
		C88.541,89.336,89.402,90,90.387,90h18.906c0.931,0,1.758,0.594,2.055,1.476l7.666,22.747c0.69,2.046,3.619,1.938,4.156-0.153
		l5.762-22.44c0.247-0.959,1.111-1.63,2.101-1.63h26.463c1.038,0,1.93,0.735,2.129,1.754l4.423,22.716
		c0.405,2.075,3.236,2.405,4.106,0.478l3.661-8.109c0.801-1.77,3.345-1.678,4.014,0.146l13.751,37.498
		c0.313,0.854,1.127,1.423,2.036,1.423h12.487c0.87,0,1.656-0.521,1.996-1.322l6.072-14.295c0.738-1.738,3.189-1.77,3.971-0.049
		l6.537,14.393c0.353,0.775,1.124,1.273,1.975,1.273h6.069c0.946,0,1.784,0.613,2.068,1.516l4.575,14.515
		c0.696,2.213,3.912,1.934,4.219-0.365l1.83-13.782c0.144-1.078,1.063-1.883,2.149-1.883h8.795c0.843,0,1.609-0.488,1.966-1.252
		l4.191-8.982c0.756-1.619,3.035-1.681,3.878-0.104l3.586,6.703c0.823,1.539,3.036,1.524,3.838-0.025l11.121-21.488
		c0.835-1.614,3.166-1.547,3.907,0.112l6.668,14.93"/>
	
		<path clip-path="url(#SVGID_7_)" fill="none" stroke="#4263EB" stroke-width="1.362" stroke-linecap="round" stroke-miterlimit="10" stroke-dasharray="4.539,4.539" d="
		M45.777,126h19.095c0.85,0,1.622,0.499,1.972,1.274l10.457,23.196c0.777,1.724,3.234,1.691,3.966-0.051l11.92-28.366
		c0.668-1.591,2.841-1.797,3.796-0.357l7.412,11.163c0.97,1.46,3.184,1.221,3.819-0.413l7.087-18.23
		c0.712-1.83,3.296-1.842,4.025-0.02l6.518,16.293c0.765,1.912,3.515,1.774,4.087-0.202l10.091-34.895
		c0.606-2.095,3.58-2.078,4.163,0.023l6.376,23c0.259,0.937,1.112,1.585,2.084,1.585h21.317c1.009,0,1.885-0.698,2.109-1.683
		l5.864-25.737c0.502-2.205,3.624-2.258,4.201-0.072l3.305,12.523c0.546,2.064,3.435,2.175,4.136,0.158l9.2-26.479
		c0.68-1.958,3.458-1.931,4.1,0.039l5.137,15.758c0.29,0.89,1.12,1.493,2.057,1.493h11.382c0.903,0,1.712-0.562,2.026-1.41
		l3.694-9.936c0.7-1.884,3.367-1.878,4.058,0.009l7.017,19.139c0.683,1.863,3.304,1.901,4.04,0.059l3.999-10.001
		c0.328-0.821,1.124-1.36,2.008-1.36H266.3c0.927,0,1.751-0.59,2.049-1.468l3.838-11.306c0.352-1.032,1.319-1.726,2.409-1.726
		h20.363"/>
	<path clip-path="url(#SVGID_7_)" fill="#4263EB" d="M230.068,69.805l-43.421-9.078c-0.506-0.046-0.969-0.333-1.198-0.787
		c-1.27-2.498-4.384-4.225-8.324-5.606h45.406c6.719,0.666,8.889,8.206,9.209,13.868C231.793,69.13,230.996,69.888,230.068,69.805"
		/>
	<path clip-path="url(#SVGID_7_)" fill="#FFFFFF" d="M210,54.333h-84.167c-7.64,0-13.833,6.193-13.833,13.833v110.167h85.5
		c6.904,0,12.5-5.596,12.5-12.5V74.521c0.774-10.764,1.656-20.187,11.906-20.187H210z"/>
	
		<line clip-path="url(#SVGID_7_)" fill="none" stroke="#C8CBAC" stroke-width="0.908" stroke-linecap="round" stroke-miterlimit="10" x1="112" y1="132.953" x2="112" y2="173"/>
	<path clip-path="url(#SVGID_7_)" fill="#F2751C" d="M240.331,159.522c-1.933,0-3.5,1.567-3.5,3.5c0,1.934,1.567,3.5,3.5,3.5
		c1.934,0,3.5-1.566,3.5-3.5C243.831,161.09,242.265,159.522,240.331,159.522 M240.331,164.828c-0.997,0-1.805-0.809-1.805-1.806
		s0.808-1.806,1.805-1.806s1.806,0.809,1.806,1.806S241.328,164.828,240.331,164.828"/>
	<path clip-path="url(#SVGID_7_)" fill="#F2751C" d="M285.366,116.5c-1.933,0-3.5,1.567-3.5,3.5c0,1.934,1.567,3.5,3.5,3.5
		c1.934,0,3.5-1.566,3.5-3.5C288.866,118.067,287.3,116.5,285.366,116.5 M285.366,121.806c-0.997,0-1.805-0.809-1.805-1.806
		c0-0.997,0.808-1.806,1.805-1.806s1.806,0.809,1.806,1.806C287.172,120.997,286.363,121.806,285.366,121.806"/>
	<path clip-path="url(#SVGID_7_)" fill="#F2751C" d="M80.738,64.238c-1.933,0-3.5,1.567-3.5,3.5s1.567,3.5,3.5,3.5
		c1.933,0,3.5-1.567,3.5-3.5S82.671,64.238,80.738,64.238 M80.738,69.543c-0.997,0-1.805-0.808-1.805-1.805s0.808-1.806,1.805-1.806
		c0.997,0,1.805,0.809,1.805,1.806S81.735,69.543,80.738,69.543"/>
</g>
<g>
	<defs>
		<path id="SVGID_8_" d="M121.558,72c-0.591,0-1.069,0.478-1.069,1.068v62.197c0,0.592,0.478,1.068,1.069,1.068h36.374
			c0.59,0,1.068-0.477,1.068-1.068V73.068c0-0.59-0.478-1.068-1.068-1.068H121.558z"/>
	</defs>
	<clipPath id="SVGID_9_">
		<use xlink:href="#SVGID_8_"  overflow="visible"/>
	</clipPath>
	
		<linearGradient id="SVGID_10_" gradientUnits="userSpaceOnUse" x1="0" y1="240" x2="1" y2="240" gradientTransform="matrix(0 -64.3333 -64.3333 0 15579.751 136.3438)">
		<stop  offset="0" style="stop-color:#F2751C"/>
		<stop  offset="1" style="stop-color:#FFC400"/>
	</linearGradient>
	<rect x="120.489" y="72" clip-path="url(#SVGID_9_)" fill="url(#SVGID_10_)" width="38.511" height="64.333"/>
</g>
<g>
	<defs>
		<rect id="SVGID_11_" width="340" height="240"/>
	</defs>
	<clipPath id="SVGID_12_">
		<use xlink:href="#SVGID_11_"  overflow="visible"/>
	</clipPath>
	<path clip-path="url(#SVGID_12_)" fill="#4263EB" d="M87.462,163.028l101.515,9.078c0.508,0.046,0.97,0.333,1.199,0.787
		c1.27,2.498,4.383,4.226,8.324,5.606H95c-6.858-2.695-8.889-8.206-9.209-13.868C85.738,163.703,86.535,162.945,87.462,163.028"/>
	
		<line clip-path="url(#SVGID_12_)" fill="none" stroke="#C8CBAC" stroke-width="0.908" stroke-linecap="round" stroke-miterlimit="10" x1="212.905" y1="54.333" x2="173.03" y2="54.333"/>
	
		<line clip-path="url(#SVGID_12_)" fill="none" stroke="#C8CBAC" stroke-width="0.908" stroke-linecap="round" stroke-miterlimit="10" x1="165" y1="72" x2="202.5" y2="72"/>
	
		<line clip-path="url(#SVGID_12_)" fill="none" stroke="#C8CBAC" stroke-width="0.908" stroke-linecap="round" stroke-miterlimit="10" x1="195" y1="78" x2="202.5" y2="78"/>
	
		<line clip-path="url(#SVGID_12_)" fill="none" stroke="#C8CBAC" stroke-width="0.908" stroke-linecap="round" stroke-miterlimit="10" x1="165" y1="78" x2="187.875" y2="78"/>
	
		<line clip-path="url(#SVGID_12_)" fill="none" stroke="#C8CBAC" stroke-width="0.908" stroke-linecap="round" stroke-miterlimit="10" x1="165" y1="84" x2="196.968" y2="84"/>
	
		<line clip-path="url(#SVGID_12_)" fill="none" stroke="#C8CBAC" stroke-width="0.908" stroke-linecap="round" stroke-miterlimit="10" x1="185.375" y1="90" x2="202.5" y2="90"/>
	
		<line clip-path="url(#SVGID_12_)" fill="none" stroke="#C8CBAC" stroke-width="0.908" stroke-linecap="round" stroke-miterlimit="10" x1="165" y1="90" x2="177.625" y2="90"/>
	
		<line clip-path="url(#SVGID_12_)" fill="none" stroke="#C8CBAC" stroke-width="0.908" stroke-linecap="round" stroke-miterlimit="10" x1="165" y1="96" x2="186.375" y2="96"/>
	
		<line clip-path="url(#SVGID_12_)" fill="none" stroke="#C8CBAC" stroke-width="0.908" stroke-linecap="round" stroke-miterlimit="10" x1="195.875" y1="102" x2="202.5" y2="102"/>
	
		<line clip-path="url(#SVGID_12_)" fill="none" stroke="#C8CBAC" stroke-width="0.908" stroke-linecap="round" stroke-miterlimit="10" x1="165" y1="102" x2="186.375" y2="102"/>
	
		<line clip-path="url(#SVGID_12_)" fill="none" stroke="#C8CBAC" stroke-width="0.908" stroke-linecap="round" stroke-miterlimit="10" x1="185.375" y1="108" x2="202.5" y2="108"/>
	
		<line clip-path="url(#SVGID_12_)" fill="none" stroke="#C8CBAC" stroke-width="0.908" stroke-linecap="round" stroke-miterlimit="10" x1="165" y1="108" x2="177.031" y2="108"/>
	
		<line clip-path="url(#SVGID_12_)" fill="none" stroke="#C8CBAC" stroke-width="0.908" stroke-linecap="round" stroke-miterlimit="10" x1="165" y1="114" x2="202.5" y2="114"/>
	
		<line clip-path="url(#SVGID_12_)" fill="none" stroke="#C8CBAC" stroke-width="0.908" stroke-linecap="round" stroke-miterlimit="10" x1="189.375" y1="120" x2="202.5" y2="120"/>
	
		<line clip-path="url(#SVGID_12_)" fill="none" stroke="#C8CBAC" stroke-width="0.908" stroke-linecap="round" stroke-miterlimit="10" x1="165" y1="120" x2="178.375" y2="120"/>
	
		<line clip-path="url(#SVGID_12_)" fill="none" stroke="#C8CBAC" stroke-width="0.908" stroke-linecap="round" stroke-miterlimit="10" x1="165" y1="126" x2="191.25" y2="126"/>
	
		<line clip-path="url(#SVGID_12_)" fill="none" stroke="#C8CBAC" stroke-width="0.908" stroke-linecap="round" stroke-miterlimit="10" x1="193.375" y1="132" x2="202.5" y2="132"/>
	
		<line clip-path="url(#SVGID_12_)" fill="none" stroke="#C8CBAC" stroke-width="0.908" stroke-linecap="round" stroke-miterlimit="10" x1="180.375" y1="132" x2="188.75" y2="132"/>
	
		<line clip-path="url(#SVGID_12_)" fill="none" stroke="#C8CBAC" stroke-width="0.908" stroke-linecap="round" stroke-miterlimit="10" x1="165" y1="132" x2="175.687" y2="132"/>
	
		<line clip-path="url(#SVGID_12_)" fill="none" stroke="#C8CBAC" stroke-width="0.908" stroke-linecap="round" stroke-miterlimit="10" x1="165" y1="138" x2="202.5" y2="138"/>
	
		<line clip-path="url(#SVGID_12_)" fill="none" stroke="#C8CBAC" stroke-width="0.908" stroke-linecap="round" stroke-miterlimit="10" x1="120.49" y1="144" x2="185.375" y2="144"/>
	
		<line clip-path="url(#SVGID_12_)" fill="none" stroke="#C8CBAC" stroke-width="0.908" stroke-linecap="round" stroke-miterlimit="10" x1="184.563" y1="150" x2="202.5" y2="150"/>
	
		<line clip-path="url(#SVGID_12_)" fill="none" stroke="#C8CBAC" stroke-width="0.908" stroke-linecap="round" stroke-miterlimit="10" x1="148.625" y1="150" x2="177.624" y2="150"/>
	
		<line clip-path="url(#SVGID_12_)" fill="none" stroke="#C8CBAC" stroke-width="0.908" stroke-linecap="round" stroke-miterlimit="10" x1="120.49" y1="150" x2="135.875" y2="150"/>
	
		<line clip-path="url(#SVGID_12_)" fill="none" stroke="#C8CBAC" stroke-width="0.908" stroke-linecap="round" stroke-miterlimit="10" x1="186.375" y1="156" x2="202.5" y2="156"/>
	
		<line clip-path="url(#SVGID_12_)" fill="none" stroke="#C8CBAC" stroke-width="0.908" stroke-linecap="round" stroke-miterlimit="10" x1="152.932" y1="156" x2="180.375" y2="156"/>
	
		<line clip-path="url(#SVGID_12_)" fill="none" stroke="#C8CBAC" stroke-width="0.908" stroke-linecap="round" stroke-miterlimit="10" x1="120.49" y1="156" x2="143" y2="156"/>
	
		<line clip-path="url(#SVGID_12_)" fill="none" stroke="#C8CBAC" stroke-width="0.908" stroke-linecap="round" stroke-miterlimit="10" x1="143.375" y1="162" x2="175.125" y2="162"/>
	
		<line clip-path="url(#SVGID_12_)" fill="none" stroke="#C8CBAC" stroke-width="0.908" stroke-linecap="round" stroke-miterlimit="10" x1="120.49" y1="162" x2="133.75" y2="162"/>
	<path clip-path="url(#SVGID_12_)" fill="#F2751C" d="M265.354,17.233v7.752c8.404,0,15.216,6.813,15.216,15.216
		c0,8.404-6.812,15.216-15.216,15.216v7.753c12.686,0,22.968-10.284,22.968-22.969S278.039,17.233,265.354,17.233"/>
</g>
<g>
	<defs>
		<path id="SVGID_13_" d="M242.385,40.201h7.753c0-8.403,6.813-15.215,15.215-15.215v-7.753
			C252.669,17.233,242.385,27.516,242.385,40.201"/>
	</defs>
	<clipPath id="SVGID_14_">
		<use xlink:href="#SVGID_13_"  overflow="visible"/>
	</clipPath>
	
		<linearGradient id="SVGID_15_" gradientUnits="userSpaceOnUse" x1="4.882813e-004" y1="240" x2="1.0005" y2="240" gradientTransform="matrix(45.9366 0 0 -45.9366 242.375 11053.4961)">
		<stop  offset="0" style="stop-color:#FF9A01"/>
		<stop  offset="1" style="stop-color:#FFC400"/>
	</linearGradient>
	<rect x="242.385" y="17.233" clip-path="url(#SVGID_14_)" fill="url(#SVGID_15_)" width="22.968" height="22.968"/>
</g>
<g>
	<defs>
		<rect id="SVGID_16_" width="340" height="240"/>
	</defs>
	<clipPath id="SVGID_17_">
		<use xlink:href="#SVGID_16_"  overflow="visible"/>
	</clipPath>
	<path clip-path="url(#SVGID_17_)" fill="#FFC400" d="M265.354,24.985v-7.752c-12.685,0-22.968,10.283-22.968,22.968h7.752
		C250.138,31.797,256.949,24.985,265.354,24.985"/>
</g>
<g>
	<defs>
		<path id="SVGID_18_" d="M242.385,40.201c0,12.685,10.284,22.969,22.968,22.969v-7.753c-8.402,0-15.215-6.812-15.215-15.216
			H242.385z"/>
	</defs>
	<clipPath id="SVGID_19_">
		<use xlink:href="#SVGID_18_"  overflow="visible"/>
	</clipPath>
	
		<linearGradient id="SVGID_20_" gradientUnits="userSpaceOnUse" x1="4.882813e-004" y1="240" x2="1.0005" y2="240" gradientTransform="matrix(45.9366 0 0 -45.9366 242.375 11076.4648)">
		<stop  offset="0" style="stop-color:#FF9A01"/>
		<stop  offset="1" style="stop-color:#FFC400"/>
	</linearGradient>
	<rect x="242.385" y="40.201" clip-path="url(#SVGID_19_)" fill="url(#SVGID_20_)" width="22.968" height="22.969"/>
</g>
<g>
	<defs>
		<path id="SVGID_21_" d="M242.385,40.201c0,12.685,10.284,22.969,22.968,22.969v-7.753c-8.402,0-15.215-6.812-15.215-15.216
			H242.385z"/>
	</defs>
	<clipPath id="SVGID_22_">
		<use xlink:href="#SVGID_21_"  overflow="visible"/>
	</clipPath>
	
		<linearGradient id="SVGID_23_" gradientUnits="userSpaceOnUse" x1="0" y1="239.999" x2="1" y2="239.999" gradientTransform="matrix(69.973 0 0 -69.973 195.375 16845.2051)">
		<stop  offset="0" style="stop-color:#FF9A01"/>
		<stop  offset="1" style="stop-color:#FFC400"/>
	</linearGradient>
	<rect x="242.385" y="40.201" clip-path="url(#SVGID_22_)" fill="url(#SVGID_23_)" width="22.968" height="22.969"/>
</g>
<g>
	<defs>
		<path id="SVGID_24_" d="M242.385,40.201c0,12.685,10.284,22.969,22.968,22.969v-7.753c-8.402,0-15.215-6.812-15.215-15.216
			H242.385z"/>
	</defs>
	<clipPath id="SVGID_25_">
		<use xlink:href="#SVGID_24_"  overflow="visible"/>
	</clipPath>
	
		<linearGradient id="SVGID_26_" gradientUnits="userSpaceOnUse" x1="0" y1="240" x2="1" y2="240" gradientTransform="matrix(41.1835 0 0 -41.1835 224.1563 9935.7236)">
		<stop  offset="0" style="stop-color:#F2751C"/>
		<stop  offset="1" style="stop-color:#FFC400"/>
	</linearGradient>
	<rect x="242.385" y="40.201" clip-path="url(#SVGID_25_)" fill="url(#SVGID_26_)" width="22.968" height="22.969"/>
</g>
</svg>
