<svg xmlns="http://www.w3.org/2000/svg" viewBox="441 711 541 590" width="541" height="590"><defs><style>.a,.b{fill:none;stroke-width:2px;}.a{stroke:#ff832a;}.b{stroke:#4c6ef5;}</style></defs><line class="a" x2="125" transform="translate(737 1300)"/><line class="a" x2="4" transform="translate(730 1300)"/><line class="a" x2="60" transform="translate(667 1300)"/><line class="a" x2="99" transform="translate(981 1026) rotate(90)"/><line class="a" x2="12" transform="translate(981 1128) rotate(90)"/><line class="a" y2="77" transform="translate(981 1143)"/><line class="a" x2="248" transform="translate(441 1300)"/><line class="a" x2="127" transform="translate(793 712)"/><line class="a" x2="9" transform="translate(923 712)"/><line class="a" x2="22" transform="translate(935 712)"/><path class="a" d="M120,1440c-11.907,0-24-11.585-24-24" transform="translate(1077 2152) rotate(180)"/><line class="a" x2="60" transform="translate(981 736) rotate(90)"/><line class="a" y2="235" transform="translate(981 791)"/><line class="a" x2="60" transform="translate(981 1216) rotate(90)"/><line class="a" y1="100" transform="translate(957 1300) rotate(90)"/><path class="a" d="M120,1440c-11.907,0-24-11.585-24-24" transform="translate(-459 1396) rotate(-90)"/><path class="b" d="M120,1440c-11.907,0-24-11.585-24-24" transform="translate(2087 1024) rotate(90)"/><line class="b" x2="60" transform="translate(671 1120)"/><line class="b" y2="94" transform="translate(647 1204)"/><line class="b" y2="7" transform="translate(647 1194)"/><line class="b" y2="47" transform="translate(647 1144)"/></svg>
