<?xml version="1.0" encoding="utf-8"?>
<!-- Generator: Adobe Illustrator 19.1.1, SVG Export Plug-In . SVG Version: 6.00 Build 0)  -->
<svg version="1.1" xmlns="http://www.w3.org/2000/svg" xmlns:xlink="http://www.w3.org/1999/xlink" x="0px" y="0px"
	 viewBox="0 0 1000 860" width="520" height="450" style="enable-background:new 0 0 1000 860;" xml:space="preserve">
<style type="text/css">
	.st0{fill:#FFFFFF;}
	.st1{fill:#D9EDF6;}
	.st2{fill:none;stroke:#F2751C;stroke-width:3;stroke-linecap:round;stroke-miterlimit:10;stroke-dasharray:5,10.5783;}
	.st3{fill:none;stroke:#4263EB;stroke-width:3;stroke-linecap:round;stroke-miterlimit:10;stroke-dasharray:10.6576,10.6576;}
	.st4{fill:#4263EB;}
	.st5{fill:url(#SVGID_1_);}
	.st6{fill:url(#SVGID_2_);}
	.st7{fill:#F2751C;}
	.st8{fill:url(#SVGID_3_);}
	.st9{fill:none;stroke:#1F46E7;stroke-width:3;stroke-miterlimit:10;}
	.st10{fill:#EAEACD;}
	.st11{fill:#4CCD9B;}
	.st12{fill:#239B6A;}
	.st13{fill:url(#SVGID_4_);}
	.st14{fill:#FFC400;}
	.st15{fill:#96B7E1;}
	.st16{fill:url(#SVGID_5_);}
	.st17{fill:#1F46E7;}
	.st18{fill:url(#SVGID_6_);}
</style>
<g id="white_x5F_bg">
	<rect class="st0" width="1000" height="860"/>
</g>
<g id="clouds">
	<path class="st1" d="M215.6,582.4c124.9,25.7,207.8-55.5,313.4,51.5c80.8,81.9,133.9,154.8,261.9,112.4
		c219.7-72.7,228.7-456.8-11.9-502.6c-127.6-24.3-225.8,90.7-347.1-11.9c-68.3-57.8-120.9-84.4-212.4-87.2
		C-27.7,144.6-25.8,532.7,215.6,582.4z"/>
	<path class="st1" d="M640.7,174.7C641,213,606,239,571,245c-43,7-92-11-108-54c-9-25,1-53,22-70c38-30,94-29,130,2.2
		C630.9,136.1,640.8,154.2,640.7,174.7z"/>
</g>
<g id="graph">
	<g id="Layer_2">
		<path class="st2" d="M935.8,481l-19,128.6c-1.1,7.2-11.3,7.5-12.8,0.4l-5.8-26.6c-1.9-8.8-13.5-11.1-18.6-3.7l-3.7,5.4
			c-5.1,7.2-15.8,7.1-20.7-0.3l-78-118.8c-5.8-8.9-15.7-14.2-26.4-14.2h-10.9c-11.9,0-22.9,6.7-28.3,17.3L668,553.9
			c-8.1,15.9-30.7,16.2-39.4,0.7l-38.1-68.4c-8.6-15.5-24.9-25.1-42.6-25.1H428c-23.5,0-43.6,17-47.4,40.3l-39.9,243.4
			c-2,12.5-20,12.5-22,0l-8.9-54.3c-2-12.3-19.7-12.3-21.8,0l-15.5,93.1c-2.5,15.1-24.1,15.4-27,0.4l-18.4-94.5
			c-1.9-9.7-10.4-16.7-20.3-16.7h-38.6c-9.6,0-18.2-5.8-21.8-14.7l-37.3-92.5c-6.1-15-27.4-14.8-33.2,0.3l-11.7,30.8"/>
		<path class="st3" d="M67.5,268.8h21.1c16.9,0,30.5,13.7,30.5,30.5v0c0,23.9,19.4,43.2,43.2,43.2h39.2c16.1,0,30.5-10.3,35.6-25.6
			l14.3-42.5c6.4-19.1,33.1-19.8,40.6-1.1l12.6,31.7c6,15,20.5,24.8,36.6,24.8h85.4c18.9,0,36.3-10.1,45.8-26.5l23.8-41.4
			c6.4-11.1,22.2-11.7,29.3-1.1l6.1,9c7.8,11.5,25.1,10.1,31-2.5l12.6-26.7c5.7-12.1,22.5-12.8,29.3-1.3l5.6,9.6
			c4.9,8.5,14,13.6,23.8,13.6h0c9.5,0,17.9-6.4,20.5-15.6l51-183.3c4.1-14.9,25.3-14.8,29.3,0.1l22.5,84c2.7,10.2,17.2,10,19.7-0.2
			l10.8-44.7c3.2-13,14.8-22.2,28.2-22.2h43.8c12.7,0,24,8.3,27.8,20.5l16.8,54.3c3.8,12.4,15.3,20.8,28.2,20.8"/>
		<g>
			<g>
				<path class="st4" d="M888.6,346.1c1.9,0,1.9-3,0-3C886.6,343.1,886.6,346.1,888.6,346.1L888.6,346.1z"/>
			</g>
		</g>
	</g>
</g>
<g id="points">
	<linearGradient id="SVGID_1_" gradientUnits="userSpaceOnUse" x1="105.6804" y1="319.5" x2="140.6804" y2="319.5">
		<stop  offset="0" style="stop-color:#4263EB"/>
		<stop  offset="1" style="stop-color:#1F46E7"/>
	</linearGradient>
	<path class="st5" d="M123.2,302c-9.7,0-17.5,7.8-17.5,17.5c0,9.7,7.8,17.5,17.5,17.5s17.5-7.8,17.5-17.5
		C140.7,309.8,132.8,302,123.2,302z M123.2,328.5c-5,0-9-4-9-9c0-5,4-9,9-9c5,0,9,4,9,9C132.2,324.5,128.2,328.5,123.2,328.5z"/>
	<linearGradient id="SVGID_2_" gradientUnits="userSpaceOnUse" x1="704.6528" y1="53.7801" x2="739.6528" y2="53.7801">
		<stop  offset="0" style="stop-color:#4263EB"/>
		<stop  offset="1" style="stop-color:#1F46E7"/>
	</linearGradient>
	<path class="st6" d="M722.2,36.3c-9.7,0-17.5,7.8-17.5,17.5c0,9.7,7.8,17.5,17.5,17.5s17.5-7.8,17.5-17.5
		C739.7,44.1,731.8,36.3,722.2,36.3z M722.2,62.8c-5,0-9-4-9-9c0-5,4-9,9-9c5,0,9,4,9,9C731.2,58.8,727.1,62.8,722.2,62.8z"/>
	<path class="st7" d="M911.1,597.1c-9.7,0-17.5,7.8-17.5,17.5c0,9.7,7.8,17.5,17.5,17.5c9.7,0,17.5-7.8,17.5-17.5
		C928.6,604.9,920.8,597.1,911.1,597.1z M911.1,623.6c-5,0-9-4-9-9c0-5,4-9,9-9c5,0,9,4,9,9C920.1,619.6,916.1,623.6,911.1,623.6z"
		/>
	<path class="st7" d="M257.6,777.4c-9.7,0-17.5,7.8-17.5,17.5c0,9.7,7.8,17.5,17.5,17.5c9.7,0,17.5-7.8,17.5-17.5
		C275.1,785.2,267.3,777.4,257.6,777.4z M257.6,803.9c-5,0-9-4-9-9c0-5,4-9,9-9s9,4,9,9C266.6,799.9,262.6,803.9,257.6,803.9z"/>
</g>
<g id="window">
	<g>
		<g>
			<linearGradient id="SVGID_3_" gradientUnits="userSpaceOnUse" x1="206.9179" y1="450" x2="833.0822" y2="450">
				<stop  offset="0" style="stop-color:#4263EB"/>
				<stop  offset="1" style="stop-color:#1F46E7"/>
			</linearGradient>
			<path class="st8" d="M820.8,698.4H219.2c-6.8,0-12.3-5.5-12.3-12.3V214c0-6.8,5.5-12.3,12.3-12.3h601.5c6.8,0,12.3,5.5,12.3,12.3
				V686C833.1,692.8,827.6,698.4,820.8,698.4z"/>
			<path class="st0" d="M800.8,678.4H199.2c-6.8,0-12.3-5.5-12.3-12.3V194c0-6.8,5.5-12.3,12.3-12.3h601.5c6.8,0,12.3,5.5,12.3,12.3
				V666C813.1,672.8,807.6,678.4,800.8,678.4z"/>
			<g>
				<path class="st9" d="M438,678.4H199.2c-6.8,0-12.3-5.5-12.3-12.3v-28"/>
				<path class="st9" d="M186.9,531V194c0-6.8,5.5-12.3,12.3-12.3H442"/>
				<path class="st9" d="M582,181.6h218.8c6.8,0,12.3,5.5,12.3,12.3v21"/>
			</g>
		</g>
		<g>
			<rect x="237.9" y="225" class="st10" width="142.5" height="142.5"/>
			<rect x="237.9" y="387.1" class="st10" width="452.7" height="10"/>
			<rect x="237.9" y="412.1" class="st10" width="539.8" height="10"/>
			<rect x="237.9" y="437.1" class="st10" width="381.8" height="10"/>
			<rect x="237.9" y="462.1" class="st10" width="452.7" height="10"/>
			<rect x="237.9" y="487.1" class="st10" width="492.5" height="10"/>
			<rect x="237.9" y="512.1" class="st10" width="411.8" height="10"/>
			<rect x="237.9" y="537.1" class="st10" width="539.8" height="10"/>
			<rect x="237.9" y="562.1" class="st10" width="452.7" height="10"/>
		</g>
	</g>
</g>
<g id="dia">
	<g>
		<path class="st11" d="M134,501.6l-15.9,15.9c25.1,25.1,65.8,25.1,90.9,0l-15.9-15.9C176.8,518,150.3,518,134,501.6z"/>
		<path class="st12" d="M194.3,441.4l13.6-13.6c0.7-0.7,0.7-1.7,0-2.4c-12.3-11.7-28.2-17.6-44.1-17.6v22.5
			c10.1,0,20.3,3.8,28.2,11.1C192.6,442,193.7,442,194.3,441.4z"/>
		<path class="st12" d="M118.1,517.6l15.9-15.9c-8.2-8.2-12.3-19-12.2-29.8H99.3C99.2,488.4,105.5,504.9,118.1,517.6z"/>
		<path class="st11" d="M134,442.5c8.2-8.2,19-12.3,29.8-12.2v-22.5c-16.5-0.1-33.1,6.2-45.7,18.8l0,0L134,442.5L134,442.5z"/>
		<path class="st12" d="M193.1,501.6c7.9-7.9,12-18.2,12.2-28.5c0-0.7,0.6-1.3,1.3-1.3h19.9c0.7,0,1.3,0.6,1.3,1.3
			c-0.3,16.1-6.5,32.1-18.8,44.4l0,0L193.1,501.6L193.1,501.6z"/>
		<linearGradient id="SVGID_4_" gradientUnits="userSpaceOnUse" x1="116.6464" y1="471.8646" x2="116.6464" y2="426.6288">
			<stop  offset="0" style="stop-color:#4CCD9B"/>
			<stop  offset="1" style="stop-color:#239B6A"/>
		</linearGradient>
		<path class="st13" d="M121.8,471.9c0.1-10.6,4.1-21.2,12.2-29.3l-15.9-15.9c-12.5,12.5-18.8,28.9-18.8,45.2H121.8z"/>
	</g>
	<g>
		<g>
			<g>
				<rect x="636.7" y="654.5" class="st14" width="30.9" height="116"/>
			</g>
			<rect x="694.3" y="626.3" class="st7" width="30.9" height="144.1"/>
			<rect x="752.1" y="686.2" class="st15" width="30.9" height="84.2"/>
			<linearGradient id="SVGID_5_" gradientUnits="userSpaceOnUse" x1="825.3493" y1="770.4086" x2="825.3493" y2="658.1909">
				<stop  offset="0" style="stop-color:#F2751C"/>
				<stop  offset="1" style="stop-color:#FFC400"/>
			</linearGradient>
			<rect x="809.9" y="658.2" class="st16" width="30.9" height="112.2"/>
			<rect x="867.7" y="712.4" class="st17" width="30.9" height="58"/>
		</g>
	</g>
</g>
<g id="ad">
	<g>
		<linearGradient id="SVGID_6_" gradientUnits="userSpaceOnUse" x1="678" y1="319.5" x2="678" y2="130.5">
			<stop  offset="0" style="stop-color:#F2751C"/>
			<stop  offset="1" style="stop-color:#FFC400"/>
		</linearGradient>
		<rect x="583.5" y="130.5" class="st18" width="189" height="189"/>
		<g>
			<path class="st7" d="M612.5,260l27.7-67.8H656l27.6,67.8h-15l-4.9-12.7h-31l-5,12.7H612.5z M637.2,235.2h21.9l-9.5-24.3
				c-0.5-1.4-1-2.7-1.5-5.3c-0.5,2.6-1,4-1.5,5.3L637.2,235.2z"/>
			<path class="st7" d="M716.5,192.1c24.1,0,35.6,14.2,35.6,33.9c0,19.7-11.4,33.9-35.6,33.9h-25.4v-67.8H716.5z M716.5,204.9h-10.9
				v42.2h10.9c13.5,0,20.7-7.2,20.7-21.1C737.2,212.1,730,204.9,716.5,204.9z"/>
		</g>
		<g>
			<path class="st0" d="M604.5,260l27.7-67.8H648l27.6,67.8h-15l-4.9-12.7h-31l-5,12.7H604.5z M629.2,235.2h21.9l-9.5-24.3
				c-0.5-1.4-1-2.7-1.5-5.3c-0.5,2.6-1,4-1.5,5.3L629.2,235.2z"/>
			<path class="st0" d="M708.5,192.1c24.1,0,35.6,14.2,35.6,33.9c0,19.7-11.4,33.9-35.6,33.9h-25.4v-67.8H708.5z M708.5,204.9h-10.9
				v42.2h10.9c13.5,0,20.7-7.2,20.7-21.1C729.2,212.1,722,204.9,708.5,204.9z"/>
		</g>
	</g>
</g>
</svg>
