<?xml version="1.0" encoding="utf-8"?>
<!-- Generator: Adobe Illustrator 16.0.0, SVG Export Plug-In . SVG Version: 6.00 Build 0)  -->
<!DOCTYPE svg PUBLIC "-//W3C//DTD SVG 1.1//EN" "http://www.w3.org/Graphics/SVG/1.1/DTD/svg11.dtd">
<svg version="1.1" id="Слой_1" xmlns="http://www.w3.org/2000/svg" xmlns:xlink="http://www.w3.org/1999/xlink" x="0px" y="0px"
	 width="530px" height="180px" viewBox="0 0 530 180" enable-background="new 0 0 530 180" xml:space="preserve">
<g>
	<defs>
		<path id="SVGID_1_" d="M181.333,71.667c-10.842,1.626-19.067-0.825-27.016-3.276c-11.601-3.578-22.614-7.156-40.317,1.942
			C77.333,91.084,89.5,136.5,50,151h430c-14.166-4.5-16.5-16.5-30.667-26c-13.288-8.784-25.938-3.042-35.855-12
			c-12.958-13.542-7.605-39.708-32.605-45.709c-12.73-2.361-20.215,0.084-27.213,2.529c-6.952,2.43-13.424,4.86-24.075,2.575
			C294.333,61.478,295.781,22.5,257.5,22.5C208.5,22.5,199.667,68.167,181.333,71.667"/>
	</defs>
	<clipPath id="SVGID_2_">
		<use xlink:href="#SVGID_1_"  overflow="visible"/>
	</clipPath>
	
		<radialGradient id="SVGID_3_" cx="0" cy="180" r="1" gradientTransform="matrix(277.0251 0 0 -141.7301 247 25675.1738)" gradientUnits="userSpaceOnUse">
		<stop  offset="0" style="stop-color:#FF9A01"/>
		<stop  offset="0.1206" style="stop-color:#FFAC2F"/>
		<stop  offset="0.3015" style="stop-color:#FFC56D"/>
		<stop  offset="0.4749" style="stop-color:#FFDAA1"/>
		<stop  offset="0.6361" style="stop-color:#FFEACA"/>
		<stop  offset="0.7822" style="stop-color:#FFF5E7"/>
		<stop  offset="0.9083" style="stop-color:#FFFDF9"/>
		<stop  offset="1" style="stop-color:#FFFFFF"/>
	</radialGradient>
	<rect x="50" y="22.5" clip-path="url(#SVGID_2_)" fill="url(#SVGID_3_)" width="430" height="128.5"/>
</g>
<g>
	<defs>
		<rect id="SVGID_4_" width="530" height="180"/>
	</defs>
	<clipPath id="SVGID_5_">
		<use xlink:href="#SVGID_4_"  overflow="visible"/>
	</clipPath>
	<path clip-path="url(#SVGID_5_)" fill="#F2751C" d="M397.167,125.167c0,1.656-5.56,3-12.417,3s-12.416-1.344-12.416-3
		c0-1.657,5.559-3,12.416-3S397.167,123.51,397.167,125.167"/>
	<rect x="95.698" y="112.586" clip-path="url(#SVGID_5_)" fill="#96B7E1" width="64.148" height="38.613"/>
	<polygon clip-path="url(#SVGID_5_)" fill="#4263EB" points="178.322,146.217 159.846,151.199 159.846,112.586 178.322,115.077 	"/>
	<rect x="116.458" y="126.703" clip-path="url(#SVGID_5_)" fill="#D9EDF6" width="51.069" height="34.461"/>
	<polygon clip-path="url(#SVGID_5_)" fill="#96B7E1" points="167.527,126.703 184.343,129.193 184.343,156.182 167.527,161.164 	"/>
	
		<line clip-path="url(#SVGID_5_)" fill="none" stroke="#96B7E1" stroke-linecap="round" stroke-miterlimit="10" x1="124.836" y1="131.833" x2="167.75" y2="131.833"/>
	
		<line clip-path="url(#SVGID_5_)" fill="none" stroke="#96B7E1" stroke-linecap="round" stroke-miterlimit="10" x1="143.333" y1="135.52" x2="167.776" y2="135.52"/>
	
		<line clip-path="url(#SVGID_5_)" fill="none" stroke="#96B7E1" stroke-linecap="round" stroke-miterlimit="10" x1="116.458" y1="146.02" x2="148.25" y2="146.02"/>
	
		<line clip-path="url(#SVGID_5_)" fill="none" stroke="#96B7E1" stroke-linecap="round" stroke-miterlimit="10" x1="116.458" y1="150.02" x2="129.125" y2="150.02"/>
	<path clip-path="url(#SVGID_5_)" fill="#239B6A" d="M354.632,156.113l-41.828,10.582l-1.146-4.524l41.828-10.582
		c0.458-0.116,0.922,0.161,1.038,0.618l0.726,2.868C355.365,155.533,355.088,155.997,354.632,156.113"/>
	<path clip-path="url(#SVGID_5_)" fill="#4CCD9B" d="M355.035,156.011l-2.747,0.695c0.222-1.656-0.163-3.284-1.144-4.524
		l2.782-0.704c0.234-0.06,0.492,0.023,0.631,0.222c0.723,1.041,0.99,2.318,0.93,3.765
		C355.477,155.724,355.287,155.946,355.035,156.011"/>
	<path clip-path="url(#SVGID_5_)" fill="#4CCD9B" d="M311.659,162.171c1.021,1.275,1.521,2.741,1.145,4.523l-7.399-0.535
		L311.659,162.171z"/>
	<polygon clip-path="url(#SVGID_5_)" fill="#1F46E7" points="311.869,151 265.202,151 257.869,126.032 304.536,126.032 	"/>
	<polygon clip-path="url(#SVGID_5_)" fill="#4263EB" points="304.369,151 257.702,151 250.369,126.032 297.036,126.032 	"/>
	<path clip-path="url(#SVGID_5_)" fill="#1F46E7" d="M251.485,129.833h46.667l4.136,14.083
		C298.969,132.613,255.955,145.048,251.485,129.833"/>
	<path clip-path="url(#SVGID_5_)" fill="#1F46E7" d="M329.569,129.833h-104.06c-3.481,0-5.998-2.821-5.623-6.304l6.226-57.666
		c0.376-3.482,3.502-6.304,6.984-6.304h104.059c3.481,0,5.999,2.822,5.623,6.304l-6.226,57.666
		C336.177,127.012,333.05,129.833,329.569,129.833"/>
	<path clip-path="url(#SVGID_5_)" fill="#FFFFFF" d="M325.436,129.833h-104.06c-3.481,0-5.998-2.821-5.623-6.304l6.226-57.666
		c0.376-3.482,3.502-6.304,6.984-6.304h104.059c3.481,0,5.999,2.822,5.623,6.304l-6.226,57.666
		C332.043,127.012,328.916,129.833,325.436,129.833"/>
	<path clip-path="url(#SVGID_5_)" fill="#4263EB" d="M338.645,65.863c0.376-3.481-2.142-6.304-5.623-6.304h-104.06
		c-3.481,0-6.608,2.823-6.984,6.304l-0.622,5.761h116.667L338.645,65.863z"/>
	<path clip-path="url(#SVGID_5_)" fill="#4263EB" d="M215.753,123.53c-0.376,3.48,2.142,6.304,5.623,6.304h104.06
		c3.481,0,6.608-2.823,6.984-6.304l0.622-5.762H216.375L215.753,123.53z"/>
	<path clip-path="url(#SVGID_5_)" fill="#FFFFFF" d="M277.146,124.125c-0.186,1.726-1.735,3.125-3.462,3.125
		c-1.726,0-2.974-1.399-2.788-3.125c0.187-1.726,1.736-3.125,3.462-3.125C276.085,121,277.333,122.399,277.146,124.125"/>
	
		<line clip-path="url(#SVGID_5_)" fill="none" stroke="#C8CBAC" stroke-width="1.17" stroke-linecap="round" stroke-miterlimit="10" x1="226.866" y1="79.224" x2="310.529" y2="79.224"/>
	
		<line clip-path="url(#SVGID_5_)" fill="none" stroke="#C8CBAC" stroke-width="1.17" stroke-linecap="round" stroke-miterlimit="10" x1="308.323" y1="86.96" x2="331.452" y2="86.96"/>
	
		<line clip-path="url(#SVGID_5_)" fill="none" stroke="#C8CBAC" stroke-width="1.17" stroke-linecap="round" stroke-miterlimit="10" x1="261.986" y1="86.96" x2="299.379" y2="86.96"/>
	
		<line clip-path="url(#SVGID_5_)" fill="none" stroke="#C8CBAC" stroke-width="1.17" stroke-linecap="round" stroke-miterlimit="10" x1="225.709" y1="86.96" x2="245.546" y2="86.96"/>
	
		<line clip-path="url(#SVGID_5_)" fill="none" stroke="#C8CBAC" stroke-width="1.17" stroke-linecap="round" stroke-miterlimit="10" x1="309.504" y1="94.696" x2="330.295" y2="94.696"/>
	
		<line clip-path="url(#SVGID_5_)" fill="none" stroke="#C8CBAC" stroke-width="1.17" stroke-linecap="round" stroke-miterlimit="10" x1="266.383" y1="94.696" x2="301.768" y2="94.696"/>
	
		<line clip-path="url(#SVGID_5_)" fill="none" stroke="#C8CBAC" stroke-width="1.17" stroke-linecap="round" stroke-miterlimit="10" x1="224.552" y1="94.696" x2="253.577" y2="94.696"/>
	
		<line clip-path="url(#SVGID_5_)" fill="none" stroke="#C8CBAC" stroke-width="1.17" stroke-linecap="round" stroke-miterlimit="10" x1="252.903" y1="102.433" x2="293.843" y2="102.433"/>
	
		<line clip-path="url(#SVGID_5_)" fill="none" stroke="#C8CBAC" stroke-width="1.17" stroke-linecap="round" stroke-miterlimit="10" x1="223.395" y1="102.433" x2="240.493" y2="102.433"/>
	
		<line clip-path="url(#SVGID_5_)" fill="none" stroke="#C8CBAC" stroke-width="1.17" stroke-linecap="round" stroke-miterlimit="10" x1="226.866" y1="102.433" x2="310.529" y2="102.433"/>
	
		<line clip-path="url(#SVGID_5_)" fill="none" stroke="#C8CBAC" stroke-width="1.17" stroke-linecap="round" stroke-miterlimit="10" x1="222.322" y1="110.169" x2="326.654" y2="110.169"/>
</g>
<g>
	<defs>
		<path id="SVGID_6_" d="M372.334,125.167l2.999,32.166c0,1.657,4.216,3,9.417,3s9.417-1.343,9.417-3l2.999-32.166H372.334z"/>
	</defs>
	<clipPath id="SVGID_7_">
		<use xlink:href="#SVGID_6_"  overflow="visible"/>
	</clipPath>
	
		<linearGradient id="SVGID_8_" gradientUnits="userSpaceOnUse" x1="4.882813e-004" y1="180" x2="1.0005" y2="180" gradientTransform="matrix(24.8334 0 0 -24.8334 372.3281 4612.7573)">
		<stop  offset="0" style="stop-color:#FF9A01"/>
		<stop  offset="1" style="stop-color:#FFC400"/>
	</linearGradient>
	<rect x="372.334" y="125.167" clip-path="url(#SVGID_7_)" fill="url(#SVGID_8_)" width="24.832" height="35.166"/>
</g>
<g>
	<defs>
		<rect id="SVGID_9_" width="530" height="180"/>
	</defs>
	<clipPath id="SVGID_10_">
		<use xlink:href="#SVGID_9_"  overflow="visible"/>
	</clipPath>
	<path clip-path="url(#SVGID_10_)" fill="#4263EB" d="M284.208,143.582l4.395,10.158c0.382,0.886-0.09,1.907-1.011,2.191
		l-10.427,3.368L284.208,143.582z"/>
	<path clip-path="url(#SVGID_10_)" fill="#D9EDF6" d="M276.875,159.3h-52.833c-0.866,0-1.449-0.887-1.106-1.683l6.128-14.189
		c0.19-0.442,0.625-0.728,1.106-0.728h52.833c0.866,0,1.449,0.888,1.106,1.683l-6.128,14.19
		C277.79,159.014,277.355,159.3,276.875,159.3"/>
	<polygon clip-path="url(#SVGID_10_)" fill="#4263EB" points="388.69,107.229 384.031,106.954 386.776,100.063 	"/>
	<path clip-path="url(#SVGID_10_)" fill="#F2751C" d="M397.167,125.167c0-0.622-0.784-1.2-2.125-1.68l-1.079,3.686
		C395.947,126.642,397.167,125.939,397.167,125.167"/>
	<path clip-path="url(#SVGID_10_)" fill="#F2751C" d="M388.858,127.995l1.608-5.49c-0.836-0.104-1.73-0.186-2.664-0.243
		l-0.345,5.831C387.937,128.067,388.402,128.034,388.858,127.995"/>
	<path clip-path="url(#SVGID_10_)" fill="#F2751C" d="M382.781,128.125l0.35-5.93c-2.512,0.079-4.783,0.339-6.592,0.725l1.258,4.732
		C379.264,127.893,380.958,128.056,382.781,128.125"/>
	<path clip-path="url(#SVGID_10_)" fill="#4CCD9B" d="M398.44,108.85l-2.839-0.832c-0.453-0.132-0.928,0.127-1.061,0.58
		l-4.074,13.908l-1.607,5.488c1.979-0.168,3.726-0.452,5.103-0.821l1.08-3.686l3.979-13.578
		C399.152,109.457,398.893,108.982,398.44,108.85"/>
	<path clip-path="url(#SVGID_10_)" fill="#239B6A" d="M377.798,127.652l-1.259-4.731l-3.883-14.606
		c-0.121-0.456-0.589-0.728-1.044-0.605l-2.858,0.76c-0.456,0.121-0.729,0.589-0.607,1.045l4.249,15.939l0.013,0.002
		C372.771,126.369,374.813,127.164,377.798,127.652"/>
	<path clip-path="url(#SVGID_10_)" fill="#1F46E7" d="M384.031,106.954l-0.899,15.241l-0.352,5.93
		c0.644,0.025,1.299,0.041,1.97,0.041c0.931,0,1.836-0.026,2.708-0.072l0.345-5.832l0.888-15.032L384.031,106.954z"/>
	<path clip-path="url(#SVGID_10_)" fill="#4CCD9B" d="M372.657,108.314l0.621,2.336l-4.511,1.198l-0.62-2.335
		c-0.121-0.456,0.149-0.925,0.605-1.046l2.859-0.76C372.068,107.587,372.536,107.858,372.657,108.314"/>
	<path clip-path="url(#SVGID_10_)" fill="#239B6A" d="M399.02,109.909l-0.679,2.319l-4.479-1.313l0.681-2.318
		c0.132-0.453,0.606-0.712,1.059-0.58l2.839,0.832C398.893,108.982,399.152,109.456,399.02,109.909"/>
	<path clip-path="url(#SVGID_10_)" fill="#96B7E1" d="M236.201,147.758h-3.877c-0.239,0-0.401-0.231-0.307-0.44l1.12-2.491
		c0.052-0.117,0.173-0.193,0.307-0.193h3.877c0.239,0,0.4,0.232,0.306,0.441l-1.119,2.491
		C236.455,147.682,236.335,147.758,236.201,147.758"/>
	<path clip-path="url(#SVGID_10_)" fill="#96B7E1" d="M242.118,147.758h-3.877c-0.239,0-0.401-0.231-0.307-0.44l1.12-2.491
		c0.052-0.117,0.173-0.193,0.307-0.193h3.876c0.24,0,0.401,0.232,0.307,0.441l-1.119,2.491
		C242.372,147.682,242.252,147.758,242.118,147.758"/>
	<path clip-path="url(#SVGID_10_)" fill="#96B7E1" d="M248.035,147.758h-3.877c-0.239,0-0.401-0.231-0.307-0.44l1.12-2.491
		c0.052-0.117,0.173-0.193,0.307-0.193h3.877c0.239,0,0.4,0.232,0.306,0.441l-1.119,2.491
		C248.29,147.682,248.168,147.758,248.035,147.758"/>
	<path clip-path="url(#SVGID_10_)" fill="#96B7E1" d="M253.951,147.758h-3.877c-0.239,0-0.401-0.231-0.307-0.44l1.12-2.491
		c0.052-0.117,0.173-0.193,0.307-0.193h3.877c0.239,0,0.4,0.232,0.306,0.441l-1.119,2.491
		C254.205,147.682,254.085,147.758,253.951,147.758"/>
	<path clip-path="url(#SVGID_10_)" fill="#96B7E1" d="M259.868,147.758h-3.877c-0.239,0-0.401-0.231-0.307-0.44l1.12-2.491
		c0.052-0.117,0.173-0.193,0.307-0.193h3.877c0.239,0,0.4,0.232,0.306,0.441l-1.119,2.491
		C260.123,147.682,260.002,147.758,259.868,147.758"/>
	<path clip-path="url(#SVGID_10_)" fill="#96B7E1" d="M265.784,147.758h-3.877c-0.239,0-0.401-0.231-0.307-0.44l1.12-2.491
		c0.052-0.117,0.173-0.193,0.307-0.193h3.877c0.239,0,0.4,0.232,0.307,0.441l-1.119,2.491
		C266.038,147.682,265.918,147.758,265.784,147.758"/>
	<path clip-path="url(#SVGID_10_)" fill="#96B7E1" d="M271.701,147.758h-3.877c-0.239,0-0.401-0.231-0.307-0.44l1.119-2.491
		c0.053-0.117,0.174-0.193,0.308-0.193h3.877c0.239,0,0.399,0.232,0.306,0.441l-1.119,2.491
		C271.955,147.682,271.835,147.758,271.701,147.758"/>
	<path clip-path="url(#SVGID_10_)" fill="#96B7E1" d="M277.618,147.758h-3.877c-0.239,0-0.401-0.231-0.308-0.44l1.12-2.491
		c0.052-0.117,0.173-0.193,0.308-0.193h3.877c0.238,0,0.399,0.232,0.306,0.441l-1.119,2.491
		C277.873,147.682,277.752,147.758,277.618,147.758"/>
	<path clip-path="url(#SVGID_10_)" fill="#96B7E1" d="M234.066,152.367h-3.877c-0.239,0-0.401-0.232-0.307-0.441l1.12-2.491
		c0.052-0.116,0.173-0.192,0.307-0.192h3.877c0.239,0,0.4,0.231,0.306,0.44l-1.119,2.491
		C234.321,152.291,234.2,152.367,234.066,152.367"/>
	<path clip-path="url(#SVGID_10_)" fill="#96B7E1" d="M239.983,152.367h-3.877c-0.239,0-0.401-0.232-0.307-0.441l1.12-2.491
		c0.052-0.116,0.173-0.192,0.307-0.192h3.876c0.24,0,0.401,0.231,0.307,0.44l-1.119,2.491
		C240.237,152.291,240.117,152.367,239.983,152.367"/>
	<path clip-path="url(#SVGID_10_)" fill="#96B7E1" d="M245.899,152.367h-3.877c-0.239,0-0.401-0.232-0.307-0.441l1.12-2.491
		c0.052-0.116,0.173-0.192,0.307-0.192h3.877c0.239,0,0.4,0.231,0.306,0.44l-1.119,2.491
		C246.155,152.291,246.034,152.367,245.899,152.367"/>
	<path clip-path="url(#SVGID_10_)" fill="#96B7E1" d="M251.816,152.367h-3.877c-0.239,0-0.401-0.232-0.307-0.441l1.12-2.491
		c0.052-0.116,0.173-0.192,0.307-0.192h3.877c0.239,0,0.4,0.231,0.306,0.44l-1.119,2.491
		C252.071,152.291,251.95,152.367,251.816,152.367"/>
	<path clip-path="url(#SVGID_10_)" fill="#96B7E1" d="M257.733,152.367h-3.877c-0.239,0-0.401-0.232-0.307-0.441l1.12-2.491
		c0.052-0.116,0.173-0.192,0.307-0.192h3.877c0.239,0,0.4,0.231,0.306,0.44l-1.119,2.491
		C257.988,152.291,257.867,152.367,257.733,152.367"/>
	<path clip-path="url(#SVGID_10_)" fill="#96B7E1" d="M263.649,152.367h-3.877c-0.239,0-0.401-0.232-0.307-0.441l1.12-2.491
		c0.052-0.116,0.173-0.192,0.307-0.192h3.877c0.239,0,0.4,0.231,0.306,0.44l-1.119,2.491
		C263.904,152.291,263.784,152.367,263.649,152.367"/>
	<path clip-path="url(#SVGID_10_)" fill="#96B7E1" d="M269.566,152.367h-3.877c-0.239,0-0.401-0.232-0.308-0.441l1.12-2.491
		c0.052-0.116,0.173-0.192,0.308-0.192h3.877c0.238,0,0.399,0.231,0.306,0.44l-1.119,2.491
		C269.82,152.291,269.7,152.367,269.566,152.367"/>
	<path clip-path="url(#SVGID_10_)" fill="#96B7E1" d="M275.482,152.367h-3.877c-0.238,0-0.4-0.232-0.307-0.441l1.12-2.491
		c0.052-0.116,0.173-0.192,0.307-0.192h3.877c0.239,0,0.4,0.231,0.307,0.44l-1.119,2.491
		C275.738,152.291,275.617,152.367,275.482,152.367"/>
	<path clip-path="url(#SVGID_10_)" fill="#96B7E1" d="M232.156,156.867h-3.877c-0.239,0-0.401-0.232-0.307-0.441l1.12-2.491
		c0.052-0.116,0.173-0.192,0.307-0.192h3.877c0.239,0,0.4,0.231,0.306,0.44l-1.119,2.491
		C232.411,156.791,232.29,156.867,232.156,156.867"/>
	<path clip-path="url(#SVGID_10_)" fill="#96B7E1" d="M238.072,156.867h-3.877c-0.239,0-0.401-0.232-0.307-0.441l1.12-2.491
		c0.052-0.116,0.173-0.192,0.307-0.192h3.877c0.239,0,0.4,0.231,0.306,0.44l-1.119,2.491
		C238.327,156.791,238.207,156.867,238.072,156.867"/>
	<path clip-path="url(#SVGID_10_)" fill="#96B7E1" d="M243.989,156.867h-3.877c-0.239,0-0.401-0.232-0.307-0.441l1.12-2.491
		c0.052-0.116,0.173-0.192,0.307-0.192h3.876c0.24,0,0.401,0.231,0.307,0.44l-1.119,2.491
		C244.243,156.791,244.123,156.867,243.989,156.867"/>
	<path clip-path="url(#SVGID_10_)" fill="#96B7E1" d="M249.906,156.867h-3.877c-0.239,0-0.401-0.232-0.307-0.441l1.12-2.491
		c0.052-0.116,0.173-0.192,0.307-0.192h3.877c0.239,0,0.4,0.231,0.306,0.44l-1.119,2.491
		C250.161,156.791,250.04,156.867,249.906,156.867"/>
	<path clip-path="url(#SVGID_10_)" fill="#96B7E1" d="M255.822,156.867h-3.877c-0.239,0-0.401-0.232-0.307-0.441l1.12-2.491
		c0.052-0.116,0.173-0.192,0.307-0.192h3.876c0.24,0,0.401,0.231,0.307,0.44l-1.119,2.491
		C256.078,156.791,255.957,156.867,255.822,156.867"/>
	<path clip-path="url(#SVGID_10_)" fill="#96B7E1" d="M261.739,156.867h-3.877c-0.239,0-0.401-0.232-0.307-0.441l1.12-2.491
		c0.052-0.116,0.173-0.192,0.307-0.192h3.877c0.239,0,0.4,0.231,0.306,0.44l-1.119,2.491
		C261.993,156.791,261.873,156.867,261.739,156.867"/>
	<path clip-path="url(#SVGID_10_)" fill="#96B7E1" d="M267.656,156.867h-3.877c-0.239,0-0.401-0.232-0.307-0.441l1.12-2.491
		c0.052-0.116,0.173-0.192,0.307-0.192h3.877c0.238,0,0.399,0.231,0.306,0.44l-1.119,2.491
		C267.91,156.791,267.79,156.867,267.656,156.867"/>
	<path clip-path="url(#SVGID_10_)" fill="#96B7E1" d="M273.572,156.867h-3.877c-0.239,0-0.4-0.232-0.307-0.441l1.12-2.491
		c0.052-0.116,0.173-0.192,0.307-0.192h3.876c0.24,0,0.401,0.231,0.307,0.44l-1.118,2.491
		C273.826,156.791,273.706,156.867,273.572,156.867"/>
	<path clip-path="url(#SVGID_10_)" fill="#4CCD9B" d="M153.343,57.513l19.65,41.945c0.13,0.277,0.46,0.396,0.737,0.267
		l29.365-13.755c0.277-0.13,0.397-0.461,0.267-0.738l-16.084-34.334l-11.925-4.309L153.61,56.775
		C153.333,56.905,153.213,57.236,153.343,57.513"/>
	<path clip-path="url(#SVGID_10_)" fill="#239B6A" d="M187.283,50.896l-11.925-4.309l3.566,7.612
		c0.13,0.278,0.461,0.397,0.738,0.267L187.283,50.896z"/>
	<path clip-path="url(#SVGID_10_)" fill="#96B7E1" d="M372.958,31.712l-17.943,42.703c-0.119,0.282,0.014,0.608,0.296,0.726
		l29.895,12.562c0.282,0.119,0.608-0.014,0.727-0.296l14.688-34.954l-4.799-11.736l-22.136-9.302
		C373.402,31.297,373.077,31.43,372.958,31.712"/>
	<path clip-path="url(#SVGID_10_)" fill="#1F46E7" d="M400.624,52.455l-4.799-11.736l-3.256,7.749
		c-0.119,0.283,0.014,0.608,0.296,0.727L400.624,52.455z"/>
</g>
</svg>
