<svg xmlns="http://www.w3.org/2000/svg" xmlns:xlink="http://www.w3.org/1999/xlink" viewBox="0 0 927.5 315"><defs><style>.a{clip-path:url(#a);}.b{fill:url(#b);}.c{clip-path:url(#c);}.d,.e,.m,.n{fill:none;stroke-miterlimit:10;}.d{stroke:#f2751c;stroke-dasharray:1.923 5;}.d,.e,.n{stroke-linecap:round;}.e{stroke:#239b6a;}.f{fill:url(#f);}.g{fill:#239b6a;}.h{fill:#4263eb;}.i{fill:#96b7e1;}.j{fill:#1f46e7;}.k{fill:#fff;}.l{fill:#ffc400;}.m,.n{stroke:#1f46e7;stroke-width:0.75px;}.o{fill:#4ccd9b;}.p{clip-path:url(#t);}.q{fill:url(#u);}.r{fill:#f2751c;}.s{fill:#96b7e2;}</style><clipPath id="a"><path d="M279.833,108.542c-18.974,2.846-33.367-1.444-47.278-5.733-20.3-6.261-39.574-12.523-70.555,3.4C97.833,142.522,119.125,222,50,247.375H802.5c-24.79-7.875-28.875-28.875-53.667-45.5-23.254-15.372-45.391-5.323-62.746-21-22.676-23.7-13.309-69.489-57.059-79.991-22.278-4.132-35.376.147-47.623,4.426-12.166,4.253-23.492,8.505-42.131,4.506C477.583,90.712,480.117,22.5,413.125,22.5c-85.75,0-101.208,79.917-133.292,86.042" transform="translate(-50 -22.5)"/></clipPath><radialGradient id="b" cx="0.5" cy="1.214" r="1.602" gradientTransform="translate(0.351 0.257) scale(0.299 0.788)" gradientUnits="objectBoundingBox"><stop offset="0" stop-color="#96b7e1"/><stop offset="1" stop-color="#fff"/></radialGradient><clipPath id="c"><rect width="927.5" height="315"/></clipPath><linearGradient id="f" x1="-0.142" y1="0.315" x2="0.845" y2="0.315" gradientUnits="objectBoundingBox"><stop offset="0" stop-color="#f2751c"/><stop offset="1" stop-color="#ffc400"/></linearGradient><clipPath id="t"><path d="M418.847,163.327V148.141a9.238,9.238,0,1,1,0,15.187M368.97,131.514v46.96c0,4.51,11.165,8.165,24.939,8.165s24.938-3.656,24.938-8.165V167.641a13.016,13.016,0,1,0,0-23.812V131.514Z" transform="translate(-368.97 -131.514)"/></clipPath><linearGradient id="u" x1="-9.476" y1="1.539" x2="-9.45" y2="1.539" gradientUnits="objectBoundingBox"><stop offset="0" stop-color="#ff9a01"/><stop offset="1" stop-color="#ffc400"/></linearGradient></defs><g transform="translate(0)"><g transform="translate(87.5 39.375)"><g class="a"><rect class="b" width="752.5" height="224.875"/></g></g><g class="c"><path class="d" d="M677.063,159.114H637.329a3.252,3.252,0,0,1-2.933-1.846l-6.76-14.1a3.252,3.252,0,0,0-2.933-1.846H611.415a3.25,3.25,0,0,1-3-2l-4.8-11.491a3.251,3.251,0,0,0-6.032.081l-4.445,11.478a3.252,3.252,0,0,1-3.033,2.077H577.761a3.252,3.252,0,0,1-3.085-2.224L557.2,86.817a3.25,3.25,0,0,0-3.085-2.222h-29.4a3.249,3.249,0,0,0-3.192,2.625l-4.219,21.5a3.252,3.252,0,0,1-3.19,2.627H502.882a3.252,3.252,0,0,0-3.2,2.669L495.4,137.628a3.252,3.252,0,0,1-3.2,2.672h-12.85a3.252,3.252,0,0,1-3.15-2.44l-9.725-37.651a3.252,3.252,0,0,0-6.295-.009l-7.941,30.4a3.252,3.252,0,0,1-6.176.36l-4.608-11.811a3.252,3.252,0,0,0-6.064.012l-7.341,19.054a3.252,3.252,0,0,1-3.034,2.083H386.276a3.252,3.252,0,0,1-3.181-2.576L371.9,85.007a3.252,3.252,0,0,0-6.3-.231L352.275,130.64a3.252,3.252,0,0,1-6.291-.177l-4.578-19.835a3.252,3.252,0,0,0-6.275-.229l-15.764,50.965a3.254,3.254,0,0,1-3.106,2.291H297.127a3.251,3.251,0,0,1-3.252-3.25V138.025a3.252,3.252,0,0,0-3.251-3.251H259a3.252,3.252,0,0,0-3.252,3.251v22.381a3.251,3.251,0,0,1-3.252,3.25H221.856a3.251,3.251,0,0,1-2.889-1.76l-9.748-18.87a3.252,3.252,0,0,0-5.842.128l-12.089,26.173a3.254,3.254,0,0,1-2.952,1.888H128.472a3.246,3.246,0,0,0-2.3.952l-8.158,8.157a3.248,3.248,0,0,1-2.3.954H86" transform="translate(64.5 61.823)"/></g><g class="c"><path class="e" d="M88.5,161.125h51.6a6.184,6.184,0,0,0,5.32-3.033l18.3-30.915a6.182,6.182,0,0,1,10.621-.031l13.862,23.1a6.184,6.184,0,0,0,5.3,3h16.942a6.181,6.181,0,0,0,5.672-3.724L231.377,114.3a6.182,6.182,0,0,1,11.4.142l11.282,27.937a6.179,6.179,0,0,0,5.731,3.867h35.843a6.184,6.184,0,0,0,5.682-3.745l40.57-94.593a6.181,6.181,0,0,1,10.966-.772l17.927,29.528a6.183,6.183,0,0,0,10.72-.263L386,68.113a6.181,6.181,0,0,1,5.436-3.237h21.226a6.18,6.18,0,0,1,5.619,3.607L424.6,82.269a6.18,6.18,0,0,0,5.619,3.607h38.75a6.18,6.18,0,0,1,5.9,4.324l17.4,55.226a6.184,6.184,0,0,0,5.9,4.324h38.348a6.185,6.185,0,0,0,5.428-3.222l9.408-17.244a6.182,6.182,0,0,1,10.67-.317l7.931,12.693a6.183,6.183,0,0,0,10.376.168l21.707-32.337a6.18,6.18,0,0,1,9.956-.418l10.4,12.985a6.185,6.185,0,0,0,4.827,2.317H680" transform="translate(66.375 33.125)"/></g><g class="c"><path class="f" d="M756.128,124.765a24.62,24.62,0,0,0,1.729-3.137,21.088,21.088,0,0,0,1.024-2.817l5.314.128.7-5.763-5.186-1.024a20.567,20.567,0,0,0-1.217-6.211l4.8-3.33-2.753-4.994-5.314,2.561a19,19,0,0,0-4.482-3.97l2.113-5.891-5.186-2.305L744.6,93.647a19.135,19.135,0,0,0-6.019-.448l-1.665-5.7-5.571,1.281.7,6.019a20.6,20.6,0,0,0-4.8,2.945l-4.61-3.65-3.906,4.29,4.034,4.482a15.487,15.487,0,0,0-1.345,2.5c-.384.9-.7,1.793-1.024,2.689l-6.6-.128-.7,5.763,6.467,1.281a19.5,19.5,0,0,0,1.024,5.443L715.469,124l2.753,4.994,5.506-2.625a20.083,20.083,0,0,0,4.29,4.1l-1.985,5.571,5.186,2.305,2.817-5.058a18.571,18.571,0,0,0,5.891.7l1.665,5.891,5.571-1.281-.7-5.955a19.519,19.519,0,0,0,4.93-2.753l4.738,3.714,3.906-4.29Zm-20.233-.512a11.7,11.7,0,1,1,13.638-5.186A11.89,11.89,0,0,1,735.895,124.253Z" transform="translate(-205.455 84)"/><path class="g" d="M818.8,143.5a17.588,17.588,0,0,0,7.8-6.2l5.6,1.6,2.6-7-5.1-2.8a18.2,18.2,0,0,0-1.6-9.8l4.3-4.6-4.7-5.7-5.2,3.7a14.714,14.714,0,0,0-3.9-2.1,20.472,20.472,0,0,0-4.9-1.1l-1.6-6.1-7.3,1.1.4,6.5a18.033,18.033,0,0,0-7.2,6l-6.1-1.6-2.6,7,5.7,2.9a17.822,17.822,0,0,0,1.5,9.4l-4.4,4.7,4.7,5.7,5.3-3.6a17.836,17.836,0,0,0,4.1,2.2,19.521,19.521,0,0,0,4,1l1.6,6.1,7.3-1.1Zm-3-7.8a9.112,9.112,0,1,1,5.4-11.7A9.074,9.074,0,0,1,815.8,135.7Z" transform="translate(-475.455 68)"/><path class="h" d="M221.928,213.607h170.4L377.358,90.687c-.5-4.13-3.74-6.8-8.251-6.8H207.731c-12.075,0-12.9,4.387-12,12.362l12.877,105.705a13.143,13.143,0,0,0,13.319,11.648" transform="translate(146.602 62.919)"/></g><g class="c"><path class="i" d="M225.537,203.271H376.244L363,94.56c-.445-3.651-3.308-6.009-7.3-6.009H212.983c-10.68,0-11.408,3.88-10.612,10.934l11.389,93.487a11.618,11.618,0,0,0,11.777,10.3" transform="translate(151.603 66.412)"/></g><g class="c"><path class="j" d="M202.474,147.219l.882,7.247a13.144,13.144,0,0,0,13.318,11.646H441.888a18.893,18.893,0,0,0,18.891-18.893Z" transform="translate(151.855 110.414)"/></g><g class="c"><path class="k" d="M293.557,111.762H272.35a1.558,1.558,0,0,1-1.575-1.344l-1.1-7.574a1.918,1.918,0,0,1,1.878-2.132h21.208a1.556,1.556,0,0,1,1.573,1.344l1.1,7.574a1.921,1.921,0,0,1-1.879,2.132" transform="translate(202.241 75.534)"/></g><g class="c"><path class="g" d="M295.046,122h-21.2a1.555,1.555,0,0,1-1.575-1.344l-1.1-7.572a1.918,1.918,0,0,1,1.878-2.133h21.207a1.556,1.556,0,0,1,1.573,1.344l1.1,7.574a1.92,1.92,0,0,1-1.88,2.132" transform="translate(203.359 83.211)"/></g><g class="c"><path class="l" d="M296.538,132.233H275.331a1.555,1.555,0,0,1-1.573-1.342l-1.1-7.574a1.919,1.919,0,0,1,1.878-2.133H295.74a1.556,1.556,0,0,1,1.573,1.344l1.1,7.574a1.92,1.92,0,0,1-1.879,2.132" transform="translate(204.477 90.887)"/></g><g class="c"><path class="m" d="M306.963,158.491H224.151a1.557,1.557,0,0,1-1.573-1.344l-8.272-56.791a1.92,1.92,0,0,1,1.88-2.132H299a1.557,1.557,0,0,1,1.573,1.342l8.272,56.791A1.921,1.921,0,0,1,306.963,158.491Z" transform="translate(160.716 73.669)"/></g><g class="c"><line class="n" x2="42.186" transform="translate(382.1 179.261)"/></g><g class="c"><line class="n" x2="16.322" transform="translate(431.819 179.261)"/></g><g class="c"><line class="n" x2="55.792" transform="translate(383.157 185.286)"/></g><g class="c"><line class="n" x2="13.563" transform="translate(443.466 185.286)"/></g><g class="c"><path class="g" d="M141.762,192.7l-21.1-12.5a1.4,1.4,0,0,1-.4-1.556l16.186-55.2Z" transform="translate(90.125 92.578)"/></g><g class="c"><path class="o" d="M192,191.224l-57.2,1.82-5.362-68.885a1.1,1.1,0,0,1,1.094-1.181h49.509a1.4,1.4,0,0,1,1.358,1.045l12.084,65.2a1.593,1.593,0,0,1-1.484,2" transform="translate(97.08 92.233)"/></g><g class="c"><path class="h" d="M378.964,133.993h89.1c-12.761-4.449-15.495-15.824-23.917-18.958-8.823-2.991-17.574,3.353-24.5,1.75-7.593-2.005-9.562-10.537-18.421-8.459-5.906,2.188-6.186,8.9-9.287,15.75-1.9,4.358-6.508,7.541-12.98,9.917" transform="translate(284.223 81.002)"/></g><g transform="translate(645.698 230.15)"><g class="p"><rect class="q" width="68.142" height="55.125"/></g></g><g class="c"><path class="r" d="M418.846,134.231c0,2.973-11.165,5.383-24.938,5.383s-24.938-2.41-24.938-5.383,11.165-5.383,24.938-5.383,24.938,2.41,24.938,5.383" transform="translate(276.728 96.636)"/></g><g class="c"><path class="g" d="M136.952,86.5a6.125,6.125,0,1,0,6.125,6.125,6.125,6.125,0,0,0-6.125-6.125m0,9.286a3.161,3.161,0,1,1,3.159-3.161,3.16,3.16,0,0,1-3.159,3.161" transform="translate(98.12 64.875)"/></g><g class="c"><path class="g" d="M239.091,40.667a6.125,6.125,0,1,0,6.125,6.125,6.125,6.125,0,0,0-6.125-6.125m0,9.284a3.16,3.16,0,1,1,3.159-3.159,3.158,3.158,0,0,1-3.159,3.159" transform="translate(174.724 30.5)"/></g><g class="c"><path class="g" d="M387.758,76.667a6.125,6.125,0,1,0,6.125,6.125,6.125,6.125,0,0,0-6.125-6.125m0,9.284a3.16,3.16,0,1,1,3.159-3.159,3.158,3.158,0,0,1-3.159,3.159" transform="translate(286.225 57.5)"/></g><g class="c"><path class="r" d="M183.783,125.348a6.125,6.125,0,1,0,6.125,6.125,6.125,6.125,0,0,0-6.125-6.125m0,9.284a3.161,3.161,0,1,1,3.159-3.161,3.16,3.16,0,0,1-3.159,3.161" transform="translate(133.243 94.011)"/></g><g class="c"><path class="r" d="M339.41,80.539a6.125,6.125,0,1,0,6.125,6.125,6.125,6.125,0,0,0-6.125-6.125m0,9.284a3.16,3.16,0,1,1,3.159-3.159,3.158,3.158,0,0,1-3.159,3.159" transform="translate(249.964 60.404)"/></g><g class="c"><path class="r" d="M368.615,112a6.125,6.125,0,1,0,6.125,6.125A6.124,6.124,0,0,0,368.615,112m0,9.284a3.16,3.16,0,1,1,3.159-3.159,3.16,3.16,0,0,1-3.159,3.159" transform="translate(271.867 84)"/></g><path class="s" d="M797.4,95.5a14.759,14.759,0,0,0,4.1-6.5l4.4-.3L806,83l-4.4-.7a13.539,13.539,0,0,0-3.7-6.6l1.9-4.4-4.9-2.9-2.8,4a12.7,12.7,0,0,0-3.4-.5,15.827,15.827,0,0,0-3.8.5l-2.8-4-5,2.7,2,4.6a13.4,13.4,0,0,0-3.6,6.2l-4.8.4-.1,5.7,4.8.6a14.39,14.39,0,0,0,3.5,6.4l-2,4.6,4.9,2.9,2.9-4a13.448,13.448,0,0,0,3.5.5,15.526,15.526,0,0,0,3.1-.3l2.8,4,5-2.7Zm-5-4.6a7.023,7.023,0,1,1,.8-9.9A6.9,6.9,0,0,1,792.4,90.9Z" transform="translate(-221.455 139)"/></g></svg>