<?xml version="1.0" encoding="UTF-8" standalone="no"?><!DOCTYPE svg PUBLIC "-//W3C//DTD SVG 1.1//EN" "http://www.w3.org/Graphics/SVG/1.1/DTD/svg11.dtd"><svg width="100%" height="100%" viewBox="0 0 385 401" version="1.1" xmlns="http://www.w3.org/2000/svg" xmlns:xlink="http://www.w3.org/1999/xlink" xml:space="preserve" xmlns:serif="http://www.serif.com/" style="fill-rule:evenodd;clip-rule:evenodd;stroke-linejoin:round;stroke-miterlimit:1.41421;"><g id="Слой-1" serif:id="Слой 1"><path d="M15.1,214.462c-8.251,-14.345 -57.207,-119.526 81.258,-160.021c85.311,-24.949 45.548,66.198 94.531,91.089c48.982,24.892 120.207,52.176 107.8,113.722c-12.407,61.547 -153.967,180.558 -283.589,-44.79" style="fill:#d9edf6;fill-rule:nonzero;"/><path d="M151.338,39.386c0,0 13.045,5.019 16.279,30.829c3.234,25.809 2.721,46.6 24.552,61.656c21.83,15.056 79.64,27.1 97.832,59.792c18.192,32.693 -33.197,-160.163 -138.663,-152.277" style="fill:#d9edf6;fill-rule:nonzero;"/><path d="M175.432,222.85c0,0 2.939,60.868 9.607,63.234c6.668,2.366 44.092,-12.474 62.158,-7.743c18.068,4.732 -5.162,20.648 -4.302,21.078c0.861,0.43 -49.124,20.484 -70.115,19.358c-44.092,-2.366 -22.799,-45.167 -22.799,-45.167l25.451,-50.76Z" style="fill:#4ccd9b;fill-rule:nonzero;"/><path d="M170.772,221.345l-23.802,98.937l16.92,-0.143l10.61,-97.217" style="fill:#239b6a;fill-rule:nonzero;"/><path d="M367.134,278.507l0,-88.828c-0.009,-2.827 -1.116,-5.48 -3.119,-7.472l-24.413,-24.413c-1.731,-1.717 -2.685,-3.999 -2.692,-6.432l0,-26.751c0,-0.402 -0.325,-0.727 -0.726,-0.727c-0.402,0 -0.727,0.325 -0.727,0.727l0,26.753c0.008,2.823 1.116,5.472 3.119,7.459l24.413,24.412c1.73,1.721 2.684,4.01 2.693,6.447l0,88.825c0,0.401 0.324,0.726 0.725,0.726c0.403,0 0.727,-0.325 0.727,-0.726" style="fill:#96b7e1;fill-rule:nonzero;"/><path d="M336.955,71.351l0,-37.284c0,-0.401 -0.325,-0.726 -0.727,-0.726c-0.401,0 -0.726,0.325 -0.726,0.726l0,37.284c0,0.401 0.325,0.726 0.726,0.726c0.402,0 0.727,-0.325 0.727,-0.726" style="fill:#96b7e1;fill-rule:nonzero;"/><path d="M313.417,106.943c1.246,3.01 3.046,5.705 5.352,8.009c2.305,2.305 5.001,4.107 8.01,5.353c3.011,1.247 6.192,1.88 9.45,1.88c3.257,0 6.436,-0.633 9.447,-1.88c3.012,-1.246 5.708,-3.048 8.012,-5.353c2.302,-2.304 4.104,-4.998 5.352,-8.009c2.495,-6.027 2.492,-12.877 0,-18.898c-1.248,-3.011 -3.05,-5.706 -5.352,-8.012c-2.305,-2.303 -5,-4.105 -8.012,-5.351c-3.011,-1.247 -6.19,-1.88 -9.447,-1.88c-3.258,0 -6.439,0.633 -9.45,1.88c-3.009,1.246 -5.705,3.047 -8.01,5.351c-2.306,2.306 -4.106,5.001 -5.352,8.012c-1.247,3.008 -1.88,6.186 -1.88,9.449c0,3.261 0.633,6.439 1.88,9.449m48.307,1.112c-1.395,3.364 -3.408,6.377 -5.983,8.951c-2.574,2.576 -5.587,4.589 -8.953,5.983c-3.365,1.394 -6.919,2.1 -10.559,2.1c-3.643,0 -7.196,-0.706 -10.562,-2.1c-3.364,-1.393 -6.375,-3.405 -8.952,-5.983c-2.576,-2.576 -4.589,-5.587 -5.982,-8.951c-2.789,-6.73 -2.787,-14.398 0,-21.123c1.393,-3.363 3.404,-6.375 5.982,-8.952c2.577,-2.578 5.59,-4.589 8.952,-5.982c3.366,-1.394 6.919,-2.1 10.562,-2.1c3.64,0 7.194,0.706 10.559,2.1c3.366,1.393 6.377,3.406 8.953,5.982c2.575,2.577 4.588,5.588 5.983,8.952c1.394,3.366 2.1,6.919 2.1,10.562c0,3.64 -0.706,7.194 -2.1,10.561" style="fill:#96b7e1;fill-rule:nonzero;"/><path d="M324.93,108.792c3.105,3.104 6.906,4.679 11.298,4.679c4.39,0 8.191,-1.575 11.297,-4.679c3.105,-3.106 4.679,-6.908 4.679,-11.297c0,-4.392 -1.574,-8.193 -4.679,-11.298c-3.106,-3.105 -6.907,-4.679 -11.297,-4.679c-4.392,0 -8.193,1.574 -11.298,4.679c-3.104,3.103 -4.679,6.905 -4.679,11.298c0,4.391 1.575,8.192 4.679,11.297m23.622,1.027c-3.389,3.387 -7.536,5.104 -12.324,5.104c-4.791,0 -8.938,-1.717 -12.324,-5.104c-3.388,-3.387 -5.105,-7.533 -5.105,-12.324c0,-4.793 1.717,-8.939 5.105,-12.325c3.386,-3.387 7.533,-5.105 12.324,-5.105c4.788,0 8.935,1.718 12.324,5.105c3.387,3.387 5.105,7.533 5.105,12.325c0,4.788 -1.718,8.935 -5.105,12.324" style="fill:#96b7e1;fill-rule:nonzero;"/><path d="M336.227,37.277c3.39,0 5.084,-1.695 5.084,-5.083c0,-3.39 -1.694,-5.084 -5.084,-5.084c-3.389,0 -5.083,1.694 -5.083,5.084c0,3.388 1.694,5.083 5.083,5.083" style="fill:#96b7e1;fill-rule:nonzero;"/><path d="M359.205,211.872l0,-18.577c-0.002,-3.557 -1.445,-7.036 -3.96,-9.547l-22.746,-22.745c-2.276,-2.277 -3.531,-5.302 -3.532,-8.522l0,-18.677c0,-0.401 -0.325,-0.726 -0.727,-0.726c-0.401,0 -0.726,0.325 -0.726,0.726l0,18.677c0.002,3.609 1.407,6.999 3.959,9.549l22.745,22.745c2.245,2.241 3.533,5.347 3.534,8.52l0,18.577c0,0.401 0.325,0.727 0.726,0.727c0.402,0 0.727,-0.326 0.727,-0.727" style="fill:#96b7e1;fill-rule:nonzero;"/><path d="M338.684,291.81l0,-111.049c0,-2.743 -1.065,-5.325 -3,-7.267l-6.754,-6.754c-0.284,-0.284 -0.743,-0.284 -1.027,0c-0.283,0.284 -0.283,0.743 0,1.027l6.753,6.753c1.661,1.668 2.576,3.883 2.576,6.241l0,111.049c0,0.401 0.324,0.727 0.725,0.727c0.402,0 0.727,-0.326 0.727,-0.727" style="fill:#96b7e1;fill-rule:nonzero;"/><path d="M346.659,297.562l0,-99.431c0,-0.401 -0.325,-0.726 -0.727,-0.726c-0.401,0 -0.726,0.325 -0.726,0.726l0,99.431c0,0.401 0.325,0.727 0.726,0.727c0.402,0 0.727,-0.326 0.727,-0.727" style="fill:#96b7e1;fill-rule:nonzero;"/><path d="M308.775,301.562l0,-168.306c0,-0.402 0.325,-0.726 0.727,-0.726c0.401,0 0.725,0.324 0.725,0.726l0,168.306c0,0.401 -0.324,0.727 -0.725,0.727c-0.402,0 -0.727,-0.326 -0.727,-0.727" style="fill:#96b7e1;fill-rule:nonzero;"/><path d="M309.502,135.202c-3.389,0 -5.083,-1.694 -5.083,-5.083c0,-3.389 1.694,-5.084 5.083,-5.084c3.39,0 5.084,1.695 5.084,5.084c0,3.389 -1.694,5.083 -5.084,5.083" style="fill:#96b7e1;fill-rule:nonzero;"/><path d="M320.192,243.567l0,-48.293c0,-0.401 0.324,-0.727 0.726,-0.727c0.401,0 0.726,0.326 0.726,0.727l0,48.293c0,0.401 -0.325,0.726 -0.726,0.726c-0.402,0 -0.726,-0.325 -0.726,-0.726" style="fill:#96b7e1;fill-rule:nonzero;"/><path d="M281.964,150.249c0,-0.401 0.325,-0.726 0.727,-0.726c0.401,0 0.725,0.325 0.725,0.726l0,40.754c0.013,1.449 0.588,2.816 1.619,3.844l12.795,12.797c0.878,0.88 1.361,2.049 1.361,3.291l0,76.307c0,0.402 -0.326,0.726 -0.727,0.726c-0.401,0 -0.727,-0.324 -0.727,-0.726l0,-76.296l0,-0.009c0,-0.858 -0.331,-1.661 -0.935,-2.268l-12.794,-12.795c-1.302,-1.299 -2.028,-3.027 -2.044,-4.865l0,-40.76Z" style="fill:#96b7e1;fill-rule:nonzero;"/><path d="M273.351,150.249c0,-0.401 0.325,-0.726 0.727,-0.726c0.401,0 0.725,0.325 0.725,0.726l0,42.121c0.013,1.447 0.588,2.815 1.617,3.843l22.558,22.703c0.284,0.286 0.281,0.746 -0.003,1.026c-0.285,0.285 -0.744,0.282 -1.026,-0.003l-22.557,-22.7c-1.299,-1.297 -2.025,-3.024 -2.041,-4.864l0,-42.126Z" style="fill:#96b7e1;fill-rule:nonzero;"/><path d="M282.763,153.343c-1.937,0 -2.905,-0.968 -2.905,-2.905c0,-1.936 0.968,-2.905 2.905,-2.905c1.937,0 2.904,0.969 2.904,2.905c0,1.937 -0.967,2.905 -2.904,2.905" style="fill:#96b7e1;fill-rule:nonzero;"/><path d="M274.078,151.527c-1.937,0 -2.905,-0.969 -2.905,-2.905c0,-1.937 0.968,-2.905 2.905,-2.905c1.937,0 2.904,0.968 2.904,2.905c0,1.936 -0.967,2.905 -2.904,2.905" style="fill:#96b7e1;fill-rule:nonzero;"/><path d="M221.152,126.31l0,-23.966c0,-0.402 -0.325,-0.726 -0.727,-0.726c-0.401,0 -0.726,0.324 -0.726,0.726l0,23.965c-0.001,0.519 -0.204,1.007 -0.571,1.373l-5.331,5.316c-0.284,0.284 -0.282,0.745 0,1.028c0.283,0.284 0.743,0.284 1.028,0.002l5.33,-5.317c0.641,-0.641 0.995,-1.493 0.997,-2.401" style="fill:#96b7e1;fill-rule:nonzero;"/><path d="M214.819,133.57l0,-45.649c1.829,-0.406 3.131,-2.027 3.131,-3.9c0,-1.874 -1.302,-3.495 -3.131,-3.9l-1.612,0c-1.829,0.405 -3.131,2.026 -3.131,3.9c0,1.873 1.302,3.494 3.131,3.9l0,64.647l-12.651,22.207l26.9,0l-12.637,-22.193l0,-16.703m6.405,-30.98c1.224,-0.396 1.978,-1.624 1.777,-2.895c-0.202,-1.27 -1.296,-2.206 -2.582,-2.206c-1.287,0 -2.382,0.936 -2.583,2.206c-0.201,1.271 0.552,2.499 1.776,2.895m-16.252,68.192l10.646,-18.621l10.661,18.693l-21.307,-0.072Z" style="fill:#96b7e1;fill-rule:nonzero;"/><path d="M256.359,124.47l0,-0.041l0,-73.865c0,-0.402 -0.325,-0.726 -0.727,-0.726c-0.401,0 -0.726,0.324 -0.726,0.726l0,73.87c0.042,0.968 -0.389,1.947 -1.089,2.633l-8.937,8.939c-0.966,0.964 -1.521,2.301 -1.521,3.669l0,70.452c0,0.402 0.325,0.726 0.727,0.726c0.401,0 0.726,-0.324 0.726,-0.726l0,-70.442l0,-0.008c0,-0.986 0.399,-1.95 1.095,-2.644l8.931,-8.934c0.966,-0.945 1.521,-2.269 1.521,-3.629" style="fill:#96b7e1;fill-rule:nonzero;"/><path d="M268.283,128.063l0,-0.048l0,-55.141c0,-0.402 -0.324,-0.727 -0.726,-0.727c-0.401,0 -0.726,0.325 -0.726,0.727l0,55.182c0,0.976 -0.396,1.919 -1.09,2.598l-9.024,9.025c-0.975,0.985 -1.513,2.284 -1.52,3.663l0,68.687c0,0.402 0.325,0.727 0.727,0.727c0.401,0 0.725,-0.325 0.725,-0.727l0,-68.685c0.005,-0.992 0.395,-1.931 1.097,-2.64l9.016,-9.017c0.966,-0.946 1.521,-2.267 1.521,-3.624" style="fill:#96b7e1;fill-rule:nonzero;"/><path d="M255.632,53.092c3.389,0 5.083,-1.695 5.083,-5.083c0,-3.39 -1.694,-5.084 -5.083,-5.084c-3.389,0 -5.084,1.694 -5.084,5.084c0,3.388 1.695,5.083 5.084,5.083" style="fill:#96b7e1;fill-rule:nonzero;"/><path d="M30.175,80.36c0,6.573 0.977,13.251 3.024,19.852c0.12,0.387 0.532,0.604 0.919,0.483c0.386,-0.119 0.611,-0.522 0.484,-0.919c-9.938,-32.034 5.859,-66.058 36.733,-79.147c0.375,-0.156 0.548,-0.591 0.389,-0.962c-0.158,-0.373 -0.59,-0.549 -0.963,-0.39c-25.209,10.69 -40.586,35.033 -40.586,61.083" style="fill:#96b7e1;fill-rule:nonzero;"/><path d="M133.843,45.851c0,0.188 0.072,0.375 0.215,0.519c0.287,0.287 0.752,0.287 1.039,0l33.843,-33.843c0.287,-0.287 0.287,-0.752 0,-1.039c-0.287,-0.286 -0.752,-0.286 -1.038,0l-33.844,33.843c-0.143,0.144 -0.215,0.332 -0.215,0.52" style="fill:#96b7e1;fill-rule:nonzero;"/><path d="M34.767,143.283l0,72.04c0,0.406 0.328,0.734 0.734,0.734c0.406,0 0.735,-0.328 0.735,-0.734l0,-72.04c0.003,-3.134 1.225,-6.081 3.442,-8.294l19.463,-19.435c0.287,-0.286 0.287,-0.751 0,-1.038c-0.285,-0.287 -0.751,-0.287 -1.039,0l-19.462,19.434c-2.495,2.49 -3.871,5.804 -3.873,9.333" style="fill:#96b7e1;fill-rule:nonzero;"/><path d="M26.423,146.751l0,72.712c0,0.406 0.329,0.734 0.735,0.734c0.406,0 0.734,-0.328 0.734,-0.734l0,-72.712c0.002,-2.972 1.16,-5.767 3.266,-7.868l22.738,-22.737c0.287,-0.288 0.287,-0.752 0,-1.039c-0.287,-0.287 -0.752,-0.287 -1.038,0l-22.738,22.737c-2.383,2.377 -3.696,5.54 -3.697,8.907" style="fill:#96b7e1;fill-rule:nonzero;"/><path d="M133.843,115.035l0,108.316c0,0.406 0.329,0.735 0.734,0.735c0.407,0 0.735,-0.329 0.735,-0.735l0,-108.316c0,-0.406 -0.328,-0.734 -0.735,-0.734c-0.405,0 -0.734,0.328 -0.734,0.734" style="fill:#96b7e1;fill-rule:nonzero;"/><path d="M33.9,97.012c-1.958,0 -2.938,0.979 -2.938,2.938c0,1.958 0.98,2.937 2.938,2.937c1.958,0 2.938,-0.979 2.938,-2.937c0,-1.959 -0.98,-2.938 -2.938,-2.938" style="fill:#96b7e1;fill-rule:nonzero;"/><path d="M71.048,17.016c-1.958,0 -2.938,0.979 -2.938,2.938c0,1.958 0.98,2.937 2.938,2.937c1.958,0 2.938,-0.979 2.938,-2.937c0,-1.959 -0.98,-2.938 -2.938,-2.938" style="fill:#96b7e1;fill-rule:nonzero;"/><path d="M168.421,6.866c-3.427,0 -5.141,1.714 -5.141,5.141c0,3.428 1.714,5.141 5.141,5.141c3.428,0 5.141,-1.713 5.141,-5.141c0,-3.427 -1.713,-5.141 -5.141,-5.141" style="fill:#96b7e1;fill-rule:nonzero;"/><rect x="272.864" y="256.044" width="109.953" height="82.002" style="fill:#96b7e1;"/><path d="M383.169,298.955l-73.303,0c-0.474,0 -0.86,-0.385 -0.86,-0.86c0,-0.476 0.386,-0.861 0.86,-0.861l73.303,0c0.475,0 0.86,0.385 0.86,0.861c0,0.475 -0.385,0.86 -0.86,0.86" style="fill:#fff;fill-rule:nonzero;"/><path d="M382.817,306.817l-41.218,0c-0.475,0 -0.86,-0.385 -0.86,-0.86c0,-0.476 0.385,-0.861 0.86,-0.861l41.218,0c0.476,0 0.86,0.385 0.86,0.861c0,0.475 -0.384,0.86 -0.86,0.86" style="fill:#fff;fill-rule:nonzero;"/><path d="M374.035,322.67l-65.223,0c-0.474,0 -0.86,-0.385 -0.86,-0.86c0,-0.475 0.386,-0.86 0.86,-0.86l65.223,0c0.476,0 0.86,0.385 0.86,0.86c0,0.475 -0.384,0.86 -0.86,0.86" style="fill:#fff;fill-rule:nonzero;"/><path d="M338.204,266.675l-65.223,0c-0.475,0 -0.86,-0.385 -0.86,-0.86c0,-0.476 0.385,-0.861 0.86,-0.861l65.223,0c0.475,0 0.86,0.385 0.86,0.861c0,0.475 -0.385,0.86 -0.86,0.86" style="fill:#fff;fill-rule:nonzero;"/><path d="M81.011,221.345l-41.184,82.167c-8.084,16.129 3.642,35.123 21.684,35.123l104.959,0l5.967,-20.756c0.349,-1.213 -0.356,-2.474 -1.573,-2.805c-9.292,-2.52 -46.037,-11.582 -72.646,-5.116c-30.686,7.456 -17.207,-88.613 -17.207,-88.613" style="fill:#4ccd9b;fill-rule:nonzero;"/><path d="M237.686,300.981c4.34,0.917 10.783,-3.893 14.519,-7.114c1.922,-1.708 4.386,-2.683 6.958,-2.752c1.835,0 4.921,-0.269 7.382,-0.492c2.454,-0.276 4.643,-1.671 5.929,-3.781l1.253,-1.968c0.409,-0.601 0.501,-1.362 0.248,-2.042c-0.254,-0.68 -0.822,-1.196 -1.523,-1.381l-23.066,-3.535c-4.741,-0.295 -9.45,0.953 -13.423,3.557c-0.672,0.447 -1.342,0.895 -1.991,1.364c-3.181,2.306 -4.749,6.237 -4.032,10.099c0.717,3.862 3.592,6.967 7.388,7.978l0.358,0.067Z" style="fill:#fff;fill-rule:nonzero;"/><path d="M155.879,201.357l-38.524,-0.157c-19.002,-0.062 -35.687,12.617 -40.717,30.941l-18.926,105.993l87.787,-1.203l29.374,-110.875c1.561,-5.898 0.298,-12.186 -3.421,-17.022c-3.719,-4.836 -9.472,-7.672 -15.573,-7.677" style="fill:#4ccd9b;fill-rule:nonzero;"/><path d="M159.224,336.483c3.96,1.991 11.432,-0.984 15.862,-3.132c2.303,-1.16 4.944,-1.461 7.45,-0.85c1.79,0.447 4.832,0.984 7.248,1.41c2.442,0.378 4.922,-0.4 6.712,-2.104l1.723,-1.566c0.563,-0.474 0.857,-1.195 0.785,-1.928c-0.072,-0.733 -0.499,-1.385 -1.144,-1.741l-21.275,-9.329c-4.483,-1.477 -9.321,-1.477 -13.804,0l-2.237,0.783c-3.662,1.416 -6.187,4.808 -6.492,8.722c-0.306,3.915 1.662,7.657 5.06,9.624l0.112,0.111Z" style="fill:#fff;fill-rule:nonzero;"/><path d="M154.705,337.759l54.767,0l0,-9.934l-64.879,0c0.049,5.537 4.577,9.984 10.112,9.934" style="fill:#1f46e7;fill-rule:nonzero;"/><path d="M282.65,337.691l-90.382,0l13.647,-65.146c0.434,-2.214 2.448,-3.758 4.698,-3.603l85.461,0c6.421,0 6.711,2.237 5.794,6.555l-11.745,56.042c-0.744,3.548 -3.849,6.103 -7.473,6.152" style="fill:#4263eb;fill-rule:nonzero;"/><path d="M282.65,337.691c3.666,0.004 6.832,-2.564 7.584,-6.152l9.396,-44.878c-30.135,36.108 -86.11,8.523 -103.112,51.03l86.132,0Z" style="fill:#3054e9;fill-rule:nonzero;"/><rect x="2.099" y="338.031" width="360.812" height="13.766" style="fill:#d9edf6;"/><rect x="133.567" y="362.25" width="228.82" height="13.766" style="fill:#d9edf6;"/><rect x="133.778" y="386.468" width="249.391" height="13.766" style="fill:#d9edf6;"/><path d="M177.479,155.005c0.154,17.175 -1.7,28.438 -7.902,40.223c-1.743,3.272 -5.271,5.188 -8.964,4.869l-0.097,0c-1.967,-0.174 -3.865,0.775 -4.907,2.453l-2.864,8.3c-0.051,0.754 1.18,4.156 0.836,4.829c-7.631,14.78 -26.99,3.409 -31.337,-8.492c-0.625,-1.788 -0.591,-3.741 0.097,-5.506l9.35,-15.456l11.843,-41.44l33.945,10.22Z" style="fill:#fff;fill-rule:nonzero;"/><path d="M138.026,164.248c-1.664,0.035 -3.067,0.875 -4.21,2.522c-1.143,1.646 -1.69,3.616 -1.643,5.91c0.049,2.294 0.678,4.239 1.889,5.836c1.211,1.597 2.648,2.378 4.312,2.343c1.664,-0.035 3.068,-0.875 4.21,-2.522c1.143,-1.646 1.691,-3.616 1.642,-5.909c-0.048,-2.294 -0.677,-4.24 -1.888,-5.837c-1.21,-1.596 -2.648,-2.378 -4.312,-2.343" style="fill:#fff;fill-rule:nonzero;"/><path d="M174.657,147.181l-22.662,-10.78c-11.959,-2.686 -21.483,4.424 -24.014,16.344c-2.59,11.919 -2.352,24.279 0.696,36.089c0.162,0.618 0.636,1.106 1.25,1.285c0.614,0.178 1.276,0.02 1.744,-0.416l3.632,-9.853c-2.074,-1.789 -3.243,-4.409 -3.188,-7.148c-0.096,-4.598 2.512,-8.365 5.796,-8.442c1.969,0.113 3.745,1.219 4.714,2.936c0.483,0.715 0.928,0.985 1.024,-0.212l0.464,-2.975c0.53,-3.429 2.518,-6.461 5.452,-8.313c2.934,-1.852 6.526,-2.344 9.849,-1.348l18.064,3.227c9.969,-2.859 9.737,-7.708 -2.821,-10.394" style="fill:#4263eb;fill-rule:nonzero;"/><path d="M141.603,153.305c6.066,4.54 6.684,-0.444 11.379,0c9.988,1.796 13.06,6.568 24.845,9.292c2.872,0.608 5.859,-0.243 7.98,-2.271c2.122,-2.029 3.105,-4.975 2.626,-7.871c-0.313,-2.204 -1.666,-4.124 -3.637,-5.161c-1.97,-1.036 -4.318,-1.065 -6.312,-0.075c-3.119,-6.156 -8.872,-10.558 -15.63,-11.958c-10.985,-1.685 -22.034,2.625 -28.979,11.301l7.728,6.743Z" style="fill:#4263eb;fill-rule:nonzero;"/><path d="M160.011,200.166c0,0 -8.448,1.803 -19.086,-11.03c0,0 5.287,38.433 11.959,27.798c3.204,-5.108 1.049,-7.432 3.606,-15.302c0.294,-0.907 3.521,-1.466 3.521,-1.466" style="fill:#eaeacd;fill-rule:nonzero;"/><path d="M99.651,263.5l-17.636,36.707c0,0 34.412,1.577 70.331,10.611c0,0 -34.628,-13.12 -48.823,-17.422c-7.002,-2.122 -3.872,-29.896 -3.872,-29.896" style="fill:#239b6a;fill-rule:nonzero;"/><path d="M257.051,306.335c-3.113,-0.469 -5.257,-3.372 -4.787,-6.485c0.156,-1.041 0.591,-1.97 1.209,-2.733c-0.135,-0.028 -0.267,-0.061 -0.404,-0.082c-4.376,-0.659 -8.457,2.354 -9.117,6.729c-0.659,4.375 2.354,8.457 6.73,9.116c4.375,0.659 8.456,-2.354 9.115,-6.73c0.004,-0.026 0.004,-0.053 0.008,-0.08c-0.855,0.304 -1.794,0.41 -2.754,0.265" style="fill:#fff;fill-rule:nonzero;"/><path d="M26.964,239.297c0.965,1.493 1.012,1.564 1.012,1.564c0.127,0.196 0.081,0.556 -0.094,0.715l-1.626,1.484c-0.169,0.153 -0.542,0.166 -0.722,0.026l-1.464,-1.15c-1.119,-0.88 -2.414,-1.083 -3.467,-0.56c-0.865,0.43 -1.475,1.295 -1.72,2.436l-0.389,1.818c-0.05,0.23 -0.338,0.453 -0.572,0.441l-2.2,-0.1c-0.219,-0.008 -0.503,-0.27 -0.53,-0.49l-0.223,-1.847c-0.152,-1.283 -0.795,-2.278 -1.764,-2.733c-0.969,-0.454 -2.145,-0.312 -3.227,0.389l-1.563,1.012c-0.186,0.121 -0.567,0.07 -0.716,-0.094l-1.485,-1.628c-0.158,-0.172 -0.171,-0.536 -0.026,-0.721l1.151,-1.462c0.721,-0.917 0.996,-1.942 0.772,-2.881c-0.272,-1.145 -1.251,-2.01 -2.647,-2.311l-1.821,-0.387c-0.219,-0.047 -0.451,-0.343 -0.44,-0.571l0.103,-2.2c0.01,-0.234 0.259,-0.502 0.491,-0.529l1.848,-0.221c1.281,-0.154 2.276,-0.798 2.731,-1.767c0.454,-0.969 0.313,-2.145 -0.388,-3.23l-1.013,-1.56c-0.127,-0.195 -0.08,-0.557 0.093,-0.715l1.627,-1.486c0.168,-0.153 0.539,-0.169 0.722,-0.025l1.464,1.15c1.12,0.88 2.414,1.081 3.467,0.559c0.866,-0.431 1.476,-1.295 1.72,-2.435l0.391,-1.82c0.049,-0.23 0.337,-0.451 0.571,-0.442l2.2,0.101c0.22,0.011 0.502,0.272 0.529,0.491l0.222,1.85c0.153,1.28 0.797,2.274 1.765,2.728c0.968,0.455 2.144,0.314 3.227,-0.386c1.48,-0.957 1.564,-1.012 1.564,-1.013c0.186,-0.12 0.566,-0.069 0.716,0.093l1.484,1.628c0.158,0.172 0.171,0.537 0.026,0.72l-1.15,1.464c-0.721,0.916 -0.996,1.939 -0.773,2.879c0.271,1.145 1.254,2.011 2.647,2.31l1.821,0.39c0.22,0.048 0.45,0.344 0.44,0.572l-0.101,2.2c-0.012,0.233 -0.259,0.501 -0.491,0.528l-1.848,0.22c-1.28,0.155 -2.275,0.799 -2.729,1.767c-0.456,0.968 -0.315,2.145 0.385,3.229m2.621,-2.666l1.847,-0.22c1.372,-0.162 2.495,-1.371 2.56,-2.75l0.101,-2.201c0.053,-1.139 -0.648,-2.28 -1.703,-2.775c-0.191,-0.089 -0.389,-0.156 -0.591,-0.2l-1.82,-0.389c-0.162,-0.035 -0.307,-0.083 -0.431,-0.142c-0.167,-0.078 -0.376,-0.214 -0.424,-0.414c-0.053,-0.223 0.071,-0.554 0.333,-0.887l1.151,-1.464c0.853,-1.085 0.793,-2.734 -0.138,-3.754l-1.485,-1.627c-0.245,-0.269 -0.541,-0.486 -0.88,-0.646c-0.928,-0.434 -2.018,-0.372 -2.847,0.165l-1.562,1.01c-0.382,0.248 -0.74,0.335 -0.956,0.233c-0.215,-0.101 -0.377,-0.431 -0.431,-0.882l-0.222,-1.849c-0.117,-0.979 -0.766,-1.858 -1.693,-2.293c-0.339,-0.159 -0.696,-0.248 -1.058,-0.265l-2.201,-0.1c-1.379,-0.064 -2.685,0.944 -2.974,2.294l-0.391,1.82c-0.089,0.415 -0.264,0.723 -0.469,0.824c-0.185,0.092 -0.422,0.017 -0.589,-0.06c-0.124,-0.059 -0.253,-0.14 -0.383,-0.242l-1.463,-1.151c-0.162,-0.126 -0.34,-0.236 -0.53,-0.325c-1.056,-0.495 -2.382,-0.305 -3.225,0.464l-1.626,1.485c-1.02,0.93 -1.231,2.566 -0.482,3.723c0,0 0.012,0.019 1.013,1.563c0.248,0.382 0.334,0.741 0.233,0.957c-0.102,0.217 -0.432,0.378 -0.884,0.433l-1.848,0.221c-1.37,0.163 -2.494,1.372 -2.558,2.752l-0.101,2.2c-0.053,1.137 0.648,2.279 1.704,2.774c0.19,0.089 0.389,0.155 0.583,0.197c0,0 0.023,0.006 1.827,0.391c0.162,0.035 0.306,0.082 0.431,0.141c0.167,0.078 0.376,0.214 0.424,0.415c0.053,0.222 -0.072,0.554 -0.333,0.886l-1.149,1.463c-0.854,1.086 -0.794,2.736 0.138,3.755l1.484,1.628c0.245,0.269 0.541,0.486 0.881,0.645c0.928,0.435 2.016,0.374 2.843,-0.16l1.564,-1.014c0.382,-0.248 0.739,-0.335 0.954,-0.234c0.216,0.101 0.377,0.432 0.43,0.886l0.223,1.849c0.118,0.978 0.767,1.855 1.694,2.29c0.34,0.159 0.696,0.25 1.059,0.265l2.201,0.1c1.377,0.064 2.684,-0.943 2.974,-2.292l0.391,-1.822c0.088,-0.413 0.263,-0.722 0.468,-0.823c0.185,-0.093 0.422,-0.019 0.589,0.059c0.124,0.059 0.253,0.141 0.383,0.242l1.462,1.151c0.163,0.128 0.342,0.239 0.531,0.328c1.056,0.495 2.382,0.304 3.223,-0.465l1.627,-1.484c1.021,-0.932 1.231,-2.567 0.479,-3.727l-1.009,-1.56c-0.248,-0.384 -0.335,-0.743 -0.234,-0.958c0.103,-0.218 0.434,-0.379 0.885,-0.434" style="fill:#96b7e1;fill-rule:nonzero;"/><path d="M15.668,235.649c-2.124,-0.996 -3.041,-3.534 -2.044,-5.658c0.482,-1.029 1.336,-1.809 2.405,-2.196c1.068,-0.384 2.223,-0.332 3.253,0.152c1.03,0.482 1.809,1.336 2.196,2.405c0.386,1.069 0.333,2.225 -0.149,3.253c-0.998,2.123 -3.537,3.041 -5.661,2.044m4.61,-9.828c-1.596,-0.749 -3.39,-0.831 -5.048,-0.232c-1.659,0.6 -2.983,1.809 -3.732,3.406c-1.546,3.296 -0.122,7.235 3.173,8.78c3.295,1.546 7.235,0.121 8.783,-3.173c0.748,-1.595 0.831,-3.388 0.23,-5.046c-0.599,-1.66 -1.809,-2.986 -3.406,-3.735" style="fill:#96b7e1;fill-rule:nonzero;"/><path d="M49.004,248c-0.873,-0.244 -1.701,-0.085 -2.27,0.435c-0.57,0.522 -0.804,1.332 -0.638,2.223c0.165,0.899 0.2,1.086 0.213,1.112l-1.262,0.469l-0.562,-1.001c-0.286,-0.509 -0.679,-0.891 -1.136,-1.106c-0.991,-0.465 -2.09,-0.102 -2.8,0.925l-0.629,0.942l-1.226,-0.575l0.307,-1.094c0.338,-1.199 -0.086,-2.277 -1.079,-2.743c-0.457,-0.215 -1.002,-0.271 -1.573,-0.166c-0.911,0.167 -1.092,0.2 -1.115,0.213l-0.471,-1.261l1,-0.561c0.79,-0.444 1.264,-1.14 1.301,-1.914c0.036,-0.769 -0.371,-1.507 -1.118,-2.024l-0.942,-0.627l0.563,-1.232l1.106,0.311c0.872,0.246 1.7,0.087 2.27,-0.434c0.572,-0.522 0.804,-1.331 0.638,-2.22l-0.217,-1.112l1.267,-0.475l0.562,1.002c0.285,0.511 0.679,0.892 1.136,1.105c0.993,0.466 2.09,0.104 2.798,-0.922l0.631,-0.942l1.23,0.561l-0.312,1.107c-0.335,1.201 0.09,2.277 1.083,2.743c0.457,0.215 1.002,0.271 1.572,0.165l1.112,-0.218l0.473,1.269l-0.998,0.561c-0.79,0.441 -1.265,1.137 -1.302,1.91c-0.037,0.772 0.371,1.51 1.119,2.027l0.941,0.628l-0.561,1.231l-1.111,-0.312Zm2.874,-2.637l-0.947,-0.651c-0.137,-0.095 -0.186,-0.168 -0.203,-0.176c0.018,-0.026 0.072,-0.094 0.221,-0.177l1.001,-0.563c0.868,-0.488 1.282,-1.604 0.944,-2.539l-0.466,-1.29c-0.329,-0.911 -1.402,-1.522 -2.347,-1.347l-1.134,0.207c-0.167,0.031 -0.265,0.012 -0.263,0.033c0.001,-0.001 -0.032,-0.087 0.026,-0.294l0.31,-1.105c0.269,-0.958 -0.225,-2.042 -1.126,-2.464l-1.24,-0.582c-0.902,-0.423 -2.051,-0.111 -2.613,0.705l-0.655,0.95c-0.094,0.138 -0.168,0.186 -0.174,0.202c-0.035,-0.022 -0.104,-0.089 -0.177,-0.219l-0.563,-1.004c-0.473,-0.846 -1.628,-1.272 -2.539,-0.944l-1.288,0.466c-0.937,0.338 -1.529,1.37 -1.352,2.341c0,0 0.005,0.027 0.208,1.143c0.031,0.165 0.013,0.251 0.02,0.266c-0.03,0.007 -0.118,0.017 -0.28,-0.029l-1.107,-0.312c-0.958,-0.267 -2.04,0.228 -2.463,1.127l-0.582,1.242c-0.425,0.902 -0.113,2.051 0.701,2.609c0,0 0.022,0.016 0.952,0.657c0.137,0.094 0.187,0.166 0.204,0.175l0.001,0c-0.018,0.027 -0.073,0.097 -0.222,0.181l-1,0.562c-0.867,0.488 -1.283,1.603 -0.945,2.537l0.468,1.29c0.328,0.911 1.4,1.523 2.35,1.345l1.129,-0.206c0.167,-0.03 0.267,-0.013 0.263,-0.033c0.001,0 0.033,0.085 -0.026,0.291l-0.311,1.109c-0.27,0.958 0.225,2.04 1.126,2.463l1.242,0.582c0.901,0.422 2.049,0.11 2.616,-0.712l0.649,-0.943c0.096,-0.139 0.169,-0.187 0.176,-0.203c0.035,0.022 0.105,0.09 0.179,0.22l0.562,1.001c0.475,0.847 1.629,1.275 2.54,0.946l1.288,-0.466c0.937,-0.338 1.53,-1.371 1.348,-2.353l-0.208,-1.125c-0.031,-0.167 -0.013,-0.254 -0.021,-0.27c0.032,-0.006 0.121,-0.016 0.28,0.029l1.108,0.311c0.96,0.269 2.044,-0.226 2.466,-1.127l0.582,-1.24c0.423,-0.902 0.111,-2.05 -0.708,-2.616" style="fill:#96b7e1;fill-rule:nonzero;"/><path d="M43.53,246.076c-1.023,0.368 -2.237,-0.201 -2.605,-1.221c-0.185,-0.51 -0.158,-1.063 0.073,-1.554c0.23,-0.492 0.639,-0.866 1.15,-1.05c0.51,-0.185 1.062,-0.159 1.553,0.072c0.492,0.231 0.864,0.639 1.049,1.149c0.186,0.509 0.158,1.062 -0.071,1.553c-0.231,0.493 -0.64,0.866 -1.149,1.051m1.069,-5.666c-1.004,-0.471 -2.13,-0.523 -3.169,-0.146c-1.042,0.375 -1.875,1.134 -2.346,2.137c-0.471,1.004 -0.522,2.131 -0.145,3.173c0.376,1.04 1.136,1.873 2.138,2.343c1.002,0.47 2.128,0.522 3.171,0.146c1.04,-0.377 1.873,-1.136 2.344,-2.14c0.471,-1.005 0.522,-2.13 0.145,-3.17c-0.376,-1.041 -1.136,-1.873 -2.138,-2.343" style="fill:#96b7e1;fill-rule:nonzero;"/><path d="M38.981,224.461c-1.542,0.282 -1.678,0.308 -1.679,0.308c-0.034,0.004 -0.219,-0.089 -0.235,-0.134l-0.711,-1.966c-0.024,-0.068 0.034,-0.222 0.097,-0.257l1.486,-0.837c1.02,-0.574 1.63,-1.468 1.673,-2.448c0.043,-0.979 -0.485,-1.921 -1.447,-2.58l-1.4,-0.967c-0.06,-0.043 -0.103,-0.203 -0.073,-0.268l0.889,-1.894c0.03,-0.065 0.179,-0.133 0.248,-0.114l1.641,0.461c1.125,0.316 2.187,0.119 2.911,-0.54c0.725,-0.66 1.02,-1.699 0.811,-2.855c-0.282,-1.512 -0.308,-1.663 -0.31,-1.668c-0.013,-0.073 0.069,-0.219 0.139,-0.243l1.966,-0.711c0.02,-0.007 0.088,-0.011 0.167,0.026c0.056,0.027 0.084,0.057 0.091,0.071l0.834,1.484c0.373,0.663 0.878,1.157 1.465,1.433c1.257,0.59 2.657,0.116 3.562,-1.201l0.97,-1.403c0.042,-0.058 0.2,-0.1 0.264,-0.07l1.893,0.887c0.065,0.03 0.132,0.179 0.115,0.248l-0.458,1.638c-0.436,1.544 0.095,2.924 1.353,3.514c0.584,0.274 1.289,0.347 2.04,0.211c1.492,-0.278 1.659,-0.309 1.673,-0.312c0.033,-0.004 0.222,0.091 0.238,0.139l0.71,1.965c0.025,0.068 -0.033,0.222 -0.097,0.257l-1.486,0.835c-1.021,0.574 -1.632,1.466 -1.676,2.446c-0.044,0.981 0.484,1.923 1.448,2.586l1.404,0.969c0.058,0.04 0.101,0.196 0.07,0.261l-0.889,1.895c-0.03,0.065 -0.18,0.134 -0.251,0.114l-1.638,-0.46c-1.124,-0.317 -2.187,-0.121 -2.912,0.538c-0.726,0.661 -1.022,1.7 -0.812,2.856l0.309,1.675c0.013,0.07 -0.069,0.213 -0.137,0.238l-1.965,0.711c-0.046,0.016 -0.239,-0.066 -0.256,-0.095l-0.834,-1.488c-0.373,-0.661 -0.879,-1.156 -1.464,-1.431c-1.258,-0.59 -2.659,-0.119 -3.565,1.198l-0.972,1.407c-0.041,0.058 -0.197,0.101 -0.261,0.071l-1.893,-0.889c-0.065,-0.03 -0.134,-0.178 -0.115,-0.248l0.46,-1.64c0.432,-1.543 -0.099,-2.921 -1.355,-3.51c-0.584,-0.275 -1.287,-0.348 -2.036,-0.213m1.132,3.09l-0.459,1.639c-0.33,1.171 0.276,2.492 1.377,3.008l1.893,0.889c1.102,0.517 2.504,0.136 3.192,-0.866l0.969,-1.405c0.087,-0.124 0.387,-0.523 0.637,-0.406c0.064,0.03 0.233,0.136 0.413,0.457l0.834,1.487c0.579,1.031 1.993,1.553 3.102,1.154l1.965,-0.711c1.144,-0.413 1.867,-1.675 1.649,-2.867c0,0 -0.02,-0.112 -0.31,-1.677c-0.067,-0.369 -0.007,-0.614 0.082,-0.695c0.082,-0.076 0.313,-0.124 0.697,-0.016l1.64,0.46c1.171,0.329 2.491,-0.276 3.008,-1.377l0.89,-1.893c0.518,-1.102 0.138,-2.505 -0.864,-3.194l-1.404,-0.968c-0.327,-0.226 -0.439,-0.437 -0.433,-0.547c0.006,-0.12 0.157,-0.323 0.481,-0.506l1.487,-0.835c1.06,-0.595 1.567,-1.958 1.154,-3.102l-0.71,-1.965c-0.402,-1.108 -1.712,-1.861 -2.865,-1.65c0,0 -0.113,0.02 -1.681,0.312c-0.364,0.067 -0.553,0.003 -0.617,-0.027c-0.248,-0.116 -0.133,-0.602 -0.091,-0.753l0.458,-1.641c0.327,-1.171 -0.279,-2.491 -1.379,-3.007l-1.894,-0.888c-1.101,-0.515 -2.503,-0.136 -3.192,0.866l-0.97,1.401c-0.086,0.126 -0.385,0.524 -0.633,0.408c-0.064,-0.029 -0.234,-0.135 -0.414,-0.458l-0.835,-1.484c-0.579,-1.032 -1.993,-1.554 -3.101,-1.153l-1.967,0.711c-1.142,0.413 -1.866,1.672 -1.651,2.866c0,0 0.02,0.112 0.311,1.677c0.067,0.367 0.007,0.614 -0.081,0.694c-0.083,0.076 -0.314,0.123 -0.696,0.018l-1.641,-0.461c-1.17,-0.329 -2.492,0.275 -3.008,1.376l-0.888,1.893c-0.515,1.099 -0.138,2.501 0.863,3.196l1.404,0.97c0.327,0.224 0.437,0.432 0.431,0.543c-0.005,0.111 -0.134,0.31 -0.479,0.506l-1.486,0.835c-1.059,0.596 -1.566,1.959 -1.153,3.103l0.71,1.966c0.401,1.109 1.706,1.86 2.874,1.643c0.011,-0.002 0.173,-0.033 1.669,-0.305c0.365,-0.067 0.554,-0.003 0.618,0.027c0.25,0.117 0.135,0.605 0.094,0.752" style="fill:#96b7e1;fill-rule:nonzero;"/><path d="M47.033,216.488c0.81,-0.293 1.687,-0.254 2.469,0.113c1.61,0.756 2.304,2.681 1.55,4.29c-0.758,1.613 -2.683,2.308 -4.292,1.553c-0.781,-0.366 -1.371,-1.014 -1.664,-1.825c-0.293,-0.811 -0.252,-1.688 0.114,-2.468c0.365,-0.779 1.013,-1.37 1.823,-1.663m-1.271,8.083c2.782,1.305 6.108,0.102 7.415,-2.681c1.305,-2.782 0.104,-6.108 -2.681,-7.415c-1.348,-0.632 -2.861,-0.701 -4.26,-0.194c-1.4,0.507 -2.518,1.529 -3.15,2.875c-0.633,1.347 -0.703,2.86 -0.197,4.261c0.503,1.401 1.523,2.52 2.873,3.154" style="fill:#96b7e1;fill-rule:nonzero;"/><path d="M13.459,359.427c-1.871,0 -3.388,1.517 -3.388,3.387l0,21.827l-7.654,7.334c-0.759,0.726 -0.244,2.008 0.806,2.008l16.885,0l-0.024,-0.036l34.67,0c1.871,0 3.388,-1.516 3.388,-3.387l0,-27.746c0,-1.87 -1.517,-3.387 -3.388,-3.387l-41.295,0Z" style="fill:url(#_Linear1);fill-rule:nonzero;"/><path d="M71.072,359.771c-0.003,0 -0.007,0 -0.01,0c-0.757,0 -1.485,0.3 -2.021,0.836c-0.539,0.537 -0.842,1.267 -0.842,2.029l0,28.468c0,1.587 1.287,2.873 2.873,2.873l37.175,0l5.928,5.92c0.298,0.267 0.724,0.337 1.093,0.18c0.368,-0.156 0.613,-0.512 0.627,-0.912l0,-36.529c0,-1.573 -1.267,-2.851 -2.838,-2.865l-41.985,0Z" style="fill:url(#_Linear2);fill-rule:nonzero;"/><path d="M109.734,369.208l-2.779,0c-0.214,0 -0.387,-0.174 -0.387,-0.387c0,-0.214 0.173,-0.387 0.387,-0.387l2.779,0c0.214,0 0.388,0.173 0.388,0.387c0,0.213 -0.174,0.387 -0.388,0.387" style="fill:#fff;fill-rule:nonzero;"/><path d="M102.973,369.208l-27.651,0c-0.214,0 -0.388,-0.174 -0.388,-0.387c0,-0.214 0.174,-0.387 0.388,-0.387l27.651,0c0.214,0 0.387,0.173 0.387,0.387c0,0.213 -0.173,0.387 -0.387,0.387" style="fill:#fff;fill-rule:nonzero;"/><path d="M109.735,373.261l-7.184,0c-0.213,0 -0.387,-0.174 -0.387,-0.388c0,-0.213 0.174,-0.386 0.387,-0.386l7.184,0c0.214,0 0.387,0.173 0.387,0.386c0,0.214 -0.173,0.388 -0.387,0.388" style="fill:#fff;fill-rule:nonzero;"/><path d="M99.049,373.261l-23.728,0c-0.213,0 -0.387,-0.174 -0.387,-0.388c0,-0.213 0.174,-0.386 0.387,-0.386l23.728,0c0.214,0 0.387,0.173 0.387,0.386c0,0.214 -0.173,0.388 -0.387,0.388" style="fill:#fff;fill-rule:nonzero;"/><path d="M109.734,377.305l-20.277,0c-0.214,0 -0.388,-0.175 -0.388,-0.388c0,-0.214 0.174,-0.387 0.388,-0.387l20.277,0c0.214,0 0.388,0.173 0.388,0.387c0,0.213 -0.174,0.388 -0.388,0.388" style="fill:#fff;fill-rule:nonzero;"/><path d="M79.004,377.305l-3.682,0c-0.214,0 -0.387,-0.175 -0.387,-0.388c0,-0.214 0.173,-0.387 0.387,-0.387l3.682,0c0.214,0 0.388,0.173 0.388,0.387c0,0.213 -0.174,0.388 -0.388,0.388" style="fill:#fff;fill-rule:nonzero;"/><path d="M109.734,381.356l-5.506,0c-0.214,0 -0.387,-0.174 -0.387,-0.388c0,-0.213 0.173,-0.386 0.387,-0.386l5.506,0c0.214,0 0.388,0.173 0.388,0.386c0,0.214 -0.174,0.388 -0.388,0.388" style="fill:#fff;fill-rule:nonzero;"/><path d="M99.609,381.356l-24.287,0c-0.213,0 -0.387,-0.174 -0.387,-0.388c0,-0.213 0.174,-0.386 0.387,-0.386l24.287,0c0.214,0 0.387,0.173 0.387,0.386c0,0.214 -0.173,0.388 -0.387,0.388" style="fill:#fff;fill-rule:nonzero;"/><path d="M105.011,385.408l-29.689,0c-0.214,0 -0.388,-0.174 -0.388,-0.387c0,-0.214 0.174,-0.387 0.388,-0.387l29.689,0c0.214,0 0.387,0.173 0.387,0.387c0,0.213 -0.173,0.387 -0.387,0.387" style="fill:#fff;fill-rule:nonzero;"/><path d="M51.292,367.65l-3.828,0c-0.214,0 -0.387,-0.174 -0.387,-0.387c0,-0.214 0.173,-0.387 0.387,-0.387l3.828,0c0.214,0 0.388,0.173 0.388,0.387c0,0.213 -0.174,0.387 -0.388,0.387" style="fill:#fff;fill-rule:nonzero;"/><path d="M45.528,367.65l-3.519,0c-0.213,0 -0.387,-0.174 -0.387,-0.387c0,-0.214 0.174,-0.387 0.387,-0.387l3.519,0c0.214,0 0.387,0.173 0.387,0.387c0,0.213 -0.173,0.387 -0.387,0.387" style="fill:#fff;fill-rule:nonzero;"/><path d="M40.039,367.65l-23.16,0c-0.214,0 -0.387,-0.174 -0.387,-0.387c0,-0.214 0.173,-0.387 0.387,-0.387l23.16,0c0.214,0 0.387,0.173 0.387,0.387c0,0.213 -0.173,0.387 -0.387,0.387" style="fill:#fff;fill-rule:nonzero;"/><path d="M51.292,372.039l-34.413,0c-0.213,0 -0.387,-0.174 -0.387,-0.388c0,-0.213 0.174,-0.386 0.387,-0.386l34.413,0c0.214,0 0.388,0.173 0.388,0.386c0,0.214 -0.174,0.388 -0.388,0.388" style="fill:#fff;fill-rule:nonzero;"/><path d="M44.109,376.427l-27.229,0c-0.214,0 -0.387,-0.175 -0.387,-0.388c0,-0.214 0.173,-0.387 0.387,-0.387l27.229,0c0.214,0 0.387,0.173 0.387,0.387c0,0.213 -0.173,0.388 -0.387,0.388" style="fill:#fff;fill-rule:nonzero;"/><path d="M51.292,380.814l-7.528,0c-0.213,0 -0.387,-0.174 -0.387,-0.388c0,-0.213 0.174,-0.386 0.387,-0.386l7.528,0c0.214,0 0.388,0.173 0.388,0.386c0,0.214 -0.174,0.388 -0.388,0.388" style="fill:#fff;fill-rule:nonzero;"/><path d="M40.857,380.814l-12.173,0c-0.214,0 -0.388,-0.174 -0.388,-0.388c0,-0.213 0.174,-0.386 0.388,-0.386l12.173,0c0.214,0 0.387,0.173 0.387,0.386c0,0.214 -0.173,0.388 -0.387,0.388" style="fill:#fff;fill-rule:nonzero;"/><path d="M23.34,380.814l-6.461,0c-0.214,0 -0.387,-0.174 -0.387,-0.388c0,-0.213 0.173,-0.386 0.387,-0.386l6.461,0c0.213,0 0.387,0.173 0.387,0.386c0,0.214 -0.174,0.388 -0.387,0.388" style="fill:#fff;fill-rule:nonzero;"/><path d="M51.292,385.193l-6.762,0c-0.214,0 -0.387,-0.174 -0.387,-0.388c0,-0.213 0.173,-0.386 0.387,-0.386l6.762,0c0.214,0 0.388,0.173 0.388,0.386c0,0.214 -0.174,0.388 -0.388,0.388" style="fill:#fff;fill-rule:nonzero;"/><path d="M42.009,385.193l-11.511,0c-0.214,0 -0.387,-0.174 -0.387,-0.388c0,-0.213 0.173,-0.386 0.387,-0.386l11.511,0c0.214,0 0.387,0.173 0.387,0.386c0,0.214 -0.173,0.388 -0.387,0.388" style="fill:#fff;fill-rule:nonzero;"/><path d="M26.326,385.193l-9.446,0c-0.214,0 -0.387,-0.174 -0.387,-0.388c0,-0.213 0.173,-0.386 0.387,-0.386l9.446,0c0.214,0 0.387,0.173 0.387,0.386c0,0.214 -0.173,0.388 -0.387,0.388" style="fill:#fff;fill-rule:nonzero;"/><path d="M217.264,207.396c-1.482,0 -2.684,1.202 -2.684,2.685l0,26.681c0,1.482 1.202,2.684 2.684,2.684l34.839,0l5.546,5.546c0.278,0.249 0.676,0.316 1.02,0.172c0.345,-0.146 0.575,-0.476 0.592,-0.85l0,-34.233c0,-1.483 -1.202,-2.685 -2.684,-2.685l-39.313,0Z" style="fill:url(#_Linear3);fill-rule:nonzero;"/><path d="M253.497,216.264l-2.612,0c-0.213,0 -0.387,-0.174 -0.387,-0.388c0,-0.214 0.174,-0.387 0.387,-0.387l2.612,0c0.214,0 0.387,0.173 0.387,0.387c0,0.214 -0.173,0.388 -0.387,0.388" style="fill:#fff;fill-rule:nonzero;"/><path d="M247.153,216.264l-25.899,0c-0.214,0 -0.387,-0.174 -0.387,-0.388c0,-0.214 0.173,-0.387 0.387,-0.387l25.899,0c0.214,0 0.388,0.173 0.388,0.387c0,0.214 -0.174,0.388 -0.388,0.388" style="fill:#fff;fill-rule:nonzero;"/><path d="M253.497,220.06l-6.739,0c-0.214,0 -0.387,-0.174 -0.387,-0.387c0,-0.214 0.173,-0.387 0.387,-0.387l6.739,0c0.214,0 0.387,0.173 0.387,0.387c0,0.213 -0.173,0.387 -0.387,0.387" style="fill:#fff;fill-rule:nonzero;"/><path d="M243.477,220.06l-22.224,0c-0.213,0 -0.386,-0.174 -0.386,-0.387c0,-0.214 0.173,-0.387 0.386,-0.387l22.224,0c0.214,0 0.388,0.173 0.388,0.387c0,0.213 -0.174,0.387 -0.388,0.387" style="fill:#fff;fill-rule:nonzero;"/><path d="M253.497,223.856l-19,0c-0.213,0 -0.387,-0.174 -0.387,-0.387c0,-0.214 0.174,-0.387 0.387,-0.387l19,0c0.214,0 0.387,0.173 0.387,0.387c0,0.213 -0.173,0.387 -0.387,0.387" style="fill:#fff;fill-rule:nonzero;"/><path d="M224.695,223.856l-3.441,0c-0.214,0 -0.387,-0.174 -0.387,-0.387c0,-0.214 0.173,-0.387 0.387,-0.387l3.441,0c0.214,0 0.388,0.173 0.388,0.387c0,0.213 -0.174,0.387 -0.388,0.387" style="fill:#fff;fill-rule:nonzero;"/><path d="M253.497,227.645l-5.167,0c-0.214,0 -0.388,-0.174 -0.388,-0.387c0,-0.214 0.174,-0.387 0.388,-0.387l5.167,0c0.214,0 0.387,0.173 0.387,0.387c0,0.213 -0.173,0.387 -0.387,0.387" style="fill:#fff;fill-rule:nonzero;"/><path d="M244.009,227.645l-22.756,0c-0.214,0 -0.387,-0.174 -0.387,-0.387c0,-0.214 0.173,-0.387 0.387,-0.387l22.756,0c0.214,0 0.387,0.173 0.387,0.387c0,0.213 -0.173,0.387 -0.387,0.387" style="fill:#fff;fill-rule:nonzero;"/><path d="M249.071,231.441l-27.817,0c-0.214,0 -0.387,-0.174 -0.387,-0.387c0,-0.214 0.173,-0.387 0.387,-0.387l27.817,0c0.214,0 0.388,0.173 0.388,0.387c0,0.213 -0.174,0.387 -0.388,0.387" style="fill:#fff;fill-rule:nonzero;"/><path d="M194.36,180.913c-0.362,0.149 -0.599,0.499 -0.601,0.889l0,34.234c0.027,1.475 1.234,2.654 2.709,2.645l39.344,0c1.482,0 2.685,-1.202 2.685,-2.685l0,-26.641c0,-1.482 -1.203,-2.684 -2.685,-2.684l-34.855,0l-5.546,-5.546c-0.185,-0.185 -0.433,-0.284 -0.686,-0.284c-0.122,0 -0.246,0.023 -0.365,0.072Z" style="fill:url(#_Linear4);fill-rule:nonzero;"/><path d="M232.168,195.411l-32.242,0c-0.214,0 -0.388,-0.174 -0.388,-0.387c0,-0.214 0.174,-0.388 0.388,-0.388l32.242,0c0.214,0 0.388,0.174 0.388,0.388c0,0.213 -0.174,0.387 -0.388,0.387" style="fill:#fff;fill-rule:nonzero;"/><path d="M232.168,199.513l-2.942,0c-0.214,0 -0.387,-0.174 -0.387,-0.388c0,-0.213 0.173,-0.387 0.387,-0.387l2.942,0c0.214,0 0.387,0.174 0.387,0.387c0,0.214 -0.173,0.388 -0.387,0.388" style="fill:#fff;fill-rule:nonzero;"/><path d="M226.421,199.513l-26.495,0c-0.214,0 -0.388,-0.174 -0.388,-0.388c0,-0.213 0.174,-0.387 0.388,-0.387l26.495,0c0.214,0 0.388,0.174 0.388,0.387c0,0.214 -0.174,0.388 -0.388,0.388" style="fill:#fff;fill-rule:nonzero;"/><path d="M230,203.616l-18.04,0c-0.214,0 -0.388,-0.174 -0.388,-0.387c0,-0.214 0.174,-0.387 0.388,-0.387l18.04,0c0.214,0 0.387,0.173 0.387,0.387c0,0.213 -0.173,0.387 -0.387,0.387" style="fill:#fff;fill-rule:nonzero;"/><path d="M205.535,203.616l-5.609,0c-0.214,0 -0.388,-0.174 -0.388,-0.387c0,-0.214 0.174,-0.387 0.388,-0.387l5.609,0c0.214,0 0.388,0.173 0.388,0.387c0,0.213 -0.174,0.387 -0.388,0.387" style="fill:#fff;fill-rule:nonzero;"/><path d="M232.168,207.711l-6.73,0c-0.214,0 -0.387,-0.174 -0.387,-0.387c0,-0.214 0.173,-0.388 0.387,-0.388l6.73,0c0.214,0 0.388,0.174 0.388,0.388c0,0.213 -0.174,0.387 -0.388,0.387" style="fill:#fff;fill-rule:nonzero;"/><path d="M222.39,207.711l-22.465,0c-0.214,0 -0.388,-0.174 -0.388,-0.387c0,-0.214 0.174,-0.388 0.388,-0.388l22.465,0c0.214,0 0.387,0.174 0.387,0.388c0,0.213 -0.173,0.387 -0.387,0.387" style="fill:#fff;fill-rule:nonzero;"/><path d="M225.833,211.814l-25.907,0c-0.214,0 -0.388,-0.174 -0.388,-0.387c0,-0.214 0.174,-0.387 0.388,-0.387l25.907,0c0.213,0 0.387,0.173 0.387,0.387c0,0.213 -0.174,0.387 -0.387,0.387" style="fill:#fff;fill-rule:nonzero;"/><rect x="2.148" y="266.619" width="106.107" height="71.407" style="fill:#96b7e1;"/><path d="M58.478,326.269l-55.596,0c-0.475,0 -0.86,-0.385 -0.86,-0.86c0,-0.476 0.385,-0.861 0.86,-0.861l55.596,0c0.475,0 0.86,0.385 0.86,0.861c0,0.475 -0.385,0.86 -0.86,0.86" style="fill:#fff;fill-rule:nonzero;"/><path d="M108.029,285.762l-39.776,0c-0.475,0 -0.86,-0.385 -0.86,-0.86c0,-0.476 0.385,-0.861 0.86,-0.861l39.776,0c0.475,0 0.86,0.385 0.86,0.861c0,0.475 -0.385,0.86 -0.86,0.86" style="fill:#fff;fill-rule:nonzero;"/><path d="M99.554,303.542l-62.941,0c-0.475,0 -0.86,-0.385 -0.86,-0.86c0,-0.476 0.385,-0.861 0.86,-0.861l62.941,0c0.475,0 0.86,0.385 0.86,0.861c0,0.475 -0.385,0.86 -0.86,0.86" style="fill:#fff;fill-rule:nonzero;"/><g><g opacity="0.330002"><path d="M108.255,266.565l-106.071,0l0,71.407" style="fill:#d9edf6;fill-rule:nonzero;"/></g></g><path d="M76.628,174.994l-52.411,0c-2.025,0 -3.666,-1.642 -3.666,-3.667l0,-33.138c0,-2.025 1.641,-3.667 3.666,-3.667l52.411,0c2.025,0 3.667,1.642 3.667,3.667l0,33.138c0,2.025 -1.642,3.667 -3.667,3.667" style="fill:#4263eb;fill-rule:nonzero;"/><path d="M60.765,132.337l14.647,0c1.561,0 2.827,1.266 2.827,2.827l0,34.819c0,1.561 -1.266,2.826 -2.827,2.826l-54.091,0c-1.561,0 -2.827,-1.265 -2.827,-2.826l0,-34.819c0,-1.561 1.266,-2.827 2.827,-2.827" style="fill:#fff;fill-rule:nonzero;"/><path d="M18.495,153.357c-0.238,0 -0.43,-0.192 -0.43,-0.43l0,-17.634c0,-1.796 1.461,-3.257 3.257,-3.257l32.506,0c0.237,0 0.43,0.192 0.43,0.43c0,0.238 -0.193,0.43 -0.43,0.43l-32.506,0c-1.322,0 -2.397,1.075 -2.397,2.397l0,17.634c0,0.238 -0.192,0.43 -0.43,0.43" style="fill:#4263eb;fill-rule:nonzero;"/><path d="M18.495,162.223c-0.238,0 -0.43,-0.192 -0.43,-0.43l0,-3.469c0,-0.238 0.192,-0.431 0.43,-0.431c0.238,0 0.43,0.193 0.43,0.431l0,3.469c0,0.238 -0.192,0.43 -0.43,0.43" style="fill:#4263eb;fill-rule:nonzero;"/><path d="M75.412,173.368l-54.091,0c-1.796,0 -3.257,-1.461 -3.257,-3.256c0,-0.238 0.193,-0.431 0.431,-0.431c0.237,0 0.43,0.193 0.43,0.431c0,1.321 1.074,2.396 2.396,2.396l54.091,0c1.321,0 2.396,-1.075 2.396,-2.396l0,-34.819c0,-1.322 -1.075,-2.397 -2.396,-2.397l-14.374,0c-0.238,0 -0.43,-0.193 -0.43,-0.43c0,-0.238 0.192,-0.431 0.43,-0.431l14.374,0c1.796,0 3.257,1.461 3.257,3.258l0,34.819c0,1.795 -1.461,3.256 -3.257,3.256" style="fill:#4263eb;fill-rule:nonzero;"/><path d="M48.302,153.582c-0.086,0 -0.172,-0.026 -0.246,-0.077l-28.189,-19.684c-0.195,-0.135 -0.242,-0.404 -0.107,-0.599c0.136,-0.195 0.405,-0.243 0.6,-0.106l27.942,19.511l28.593,-19.878c0.196,-0.136 0.463,-0.088 0.599,0.107c0.136,0.195 0.087,0.463 -0.108,0.598l-28.838,20.051c-0.074,0.051 -0.161,0.077 -0.246,0.077" style="fill:#4263eb;fill-rule:nonzero;"/><path d="M332.433,111.115l-37.652,0c-2.026,0 -3.667,-1.642 -3.667,-3.667l0,-23.14c0,-2.026 1.641,-3.667 3.667,-3.667l37.652,0c2.024,0 3.666,1.641 3.666,3.667l0,23.14c0,2.025 -1.642,3.667 -3.666,3.667" style="fill:#4263eb;fill-rule:nonzero;"/><path d="M321.394,78.997l11.029,0c1.175,0 2.128,0.953 2.128,2.128l0,26.218c0,1.175 -0.953,2.128 -2.128,2.128l-40.729,0c-1.175,0 -2.128,-0.953 -2.128,-2.128l0,-26.218c0,-1.175 0.953,-2.128 2.128,-2.128" style="fill:#fff;fill-rule:nonzero;"/><path d="M289.566,94.93c-0.238,0 -0.431,-0.192 -0.431,-0.43l0,-13.278c0,-1.411 1.149,-2.559 2.559,-2.559l24.476,0c0.238,0 0.43,0.193 0.43,0.431c0,0.237 -0.192,0.43 -0.43,0.43l-24.476,0c-0.936,0 -1.698,0.762 -1.698,1.698l0,13.278c0,0.238 -0.193,0.43 -0.43,0.43" style="fill:#4263eb;fill-rule:nonzero;"/><path d="M289.566,101.605c-0.238,0 -0.431,-0.192 -0.431,-0.43l0,-2.612c0,-0.238 0.193,-0.43 0.431,-0.43c0.237,0 0.43,0.192 0.43,0.43l0,2.612c0,0.238 -0.193,0.43 -0.43,0.43" style="fill:#4263eb;fill-rule:nonzero;"/><path d="M332.423,109.998l-40.729,0c-1.411,0 -2.559,-1.148 -2.559,-2.559c0,-0.237 0.192,-0.43 0.431,-0.43c0.237,0 0.429,0.193 0.429,0.43c0,0.936 0.763,1.699 1.699,1.699l40.729,0c0.937,0 1.698,-0.763 1.698,-1.699l0,-26.217c0,-0.936 -0.761,-1.698 -1.698,-1.698l-10.823,0c-0.239,0 -0.431,-0.193 -0.431,-0.43c0,-0.238 0.192,-0.43 0.431,-0.43l10.823,0c1.411,0 2.559,1.147 2.559,2.558l0,26.217c0,1.411 -1.148,2.559 -2.559,2.559" style="fill:#4263eb;fill-rule:nonzero;"/><path d="M312.01,95.1c-0.086,0 -0.172,-0.026 -0.246,-0.077l-21.226,-14.822c-0.194,-0.136 -0.242,-0.405 -0.106,-0.599c0.137,-0.195 0.404,-0.242 0.599,-0.106l20.979,14.649l21.469,-14.926c0.196,-0.136 0.464,-0.088 0.599,0.107c0.136,0.195 0.087,0.463 -0.108,0.599l-21.714,15.098c-0.074,0.051 -0.16,0.077 -0.246,0.077" style="fill:#4263eb;fill-rule:nonzero;"/><path d="M317.527,156.939l0,3.054c0,0.238 0.192,0.431 0.43,0.431c0.237,0 0.43,-0.193 0.43,-0.431l0,-3.054c0,-0.238 -0.193,-0.43 -0.43,-0.43c-0.238,0 -0.43,0.192 -0.43,0.43Z" style="fill:url(#_Linear5);fill-rule:nonzero;"/><path d="M323.528,162.745c-2.025,0 -3.667,1.641 -3.667,3.666l0,29.795c0,2.025 1.642,3.666 3.667,3.666l47.474,0c2.026,0 3.667,-1.641 3.667,-3.666l0,-29.795c0,-2.025 -1.641,-3.666 -3.667,-3.666l-47.474,0Z" style="fill:url(#_Linear6);fill-rule:nonzero;"/><path d="M356.753,160.741l13.437,0c1.432,0 2.593,1.161 2.593,2.593l0,31.942c0,1.432 -1.161,2.593 -2.593,2.593l-49.622,0c-1.432,0 -2.593,-1.161 -2.593,-2.593l0,-31.942c0,-1.432 1.161,-2.593 2.593,-2.593" style="fill:#fff;fill-rule:nonzero;"/><path d="M320.569,160.411c-1.678,0 -3.042,1.363 -3.042,3.04l0,16.178c0,0.247 0.199,0.448 0.448,0.448c0.247,0 0.448,-0.201 0.448,-0.448l0,-16.178c0,-1.182 0.963,-2.144 2.146,-2.144l29.818,0c0.249,0 0.449,-0.2 0.449,-0.448c0,-0.248 -0.2,-0.448 -0.449,-0.448l-29.818,0Z" style="fill:url(#_Linear7);fill-rule:nonzero;"/><path d="M357.004,160.411c-0.248,0 -0.448,0.2 -0.448,0.448c0,0.248 0.2,0.448 0.448,0.448l13.185,0c1.183,0 2.145,0.962 2.145,2.144l0,31.942c0,1.183 -0.962,2.145 -2.145,2.145l-49.62,0c-1.183,0 -2.146,-0.962 -2.146,-2.145c0,-0.247 -0.201,-0.448 -0.448,-0.448c-0.249,0 -0.448,0.201 -0.448,0.448c0,1.678 1.364,3.041 3.042,3.041l49.62,0c1.679,0 3.041,-1.363 3.041,-3.041l0,-31.942c0,-1.677 -1.362,-3.04 -3.041,-3.04l-13.185,0Z" style="fill:url(#_Linear8);fill-rule:nonzero;"/><path d="M371.52,161.072l-26.199,18.217l-25.604,-17.879c-0.201,-0.14 -0.481,-0.092 -0.624,0.112c-0.143,0.202 -0.092,0.481 0.11,0.623l25.861,18.058c0.076,0.054 0.165,0.08 0.256,0.08c0.089,0 0.178,-0.026 0.255,-0.08l26.456,-18.394c0.204,-0.142 0.254,-0.421 0.113,-0.625c-0.087,-0.125 -0.226,-0.192 -0.368,-0.192c-0.088,0 -0.178,0.026 -0.256,0.08Z" style="fill:url(#_Linear9);fill-rule:nonzero;"/><path d="M96.705,44.874c1.626,2.611 1.613,6.073 -0.269,8.746c-2.51,3.563 -7.434,4.414 -10.996,1.904c-3.563,-2.51 -4.415,-7.433 -1.905,-10.996c2.51,-3.563 7.434,-4.414 10.996,-1.904c0.891,0.627 1.632,1.38 2.174,2.25m5.538,-3.962c-0.097,-0.211 -0.375,-0.29 -0.586,-0.192l-2.46,1.133c-0.687,-0.875 -1.501,-1.659 -2.456,-2.332c-0.955,-0.672 -1.989,-1.168 -3.043,-1.521l0.242,-2.715c0.021,-0.231 -0.139,-0.455 -0.371,-0.475l-4.5,-0.39c-0.232,-0.021 -0.455,0.14 -0.476,0.371l-0.242,2.715c-2.228,0.318 -4.342,1.285 -6.083,2.831l-2.249,-1.561c-0.19,-0.133 -0.45,-0.11 -0.584,0.079l-2.619,3.702c-0.134,0.19 -0.058,0.459 0.132,0.593l2.218,1.582c-0.869,2.159 -1.034,4.479 -0.584,6.684l-2.491,1.154c-0.211,0.097 -0.311,0.344 -0.213,0.555l1.902,4.121c0.097,0.211 0.323,0.279 0.534,0.182l2.491,-1.154c0.687,0.873 1.523,1.689 2.478,2.362c0.955,0.673 1.988,1.169 3.042,1.521l-0.272,2.737c-0.021,0.23 0.149,0.402 0.38,0.423l4.522,0.42c0.231,0.021 0.434,-0.17 0.454,-0.402l0.242,-2.715c2.227,-0.318 4.364,-1.255 6.104,-2.8l2.218,1.582c0.19,0.134 0.46,0.058 0.593,-0.132l2.62,-3.7c0.134,-0.19 0.08,-0.429 -0.11,-0.563l-2.219,-1.582c0.869,-2.158 1.035,-4.479 0.584,-6.683l2.492,-1.154c0.21,-0.098 0.31,-0.345 0.212,-0.555l-1.902,-4.121Zm21.468,13.035c0.234,1.486 0.874,2.916 1.881,4.09l-6.4,9.105c-4.223,-3.679 -6.524,-8.894 -6.603,-14.21l11.122,1.015Zm9.63,6.77l4.692,10.141c-5.033,1.715 -10.706,1.312 -15.592,-1.425l6.431,-9.126c1.444,0.552 2.991,0.689 4.469,0.41m-11.359,-24.581l4.691,10.142c-0.581,0.467 -1.108,1.017 -1.557,1.655c-0.449,0.637 -0.787,1.32 -1.032,2.024l-11.122,-1.015c0.505,-2.571 1.537,-5.057 3.144,-7.338c1.606,-2.28 3.625,-4.127 5.876,-5.468m13.437,14.281c0.882,1.404 0.898,3.232 -0.126,4.686c-1.365,1.938 -3.996,2.411 -5.935,1.046c-1.938,-1.366 -2.359,-3.987 -0.993,-5.925c1.365,-1.939 3.965,-2.391 5.904,-1.025c0.484,0.342 0.856,0.751 1.15,1.218m15.277,5.968c-0.505,2.57 -1.569,5.079 -3.175,7.358c-1.606,2.28 -3.595,4.107 -5.845,5.447l-4.691,-10.141c0.58,-0.467 1.109,-1.018 1.557,-1.655c0.449,-0.637 0.788,-1.321 1.032,-2.025l11.122,1.016Zm-30.556,-46.498c2.051,2.667 2.225,6.45 0.186,9.345c-2.51,3.563 -7.434,4.414 -10.996,1.905c-3.563,-2.51 -4.415,-7.433 -1.905,-10.996c2.51,-3.563 7.433,-4.414 10.996,-1.905c0.668,0.471 1.246,1.035 1.719,1.651m21.056,25.976l-6.431,9.126c-1.444,-0.553 -2.97,-0.658 -4.448,-0.379l-4.722,-10.12c5.032,-1.715 10.715,-1.365 15.601,1.373m6.057,5.338c2.425,3.269 3.757,7.207 3.816,11.194l-11.153,-0.994c-0.234,-1.486 -0.874,-2.916 -1.881,-4.09l6.431,-9.126c1.056,0.92 1.979,1.926 2.787,3.016m-21.257,-34.811c-0.121,-0.11 -0.291,-0.131 -0.449,-0.058l-2.46,1.133c-0.687,-0.874 -1.523,-1.689 -2.478,-2.362c-0.955,-0.672 -1.988,-1.169 -3.042,-1.521l0.242,-2.715c0.021,-0.231 -0.118,-0.424 -0.35,-0.445l-4.522,-0.42c-0.231,-0.021 -0.433,0.17 -0.454,0.401l-0.242,2.716c-2.228,0.318 -4.364,1.255 -6.103,2.8l-2.25,-1.561c-0.19,-0.134 -0.429,-0.08 -0.562,0.11l-2.62,3.701c-0.134,0.19 -0.08,0.429 0.11,0.562l2.219,1.583c-0.869,2.159 -1.035,4.478 -0.584,6.683l-2.492,1.154c-0.21,0.098 -0.31,0.345 -0.212,0.556l1.902,4.121c0.098,0.21 0.344,0.31 0.555,0.213l2.491,-1.154c0.686,0.873 1.502,1.658 2.457,2.33c0.954,0.673 1.988,1.17 3.042,1.522l-0.273,2.736c-0.021,0.231 0.17,0.434 0.402,0.455l4.522,0.42c0.231,0.021 0.433,-0.171 0.454,-0.402l0.242,-2.715c2.227,-0.318 4.343,-1.287 6.082,-2.831l2.219,1.582c0.19,0.134 0.481,0.089 0.614,-0.101l2.589,-3.679c0.134,-0.19 0.09,-0.481 -0.1,-0.615l-2.219,-1.582c0.869,-2.159 1.034,-4.479 0.584,-6.684l2.491,-1.154c0.211,-0.097 0.311,-0.344 0.213,-0.555l-1.912,-4.069c-0.024,-0.052 -0.065,-0.118 -0.106,-0.155m31.177,31.729c-0.085,-0.183 -0.268,-0.278 -0.451,-0.193l-3.529,1.635c-1.248,-2.037 -2.812,-3.911 -4.662,-5.562l2.25,-3.176c0.116,-0.165 0.045,-0.393 -0.12,-0.51l-4.154,-2.948c-0.165,-0.116 -0.393,-0.045 -0.51,0.12l-2.218,3.154c-2.178,-1.185 -4.472,-2.014 -6.809,-2.502l0.322,-3.864c0.019,-0.201 -0.105,-0.364 -0.306,-0.382l-5.086,-0.446c-0.201,-0.018 -0.364,0.106 -0.382,0.307l-0.375,3.854c-2.429,0.066 -4.803,0.501 -7.112,1.257l-1.635,-3.53c-0.085,-0.183 -0.298,-0.256 -0.482,-0.171l-4.65,2.127c-0.184,0.085 -0.258,0.298 -0.173,0.481l1.635,3.53c-2.036,1.247 -3.91,2.812 -5.562,4.661l-3.175,-2.25c-0.165,-0.116 -0.415,-0.075 -0.531,0.09l-2.928,4.184c-0.116,0.165 -0.066,0.363 0.1,0.479l3.175,2.25c-1.185,2.178 -2.014,4.471 -2.502,6.808l-3.885,-0.353c-0.201,-0.019 -0.344,0.136 -0.362,0.337l-0.497,5.076c-0.018,0.202 0.158,0.375 0.359,0.393l3.854,0.375c0.066,2.428 0.47,4.824 1.225,7.133l-3.498,1.614c-0.183,0.085 -0.256,0.298 -0.172,0.482l2.128,4.65c0.084,0.184 0.298,0.257 0.481,0.172l3.529,-1.635c1.247,2.036 2.782,3.932 4.631,5.583l-2.219,3.154c-0.116,0.165 -0.097,0.384 0.068,0.5l4.184,2.928c0.166,0.116 0.384,0.097 0.501,-0.068l2.25,-3.176c2.178,1.186 4.471,2.014 6.808,2.503l-0.354,3.885c-0.018,0.201 0.137,0.343 0.338,0.361l5.055,0.466c0.201,0.018 0.395,-0.126 0.414,-0.328l0.322,-3.863c2.429,-0.066 4.856,-0.492 7.164,-1.247l1.635,3.529c0.085,0.183 0.299,0.257 0.482,0.172l4.651,-2.127c0.183,-0.085 0.257,-0.298 0.172,-0.482l-1.635,-3.529c2.037,-1.247 3.91,-2.812 5.562,-4.662l3.175,2.25c0.165,0.116 0.384,0.097 0.5,-0.068l2.928,-4.184c0.116,-0.165 0.097,-0.384 -0.068,-0.5l-3.176,-2.25c1.185,-2.178 2.014,-4.472 2.502,-6.809l3.854,0.375c0.202,0.018 0.374,-0.158 0.393,-0.359l0.466,-5.054c0.018,-0.202 -0.127,-0.396 -0.328,-0.414l-3.885,-0.354c-0.066,-2.429 -0.47,-4.824 -1.226,-7.133l3.53,-1.635c0.183,-0.085 0.256,-0.298 0.172,-0.481l-2.158,-4.63Zm33.167,11.561c2.523,4.053 2.528,9.42 -0.394,13.567c-3.896,5.531 -11.536,6.848 -17.067,2.952c-5.53,-3.896 -6.847,-11.537 -2.951,-17.067c3.895,-5.53 11.536,-6.847 17.067,-2.952c1.382,0.974 2.504,2.15 3.345,3.5m8.602,-6.145c-0.151,-0.327 -0.563,-0.454 -0.889,-0.303l-3.852,1.764c-1.065,-1.358 -2.323,-2.597 -3.806,-3.642c-1.482,-1.044 -3.086,-1.833 -4.721,-2.379l0.392,-4.229c0.032,-0.359 -0.243,-0.65 -0.602,-0.683l-6.997,-0.643c-0.359,-0.032 -0.671,0.213 -0.703,0.572l-0.371,4.26c-3.459,0.494 -6.787,1.982 -9.488,4.381l-3.459,-2.466c-0.295,-0.207 -0.688,-0.138 -0.896,0.156l-4.036,5.762c-0.208,0.294 -0.14,0.688 0.155,0.895l3.438,2.435c-1.348,3.351 -1.607,6.99 -0.908,10.412l-3.851,1.763c-0.327,0.152 -0.476,0.532 -0.325,0.859l2.939,6.374c0.152,0.327 0.532,0.476 0.859,0.324l3.852,-1.763c1.065,1.356 2.355,2.575 3.837,3.619c1.482,1.045 3.085,1.833 4.72,2.38l-0.391,4.229c-0.033,0.359 0.212,0.671 0.571,0.703l6.997,0.643c0.359,0.033 0.702,-0.233 0.734,-0.592l0.371,-4.26c3.457,-0.494 6.756,-1.962 9.457,-4.36l3.49,2.444c0.295,0.208 0.687,0.139 0.895,-0.155l4.038,-5.762c0.207,-0.295 0.138,-0.688 -0.157,-0.896l-3.468,-2.413c1.348,-3.351 1.637,-7.011 0.938,-10.433l3.852,-1.763c0.327,-0.152 0.475,-0.532 0.324,-0.859l-2.939,-6.374Z" style="fill:#96b7e1;fill-rule:nonzero;"/><path d="M190.339,49.675c2.523,4.052 2.528,9.419 -0.394,13.567c-3.896,5.53 -11.537,6.847 -17.067,2.952c-5.53,-3.896 -6.847,-11.537 -2.952,-17.068c3.896,-5.53 11.537,-6.847 17.067,-2.951c1.383,0.974 2.505,2.149 3.346,3.5m8.602,-6.146c-0.151,-0.327 -0.562,-0.454 -0.89,-0.303l-3.851,1.764c-1.066,-1.357 -2.323,-2.597 -3.806,-3.641c-1.482,-1.044 -3.085,-1.833 -4.721,-2.379l0.392,-4.23c0.032,-0.359 -0.244,-0.649 -0.602,-0.682l-6.997,-0.643c-0.359,-0.032 -0.671,0.212 -0.704,0.571l-0.37,4.261c-3.458,0.493 -6.786,1.982 -9.488,4.381l-3.459,-2.466c-0.294,-0.208 -0.688,-0.139 -0.896,0.156l-4.037,5.761c-0.207,0.295 -0.138,0.688 0.156,0.896l3.439,2.435c-1.35,3.35 -1.608,6.989 -0.909,10.411l-3.851,1.764c-0.327,0.151 -0.476,0.532 -0.324,0.859l2.938,6.374c0.151,0.326 0.532,0.475 0.859,0.324l3.852,-1.764c1.064,1.356 2.355,2.576 3.837,3.62c1.482,1.044 3.085,1.833 4.721,2.379l-0.392,4.23c-0.033,0.359 0.212,0.671 0.571,0.703l6.997,0.643c0.359,0.033 0.702,-0.233 0.734,-0.592l0.371,-4.261c3.457,-0.494 6.756,-1.962 9.456,-4.36l3.491,2.445c0.295,0.207 0.688,0.138 0.895,-0.156l4.037,-5.761c0.207,-0.295 0.139,-0.688 -0.156,-0.896l-3.469,-2.414c1.349,-3.35 1.638,-7.01 0.94,-10.432l3.85,-1.764c0.327,-0.151 0.477,-0.532 0.326,-0.859l-2.94,-6.374Z" style="fill:#96b7e1;fill-rule:nonzero;"/><path d="M103.588,76.419c1.625,2.61 1.613,6.073 -0.27,8.746c-2.509,3.562 -7.433,4.414 -10.996,1.904c-3.563,-2.51 -4.414,-7.433 -1.904,-10.996c2.51,-3.563 7.433,-4.415 10.996,-1.905c0.891,0.627 1.632,1.38 2.174,2.251m5.538,-3.963c-0.098,-0.21 -0.375,-0.289 -0.586,-0.192l-2.46,1.134c-0.687,-0.875 -1.501,-1.659 -2.457,-2.332c-0.954,-0.672 -1.988,-1.169 -3.042,-1.521l0.241,-2.715c0.021,-0.231 -0.139,-0.455 -0.37,-0.476l-4.501,-0.389c-0.231,-0.021 -0.454,0.14 -0.475,0.371l-0.242,2.715c-2.228,0.318 -4.342,1.285 -6.083,2.831l-2.25,-1.561c-0.189,-0.134 -0.449,-0.11 -0.583,0.079l-2.62,3.702c-0.133,0.189 -0.058,0.459 0.132,0.593l2.219,1.582c-0.869,2.159 -1.035,4.479 -0.584,6.684l-2.491,1.153c-0.211,0.098 -0.311,0.345 -0.214,0.556l1.903,4.121c0.097,0.211 0.323,0.279 0.534,0.182l2.491,-1.155c0.686,0.874 1.523,1.69 2.478,2.363c0.955,0.672 1.988,1.169 3.042,1.521l-0.273,2.736c-0.021,0.231 0.149,0.403 0.381,0.424l4.522,0.42c0.23,0.021 0.433,-0.171 0.454,-0.402l0.242,-2.715c2.227,-0.318 4.364,-1.255 6.103,-2.8l2.219,1.582c0.19,0.134 0.46,0.058 0.593,-0.132l2.62,-3.701c0.134,-0.189 0.08,-0.428 -0.11,-0.562l-2.219,-1.582c0.869,-2.158 1.035,-4.479 0.584,-6.683l2.491,-1.155c0.211,-0.097 0.311,-0.344 0.213,-0.555l-1.902,-4.121Z" style="fill:#96b7e1;fill-rule:nonzero;"/><path d="M145.911,69.023c0.865,3.729 1.315,7.546 1.315,11.42c0,6.682 -1.297,13.2 -3.855,19.375c-2.556,6.173 -6.248,11.7 -10.976,16.428c-4.724,4.723 -10.25,8.417 -16.426,10.975c-6.171,2.557 -12.691,3.854 -19.377,3.854c-6.685,0 -13.204,-1.297 -19.375,-3.854c-6.177,-2.558 -11.702,-6.252 -16.426,-10.975c-4.728,-4.728 -8.421,-10.255 -10.977,-16.428c-2.557,-6.175 -3.854,-12.693 -3.854,-19.375c0,-6.682 1.297,-13.201 3.854,-19.377c2.556,-6.172 6.25,-11.699 10.977,-16.426c4.725,-4.726 10.252,-8.419 16.426,-10.975c6.171,-2.558 12.69,-3.854 19.375,-3.854c6.686,0 13.206,1.296 19.377,3.854c0.814,0.337 1.615,0.697 2.406,1.073l1.474,-0.903c-1.087,-0.541 -2.188,-1.059 -3.318,-1.527c-6.35,-2.632 -13.059,-3.966 -19.939,-3.966c-6.878,0 -13.587,1.334 -19.937,3.966c-6.354,2.63 -12.04,6.429 -16.903,11.294c-4.864,4.864 -8.664,10.55 -11.295,16.902c-2.632,6.355 -3.966,13.062 -3.966,19.939c0,6.875 1.334,13.583 3.966,19.938c2.631,6.351 6.431,12.039 11.295,16.903c4.86,4.862 10.546,8.662 16.903,11.294c6.35,2.632 13.059,3.966 19.937,3.966c6.88,0 13.589,-1.334 19.939,-3.966c6.356,-2.632 12.043,-6.432 16.902,-11.294c4.865,-4.864 8.665,-10.552 11.295,-16.903c2.633,-6.355 3.967,-13.063 3.967,-19.938c0,-4.408 -0.555,-8.744 -1.642,-12.964l-1.142,1.544Z" style="fill:#96b7e1;fill-rule:nonzero;"/></g><defs><linearGradient id="_Linear1" x1="0" y1="0" x2="1" y2="0" gradientUnits="userSpaceOnUse" gradientTransform="matrix(56.0866,0,0,56.0866,2.05439,376.705)"><stop offset="0" style="stop-color:#fcb306;stop-opacity:1"/><stop offset="1" style="stop-color:#f3791b;stop-opacity:1"/></linearGradient><linearGradient id="_Linear2" x1="0" y1="0" x2="1" y2="0" gradientUnits="userSpaceOnUse" gradientTransform="matrix(47.7308,0,0,47.7308,68.1986,379.98)"><stop offset="0" style="stop-color:#4263eb;stop-opacity:1"/><stop offset="1" style="stop-color:#1f46e7;stop-opacity:1"/></linearGradient><linearGradient id="_Linear3" x1="0" y1="0" x2="1" y2="0" gradientUnits="userSpaceOnUse" gradientTransform="matrix(44.7132,0,0,44.7132,214.58,226.339)"><stop offset="0" style="stop-color:#4263eb;stop-opacity:1"/><stop offset="1" style="stop-color:#1f46e7;stop-opacity:1"/></linearGradient><linearGradient id="_Linear4" x1="0" y1="0" x2="1" y2="0" gradientUnits="userSpaceOnUse" gradientTransform="matrix(2.31983e-15,-37.8857,37.8857,2.31983e-15,216.135,218.681)"><stop offset="0" style="stop-color:#f2751c;stop-opacity:1"/><stop offset="1" style="stop-color:#ffc400;stop-opacity:1"/></linearGradient><linearGradient id="_Linear5" x1="0" y1="0" x2="1" y2="0" gradientUnits="userSpaceOnUse" gradientTransform="matrix(0.860324,0,0,0.860324,317.526,158.466)"><stop offset="0" style="stop-color:#fcb306;stop-opacity:1"/><stop offset="1" style="stop-color:#f3791b;stop-opacity:1"/></linearGradient><linearGradient id="_Linear6" x1="0" y1="0" x2="1" y2="0" gradientUnits="userSpaceOnUse" gradientTransform="matrix(54.8079,0,0,54.8079,319.86,181.308)"><stop offset="0" style="stop-color:#fcb306;stop-opacity:1"/><stop offset="1" style="stop-color:#f3791b;stop-opacity:1"/></linearGradient><linearGradient id="_Linear7" x1="0" y1="0" x2="1" y2="0" gradientUnits="userSpaceOnUse" gradientTransform="matrix(33.3096,0,0,33.3096,317.526,170.244)"><stop offset="0" style="stop-color:#fcb306;stop-opacity:1"/><stop offset="1" style="stop-color:#f3791b;stop-opacity:1"/></linearGradient><linearGradient id="_Linear8" x1="0" y1="0" x2="1" y2="0" gradientUnits="userSpaceOnUse" gradientTransform="matrix(55.7042,0,0,55.7042,317.526,179.423)"><stop offset="0" style="stop-color:#fcb306;stop-opacity:1"/><stop offset="1" style="stop-color:#f3791b;stop-opacity:1"/></linearGradient><linearGradient id="_Linear9" x1="0" y1="0" x2="1" y2="0" gradientUnits="userSpaceOnUse" gradientTransform="matrix(53.2124,0,0,53.2124,319.011,170.638)"><stop offset="0" style="stop-color:#fcb306;stop-opacity:1"/><stop offset="1" style="stop-color:#f3791b;stop-opacity:1"/></linearGradient></defs></svg>