<svg width="455" height="280" viewBox="0 0 455 280" fill="none" xmlns="http://www.w3.org/2000/svg">
<path d="M41.9924 231.352L450.69 231.639C403.299 209.304 427.997 133.204 387.368 104.077C354.705 79.036 352.756 99.0684 316.253 76.2729C278.031 50.484 291.555 9.21021 225.196 9.21021C161.702 9.21021 166.229 81.4537 134.826 100.45C102.735 119.101 87.4351 107.991 65.0289 124.109C30.0157 150.474 39.2991 210.916 8.35449 231.352H41.9924Z" fill="url(#paint0_linear)"/>
<path d="M309.893 135.967C309.893 135.967 297.916 200.67 271.269 212.643C244.68 224.617 223.42 230.546 223.42 230.546C223.42 230.546 299.234 241.195 307.2 231.467C337.285 194.798 309.893 135.967 309.893 135.967Z" fill="url(#paint1_linear)"/>
<path d="M314.821 127.448C333.846 112.942 359.518 110.927 383.185 125.894C402.726 145.984 373.1 203.836 378.773 233.309L299.234 234.863C310.236 203.836 304.449 169.067 307.543 137.061C307.887 133.492 311.956 129.635 314.821 127.448Z" fill="#4CCD9B"/>
<path d="M379.862 205.102C379.862 205.102 358.659 145.926 365.994 136.313C373.329 126.699 380.206 121.922 384.676 127.275C388.744 132.168 427.024 205.217 412.239 228.704C405.076 240.044 323.818 236.36 323.818 236.36V215.694C323.818 215.752 377.856 204.642 379.862 205.102Z" fill="url(#paint2_linear)"/>
<path d="M311.325 72.186C310.752 88.5343 312.242 99.2413 317.858 110.639C319.405 113.805 322.728 115.705 326.224 115.474H326.339C328.23 115.359 330.006 116.338 330.923 117.95L331.267 127.16C331.267 127.851 331.496 128.599 331.783 129.232C338.659 143.451 358.028 134.413 362.383 123.188C363.014 121.519 363.014 119.619 362.441 117.95L353.96 102.983L343.759 63.321L311.325 72.186Z" fill="white"/>
<path d="M314.19 64.8176L335.909 55.1468C347.312 52.9018 356.137 59.8671 358.258 71.2649C360.378 82.7777 359.977 94.1755 356.71 105.573C356.366 106.84 354.762 107.243 353.845 106.322L349.261 92.9667C351.037 91.7002 353.73 93.0818 353.845 90.146C354.074 85.7711 351.667 82.1445 348.516 81.9718C346.739 81.9143 345.192 83.008 343.989 84.6774C343.53 85.3106 343.072 85.5984 343.014 84.4471L342.671 81.5689C341.811 74.6612 335.106 70.1711 328.402 71.9556L311.21 74.6036C301.927 71.6678 302.271 67.0626 314.19 64.8176Z" fill="#F2751C"/>
<path d="M345.364 71.4375C339.519 75.5822 339.06 70.8619 334.591 71.1497C325.078 72.6464 322.041 77.0788 310.809 79.3814C304.735 80.2449 300.151 75.5246 301.01 69.4803C301.927 64.2995 307.199 63.0331 310.523 64.76C313.846 58.946 319.233 54.7438 325.594 53.7652C335.45 52.211 347.083 57.1039 352.699 65.2205L345.364 71.4375Z" fill="#F2751C"/>
<path d="M325.88 115.532C325.88 115.532 334.935 116.338 344.39 101.544C344.39 101.544 343.588 142.357 334.19 133.031C326.568 125.491 333.445 124.512 329.777 116.626C329.319 115.705 325.88 115.532 325.88 115.532Z" fill="#EAEACD"/>
<path d="M349.776 95.079C353.335 94.0561 355.396 90.3278 354.378 86.7517C353.359 83.1757 349.648 81.1059 346.088 82.1288C342.528 83.1517 340.468 86.8799 341.486 90.456C342.504 94.0321 346.216 96.1019 349.776 95.079Z" fill="white"/>
<path d="M205.827 230.661H252.645L259.98 205.505H213.162L205.827 230.661Z" fill="#1F46E7"/>
<path d="M283.418 132.743H179.008C175.513 132.743 172.991 135.621 173.393 139.075L180.269 203.029C180.67 206.541 183.765 209.362 187.26 209.362H291.67C295.165 209.362 297.687 206.483 297.285 203.029L290.409 139.075C290.065 135.621 286.913 132.743 283.418 132.743Z" fill="#4263EB"/>
<path d="M179.008 132.686C175.513 132.744 172.991 135.564 173.393 139.018L180.269 202.972C180.67 206.484 183.765 209.304 187.26 209.304H291.67C298.088 209.247 297.285 202.972 297.285 202.972C244.336 203.893 241.986 131.304 179.008 132.686Z" fill="#1F46E7"/>
<path d="M265.596 230.661H197.518C196.888 230.661 196.429 230.2 196.429 229.567V226.919C196.429 226.286 196.888 225.825 197.518 225.825H265.596C266.226 225.825 266.685 226.286 266.685 226.919V229.567C266.685 230.143 266.169 230.661 265.596 230.661Z" fill="#1F46E7"/>
<path d="M231.614 165.958C231.614 168.549 233.677 170.679 236.199 170.679C237.402 170.679 238.548 170.161 239.35 169.355C239.694 170.161 239.866 171.082 239.866 172.06C239.866 176.032 236.714 179.313 232.875 179.313C228.978 179.313 225.884 176.09 225.884 172.06C225.884 168.434 228.462 165.498 231.786 164.922C231.614 165.268 231.614 165.613 231.614 165.958Z" fill="#D9EDF6"/>
<path d="M324.276 230.834C324.334 230.776 334.075 230.834 334.075 230.834C333.674 227.668 325.652 216.442 322.099 215.521C321.468 215.349 320.838 215.176 320.208 215.061C316.368 214.197 312.414 214.6 308.919 216.097L292.3 225.365C291.269 225.941 291.211 227.61 292.3 228.358L293.79 229.51C295.452 230.776 297.572 231.237 299.406 230.718C301.354 230.2 303.818 229.51 305.194 228.992C307.142 228.301 309.377 228.128 311.325 229.107C311.383 229.164 314.191 230.834 324.276 230.834Z" fill="white"/>
<path d="M0 240.403L455 240.403L455 230.782L3.45096e-10 230.782L0 240.403Z" fill="white"/>
<path d="M73.1087 93.8879C72.1918 93.8303 71.3322 93.8879 70.4727 93.9454C70.7592 95.0967 71.0457 96.3056 71.3895 97.4568L73.1087 93.8879Z" fill="#F2751C"/>
<path d="M105.773 151.855C111.675 151.74 116.775 157.382 118.552 163.253C124.11 181.847 130.356 219.724 124.397 227.668C122.677 229.97 112.477 229.395 109.727 228.359V228.992C107.32 228.071 105.314 227.495 104.856 224.617C103.48 201.937 101.016 180.81 96.7184 162.275C95.515 154.388 101.876 152.028 105.773 151.855Z" fill="url(#paint3_linear)"/>
<path d="M110.3 152.949C105.314 148.344 100.042 144.314 94.4834 141.148C85.7731 136.198 76.4897 133.377 66.6906 134.068C59.4129 134.586 51.8486 137.004 44.1698 141.839C25.2592 161.296 49.7284 199.922 44.2844 228.359H92.4777C96.3744 191.978 111.216 187.948 110.3 152.949Z" fill="#FECC4D"/>
<path d="M49.3845 225.653C49.4418 229.165 53.6824 230.719 53.6824 230.719C55.115 229.568 59.5848 230.316 61.4185 230.316H120.156C123.766 230.258 126.689 224.962 126.517 220.3C126.173 216.097 122.735 212.528 119.124 212.644L59.0117 221.451L53.1094 220.415C49.3845 220.587 49.2699 222.199 49.3845 225.653Z" fill="white"/>
<path d="M141.76 176.838H102.334C100.672 176.838 99.469 175.342 99.8128 173.73L105.601 145.984C105.83 144.948 106.689 144.257 107.835 144.257H148.178C151.215 144.257 151.33 145.351 150.929 147.365L145.37 173.903C144.969 175.629 143.479 176.838 141.76 176.838Z" fill="#1F46E7"/>
<path d="M143.938 176.838H104.512C102.85 176.838 101.647 175.342 101.991 173.73L107.778 145.984C108.008 144.948 108.867 144.257 110.013 144.257H150.356C153.393 144.257 153.508 145.351 153.106 147.365L147.548 173.903C147.147 175.629 145.657 176.838 143.938 176.838Z" fill="#4263EB"/>
<path d="M143.938 176.838H104.512C102.85 176.838 101.647 175.342 101.991 173.73L106.403 152.489C122.219 156.403 137.348 162.85 143.938 176.838Z" fill="#3054E9"/>
<path d="M39.471 145.063C33.5687 150.129 35.2878 157.497 35.8035 164.692C36.4912 174.075 41.9925 187.258 48.5252 198.886C57.6367 215.119 70.8741 227.092 77.2922 229.337C80.444 230.431 85.8879 225.768 87.8363 223.005C89.6127 220.53 89.7846 216.673 88.352 213.68C75 190.711 63.711 168.492 55.9175 147.711C53.5107 141.954 49.0982 139.076 45.8319 140.918C43.4824 142.127 41.3621 143.451 39.471 145.063Z" fill="url(#paint4_linear)"/>
<path d="M55.4589 230.085C53.1667 231.409 48.6969 230.258 46.0609 229.395C44.6283 228.934 43.0811 228.934 41.6484 229.395C40.617 229.74 38.8405 230.258 37.4079 230.661C36.0326 231.007 34.5426 230.776 33.3966 229.913L32.3651 229.164C31.6201 228.646 31.7347 227.553 32.4797 227.15L44.9148 221.393C47.4935 220.299 50.3588 219.954 53.0521 220.53C56.2612 221.163 59.4129 221.566 62.5647 223.063C62.5074 223.005 58.668 228.071 55.4589 230.085Z" fill="white"/>
<path d="M115.973 168.089L118.208 164.059C118.437 163.714 118.666 163.426 119.01 163.196L122.104 160.72C122.276 160.548 122.563 160.548 122.792 160.663L122.964 160.778C123.48 161.123 123.594 161.814 123.193 162.332L121.417 164.577C121.302 164.692 121.245 164.865 121.13 165.038L120.328 169.24L115.973 168.089Z" fill="white"/>
<path d="M122.735 168.837C125.485 170.967 126.001 175.514 123.766 178.335C121.99 178.795 120.385 179.832 119.297 181.328C119.297 181.328 101.819 208.384 98.2657 213.622C94.7128 218.86 88.4666 226.114 84.2833 228.704C80.1001 231.294 76.0887 230.776 72.4785 227.84C69.3268 225.077 69.3268 220.184 70.7594 217.306C72.2493 214.37 77.9225 206.542 83.8249 200.728C89.67 194.914 115.056 169.758 115.056 169.758L115.973 168.031C118.208 165.21 119.984 166.707 122.735 168.837Z" fill="white"/>
<path d="M115.399 175.284C116.259 171.082 118.78 167.57 124.052 165.268L134.367 161.238C135.743 160.72 137.118 162.159 136.717 163.598L134.138 172.176C133.565 174.075 132.19 175.514 130.413 176.09L121.474 179.083L115.399 175.284Z" fill="white"/>
<path d="M114.254 112.831C121.015 100.023 116.16 84.1335 103.409 77.3416C90.6589 70.5497 74.8415 75.4269 68.0803 88.2351C61.319 101.043 66.1742 116.932 78.9246 123.724C91.675 130.516 107.492 125.639 114.254 112.831Z" fill="#4263EB"/>
<path d="M121.15 110.435C126.725 99.8734 122.722 86.7719 112.208 81.1716C101.694 75.5712 88.6521 79.5928 83.077 90.1539C77.5019 100.715 81.5053 113.817 92.0188 119.417C102.532 125.017 115.575 120.996 121.15 110.435Z" fill="#4263EB"/>
<path d="M77.2385 108.518C77.4577 100.732 71.3521 94.2414 63.6013 94.0212C55.8505 93.801 49.3896 99.9343 49.1703 107.72C48.9511 115.506 55.0567 121.996 62.8075 122.217C70.5583 122.437 77.0193 116.304 77.2385 108.518Z" fill="#4263EB"/>
<path d="M96.2746 121.828C96.4938 114.042 90.3882 107.551 82.6374 107.331C74.8867 107.111 68.4257 113.244 68.2065 121.03C67.9873 128.816 74.0928 135.306 81.8436 135.527C89.5944 135.747 96.0554 129.614 96.2746 121.828Z" fill="#4263EB"/>
<path d="M123.486 128.649C126.561 121.498 123.283 113.198 116.165 110.108C109.047 107.019 100.784 110.312 97.7088 117.462C94.6336 124.612 97.911 132.913 105.029 136.002C112.147 139.091 120.41 135.799 123.486 128.649Z" fill="#4263EB"/>
<path d="M77.9304 121.68C78.0852 116.182 73.7739 111.599 68.3009 111.444C62.8279 111.288 58.2656 115.619 58.1108 121.117C57.956 126.615 62.2673 131.198 67.7403 131.353C73.2133 131.509 77.7756 127.178 77.9304 121.68Z" fill="#4263EB"/>
<path d="M107.702 133.266C110.263 127.312 107.534 120.4 101.607 117.828C95.6799 115.256 88.7994 117.997 86.2389 123.951C83.6783 129.905 86.4072 136.816 92.3341 139.389C98.261 141.961 105.141 139.219 107.702 133.266Z" fill="#4263EB"/>
<path d="M92.879 135.449L93.2801 146.329C93.0509 147.423 92.1913 148.229 91.1025 148.459C82.9652 150.071 72.5358 147.02 69.4413 138.615C69.1548 137.867 69.0975 137.003 69.2121 136.198C70.4728 128.944 73.4526 121.634 78.6674 115.359C78.8393 115.129 78.037 103.156 83.5383 105.401C83.8248 105.516 84.2259 105.458 84.4551 105.17C89.2687 99.9895 93.7958 135.967 92.879 135.449Z" fill="white"/>
<path d="M78.8394 115.014C81.8192 124.857 85.1429 130.441 92.9363 135.507L93.3375 146.387C77.5213 141.206 80.0428 128.369 78.8394 115.014Z" fill="#EAEACD"/>
<path d="M115.113 94.0028C115.113 94.0028 118.666 110.236 109.956 126.354C104.913 135.737 98.4948 137.694 93.0508 135.392C86.1742 132.514 82.9652 125.778 80.9022 118.64C78.7819 111.272 75.2863 102.983 78.7246 98.3777C84.3978 90.8368 115.113 94.0028 115.113 94.0028Z" fill="white"/>
<path d="M82.3921 124.224C84.9135 128.427 87.836 133.204 92.8789 135.449" stroke="#C8CBAC" stroke-miterlimit="10" stroke-linecap="round"/>
<path d="M76.6042 110.985L89.154 113.345C89.154 113.345 87.0337 100.508 96.3744 100.968C105.715 101.371 115.113 105.458 116.316 97.5145C117.52 89.513 94.7698 82.4326 84.6269 87.6134C74.4839 92.7942 76.6042 110.985 76.6042 110.985Z" fill="#4263EB"/>
<path d="M88.8487 115.415C90.3463 112.578 89.2709 109.058 86.4468 107.554C83.6227 106.05 80.1193 107.13 78.6217 109.967C77.1242 112.804 78.1995 116.323 81.0236 117.827C83.8477 119.332 87.3512 118.251 88.8487 115.415Z" fill="white"/>
<path d="M103.594 54.5304C114.142 52.2408 120.846 41.7949 118.566 31.1988C116.287 20.6027 105.888 13.8691 95.34 16.1587C84.7918 18.4483 78.0885 28.8942 80.3678 39.4903C82.6471 50.0864 93.0459 56.8201 103.594 54.5304Z" fill="#F2751C"/>
<path d="M109.497 18.4781C105.371 16.0028 100.386 15.0242 95.3428 16.118C84.7988 18.4205 78.0941 28.8397 80.3863 39.4316C81.4751 44.4973 84.3976 48.6995 88.3517 51.405L109.497 18.4781Z" fill="url(#paint5_linear)"/>
<path d="M102.48 49.3545C110.183 47.6826 115.078 40.055 113.413 32.3177C111.749 24.5804 104.156 19.6634 96.4533 21.3353C88.7509 23.0072 83.8561 30.6349 85.5204 38.3722C87.1848 46.1095 94.778 51.0265 102.48 49.3545Z" fill="#FECC4D"/>
<path d="M105.543 35.5172C105.658 35.6323 105.773 35.7475 105.543 35.5172C105.314 35.2294 105.429 35.3445 105.543 35.5172C104.798 34.7113 103.767 34.3084 102.678 34.1357C101.99 34.0205 101.246 33.963 100.558 33.963L99.5837 29.4729C100.157 29.4729 100.787 29.5305 101.303 29.7608C101.532 29.8759 101.761 30.0486 101.99 30.2213C102.105 30.3364 102.162 30.4515 102.277 30.5667C102.334 30.6818 102.392 30.7969 102.506 30.9121C102.793 31.315 103.251 31.5453 103.71 31.4301C104.168 31.3726 104.569 30.9696 104.684 30.5091C104.741 30.2788 104.741 30.0486 104.627 29.8183C104.569 29.7032 104.512 29.5305 104.397 29.4154C104.34 29.3002 104.225 29.1276 104.111 29.0124C103.767 28.5519 103.366 28.149 102.907 27.8611C101.876 27.2279 100.672 26.9977 99.5264 27.0552C99.3545 27.0552 99.1826 27.0552 99.0679 27.1128L98.7814 25.7888C98.6668 25.3283 98.323 24.9829 97.8645 24.8678C97.4061 24.7526 96.8904 24.9253 96.6611 25.3283C96.4319 25.6161 96.3746 25.9615 96.4319 26.3069L96.7184 27.6309C95.6297 28.0338 94.5409 28.7246 93.8532 29.7032C93.5094 30.1637 93.2802 30.6818 93.1655 31.2574C93.0509 31.8331 93.0509 32.4663 93.1655 33.0419C93.2802 33.6176 93.5094 34.1932 93.9105 34.6537C94.2543 35.1143 94.7128 35.4597 95.2285 35.6899C96.26 36.208 97.4634 36.3231 98.6095 36.3807L99.641 41.0434C99.0679 40.9858 98.4949 40.8707 97.9792 40.5253C97.7499 40.3526 97.5207 40.1799 97.3488 39.9497C97.2342 39.8346 97.1769 39.7194 97.0623 39.6043C97.005 39.4892 96.9477 39.374 96.8331 39.2014C96.6038 38.7984 96.1454 38.5681 95.6296 38.6257C95.1712 38.6833 94.7701 39.0287 94.5982 39.4892C94.5409 39.7194 94.5409 39.9497 94.5982 40.1799C94.6555 40.2951 94.7128 40.4102 94.7701 40.5829C94.8274 40.698 94.942 40.8707 94.9993 40.9858C95.3431 41.5039 95.7443 41.9069 96.2027 42.2523C97.1196 42.943 98.2657 43.346 99.4691 43.4036C99.6983 43.4036 99.8702 43.4036 100.099 43.4036L100.386 44.7851C100.501 45.2456 100.844 45.591 101.303 45.7061C101.761 45.8213 102.277 45.6486 102.506 45.2456C102.735 44.9578 102.793 44.6124 102.735 44.267L102.449 43.0006C103.595 42.6552 104.741 42.022 105.486 41.101C106.231 40.1799 106.632 39.0287 106.518 37.8774C106.46 37.0139 106.174 36.1504 105.543 35.5172ZM98.4949 33.7903C98.2084 33.7903 97.9218 33.7327 97.6926 33.6752C97.4061 33.6176 97.1196 33.56 96.8331 33.4449C96.6038 33.3298 96.3173 33.2146 96.2027 32.9844C96.0308 32.7541 95.9735 32.4663 95.9162 32.1785C95.8589 31.8906 95.9162 31.6028 96.0308 31.3726C96.3173 30.6818 97.005 30.2213 97.6353 29.9335L98.4949 33.7903ZM104.569 38.7984C104.283 39.7194 103.309 40.2951 102.449 40.5829L101.532 36.2656C102.105 36.2656 102.678 36.3231 103.251 36.4958C103.538 36.5534 103.767 36.6685 103.996 36.8412C104.225 37.0139 104.34 37.1866 104.455 37.4168C104.627 37.8198 104.684 38.3379 104.569 38.7984Z" fill="#F2751C"/>
<path d="M166.458 101.026C181.903 101.026 194.423 88.4487 194.423 72.9343C194.423 57.4198 181.903 44.8428 166.458 44.8428C151.014 44.8428 138.494 57.4198 138.494 72.9343C138.494 88.4487 151.014 101.026 166.458 101.026Z" fill="url(#paint6_linear)"/>
<path d="M169.016 94.595C180.928 93.1804 189.443 82.3333 188.035 70.3673C186.627 58.4012 175.828 49.8476 163.916 51.2622C152.004 52.6767 143.489 63.5239 144.897 75.4899C146.306 87.4559 157.104 96.0096 169.016 94.595Z" fill="#EAEACD"/>
<path d="M168.135 87.1055C175.93 86.1799 181.502 79.082 180.58 71.252C179.659 63.422 172.593 57.8249 164.798 58.7505C157.003 59.6761 151.432 66.774 152.353 74.604C153.274 82.434 160.34 88.0311 168.135 87.1055Z" stroke="#4CCD9B" stroke-width="2.3858" stroke-miterlimit="10" stroke-linecap="round"/>
<path d="M166.755 75.3873C168.107 75.2268 169.073 73.9961 168.913 72.6385C168.753 71.2809 167.528 70.3104 166.177 70.4709C164.825 70.6314 163.859 71.862 164.019 73.2197C164.179 74.5773 165.404 75.5478 166.755 75.3873Z" fill="#239B6A"/>
<path d="M175.226 55.9526L166.458 72.9342" stroke="#239B6A" stroke-width="1.7894" stroke-miterlimit="10" stroke-linecap="round"/>
<path d="M180.326 71.2649L167.318 72.8191" stroke="#239B6A" stroke-width="1.7894" stroke-miterlimit="10" stroke-linecap="round"/>
<path d="M345.118 36.2562C354.01 34.3948 359.717 25.6445 357.864 16.7118C356.011 7.77913 347.3 2.04667 338.408 3.90803C329.515 5.76939 323.809 14.5197 325.662 23.4524C327.515 32.3851 336.226 38.1175 345.118 36.2562Z" fill="#EAEACD"/>
<path d="M353.271 31.8908C351.094 34.0207 348.286 35.6325 345.077 36.2657C336.195 38.1077 327.484 32.4089 325.593 23.4864C333.444 21.817 346.28 24.2347 353.271 31.8908Z" fill="#C8CBAC"/>
<path d="M338.888 25.2133L335.851 19.9174C335.679 19.6295 335.736 19.2266 335.966 18.9388L340.092 14.3912C340.321 14.1034 340.722 14.0458 341.008 14.2185L346.567 16.7513C346.911 16.924 347.083 17.2118 347.025 17.5572L346.338 23.6591C346.28 24.0044 346.051 24.2923 345.707 24.3498L339.748 25.6163C339.404 25.7314 339.06 25.5587 338.888 25.2133Z" fill="url(#paint7_linear)"/>
<path d="M348.688 8.40427L350.235 5.98656C348.917 5.18066 347.484 4.54744 345.937 4.14449C344.39 3.74154 342.785 3.56885 341.295 3.56885L341.467 6.44707C341.467 6.67733 341.639 6.85003 341.811 6.90759L348.115 8.57696C348.401 8.69209 348.573 8.57696 348.688 8.40427Z" fill="url(#paint8_linear)"/>
<path d="M332.814 9.78578L330.98 7.54077C328.631 9.55553 326.854 12.2035 325.938 15.3695L328.745 16.1179C328.975 16.1754 329.147 16.0603 329.261 15.8876L332.814 10.3614C332.986 10.1887 332.986 9.95848 332.814 9.78578Z" fill="url(#paint9_linear)"/>
<path d="M329.261 25.4433L326.568 26.4795C327.771 29.3577 329.777 31.8905 332.413 33.7326L333.96 31.3149C334.075 31.1422 334.075 30.9119 333.903 30.7392L329.777 25.616C329.662 25.3857 329.433 25.3282 329.261 25.4433Z" fill="url(#paint10_linear)"/>
<path d="M342.9 33.6752L343.072 36.5534C346.224 36.2656 349.261 35.1143 351.725 33.2147L349.891 30.9697C349.776 30.797 349.547 30.7394 349.318 30.797L343.186 33.1571C343.015 33.2723 342.9 33.4449 342.9 33.6752Z" fill="url(#paint11_linear)"/>
<path d="M354.246 16.118L354.589 22.6803C354.589 22.9106 354.761 23.0833 354.933 23.1408L357.741 23.8892C358.486 20.6656 358.257 17.4995 357.225 14.5637L354.532 15.5999C354.36 15.715 354.188 15.8877 354.246 16.118Z" fill="url(#paint12_linear)"/>
<path d="M259.98 63.2058C277.355 63.2058 291.44 49.0567 291.44 31.6029C291.44 14.1491 277.355 0 259.98 0C242.605 0 228.52 14.1491 228.52 31.6029C228.52 49.0567 242.605 63.2058 259.98 63.2058Z" fill="url(#paint13_linear)"/>
<path d="M276.885 48.5268L253.046 54.5135L252.415 52.0382C252.129 50.8294 252.874 49.563 254.077 49.2751L273.504 44.3822C274.707 44.0943 275.968 44.8427 276.254 46.0515L276.885 48.5268Z" fill="#EAEACD"/>
<path d="M276.314 46.4251L252.462 52.4062L252.99 54.5285L276.841 48.5473L276.314 46.4251Z" fill="#C8CBAC"/>
<path d="M272.759 44.5549L254.765 49.0449L254.479 47.8361C254.364 47.3756 254.651 46.8575 255.109 46.7423L271.326 42.6553C271.785 42.5401 272.301 42.828 272.415 43.2885L272.759 44.5549Z" fill="#D8D7BF"/>
<path d="M270.868 42.7703L255.567 46.6271C256.484 40.7555 256.542 35.0567 255.797 29.588L262.73 27.8611C264.564 33.56 267.315 38.5105 270.868 42.7703Z" fill="#EAEACD"/>
<path d="M263.304 27.6885L255.224 29.7033C254.994 29.7609 254.708 29.5882 254.651 29.3579L254.536 28.8398C254.479 28.6096 254.651 28.3218 254.88 28.2642L262.96 26.2494C263.189 26.1919 263.476 26.3646 263.533 26.5948L263.647 27.1129C263.705 27.4007 263.533 27.631 263.304 27.6885Z" fill="#D8D7BF"/>
<path d="M261.756 21.5291L253.676 23.5439C253.447 23.6015 253.161 23.4288 253.103 23.1985L252.989 22.6804C252.931 22.4502 253.103 22.1623 253.332 22.1048L261.412 20.09C261.642 20.0324 261.928 20.2051 261.986 20.4354L262.1 20.9535C262.157 21.2413 262.043 21.4716 261.756 21.5291Z" fill="#EAEACD"/>
<path d="M260.837 21.7759L254.61 23.3374L255.443 26.6883L261.67 25.1268L260.837 21.7759Z" fill="#C8CBAC"/>
<path d="M255.025 11.6177C256.008 11.3713 256.606 10.3714 256.36 9.38438C256.115 8.39735 255.12 7.79696 254.137 8.04336C253.154 8.28976 252.557 9.28964 252.802 10.2767C253.047 11.2637 254.043 11.8641 255.025 11.6177Z" fill="#C8CBAC"/>
<path d="M256.868 19.0867C259.141 18.5169 260.523 16.2047 259.956 13.9222C259.388 11.6397 257.087 10.2513 254.814 10.8211C252.542 11.3909 251.16 13.7031 251.727 15.9856C252.294 18.2681 254.596 19.6565 256.868 19.0867Z" fill="#C8CBAC"/>
<path d="M260.495 20.3778L254.249 21.932L249.378 14.7365C250.353 14.4486 251.155 14.6213 251.9 15.2545C253.963 12.549 256.656 11.9734 259.865 13.2398C259.922 12.4339 260.553 11.9734 261.527 11.6855L260.495 20.3778Z" fill="#D8D7BF"/>
<path d="M262.959 26.307L254.879 28.3217C254.65 28.3793 254.364 28.2066 254.306 27.9763L254.192 27.4582C254.134 27.228 254.306 26.9402 254.536 26.8826L262.616 24.8678C262.845 24.8103 263.131 24.983 263.189 25.2132L263.303 25.7313C263.361 25.9616 263.189 26.2494 262.959 26.307Z" fill="#EAEACD"/>
<defs>
<linearGradient id="paint0_linear" x1="229.515" y1="242.003" x2="229.515" y2="-22.5587" gradientUnits="userSpaceOnUse">
<stop stop-color="#B4CAE8"/>
<stop offset="1" stop-color="#FBFBFE"/>
</linearGradient>
<linearGradient id="paint1_linear" x1="272.37" y1="271.824" x2="272.37" y2="137.509" gradientUnits="userSpaceOnUse">
<stop stop-color="#239B6A"/>
<stop offset="0.1273" stop-color="#2CA675"/>
<stop offset="0.4309" stop-color="#3EBC8A"/>
<stop offset="0.7259" stop-color="#48C997"/>
<stop offset="1" stop-color="#4CCD9B"/>
</linearGradient>
<linearGradient id="paint2_linear" x1="369.697" y1="262.816" x2="369.697" y2="137.062" gradientUnits="userSpaceOnUse">
<stop stop-color="#239B6A"/>
<stop offset="0.2873" stop-color="#32AE7C"/>
<stop offset="0.7242" stop-color="#45C593"/>
<stop offset="1" stop-color="#4CCD9B"/>
</linearGradient>
<linearGradient id="paint3_linear" x1="114.96" y1="221.802" x2="109.992" y2="167.464" gradientUnits="userSpaceOnUse">
<stop stop-color="#F1B827"/>
<stop offset="1" stop-color="#FECC4D"/>
</linearGradient>
<linearGradient id="paint4_linear" x1="65.6097" y1="217.89" x2="58.7722" y2="159.083" gradientUnits="userSpaceOnUse">
<stop offset="0.0051282" stop-color="#F8980F"/>
<stop offset="1" stop-color="#FECC4D"/>
</linearGradient>
<linearGradient id="paint5_linear" x1="99.252" y1="49.076" x2="92.2467" y2="16.8027" gradientUnits="userSpaceOnUse">
<stop stop-color="#F2751C"/>
<stop offset="1" stop-color="#FFC400"/>
</linearGradient>
<linearGradient id="paint6_linear" x1="138.714" y1="76.2213" x2="194.229" y2="69.6882" gradientUnits="userSpaceOnUse">
<stop stop-color="#239B6A"/>
<stop offset="1" stop-color="#4CCD9B"/>
</linearGradient>
<linearGradient id="paint7_linear" x1="336.016" y1="20.7712" x2="347.267" y2="18.4373" gradientUnits="userSpaceOnUse">
<stop stop-color="#4263EB"/>
<stop offset="1" stop-color="#1F46E7"/>
</linearGradient>
<linearGradient id="paint8_linear" x1="339.778" y1="4.42478" x2="351.16" y2="7.44909" gradientUnits="userSpaceOnUse">
<stop stop-color="#4263EB"/>
<stop offset="1" stop-color="#1F46E7"/>
</linearGradient>
<linearGradient id="paint9_linear" x1="326.305" y1="17.1207" x2="332.749" y2="7.22233" gradientUnits="userSpaceOnUse">
<stop stop-color="#4263EB"/>
<stop offset="1" stop-color="#1F46E7"/>
</linearGradient>
<linearGradient id="paint10_linear" x1="334.07" y1="33.9201" x2="326.612" y2="24.7693" gradientUnits="userSpaceOnUse">
<stop stop-color="#4263EB"/>
<stop offset="1" stop-color="#1F46E7"/>
</linearGradient>
<linearGradient id="paint11_linear" x1="352.384" y1="31.6319" x2="341.384" y2="35.8467" gradientUnits="userSpaceOnUse">
<stop stop-color="#4263EB"/>
<stop offset="1" stop-color="#1F46E7"/>
</linearGradient>
<linearGradient id="paint12_linear" x1="355.946" y1="13.4145" x2="356.58" y2="25.2238" gradientUnits="userSpaceOnUse">
<stop stop-color="#4263EB"/>
<stop offset="1" stop-color="#1F46E7"/>
</linearGradient>
<linearGradient id="paint13_linear" x1="229.471" y1="39.2368" x2="290.512" y2="24.0675" gradientUnits="userSpaceOnUse">
<stop stop-color="#4263EB"/>
<stop offset="1" stop-color="#1F46E7"/>
</linearGradient>
</defs>
</svg>
