<svg width="455" height="277" viewBox="0 0 455 277" fill="none" xmlns="http://www.w3.org/2000/svg">
<g clip-path="url(#clip0)">
<path d="M33.5028 266.135L440.004 266.455C392.908 244.336 417.477 168.836 377.018 139.94C344.537 115.072 341.729 155.091 305.354 132.46C267.321 106.889 282.317 51.0791 216.332 51.0791C153.156 51.0791 154.241 116.095 123.035 134.954C91.0638 153.429 74.3443 143.84 52.0091 159.822C17.1662 185.969 18.5063 243.121 0 266.199H33.5028V266.135Z" fill="url(#paint0_linear)"/>
<path d="M16.5279 115.711C20.0378 114.305 23.4199 117.501 27.3127 116.862C35.6724 114.305 38.7355 103.565 46.2019 103.565C50.0946 103.629 51.8814 106.441 55.9017 107.081C62.4108 107.72 73.0679 85.6646 91.8295 89.2446C111.357 94.1032 113.08 114.816 128.395 122.424H9.5083C11.4866 118.908 13.5286 116.67 16.5279 115.711Z" fill="#E7EDF8"/>
<path d="M441.407 80.8697L299.483 80.55C300.632 77.4175 301.844 74.4129 304.46 72.9425C307.205 71.3443 309.247 74.1572 312.31 71.6639C314.352 69.7461 314.99 65.9103 316.968 64.44C319.967 62.3943 322.584 65.335 325.647 63.3532C328.072 60.6043 328.136 56.8964 328.774 53.4442C329.731 48.4578 331.135 43.791 336.559 40.8503C352.705 33.6903 373.444 72.3032 384.867 73.1982C391.695 73.1982 395.014 59.3896 403.565 59.3896C413.648 59.3896 429.984 73.4539 441.407 80.8697Z" fill="#E7EDF8"/>
<path d="M402.672 150.552H376.699C368.914 150.552 362.532 156.881 362.532 164.744C362.532 175.804 353.534 184.818 342.494 184.818H324.307C316.841 184.818 310.204 180.023 307.779 172.927L301.142 153.173C298.143 144.351 285.763 143.968 282.317 152.662L276.446 167.365C273.702 174.334 266.938 178.873 259.471 178.873H219.906C211.163 178.873 203.059 174.206 198.719 166.598L187.679 147.356C184.744 142.242 177.405 141.922 174.087 146.844L171.279 151C167.642 156.306 159.601 155.667 156.921 149.849L151.113 127.154C148.497 121.529 140.648 121.209 137.521 126.515L134.905 130.99C132.607 134.89 128.395 137.319 123.865 137.319C119.461 137.319 115.569 134.378 114.356 130.095L95.9136 63.8009C93.9992 56.8966 84.1717 56.9605 82.3211 63.8648L77.7902 80.8699C76.3225 86.3038 69.4305 87.9021 65.7292 83.6828L57.3694 74.0934C56.0293 72.5592 54.1149 71.6642 52.0728 71.6642H13.6562" stroke="#239B6A" stroke-width="1.5196" stroke-miterlimit="10" stroke-linecap="round"/>
<path d="M330.944 189.421C333.481 189.421 335.538 187.36 335.538 184.818C335.538 182.276 333.481 180.215 330.944 180.215C328.406 180.215 326.349 182.276 326.349 184.818C326.349 187.36 328.406 189.421 330.944 189.421Z" fill="#239B6A"/>
<path d="M330.944 187.183C332.248 187.183 333.305 186.124 333.305 184.818C333.305 183.512 332.248 182.453 330.944 182.453C329.64 182.453 328.583 183.512 328.583 184.818C328.583 186.124 329.64 187.183 330.944 187.183Z" fill="white"/>
<path d="M34.9702 75.6276C37.5077 75.6276 39.5648 73.5668 39.5648 71.0247C39.5648 68.4826 37.5077 66.4219 34.9702 66.4219C32.4326 66.4219 30.3755 68.4826 30.3755 71.0247C30.3755 73.5668 32.4326 75.6276 34.9702 75.6276Z" fill="#239B6A"/>
<path d="M34.97 73.3901C36.2741 73.3901 37.3312 72.3311 37.3312 71.0248C37.3312 69.7184 36.2741 68.6594 34.97 68.6594C33.666 68.6594 32.6089 69.7184 32.6089 71.0248C32.6089 72.3311 33.666 73.3901 34.97 73.3901Z" fill="white"/>
<path d="M130.948 61.819H167.769C172.364 61.819 176.321 58.5586 177.214 54.0197L185.829 9.781C187.169 2.74884 197.252 2.8767 198.401 9.97279L205.675 53.5722C206.633 59.3258 214.929 59.3258 215.822 53.5722L219.97 28.1925C220.927 22.375 229.287 22.375 230.244 28.1925L247.602 95.1259C249.389 105.994 258.769 113.985 269.746 113.985H332.667" stroke="#F2751C" stroke-width="1.5" stroke-miterlimit="10" stroke-linecap="round" stroke-dasharray="1 1"/>
<path d="M191.828 9.20574C194.365 9.20574 196.422 7.14496 196.422 4.60287C196.422 2.06078 194.365 0 191.828 0C189.29 0 187.233 2.06078 187.233 4.60287C187.233 7.14496 189.29 9.20574 191.828 9.20574Z" fill="#F2751C"/>
<path d="M191.827 6.96827C193.132 6.96827 194.189 5.90927 194.189 4.60291C194.189 3.29656 193.132 2.23755 191.827 2.23755C190.523 2.23755 189.466 3.29656 189.466 4.60291C189.466 5.90927 190.523 6.96827 191.827 6.96827Z" fill="white"/>
<path d="M160.558 171.073H112.825C108.039 171.073 103.444 172.991 100.062 176.379L93.9994 182.453C90.6172 185.841 86.0226 187.759 81.2365 187.759H2.74414" stroke="#4263EB" stroke-width="1.5" stroke-miterlimit="10" stroke-linecap="round" stroke-dasharray="5 5"/>
<path d="M122.971 175.676C125.509 175.676 127.566 173.615 127.566 171.073C127.566 168.531 125.509 166.47 122.971 166.47C120.434 166.47 118.376 168.531 118.376 171.073C118.376 173.615 120.434 175.676 122.971 175.676Z" fill="#4263EB"/>
<path d="M122.971 173.439C124.275 173.439 125.332 172.38 125.332 171.073C125.332 169.767 124.275 168.708 122.971 168.708C121.667 168.708 120.61 169.767 120.61 171.073C120.61 172.38 121.667 173.439 122.971 173.439Z" fill="white"/>
<path d="M30.8867 191.658C33.4242 191.658 35.4813 189.598 35.4813 187.055C35.4813 184.513 33.4242 182.453 30.8867 182.453C28.3491 182.453 26.292 184.513 26.292 187.055C26.292 189.598 28.3491 191.658 30.8867 191.658Z" fill="#4263EB"/>
<path d="M30.8865 189.421C32.1906 189.421 33.2477 188.362 33.2477 187.056C33.2477 185.749 32.1906 184.69 30.8865 184.69C29.5825 184.69 28.5254 185.749 28.5254 187.056C28.5254 188.362 29.5825 189.421 30.8865 189.421Z" fill="white"/>
<path d="M224.118 168.708C224.118 168.708 234.201 234.938 261.96 247.404C289.72 259.87 311.927 266.008 311.927 266.008C311.927 266.008 232.797 277.067 224.501 266.966C193.104 228.801 224.118 168.708 224.118 168.708Z" fill="url(#paint1_linear)"/>
<path d="M216.524 158.735C196.677 143.648 167.45 141.986 142.69 157.584C122.269 178.553 155.644 238.262 149.773 268.948L232.796 270.546C221.31 238.262 227.372 202.079 224.118 168.772C223.799 164.936 219.523 160.973 216.524 158.735Z" fill="#FECC4D"/>
<path d="M148.689 239.477C148.689 239.477 170.832 177.914 163.175 167.877C155.517 157.84 145.051 153.749 140.393 159.31C136.117 164.425 99.4873 239.541 114.931 264.09C122.397 275.916 189.211 266.135 189.211 266.135L207.143 250.601C207.143 250.601 150.731 239.029 148.689 239.477Z" fill="url(#paint2_linear)"/>
<path d="M229.159 101.071C229.159 101.071 235.222 111.044 221.438 125.236C207.654 139.429 219.97 101.966 219.97 101.966L229.159 101.071Z" fill="#4263EB"/>
<path d="M225.011 98.7059C225.649 116.67 223.99 128.497 217.8 140.963C216.077 144.415 212.248 146.78 208.356 146.589H207.973C205.931 146.461 204.463 147.228 203.378 149.018L202.995 159.119C202.995 159.886 202.804 160.717 202.421 161.42C194.827 177.083 173.513 167.11 168.663 154.771C167.961 152.917 167.961 150.872 168.599 149.018L177.98 132.524L189.211 88.9248L225.011 98.7059Z" fill="white"/>
<path d="M225.139 108.04C219.013 113.282 203.187 101.199 195.273 104.396C191.189 106.058 194.954 110.98 190.551 113.921C187.999 115.583 189.53 113.154 189.02 112.451C187.679 110.597 181.234 120.186 183.212 121.592L178.49 134.378C177.469 135.401 175.746 134.954 175.363 133.547C171.79 121.017 172.492 111.428 174.853 98.7699C177.15 86.2399 190.232 77.4817 205.931 81.9567C218.757 78.952 249.58 87.3267 225.139 108.04Z" fill="#4263EB"/>
<path d="M208.994 146.525C208.994 146.525 201.144 147.611 194.189 141.474C191.636 139.237 189.53 136.296 188.637 130.99C188.637 130.99 189.53 175.868 199.868 165.639C208.292 157.329 200.825 156.434 204.846 147.739C205.356 146.716 208.994 146.525 208.994 146.525Z" fill="#EAEACD"/>
<path d="M186.692 124.259C189.96 123.995 192.341 120.471 192.012 116.389C191.683 112.306 188.768 109.211 185.501 109.475C182.234 109.74 179.852 113.263 180.181 117.346C180.51 121.428 183.425 124.524 186.692 124.259Z" fill="white"/>
<path d="M201.336 266.135C201.272 266.135 189.211 266.135 189.211 266.135C188.765 262.875 193.806 249.386 197.061 247.468C197.635 247.148 198.273 246.765 198.847 246.445C202.485 244.463 206.569 243.824 210.462 244.4L229.734 249.13C230.946 249.45 231.393 251.048 230.563 252.135L229.415 253.669C228.075 255.395 226.096 256.418 224.054 256.482C221.948 256.482 219.332 256.482 217.737 256.354C215.567 256.226 213.078 255.971 211.419 257.505C211.419 257.441 209.951 266.199 201.336 266.135Z" fill="white"/>
<path d="M450.406 266.135H11.6782V276.364H450.406V266.135Z" fill="white"/>
<path d="M70.7067 224.709H1.78662V266.263H70.7067V224.709Z" fill="#96B7E1"/>
<path d="M90.553 260.893L70.7065 266.263V224.709L90.553 227.394V260.893Z" fill="#4263EB"/>
<path d="M78.9389 239.861H24.0581V276.939H78.9389V239.861Z" fill="#D9EDF6"/>
<path d="M78.939 239.861L96.9986 242.546V271.633L78.939 276.939V239.861Z" fill="#96B7E1"/>
<path d="M33.1196 245.422H79.194" stroke="#96B7E1" stroke-width="1.6832" stroke-miterlimit="10" stroke-linecap="round"/>
<path d="M52.9663 249.386H79.1942" stroke="#96B7E1" stroke-width="1.6832" stroke-miterlimit="10" stroke-linecap="round"/>
<path d="M24.0581 260.701H58.2629" stroke="#96B7E1" stroke-width="1.6832" stroke-miterlimit="10" stroke-linecap="round"/>
<path d="M24.0581 264.985H37.7145" stroke="#96B7E1" stroke-width="1.6832" stroke-miterlimit="10" stroke-linecap="round"/>
<path d="M400.095 277L454.976 277L454.976 239.921L400.095 239.921L400.095 277Z" fill="#D9EDF6"/>
<path d="M400.183 239.861L382.06 242.546V271.633L400.183 276.939V239.861Z" fill="#96B7E1"/>
<path d="M446.002 264.985H399.928" stroke="#96B7E1" stroke-width="1.6832" stroke-miterlimit="10" stroke-linecap="round"/>
<path d="M426.155 261.021H399.864" stroke="#96B7E1" stroke-width="1.6832" stroke-miterlimit="10" stroke-linecap="round"/>
<path d="M455 249.706H420.859" stroke="#96B7E1" stroke-width="1.6832" stroke-miterlimit="10" stroke-linecap="round"/>
<path d="M455 245.422H441.407" stroke="#96B7E1" stroke-width="1.6832" stroke-miterlimit="10" stroke-linecap="round"/>
<path d="M277.467 266.2H223.607C218.183 266.2 213.78 261.788 213.78 256.354H277.531V266.2H277.467Z" fill="#1F46E7"/>
<path d="M349.45 266.2H260.556L274.021 201.951C274.468 199.778 276.255 198.371 278.616 198.371H362.788C369.105 198.371 369.297 200.673 368.467 204.828L356.917 260.062C356.215 263.642 353.088 266.2 349.45 266.2Z" fill="#4263EB"/>
<path d="M349.45 266.2C353.088 266.2 356.215 263.642 356.917 260.126L366.17 215.888C336.56 251.432 281.487 224.135 264.704 266.2H349.45Z" fill="#3054E9"/>
<path d="M324.626 235.322C323.478 239.221 319.712 242.226 316.203 241.97C312.693 241.715 310.842 238.39 311.991 234.491C313.14 230.591 316.905 227.586 320.414 227.842C323.86 228.034 325.775 231.422 324.626 235.322Z" fill="white"/>
<path d="M376.699 106.569L376.763 166.215C376.763 166.598 377.082 166.918 377.465 166.918L419.136 166.854C419.519 166.854 419.838 166.534 419.838 166.151L419.774 117.309L408.224 105.802L377.401 105.866C377.018 105.802 376.699 106.122 376.699 106.569Z" fill="#FFC400"/>
<path d="M375.423 163.466C375.295 163.466 375.168 163.338 375.168 163.21L375.104 103.565C375.104 103.437 375.232 103.309 375.359 103.309L405.99 103.245L417.222 114.496L417.286 163.146C417.286 163.274 417.158 163.402 417.03 163.402L375.423 163.466Z" fill="white"/>
<path d="M405.799 103.884L416.775 114.816L416.839 162.954L375.678 163.018L375.614 103.948L405.799 103.884ZM406.182 102.925L375.359 102.989C374.912 102.989 374.593 103.309 374.593 103.692L374.657 163.338C374.657 163.722 374.976 164.041 375.359 164.041L417.03 163.977C417.413 163.977 417.732 163.658 417.732 163.274L417.668 114.432L406.182 102.925Z" fill="#FFC400"/>
<path d="M417.221 115.072L405.671 103.565V114.433C405.671 114.816 405.99 115.136 406.373 115.136L417.221 115.072Z" fill="#FFC400"/>
<path d="M382.531 126.26C382.707 126.26 382.851 126.247 382.963 126.22C383.081 126.188 383.174 126.148 383.243 126.1C383.313 126.047 383.361 125.985 383.387 125.916C383.414 125.847 383.427 125.769 383.427 125.684C383.427 125.503 383.342 125.353 383.171 125.236C383.001 125.113 382.707 124.983 382.291 124.844C382.11 124.78 381.929 124.708 381.747 124.628C381.566 124.543 381.403 124.439 381.259 124.316C381.115 124.188 380.998 124.036 380.907 123.86C380.817 123.679 380.771 123.46 380.771 123.204C380.771 122.948 380.819 122.719 380.915 122.516C381.011 122.308 381.147 122.132 381.323 121.988C381.499 121.844 381.713 121.735 381.963 121.66C382.214 121.58 382.497 121.54 382.811 121.54C383.185 121.54 383.507 121.58 383.779 121.66C384.051 121.74 384.275 121.828 384.451 121.924L384.091 122.908C383.937 122.828 383.763 122.759 383.571 122.7C383.385 122.636 383.158 122.604 382.891 122.604C382.593 122.604 382.377 122.647 382.243 122.732C382.115 122.812 382.051 122.937 382.051 123.108C382.051 123.209 382.075 123.295 382.123 123.364C382.171 123.433 382.238 123.497 382.323 123.556C382.414 123.609 382.515 123.66 382.627 123.708C382.745 123.751 382.873 123.796 383.011 123.844C383.299 123.951 383.55 124.057 383.763 124.164C383.977 124.265 384.153 124.385 384.291 124.524C384.435 124.663 384.542 124.825 384.611 125.012C384.681 125.199 384.715 125.425 384.715 125.692C384.715 126.209 384.534 126.612 384.171 126.9C383.809 127.183 383.262 127.324 382.531 127.324C382.286 127.324 382.065 127.308 381.867 127.276C381.67 127.249 381.494 127.215 381.339 127.172C381.19 127.129 381.059 127.084 380.947 127.036C380.841 126.988 380.75 126.943 380.675 126.9L381.027 125.908C381.193 125.999 381.395 126.081 381.635 126.156C381.881 126.225 382.179 126.26 382.531 126.26ZM389.631 121.668V122.732H387.959V127.212H386.711V122.732H385.039V121.668H389.631ZM391.294 124.436C391.294 124.708 391.326 124.953 391.39 125.172C391.459 125.391 391.555 125.58 391.678 125.74C391.806 125.895 391.961 126.015 392.142 126.1C392.323 126.185 392.531 126.228 392.766 126.228C392.995 126.228 393.201 126.185 393.382 126.1C393.569 126.015 393.723 125.895 393.846 125.74C393.974 125.58 394.07 125.391 394.134 125.172C394.203 124.953 394.238 124.708 394.238 124.436C394.238 124.164 394.203 123.919 394.134 123.7C394.07 123.476 393.974 123.287 393.846 123.132C393.723 122.972 393.569 122.849 393.382 122.764C393.201 122.679 392.995 122.636 392.766 122.636C392.531 122.636 392.323 122.681 392.142 122.772C391.961 122.857 391.806 122.98 391.678 123.14C391.555 123.295 391.459 123.484 391.39 123.708C391.326 123.927 391.294 124.169 391.294 124.436ZM395.526 124.436C395.526 124.911 395.454 125.329 395.31 125.692C395.171 126.049 394.979 126.351 394.734 126.596C394.489 126.836 394.195 127.017 393.854 127.14C393.518 127.263 393.155 127.324 392.766 127.324C392.387 127.324 392.03 127.263 391.694 127.14C391.358 127.017 391.065 126.836 390.814 126.596C390.563 126.351 390.366 126.049 390.222 125.692C390.078 125.329 390.006 124.911 390.006 124.436C390.006 123.961 390.081 123.545 390.23 123.188C390.379 122.825 390.579 122.521 390.83 122.276C391.086 122.031 391.379 121.847 391.71 121.724C392.046 121.601 392.398 121.54 392.766 121.54C393.145 121.54 393.502 121.601 393.838 121.724C394.174 121.847 394.467 122.031 394.718 122.276C394.969 122.521 395.166 122.825 395.31 123.188C395.454 123.545 395.526 123.961 395.526 124.436ZM398.19 121.604C399.022 121.604 399.66 121.753 400.102 122.052C400.545 122.345 400.766 122.804 400.766 123.428C400.766 123.817 400.676 124.135 400.494 124.38C400.318 124.62 400.062 124.809 399.726 124.948C399.838 125.087 399.956 125.247 400.078 125.428C400.201 125.604 400.321 125.791 400.438 125.988C400.561 126.18 400.678 126.383 400.79 126.596C400.902 126.804 401.006 127.009 401.102 127.212H399.702C399.601 127.031 399.497 126.847 399.39 126.66C399.289 126.473 399.182 126.292 399.07 126.116C398.964 125.94 398.857 125.775 398.75 125.62C398.644 125.46 398.537 125.316 398.43 125.188H397.814V127.212H396.566V121.748C396.838 121.695 397.118 121.657 397.406 121.636C397.7 121.615 397.961 121.604 398.19 121.604ZM398.262 122.668C398.172 122.668 398.089 122.671 398.014 122.676C397.945 122.681 397.878 122.687 397.814 122.692V124.196H398.166C398.636 124.196 398.972 124.137 399.174 124.02C399.377 123.903 399.478 123.703 399.478 123.42C399.478 123.148 399.374 122.956 399.166 122.844C398.964 122.727 398.662 122.668 398.262 122.668ZM403.669 123.948C403.893 123.569 404.106 123.191 404.309 122.812C404.511 122.433 404.698 122.052 404.869 121.668H406.245C405.941 122.265 405.626 122.844 405.301 123.404C404.975 123.964 404.631 124.527 404.269 125.092V127.212H403.021V125.108C402.658 124.543 402.311 123.977 401.981 123.412C401.655 122.847 401.341 122.265 401.037 121.668H402.485C402.655 122.052 402.839 122.433 403.037 122.812C403.234 123.191 403.445 123.569 403.669 123.948ZM410.76 123.124C410.552 123.396 410.33 123.692 410.096 124.012C409.861 124.332 409.664 124.66 409.504 124.996H410.76V123.124ZM411.928 121.668V124.996H412.52V125.972H411.928V127.212H410.76V125.972H408.368V125.1C408.485 124.865 408.632 124.601 408.808 124.308C408.984 124.009 409.178 123.705 409.392 123.396C409.61 123.081 409.84 122.775 410.08 122.476C410.32 122.177 410.56 121.908 410.8 121.668H411.928Z" fill="#FFC400"/>
<path d="M381.358 133.419H410.84" stroke="#FFC400" stroke-width="1.52" stroke-miterlimit="10" stroke-linecap="round"/>
<path d="M381.358 137.255H410.84" stroke="#FFC400" stroke-width="1.52" stroke-miterlimit="10" stroke-linecap="round"/>
<path d="M381.358 141.091H410.84" stroke="#FFC400" stroke-width="1.52" stroke-miterlimit="10" stroke-linecap="round"/>
<path d="M381.358 144.927H410.84" stroke="#FFC400" stroke-width="1.52" stroke-miterlimit="10" stroke-linecap="round"/>
<path d="M381.358 148.762H410.84" stroke="#FFC400" stroke-width="1.52" stroke-miterlimit="10" stroke-linecap="round"/>
<path d="M381.358 152.598H410.84" stroke="#FFC400" stroke-width="1.52" stroke-miterlimit="10" stroke-linecap="round"/>
<path d="M47.3506 102.606L47.4144 162.251C47.4144 162.635 47.7335 162.954 48.1164 162.954L89.7875 162.891C90.1704 162.891 90.4895 162.571 90.4895 162.187L90.4256 113.346L78.8751 101.839L48.0526 101.903C47.6697 101.903 47.3506 102.222 47.3506 102.606Z" fill="#4CCD9B"/>
<path d="M46.0744 159.566C45.9468 159.566 45.8192 159.438 45.8192 159.311L45.7554 99.6651C45.7554 99.5372 45.883 99.4094 46.0106 99.4094L76.6418 99.3455L87.8732 110.597L87.937 159.247C87.937 159.375 87.8094 159.502 87.6817 159.502L46.0744 159.566Z" fill="white"/>
<path d="M76.5141 99.9208L87.4902 110.853L87.554 158.991L46.3934 159.055L46.3296 99.9848L76.5141 99.9208ZM76.897 98.9619L46.0744 99.0258C45.6277 99.0258 45.3086 99.3455 45.3086 99.7291L45.3724 159.375C45.3724 159.758 45.6915 160.078 46.0744 160.078L87.7455 160.014C88.1284 160.014 88.4475 159.694 88.4475 159.311L88.3836 110.469L76.897 98.9619Z" fill="#4CCD9B"/>
<path d="M88.4475 110.469L76.897 98.9619V109.83C76.897 110.213 77.2161 110.533 77.5989 110.533L88.4475 110.469Z" fill="#4CCD9B"/>
<path d="M53.2194 122.341C53.3954 122.341 53.5394 122.327 53.6514 122.301C53.7687 122.269 53.862 122.229 53.9314 122.181C54.0007 122.127 54.0487 122.066 54.0754 121.997C54.102 121.927 54.1154 121.85 54.1154 121.765C54.1154 121.583 54.03 121.434 53.8594 121.317C53.6887 121.194 53.3954 121.063 52.9794 120.925C52.798 120.861 52.6167 120.789 52.4354 120.709C52.254 120.623 52.0914 120.519 51.9474 120.397C51.8034 120.269 51.686 120.117 51.5954 119.941C51.5047 119.759 51.4594 119.541 51.4594 119.285C51.4594 119.029 51.5074 118.799 51.6034 118.597C51.6994 118.389 51.8354 118.213 52.0114 118.069C52.1874 117.925 52.4007 117.815 52.6514 117.741C52.902 117.661 53.1847 117.621 53.4994 117.621C53.8727 117.621 54.1954 117.661 54.4674 117.741C54.7394 117.821 54.9634 117.909 55.1394 118.005L54.7794 118.989C54.6247 118.909 54.4514 118.839 54.2594 118.781C54.0727 118.717 53.846 118.685 53.5794 118.685C53.2807 118.685 53.0647 118.727 52.9314 118.813C52.8034 118.893 52.7394 119.018 52.7394 119.189C52.7394 119.29 52.7634 119.375 52.8114 119.445C52.8594 119.514 52.926 119.578 53.0114 119.637C53.102 119.69 53.2034 119.741 53.3154 119.789C53.4327 119.831 53.5607 119.877 53.6994 119.925C53.9874 120.031 54.238 120.138 54.4514 120.245C54.6647 120.346 54.8407 120.466 54.9794 120.605C55.1234 120.743 55.23 120.906 55.2994 121.093C55.3687 121.279 55.4034 121.506 55.4034 121.773C55.4034 122.29 55.222 122.693 54.8594 122.981C54.4967 123.263 53.95 123.405 53.2194 123.405C52.974 123.405 52.7527 123.389 52.5554 123.357C52.358 123.33 52.182 123.295 52.0274 123.253C51.878 123.21 51.7474 123.165 51.6354 123.117C51.5287 123.069 51.438 123.023 51.3634 122.981L51.7154 121.989C51.8807 122.079 52.0834 122.162 52.3234 122.237C52.5687 122.306 52.8674 122.341 53.2194 122.341ZM60.3194 117.749V118.813H58.6474V123.293H57.3994V118.813H55.7274V117.749H60.3194ZM61.9819 120.517C61.9819 120.789 62.0139 121.034 62.0779 121.253C62.1473 121.471 62.2433 121.661 62.3659 121.821C62.4939 121.975 62.6486 122.095 62.8299 122.181C63.0113 122.266 63.2193 122.309 63.4539 122.309C63.6833 122.309 63.8886 122.266 64.0699 122.181C64.2566 122.095 64.4113 121.975 64.5339 121.821C64.6619 121.661 64.7579 121.471 64.8219 121.253C64.8913 121.034 64.9259 120.789 64.9259 120.517C64.9259 120.245 64.8913 119.999 64.8219 119.781C64.7579 119.557 64.6619 119.367 64.5339 119.213C64.4113 119.053 64.2566 118.93 64.0699 118.845C63.8886 118.759 63.6833 118.717 63.4539 118.717C63.2193 118.717 63.0113 118.762 62.8299 118.853C62.6486 118.938 62.4939 119.061 62.3659 119.221C62.2433 119.375 62.1473 119.565 62.0779 119.789C62.0139 120.007 61.9819 120.25 61.9819 120.517ZM66.2139 120.517C66.2139 120.991 66.1419 121.41 65.9979 121.773C65.8593 122.13 65.6673 122.431 65.4219 122.677C65.1766 122.917 64.8833 123.098 64.5419 123.221C64.2059 123.343 63.8433 123.405 63.4539 123.405C63.0753 123.405 62.7179 123.343 62.3819 123.221C62.0459 123.098 61.7526 122.917 61.5019 122.677C61.2513 122.431 61.0539 122.13 60.9099 121.773C60.7659 121.41 60.6939 120.991 60.6939 120.517C60.6939 120.042 60.7686 119.626 60.9179 119.269C61.0673 118.906 61.2673 118.602 61.5179 118.357C61.7739 118.111 62.0673 117.927 62.3979 117.805C62.7339 117.682 63.0859 117.621 63.4539 117.621C63.8326 117.621 64.1899 117.682 64.5259 117.805C64.8619 117.927 65.1553 118.111 65.4059 118.357C65.6566 118.602 65.8539 118.906 65.9979 119.269C66.1419 119.626 66.2139 120.042 66.2139 120.517ZM68.8783 117.685C69.7103 117.685 70.3476 117.834 70.7903 118.133C71.2329 118.426 71.4543 118.885 71.4543 119.509C71.4543 119.898 71.3636 120.215 71.1823 120.461C71.0063 120.701 70.7503 120.89 70.4143 121.029C70.5263 121.167 70.6436 121.327 70.7663 121.509C70.8889 121.685 71.0089 121.871 71.1263 122.069C71.2489 122.261 71.3663 122.463 71.4783 122.677C71.5903 122.885 71.6943 123.09 71.7903 123.293H70.3903C70.2889 123.111 70.1849 122.927 70.0783 122.741C69.9769 122.554 69.8703 122.373 69.7583 122.197C69.6516 122.021 69.5449 121.855 69.4383 121.701C69.3316 121.541 69.2249 121.397 69.1183 121.269H68.5023V123.293H67.2543V117.829C67.5263 117.775 67.8063 117.738 68.0943 117.717C68.3876 117.695 68.6489 117.685 68.8783 117.685ZM68.9503 118.749C68.8596 118.749 68.7769 118.751 68.7023 118.757C68.6329 118.762 68.5663 118.767 68.5023 118.773V120.277H68.8543C69.3236 120.277 69.6596 120.218 69.8623 120.101C70.0649 119.983 70.1663 119.783 70.1663 119.501C70.1663 119.229 70.0623 119.037 69.8543 118.925C69.6516 118.807 69.3503 118.749 68.9503 118.749ZM74.3566 120.029C74.5806 119.65 74.7939 119.271 74.9966 118.893C75.1992 118.514 75.3859 118.133 75.5566 117.749H76.9326C76.6286 118.346 76.3139 118.925 75.9886 119.485C75.6632 120.045 75.3192 120.607 74.9566 121.173V123.293H73.7086V121.189C73.3459 120.623 72.9992 120.058 72.6686 119.493C72.3432 118.927 72.0286 118.346 71.7246 117.749H73.1726C73.3432 118.133 73.5272 118.514 73.7246 118.893C73.9219 119.271 74.1326 119.65 74.3566 120.029ZM79.4555 118.901C79.6102 118.837 79.7702 118.765 79.9355 118.685C80.1062 118.599 80.2715 118.509 80.4315 118.413C80.5915 118.311 80.7435 118.207 80.8875 118.101C81.0368 117.989 81.1702 117.871 81.2875 117.749H82.1195V123.293H80.9275V119.301C80.7675 119.407 80.5888 119.506 80.3915 119.597C80.1942 119.682 80.0022 119.757 79.8155 119.821L79.4555 118.901Z" fill="#4CCD9B"/>
<path d="M52.0093 129.52H81.5556" stroke="#4CCD9B" stroke-width="1.52" stroke-miterlimit="10" stroke-linecap="round"/>
<path d="M52.0093 133.355H81.5556" stroke="#4CCD9B" stroke-width="1.52" stroke-miterlimit="10" stroke-linecap="round"/>
<path d="M52.0093 137.191H81.5556" stroke="#4CCD9B" stroke-width="1.52" stroke-miterlimit="10" stroke-linecap="round"/>
<path d="M52.0093 141.027H81.5556" stroke="#4CCD9B" stroke-width="1.52" stroke-miterlimit="10" stroke-linecap="round"/>
<path d="M52.0093 144.863H81.5556" stroke="#4CCD9B" stroke-width="1.52" stroke-miterlimit="10" stroke-linecap="round"/>
<path d="M52.0093 148.698H81.5556" stroke="#4CCD9B" stroke-width="1.52" stroke-miterlimit="10" stroke-linecap="round"/>
<path d="M120.482 40.5948L120.546 100.24C120.546 100.624 120.865 100.944 121.248 100.944L162.919 100.88C163.302 100.88 163.621 100.56 163.621 100.176L163.557 51.3348L152.007 39.8276L121.184 39.8916C120.802 39.8916 120.482 40.2112 120.482 40.5948Z" fill="#96B7E1"/>
<path d="M119.206 97.5553C119.079 97.5553 118.951 97.4275 118.951 97.2996L118.887 37.6541C118.887 37.5263 119.015 37.3984 119.142 37.3984L149.774 37.3345L161.005 48.5859L161.069 97.2357C161.069 97.3635 160.941 97.4914 160.814 97.4914L119.206 97.5553Z" fill="white"/>
<path d="M149.582 37.9099L160.558 48.8417L160.622 96.98L119.461 97.0439L119.398 37.9738L149.582 37.9099ZM149.965 36.9509L119.142 37.0149C118.696 37.0149 118.376 37.3345 118.376 37.7181L118.44 97.3636C118.44 97.7472 118.759 98.0668 119.142 98.0668L160.813 98.0029C161.196 98.0029 161.515 97.6832 161.515 97.2997L161.452 48.4581L149.965 36.9509Z" fill="#96B7E1"/>
<path d="M161.515 48.4581L149.965 36.9509V47.8188C149.965 48.2024 150.284 48.522 150.667 48.522L161.515 48.4581Z" fill="#96B7E1"/>
<path d="M126.331 60.3122C126.507 60.3122 126.651 60.2988 126.763 60.2722C126.88 60.2402 126.973 60.2002 127.043 60.1522C127.112 60.0988 127.16 60.0375 127.187 59.9682C127.213 59.8988 127.227 59.8215 127.227 59.7362C127.227 59.5548 127.141 59.4055 126.971 59.2882C126.8 59.1655 126.507 59.0348 126.091 58.8962C125.909 58.8322 125.728 58.7602 125.547 58.6802C125.365 58.5948 125.203 58.4908 125.059 58.3682C124.915 58.2402 124.797 58.0882 124.707 57.9122C124.616 57.7308 124.571 57.5122 124.571 57.2562C124.571 57.0002 124.619 56.7708 124.715 56.5682C124.811 56.3602 124.947 56.1842 125.123 56.0402C125.299 55.8962 125.512 55.7868 125.763 55.7122C126.013 55.6322 126.296 55.5922 126.611 55.5922C126.984 55.5922 127.307 55.6322 127.579 55.7122C127.851 55.7922 128.075 55.8802 128.251 55.9762L127.891 56.9602C127.736 56.8802 127.563 56.8108 127.371 56.7522C127.184 56.6882 126.957 56.6562 126.691 56.6562C126.392 56.6562 126.176 56.6988 126.043 56.7842C125.915 56.8642 125.851 56.9895 125.851 57.1602C125.851 57.2615 125.875 57.3468 125.923 57.4162C125.971 57.4855 126.037 57.5495 126.123 57.6082C126.213 57.6615 126.315 57.7122 126.427 57.7602C126.544 57.8028 126.672 57.8482 126.811 57.8962C127.099 58.0028 127.349 58.1095 127.563 58.2162C127.776 58.3175 127.952 58.4375 128.091 58.5762C128.235 58.7148 128.341 58.8775 128.411 59.0642C128.48 59.2508 128.515 59.4775 128.515 59.7442C128.515 60.2615 128.333 60.6642 127.971 60.9522C127.608 61.2348 127.061 61.3762 126.331 61.3762C126.085 61.3762 125.864 61.3602 125.667 61.3282C125.469 61.3015 125.293 61.2668 125.139 61.2242C124.989 61.1815 124.859 61.1362 124.747 61.0882C124.64 61.0402 124.549 60.9948 124.475 60.9522L124.827 59.9602C124.992 60.0508 125.195 60.1335 125.435 60.2082C125.68 60.2775 125.979 60.3122 126.331 60.3122ZM133.431 55.7202V56.7842H131.759V61.2642H130.511V56.7842H128.839V55.7202H133.431ZM135.093 58.4882C135.093 58.7602 135.125 59.0055 135.189 59.2242C135.259 59.4428 135.355 59.6322 135.477 59.7922C135.605 59.9468 135.76 60.0668 135.941 60.1522C136.123 60.2375 136.331 60.2802 136.565 60.2802C136.795 60.2802 137 60.2375 137.181 60.1522C137.368 60.0668 137.523 59.9468 137.645 59.7922C137.773 59.6322 137.869 59.4428 137.933 59.2242C138.003 59.0055 138.037 58.7602 138.037 58.4882C138.037 58.2162 138.003 57.9708 137.933 57.7522C137.869 57.5282 137.773 57.3388 137.645 57.1842C137.523 57.0242 137.368 56.9015 137.181 56.8162C137 56.7308 136.795 56.6882 136.565 56.6882C136.331 56.6882 136.123 56.7335 135.941 56.8242C135.76 56.9095 135.605 57.0322 135.477 57.1922C135.355 57.3468 135.259 57.5362 135.189 57.7602C135.125 57.9788 135.093 58.2215 135.093 58.4882ZM139.325 58.4882C139.325 58.9628 139.253 59.3815 139.109 59.7442C138.971 60.1015 138.779 60.4028 138.533 60.6482C138.288 60.8882 137.995 61.0695 137.653 61.1922C137.317 61.3148 136.955 61.3762 136.565 61.3762C136.187 61.3762 135.829 61.3148 135.493 61.1922C135.157 61.0695 134.864 60.8882 134.613 60.6482C134.363 60.4028 134.165 60.1015 134.021 59.7442C133.877 59.3815 133.805 58.9628 133.805 58.4882C133.805 58.0135 133.88 57.5975 134.029 57.2402C134.179 56.8775 134.379 56.5735 134.629 56.3282C134.885 56.0828 135.179 55.8988 135.509 55.7762C135.845 55.6535 136.197 55.5922 136.565 55.5922C136.944 55.5922 137.301 55.6535 137.637 55.7762C137.973 55.8988 138.267 56.0828 138.517 56.3282C138.768 56.5735 138.965 56.8775 139.109 57.2402C139.253 57.5975 139.325 58.0135 139.325 58.4882ZM141.99 55.6562C142.822 55.6562 143.459 55.8055 143.902 56.1042C144.344 56.3975 144.566 56.8562 144.566 57.4802C144.566 57.8695 144.475 58.1868 144.294 58.4322C144.118 58.6722 143.862 58.8615 143.526 59.0002C143.638 59.1388 143.755 59.2988 143.878 59.4802C144 59.6562 144.12 59.8428 144.238 60.0402C144.36 60.2322 144.478 60.4348 144.59 60.6482C144.702 60.8562 144.806 61.0615 144.902 61.2642H143.502C143.4 61.0828 143.296 60.8988 143.19 60.7122C143.088 60.5255 142.982 60.3442 142.87 60.1682C142.763 59.9922 142.656 59.8268 142.55 59.6722C142.443 59.5122 142.336 59.3682 142.23 59.2402H141.614V61.2642H140.366V55.8002C140.638 55.7468 140.918 55.7095 141.206 55.6882C141.499 55.6668 141.76 55.6562 141.99 55.6562ZM142.062 56.7202C141.971 56.7202 141.888 56.7228 141.814 56.7282C141.744 56.7335 141.678 56.7388 141.614 56.7442V58.2482H141.966C142.435 58.2482 142.771 58.1895 142.974 58.0722C143.176 57.9548 143.278 57.7548 143.278 57.4722C143.278 57.2002 143.174 57.0082 142.966 56.8962C142.763 56.7788 142.462 56.7202 142.062 56.7202ZM147.468 58.0002C147.692 57.6215 147.905 57.2428 148.108 56.8642C148.311 56.4855 148.497 56.1042 148.668 55.7202H150.044C149.74 56.3175 149.425 56.8962 149.1 57.4562C148.775 58.0162 148.431 58.5788 148.068 59.1442V61.2642H146.82V59.1602C146.457 58.5948 146.111 58.0295 145.78 57.4642C145.455 56.8988 145.14 56.3175 144.836 55.7202H146.284C146.455 56.1042 146.639 56.4855 146.836 56.8642C147.033 57.2428 147.244 57.6215 147.468 58.0002ZM155.975 57.1762C155.975 57.3788 155.935 57.5735 155.855 57.7602C155.775 57.9468 155.671 58.1282 155.543 58.3042C155.415 58.4748 155.271 58.6402 155.111 58.8002C154.951 58.9602 154.794 59.1122 154.639 59.2562C154.559 59.3308 154.471 59.4162 154.375 59.5122C154.284 59.6028 154.196 59.6962 154.111 59.7922C154.026 59.8882 153.948 59.9788 153.879 60.0642C153.815 60.1442 153.775 60.2108 153.759 60.2642H156.143V61.2642H152.447C152.436 61.2055 152.431 61.1308 152.431 61.0402C152.431 60.9495 152.431 60.8855 152.431 60.8482C152.431 60.5922 152.471 60.3575 152.551 60.1442C152.636 59.9308 152.746 59.7335 152.879 59.5522C153.012 59.3655 153.162 59.1922 153.327 59.0322C153.498 58.8722 153.666 58.7122 153.831 58.5522C153.959 58.4295 154.079 58.3148 154.191 58.2082C154.303 58.0962 154.402 57.9895 154.487 57.8882C154.572 57.7815 154.639 57.6775 154.687 57.5762C154.735 57.4695 154.759 57.3628 154.759 57.2562C154.759 57.0215 154.692 56.8562 154.559 56.7602C154.426 56.6642 154.26 56.6162 154.063 56.6162C153.919 56.6162 153.783 56.6402 153.655 56.6882C153.532 56.7308 153.418 56.7842 153.311 56.8482C153.21 56.9068 153.122 56.9682 153.047 57.0322C152.972 57.0908 152.916 57.1388 152.879 57.1762L152.287 56.3442C152.522 56.1255 152.794 55.9468 153.103 55.8082C153.418 55.6642 153.754 55.5922 154.111 55.5922C154.436 55.5922 154.716 55.6295 154.951 55.7042C155.186 55.7788 155.378 55.8855 155.527 56.0242C155.682 56.1575 155.794 56.3228 155.863 56.5202C155.938 56.7122 155.975 56.9308 155.975 57.1762Z" fill="#4263EB"/>
<path d="M125.141 67.5088H154.624" stroke="#96B7E1" stroke-width="1.52" stroke-miterlimit="10" stroke-linecap="round"/>
<path d="M125.141 71.3445H154.624" stroke="#96B7E1" stroke-width="1.52" stroke-miterlimit="10" stroke-linecap="round"/>
<path d="M125.141 75.1802H154.624" stroke="#96B7E1" stroke-width="1.52" stroke-miterlimit="10" stroke-linecap="round"/>
<path d="M125.141 79.0159H154.624" stroke="#96B7E1" stroke-width="1.52" stroke-miterlimit="10" stroke-linecap="round"/>
<path d="M125.141 82.8516H154.624" stroke="#96B7E1" stroke-width="1.52" stroke-miterlimit="10" stroke-linecap="round"/>
<path d="M125.141 86.6875H154.624" stroke="#96B7E1" stroke-width="1.52" stroke-miterlimit="10" stroke-linecap="round"/>
<path d="M286.273 59.5178L286.337 128.753C286.337 129.2 286.72 129.584 287.167 129.584L335.539 129.52C335.985 129.52 336.368 129.136 336.368 128.689L336.304 71.9839L322.903 58.6228L287.103 58.6867C286.656 58.6867 286.273 59.0064 286.273 59.5178Z" fill="#4CCD9B"/>
<path d="M284.742 125.684C284.551 125.684 284.423 125.556 284.423 125.365L284.295 56.1297C284.295 55.9379 284.423 55.81 284.678 55.81L320.287 55.7461L333.369 68.8515L333.433 125.365C333.433 125.556 333.305 125.684 333.114 125.684H284.742Z" fill="white"/>
<path d="M320.095 56.2575L332.922 69.0432L332.986 125.173L284.87 125.237L284.806 56.3214L320.095 56.2575ZM320.542 55.2346L284.742 55.2985C284.232 55.2985 283.849 55.6821 283.849 56.1296L283.912 125.364C283.912 125.812 284.295 126.196 284.742 126.196L333.114 126.132C333.56 126.132 333.943 125.748 333.943 125.301L333.879 68.5957L320.542 55.2346Z" fill="#4CCD9B"/>
<path d="M333.943 68.5957L320.542 55.2346V67.8286C320.542 68.2761 320.925 68.6597 321.372 68.6597L333.943 68.5957Z" fill="#4CCD9B"/>
<path d="M292.698 82.6466C292.874 82.6466 293.018 82.6333 293.13 82.6066C293.247 82.5746 293.341 82.5346 293.41 82.4866C293.479 82.4333 293.527 82.372 293.554 82.3026C293.581 82.2333 293.594 82.156 293.594 82.0706C293.594 81.8893 293.509 81.74 293.338 81.6226C293.167 81.5 292.874 81.3693 292.458 81.2306C292.277 81.1666 292.095 81.0946 291.914 81.0146C291.733 80.9293 291.57 80.8253 291.426 80.7026C291.282 80.5746 291.165 80.4226 291.074 80.2466C290.983 80.0653 290.938 79.8466 290.938 79.5906C290.938 79.3346 290.986 79.1053 291.082 78.9026C291.178 78.6946 291.314 78.5186 291.49 78.3746C291.666 78.2306 291.879 78.1213 292.13 78.0466C292.381 77.9666 292.663 77.9266 292.978 77.9266C293.351 77.9266 293.674 77.9666 293.946 78.0466C294.218 78.1266 294.442 78.2146 294.618 78.3106L294.258 79.2946C294.103 79.2146 293.93 79.1453 293.738 79.0866C293.551 79.0226 293.325 78.9906 293.058 78.9906C292.759 78.9906 292.543 79.0333 292.41 79.1186C292.282 79.1986 292.218 79.324 292.218 79.4946C292.218 79.596 292.242 79.6813 292.29 79.7506C292.338 79.82 292.405 79.884 292.49 79.9426C292.581 79.996 292.682 80.0466 292.794 80.0946C292.911 80.1373 293.039 80.1826 293.178 80.2306C293.466 80.3373 293.717 80.444 293.93 80.5506C294.143 80.652 294.319 80.772 294.458 80.9106C294.602 81.0493 294.709 81.212 294.778 81.3986C294.847 81.5853 294.882 81.812 294.882 82.0786C294.882 82.596 294.701 82.9986 294.338 83.2866C293.975 83.5693 293.429 83.7106 292.698 83.7106C292.453 83.7106 292.231 83.6946 292.034 83.6626C291.837 83.636 291.661 83.6013 291.506 83.5586C291.357 83.516 291.226 83.4706 291.114 83.4226C291.007 83.3746 290.917 83.3293 290.842 83.2866L291.194 82.2946C291.359 82.3853 291.562 82.468 291.802 82.5426C292.047 82.612 292.346 82.6466 292.698 82.6466ZM299.798 78.0546V79.1186H298.126V83.5986H296.878V79.1186H295.206V78.0546H299.798ZM301.46 80.8226C301.46 81.0946 301.492 81.34 301.556 81.5586C301.626 81.7773 301.722 81.9666 301.844 82.1266C301.972 82.2813 302.127 82.4013 302.308 82.4866C302.49 82.572 302.698 82.6146 302.932 82.6146C303.162 82.6146 303.367 82.572 303.548 82.4866C303.735 82.4013 303.89 82.2813 304.012 82.1266C304.14 81.9666 304.236 81.7773 304.3 81.5586C304.37 81.34 304.404 81.0946 304.404 80.8226C304.404 80.5506 304.37 80.3053 304.3 80.0866C304.236 79.8626 304.14 79.6733 304.012 79.5186C303.89 79.3586 303.735 79.236 303.548 79.1506C303.367 79.0653 303.162 79.0226 302.932 79.0226C302.698 79.0226 302.49 79.068 302.308 79.1586C302.127 79.244 301.972 79.3666 301.844 79.5266C301.722 79.6813 301.626 79.8706 301.556 80.0946C301.492 80.3133 301.46 80.556 301.46 80.8226ZM305.692 80.8226C305.692 81.2973 305.62 81.716 305.476 82.0786C305.338 82.436 305.146 82.7373 304.9 82.9826C304.655 83.2226 304.362 83.404 304.02 83.5266C303.684 83.6493 303.322 83.7106 302.932 83.7106C302.554 83.7106 302.196 83.6493 301.86 83.5266C301.524 83.404 301.231 83.2226 300.98 82.9826C300.73 82.7373 300.532 82.436 300.388 82.0786C300.244 81.716 300.172 81.2973 300.172 80.8226C300.172 80.348 300.247 79.932 300.396 79.5746C300.546 79.212 300.746 78.908 300.996 78.6626C301.252 78.4173 301.546 78.2333 301.876 78.1106C302.212 77.988 302.564 77.9266 302.932 77.9266C303.311 77.9266 303.668 77.988 304.004 78.1106C304.34 78.2333 304.634 78.4173 304.884 78.6626C305.135 78.908 305.332 79.212 305.476 79.5746C305.62 79.932 305.692 80.348 305.692 80.8226ZM308.357 77.9906C309.189 77.9906 309.826 78.14 310.269 78.4386C310.711 78.732 310.933 79.1906 310.933 79.8146C310.933 80.204 310.842 80.5213 310.661 80.7666C310.485 81.0066 310.229 81.196 309.893 81.3346C310.005 81.4733 310.122 81.6333 310.245 81.8146C310.367 81.9906 310.487 82.1773 310.605 82.3746C310.727 82.5666 310.845 82.7693 310.957 82.9826C311.069 83.1906 311.173 83.396 311.269 83.5986H309.869C309.767 83.4173 309.663 83.2333 309.557 83.0466C309.455 82.86 309.349 82.6786 309.237 82.5026C309.13 82.3266 309.023 82.1613 308.917 82.0066C308.81 81.8466 308.703 81.7026 308.597 81.5746H307.981V83.5986H306.733V78.1346C307.005 78.0813 307.285 78.044 307.573 78.0226C307.866 78.0013 308.127 77.9906 308.357 77.9906ZM308.429 79.0546C308.338 79.0546 308.255 79.0573 308.181 79.0626C308.111 79.068 308.045 79.0733 307.981 79.0786V80.5826H308.333C308.802 80.5826 309.138 80.524 309.341 80.4066C309.543 80.2893 309.645 80.0893 309.645 79.8066C309.645 79.5346 309.541 79.3426 309.333 79.2306C309.13 79.1133 308.829 79.0546 308.429 79.0546ZM313.835 80.3346C314.059 79.956 314.272 79.5773 314.475 79.1986C314.678 78.82 314.864 78.4386 315.035 78.0546H316.411C316.107 78.652 315.792 79.2306 315.467 79.7906C315.142 80.3506 314.798 80.9133 314.435 81.4786V83.5986H313.187V81.4946C312.824 80.9293 312.478 80.364 312.147 79.7986C311.822 79.2333 311.507 78.652 311.203 78.0546H312.651C312.822 78.4386 313.006 78.82 313.203 79.1986C313.4 79.5773 313.611 79.956 313.835 80.3346ZM320.198 83.7186C320.054 83.7186 319.902 83.708 319.742 83.6866C319.582 83.6706 319.427 83.6466 319.278 83.6146C319.129 83.5826 318.993 83.548 318.87 83.5106C318.747 83.4733 318.651 83.4386 318.582 83.4066L318.814 82.4146C318.953 82.4733 319.129 82.5373 319.342 82.6066C319.561 82.6706 319.83 82.7026 320.15 82.7026C320.518 82.7026 320.787 82.6333 320.958 82.4946C321.129 82.356 321.214 82.1693 321.214 81.9346C321.214 81.7906 321.182 81.6706 321.118 81.5746C321.059 81.4733 320.977 81.3933 320.87 81.3346C320.763 81.2706 320.635 81.228 320.486 81.2066C320.342 81.18 320.187 81.1666 320.022 81.1666H319.558V80.2066H320.086C320.203 80.2066 320.315 80.196 320.422 80.1746C320.534 80.1533 320.633 80.1186 320.718 80.0706C320.803 80.0173 320.87 79.948 320.918 79.8626C320.971 79.772 320.998 79.66 320.998 79.5266C320.998 79.4253 320.977 79.3373 320.934 79.2626C320.891 79.188 320.835 79.1266 320.766 79.0786C320.702 79.0306 320.625 78.996 320.534 78.9746C320.449 78.948 320.361 78.9346 320.27 78.9346C320.041 78.9346 319.827 78.9693 319.63 79.0386C319.438 79.108 319.262 79.1933 319.102 79.2946L318.678 78.4226C318.763 78.3693 318.862 78.3133 318.974 78.2546C319.091 78.196 319.219 78.1426 319.358 78.0946C319.497 78.0466 319.643 78.0066 319.798 77.9746C319.958 77.9426 320.126 77.9266 320.302 77.9266C320.627 77.9266 320.907 77.9666 321.142 78.0466C321.382 78.1213 321.579 78.2306 321.734 78.3746C321.889 78.5133 322.003 78.6786 322.078 78.8706C322.153 79.0573 322.19 79.2626 322.19 79.4866C322.19 79.7053 322.129 79.9186 322.006 80.1266C321.883 80.3293 321.718 80.484 321.51 80.5906C321.798 80.708 322.019 80.884 322.174 81.1186C322.334 81.348 322.414 81.6253 322.414 81.9506C322.414 82.2066 322.371 82.444 322.286 82.6626C322.201 82.876 322.067 83.0626 321.886 83.2226C321.705 83.3773 321.473 83.5 321.19 83.5906C320.913 83.676 320.582 83.7186 320.198 83.7186Z" fill="#4CCD9B"/>
<path d="M291.634 90.7148H325.902" stroke="#4CCD9B" stroke-width="1.52" stroke-miterlimit="10" stroke-linecap="round"/>
<path d="M291.634 95.1899H325.902" stroke="#4CCD9B" stroke-width="1.52" stroke-miterlimit="10" stroke-linecap="round"/>
<path d="M291.634 99.6011H325.902" stroke="#4CCD9B" stroke-width="1.52" stroke-miterlimit="10" stroke-linecap="round"/>
<path d="M291.634 104.076H325.902" stroke="#4CCD9B" stroke-width="1.52" stroke-miterlimit="10" stroke-linecap="round"/>
<path d="M291.634 108.551H325.902" stroke="#4CCD9B" stroke-width="1.52" stroke-miterlimit="10" stroke-linecap="round"/>
<path d="M291.634 112.962H325.902" stroke="#4CCD9B" stroke-width="1.52" stroke-miterlimit="10" stroke-linecap="round"/>
</g>
<defs>
<linearGradient id="paint0_linear" x1="219.987" y1="276.439" x2="219.987" y2="20.2493" gradientUnits="userSpaceOnUse">
<stop stop-color="#B4CAE8"/>
<stop offset="1" stop-color="#FBFBFE"/>
</linearGradient>
<linearGradient id="paint1_linear" x1="261.185" y1="308.551" x2="261.185" y2="170.253" gradientUnits="userSpaceOnUse">
<stop offset="0.0051282" stop-color="#F8980F"/>
<stop offset="1" stop-color="#FECC4D"/>
</linearGradient>
<linearGradient id="paint2_linear" x1="159.146" y1="296.046" x2="159.146" y2="168.986" gradientUnits="userSpaceOnUse">
<stop offset="0.0051282" stop-color="#F8980F"/>
<stop offset="1" stop-color="#FECC4D"/>
</linearGradient>
<clipPath id="clip0">
<rect width="455" height="277" fill="white"/>
</clipPath>
</defs>
</svg>
