<svg width="455" height="260" viewBox="0 0 455 260" fill="none" xmlns="http://www.w3.org/2000/svg">
<g clip-path="url(#clip0)">
<path d="M300.062 32.5527C294.956 34.5377 298.927 40.1522 294.389 39.2448C284.631 35.5018 269.653 17.921 261.37 21.2103C257.172 22.9116 260.632 26.8248 255.924 27.7322C248.321 28.6396 223.189 2.15494 201.346 7.31576C178.596 14.4048 196.127 39.0747 178.256 50.0768L326.386 48.4322C316.685 46.6174 305.168 30.5678 300.062 32.5527Z" fill="#D9EDF6"/>
<path d="M455 228.097L0 227.303C22.6933 219.136 7.37531 159.872 26.3809 146.885C40.5075 139.796 51.6839 150.855 59.8535 144.616C75.4551 132.707 52.5916 63.858 110.63 51.7783C196.24 34.0273 246.733 164.863 286.503 167.528C310.16 167.528 311.805 123.633 341.704 123.633C376.538 123.293 415.344 206.546 455 228.097Z" fill="#D9EDF6"/>
<path d="M383.119 76.2217C400.133 76.2217 413.925 62.4344 413.925 45.4269C413.925 28.4194 400.133 14.6321 383.119 14.6321C366.105 14.6321 352.313 28.4194 352.313 45.4269C352.313 62.4344 366.105 76.2217 383.119 76.2217Z" fill="url(#paint0_linear)"/>
<mask id="mask0" mask-type="alpha" maskUnits="userSpaceOnUse" x="352" y="14" width="62" height="63">
<path d="M383.119 76.2217C400.133 76.2217 413.925 62.4344 413.925 45.4269C413.925 28.4194 400.133 14.6321 383.119 14.6321C366.105 14.6321 352.313 28.4194 352.313 45.4269C352.313 62.4344 366.105 76.2217 383.119 76.2217Z" fill="url(#paint1_linear)"/>
</mask>
<g mask="url(#mask0)">
<path d="M362.922 61.5896C379.936 61.5896 393.728 47.8023 393.728 30.7948C393.728 13.7873 379.936 0 362.922 0C345.909 0 332.116 13.7873 332.116 30.7948C332.116 47.8023 345.909 61.5896 362.922 61.5896Z" fill="#E7EDF8"/>
</g>
<path opacity="0.38" d="M363.077 58.0101C365.467 57.6776 367.071 55.019 366.66 52.072C366.25 49.125 363.98 47.0057 361.591 47.3382C359.201 47.6708 357.597 50.3294 358.007 53.2764C358.418 56.2233 360.688 58.3427 363.077 58.0101Z" fill="#96B7E1"/>
<path opacity="0.38" d="M388.782 38.7149C389.121 35.2549 386.59 32.1756 383.128 31.837C379.667 31.4984 376.587 34.0288 376.248 37.4888C375.909 40.9488 378.441 44.0281 381.902 44.3667C385.363 44.7053 388.444 42.1748 388.782 38.7149Z" fill="#96B7E1"/>
<path opacity="0.38" d="M370.752 33.7706C372.685 32.8028 373.581 30.6789 372.753 29.0266C371.925 27.3744 369.687 26.8195 367.754 27.7872C365.821 28.755 364.925 30.879 365.753 32.5312C366.581 34.1835 368.819 34.7384 370.752 33.7706Z" fill="#96B7E1"/>
<path opacity="0.38" d="M401.861 50.4777C403.629 49.9366 404.549 47.8227 403.916 45.7562C403.283 43.6897 401.336 42.4531 399.569 42.9942C397.801 43.5352 396.881 45.6491 397.514 47.7156C398.147 49.7821 400.094 51.0188 401.861 50.4777Z" fill="#96B7E1"/>
<path opacity="0.38" d="M395.423 25.3264C396.022 24.12 395.075 22.4305 393.307 21.5528C391.539 20.675 389.62 20.9415 389.02 22.1479C388.421 23.3543 389.368 25.0438 391.136 25.9216C392.904 26.7993 394.823 26.5329 395.423 25.3264Z" fill="#96B7E1"/>
<path opacity="0.38" d="M383.17 70.8347C385.143 70.8053 386.723 69.4105 386.698 67.7193C386.672 66.0281 385.052 64.681 383.078 64.7104C381.104 64.7398 379.525 66.1346 379.55 67.8258C379.575 69.517 381.196 70.8641 383.17 70.8347Z" fill="#96B7E1"/>
<path opacity="0.38" d="M405.888 36.894C406.689 36.6202 407.009 35.4371 406.603 34.2515C406.197 33.0658 405.219 32.3265 404.419 32.6003C403.618 32.874 403.298 34.0571 403.704 35.2428C404.11 36.4285 405.088 37.1677 405.888 36.894Z" fill="#96B7E1"/>
<path d="M340.967 153.748H211.161C208.892 153.748 207.02 151.876 207.02 149.608V50.8717C207.02 48.6032 208.892 46.7317 211.161 46.7317H340.967C343.236 46.7317 345.108 48.6032 345.108 50.8717V149.665C345.108 151.933 343.236 153.748 340.967 153.748Z" fill="#4263EB"/>
<path d="M338.413 151.025H208.664C206.395 151.025 204.523 149.153 204.523 146.885V48.0921C204.523 45.8237 206.395 43.9521 208.664 43.9521H338.47C340.739 43.9521 342.612 45.8237 342.612 48.0921V146.885C342.555 149.21 340.683 151.025 338.413 151.025Z" fill="white"/>
<path d="M40.7337 202.293C37.5567 198.72 42.1521 191.517 39.0318 188.115C35.6278 184.372 31.1458 190.497 26.3235 186.924C23.4301 184.428 26.9476 180.742 22.9763 175.128C20.5367 171.611 16.3385 174.901 12.3104 172.802C12.0268 172.632 11.6864 172.916 11.7431 173.256C12.4806 177.736 8.39584 180.402 10.9488 183.804C14.9769 189.362 19.629 187.264 21.0473 190.78C22.9195 196.451 15.6577 198.72 18.0972 203.143C20.3098 207.227 28.5928 205.128 30.9756 209.325C34.4931 216.187 20.5367 221.064 24.2244 228.494C29.1602 238.248 54.1228 233.711 58.2076 234.846C58.6614 223.617 68.7599 209.892 61.0442 202.123C55.2007 196.168 46.0667 207.794 40.7337 202.293Z" fill="#4263EB"/>
<path d="M11.6869 173.2C12.4245 177.68 8.33969 180.345 10.8927 183.748C14.9207 189.306 19.5729 187.208 20.9912 190.724C22.8634 196.395 15.6015 198.663 18.0411 203.087C20.2537 207.17 28.5367 205.072 30.9195 209.269C34.4369 216.131 20.4806 221.008 24.1682 228.437C29.104 238.192 52.3646 233.882 58.1514 234.789V234.732L11.7437 172.916C11.6869 173.029 11.6869 173.143 11.6869 173.2Z" fill="url(#paint2_linear)"/>
<path d="M111.537 234.789H47.2021C45.8972 233.258 44.9328 231.783 45.8972 230.139C47.1453 228.891 48.1098 229.515 49.0743 230.139C47.2588 223.617 41.3018 221.348 41.9826 218.739C43.2308 215.45 48.7906 219.533 53.386 221.915C51.9677 216.131 45.3299 213.975 47.2021 211.026C48.3935 209.495 54.9745 213.182 59.5699 215.96C52.9321 203.711 39.8268 190.27 43.174 186.867C46.6915 183.975 56.2794 194.92 62.9172 202.52C56.79 181.536 38.9758 156.016 44.6491 153.123C54.237 148.756 70.8031 181.196 82.1497 206.263C77.9515 192.935 72.8455 175.241 79.4265 173.143C86.1778 170.817 95.7657 199.854 99.5101 218.399C101.893 211.934 104.616 204.902 109.609 206.092C114.374 207.624 114.658 223.503 111.537 234.789Z" fill="url(#paint3_linear)"/>
<path d="M122.997 220.214C127.933 219.193 129.181 218.002 132.188 214.373C134.628 201.386 149.208 155.052 152.612 142.915C154.825 131.629 145.18 127.603 139.62 127.092C135.025 126.809 130.316 129.134 126.458 132.707C126.401 132.764 126.345 132.82 126.345 132.82C126.174 132.934 126.061 133.104 125.891 133.217C124.869 134.181 123.962 135.202 123.111 136.337C121.409 138.548 120.104 140.987 119.253 143.369C117.437 148.586 115.565 155.165 113.863 162.367C109.722 179.608 106.488 200.648 106.545 216.017C110.005 220.157 115.962 221.745 122.997 220.214Z" fill="url(#paint4_linear)"/>
<path d="M128.784 258.268C128.784 258.268 132.018 215.223 132.188 214.373C129.182 218.002 127.933 219.193 122.998 220.214C115.963 221.745 110.006 220.214 106.488 216.074C106.488 219.42 106.658 222.539 106.999 225.261C107.963 231.953 113.069 258.551 117.892 258.778C117.892 258.778 128.274 261.841 128.784 258.268Z" fill="white"/>
<path d="M123.111 238.362C119.877 249.988 115.962 259.969 115.962 259.969L194.141 259.232L190.169 242.162C189.318 242.559 188.411 242.842 187.333 243.012C166.909 248.06 140.244 252.086 123.111 238.362Z" fill="#254BE8"/>
<path d="M195.049 144.73C197.261 124.767 175.93 124.143 151.251 124.143C128.217 124.2 115.225 134.295 115.509 148.076C115.509 148.076 126.288 196.395 127.083 213.125C127.423 220.214 125.437 229.798 123.054 238.419C140.188 252.143 166.852 248.06 187.333 243.069C188.354 242.899 189.319 242.615 190.17 242.218L184.894 219.477L195.049 144.73Z" fill="#4CCD9B"/>
<path d="M222.678 211.083C225.684 207 225.798 205.299 225.628 200.648C218.763 189.306 198.736 145.127 193.176 133.784C187.276 123.916 177.404 127.376 172.923 130.665C169.292 133.501 167.363 138.435 166.852 143.652C166.852 143.709 166.852 143.766 166.852 143.822C166.852 143.993 166.795 144.219 166.795 144.39C166.682 145.751 166.682 147.169 166.852 148.586C167.079 151.365 167.703 154.031 168.668 156.413C170.767 161.517 173.774 167.642 177.348 174.164C185.801 189.816 197.431 207.624 207.7 219.023C213.033 219.76 218.479 216.925 222.678 211.083Z" fill="url(#paint5_linear)"/>
<path d="M252.406 235.64C252.406 235.64 226.081 201.385 225.627 200.648C225.798 205.355 225.684 207.057 222.677 211.083C218.479 216.868 212.976 219.704 207.643 219.023C209.912 221.518 212.068 223.73 214.167 225.488C219.387 229.855 240.889 246.245 244.633 243.239C244.633 243.239 254.391 238.589 252.406 235.64Z" fill="white"/>
<path d="M177.348 81.8359C172.356 91.9307 157.378 87.9041 143.649 88.8682L126.459 91.477C117.949 64.5386 141.436 52.0619 155.506 53.7066C172.923 54.5006 185.915 64.5386 177.348 81.8359Z" fill="#254BE8"/>
<path d="M180.184 72.8186C182.794 81.8926 184.099 99.9271 180.298 108.944C178.482 113.198 172.412 113.311 172.412 113.311L173.717 128.624C173.717 128.624 173.603 130.949 172.695 131.686C165.831 137.244 157.207 139.456 150.116 133.161C149.492 132.593 147.903 128.964 147.903 128.964L150.853 102.196C150.853 102.196 149.265 100.154 148.981 100.097C141.662 99.5868 142.457 90.5128 148.754 89.9457C149.094 89.889 149.378 89.6622 149.492 89.3219C151.364 82.0627 173.376 99.4167 180.184 72.8186Z" fill="white"/>
<path d="M149.889 101.231C157.548 108.944 162.597 112.517 172.412 113.368L173.377 124.824C164.072 123.519 154.825 113.311 149.889 101.231Z" fill="#EAEACD"/>
<path d="M157.377 108.377C161.859 111.043 166.738 112.744 172.071 113.311" stroke="#C8CBAC" stroke-width="0.2845" stroke-miterlimit="10" stroke-linecap="round"/>
<path d="M92.3048 165.09C76.9868 160.269 78.3484 133.728 100.304 126.185C96.1627 113.765 103.084 105.712 117.608 100.551C116.246 94.3693 119.764 91.5337 124.472 89.492L138.429 84.1044L169.916 72.8186C172.355 78.6033 176.61 90.7964 169.235 92.6112C188.411 108.377 167.306 130.608 167.306 130.608C167.306 130.608 188.184 186.3 138.939 200.251C128.671 201.953 118.062 200.591 109.552 195.771C103.084 192.085 99.4532 186.357 97.4675 178.417C91.4538 178.587 84.8727 171.385 92.3048 165.09Z" fill="#254BE8"/>
<path d="M168.497 148.813C177.396 148.813 184.61 141.602 184.61 132.707C184.61 123.812 177.396 116.601 168.497 116.601C159.599 116.601 152.385 123.812 152.385 132.707C152.385 141.602 159.599 148.813 168.497 148.813Z" fill="#254BE8"/>
<path d="M172.412 95.7869C175.671 95.7869 178.312 93.1462 178.312 89.8888C178.312 86.6314 175.671 83.9907 172.412 83.9907C169.153 83.9907 166.512 86.6314 166.512 89.8888C166.512 93.1462 169.153 95.7869 172.412 95.7869Z" fill="white"/>
<path d="M164.753 174.447C173.651 174.447 180.865 167.236 180.865 158.341C180.865 149.445 173.651 142.234 164.753 142.234C155.854 142.234 148.641 149.445 148.641 158.341C148.641 167.236 155.854 174.447 164.753 174.447Z" fill="#254BE8"/>
<path d="M382.268 207.794C400.347 207.794 415.003 193.143 415.003 175.071C415.003 156.998 400.347 142.348 382.268 142.348C364.189 142.348 349.533 156.998 349.533 175.071C349.533 193.143 364.189 207.794 382.268 207.794Z" fill="url(#paint6_linear)"/>
<path d="M407.36 178.804C409.43 164.957 399.879 152.055 386.027 149.986C372.176 147.916 359.268 157.464 357.198 171.31C355.128 185.157 364.679 198.059 378.531 200.129C392.383 202.198 405.29 192.65 407.36 178.804Z" fill="#EAEACD"/>
<path d="M398.719 177.513C400.076 168.437 393.816 159.98 384.736 158.623C375.656 157.267 367.196 163.525 365.839 172.601C364.482 181.677 370.743 190.135 379.822 191.491C388.902 192.847 397.362 186.589 398.719 177.513Z" stroke="#4CCD9B" stroke-width="1.5746" stroke-miterlimit="10" stroke-linecap="round"/>
<path d="M385.141 175.485C385.377 173.905 384.287 172.433 382.707 172.197C381.126 171.961 379.654 173.05 379.417 174.63C379.181 176.21 380.271 177.682 381.851 177.918C383.432 178.154 384.904 177.065 385.141 175.485Z" fill="#239B6A"/>
<path d="M397.302 158.681L382.268 175.071" stroke="#239B6A" stroke-width="1.5746" stroke-miterlimit="10" stroke-linecap="round"/>
<path d="M398.38 177.453L383.232 175.184" stroke="#239B6A" stroke-width="1.8896" stroke-miterlimit="10" stroke-linecap="round"/>
<path d="M341.748 223.194C345.213 210.211 337.494 196.878 324.506 193.414C311.519 189.95 298.181 197.667 294.716 210.649C291.251 223.632 298.97 236.965 311.957 240.429C324.945 243.893 338.282 236.176 341.748 223.194Z" fill="#F2751C"/>
<path d="M338.868 204.051C335.691 199.004 330.698 195.091 324.514 193.446C311.522 189.986 298.19 197.699 294.729 210.686C293.084 216.868 293.992 223.163 296.772 228.437L338.868 204.051Z" fill="url(#paint7_linear)"/>
<path d="M335.389 221.498C337.917 212.026 332.285 202.298 322.81 199.771C313.334 197.243 303.603 202.873 301.074 212.345C298.546 221.818 304.178 231.545 313.654 234.073C323.13 236.6 332.861 230.97 335.389 221.498Z" fill="#FECC4D"/>
<path d="M324.911 220.554C324.968 220.781 325.025 220.951 324.911 220.554C324.798 220.157 324.854 220.328 324.911 220.554C324.571 219.193 323.606 218.173 322.528 217.379C321.791 216.868 321.053 216.414 320.259 215.961L321.734 210.516C322.415 210.8 323.039 211.254 323.493 211.821C323.72 212.104 323.89 212.388 324.003 212.728C324.06 212.898 324.117 213.068 324.117 213.239C324.117 213.409 324.117 213.579 324.117 213.749C324.174 214.316 324.571 214.827 325.138 214.997C325.705 215.167 326.33 214.997 326.727 214.543C326.897 214.316 327.01 214.033 327.067 213.749C327.067 213.579 327.067 213.352 327.067 213.182C327.067 213.012 327.01 212.785 327.01 212.615C326.897 211.934 326.67 211.254 326.273 210.63C325.535 209.382 324.287 208.418 322.982 207.794C322.812 207.738 322.642 207.624 322.415 207.567L322.812 205.979C322.982 205.412 322.755 204.788 322.301 204.448C321.848 204.051 321.224 203.994 320.656 204.278C320.259 204.448 319.975 204.845 319.862 205.242L319.408 206.83C317.933 206.66 316.401 206.83 315.04 207.511C314.416 207.851 313.848 208.305 313.394 208.815C312.94 209.382 312.6 210.063 312.43 210.8C312.26 211.537 312.203 212.274 312.316 213.012C312.43 213.692 312.77 214.316 313.167 214.883C314.018 216.017 315.267 216.811 316.515 217.549L314.983 223.277C314.359 222.88 313.791 222.426 313.394 221.802C313.224 221.519 313.054 221.178 312.997 220.838C312.94 220.668 312.94 220.498 312.884 220.328C312.884 220.157 312.884 219.987 312.884 219.761C312.827 219.193 312.43 218.626 311.919 218.456C311.352 218.229 310.728 218.399 310.331 218.853C310.161 219.08 309.99 219.364 309.934 219.647C309.934 219.817 309.934 219.987 309.934 220.157C309.934 220.328 309.934 220.554 309.99 220.725C310.047 221.462 310.274 222.142 310.614 222.823C311.238 224.127 312.316 225.205 313.565 225.942C313.791 226.056 314.018 226.169 314.245 226.282L313.791 227.984C313.621 228.551 313.848 229.175 314.302 229.515C314.756 229.912 315.38 229.969 315.947 229.685C316.344 229.515 316.628 229.118 316.742 228.721L317.139 227.19C318.614 227.473 320.202 227.417 321.621 226.85C322.926 226.282 324.003 225.205 324.571 223.901C325.025 222.766 325.195 221.632 324.911 220.554ZM318.046 214.656C317.763 214.486 317.479 214.259 317.195 214.089C316.912 213.862 316.628 213.636 316.401 213.352C316.174 213.125 316.004 212.842 315.947 212.501C315.891 212.161 316.004 211.764 316.118 211.424C316.231 211.084 316.458 210.8 316.685 210.573C317.366 209.949 318.387 209.836 319.295 209.893L318.046 214.656ZM321.904 223.617C321.053 224.468 319.692 224.524 318.557 224.411L319.975 219.137C320.599 219.477 321.224 219.874 321.791 220.384C322.018 220.611 322.245 220.838 322.415 221.178C322.585 221.462 322.585 221.745 322.585 222.086C322.528 222.596 322.301 223.163 321.904 223.617Z" fill="#F2751C"/>
<path d="M218.65 67.7712H320.599" stroke="#DCE6F4" stroke-width="1.304" stroke-miterlimit="10" stroke-dasharray="8 8"/>
<path d="M218.65 79.4541H320.599" stroke="#DCE6F4" stroke-width="1.304" stroke-miterlimit="10" stroke-dasharray="8 8"/>
<path d="M218.65 91.1367H320.599" stroke="#DCE6F4" stroke-width="1.304" stroke-miterlimit="10" stroke-dasharray="8 8"/>
<path d="M218.65 102.819H320.599" stroke="#DCE6F4" stroke-width="1.304" stroke-miterlimit="10" stroke-dasharray="8 8"/>
<path d="M218.65 114.502H320.599" stroke="#DCE6F4" stroke-width="1.304" stroke-miterlimit="10" stroke-dasharray="8 8"/>
<path d="M218.65 126.185H320.599" stroke="#DCE6F4" stroke-width="1.304" stroke-miterlimit="10" stroke-dasharray="8 8"/>
<path d="M218.65 137.868H320.599" stroke="#DCE6F4" stroke-width="1.304" stroke-miterlimit="10" stroke-dasharray="8 8"/>
<path d="M218.65 130.948V137.641" stroke="#96B7E1" stroke-width="1.9555" stroke-miterlimit="10" stroke-linecap="round"/>
<path d="M226.366 123.406V137.641" stroke="#96B7E1" stroke-width="1.9555" stroke-miterlimit="10" stroke-linecap="round"/>
<path d="M234.081 130.722V137.641" stroke="#96B7E1" stroke-width="1.9555" stroke-miterlimit="10" stroke-linecap="round"/>
<path d="M241.797 122.385V137.641" stroke="#96B7E1" stroke-width="1.9555" stroke-miterlimit="10" stroke-linecap="round"/>
<path d="M249.513 114.502V137.641" stroke="#96B7E1" stroke-width="1.9555" stroke-miterlimit="10" stroke-linecap="round"/>
<path d="M257.229 107.526V137.641" stroke="#96B7E1" stroke-width="1.9555" stroke-miterlimit="10" stroke-linecap="round"/>
<path d="M264.944 116.203V137.641" stroke="#96B7E1" stroke-width="1.9555" stroke-miterlimit="10" stroke-linecap="round"/>
<path d="M272.66 124.2V137.641" stroke="#96B7E1" stroke-width="1.9555" stroke-miterlimit="10" stroke-linecap="round"/>
<path d="M280.375 121.137V137.641" stroke="#96B7E1" stroke-width="1.9555" stroke-miterlimit="10" stroke-linecap="round"/>
<path d="M288.091 109.228V137.641" stroke="#96B7E1" stroke-width="1.9555" stroke-miterlimit="10" stroke-linecap="round"/>
<path d="M295.807 116.203V137.641" stroke="#96B7E1" stroke-width="1.9555" stroke-miterlimit="10" stroke-linecap="round"/>
<path d="M303.523 120.4V137.64" stroke="#96B7E1" stroke-width="1.9555" stroke-miterlimit="10" stroke-linecap="round"/>
<path d="M311.238 123.859V137.64" stroke="#96B7E1" stroke-width="1.9555" stroke-miterlimit="10" stroke-linecap="round"/>
<path d="M305.281 72.2522C287.864 72.6492 278.901 98.7368 272.433 98.1697C266.987 97.8862 263.98 88.8122 258.25 88.7555C249.967 88.7555 246.79 109.455 237.372 113.425C233.003 114.389 230.961 109.115 227.046 111.214C223.699 112.688 220.806 118.643 218.65 124.087" stroke="#F2751C" stroke-width="1.9555" stroke-miterlimit="10" stroke-linecap="round" stroke-linejoin="round"/>
<path d="M305.281 74.4077C306.472 74.4077 307.437 73.4427 307.437 72.2522C307.437 71.0617 306.472 70.0967 305.281 70.0967C304.091 70.0967 303.125 71.0617 303.125 72.2522C303.125 73.4427 304.091 74.4077 305.281 74.4077Z" fill="white"/>
<path d="M305.281 70.6068C306.189 70.6068 306.927 71.3441 306.927 72.2515C306.927 73.1589 306.189 73.8961 305.281 73.8961C304.374 73.8961 303.636 73.1589 303.636 72.2515C303.636 71.3441 304.374 70.6068 305.281 70.6068ZM305.281 69.5293C303.749 69.5293 302.558 70.777 302.558 72.2515C302.558 73.726 303.806 74.9737 305.281 74.9737C306.756 74.9737 308.005 73.726 308.005 72.2515C308.005 70.777 306.813 69.5293 305.281 69.5293Z" fill="#F2751C"/>
<path d="M218.65 137.868H333.478" stroke="#96B7E1" stroke-width="1.3036" stroke-miterlimit="10" stroke-linecap="round"/>
<path d="M326.102 67.7146H333.477" stroke="#4263EB" stroke-width="1.9555" stroke-miterlimit="10" stroke-linecap="round" stroke-linejoin="round"/>
<path d="M326.102 79.3975H333.477" stroke="#4263EB" stroke-width="1.9555" stroke-miterlimit="10" stroke-linecap="round" stroke-linejoin="round"/>
<path d="M326.102 91.0801H333.477" stroke="#4263EB" stroke-width="1.9555" stroke-miterlimit="10" stroke-linecap="round" stroke-linejoin="round"/>
<path d="M326.102 102.706H333.477" stroke="#4263EB" stroke-width="1.9555" stroke-miterlimit="10" stroke-linecap="round" stroke-linejoin="round"/>
<path d="M326.102 114.389H333.477" stroke="#4263EB" stroke-width="1.9555" stroke-miterlimit="10" stroke-linecap="round" stroke-linejoin="round"/>
<path d="M326.102 126.072H333.477" stroke="#4263EB" stroke-width="1.9555" stroke-miterlimit="10" stroke-linecap="round" stroke-linejoin="round"/>
<path d="M271.071 57.7337H218.706C217.798 57.7337 217.118 56.9963 217.118 56.1454C217.118 55.2378 217.855 54.5571 218.706 54.5571H271.071C271.979 54.5571 272.659 55.2945 272.659 56.1454C272.659 56.9963 271.979 57.7337 271.071 57.7337Z" fill="#4565E8"/>
<path d="M18.6652 87.1103H14.8073V83.2539H12.2543V87.1103H8.39648V89.6624H12.2543V93.5188H14.8073V89.6624H18.6652V87.1103Z" fill="url(#paint8_linear)"/>
<path d="M72.221 64.3685H65.9803V58.1301H61.8955V64.3685H55.5981V68.4518H61.8955V74.7468H65.9803V68.4518H72.221V64.3685Z" fill="url(#paint9_linear)"/>
<path d="M278.333 196.225H272.093V189.986H268.008V196.225H261.71V200.308H268.008V206.603H272.093V200.308H278.333V196.225Z" fill="url(#paint10_linear)"/>
<path d="M382.268 96.7514H375.971V90.4563H371.886V96.7514H365.588V100.835H371.886V107.13H375.971V100.835H382.268V96.7514Z" fill="url(#paint11_linear)"/>
<path d="M53.7262 94.9932H49.8684V91.1367H47.3721V94.9932H43.4575V97.4885H47.3721V101.345H49.8684V97.4885H53.7262V94.9932Z" fill="url(#paint12_linear)"/>
<path d="M305.622 177.793H301.764V173.937H299.211V177.793H295.353V180.345H299.211V184.202H301.764V180.345H305.622V177.793Z" fill="url(#paint13_linear)"/>
<path d="M401.728 118.245H397.87V114.389H395.374V118.245H391.516V120.74H395.374V124.654H397.87V120.74H401.728V118.245Z" fill="url(#paint14_linear)"/>
<path d="M93.5527 47.752L87.5957 53.7067C97.0134 63.121 112.218 63.121 121.636 53.7067L115.679 47.752C109.551 53.8202 99.6799 53.8202 93.5527 47.752Z" fill="#4CCD9B"/>
<path d="M116.132 25.1802L121.182 20.1328C121.409 19.9059 121.409 19.5089 121.182 19.2254C116.586 14.8585 110.629 12.6467 104.672 12.6467V21.0402C108.473 21.0402 112.275 22.458 115.225 25.1802C115.508 25.407 115.906 25.407 116.132 25.1802Z" fill="#239B6A"/>
<path d="M87.5959 53.7065L93.5529 47.7517C90.4893 44.6892 88.9575 40.6626 88.9575 36.5793H80.561C80.561 42.761 82.8871 48.9426 87.5959 53.7065Z" fill="#239B6A"/>
<path d="M93.5527 25.6339C96.6163 22.5715 100.644 21.0402 104.672 21.0402V12.5901C98.4885 12.5901 92.3046 14.9153 87.5957 19.6224L93.5527 25.6339Z" fill="#4CCD9B"/>
<path d="M115.679 47.7518C118.742 44.6894 120.274 40.6628 120.274 36.6362H128.671C128.671 42.8179 126.345 48.9995 121.636 53.7066L115.679 47.7518Z" fill="url(#paint15_linear)"/>
<path d="M88.9575 36.5795C88.9575 32.6097 90.4893 28.6398 93.5529 25.5774L87.5959 19.6226C82.9438 24.273 80.561 30.3979 80.561 36.5228H88.9575V36.5795Z" fill="url(#paint16_linear)"/>
<path d="M88.9575 36.6929H80.561C80.561 49.9636 91.3403 60.7389 104.616 60.7389V52.3455C95.9925 52.2888 88.9575 45.3131 88.9575 36.6929Z" fill="#4FCD9C"/>
<path d="M120.274 36.6928H128.671C128.671 30.0575 126.004 24.1027 121.692 19.7358L115.735 25.6906C118.515 28.4695 120.274 32.3827 120.274 36.6928Z" fill="#239B6A"/>
<path d="M80.561 36.6927H88.9576C88.9576 32.3259 90.7163 28.4127 93.6097 25.5771L87.6527 19.6223C83.2842 23.9325 80.561 30.0007 80.561 36.6927Z" fill="#239B6A"/>
<path d="M104.616 21.0402C108.984 21.0402 112.899 22.7982 115.735 25.6906L121.692 19.7358C117.324 15.3689 111.31 12.6467 104.616 12.6467V21.0402Z" fill="#4FCD9C"/>
<path d="M104.616 52.2888C108.814 52.2888 112.615 50.6442 115.395 47.9787C115.565 47.8085 115.906 47.8085 116.076 47.9787L121.352 53.2529C121.522 53.4231 121.522 53.7633 121.352 53.9335C117.04 58.1302 111.14 60.6822 104.616 60.6822V52.2888Z" fill="#239B6A"/>
<path d="M93.6093 25.5771C96.446 22.7982 100.304 21.0402 104.616 21.0402V12.6467C97.9778 12.6467 92.0208 15.3122 87.6523 19.6223L93.6093 25.5771Z" fill="url(#paint17_linear)"/>
</g>
<defs>
<linearGradient id="paint0_linear" x1="407.278" y1="70.5384" x2="348.676" y2="9.64559" gradientUnits="userSpaceOnUse">
<stop stop-color="#B4CAE8"/>
<stop offset="1" stop-color="#FBFBFE"/>
</linearGradient>
<linearGradient id="paint1_linear" x1="407.278" y1="70.5384" x2="348.676" y2="9.64559" gradientUnits="userSpaceOnUse">
<stop stop-color="#B4CAE8"/>
<stop offset="1" stop-color="#FBFBFE"/>
</linearGradient>
<linearGradient id="paint2_linear" x1="10.0536" y1="203.974" x2="58.1785" y2="203.974" gradientUnits="userSpaceOnUse">
<stop stop-color="#1F46E7"/>
<stop offset="1" stop-color="#4263EB"/>
</linearGradient>
<linearGradient id="paint3_linear" x1="31.5747" y1="188.137" x2="117.268" y2="218.693" gradientUnits="userSpaceOnUse">
<stop stop-color="#F2751C"/>
<stop offset="1" stop-color="#FFC400"/>
</linearGradient>
<linearGradient id="paint4_linear" x1="125.378" y1="191.659" x2="137.25" y2="131.554" gradientUnits="userSpaceOnUse">
<stop stop-color="#239B6A"/>
<stop offset="0.2873" stop-color="#32AE7C"/>
<stop offset="0.7242" stop-color="#45C593"/>
<stop offset="1" stop-color="#4CCD9B"/>
</linearGradient>
<linearGradient id="paint5_linear" x1="205.45" y1="188.252" x2="174.212" y2="135.538" gradientUnits="userSpaceOnUse">
<stop stop-color="#239B6A"/>
<stop offset="0.2873" stop-color="#32AE7C"/>
<stop offset="0.7242" stop-color="#45C593"/>
<stop offset="1" stop-color="#4CCD9B"/>
</linearGradient>
<linearGradient id="paint6_linear" x1="349.883" y1="170.242" x2="414.577" y2="179.914" gradientUnits="userSpaceOnUse">
<stop stop-color="#239B6A"/>
<stop offset="1" stop-color="#4CCD9B"/>
</linearGradient>
<linearGradient id="paint7_linear" x1="310.238" y1="231.943" x2="320.78" y2="192.42" gradientUnits="userSpaceOnUse">
<stop stop-color="#F2751C"/>
<stop offset="1" stop-color="#FFC400"/>
</linearGradient>
<linearGradient id="paint8_linear" x1="8.4135" y1="88.3864" x2="18.6618" y2="88.3864" gradientUnits="userSpaceOnUse">
<stop stop-color="#F2751C"/>
<stop offset="1" stop-color="#FFC400"/>
</linearGradient>
<linearGradient id="paint9_linear" x1="55.5832" y1="66.4362" x2="72.2399" y2="66.4362" gradientUnits="userSpaceOnUse">
<stop stop-color="#F2751C"/>
<stop offset="1" stop-color="#FFC400"/>
</linearGradient>
<linearGradient id="paint10_linear" x1="261.695" y1="198.291" x2="278.352" y2="198.291" gradientUnits="userSpaceOnUse">
<stop stop-color="#F2751C"/>
<stop offset="1" stop-color="#FFC400"/>
</linearGradient>
<linearGradient id="paint11_linear" x1="365.59" y1="98.7903" x2="382.247" y2="98.7903" gradientUnits="userSpaceOnUse">
<stop stop-color="#F2751C"/>
<stop offset="1" stop-color="#FFC400"/>
</linearGradient>
<linearGradient id="paint12_linear" x1="43.4771" y1="96.2426" x2="53.7254" y2="96.2426" gradientUnits="userSpaceOnUse">
<stop stop-color="#F2751C"/>
<stop offset="1" stop-color="#FFC400"/>
</linearGradient>
<linearGradient id="paint13_linear" x1="295.37" y1="179.068" x2="305.618" y2="179.068" gradientUnits="userSpaceOnUse">
<stop stop-color="#F2751C"/>
<stop offset="1" stop-color="#FFC400"/>
</linearGradient>
<linearGradient id="paint14_linear" x1="391.508" y1="119.509" x2="401.756" y2="119.509" gradientUnits="userSpaceOnUse">
<stop stop-color="#F2751C"/>
<stop offset="1" stop-color="#FFC400"/>
</linearGradient>
<linearGradient id="paint15_linear" x1="115.689" y1="45.1379" x2="128.69" y2="45.1379" gradientUnits="userSpaceOnUse">
<stop stop-color="#4ACA99"/>
<stop offset="1" stop-color="#29A271"/>
</linearGradient>
<linearGradient id="paint16_linear" x1="87.0616" y1="36.5846" x2="87.0616" y2="19.6594" gradientUnits="userSpaceOnUse">
<stop stop-color="#4CCD9B"/>
<stop offset="1" stop-color="#239B6A"/>
</linearGradient>
<linearGradient id="paint17_linear" x1="92.2589" y1="24.1975" x2="104.227" y2="12.2253" gradientUnits="userSpaceOnUse">
<stop stop-color="#4ACA99"/>
<stop offset="1" stop-color="#29A271"/>
</linearGradient>
<clipPath id="clip0">
<rect width="455" height="260" fill="white"/>
</clipPath>
</defs>
</svg>
