<svg width="550" height="263" xmlns="http://www.w3.org/2000/svg" xmlns:xlink="http://www.w3.org/1999/xlink" viewBox="0 0 550 261.989"><defs><style>.a{fill:#d9edf6;}.b{fill:url(#a);}.c{fill:#96b7e2;}.d{clip-path:url(#b);}.e{fill:url(#c);}.f{fill:#239b6a;}.g{fill:url(#e);}.ah,.al,.h,.n,.p,.q,.r,.v,.w{fill:none;stroke-linecap:round;stroke-linejoin:round;stroke-miterlimit:10;}.h,.q{stroke:#239b6a;}.ah,.h,.v{stroke-width:1.5px;}.i{fill:url(#f);}.j{fill:url(#g);}.k{fill:#567bef;}.l{fill:url(#h);}.m{fill:#fff;}.n{stroke:#d9edf6;}.o{fill:#4263eb;}.p,.w{stroke:#f2751c;}.p{stroke-dasharray:3 5;}.r{stroke:#4263eb;}.s{fill:#f2751c;}.t{fill:#4ccd9b;}.u{fill:#96b7e1;}.v{stroke:#1f46e7;}.x{fill:url(#i);}.y{fill:#3054e9;}.z{fill:#1f46e7;}.aa{fill:url(#j);}.ab{fill:url(#k);}.ac{fill:#ffc400;}.ad{fill:url(#l);}.ae{fill:url(#m);}.af{fill:url(#n);}.ag{fill:url(#o);}.ah{stroke:#fff;}.ai{fill:url(#p);}.aj{fill:url(#q);}.ak{fill:url(#r);}.al{stroke:#c8cbac;stroke-width:0.382px;}</style><linearGradient id="a" x1="-0.006" y1="0.486" x2="0.99" y2="0.486" gradientUnits="objectBoundingBox"><stop offset="0" stop-color="#f2751c"/><stop offset="1" stop-color="#ffc400"/></linearGradient><clipPath id="b"><rect width="68.403" height="64.85"/></clipPath><linearGradient id="c" x1="22.2" y1="-50.986" x2="22.828" y2="-50.986" gradientUnits="objectBoundingBox"><stop offset="0" stop-color="#239b6a"/><stop offset="1" stop-color="#4ccd9b"/></linearGradient><linearGradient id="e" x1="23.587" y1="-25.831" x2="24.622" y2="-25.831" xlink:href="#c"/><linearGradient id="f" x1="15.284" y1="-25.19" x2="16.272" y2="-25.19" xlink:href="#c"/><linearGradient id="g" x1="3.077" y1="0.431" x2="4.241" y2="0.783" xlink:href="#a"/><linearGradient id="h" y1="0.5" x2="1" y2="0.5" gradientUnits="objectBoundingBox"><stop offset="0" stop-color="#1f46e7"/><stop offset="1" stop-color="#4263eb"/></linearGradient><linearGradient id="i" x1="0" y1="0.495" x2="1" y2="0.495" xlink:href="#h"/><linearGradient id="j" x1="-11.219" y1="0.5" x2="-10.216" y2="0.5" xlink:href="#c"/><linearGradient id="k" x1="-6.645" y1="0.5" x2="-5.646" y2="0.5" xlink:href="#h"/><linearGradient id="l" x1="-7.015" y1="0.999" x2="-7.015" y2="0.001" xlink:href="#a"/><linearGradient id="m" x1="-3.78" y1="0.499" x2="-2.78" y2="0.499" gradientUnits="objectBoundingBox"><stop offset="0" stop-color="#4263eb"/><stop offset="1" stop-color="#1f46e7"/></linearGradient><linearGradient id="n" x1="-11.269" y1="0.499" x2="-10.269" y2="0.499" xlink:href="#c"/><linearGradient id="o" x1="0" y1="0.5" x2="0.999" y2="0.5" xlink:href="#a"/><linearGradient id="p" x1="0.19" y1="1.202" x2="0.625" y2="0.286" xlink:href="#c"/><linearGradient id="q" x1="338.653" y1="1.277" x2="339.294" y2="0.459" xlink:href="#c"/><linearGradient id="r" x1="0.001" y1="0.504" x2="0.999" y2="0.504" xlink:href="#a"/></defs><g transform="translate(0 53.789)"><path class="a" d="M44.472,68.457c17.794-3.119,27.884,15.96,34.121,15.41,3.852-.55,5.5-2.935,9.172-3.119,6.971,0,9.906,9.172,17.978,11.557,3.669.55,6.971-2.2,10.273-.917,2.935.917,4.77,2.752,6.6,5.87H9.8C24.476,90.654,25.943,72.676,44.472,68.457Z" transform="translate(-9.8 -99.484)"/><path class="a" d="M240.3,141.128C202.211,119.7,187.775,87.938,155.461,58.4c-19.211,26.428-55.411,69.18-65.183,67.4-10.1-3-8.661-13.214-23.985-13.214C48.859,112.589,36.644,176,0,201.313H273.5C258.954,187.655,249.293,165.224,240.3,141.128Z" transform="translate(0 6.443)"/><path class="b" d="M127.654,146.461a50.559,50.559,0,0,0,1.11-7.329,56.018,56.018,0,0,0,0-6.107l10.327-3.664L136.2,117.811l-10.771,1.777a45.431,45.431,0,0,0-6.885-11.1l6.774-9.883-8.884-7.662L108,99.711a42.186,42.186,0,0,0-11.438-4.442L96.34,82.277,84.68,81.5,82.792,94.6A40.263,40.263,0,0,0,70.8,98.046l-7.329-9.772L53.7,94.714l5.774,11.215a40.265,40.265,0,0,0-7.107,9.106l-11.66-3.775-4.442,11.1,10.993,5.774a48.206,48.206,0,0,0-.777,5.774,54.01,54.01,0,0,0,0,6L33.6,144.462l2.776,11.549,13.436-2.221a41.608,41.608,0,0,0,5.885,9.772l-7.329,10.66,8.884,7.662,8.772-9.106a44.049,44.049,0,0,0,11.215,4.886l.222,12.1,11.66.777L90.9,178.774a38.049,38.049,0,0,0,11.882-2.887l7.551,10.1,9.883-6.441-5.663-10.993a42.183,42.183,0,0,0,7.551-8.995l11.771,3.775,4.442-11.1ZM88.234,160.008a24.14,24.14,0,1,1,22.431-19.877A24.187,24.187,0,0,1,88.234,160.008Z" transform="translate(3.711 8.994)"/><path class="c" d="M117.4,78.625a17.847,17.847,0,0,0,2-9.883l5.33-2.443-2.554-7.107L116.4,60.3a17.27,17.27,0,0,0-7.662-6.441l.333-6.329L101.63,46.2l-1.555,6.218a21,21,0,0,0-4.442.888,15.4,15.4,0,0,0-4.442,2.332l-5.33-3.664-4.886,5.663,4.553,4.775a17.875,17.875,0,0,0-1.555,9.328L78.2,74.516l2.554,7.107,6.33-1.444A17.948,17.948,0,0,0,94.412,86.4l-.333,6.552,7.44,1.333,1.666-6.218a15.911,15.911,0,0,0,4.553-1,17.15,17.15,0,0,0,3.776-1.888l5.219,3.664,4.886-5.663Zm-8.106-3.331a9.222,9.222,0,1,1-3.553-12.548A9.28,9.28,0,0,1,109.292,75.293Z" transform="translate(30.636 9.096)"/><g transform="translate(78.619 142.907)"><g class="d"><path class="e" d="M91.517,176.519c-1.888-2-6.218.333-7.884-1.666-2-2.11,1.777-4.331,0-7.218-1.221-1.777-3.553,0-6.552-2.443-1.888-1.555.222-3.775-.777-6.107-.111-.222.111-.333.222-.333,2.443.666,4.22-1.555,6,.111,3,2.554,1.555,5.108,3.442,6.107,3.109,1.333,4.775-2.665,7.218-1,2.221,1.444.555,6,2.887,7.551,3.664,2.332,7.218-5.33,11.215-2.887,5.33,3.22,7.662,15.1,8.883,21.431-6.329-.333-21.654,2.887-25.651-1.888C87.3,184.4,94.4,179.739,91.517,176.519Z" transform="translate(-70.197 -125.439)"/><path class="f" d="M76.511,158.652c2.443.666,4.22-1.555,6,.111,3,2.554,1.555,5.108,3.442,6.107,3.109,1.333,4.775-2.665,7.218-1,2.221,1.444.555,6,2.887,7.551,3.664,2.332,7.218-5.33,11.215-2.887,5.33,3.22,7.662,15.1,8.883,21.431l-.555-.111L76.4,158.763C76.4,158.541,76.4,158.541,76.511,158.652Z" transform="translate(-70.182 -125.45)"/></g><g class="d"><path class="g" d="M102.523,166.428c-.777-3.887-6.441-5.33-7.107-9.106-.777-4.109,3.331-3.553,3.331-8.439-.222-3.109-2.665-1.555-4.331-6.885-1.11-3.331,3.442-6.107,4-9.772,0-.222.333-.333.555-.222,2.554,2.665,7.551,2,8.55,5.441,1.666,5.33-1.666,5.663,0,8.328,2.776,4,6.218,1.333,8,5.108,1.666,3.442-1.888,7.884-.333,11.549,2.776,5.663,10.993-1.222,13.992,4.886,4,8-3.664,24.208-11.1,26.873-7.329,1.221-21.1-3.331-22.431-12.215C94.528,175.2,103.634,172.646,102.523,166.428Z" transform="translate(-68.211 -128.34)"/><path class="f" d="M98.522,132.207c2.554,2.665,7.551,2,8.55,5.441,1.666,5.33-1.221,6.218.444,8.884,2.665,3.664,5.663.333,7.551,4.553,1.555,3.442-1.888,7.884-.333,11.549,2.776,5.663,10.993-1.221,13.992,4.886,4,8,4.553,26.873-11.1,26.873l-.111-1L98.3,132.318C98.411,132.1,98.411,132.1,98.522,132.207Z" transform="translate(-67.763 -128.321)"/></g></g><g transform="translate(12.815 44.193)"><path class="h" d="M31.887,34.5A3.84,3.84,0,0,0,28,38.275v4.664a3.888,3.888,0,0,0,7.773,0V38.275A3.912,3.912,0,0,0,31.887,34.5Z" transform="translate(-28 -34.389)"/><line class="h" y2="12.437" transform="translate(15.435)"/><path class="h" d="M52.587,34.5A3.84,3.84,0,0,0,48.7,38.275v4.664a3.888,3.888,0,0,0,7.773,0V38.275A3.912,3.912,0,0,0,52.587,34.5Z" transform="translate(-25.714 -34.389)"/><line class="h" y2="12.437" transform="translate(38.421)"/><g transform="translate(47.194 0.111)"><line class="h" y2="12.326"/><path class="h" d="M80.975,34.6A3.722,3.722,0,0,0,77.2,38.264v4.664a3.777,3.777,0,0,0,7.551,0V38.264A3.722,3.722,0,0,0,80.975,34.6Z" transform="translate(-69.76 -34.489)"/></g></g><path class="a" d="M250.256,2.659c65.183-22.1,96.608,103.937,118.706,101.494,16.99-1,26.317-37.644,44.2-37.755,25.873,0,35.756,83.061,64.961,98.94,13.547,3.887,19.988-17.323,32.2-8.772,10.438,6,19.433,29.76,26.1,51.635H123C176.412,161.229,182.3,32.752,250.256,2.659Z" transform="translate(13.584 0)"/><g transform="translate(391.361 140.242)"><path class="i" d="M377.27,158.371c.555-3.664,7.218-4.442,7.662-8,.555-3.887-5.33-3.553-5.552-8.217.111-3,4.109-2.665,5.441-7.884,1-3.22-3.109-4.109-3.887-7.551,0-.222-.333-.333-.555-.111-2.332,2.665-6,1.444-6.774,4.664-1.444,5.219,2.221,7,.777,9.55-2.554,3.887-7.44.666-8.995,4.331-1.443,3.331,4,7.329,2.554,10.771-2.443,5.552-12.215-.555-14.88,5.33-3.442,7.773,8.328,15.99,11.771,24.1,7-5.219,21.431-6.329,22.32-14.88C388.041,164.034,376.492,164.256,377.27,158.371Z" transform="translate(-352.438 -126.279)"/><path class="f" d="M380.479,126.522c-2.332,2.665-6,1.444-6.774,4.664-1.443,5.219,2.221,7,.777,9.55-2.554,3.887-7.44.666-8.995,4.331-1.444,3.331,4,7.329,2.554,10.771-2.443,5.552-12.215-.555-14.88,5.33-3.442,7.773,8.328,15.99,11.771,24.1h0L380.59,126.3C380.59,126.411,380.59,126.411,380.479,126.522Z" transform="translate(-352.427 -126.3)"/></g><path class="j" d="M371.135,185.272h38.2c.888-1,1.444-2,.888-3a1.314,1.314,0,0,0-2,0c1.221-4.22,5-5.663,4.553-7.329-.777-2.11-4.442.555-7.329,2,.888-3.775,5.219-5.108,4-7-.777-1-5,1.444-8,3.22,4.331-7.884,12.77-16.657,10.66-18.766-2.221-1.888-8.439,5.219-12.77,10.1,4-13.547,15.546-30.093,11.771-31.981-6.219-2.887-16.879,18.211-24.208,34.424,2.776-8.661,6-20.1,1.777-21.431-4.331-1.444-10.549,17.212-12.992,29.2-1.555-4.22-3.331-8.772-6.552-8C365.916,167.727,369.136,177.943,371.135,185.272Z" transform="translate(40.616 14.6)"/><g transform="translate(121.038 41.968)"><path class="k" d="M115.552,83.962h-2.443A4.172,4.172,0,0,1,109,79.853V61.309a4.172,4.172,0,0,1,4.109-4.109h2.443a4.172,4.172,0,0,1,4.109,4.109V79.964A4.007,4.007,0,0,1,115.552,83.962Z" transform="translate(-109 -35.657)"/><path class="l" d="M218.547,203.588h-95.72A10.379,10.379,0,0,1,112.5,193.261V48.127A10.379,10.379,0,0,1,122.827,37.8h95.72a10.379,10.379,0,0,1,10.327,10.327V193.261A10.379,10.379,0,0,1,218.547,203.588Z" transform="translate(-108.613 -37.8)"/><path class="c" d="M164.7,42.566a1.666,1.666,0,1,1,1.666,1.666A1.635,1.635,0,0,1,164.7,42.566Z" transform="translate(-102.849 -37.458)"/><g transform="translate(57.965 151.908)"><path class="c" d="M161.2,179.375a4.775,4.775,0,1,1,4.775,4.775A4.74,4.74,0,0,1,161.2,179.375Z" transform="translate(-161.2 -174.6)"/></g><rect class="m" width="100.828" height="140.359" transform="translate(11.215 9.328)"/><g transform="translate(12.104 10.549)"><g transform="translate(18.1)"><line class="n" y2="138.027"/><line class="n" y2="138.027" transform="translate(20.876)"/><line class="n" y2="138.027" transform="translate(41.086)"/><line class="n" y2="138.027" transform="translate(62.074)"/></g><g transform="translate(0 21.098)"><line class="n" x1="99.051"/><line class="n" x1="99.051" transform="translate(0 20.21)"/><line class="n" x1="99.051" transform="translate(0 39.643)"/><line class="n" x1="99.051" transform="translate(0 59.853)"/></g><g transform="translate(0 102.493)"><line class="n" x1="99.051"/><line class="n" x1="99.051" transform="translate(0 20.099)"/></g></g><path class="o" d="M177.4,144.408a5.072,5.072,0,0,0,5,5.108,5,5,0,0,0,5-5.108,5,5,0,1,0-9.994,0Z" transform="translate(-101.446 -26.59)"/><path class="p" d="M119.1,156.093l17.434-36.978a11.2,11.2,0,0,1,10.327-6.663h4.886a11.4,11.4,0,0,0,10.993-8.55l5.552-21.765a11.362,11.362,0,0,1,15.879-7.44h0a11.162,11.162,0,0,0,13.769-3.22L211.933,53.6" transform="translate(-107.885 -36.055)"/><path class="q" d="M118.6,162.862l30.648-30.426a8.42,8.42,0,0,1,9.217-.444l7.662,4.553a8.243,8.243,0,0,0,10.66-1.888l43.2-52.857" transform="translate(-107.94 -32.941)"/><path class="r" d="M118.6,170.989l23.985-20.321a7.643,7.643,0,0,1,10.66,0l7.884,7.884a7.643,7.643,0,0,0,10.66,0l12.437-12.437a7.643,7.643,0,0,1,10.66,0l25.1,24.874" transform="translate(-107.94 -26.077)"/><path class="s" d="M164.8,72.308a5.072,5.072,0,0,0,5,5.108,5.109,5.109,0,1,0-5-5.108Z" transform="translate(-102.838 -34.553)"/><path class="t" d="M146.129,123.865a5.2,5.2,0,0,0,.333,7.218,5.031,5.031,0,0,0,6.774-7.44A4.871,4.871,0,0,0,146.129,123.865Z" transform="translate(-105.043 -28.478)"/></g><path class="c" d="M217.088,199.778H384.542L369.885,78.963c-.444-4.109-3.664-6.663-8.106-6.663H203.1c-11.882,0-12.659,4.331-11.771,12.1l12.659,103.937A12.931,12.931,0,0,0,217.088,199.778Z" transform="translate(21.101 7.978)"/><path class="m" d="M372.863,188.424,359.871,81.6H201.3l13.1,107.379Z" transform="translate(22.231 9.005)"/><path class="u" d="M273.3,75.555a1.555,1.555,0,1,1,1.555,1.555A1.588,1.588,0,0,1,273.3,75.555Z" transform="translate(30.183 8.166)"/><g transform="translate(453.503 67.73)"><path class="q" d="M410.177,61a1.733,1.733,0,0,0-1.777,1.666v2.11a1.78,1.78,0,0,0,3.553,0v-2.11A1.733,1.733,0,0,0,410.177,61Z" transform="translate(-408.4 -61)"/><line class="q" y2="5.663" transform="translate(6.996)"/><path class="q" d="M419.577,61a1.733,1.733,0,0,0-1.777,1.666v2.11a1.78,1.78,0,0,0,3.553,0v-2.11A1.9,1.9,0,0,0,419.577,61Z" transform="translate(-407.362 -61)"/><line class="q" y2="5.663" transform="translate(17.434)"/><g transform="translate(21.32)"><line class="q" y2="5.552"/><path class="q" d="M432.366,61.1a1.635,1.635,0,0,0-1.666,1.666v2.11a1.708,1.708,0,0,0,1.666,1.666,1.635,1.635,0,0,0,1.666-1.666v-2.11A1.635,1.635,0,0,0,432.366,61.1Z" transform="translate(-427.258 -60.989)"/></g></g><g transform="translate(360.559 30.087)"><g transform="translate(65.294 0.111)"><path class="v" d="M387.053,27.3a3.485,3.485,0,0,0-3.553,3.442v4.331a3.555,3.555,0,0,0,7.107,0V30.742A3.485,3.485,0,0,0,387.053,27.3Z" transform="translate(-383.5 -27.189)"/><line class="v" y2="11.549" transform="translate(14.325)"/><path class="v" d="M406.253,27.3a3.485,3.485,0,0,0-3.553,3.442v4.331a3.555,3.555,0,0,0,7.107,0V30.742A3.485,3.485,0,0,0,406.253,27.3Z" transform="translate(-381.38 -27.189)"/><line class="v" y2="11.549" transform="translate(35.645)"/><g transform="translate(43.751 0.111)"><line class="v" y2="11.438"/><path class="v" d="M432.653,27.4a3.485,3.485,0,0,0-3.553,3.442v4.331a3.555,3.555,0,0,0,7.107,0V30.842A3.633,3.633,0,0,0,432.653,27.4Z" transform="translate(-422.215 -27.289)"/></g></g><path class="v" d="M328.253,27.3a3.485,3.485,0,0,0-3.553,3.442v4.331a3.555,3.555,0,0,0,7.107,0V30.742A3.485,3.485,0,0,0,328.253,27.3Z" transform="translate(-324.7 -27.078)"/><line class="v" y2="11.66" transform="translate(14.325)"/><path class="v" d="M347.453,27.3a3.485,3.485,0,0,0-3.553,3.442v4.331a3.555,3.555,0,0,0,7.107,0V30.742A3.485,3.485,0,0,0,347.453,27.3Z" transform="translate(-322.58 -27.078)"/><line class="v" y2="11.66" transform="translate(35.645)"/><g transform="translate(43.751 0.111)"><line class="v" y2="11.438"/><path class="v" d="M373.853,27.4a3.485,3.485,0,0,0-3.553,3.442v4.331a3.555,3.555,0,0,0,7.107,0V30.842A3.483,3.483,0,0,0,373.853,27.4Z" transform="translate(-363.415 -27.178)"/></g></g><g transform="translate(108.49 21.536)"><path class="w" d="M100.365,19.5A2.608,2.608,0,0,0,97.7,22.054v3.22a2.667,2.667,0,0,0,5.33,0v-3.22A2.68,2.68,0,0,0,100.365,19.5Z" transform="translate(-97.7 -19.389)"/><line class="w" y2="8.55" transform="translate(10.549)"/><path class="w" d="M114.465,19.5a2.608,2.608,0,0,0-2.665,2.554v3.22a2.667,2.667,0,0,0,5.33,0v-3.22A2.541,2.541,0,0,0,114.465,19.5Z" transform="translate(-96.143 -19.389)"/><line class="w" y2="8.55" transform="translate(26.317)"/><g transform="translate(32.314)"><line class="w" y2="8.55"/><path class="w" d="M133.965,19.5a2.608,2.608,0,0,0-2.665,2.554v3.22a2.667,2.667,0,0,0,5.33,0v-3.22A2.683,2.683,0,0,0,133.965,19.5Z" transform="translate(-126.303 -19.389)"/></g></g><g transform="translate(481.375 49.519)"><g transform="translate(13.103)"><path class="w" d="M462.61,44.7a2.108,2.108,0,0,1,2.11,2.11v2.554a2.184,2.184,0,0,1-2.11,2.11,2.108,2.108,0,0,1-2.11-2.11V46.81A2.042,2.042,0,0,1,462.61,44.7Z" transform="translate(-443.621 -44.589)"/><line class="w" y2="6.885" transform="translate(12.659)"/><path class="w" d="M451.21,44.7a2.108,2.108,0,0,1,2.11,2.11v2.554a2.184,2.184,0,0,1-2.11,2.11,2.108,2.108,0,0,1-2.11-2.11V46.81A2.108,2.108,0,0,1,451.21,44.7Z" transform="translate(-444.88 -44.589)"/><line class="w" y2="6.885"/></g><g transform="translate(0 0.111)"><line class="w" y2="6.774" transform="translate(8.328)"/><path class="w" d="M435.61,44.7a2.088,2.088,0,0,1,2.11,2v2.554a2.018,2.018,0,0,1-2.11,2,2.088,2.088,0,0,1-2.11-2V46.7A2.257,2.257,0,0,1,435.61,44.7Z" transform="translate(-433.5 -44.7)"/></g></g><g transform="translate(224.531 192.544)"><path class="k" d="M202.2,173.511l.777,5.774c.777,5.441,5.885,9.328,12.215,9.328H442.166c9.55,0,17.323-6.774,17.323-15.213H202.2Z" transform="translate(-202.2 -173.4)"/><path class="x" d="M331.123,173.5c0,8.328-7.773,15.213-17.323,15.213H429.174c9.55,0,17.323-6.774,17.323-15.213Z" transform="translate(-189.875 -173.389)"/><path class="k" d="M399.773,177.953H377.9a3.981,3.981,0,0,1-4-4V173.4h29.871v.555A3.981,3.981,0,0,1,399.773,177.953Z" transform="translate(-183.238 -173.4)"/></g><g transform="translate(367.901 50.741)"><g transform="translate(54.234 54.474)"><rect class="y" width="5.885" height="19.322" transform="matrix(0.727, -0.687, 0.687, 0.727, 0, 4.044)"/><rect class="z" width="5.885" height="5.219" transform="matrix(0.727, -0.687, 0.687, 0.727, 0.093, 4.082)"/><path class="aa" d="M424.141,132.012a3.286,3.286,0,0,1-.111,4.553l-4.442,4.22a3.286,3.286,0,0,1-4.553-.111l-28.649-30.315a3.286,3.286,0,0,1,.111-4.553l4.442-4.22a3.286,3.286,0,0,1,4.553.111Z" transform="translate(-379.559 -94.097)"/></g><path class="ab" d="M364.612,112.326A32.841,32.841,0,0,1,340.4,101.888,33.313,33.313,0,0,1,364.612,45.7a33.219,33.219,0,0,1,22.875,57.41A32.72,32.72,0,0,1,364.612,112.326Zm0-60.519a27.287,27.287,0,1,0,19.655,8.55A26.8,26.8,0,0,0,364.612,51.807Z" transform="translate(-331.312 -45.7)"/><path class="m" d="M385.514,58.505a29.22,29.22,0,1,1-41.308-1.11A29.264,29.264,0,0,1,385.514,58.505Z" transform="translate(-330.893 -45.291)"/><g transform="translate(14.915 7.239)"><rect class="s" width="7.44" height="45.861" transform="translate(21.371 45.956) rotate(180)"/><rect class="ac" width="7.44" height="5.441" transform="translate(21.371 5.441) rotate(180)"/><path class="ad" d="M357.3,95.5h7.44V76.4H357.3Z" transform="translate(-343.357 -49.548)"/><rect class="u" width="7.44" height="26.873" transform="translate(7.44 45.945) rotate(180)"/><rect class="z" width="7.44" height="15.546" transform="translate(7.44 34.658) rotate(180)"/><path class="ae" d="M344.8,84.063h7.44V77.4H344.8Z" transform="translate(-344.738 -49.438)"/><g transform="translate(27.825 10.195)"><path class="af" d="M369.9,97.156h7.44V61.4H369.9Z" transform="translate(-369.791 -61.4)"/><rect class="f" width="7.44" height="9.55" transform="translate(7.44 35.726) rotate(180)"/></g></g></g><g transform="translate(252.18 106.263)"><path class="ag" d="M345.14,113.911H227.433a.294.294,0,0,1-.333-.333V96.033a.294.294,0,0,1,.333-.333H345.14a.294.294,0,0,1,.333.333v17.434C345.362,113.689,345.251,113.911,345.14,113.911Z" transform="translate(-227.1 -95.7)"/><g transform="translate(91.833 6.885)"><path class="m" d="M322.186,104.343a2.443,2.443,0,1,1-2.443-2.443A2.465,2.465,0,0,1,322.186,104.343Z" transform="translate(-308.972 -101.9)"/><path class="m" d="M329.886,104.343a2.443,2.443,0,1,1-2.443-2.443A2.4,2.4,0,0,1,329.886,104.343Z" transform="translate(-308.121 -101.9)"/><path class="m" d="M314.686,104.343a2.443,2.443,0,1,1-2.443-2.443A2.465,2.465,0,0,1,314.686,104.343Z" transform="translate(-309.8 -101.9)"/></g><rect class="ac" width="118.262" height="53.412" transform="translate(0 18.211)"/><g transform="translate(9.883 28.316)"><line class="ah" x2="57.632" transform="translate(0 26.762)"/><line class="ah" x2="43.307" transform="translate(27.983 8.995)"/><line class="ah" x2="18.766" transform="translate(0 8.995)"/><line class="ah" x2="37.644" transform="translate(0 17.878)"/><line class="ah" x2="37.644"/></g><g transform="translate(8.884 4.331)"><path class="ah" d="M240.1,109.594l-5-5,5-5" transform="translate(-235.1 -99.6)"/><path class="ah" d="M251.6,99.6l5,5-5,5" transform="translate(-233.278 -99.6)"/><line class="ah" x2="11.66" transform="translate(6.663 4.775)"/></g><g transform="translate(72.845 49.415)"><path class="ah" d="M298.474,151.638l-5.774-5.774,5.774-5.663" transform="translate(-292.7 -140.2)"/><path class="ah" d="M315.5,140.2l5.774,5.663-5.774,5.774" transform="translate(-290.182 -140.2)"/><line class="ah" x1="4.109" y2="6.663" transform="translate(18.1 2.665)"/><line class="ah" x2="9.994" transform="translate(6.441 5.219)"/></g></g><g transform="translate(272.062 5.622)"><g transform="translate(31.063 25.113)"><path class="ai" d="M273,39.361c-.111-.333,3.776-1.333,4-1.555l.777-8c.555-.555,2.554-2.665,3.442-2,3.442,5.885,6.774,16.546,8.773,19.211.333-.111.666-.111,1.11-.222l17.323-2.665a2.99,2.99,0,0,1,3.776,2.332h0c.444,1.777-4.22,4.22-5.885,4.664l-18.544,5.885a10.758,10.758,0,0,1-1.221.333,5.215,5.215,0,0,1-5.108-2.332C278.332,51.576,272.558,46.8,273,39.361Z" transform="translate(-272.978 -27.684)"/><path class="m" d="M305.833,48.375c1.333.222,3.22-1.221,4.331-2.11a2.931,2.931,0,0,1,2.11-.777c.555,0,1.444-.111,2.221-.111a2.593,2.593,0,0,0,1.777-1.11l.333-.555c.222-.444,0-1-.333-1l-6.885-1.11a6.44,6.44,0,0,0-4,1.11,1.109,1.109,0,0,0-.555.444c-2.221,1.221-1.555,4.553,1,5.219Z" transform="translate(-269.609 -26.149)"/></g><path class="t" d="M278.625,24.5H267.076a12.5,12.5,0,0,0-12.215,9.328L246.2,65.364h29.316L284.4,31.94A6,6,0,0,0,278.625,24.5Z" transform="translate(-244.872 -2.922)"/><path class="z" d="M301.429,61.2,290.991,73.748H264.341a5.441,5.441,0,0,1-5.33-6.552l1.221-6Z" transform="translate(-243.469 1.131)"/><circle class="z" cx="6.441" cy="6.441" r="6.441" transform="translate(51.297 62.442)"/><path class="o" d="M287.529,61.2,277.091,73.748H250.441a5.441,5.441,0,0,1-5.33-6.552l1.221-6Z" transform="translate(-245.004 1.131)"/><g transform="translate(41.022 67.217)"><path class="z" d="M282.894,106.8l-.888,3.664a2.533,2.533,0,0,0,2.443,3.109h19.433a.969.969,0,0,0,.555-1.777l-9.439-5Z" transform="translate(-281.947 -61.05)"/><path class="z" d="M304.8,68.931l-9.883,42.419H282.7l5.663-37.977,4-7.773Z" transform="translate(-281.864 -65.6)"/></g><circle class="o" cx="6.441" cy="6.441" r="6.441" transform="translate(35.751 62.442)"/><path class="o" d="M290.909,68.931l-9.994,42.419H268.7l5.774-37.977,3.887-7.773Z" transform="translate(-242.388 1.617)"/><path class="z" d="M268.894,106.8l-.888,3.664a2.533,2.533,0,0,0,2.443,3.109h19.433a.969.969,0,0,0,.555-1.777l-9.439-5Z" transform="translate(-242.471 6.167)"/><g transform="translate(1.772 23.136)"><path class="aj" d="M275.8,59.324l-17.434-1.888a194.562,194.562,0,0,1,8.55-25.1c1.333-3.887-1.888-5.885-3.887-6.329-3-.666-6,1.888-7.44,4.664C251.819,38,246.711,53.438,246.6,61.323a4.973,4.973,0,0,0,4.553,5h1.222l19.433-.888c1.777,0,6.885-1.221,7-3h0A2.885,2.885,0,0,0,275.8,59.324Z" transform="translate(-246.6 -25.904)"/><path class="m" d="M272.461,61.7c1.221.555,3.442-.333,4.775-.888a3.108,3.108,0,0,1,2.221-.222c.555.111,1.444.333,2.221.444a2.34,2.34,0,0,0,2-.666l.555-.444a.676.676,0,0,0-.111-1.11l-6.441-2.776a6.5,6.5,0,0,0-4.109,0c-.222.111-.444.111-.666.222a2.943,2.943,0,0,0-.444,5.441Z" transform="translate(-243.923 -22.613)"/></g><g transform="translate(25.868 41.788)"><g transform="translate(0 0)"><path class="z" d="M287.844,61.7H271.3a2.986,2.986,0,0,1-3-3h19.544Z" transform="translate(-268.3 -40.933)"/><path class="ak" d="M308.406,63.465H281.2l4.109-19.655a1.356,1.356,0,0,1,1.444-1.11h25.762c1.888,0,2,.666,1.777,2l-3.553,16.879A2.377,2.377,0,0,1,308.406,63.465Z" transform="translate(-266.875 -42.7)"/><path class="s" d="M308.273,62.935a2.377,2.377,0,0,0,2.332-1.888L313.381,47.5c-9.106,10.882-25.873,2.554-30.981,15.324h25.873Z" transform="translate(-266.743 -42.17)"/></g><path class="m" d="M299.3,53.233a2.666,2.666,0,0,1-2.554,2,1.722,1.722,0,0,1-1.333-2.332,2.666,2.666,0,0,1,2.554-2C299.073,51.012,299.628,52.011,299.3,53.233Z" transform="translate(-265.316 -41.795)"/></g><g transform="translate(23.814)"><path class="m" d="M285.827,11.764c0,6-.555,9.883-2.776,13.992a3.242,3.242,0,0,1-3.109,1.666h0a1.567,1.567,0,0,0-1.666.888l-.222,3.331a2.059,2.059,0,0,1-.222.777c-2.665,5.108-9.661,1.666-11.215-2.554a2.752,2.752,0,0,1,0-1.888l3.22-5.441L273.945,8.1Z" transform="translate(-266.45 -4.734)"/><ellipse class="m" cx="2.11" cy="2.887" rx="2.11" ry="2.887" transform="translate(3.554 10.297) rotate(-1.204)"/><path class="o" d="M284.776,9.394l-7.884-3.775c-4.22-.888-7.44,1.555-8.328,5.663a26.619,26.619,0,0,0,.222,12.548.609.609,0,0,0,1,.333l1.222-3.442a3.016,3.016,0,0,1-1.11-2.443c0-1.555.888-2.887,2-2.887a2.239,2.239,0,0,1,1.666,1c.222.222.333.333.333-.111l.111-1a4.079,4.079,0,0,1,5.33-3.331l6.33,1.11C289.218,11.948,289.107,10.282,284.776,9.394Z" transform="translate(-266.287 -5.028)"/><path class="al" d="M273.5,22.9c.888,1.555,2.332,2.776,5.219,3" transform="translate(-265.671 -3.099)"/><path class="o" d="M272.965,11.544c2.11,1.555,2.332-.111,4,0,3.442.666,4.553,2.332,8.661,3.22a3.082,3.082,0,0,0,3.664-3.553,2.365,2.365,0,0,0-3.442-1.777,7.744,7.744,0,0,0-5.441-4.22A10.809,10.809,0,0,0,270.3,9.1Z" transform="translate(-266.025 -5.068)"/></g></g><path class="m" d="M171.742,72.021a2.221,2.221,0,1,1-2.221-2.221A2.227,2.227,0,0,1,171.742,72.021Z" transform="translate(18.476 7.702)"/><path class="m" d="M151.842,126.921a2.221,2.221,0,1,1-2.221-2.221A2.3,2.3,0,0,1,151.842,126.921Z" transform="translate(16.279 13.765)"/><path class="m" d="M180.009,144.786a2.2,2.2,0,0,1,1.444-2.776,2.213,2.213,0,0,1,1.333,4.22A2.25,2.25,0,0,1,180.009,144.786Z" transform="translate(19.869 15.666)"/><path class="a" d="M448.7,96.617c8.772-1.555,13.769,7.884,16.768,7.551,1.888-.222,2.665-1.444,4.553-1.555,3.442,0,4.886,4.553,8.772,5.663,1.777.222,3.442-1.11,5-.444a5.921,5.921,0,0,1,3.331,2.887H431.6C438.818,107.5,439.6,98.727,448.7,96.617Z" transform="translate(53.665 9.645)"/><path class="a" d="M518.792,97.1c-19.908-5.9-31.248,29.908-38.052,28.644-4.284-.842-6.048-5.476-10.332-5.9-7.812,0-11.088,17.271-19.908,21.483-4.032.842-7.812-4.212-11.34-1.685-3.276,1.685-5.292,5.055-7.56,10.952h126C541.22,138.382,539.456,105.1,518.792,97.1Z" transform="translate(-36.6 -150.233)"/></g></svg>