<svg xmlns="http://www.w3.org/2000/svg" xmlns:xlink="http://www.w3.org/1999/xlink" width="230" height="118" viewBox="0 0 230 118"><defs><path id="fanda" d="M905 2441.5h230c-22.12-10.37-14.25-34.18-33.25-47.75-15.25-11.64-23 0-40.07-10.58-17.85-12-13.35-37.5-44.35-37.5-29.67 0-26 26-40.67 34.83-15 8.67-24.19 3.5-34.66 11-22.58 16.92-.75 46.5-37 50z"/><path id="fandb" d="M979.25 2366.89c.56 7.64-6.94 12.64-13.94 11.14-5.5-1.5-6-8.5-3-12.5s8.5-6 13.64-3.7a6.95 6.95 0 0 1 3.3 5.06z"/><path id="fandc" d="M1076 2373.82c1.23 2.5 1.28 6.11-1.44 7.46-4.64 1.92-10.59-.45-12.04-5.24-.96-4.93 3.56-7.78 9-5.85a9.8 9.8 0 0 1 4.48 3.63z"/><path id="fandd" d="M1063.53 2366.22a3.18 3.18 0 0 1-3.26 3.42 3.76 3.76 0 0 1-3.56-3.59 3.2 3.2 0 0 1 3.27-3.41 3.74 3.74 0 0 1 3.55 3.58z"/><path id="fande" d="M1018.38 2369.45a1.53 1.53 0 1 1 3.06-.01 1.53 1.53 0 0 1-3.06 0zm-1.44 0a2.97 2.97 0 1 0 5.94 0 2.97 2.97 0 0 0-5.94 0z"/><path id="fandf" d="M920.15 2399.75l4.5-30.4a1.54 1.54 0 0 1 3.03-.1l1.39 6.28a2.45 2.45 0 0 0 4.4.88l.88-1.27a2.96 2.96 0 0 1 4.9.07l18.42 28.09a7.45 7.45 0 0 0 6.23 3.36h2.6a7.5 7.5 0 0 0 6.69-4.08l10.29-20.05a5.28 5.28 0 0 1 9.3-.16l9 16.18a11.53 11.53 0 0 0 10.08 5.92h28.32c5.56 0 10.3-4.02 11.2-9.5l9.44-57.5c.5-2.94 4.71-2.94 5.2 0l2.1 12.83a2.6 2.6 0 0 0 5.14 0l3.67-22c.59-3.56 5.68-3.63 6.38-.09l4.34 22.29a4.88 4.88 0 0 0 4.78 3.94h9.13a5.56 5.56 0 0 1 5.16 3.5l8.82 21.86a4.22 4.22 0 0 0 7.84-.08l2.77-7.28"/><path id="fandg" d="M1036.67 2404.42a1.54 1.54 0 1 1 3.08-.01 1.54 1.54 0 0 1-3.07.01zm-1.43 0a2.97 2.97 0 1 0 5.94 0 2.97 2.97 0 0 0-5.94 0z"/><path id="fandh" d="M1096.8 2354.32a1.53 1.53 0 1 1 3.07-.01 1.53 1.53 0 0 1-3.07.01zm-1.44 0a2.97 2.97 0 1 0 5.94 0 2.97 2.97 0 0 0-5.94 0z"/><path id="fandi" d="M924.6 2368.66a1.53 1.53 0 1 1 3.07-.02 1.53 1.53 0 0 1-3.07.01zm-1.44 0a2.97 2.97 0 1 0 5.94 0 2.97 2.97 0 0 0-5.94 0z"/><path id="fandj" d="M971.32 2419.8a1.54 1.54 0 1 1 3.07 0 1.54 1.54 0 0 1-3.07 0zm-1.44 0a2.97 2.97 0 1 0 5.94.02 2.97 2.97 0 0 0-5.94-.01z"/><path id="fandk" d="M1074.54 2408.26a1.53 1.53 0 1 1 3.05 0 1.53 1.53 0 0 1-3.05 0zm-1.44 0a2.97 2.97 0 1 0 5.93 0 2.97 2.97 0 0 0-5.93 0z"/><path id="fandl" d="M918.75 2433h37.93c1.16 0 2.28-.46 3.1-1.29l11.13-11.12a4.37 4.37 0 0 1 3.1-1.29h46.72c1.78 0 3.4-1.08 4.07-2.74l12.05-29.82a1.66 1.66 0 0 1 3-.12l10.44 20.66c.28.56.85.9 1.47.9h22.5a4.4 4.4 0 0 1 3.82 2.22l6.17 10.84a4.4 4.4 0 0 0 3.82 2.22h38.09"/><path id="fandm" d="M1017.31 2432.27l-21.84-2.31c3.12-11.5 6.65-22.1 10.76-31.43 1.7-4.91-2.37-7.33-4.83-7.91-3.78-.79-7.46 2.33-9.3 5.89-4.78 9.22-11.1 28.5-11.25 38.38a6.35 6.35 0 0 0 5.65 6.31s1.3 0 1.59-.03l24.32-1.09c2.22-.06 8.61-1.56 8.7-3.78.1-2.24-1.56-4.16-3.8-4.03z"/><path id="fando" d="M1016.43 2439.4c1.5.76 4.3-.37 6-1.18a4.13 4.13 0 0 1 2.8-.33c.68.18 1.82.39 2.74.55a3 3 0 0 0 2.53-.8l.65-.6a.85.85 0 0 0-.14-1.38l-8-3.5a8.33 8.33 0 0 0-5.2 0l-.86.3a3.84 3.84 0 0 0-.54 6.92z"/><path id="fandp" d="M1022.69 2432.27l21.85-2.31c-3.13-11.5-6.66-22.1-10.77-31.43-1.7-4.91 2.37-7.33 4.83-7.91 3.78-.79 7.46 2.33 9.3 5.89 4.78 9.22 11.1 28.5 11.25 38.38a6.35 6.35 0 0 1-5.65 6.31s-1.3 0-1.59-.03l-24.32-1.09c-2.22-.06-8.61-1.56-8.7-3.78-.1-2.24 1.56-4.16 3.8-4.03z"/><path id="fandr" d="M1023.57 2439.4c-1.5.76-4.3-.37-6-1.18a4.13 4.13 0 0 0-2.8-.33c-.68.18-1.83.39-2.74.55a3 3 0 0 1-2.54-.8l-.64-.6a.85.85 0 0 1 .14-1.38l8-3.5a8.33 8.33 0 0 1 5.2 0l.86.3a3.84 3.84 0 0 1 .55 6.92z"/><path id="fands" d="M1043.05 2394.65c.32-2.5-1.95-3.9-4.64-4.66-12.32-2.68-24.91-2.54-37.71 0-3 .72-4.96 2.18-4.65 4.66l1.05 36.04h45z"/><path id="fandt" d="M992.77 2401.79h57.55c1.24 0 2.24 1 2.24 2.24v32.9h-62.03v-32.9a2.24 2.24 0 0 1 2.24-2.24z"/><path id="fandu" d="M1050.32 2401.79c1.24 0 2.24 1 2.24 2.24v32.9h-62.03v-8.06c14.11-18.44 34.47-27.08 59.79-27.08z"/><path id="fandw" d="M990.52 2436.93h62.04v3.2c0 .75-.61 1.36-1.37 1.36H991.9c-.76 0-1.37-.6-1.37-1.37v-3.2z"/><path id="fandx" d="M1016.97 2421.74c0-2.03 2.05-3.66 4.58-3.66 2.52 0 4.57 1.63 4.57 3.66 0 2.02-2.05 3.66-4.57 3.66-2.53 0-4.58-1.64-4.58-3.67z"/><path id="fandy" d="M1029.51 2378.28c-1.42-.42-1.95-2.92-1.17-5.59.79-2.67 2.58-4.49 4-4.07 1.44.42 1.96 2.92 1.18 5.59-.79 2.67-2.58 4.5-4 4.07z"/><path id="fandz" d="M1028.5 2390.08c-5.74 5.24-11.85 4.72-18.23 0l1.64-9.23h14.95z"/><path id="fandA" d="M1008.6 2371.45c0-9.18 4.9-16.61 10.95-16.61 6.05 0 10.95 7.43 10.95 16.6 0 9.18-4.9 16.61-10.95 16.61-6.05 0-10.95-7.43-10.95-16.6z"/><path id="fandB" d="M1026.92 2383.73c-1.95 2.69-4.53 4.33-7.37 4.33-2.96 0-5.64-1.79-7.61-4.68"/><path id="fandC" d="M1038.5 2363.14a2.09 2.09 0 0 0-1.93-.79c1.32-1.74 1.74-3.67.92-4.68-.72-.87-2.19-.8-3.7.03.76-2.09.72-4-.25-4.64-.96-.65-2.75.16-4.24 2-.76-.33-1.71-.71-2.89-1.17-6.5-2.54-14.22-2.11-17.83.89-3.9 3.59-3.64 10.07-3.64 10.07s.5 4.89 1.65 6.9l2.03-2.29c7.76-5.9 15.09 3.12 22.39 1.65 1.4-.36 2.39-.7 3.03-1.23.77-.3 1.5-.71 2.14-1.24 2.19-1.73 3.22-4.19 2.32-5.5z"/><path id="fandD" d="M1005.32 2374.2c-.78-2.66-.26-5.16 1.17-5.58 1.43-.42 3.22 1.4 4 4.07.79 2.67.26 5.17-1.17 5.59-1.42.42-3.22-1.4-4-4.07z"/><path id="fandE" d="M1026.01 2371.61c-2.07-2.3-2.91-4.94-1.87-5.87 1.04-.94 3.57.17 5.64 2.48 2.08 2.31 2.92 4.95 1.88 5.88-1.04.94-3.57-.18-5.65-2.49z"/><path id="fandF" d="M1020.49 2368.76c-1.56-2.69-1.85-5.44-.64-6.14 1.21-.7 3.46.9 5.02 3.59 1.56 2.68 1.85 5.43.64 6.13-1.21.7-3.46-.9-5.02-3.58z"/><linearGradient id="fandn" x1="990" x2="1009.9" y1="2445.75" y2="2410.74" gradientUnits="userSpaceOnUse"><stop offset="0" stop-color="#239b6a"/><stop offset="1" stop-color="#4ccd9b"/></linearGradient><linearGradient id="fandq" x1="1055.66" x2="1031.19" y1="2445.53" y2="2413.54" gradientUnits="userSpaceOnUse"><stop offset="0" stop-color="#239b6a"/><stop offset="1" stop-color="#4ccd9b"/></linearGradient><linearGradient id="fandv" x1="1021.55" x2="1021.55" y1="2436.93" y2="2401.79" gradientUnits="userSpaceOnUse"><stop offset="0" stop-color="#4263eb"/><stop offset="1" stop-color="#1f46e7"/></linearGradient></defs><g><g transform="translate(-905 -2324)"><g><g><use fill="#d9edf6" xlink:href="#fanda"/></g><g><use fill="#d9edf6" xlink:href="#fandb"/></g><g><use fill="#d9edf6" xlink:href="#fandc"/></g><g><use fill="#d9edf6" xlink:href="#fandd"/></g></g><g><g><use fill="#239b6a" xlink:href="#fande"/></g><g><use fill="#fff" fill-opacity="0" stroke="#f2751c" stroke-linecap="round" stroke-miterlimit="50" stroke-width="1.5" xlink:href="#fandf"/></g><g><use fill="#f2751c" xlink:href="#fandg"/></g><g><use fill="#f2751c" xlink:href="#fandh"/></g><g><use fill="#f2751c" xlink:href="#fandi"/></g><g><use fill="#1f46e7" xlink:href="#fandj"/></g><g><use fill="#1f46e7" xlink:href="#fandk"/></g><g><use fill="#fff" fill-opacity="0" stroke="#1f46e7" stroke-dasharray="2 3" stroke-linecap="round" stroke-miterlimit="50" stroke-width="1.5" xlink:href="#fandl"/></g></g><g><g><use fill="url(#fandn)" xlink:href="#fandm"/></g><g><use fill="#fff" xlink:href="#fando"/></g><g><use fill="url(#fandq)" xlink:href="#fandp"/></g><g><use fill="#fff" xlink:href="#fandr"/></g><g><use fill="#4ccd9b" xlink:href="#fands"/></g></g><g><g><use fill="#1f46e7" xlink:href="#fandt"/></g><g><use fill="url(#fandv)" xlink:href="#fandu"/></g><g><use fill="#1f46e7" xlink:href="#fandw"/></g><g><use fill="#fff" xlink:href="#fandx"/></g></g><g><g><use fill="#fff" xlink:href="#fandy"/></g><g><use fill="#fff" xlink:href="#fandz"/></g><g><use fill="#fff" xlink:href="#fandA"/></g><g><use fill="#fff" fill-opacity="0" stroke="#c8cbac" stroke-linecap="round" stroke-miterlimit="50" xlink:href="#fandB"/></g><g><use fill="#f2751c" xlink:href="#fandC"/></g><g><use fill="#fff" xlink:href="#fandD"/></g><g><use fill="#f2751c" xlink:href="#fandE"/></g><g><use fill="#f2751c" xlink:href="#fandF"/></g></g></g></g></svg>