<?xml version="1.0" encoding="utf-8"?>
<!-- Generator: Adobe Illustrator 16.0.0, SVG Export Plug-In . SVG Version: 6.00 Build 0)  -->
<!DOCTYPE svg PUBLIC "-//W3C//DTD SVG 1.1//EN" "http://www.w3.org/Graphics/SVG/1.1/DTD/svg11.dtd">
<svg version="1.1" id="Слой_1" xmlns="http://www.w3.org/2000/svg" xmlns:xlink="http://www.w3.org/1999/xlink" x="0px" y="0px"
	 width="120px" height="120px" viewBox="0 0 120 120" enable-background="new 0 0 120 120" xml:space="preserve">
<g>
	<defs>
		<path id="SVGID_1_" d="M44.141,58.818c-4.716,8.05-9.303,23.022-12.017,26.211c-0.139,0.508,0.046,1.051,0.466,1.369l10.956,9.59
			c4.037-4.795,12.281-11.217,11.603-21.625c0.104-0.42-5.099-1.765-5.392-2.084l-1.021-10.795
			c-0.594-0.649-2.787-2.844-4.068-2.844C44.466,58.64,44.287,58.694,44.141,58.818"/>
	</defs>
	<clipPath id="SVGID_2_">
		<use xlink:href="#SVGID_1_"  overflow="visible"/>
	</clipPath>
	
		<linearGradient id="SVGID_3_" gradientUnits="userSpaceOnUse" x1="0" y1="120.0039" x2="1" y2="120.0039" gradientTransform="matrix(-21.2222 24.0702 -24.0702 -21.2222 2940.9226 2614.3582)">
		<stop  offset="0" style="stop-color:#4CCD9B"/>
		<stop  offset="1" style="stop-color:#239B6A"/>
	</linearGradient>
	<polygon clip-path="url(#SVGID_2_)" fill="url(#SVGID_3_)" points="42.413,46.813 13.458,79.653 45.399,107.815 74.354,74.975 	"/>
</g>
<g>
	<defs>
		<rect id="SVGID_4_" width="120" height="120"/>
	</defs>
	<clipPath id="SVGID_5_">
		<use xlink:href="#SVGID_4_"  overflow="visible"/>
	</clipPath>
	<path clip-path="url(#SVGID_5_)" fill="#4CCD9B" d="M46.525,56.103c11.679-8.864,27.442-10.092,42.005-0.957
		c12.015,12.3-6.192,35.14-2.715,53.162H45.494c-2.37-21.87-3.93-27.098-2.036-46.682C43.669,59.438,44.775,57.431,46.525,56.103"/>
	<path clip-path="url(#SVGID_5_)" fill="#EAEACD" d="M38.011,27.519c1.071,9.182,3.302,15.362,8.06,20.822
		c1.321,1.516,3.429,2.082,5.34,1.455l0.049-0.016c1.414-0.42,1.958-0.899,1.958-0.899c-0.112,1.495-0.057,3.462,0.098,5.712
		c0.013,0.411,0.112,0.816,0.29,1.187c3.906,8.147,15.045,3.013,17.596-3.379c0.382-0.956,0.376-2.023,0.046-2.998
		c-1.708-6.971-16.083-30.964-15.815-30.015L38.011,27.519z"/>
	<path clip-path="url(#SVGID_5_)" fill="#4263EB" d="M40.201,20.815l12.262-7.212c6.62-2.114,12.342,1.423,14.364,8.031
		c2.037,6.66,2.554,13.459,1.4,20.41c-0.127,0.77-1.039,1.119-1.648,0.631l-2.542-5.379c0.975-0.876,1.568-2.446,1.451-4.195
		c-0.174-2.594-1.323-3.777-3.203-3.651c-1.06,0.071-1.805,1.115-2.4,2.182c-0.235,0.421-1.12,0.121-1.216-1.178l-0.407-1.665
		c-0.981-4.013-5.282-6.235-9.123-4.712l-10.036,2.72C33.355,25.7,33.249,22.95,40.201,20.815"/>
	
		<path clip-path="url(#SVGID_5_)" fill="none" stroke="#C8CBAC" stroke-width="0.406" stroke-linecap="round" stroke-miterlimit="10" d="
		M58.933,41.369c-0.309,2.819-1.746,5.418-5.94,7.48"/>
	<path clip-path="url(#SVGID_5_)" fill="#4263EB" d="M58.595,23.378c-3.249,2.808-3.807,0.009-6.434,0.444
		c-5.582,1.421-7.122,4.241-13.681,6.253c-3.576,0.854-6.554-1.682-6.395-5.317c0.245-3.126,3.307-4.168,5.413-3.35
		c1.642-3.648,4.627-6.439,8.364-7.388c5.791-1.472,12.999,0.731,16.815,5.238L58.595,23.378z"/>
</g>
<g>
	<defs>
		<path id="SVGID_6_" d="M80.19,54.789c-2.26,0.413-3.221,3.523-2.081,7.192c4.533,12.894,7.944,27.809,10.689,43.927
			c0.512,1.994,2.13,3.719,3.929,4.186c2.029,0.527,7.703-0.3,8.765-2.078c3.678-6.16-2.044-33.16-7.482-46.002
			c-1.723-4.071-4.345-7.699-9.143-7.752c-0.027,0-0.056,0-0.082,0C83.286,54.261,81.767,54.501,80.19,54.789"/>
	</defs>
	<clipPath id="SVGID_7_">
		<use xlink:href="#SVGID_6_"  overflow="visible"/>
	</clipPath>
	
		<linearGradient id="SVGID_8_" gradientUnits="userSpaceOnUse" x1="0" y1="119.9902" x2="1" y2="119.9902" gradientTransform="matrix(-27.463 -41.7206 -41.7206 27.463 5116.5942 -3183.1658)">
		<stop  offset="0" style="stop-color:#F1B827"/>
		<stop  offset="1" style="stop-color:#FECC4D"/>
	</linearGradient>
	<polygon clip-path="url(#SVGID_7_)" fill="url(#SVGID_8_)" points="85.495,123.572 51.086,71.3 96.645,41.31 131.054,93.583 	"/>
</g>
<g>
	<defs>
		<rect id="SVGID_9_" width="120" height="120"/>
	</defs>
	<clipPath id="SVGID_10_">
		<use xlink:href="#SVGID_9_"  overflow="visible"/>
	</clipPath>
	<path clip-path="url(#SVGID_10_)" fill="#1F46E7" d="M29.31,108.24l31.788,0.068c1.318,0.002,2.305-1.208,2.037-2.498
		l-4.618-22.282c-0.173-0.833-0.871-1.372-1.78-1.373l-32.525-0.07c-2.434-0.005-2.524,0.879-2.205,2.488l4.418,21.313
		C26.708,107.255,27.913,108.237,29.31,108.24"/>
	<path clip-path="url(#SVGID_10_)" fill="#4263EB" d="M27.545,108.236l31.788,0.068c1.318,0.002,2.305-1.208,2.037-2.498
		l-4.618-22.282c-0.173-0.833-0.871-1.372-1.78-1.373l-32.525-0.07c-2.434-0.005-2.524,0.88-2.205,2.488l4.418,21.314
		C24.944,107.252,26.148,108.233,27.545,108.236"/>
	<path clip-path="url(#SVGID_10_)" fill="#3054E9" d="M27.545,108.236l31.788,0.068c1.318,0.002,2.305-1.208,2.037-2.498
		L57.839,88.77C45.108,91.85,32.903,97.02,27.545,108.236"/>
	<path clip-path="url(#SVGID_10_)" fill="#EAEACD" d="M55.346,91.026l-3.148-1.444c-0.272-0.096-0.558-0.149-0.847-0.16
		l-2.955-0.112c-0.188-0.007-0.36,0.107-0.425,0.286l-0.054,0.149c-0.158,0.436,0.089,0.912,0.535,1.033l2.065,0.575
		c0.13,0.036,0.253,0.094,0.365,0.17l2.381,2.142L55.346,91.026z"/>
	<path clip-path="url(#SVGID_10_)" fill="#EAEACD" d="M50.165,94.738L50.165,94.738c-0.632,2.249,0.879,4.874,3.214,5.529
		c1.141-0.473,2.412-0.533,3.593-0.172l37.693,11.553c2.335,0.656,5.256-2.14,6.025-5.146c0.6-2.747-0.919-5.697-3.254-6.354
		l-40.551-8.146l-1.539-0.976C53.011,90.371,50.797,92.489,50.165,94.738"/>
	<path clip-path="url(#SVGID_10_)" fill="#EAEACD" d="M58.904,95.091c-2.394-2.131-5.457-3.137-9.685-2.182l-8.027,2.176
		c-1.048,0.284-1.267,1.774-0.36,2.453l5.369,4.018c1.17,0.875,2.632,1.134,3.966,0.702l6.735-2.181L58.904,95.091z"/>
	<path clip-path="url(#SVGID_10_)" fill="#EAEACD" d="M60.071,33.165c-0.127,2.49,1.233,4.583,3.037,4.675
		c1.805,0.092,3.371-1.851,3.498-4.341c0.127-2.49-1.232-4.583-3.037-4.675C61.765,28.732,60.198,30.675,60.071,33.165"/>
	<path clip-path="url(#SVGID_10_)" fill="#FFFFFF" d="M88.759,105.47c0,3.656,2.964,6.621,6.621,6.621
		c3.655,0,6.619-2.965,6.619-6.621s-2.964-6.621-6.619-6.621C91.723,98.849,88.759,101.813,88.759,105.47"/>
</g>
<g>
	<defs>
		<path id="SVGID_11_" d="M80.19,54.789c-2.26,0.413-5.663,4.875-4.523,8.544c1.961,13,6.499,21.5,11.57,33.937l-27.265-5.062
			c-1.093,1.231-2.223,5.886-1.306,8.796c0,0,30.334,10.741,36.713,11.086c2.748,0.148,5.111-1.679,6.109-4.067
			c0.001-0.003,0.003-0.005,0.004-0.007c3.678-6.16-2.044-33.16-7.482-46.002c-1.724-4.071-4.218-7.014-9.25-8.992
			c-0.17-0.067-0.342-0.097-0.515-0.096C82.969,52.926,81.603,54.53,80.19,54.789"/>
	</defs>
	<clipPath id="SVGID_12_">
		<use xlink:href="#SVGID_11_"  overflow="visible"/>
	</clipPath>
	
		<linearGradient id="SVGID_13_" gradientUnits="userSpaceOnUse" x1="0" y1="120.0605" x2="1" y2="120.0605" gradientTransform="matrix(-30.7644 -39.2632 39.2632 -30.7644 -4609.769 3805.2339)">
		<stop  offset="0" style="stop-color:#239B6A"/>
		<stop  offset="1" style="stop-color:#4CCD9B"/>
	</linearGradient>
	<polygon clip-path="url(#SVGID_12_)" fill="url(#SVGID_13_)" points="133.966,89.676 87.131,29.903 28.954,75.487 75.788,135.26 	
		"/>
</g>
</svg>
