<svg xmlns="http://www.w3.org/2000/svg" xmlns:xlink="http://www.w3.org/1999/xlink" width="376" height="265" viewBox="0 0 340 240"><defs><style>.a{clip-path:url(#a);}.b{fill:#d9edf6;}.c{fill:#4ccd9b;}.d{fill:#239b6a;}.e{clip-path:url(#h);}.f{fill:url(#i);}.g{fill:#4263eb;}.h,.i,.l{fill:none;stroke-linecap:round;stroke-miterlimit:10;}.h{stroke:#f2751c;stroke-dasharray:0.908 4.539;}.h,.i{stroke-width:1.362px;}.i{stroke:#4263eb;stroke-dasharray:4.539 4.539;}.j{fill:#fff;}.k{clip-path:url(#p);}.l{stroke:#c8cbac;stroke-width:0.908px;}.m{fill:#f2751c;}.n{clip-path:url(#t);}.o{fill:url(#u);}.p{clip-path:url(#w);}.q{clip-path:url(#x);}.r{clip-path:url(#y);}.s{clip-path:url(#z);}.t{clip-path:url(#aa);}.u{clip-path:url(#ab);}.v{clip-path:url(#ac);}.w{clip-path:url(#ad);}.x{clip-path:url(#ae);}.y{clip-path:url(#af);}.z{clip-path:url(#ag);}.aa{clip-path:url(#ah);}.ab{clip-path:url(#ai);}.ac{clip-path:url(#aj);}.ad{clip-path:url(#ak);}.ae{clip-path:url(#al);}.af{clip-path:url(#am);}.ag{clip-path:url(#an);}.ah{clip-path:url(#ao);}.ai{clip-path:url(#ap);}.aj{clip-path:url(#aq);}.ak{clip-path:url(#ar);}.al{clip-path:url(#as);}.am{clip-path:url(#at);}.an{clip-path:url(#au);}.ao{clip-path:url(#av);}.ap{clip-path:url(#aw);}.aq{clip-path:url(#ax);}.ar{clip-path:url(#ay);}.as{clip-path:url(#ba);}.at{fill:url(#bb);}.au{fill:#ffc400;}.av{clip-path:url(#bd);}.aw{fill:url(#be);}.ax{fill:url(#bg);}.ay{fill:url(#bi);}</style><clipPath id="a"><rect width="340" height="240"/></clipPath><clipPath id="h"><path d="M38.2,191.565h7.545a13.983,13.983,0,0,1,4.106-9.839l-5.336-5.334A21.5,21.5,0,0,0,38.2,191.565" transform="translate(-38.204 -176.393)"/></clipPath><linearGradient id="i" x1="-3.279" y1="4.192" x2="-3.193" y2="4.192" gradientUnits="objectBoundingBox"><stop offset="0" stop-color="#4ccd9b"/><stop offset="1" stop-color="#239b6a"/></linearGradient><clipPath id="p"><rect width="340" height="240" transform="translate(-112 -132.953)"/></clipPath><clipPath id="t"><path d="M121.558,72a1.068,1.068,0,0,0-1.069,1.068v62.2a1.067,1.067,0,0,0,1.069,1.068h36.374A1.067,1.067,0,0,0,159,135.265v-62.2A1.068,1.068,0,0,0,157.932,72Z" transform="translate(-120.489 -72)"/></clipPath><linearGradient id="u" x1="-3.129" y1="2.611" x2="-3.103" y2="2.611" gradientUnits="objectBoundingBox"><stop offset="0" stop-color="#f2751c"/><stop offset="1" stop-color="#ffc400"/></linearGradient><clipPath id="w"><rect width="340" height="240" transform="translate(-173.03 -54.333)"/></clipPath><clipPath id="x"><rect width="340" height="240" transform="translate(-165 -72)"/></clipPath><clipPath id="y"><rect width="340" height="240" transform="translate(-195 -78)"/></clipPath><clipPath id="z"><rect width="340" height="240" transform="translate(-165 -78)"/></clipPath><clipPath id="aa"><rect width="340" height="240" transform="translate(-165 -84)"/></clipPath><clipPath id="ab"><rect width="340" height="240" transform="translate(-185.375 -90)"/></clipPath><clipPath id="ac"><rect width="340" height="240" transform="translate(-165 -90)"/></clipPath><clipPath id="ad"><rect width="340" height="240" transform="translate(-165 -96)"/></clipPath><clipPath id="ae"><rect width="340" height="240" transform="translate(-195.875 -102)"/></clipPath><clipPath id="af"><rect width="340" height="240" transform="translate(-165 -102)"/></clipPath><clipPath id="ag"><rect width="340" height="240" transform="translate(-185.375 -108)"/></clipPath><clipPath id="ah"><rect width="340" height="240" transform="translate(-165 -108)"/></clipPath><clipPath id="ai"><rect width="340" height="240" transform="translate(-165 -114)"/></clipPath><clipPath id="aj"><rect width="340" height="240" transform="translate(-189.375 -120)"/></clipPath><clipPath id="ak"><rect width="340" height="240" transform="translate(-165 -120)"/></clipPath><clipPath id="al"><rect width="340" height="240" transform="translate(-165 -126)"/></clipPath><clipPath id="am"><rect width="340" height="240" transform="translate(-193.375 -132)"/></clipPath><clipPath id="an"><rect width="340" height="240" transform="translate(-180.375 -132)"/></clipPath><clipPath id="ao"><rect width="340" height="240" transform="translate(-165 -132)"/></clipPath><clipPath id="ap"><rect width="340" height="240" transform="translate(-165 -138)"/></clipPath><clipPath id="aq"><rect width="340" height="240" transform="translate(-120.49 -144)"/></clipPath><clipPath id="ar"><rect width="340" height="240" transform="translate(-184.563 -150)"/></clipPath><clipPath id="as"><rect width="340" height="240" transform="translate(-148.625 -150)"/></clipPath><clipPath id="at"><rect width="340" height="240" transform="translate(-120.49 -150)"/></clipPath><clipPath id="au"><rect width="340" height="240" transform="translate(-186.375 -156)"/></clipPath><clipPath id="av"><rect width="340" height="240" transform="translate(-152.932 -156)"/></clipPath><clipPath id="aw"><rect width="340" height="240" transform="translate(-120.49 -156)"/></clipPath><clipPath id="ax"><rect width="340" height="240" transform="translate(-143.375 -162)"/></clipPath><clipPath id="ay"><rect width="340" height="240" transform="translate(-120.49 -162)"/></clipPath><clipPath id="ba"><path d="M242.385,40.2h7.753a15.216,15.216,0,0,1,15.215-15.215V17.233A22.968,22.968,0,0,0,242.385,40.2" transform="translate(-242.385 -17.233)"/></clipPath><linearGradient id="bb" x1="-10.553" y1="9.699" x2="-10.51" y2="9.699" gradientUnits="objectBoundingBox"><stop offset="0" stop-color="#ff9a01"/><stop offset="1" stop-color="#ffc400"/></linearGradient><clipPath id="bd"><path d="M242.385,40.2A22.969,22.969,0,0,0,265.353,63.17V55.417A15.216,15.216,0,0,1,250.138,40.2Z" transform="translate(-242.385 -40.201)"/></clipPath><linearGradient id="be" x1="-10.553" y1="8.699" x2="-10.51" y2="8.699" xlink:href="#bb"/><linearGradient id="bg" x1="-10.553" y1="8.699" x2="-10.51" y2="8.699" xlink:href="#bb"/><linearGradient id="bi" x1="-10.553" y1="8.699" x2="-10.51" y2="8.699" xlink:href="#u"/></defs><g class="a"><path class="b" d="M256.467,206.457c32.269-23.682,51.269-64.682,45.269-105.682-3-16-16-26-32-27-29-2-57,21-84.843,8.931-7.423-3.6-13.081-9.437-17.975-16.334-9.787-13.794-16.516-31.819-28.182-44.6-12-12-30-14-45-6-44,26-71,85-48.427,131.617a56.7,56.7,0,0,0,12.427,15.383c11,10,23.5,8.75,36.25,3.875a138.418,138.418,0,0,0,12.8-5.812c5.975-3.031,11.962-6.548,18.217-9.3,4.366-1.884,9.549-4.075,14.641-4.672s10.092.4,14.092,4.9c10,15,4,33,4,50a26.924,26.924,0,0,0,6.125,14.625,32.1,32.1,0,0,0,12.879,9.375,54.692,54.692,0,0,0,16.786,3.208,71.176,71.176,0,0,0,17.016-1.548c11.194-2.66,23.194-6.66,33.406-12.732a147.639,147.639,0,0,0,12.519-8.245"/></g><g class="a"><path class="b" d="M144.514,187.047A13.915,13.915,0,0,1,146.2,201.4c-4.289,9.033-13.1,15.923-23.433,13.45-12.154-3.778-16.06-19.8-8.65-29.347,4.8-5.913,11.972-5.165,19.7-6.441a16.8,16.8,0,0,1,10.692,7.987"/></g><g class="a"><path class="c" d="M49.854,201.555l-5.335,5.335a21.565,21.565,0,0,0,30.5,0l-5.335-5.335a14.021,14.021,0,0,1-19.828,0"/></g><g class="a"><path class="d" d="M70.069,181.341l4.549-4.549a.557.557,0,0,0-.008-.8,21.488,21.488,0,0,0-14.775-5.918v7.545a13.97,13.97,0,0,1,9.463,3.734.555.555,0,0,0,.771-.015"/></g><g class="a"><path class="d" d="M44.52,206.89l5.335-5.335a13.98,13.98,0,0,1-4.106-9.99H38.205A21.5,21.5,0,0,0,44.52,206.89"/></g><g class="a"><path class="c" d="M49.854,181.727a13.97,13.97,0,0,1,9.98-4.1v-7.544a21.5,21.5,0,0,0-15.315,6.314Z"/></g><g class="a"><path class="d" d="M69.683,201.555a13.969,13.969,0,0,0,4.1-9.56.43.43,0,0,1,.429-.42H80.9a.428.428,0,0,1,.429.436,21.49,21.49,0,0,1-6.312,14.879Z"/></g><g class="e" transform="translate(38.204 176.393)"><rect class="f" width="11.651" height="15.173"/></g><g class="a"><path class="g" d="M244.19,101.583a3.5,3.5,0,1,0,3.5,3.5,3.5,3.5,0,0,0-3.5-3.5m0,5.306A1.806,1.806,0,1,1,246,105.084a1.8,1.8,0,0,1-1.806,1.805"/></g><g class="a"><path class="g" d="M79.343,148.245a3.5,3.5,0,1,0,3.5,3.5,3.5,3.5,0,0,0-3.5-3.5m0,5.306a1.806,1.806,0,1,1,1.805-1.806,1.806,1.806,0,0,1-1.805,1.806"/></g><g class="a"><path class="h" d="M46.485,90h24.54A2.17,2.17,0,0,0,73.1,88.478L79.1,69.26a2.169,2.169,0,0,1,4.167.094l5.018,19.03A2.171,2.171,0,0,0,90.387,90h18.906a2.168,2.168,0,0,1,2.055,1.476l7.666,22.747a2.169,2.169,0,0,0,4.156-.153l5.762-22.44a2.17,2.17,0,0,1,2.1-1.63H157.5a2.169,2.169,0,0,1,2.129,1.754l4.423,22.716a2.169,2.169,0,0,0,4.106.478l3.661-8.109a2.17,2.17,0,0,1,4.014.146l13.751,37.5a2.17,2.17,0,0,0,2.036,1.423H204.1a2.169,2.169,0,0,0,2-1.322l6.072-14.295a2.168,2.168,0,0,1,3.971-.049l6.537,14.393a2.171,2.171,0,0,0,1.975,1.273h6.069a2.167,2.167,0,0,1,2.068,1.516l4.575,14.515a2.169,2.169,0,0,0,4.219-.365l1.83-13.782a2.169,2.169,0,0,1,2.149-1.883h8.795a2.17,2.17,0,0,0,1.966-1.252l4.191-8.982a2.169,2.169,0,0,1,3.878-.1l3.586,6.7a2.169,2.169,0,0,0,3.838-.025l11.121-21.488a2.169,2.169,0,0,1,3.907.112l6.668,14.93"/></g><g class="a"><path class="i" d="M45.777,126h19.1a2.165,2.165,0,0,1,1.972,1.274L77.3,150.47a2.163,2.163,0,0,0,3.966-.051l11.92-28.366a2.162,2.162,0,0,1,3.8-.357l7.412,11.163a2.164,2.164,0,0,0,3.819-.413l7.087-18.23a2.163,2.163,0,0,1,4.025-.02l6.518,16.293a2.164,2.164,0,0,0,4.087-.2l10.091-34.9a2.164,2.164,0,0,1,4.163.023l6.376,23A2.162,2.162,0,0,0,152.645,120h21.317a2.163,2.163,0,0,0,2.109-1.683l5.864-25.737a2.163,2.163,0,0,1,4.2-.072l3.3,12.523a2.164,2.164,0,0,0,4.136.158l9.2-26.479a2.163,2.163,0,0,1,4.1.039l5.137,15.758A2.163,2.163,0,0,0,214.071,96h11.382a2.161,2.161,0,0,0,2.026-1.41l3.694-9.936a2.163,2.163,0,0,1,4.058.009l7.017,19.139a2.163,2.163,0,0,0,4.04.059l4-10a2.163,2.163,0,0,1,2.008-1.36H266.3a2.163,2.163,0,0,0,2.049-1.468l3.838-11.306A2.545,2.545,0,0,1,274.6,78h20.363"/></g><g class="a"><path class="g" d="M230.068,69.805l-43.421-9.078a1.481,1.481,0,0,1-1.2-.787c-1.27-2.5-4.384-4.225-8.324-5.606h45.406C229.25,55,231.42,62.54,231.74,68.2a1.534,1.534,0,0,1-1.672,1.6"/></g><g class="a"><path class="j" d="M210,54.333H125.833A13.833,13.833,0,0,0,112,68.166V178.333h85.5a12.5,12.5,0,0,0,12.5-12.5V74.521c.774-10.764,1.656-20.187,11.906-20.187H210Z"/></g><g class="k" transform="translate(112 132.953)"><line class="l" y2="40.047"/></g><g class="a"><path class="m" d="M240.331,159.522a3.5,3.5,0,1,0,3.5,3.5,3.5,3.5,0,0,0-3.5-3.5m0,5.306a1.806,1.806,0,1,1,1.806-1.806,1.806,1.806,0,0,1-1.806,1.806"/></g><g class="a"><path class="m" d="M285.366,116.5a3.5,3.5,0,1,0,3.5,3.5,3.5,3.5,0,0,0-3.5-3.5m0,5.306A1.806,1.806,0,1,1,287.172,120a1.806,1.806,0,0,1-1.806,1.806"/></g><g class="a"><path class="m" d="M80.738,64.238a3.5,3.5,0,1,0,3.5,3.5,3.5,3.5,0,0,0-3.5-3.5m0,5.305a1.806,1.806,0,1,1,1.805-1.805,1.8,1.8,0,0,1-1.805,1.805"/></g><g class="n" transform="translate(120.489 72)"><rect class="o" width="38.511" height="64.333"/></g><g class="a"><path class="g" d="M87.462,163.028l101.515,9.078a1.48,1.48,0,0,1,1.2.787c1.27,2.5,4.383,4.226,8.324,5.606H95c-6.858-2.7-8.889-8.206-9.209-13.868a1.533,1.533,0,0,1,1.671-1.6"/></g><g class="p" transform="translate(173.03 54.333)"><line class="l" x1="39.875"/></g><g class="q" transform="translate(165 72)"><line class="l" x2="37.5"/></g><g class="r" transform="translate(195 78)"><line class="l" x2="7.5"/></g><g class="s" transform="translate(165 78)"><line class="l" x2="22.875"/></g><g class="t" transform="translate(165 84)"><line class="l" x2="31.968"/></g><g class="u" transform="translate(185.375 90)"><line class="l" x2="17.125"/></g><g class="v" transform="translate(165 90)"><line class="l" x2="12.625"/></g><g class="w" transform="translate(165 96)"><line class="l" x2="21.375"/></g><g class="x" transform="translate(195.875 102)"><line class="l" x2="6.625"/></g><g class="y" transform="translate(165 102)"><line class="l" x2="21.375"/></g><g class="z" transform="translate(185.375 108)"><line class="l" x2="17.125"/></g><g class="aa" transform="translate(165 108)"><line class="l" x2="12.031"/></g><g class="ab" transform="translate(165 114)"><line class="l" x2="37.5"/></g><g class="ac" transform="translate(189.375 120)"><line class="l" x2="13.125"/></g><g class="ad" transform="translate(165 120)"><line class="l" x2="13.375"/></g><g class="ae" transform="translate(165 126)"><line class="l" x2="26.25"/></g><g class="af" transform="translate(193.375 132)"><line class="l" x2="9.125"/></g><g class="ag" transform="translate(180.375 132)"><line class="l" x2="8.375"/></g><g class="ah" transform="translate(165 132)"><line class="l" x2="10.687"/></g><g class="ai" transform="translate(165 138)"><line class="l" x2="37.5"/></g><g class="aj" transform="translate(120.49 144)"><line class="l" x2="64.885"/></g><g class="ak" transform="translate(184.563 150)"><line class="l" x2="17.937"/></g><g class="al" transform="translate(148.625 150)"><line class="l" x2="28.999"/></g><g class="am" transform="translate(120.49 150)"><line class="l" x2="15.385"/></g><g class="an" transform="translate(186.375 156)"><line class="l" x2="16.125"/></g><g class="ao" transform="translate(152.932 156)"><line class="l" x2="27.443"/></g><g class="ap" transform="translate(120.49 156)"><line class="l" x2="22.51"/></g><g class="aq" transform="translate(143.375 162)"><line class="l" x2="31.75"/></g><g class="ar" transform="translate(120.49 162)"><line class="l" x2="13.26"/></g><g class="a"><path class="m" d="M265.354,17.233v7.752a15.216,15.216,0,1,1,0,30.432V63.17a22.968,22.968,0,0,0,0-45.937"/></g><g class="as" transform="translate(242.385 17.233)"><rect class="at" width="22.968" height="22.968"/></g><g class="a"><path class="au" d="M265.354,24.985V17.233A22.968,22.968,0,0,0,242.386,40.2h7.752a15.215,15.215,0,0,1,15.216-15.216"/></g><g class="av" transform="translate(242.385 40.201)"><rect class="aw" width="22.968" height="22.969"/></g><g class="av" transform="translate(242.385 40.201)"><rect class="ax" width="22.968" height="22.969"/></g><g class="av" transform="translate(242.385 40.201)"><rect class="ay" width="22.968" height="22.969"/></g></svg>